
<svg xmlns="http://www.w3.org/2000/svg" version="1.1" xmlns:xlink="http://www.w3.org/1999/xlink" preserveAspectRatio="none" x="0px" y="0px" width="834px" height="69px" viewBox="0 0 834 69">
<defs>
<g id="Layer1_0_FILL">
<path fill="#666666" stroke="none" d="
M 833.85 11.75
Q 833.85 0.55 823.05 0.25
L 11 0.25
Q 0.15 0.55 0.15 11.75
L 0.15 57.25
Q 0.15 68.45 11 68.75
L 823.05 68.75
Q 833.85 68.45 833.85 57.25
L 833.85 11.75
M 822.95 3.25
Q 830.85 3.55 830.85 11.75
L 830.85 57.25
Q 830.85 65.45 822.95 65.75
L 11.05 65.75
Q 3.15 65.45 3.15 57.25
L 3.15 11.75
Q 3.15 3.55 11.1 3.25
L 822.95 3.25 Z"/>

<path fill="#FFFFFF" stroke="none" d="
M 830.85 11.75
Q 830.85 3.55 822.95 3.25
L 11.1 3.25
Q 3.15 3.55 3.15 11.75
L 3.15 57.25
Q 3.15 65.45 11.05 65.75
L 822.95 65.75
Q 830.85 65.45 830.85 57.25
L 830.85 11.75 Z"/>
</g>

<g id="Layer0_0_FILL">
<path fill="#000000" stroke="none" d="
M 160.75 190.9
L 158.45 190.9 158.45 209.45 160.75 209.45 160.75 190.9
M 152.6 196.15
Q 151.5 195.7 149.8 195.7 148.05 195.7 146.75 196.2 145.4 196.65 144.75 197.55 144.05 198.45 143.75 199.85
L 145.95 200.15
Q 146.3 198.75 147.1 198.15 147.85 197.6 149.45 197.6 151.15 197.6 152.05 198.4 152.7 198.95 152.7 200.35 152.7 200.45 152.7 200.95 151.4 201.4 148.6 201.7 147.25 201.9 146.6 202.05 145.7 202.3 144.95 202.8 144.25 203.3 143.8 204.1 143.35 204.9 143.35 205.9 143.35 207.6 144.5 208.7 145.7 209.75 147.9 209.75 149.25 209.75 150.45 209.3 151.6 208.85 152.85 207.8 152.95 208.75 153.3 209.45
L 155.7 209.45
Q 155.25 208.7 155.15 207.85 155 207 155 203.8
L 155 200.8
Q 155 199.25 154.85 198.7 154.65 197.75 154.15 197.15 153.65 196.55 152.6 196.15
M 152.7 202.7
L 152.7 203.55
Q 152.7 205.05 152.3 205.8 151.85 206.8 150.8 207.4 149.8 207.95 148.45 207.95 147.15 207.95 146.45 207.35 145.75 206.75 145.75 205.85 145.75 205.25 146.1 204.75 146.4 204.3 147 204.05 147.55 203.75 148.95 203.55 151.45 203.2 152.7 202.7
M 131.85 196.05
L 129.75 196.05 129.75 214.6 132.05 214.6 132.05 208.05
Q 132.6 208.8 133.5 209.25 134.4 209.75 135.55 209.75 137.1 209.75 138.55 208.9 139.95 208 140.7 206.35 141.4 204.7 141.4 202.65 141.4 200.7 140.75 199.1 140.05 197.5 138.75 196.6 137.45 195.7 135.7 195.7 134.4 195.7 133.5 196.25 132.55 196.75 131.85 197.75
L 131.85 196.05
M 138.05 198.8
Q 139.1 200.05 139.1 202.6 139.1 205.3 138 206.6 136.9 207.9 135.4 207.9 133.9 207.9 132.85 206.65 131.8 205.4 131.8 202.8 131.8 200.2 132.95 198.85 134.05 197.5 135.5 197.5 136.95 197.5 138.05 198.8
M 110.6 196.65
Q 109.9 197.15 109.5 197.95 109.1 198.7 109.1 199.6 109.1 200.6 109.6 201.4 110.05 202.2 111.05 202.65 112 203.15 114.5 203.75 116.35 204.25 116.85 204.55 117.5 205 117.5 205.75 117.5 206.6 116.75 207.25 116 207.9 114.4 207.9 112.85 207.9 112 207.15 111.15 206.45 110.95 205.1
L 108.7 205.45
Q 109.1 207.6 110.45 208.65 111.8 209.75 114.45 209.75 116 209.75 117.25 209.2 118.5 208.65 119.2 207.65 119.85 206.65 119.85 205.5 119.85 204.35 119.3 203.55 118.75 202.8 117.8 202.35 116.85 201.95 114.45 201.3 112.75 200.85 112.45 200.75 111.85 200.5 111.55 200.1 111.3 199.75 111.3 199.3 111.3 198.65 111.95 198.1 112.6 197.6 114.2 197.6 115.5 197.6 116.25 198.15 116.95 198.75 117.1 199.8
L 119.35 199.5
Q 119.15 198.2 118.55 197.4 118 196.65 116.8 196.2 115.6 195.7 114 195.7 112.95 195.7 112.05 196 111.15 196.25 110.6 196.65
M 97.85 196.2
Q 96.5 196.65 95.85 197.55 95.15 198.45 94.85 199.85
L 97.05 200.15
Q 97.4 198.75 98.2 198.15 98.95 197.6 100.55 197.6 102.25 197.6 103.15 198.4 103.8 198.95 103.8 200.35 103.8 200.45 103.8 200.95 102.5 201.4 99.7 201.7 98.35 201.9 97.7 202.05 96.8 202.3 96.05 202.8 95.35 203.3 94.9 204.1 94.45 204.9 94.45 205.9 94.45 207.6 95.6 208.7 96.8 209.75 99 209.75 100.35 209.75 101.55 209.3 102.7 208.85 103.95 207.8 104.05 208.75 104.4 209.45
L 106.8 209.45
Q 106.35 208.7 106.25 207.85 106.1 207 106.1 203.8
L 106.1 200.8
Q 106.1 199.25 105.95 198.7 105.75 197.75 105.25 197.15 104.75 196.55 103.7 196.15 102.6 195.7 100.9 195.7 99.15 195.7 97.85 196.2
M 103.8 202.7
L 103.8 203.55
Q 103.8 205.05 103.4 205.8 102.95 206.8 101.9 207.4 100.9 207.95 99.55 207.95 98.25 207.95 97.55 207.35 96.85 206.75 96.85 205.85 96.85 205.25 97.2 204.75 97.5 204.3 98.1 204.05 98.65 203.75 100.05 203.55 102.55 203.2 103.8 202.7
M 79.15 195.7
Q 76.4 195.7 74.65 197.6 72.9 199.45 72.9 202.85 72.9 206.15 74.65 207.95 76.35 209.75 79.3 209.75 81.65 209.75 83.15 208.6 84.65 207.5 85.2 205.4
L 82.85 205.15
Q 82.35 206.55 81.45 207.25 80.55 207.9 79.3 207.9 77.65 207.9 76.5 206.7 75.4 205.55 75.25 203.3
L 85.25 203.3
Q 85.25 202.9 85.25 202.7 85.25 199.4 83.55 197.55 81.85 195.7 79.15 195.7
M 82 198.9
Q 82.7 199.75 82.85 201.45
L 75.4 201.45
Q 75.5 199.7 76.55 198.65 77.65 197.6 79.2 197.6 80.95 197.6 82 198.9
M 65.2 197.8
L 66.85 197.8 66.85 205.5
Q 66.85 207.55 67.15 208.2 67.45 208.85 68.1 209.25 68.8 209.65 70.05 209.65 70.8 209.65 71.75 209.4
L 71.4 207.4
Q 70.8 207.5 70.45 207.5 69.9 207.5 69.65 207.35 69.4 207.15 69.25 206.9 69.15 206.6 69.15 205.65
L 69.15 197.8 71.4 197.8 71.4 196.05 69.15 196.05 69.15 191.35 66.85 192.7 66.85 196.05 65.2 196.05 65.2 197.8
M 54.5 196.65
Q 53.8 197.15 53.4 197.95 53 198.7 53 199.6 53 200.6 53.5 201.4 53.95 202.2 54.95 202.65 55.9 203.15 58.4 203.75 60.25 204.25 60.75 204.55 61.4 205 61.4 205.75 61.4 206.6 60.65 207.25 59.9 207.9 58.3 207.9 56.75 207.9 55.9 207.15 55.05 206.45 54.85 205.1
L 52.6 205.45
Q 53 207.6 54.35 208.65 55.7 209.75 58.35 209.75 59.9 209.75 61.15 209.2 62.4 208.65 63.1 207.65 63.75 206.65 63.75 205.5 63.75 204.35 63.2 203.55 62.65 202.8 61.7 202.35 60.75 201.95 58.35 201.3 56.65 200.85 56.35 200.75 55.75 200.5 55.45 200.1 55.2 199.75 55.2 199.3 55.2 198.65 55.85 198.1 56.5 197.6 58.1 197.6 59.4 197.6 60.15 198.15 60.85 198.75 61 199.8
L 63.25 199.5
Q 63.05 198.2 62.45 197.4 61.9 196.65 60.7 196.2 59.5 195.7 57.9 195.7 56.85 195.7 55.95 196 55.05 196.25 54.5 196.65
M 44.8 195.7
Q 43.05 195.7 41.75 196.2 40.4 196.65 39.75 197.55 39.05 198.45 38.75 199.85
L 40.95 200.15
Q 41.3 198.75 42.1 198.15 42.85 197.6 44.45 197.6 46.15 197.6 47.05 198.4 47.7 198.95 47.7 200.35 47.7 200.45 47.7 200.95 46.4 201.4 43.6 201.7 42.25 201.9 41.6 202.05 40.7 202.3 39.95 202.8 39.25 203.3 38.8 204.1 38.35 204.9 38.35 205.9 38.35 207.6 39.5 208.7 40.7 209.75 42.9 209.75 44.25 209.75 45.45 209.3 46.6 208.85 47.85 207.8 47.95 208.75 48.3 209.45
L 50.7 209.45
Q 50.25 208.7 50.15 207.85 50 207 50 203.8
L 50 200.8
Q 50 199.25 49.85 198.7 49.65 197.75 49.15 197.15 48.65 196.55 47.6 196.15 46.5 195.7 44.8 195.7
M 47.7 202.7
L 47.7 203.55
Q 47.7 205.05 47.3 205.8 46.85 206.8 45.8 207.4 44.8 207.95 43.45 207.95 42.15 207.95 41.45 207.35 40.75 206.75 40.75 205.85 40.75 205.25 41.1 204.75 41.4 204.3 42 204.05 42.55 203.75 43.95 203.55 46.45 203.2 47.7 202.7
M 32.55 196.05
L 30.5 196.05 30.5 209.45 32.75 209.45 32.75 202.4
Q 32.75 201 33.15 199.75 33.4 198.95 34 198.55 34.6 198.05 35.3 198.05 36.15 198.05 37 198.55
L 37.8 196.45
Q 36.6 195.7 35.45 195.7 34.65 195.7 34 196.2 33.3 196.65 32.55 198.05
L 32.55 196.05
M 23.9 196.05
L 21.85 196.05 21.85 209.45 24.1 209.45 24.1 202.4
Q 24.1 201 24.5 199.75 24.75 198.95 25.35 198.55 25.95 198.05 26.65 198.05 27.5 198.05 28.35 198.55
L 29.15 196.45
Q 27.95 195.7 26.8 195.7 26 195.7 25.35 196.2 24.65 196.65 23.9 198.05
L 23.9 196.05
M 12.6 190.9
L 10 190.9 2.85 209.45 5.45 209.45 7.5 203.85 15.25 203.85 17.4 209.45 20.2 209.45 12.6 190.9
M 11.25 192.85
Q 11.65 194.35 12.55 196.7
L 14.5 201.85 8.2 201.85 10.25 196.4
Q 10.9 194.65 11.25 192.85
M 322.35 197.55
Q 320.55 195.7 317.8 195.7 315.3 195.7 313.6 197.2 311.5 199 311.5 202.75 311.5 206.15 313.25 207.95 315 209.75 317.8 209.75 319.55 209.75 321.05 208.95 322.55 208.1 323.3 206.65 324.1 205.15 324.1 202.55 324.1 199.35 322.35 197.55
M 317.8 207.9
Q 316.1 207.9 314.95 206.6 313.85 205.3 313.85 202.75 313.85 200.15 314.95 198.9 316.1 197.6 317.8 197.6 319.5 197.6 320.6 198.9 321.75 200.15 321.75 202.65 321.75 205.3 320.6 206.6 319.5 207.9 317.8 207.9
M 303.65 195.7
Q 301.9 195.7 300.6 196.2 299.25 196.65 298.6 197.55 297.9 198.45 297.6 199.85
L 299.8 200.15
Q 300.15 198.75 300.95 198.15 301.7 197.6 303.3 197.6 305 197.6 305.9 198.4 306.55 198.95 306.55 200.35 306.55 200.45 306.55 200.95 305.25 201.4 302.45 201.7 301.1 201.9 300.45 202.05 299.55 202.3 298.8 202.8 298.1 203.3 297.65 204.1 297.2 204.9 297.2 205.9 297.2 207.6 298.35 208.7 299.55 209.75 301.75 209.75 303.1 209.75 304.3 209.3 305.45 208.85 306.7 207.8 306.8 208.75 307.15 209.45
L 309.55 209.45
Q 309.1 208.7 309 207.85 308.85 207 308.85 203.8
L 308.85 200.8
Q 308.85 199.25 308.7 198.7 308.5 197.75 308 197.15 307.5 196.55 306.45 196.15 305.35 195.7 303.65 195.7
M 306.55 202.7
L 306.55 203.55
Q 306.55 205.05 306.15 205.8 305.7 206.8 304.65 207.4 303.65 207.95 302.3 207.95 301 207.95 300.3 207.35 299.6 206.75 299.6 205.85 299.6 205.25 299.95 204.75 300.25 204.3 300.85 204.05 301.4 203.75 302.8 203.55 305.3 203.2 306.55 202.7
M 301.7 191.15
Q 300.6 191.15 299.85 191.95 299.15 192.75 299.15 194.05
L 300.85 194.05
Q 300.8 193.45 301.1 193.15 301.35 192.85 301.8 192.85 302.2 192.85 303.05 193.3 304.35 194 305.1 194 306.2 194 306.9 193.3 307.55 192.55 307.6 191.1
L 305.95 191.1
Q 305.85 191.8 305.65 192 305.45 192.2 305.05 192.2 304.6 192.2 303.85 191.85 302.5 191.15 301.7 191.15
M 286 196.65
Q 285.3 197.15 284.9 197.95 284.5 198.7 284.5 199.6 284.5 200.6 285 201.4 285.45 202.2 286.45 202.65 287.4 203.15 289.9 203.75 291.75 204.25 292.25 204.55 292.9 205 292.9 205.75 292.9 206.6 292.15 207.25 291.4 207.9 289.8 207.9 288.25 207.9 287.4 207.15 286.55 206.45 286.35 205.1
L 284.1 205.45
Q 284.5 207.6 285.85 208.65 287.2 209.75 289.85 209.75 291.4 209.75 292.65 209.2 293.9 208.65 294.6 207.65 295.25 206.65 295.25 205.5 295.25 204.35 294.7 203.55 294.15 202.8 293.2 202.35 292.25 201.95 289.85 201.3 288.15 200.85 287.85 200.75 287.25 200.5 286.95 200.1 286.7 199.75 286.7 199.3 286.7 198.65 287.35 198.1 288 197.6 289.6 197.6 290.9 197.6 291.65 198.15 292.35 198.75 292.5 199.8
L 294.75 199.5
Q 294.55 198.2 293.95 197.4 293.4 196.65 292.2 196.2 291 195.7 289.4 195.7 288.35 195.7 287.45 196 286.55 196.25 286 196.65
M 268.95 195.7
Q 266.2 195.7 264.45 197.6 262.7 199.45 262.7 202.85 262.7 206.15 264.45 207.95 266.15 209.75 269.1 209.75 271.45 209.75 272.95 208.6 274.45 207.5 275 205.4
L 272.65 205.15
Q 272.15 206.55 271.25 207.25 270.35 207.9 269.1 207.9 267.45 207.9 266.3 206.7 265.2 205.55 265.05 203.3
L 275.05 203.3
Q 275.05 202.9 275.05 202.7 275.05 199.4 273.35 197.55 271.65 195.7 268.95 195.7
M 271.8 198.9
Q 272.5 199.75 272.65 201.45
L 265.2 201.45
Q 265.3 199.7 266.35 198.65 267.45 197.6 269 197.6 270.75 197.6 271.8 198.9
M 251.3 196.05
L 249 196.05 249 204.35
Q 249 205.8 249.15 206.45 249.35 207.45 249.85 208.15 250.35 208.85 251.4 209.3 252.4 209.75 253.6 209.75 256.3 209.75 257.85 207.5
L 257.85 209.45 259.9 209.45 259.9 196.05 257.6 196.05 257.6 203.2
Q 257.6 204.95 257.25 205.85 256.85 206.75 255.95 207.3 255.05 207.8 254.05 207.8 253.05 207.8 252.35 207.3 251.65 206.75 251.4 205.85 251.3 205.25 251.3 203.45
L 251.3 196.05
M 239.5 195.7
Q 237.95 195.7 236.6 196.55 235.25 197.4 234.55 199 233.85 200.6 233.85 202.6 233.85 205.95 235.6 207.85 237.3 209.75 239.7 209.75 240.75 209.75 241.75 209.25 242.7 208.75 243.2 208
L 243.2 214.6 245.5 214.6 245.5 196.05 243.45 196.05 243.45 197.8
Q 242 195.7 239.5 195.7
M 236.2 202.7
Q 236.2 200.05 237.25 198.8 238.25 197.5 239.75 197.5 241.25 197.5 242.35 198.85 243.45 200.2 243.45 202.9 243.45 205.4 242.4 206.65 241.35 207.9 239.9 207.9 238.35 207.9 237.3 206.6 236.2 205.3 236.2 202.7
M 215.55 196.65
Q 214.85 197.15 214.45 197.95 214.05 198.7 214.05 199.6 214.05 200.6 214.55 201.4 215 202.2 216 202.65 216.95 203.15 219.45 203.75 221.3 204.25 221.8 204.55 222.45 205 222.45 205.75 222.45 206.6 221.7 207.25 220.95 207.9 219.35 207.9 217.8 207.9 216.95 207.15 216.1 206.45 215.9 205.1
L 213.65 205.45
Q 214.05 207.6 215.4 208.65 216.75 209.75 219.4 209.75 220.95 209.75 222.2 209.2 223.45 208.65 224.15 207.65 224.8 206.65 224.8 205.5 224.8 204.35 224.25 203.55 223.7 202.8 222.75 202.35 221.8 201.95 219.4 201.3 217.7 200.85 217.4 200.75 216.8 200.5 216.5 200.1 216.25 199.75 216.25 199.3 216.25 198.65 216.9 198.1 217.55 197.6 219.15 197.6 220.45 197.6 221.2 198.15 221.9 198.75 222.05 199.8
L 224.3 199.5
Q 224.1 198.2 223.5 197.4 222.95 196.65 221.75 196.2 220.55 195.7 218.95 195.7 217.9 195.7 217 196 216.1 196.25 215.55 196.65
M 205.85 195.7
Q 204.1 195.7 202.8 196.2 201.45 196.65 200.8 197.55 200.1 198.45 199.8 199.85
L 202 200.15
Q 202.35 198.75 203.15 198.15 203.9 197.6 205.5 197.6 207.2 197.6 208.1 198.4 208.75 198.95 208.75 200.35 208.75 200.45 208.75 200.95 207.45 201.4 204.65 201.7 203.3 201.9 202.65 202.05 201.75 202.3 201 202.8 200.3 203.3 199.85 204.1 199.4 204.9 199.4 205.9 199.4 207.6 200.55 208.7 201.75 209.75 203.95 209.75 205.3 209.75 206.5 209.3 207.65 208.85 208.9 207.8 209 208.75 209.35 209.45
L 211.75 209.45
Q 211.3 208.7 211.2 207.85 211.05 207 211.05 203.8
L 211.05 200.8
Q 211.05 199.25 210.9 198.7 210.7 197.75 210.2 197.15 209.7 196.55 208.65 196.15 207.55 195.7 205.85 195.7
M 208.75 202.7
L 208.75 203.55
Q 208.75 205.05 208.35 205.8 207.9 206.8 206.85 207.4 205.85 207.95 204.5 207.95 203.2 207.95 202.5 207.35 201.8 206.75 201.8 205.85 201.8 205.25 202.15 204.75 202.45 204.3 203.05 204.05 203.6 203.75 205 203.55 207.5 203.2 208.75 202.7
M 198.8 196.45
Q 197.6 195.7 196.45 195.7 195.65 195.7 195 196.2 194.3 196.65 193.55 198.05
L 193.55 196.05 191.5 196.05 191.5 209.45 193.75 209.45 193.75 202.4
Q 193.75 201 194.15 199.75 194.4 198.95 195 198.55 195.6 198.05 196.3 198.05 197.15 198.05 198 198.55
L 198.8 196.45
M 179.7 196.05
L 177.3 196.05 182.4 209.45 184.5 209.45 189.6 196.05 187.25 196.05 184.25 204.2
Q 183.75 205.7 183.4 206.75 183.05 205.35 182.55 204.05
L 179.7 196.05
M 166.9 196.2
Q 165.55 196.65 164.9 197.55 164.2 198.45 163.9 199.85
L 166.1 200.15
Q 166.45 198.75 167.25 198.15 168 197.6 169.6 197.6 171.3 197.6 172.2 198.4 172.85 198.95 172.85 200.35 172.85 200.45 172.85 200.95 171.55 201.4 168.75 201.7 167.4 201.9 166.75 202.05 165.85 202.3 165.1 202.8 164.4 203.3 163.95 204.1 163.5 204.9 163.5 205.9 163.5 207.6 164.65 208.7 165.85 209.75 168.05 209.75 169.4 209.75 170.6 209.3 171.75 208.85 173 207.8 173.1 208.75 173.45 209.45
L 175.85 209.45
Q 175.4 208.7 175.3 207.85 175.15 207 175.15 203.8
L 175.15 200.8
Q 175.15 199.25 175 198.7 174.8 197.75 174.3 197.15 173.8 196.55 172.75 196.15 171.65 195.7 169.95 195.7 168.2 195.7 166.9 196.2
M 172.85 202.7
L 172.85 203.55
Q 172.85 205.05 172.45 205.8 172 206.8 170.95 207.4 169.95 207.95 168.6 207.95 167.3 207.95 166.6 207.35 165.9 206.75 165.9 205.85 165.9 205.25 166.25 204.75 166.55 204.3 167.15 204.05 167.7 203.75 169.1 203.55 171.6 203.2 172.85 202.7
M 485.05 196.45
Q 483.85 195.7 482.7 195.7 481.9 195.7 481.25 196.2 480.55 196.65 479.8 198.05
L 479.8 196.05 477.75 196.05 477.75 209.45 480 209.45 480 202.4
Q 480 201 480.4 199.75 480.65 198.95 481.25 198.55 481.85 198.05 482.55 198.05 483.4 198.05 484.25 198.55
L 485.05 196.45
M 469.05 195.7
Q 467.3 195.7 466 196.2 464.65 196.65 464 197.55 463.3 198.45 463 199.85
L 465.2 200.15
Q 465.55 198.75 466.35 198.15 467.1 197.6 468.7 197.6 470.4 197.6 471.3 198.4 471.95 198.95 471.95 200.35 471.95 200.45 471.95 200.95 470.65 201.4 467.85 201.7 466.5 201.9 465.85 202.05 464.95 202.3 464.2 202.8 463.5 203.3 463.05 204.1 462.6 204.9 462.6 205.9 462.6 207.6 463.75 208.7 464.95 209.75 467.15 209.75 468.5 209.75 469.7 209.3 470.85 208.85 472.1 207.8 472.2 208.75 472.55 209.45
L 474.95 209.45
Q 474.5 208.7 474.4 207.85 474.25 207 474.25 203.8
L 474.25 200.8
Q 474.25 199.25 474.1 198.7 473.9 197.75 473.4 197.15 472.9 196.55 471.85 196.15 470.75 195.7 469.05 195.7
M 471.95 202.7
L 471.95 203.55
Q 471.95 205.05 471.55 205.8 471.1 206.8 470.05 207.4 469.05 207.95 467.7 207.95 466.4 207.95 465.7 207.35 465 206.75 465 205.85 465 205.25 465.35 204.75 465.65 204.3 466.25 204.05 466.8 203.75 468.2 203.55 470.7 203.2 471.95 202.7
M 451.1 196.05
L 449 196.05 449 214.6 451.3 214.6 451.3 208.05
Q 451.85 208.8 452.75 209.25 453.65 209.75 454.8 209.75 456.35 209.75 457.8 208.9 459.2 208 459.95 206.35 460.65 204.7 460.65 202.65 460.65 200.7 460 199.1 459.3 197.5 458 196.6 456.7 195.7 454.95 195.7 453.65 195.7 452.75 196.25 451.8 196.75 451.1 197.75
L 451.1 196.05
M 457.3 198.8
Q 458.35 200.05 458.35 202.6 458.35 205.3 457.25 206.6 456.15 207.9 454.65 207.9 453.15 207.9 452.1 206.65 451.05 205.4 451.05 202.8 451.05 200.2 452.2 198.85 453.3 197.5 454.75 197.5 456.2 197.5 457.3 198.8
M 428.1 193.6
Q 429.1 192.75 431.35 192.75 433.5 192.75 434.6 193.65 435.65 194.55 435.85 196.3
L 438.2 196.15
Q 438.15 194.5 437.3 193.2 436.45 191.95 434.9 191.25 433.3 190.6 431.25 190.6 429.35 190.6 427.85 191.25 426.3 191.85 425.5 193.1 424.7 194.3 424.7 195.7 424.7 197 425.4 198 426 199.05 427.35 199.75 428.35 200.3 430.95 200.9 433.5 201.5 434.25 201.8 435.4 202.25 435.9 202.9 436.4 203.55 436.4 204.4 436.4 205.3 435.9 206 435.35 206.75 434.3 207.15 433.2 207.55 431.8 207.55 430.2 207.55 428.95 207 427.7 206.45 427.1 205.6 426.5 204.7 426.35 203.3
L 424 203.5
Q 424.05 205.35 425.05 206.85 426 208.3 427.7 209.05 429.4 209.75 431.9 209.75 433.9 209.75 435.5 209.05 437.05 208.3 437.9 207 438.75 205.7 438.75 204.2 438.75 202.7 438 201.6 437.2 200.45 435.6 199.7 434.5 199.2 431.5 198.5 428.5 197.85 427.8 197.2 427.1 196.55 427.1 195.55 427.1 194.4 428.1 193.6
M 412.85 190.6
Q 408.9 190.6 406.45 193.2 403.95 195.8 403.95 200.4 403.95 202.85 405 205.05 406.1 207.25 408.15 208.5 410.2 209.75 412.8 209.75 415.25 209.75 417.3 208.65 419.4 207.5 420.55 205.25 421.65 203.05 421.65 200.2 421.65 197.45 420.6 195.25 419.5 193.05 417.45 191.8 415.4 190.6 412.85 190.6
M 416.15 193.65
Q 417.6 194.55 418.4 196.25 419.15 197.95 419.15 200.2 419.15 203.75 417.35 205.7 415.55 207.65 412.8 207.65 410.1 207.65 408.3 205.75 406.5 203.8 406.5 200.45 406.5 196.3 408.35 194.5 410.25 192.7 412.85 192.7 414.65 192.7 416.15 193.65
M 394.3 190.9
L 387.35 190.9 387.35 209.45 394.4 209.45
Q 396.2 209.45 397.4 209.15 398.6 208.85 399.45 208.2 400.25 207.6 400.8 206.5 401.35 205.4 401.35 204.1 401.35 202.45 400.45 201.25 399.55 200.1 397.85 199.6 399.15 198.95 399.8 197.9 400.45 196.85 400.45 195.65 400.45 194.4 399.7 193.2 399 192.05 397.7 191.5 396.4 190.9 394.3 190.9
M 389.8 193.1
L 393.5 193.1
Q 395.5 193.1 396.3 193.35 397.15 193.6 397.6 194.35 398.05 195.05 398.05 195.95 398.05 196.9 397.55 197.55 397.1 198.2 396.15 198.5 395.45 198.7 393.8 198.7
L 389.8 198.7 389.8 193.1
M 398.25 202.3
Q 398.8 203.05 398.8 204.1 398.8 204.95 398.45 205.65 398.05 206.3 397.5 206.65 396.95 207 396.1 207.15 395.6 207.25 394.4 207.25
L 389.8 207.25 389.8 200.9 394.1 200.9
Q 395.85 200.9 396.8 201.2 397.75 201.5 398.25 202.3
M 380.75 191.4
Q 379.5 190.9 377 190.9
L 368.8 190.9 368.8 209.45 371.25 209.45 371.25 201.2 374.1 201.2
Q 375.05 201.2 375.45 201.3 376 201.45 376.55 201.8 377.1 202.15 377.8 203.05 378.5 203.95 379.6 205.6
L 382.05 209.45 385.1 209.45 381.9 204.4
Q 380.95 202.95 379.85 201.95 379.35 201.5 378.4 201 381.05 200.65 382.3 199.3 383.6 197.95 383.6 195.95 383.6 194.45 382.85 193.2 382.05 191.9 380.75 191.4
M 381.05 195.95
Q 381.05 196.85 380.6 197.65 380.1 198.4 379.15 198.75 378.2 199.1 376.5 199.1
L 371.25 199.1 371.25 192.95 377.1 192.95
Q 379.15 192.95 380.1 193.8 381.05 194.65 381.05 195.95
M 364.9 193.1
L 364.9 190.9 351.5 190.9 351.5 209.45 365.35 209.45 365.35 207.25 353.95 207.25 353.95 200.95 364.2 200.95 364.2 198.8 353.95 198.8 353.95 193.1 364.9 193.1
M 334.95 190.9
L 332.3 190.9 339.5 209.45 342 209.45 349.25 190.9 346.75 190.9 341.75 204.4
Q 341.2 205.9 340.75 207.4 340.35 206 339.8 204.4
L 334.95 190.9
M 629.9 195.7
Q 628.15 195.7 626.7 196.55 625.2 197.35 624.5 199 623.75 200.6 623.75 202.8 623.75 206.15 625.45 207.95 627.1 209.75 629.85 209.75 632.05 209.75 633.6 208.45 635.1 207.15 635.45 204.8
L 633.2 204.55
Q 633 206.25 632.1 207.05 631.2 207.9 629.85 207.9 628.15 207.9 627.15 206.65 626.1 205.45 626.1 202.7 626.1 200.05 627.15 198.85 628.25 197.6 629.95 197.6 631.1 197.6 631.9 198.3 632.7 198.95 633.05 200.3
L 635.25 199.95
Q 634.85 197.95 633.45 196.85 632.05 195.7 629.9 195.7
M 593.35 195.7
Q 591.7 195.7 590.35 196.6 589 197.45 588.35 199.1 587.7 200.75 587.7 202.75 587.7 204.8 588.45 206.4 589.15 208 590.5 208.85 591.85 209.75 593.45 209.75 595.95 209.75 597.2 207.75
L 597.2 209.45 599.35 209.45 599.35 190.9 597.05 190.9 597.05 197.55
Q 596.45 196.75 595.5 196.25 594.55 195.7 593.35 195.7
M 596.2 198.9
Q 597.25 200.2 597.25 202.95 597.25 205.45 596.2 206.65 595.15 207.9 593.7 207.9 592.2 207.9 591.1 206.6 590 205.35 590 202.75 590 200.1 591.05 198.85 592.05 197.6 593.6 197.6 595.15 197.6 596.2 198.9
M 572.35 195.7
Q 569.85 195.7 568.15 197.2 566.05 199 566.05 202.75 566.05 206.15 567.8 207.95 569.55 209.75 572.35 209.75 574.1 209.75 575.6 208.95 577.1 208.1 577.85 206.65 578.65 205.15 578.65 202.55 578.65 199.35 576.9 197.55 575.1 195.7 572.35 195.7
M 568.4 202.75
Q 568.4 200.15 569.5 198.9 570.65 197.6 572.35 197.6 574.05 197.6 575.15 198.9 576.3 200.15 576.3 202.65 576.3 205.3 575.15 206.6 574.05 207.9 572.35 207.9 570.65 207.9 569.5 206.6 568.4 205.3 568.4 202.75
M 605.55 196.2
Q 604.2 196.65 603.55 197.55 602.85 198.45 602.55 199.85
L 604.75 200.15
Q 605.1 198.75 605.9 198.15 606.65 197.6 608.25 197.6 609.95 197.6 610.85 198.4 611.5 198.95 611.5 200.35 611.5 200.45 611.5 200.95 610.2 201.4 607.4 201.7 606.05 201.9 605.4 202.05 604.5 202.3 603.75 202.8 603.05 203.3 602.6 204.1 602.15 204.9 602.15 205.9 602.15 207.6 603.3 208.7 604.5 209.75 606.7 209.75 608.05 209.75 609.25 209.3 610.4 208.85 611.65 207.8 611.75 208.75 612.1 209.45
L 614.5 209.45
Q 614.05 208.7 613.95 207.85 613.8 207 613.8 203.8
L 613.8 200.8
Q 613.8 199.25 613.65 198.7 613.45 197.75 612.95 197.15 612.45 196.55 611.4 196.15 610.3 195.7 608.6 195.7 606.85 195.7 605.55 196.2
M 611.5 202.7
L 611.5 203.55
Q 611.5 205.05 611.1 205.8 610.65 206.8 609.6 207.4 608.6 207.95 607.25 207.95 605.95 207.95 605.25 207.35 604.55 206.75 604.55 205.85 604.55 205.25 604.9 204.75 605.2 204.3 605.8 204.05 606.35 203.75 607.75 203.55 610.25 203.2 611.5 202.7
M 560.35 196.05
L 558.3 196.05 558.3 209.45 560.55 209.45 560.55 202.4
Q 560.55 201 560.95 199.75 561.2 198.95 561.8 198.55 562.4 198.05 563.1 198.05 563.95 198.05 564.8 198.55
L 565.6 196.45
Q 564.4 195.7 563.25 195.7 562.45 195.7 561.8 196.2 561.1 196.65 560.35 198.05
L 560.35 196.05
M 549.85 197.8
L 551.5 197.8 551.5 205.5
Q 551.5 207.55 551.8 208.2 552.1 208.85 552.75 209.25 553.45 209.65 554.7 209.65 555.45 209.65 556.4 209.4
L 556.05 207.4
Q 555.45 207.5 555.1 207.5 554.55 207.5 554.3 207.35 554.05 207.15 553.9 206.9 553.8 206.6 553.8 205.65
L 553.8 197.8 556.05 197.8 556.05 196.05 553.8 196.05 553.8 191.35 551.5 192.7 551.5 196.05 549.85 196.05 549.85 197.8
M 538.75 196.05
L 536.7 196.05 536.7 209.45 539 209.45 539 202.1
Q 539 199.55 540.05 198.6 541.1 197.7 542.55 197.7 543.45 197.7 544.15 198.1 544.8 198.5 545.05 199.2 545.35 199.9 545.35 201.3
L 545.35 209.45 547.6 209.45 547.6 201.2
Q 547.6 199.6 547.5 199 547.3 198 546.8 197.3 546.3 196.6 545.25 196.15 544.25 195.7 543.05 195.7 540.25 195.7 538.75 197.95
L 538.75 196.05
M 532.25 197.55
Q 530.55 195.7 527.85 195.7 525.1 195.7 523.35 197.6 521.6 199.45 521.6 202.85 521.6 206.15 523.35 207.95 525.05 209.75 528 209.75 530.35 209.75 531.85 208.6 533.35 207.5 533.9 205.4
L 531.55 205.15
Q 531.05 206.55 530.15 207.25 529.25 207.9 528 207.9 526.35 207.9 525.2 206.7 524.1 205.55 523.95 203.3
L 533.95 203.3
Q 533.95 202.9 533.95 202.7 533.95 199.4 532.25 197.55
M 530.7 198.9
Q 531.4 199.75 531.55 201.45
L 524.1 201.45
Q 524.2 199.7 525.25 198.65 526.35 197.6 527.9 197.6 529.65 197.6 530.7 198.9
M 512.8 195.7
Q 511.15 195.7 509.8 196.6 508.45 197.45 507.8 199.1 507.15 200.75 507.15 202.75 507.15 204.8 507.9 206.4 508.6 208 509.95 208.85 511.3 209.75 512.9 209.75 515.4 209.75 516.65 207.75
L 516.65 209.45 518.8 209.45 518.8 190.9 516.5 190.9 516.5 197.55
Q 515.9 196.75 514.95 196.25 514 195.7 512.8 195.7
M 509.45 202.75
Q 509.45 200.1 510.5 198.85 511.5 197.6 513.05 197.6 514.6 197.6 515.65 198.9 516.7 200.2 516.7 202.95 516.7 205.45 515.65 206.65 514.6 207.9 513.15 207.9 511.65 207.9 510.55 206.6 509.45 205.35 509.45 202.75
M 489.05 196.2
Q 487.7 196.65 487.05 197.55 486.35 198.45 486.05 199.85
L 488.25 200.15
Q 488.6 198.75 489.4 198.15 490.15 197.6 491.75 197.6 493.45 197.6 494.35 198.4 495 198.95 495 200.35 495 200.45 495 200.95 493.7 201.4 490.9 201.7 489.55 201.9 488.9 202.05 488 202.3 487.25 202.8 486.55 203.3 486.1 204.1 485.65 204.9 485.65 205.9 485.65 207.6 486.8 208.7 488 209.75 490.2 209.75 491.55 209.75 492.75 209.3 493.9 208.85 495.15 207.8 495.25 208.75 495.6 209.45
L 498 209.45
Q 497.55 208.7 497.45 207.85 497.3 207 497.3 203.8
L 497.3 200.8
Q 497.3 199.25 497.15 198.7 496.95 197.75 496.45 197.15 495.95 196.55 494.9 196.15 493.8 195.7 492.1 195.7 490.35 195.7 489.05 196.2
M 495 202.7
L 495 203.55
Q 495 205.05 494.6 205.8 494.15 206.8 493.1 207.4 492.1 207.95 490.75 207.95 489.45 207.95 488.75 207.35 488.05 206.75 488.05 205.85 488.05 205.25 488.4 204.75 488.7 204.3 489.3 204.05 489.85 203.75 491.25 203.55 493.75 203.2 495 202.7
M 648.3 200.8
Q 648.3 199.25 648.15 198.7 647.95 197.75 647.45 197.15 646.95 196.55 645.9 196.15 644.8 195.7 643.1 195.7 641.35 195.7 640.05 196.2 638.7 196.65 638.05 197.55 637.35 198.45 637.05 199.85
L 639.25 200.15
Q 639.6 198.75 640.4 198.15 641.15 197.6 642.75 197.6 644.45 197.6 645.35 198.4 646 198.95 646 200.35 646 200.45 646 200.95 644.7 201.4 641.9 201.7 640.55 201.9 639.9 202.05 639 202.3 638.25 202.8 637.55 203.3 637.1 204.1 636.65 204.9 636.65 205.9 636.65 207.6 637.8 208.7 639 209.75 641.2 209.75 642.55 209.75 643.75 209.3 644.9 208.85 646.15 207.8 646.25 208.75 646.6 209.45
L 649 209.45
Q 648.55 208.7 648.45 207.85 648.3 207 648.3 203.8
L 648.3 200.8
M 646 202.7
L 646 203.55
Q 646 205.05 645.6 205.8 645.15 206.8 644.1 207.4 643.1 207.95 641.75 207.95 640.45 207.95 639.75 207.35 639.05 206.75 639.05 205.85 639.05 205.25 639.4 204.75 639.7 204.3 640.3 204.05 640.85 203.75 642.25 203.55 644.75 203.2 646 202.7
M 793.45 206.85
L 793.45 209.45 796.05 209.45 796.05 206.85 793.45 206.85
M 774.5 196.85
Q 773.1 195.7 770.95 195.7 769.2 195.7 767.75 196.55 766.25 197.35 765.55 199 764.8 200.6 764.8 202.8 764.8 206.15 766.5 207.95 768.15 209.75 770.9 209.75 773.1 209.75 774.65 208.45 776.15 207.15 776.5 204.8
L 774.25 204.55
Q 774.05 206.25 773.15 207.05 772.25 207.9 770.9 207.9 769.2 207.9 768.2 206.65 767.15 205.45 767.15 202.7 767.15 200.05 768.2 198.85 769.3 197.6 771 197.6 772.15 197.6 772.95 198.3 773.75 198.95 774.1 200.3
L 776.3 199.95
Q 775.9 197.95 774.5 196.85
M 788.5 197.15
Q 788 196.55 786.95 196.15 785.85 195.7 784.15 195.7 782.4 195.7 781.1 196.2 779.75 196.65 779.1 197.55 778.4 198.45 778.1 199.85
L 780.3 200.15
Q 780.65 198.75 781.45 198.15 782.2 197.6 783.8 197.6 785.5 197.6 786.4 198.4 787.05 198.95 787.05 200.35 787.05 200.45 787.05 200.95 785.75 201.4 782.95 201.7 781.6 201.9 780.95 202.05 780.05 202.3 779.3 202.8 778.6 203.3 778.15 204.1 777.7 204.9 777.7 205.9 777.7 207.6 778.85 208.7 780.05 209.75 782.25 209.75 783.6 209.75 784.8 209.3 785.95 208.85 787.2 207.8 787.3 208.75 787.65 209.45
L 790.05 209.45
Q 789.6 208.7 789.5 207.85 789.35 207 789.35 203.8
L 789.35 200.8
Q 789.35 199.25 789.2 198.7 789 197.75 788.5 197.15
M 787.05 202.7
L 787.05 203.55
Q 787.05 205.05 786.65 205.8 786.2 206.8 785.15 207.4 784.15 207.95 782.8 207.95 781.5 207.95 780.8 207.35 780.1 206.75 780.1 205.85 780.1 205.25 780.45 204.75 780.75 204.3 781.35 204.05 781.9 203.75 783.3 203.55 785.8 203.2 787.05 202.7
M 756.3 196.05
L 754.2 196.05 754.2 197.65
Q 752.7 195.7 750.3 195.7 748.5 195.7 747.2 196.6 745.85 197.5 745.2 199.1 744.5 200.75 744.5 202.65 744.5 205.45 746 207.45 747.5 209.45 750.3 209.45 752.5 209.45 754 207.7 754 209.9 753.85 210.6 753.55 211.75 752.7 212.4 751.8 213 750.25 213 748.75 213 747.9 212.4 747.3 211.9 747.15 210.9
L 744.95 210.55
Q 744.9 212.75 746.35 213.8 747.85 214.9 750.25 214.9 752.25 214.9 753.65 214.15 755.05 213.4 755.7 212.1 756.3 210.75 756.3 207.65
L 756.3 196.05
M 754.2 202.55
Q 754.2 205.15 753.15 206.35 752.05 207.55 750.5 207.55 748.9 207.55 747.85 206.35 746.8 205.15 746.8 202.5 746.8 200.05 747.9 198.85 748.95 197.6 750.45 197.6 752 197.6 753.1 198.85 754.2 200.1 754.2 202.55
M 762.05 196.05
L 759.75 196.05 759.75 209.45 762.05 209.45 762.05 196.05
M 759.75 190.9
L 759.75 193.55 762.05 193.55 762.05 190.9 759.75 190.9
M 736.8 190.8
L 735.1 194.35 737 194.35 739.75 190.8 736.8 190.8
M 733.6 196.2
Q 732.25 196.65 731.6 197.55 730.9 198.45 730.6 199.85
L 732.8 200.15
Q 733.15 198.75 733.95 198.15 734.7 197.6 736.3 197.6 738 197.6 738.9 198.4 739.55 198.95 739.55 200.35 739.55 200.45 739.55 200.95 738.25 201.4 735.45 201.7 734.1 201.9 733.45 202.05 732.55 202.3 731.8 202.8 731.1 203.3 730.65 204.1 730.2 204.9 730.2 205.9 730.2 207.6 731.35 208.7 732.55 209.75 734.75 209.75 736.1 209.75 737.3 209.3 738.45 208.85 739.7 207.8 739.8 208.75 740.15 209.45
L 742.55 209.45
Q 742.1 208.7 742 207.85 741.85 207 741.85 203.8
L 741.85 200.8
Q 741.85 199.25 741.7 198.7 741.5 197.75 741 197.15 740.5 196.55 739.45 196.15 738.35 195.7 736.65 195.7 734.9 195.7 733.6 196.2
M 739.55 202.7
L 739.55 203.55
Q 739.55 205.05 739.15 205.8 738.7 206.8 737.65 207.4 736.65 207.95 735.3 207.95 734 207.95 733.3 207.35 732.6 206.75 732.6 205.85 732.6 205.25 732.95 204.75 733.25 204.3 733.85 204.05 734.4 203.75 735.8 203.55 738.3 203.2 739.55 202.7
M 711.35 196.05
L 709.3 196.05 709.3 209.45 711.6 209.45 711.6 202.5
Q 711.6 200.65 711.95 199.7 712.3 198.7 713.15 198.2 713.95 197.7 714.9 197.7 716.15 197.7 716.75 198.45 717.3 199.2 717.3 200.75
L 717.3 209.45 719.55 209.45 719.55 201.65
Q 719.55 199.6 720.5 198.65 721.45 197.7 722.85 197.7 723.65 197.7 724.2 198.05 724.8 198.45 725 199.05 725.25 199.65 725.25 201
L 725.25 209.45 727.5 209.45 727.5 200.25
Q 727.5 197.95 726.4 196.85 725.35 195.7 723.35 195.7 720.8 195.7 719.2 198.05 718.8 196.95 717.85 196.35 716.9 195.7 715.4 195.7 714.05 195.7 713 196.35 711.95 196.9 711.35 197.9
L 711.35 196.05
M 693.45 195.7
Q 691.7 195.7 690.4 196.2 689.05 196.65 688.4 197.55 687.7 198.45 687.4 199.85
L 689.6 200.15
Q 689.95 198.75 690.75 198.15 691.5 197.6 693.1 197.6 694.8 197.6 695.7 198.4 696.35 198.95 696.35 200.35 696.35 200.45 696.35 200.95 695.05 201.4 692.25 201.7 690.9 201.9 690.25 202.05 689.35 202.3 688.6 202.8 687.9 203.3 687.45 204.1 687 204.9 687 205.9 687 207.6 688.15 208.7 689.35 209.75 691.55 209.75 692.9 209.75 694.1 209.3 695.25 208.85 696.5 207.8 696.6 208.75 696.95 209.45
L 699.35 209.45
Q 698.9 208.7 698.8 207.85 698.65 207 698.65 203.8
L 698.65 200.8
Q 698.65 199.25 698.5 198.7 698.3 197.75 697.8 197.15 697.3 196.55 696.25 196.15 695.15 195.7 693.45 195.7
M 696.35 202.7
L 696.35 203.55
Q 696.35 205.05 695.95 205.8 695.5 206.8 694.45 207.4 693.45 207.95 692.1 207.95 690.8 207.95 690.1 207.35 689.4 206.75 689.4 205.85 689.4 205.25 689.75 204.75 690.05 204.3 690.65 204.05 691.2 203.75 692.6 203.55 695.1 203.2 696.35 202.7
M 684.25 190.9
L 681.95 190.9 681.95 209.45 684.25 209.45 684.25 190.9
M 673.05 195.7
Q 670.55 195.7 668.85 197.2 666.75 199 666.75 202.75 666.75 206.15 668.5 207.95 670.25 209.75 673.05 209.75 674.8 209.75 676.3 208.95 677.8 208.1 678.55 206.65 679.35 205.15 679.35 202.55 679.35 199.35 677.6 197.55 675.8 195.7 673.05 195.7
M 669.1 202.75
Q 669.1 200.15 670.2 198.9 671.35 197.6 673.05 197.6 674.75 197.6 675.85 198.9 677 200.15 677 202.65 677 205.3 675.85 206.6 674.75 207.9 673.05 207.9 671.35 207.9 670.2 206.6 669.1 205.3 669.1 202.75
M 659.15 197.8
L 660.8 197.8 660.8 205.5
Q 660.8 207.55 661.1 208.2 661.4 208.85 662.05 209.25 662.75 209.65 664 209.65 664.75 209.65 665.7 209.4
L 665.35 207.4
Q 664.75 207.5 664.4 207.5 663.85 207.5 663.6 207.35 663.35 207.15 663.2 206.9 663.1 206.6 663.1 205.65
L 663.1 197.8 665.35 197.8 665.35 196.05 663.1 196.05 663.1 191.35 660.8 192.7 660.8 196.05 659.15 196.05 659.15 197.8
M 653.85 196.05
L 651.8 196.05 651.8 209.45 654.05 209.45 654.05 202.4
Q 654.05 201 654.45 199.75 654.7 198.95 655.3 198.55 655.9 198.05 656.6 198.05 657.45 198.05 658.3 198.55
L 659.1 196.45
Q 657.9 195.7 656.75 195.7 655.95 195.7 655.3 196.2 654.6 196.65 653.85 198.05
L 653.85 196.05 Z"/>
</g>
</defs>

<g transform="matrix( 1, 0, 0, 1, 0,0) ">
<use xlink:href="#Layer1_0_FILL"/>
</g>

<g transform="matrix( 1, 0, 0, 1, 17.55,-168.25) ">
<use xlink:href="#Layer0_0_FILL"/>
</g>
</svg>
