
<svg xmlns="http://www.w3.org/2000/svg" version="1.1" xmlns:xlink="http://www.w3.org/1999/xlink" preserveAspectRatio="none" x="0px" y="0px" width="298px" height="220px" viewBox="0 0 298 220">
<defs>
<g id="Layer1_0_FILL">
<path fill="#666666" stroke="none" d="
M 384.65 137.7
L 384.65 111.7
Q 384.6521484375 91.1119140625 364.4 90.7
L 146.3 90.7
Q 126.7767578125 91.073046875 126.1 110.45
L 126.1 290.6
Q 126.7755859375 309.9767578125 146.3 310.35
L 364.4 310.35
Q 384.6521484375 309.937890625 384.65 289.35
L 384.65 178.8 422.95 178.8
Q 423.3583984375 178.7962890625 423.65 178.5 423.9462890625 178.209765625 423.95 177.8 423.9451171875 177.390625 423.65 177.1
L 384.65 137.7
M 382.65 138.1
Q 382.6552734375 138.5083984375 382.95 138.8
L 420.55 176.8 383.65 176.8
Q 383.2392578125 176.803515625 382.95 177.1 382.653515625 177.3892578125 382.65 177.8
L 382.65 289.35
Q 382.6478515625 307.96171875 364.35 308.35
L 146.35 308.35
Q 128.7236328125 308.0109375 128.1 290.55
L 128.1 110.5
Q 128.73515625 93.0390625 146.35 92.7
L 364.4 92.7
Q 382.6478515625 93.10078125 382.65 111.7
L 382.65 138.1 Z"/>

<path fill="#FFFFFF" stroke="none" d="
M 382.95 138.8
Q 382.6552734375 138.5083984375 382.65 138.1
L 382.65 111.7
Q 382.6478515625 93.10078125 364.4 92.7
L 146.35 92.7
Q 128.73515625 93.0390625 128.1 110.5
L 128.1 290.55
Q 128.7236328125 308.0109375 146.35 308.35
L 364.35 308.35
Q 382.6478515625 307.96171875 382.65 289.35
L 382.65 177.8
Q 382.653515625 177.3892578125 382.95 177.1 383.2392578125 176.803515625 383.65 176.8
L 420.55 176.8 382.95 138.8 Z"/>
</g>

<g id="Layer0_0_FILL">
<path fill="#000000" stroke="none" d="
M 234.45 275.6
Q 235.25 276.25 235.6 277.6
L 237.8 277.25
Q 237.4 275.25 236 274.15 234.6 273 232.45 273 230.7 273 229.25 273.85 227.75 274.65 227.05 276.3 226.3 277.9 226.3 280.1 226.3 283.45 228 285.25 229.65 287.05 232.4 287.05 234.6 287.05 236.15 285.75 237.65 284.45 238 282.1
L 235.75 281.85
Q 235.55 283.55 234.65 284.35 233.75 285.2 232.4 285.2 230.7 285.2 229.7 283.95 228.65 282.75 228.65 280 228.65 277.35 229.7 276.15 230.8 274.9 232.5 274.9 233.65 274.9 234.45 275.6
M 217.1 282.8
Q 217.1 281.65 216.55 280.85 216 280.1 215.05 279.65 214.1 279.25 211.7 278.6 210 278.15 209.7 278.05 209.1 277.8 208.8 277.4 208.55 277.05 208.55 276.6 208.55 275.95 209.2 275.4 209.85 274.9 211.45 274.9 212.75 274.9 213.5 275.45 214.2 276.05 214.35 277.1
L 216.6 276.8
Q 216.4 275.5 215.8 274.7 215.25 273.95 214.05 273.5 212.85 273 211.25 273 210.2 273 209.3 273.3 208.4 273.55 207.85 273.95 207.15 274.45 206.75 275.25 206.35 276 206.35 276.9 206.35 277.9 206.85 278.7 207.3 279.5 208.3 279.95 209.25 280.45 211.75 281.05 213.6 281.55 214.1 281.85 214.75 282.3 214.75 283.05 214.75 283.9 214 284.55 213.25 285.2 211.65 285.2 210.1 285.2 209.25 284.45 208.4 283.75 208.2 282.4
L 205.95 282.75
Q 206.35 284.9 207.7 285.95 209.05 287.05 211.7 287.05 213.25 287.05 214.5 286.5 215.75 285.95 216.45 284.95 217.1 283.95 217.1 282.8
M 197.95 273
Q 195.45 273 193.75 274.5 191.65 276.3 191.65 280.05 191.65 283.45 193.4 285.25 195.15 287.05 197.95 287.05 199.7 287.05 201.2 286.25 202.7 285.4 203.45 283.95 204.25 282.45 204.25 279.85 204.25 276.65 202.5 274.85 200.7 273 197.95 273
M 200.75 276.2
Q 201.9 277.45 201.9 279.95 201.9 282.6 200.75 283.9 199.65 285.2 197.95 285.2 196.25 285.2 195.1 283.9 194 282.6 194 280.05 194 277.45 195.1 276.2 196.25 274.9 197.95 274.9 199.65 274.9 200.75 276.2
M 180.75 275.35
Q 180.35 274.25 179.4 273.65 178.45 273 176.95 273 175.6 273 174.55 273.65 173.5 274.2 172.9 275.2
L 172.9 273.35 170.85 273.35 170.85 286.75 173.15 286.75 173.15 279.8
Q 173.15 277.95 173.5 277 173.85 276 174.7 275.5 175.5 275 176.45 275 177.7 275 178.3 275.75 178.85 276.5 178.85 278.05
L 178.85 286.75 181.1 286.75 181.1 278.95
Q 181.1 276.9 182.05 275.95 183 275 184.4 275 185.2 275 185.75 275.35 186.35 275.75 186.55 276.35 186.8 276.95 186.8 278.3
L 186.8 286.75 189.05 286.75 189.05 277.55
Q 189.05 275.25 187.95 274.15 186.9 273 184.9 273 182.35 273 180.75 275.35
M 191.5 241.2
Q 189.75 241.2 188.45 241.7 187.1 242.15 186.45 243.05 185.75 243.95 185.45 245.35
L 187.65 245.65
Q 188 244.25 188.8 243.65 189.55 243.1 191.15 243.1 192.85 243.1 193.75 243.9 194.4 244.45 194.4 245.85 194.4 245.95 194.4 246.45 193.1 246.9 190.3 247.2 188.95 247.4 188.3 247.55 187.4 247.8 186.65 248.3 185.95 248.8 185.5 249.6 185.05 250.4 185.05 251.4 185.05 253.1 186.2 254.2 187.4 255.25 189.6 255.25 190.95 255.25 192.15 254.8 193.3 254.35 194.55 253.3 194.65 254.25 195 254.95
L 197.4 254.95
Q 196.95 254.2 196.85 253.35 196.7 252.5 196.7 249.3
L 196.7 246.3
Q 196.7 244.75 196.55 244.2 196.35 243.25 195.85 242.65 195.35 242.05 194.3 241.65 193.2 241.2 191.5 241.2
M 194.4 249.05
Q 194.4 250.55 194 251.3 193.55 252.3 192.5 252.9 191.5 253.45 190.15 253.45 188.85 253.45 188.15 252.85 187.45 252.25 187.45 251.35 187.45 250.75 187.8 250.25 188.1 249.8 188.7 249.55 189.25 249.25 190.65 249.05 193.15 248.7 194.4 248.2
L 194.4 249.05
M 169.7 241.2
Q 166.95 241.2 165.2 243.1 163.45 244.95 163.45 248.35 163.45 251.65 165.2 253.45 166.9 255.25 169.85 255.25 172.2 255.25 173.7 254.1 175.2 253 175.75 250.9
L 173.4 250.65
Q 172.9 252.05 172 252.75 171.1 253.4 169.85 253.4 168.2 253.4 167.05 252.2 165.95 251.05 165.8 248.8
L 175.8 248.8
Q 175.8 248.4 175.8 248.2 175.8 244.9 174.1 243.05 172.4 241.2 169.7 241.2
M 167.1 244.15
Q 168.2 243.1 169.75 243.1 171.5 243.1 172.55 244.4 173.25 245.25 173.4 246.95
L 165.95 246.95
Q 166.05 245.2 167.1 244.15
M 190.35 209.4
Q 189.05 209.4 188.15 209.95 187.2 210.45 186.5 211.45
L 186.5 209.75 184.4 209.75 184.4 228.3 186.7 228.3 186.7 221.75
Q 187.25 222.5 188.15 222.95 189.05 223.45 190.2 223.45 191.75 223.45 193.2 222.6 194.6 221.7 195.35 220.05 196.05 218.4 196.05 216.35 196.05 214.4 195.4 212.8 194.7 211.2 193.4 210.3 192.1 209.4 190.35 209.4
M 186.45 216.5
Q 186.45 213.9 187.6 212.55 188.7 211.2 190.15 211.2 191.6 211.2 192.7 212.5 193.75 213.75 193.75 216.3 193.75 219 192.65 220.3 191.55 221.6 190.05 221.6 188.55 221.6 187.5 220.35 186.45 219.1 186.45 216.5
M 222.4 241.55
L 220.3 241.55 220.3 260.1 222.6 260.1 222.6 253.55
Q 223.15 254.3 224.05 254.75 224.95 255.25 226.1 255.25 227.65 255.25 229.1 254.4 230.5 253.5 231.25 251.85 231.95 250.2 231.95 248.15 231.95 246.2 231.3 244.6 230.6 243 229.3 242.1 228 241.2 226.25 241.2 224.95 241.2 224.05 241.75 223.1 242.25 222.4 243.25
L 222.4 241.55
M 223.5 244.35
Q 224.6 243 226.05 243 227.5 243 228.6 244.3 229.65 245.55 229.65 248.1 229.65 250.8 228.55 252.1 227.45 253.4 225.95 253.4 224.45 253.4 223.4 252.15 222.35 250.9 222.35 248.3 222.35 245.7 223.5 244.35
M 202.5 243.6
Q 203.15 243.1 204.75 243.1 206.05 243.1 206.8 243.65 207.5 244.25 207.65 245.3
L 209.9 245
Q 209.7 243.7 209.1 242.9 208.55 242.15 207.35 241.7 206.15 241.2 204.55 241.2 203.5 241.2 202.6 241.5 201.7 241.75 201.15 242.15 200.45 242.65 200.05 243.45 199.65 244.2 199.65 245.1 199.65 246.1 200.15 246.9 200.6 247.7 201.6 248.15 202.55 248.65 205.05 249.25 206.9 249.75 207.4 250.05 208.05 250.5 208.05 251.25 208.05 252.1 207.3 252.75 206.55 253.4 204.95 253.4 203.4 253.4 202.55 252.65 201.7 251.95 201.5 250.6
L 199.25 250.95
Q 199.65 253.1 201 254.15 202.35 255.25 205 255.25 206.55 255.25 207.8 254.7 209.05 254.15 209.75 253.15 210.4 252.15 210.4 251 210.4 249.85 209.85 249.05 209.3 248.3 208.35 247.85 207.4 247.45 205 246.8 203.3 246.35 203 246.25 202.4 246 202.1 245.6 201.85 245.25 201.85 244.8 201.85 244.15 202.5 243.6
M 210.55 216.25
Q 210.55 213.05 208.8 211.25 207 209.4 204.25 209.4 201.75 209.4 200.05 210.9 197.95 212.7 197.95 216.45 197.95 219.85 199.7 221.65 201.45 223.45 204.25 223.45 206 223.45 207.5 222.65 209 221.8 209.75 220.35 210.55 218.85 210.55 216.25
M 204.25 211.3
Q 205.95 211.3 207.05 212.6 208.2 213.85 208.2 216.35 208.2 219 207.05 220.3 205.95 221.6 204.25 221.6 202.55 221.6 201.4 220.3 200.3 219 200.3 216.45 200.3 213.85 201.4 212.6 202.55 211.3 204.25 211.3
M 215.45 209.75
L 213.15 209.75 213.15 218.05
Q 213.15 219.5 213.3 220.15 213.5 221.15 214 221.85 214.5 222.55 215.55 223 216.55 223.45 217.75 223.45 220.45 223.45 222 221.2
L 222 223.15 224.05 223.15 224.05 209.75 221.75 209.75 221.75 216.9
Q 221.75 218.65 221.4 219.55 221 220.45 220.1 221 219.2 221.5 218.2 221.5 217.2 221.5 216.5 221 215.8 220.45 215.55 219.55 215.45 218.95 215.45 217.15
L 215.45 209.75
M 226.85 216.5
Q 226.85 219.85 228.55 221.65 230.2 223.45 232.95 223.45 235.15 223.45 236.7 222.15 238.2 220.85 238.55 218.5
L 236.3 218.25
Q 236.1 219.95 235.2 220.75 234.3 221.6 232.95 221.6 231.25 221.6 230.25 220.35 229.2 219.15 229.2 216.4 229.2 213.75 230.25 212.55 231.35 211.3 233.05 211.3 234.2 211.3 235 212 235.8 212.65 236.15 214
L 238.35 213.65
Q 237.95 211.65 236.55 210.55 235.15 209.4 233 209.4 231.25 209.4 229.8 210.25 228.3 211.05 227.6 212.7 226.85 214.3 226.85 216.5
M 303 281.4
Q 302.55 282.2 302.55 283.2 302.55 284.9 303.7 286 304.9 287.05 307.1 287.05 308.45 287.05 309.65 286.6 310.8 286.15 312.05 285.1 312.15 286.05 312.5 286.75
L 314.9 286.75
Q 314.45 286 314.35 285.15 314.2 284.3 314.2 281.1
L 314.2 278.1
Q 314.2 276.55 314.05 276 313.85 275.05 313.35 274.45 312.85 273.85 311.8 273.45 310.7 273 309 273 307.25 273 305.95 273.5 304.6 273.95 303.95 274.85 303.25 275.75 302.95 277.15
L 305.15 277.45
Q 305.5 276.05 306.3 275.45 307.05 274.9 308.65 274.9 310.35 274.9 311.25 275.7 311.9 276.25 311.9 277.65 311.9 277.75 311.9 278.25 310.6 278.7 307.8 279 306.45 279.2 305.8 279.35 304.9 279.6 304.15 280.1 303.45 280.6 303 281.4
M 304.95 283.15
Q 304.95 282.55 305.3 282.05 305.6 281.6 306.2 281.35 306.75 281.05 308.15 280.85 310.65 280.5 311.9 280
L 311.9 280.85
Q 311.9 282.35 311.5 283.1 311.05 284.1 310 284.7 309 285.25 307.65 285.25 306.35 285.25 305.65 284.65 304.95 284.05 304.95 283.15
M 299.35 274.15
Q 297.95 273 295.8 273 294.05 273 292.6 273.85 291.1 274.65 290.4 276.3 289.65 277.9 289.65 280.1 289.65 283.45 291.35 285.25 292.55 286.55 294.3 286.9
L 293.85 288.45
Q 294.75 288.45 295.15 288.6 295.55 288.7 295.7 288.9 295.85 289.05 295.85 289.3 295.85 289.65 295.45 289.9 295 290.25 293.8 290.25 293.4 290.25 292.6 290.2
L 292.45 291.65
Q 293.25 291.8 294.3 291.8 296.1 291.8 297.05 291.1 297.95 290.35 297.95 289.4 297.95 288.75 297.4 288.25 296.85 287.7 295.8 287.55
L 295.95 287.05
Q 298 287 299.5 285.75 301 284.45 301.35 282.1
L 299.1 281.85
Q 298.9 283.55 298 284.35 297.1 285.2 295.75 285.2 294.05 285.2 293.05 283.95 292 282.75 292 280 292 277.35 293.05 276.15 294.15 274.9 295.85 274.9 297 274.9 297.8 275.6 298.6 276.25 298.95 277.6
L 301.15 277.25
Q 300.75 275.25 299.35 274.15
M 318.7 254.95
L 321.3 254.95 321.3 252.35 318.7 252.35 318.7 254.95
M 281.45 273
Q 278.7 273 276.95 274.9 275.2 276.75 275.2 280.15 275.2 283.45 276.95 285.25 278.65 287.05 281.6 287.05 283.95 287.05 285.45 285.9 286.95 284.8 287.5 282.7
L 285.15 282.45
Q 284.65 283.85 283.75 284.55 282.85 285.2 281.6 285.2 279.95 285.2 278.8 284 277.7 282.85 277.55 280.6
L 287.55 280.6
Q 287.55 280.2 287.55 280 287.55 276.7 285.85 274.85 284.15 273 281.45 273
M 277.7 278.75
Q 277.8 277 278.85 275.95 279.95 274.9 281.5 274.9 283.25 274.9 284.3 276.2 285 277.05 285.15 278.75
L 277.7 278.75
M 250.9 283.95
Q 251.7 282.45 251.7 279.85 251.7 276.65 249.95 274.85 248.15 273 245.4 273 242.9 273 241.2 274.5 239.1 276.3 239.1 280.05 239.1 283.45 240.85 285.25 242.6 287.05 245.4 287.05 247.15 287.05 248.65 286.25 250.15 285.4 250.9 283.95
M 249.35 279.95
Q 249.35 282.6 248.2 283.9 247.1 285.2 245.4 285.2 243.7 285.2 242.55 283.9 241.45 282.6 241.45 280.05 241.45 277.45 242.55 276.2 243.7 274.9 245.4 274.9 247.1 274.9 248.2 276.2 249.35 277.45 249.35 279.95
M 262.9 273.65
Q 261.95 273 260.45 273 259.1 273 258.05 273.65 257 274.2 256.4 275.2
L 256.4 273.35 254.35 273.35 254.35 286.75 256.65 286.75 256.65 279.8
Q 256.65 277.95 257 277 257.35 276 258.2 275.5 259 275 259.95 275 261.2 275 261.8 275.75 262.35 276.5 262.35 278.05
L 262.35 286.75 264.6 286.75 264.6 278.95
Q 264.6 276.9 265.55 275.95 266.5 275 267.9 275 268.7 275 269.25 275.35 269.85 275.75 270.05 276.35 270.3 276.95 270.3 278.3
L 270.3 286.75 272.55 286.75 272.55 277.55
Q 272.55 275.25 271.45 274.15 270.4 273 268.4 273 265.85 273 264.25 275.35 263.85 274.25 262.9 273.65
M 270.25 241.55
L 267.85 241.55 272.95 254.95 275.05 254.95 280.15 241.55 277.8 241.55 274.8 249.7
Q 274.3 251.2 273.95 252.25 273.6 250.85 273.1 249.55
L 270.25 241.55
M 255.5 243.05
Q 254.8 243.95 254.5 245.35
L 256.7 245.65
Q 257.05 244.25 257.85 243.65 258.6 243.1 260.2 243.1 261.9 243.1 262.8 243.9 263.45 244.45 263.45 245.85 263.45 245.95 263.45 246.45 262.15 246.9 259.35 247.2 258 247.4 257.35 247.55 256.45 247.8 255.7 248.3 255 248.8 254.55 249.6 254.1 250.4 254.1 251.4 254.1 253.1 255.25 254.2 256.45 255.25 258.65 255.25 260 255.25 261.2 254.8 262.35 254.35 263.6 253.3 263.7 254.25 264.05 254.95
L 266.45 254.95
Q 266 254.2 265.9 253.35 265.75 252.5 265.75 249.3
L 265.75 246.3
Q 265.75 244.75 265.6 244.2 265.4 243.25 264.9 242.65 264.4 242.05 263.35 241.65 262.25 241.2 260.55 241.2 258.8 241.2 257.5 241.7 256.15 242.15 255.5 243.05
M 263.45 248.2
L 263.45 249.05
Q 263.45 250.55 263.05 251.3 262.6 252.3 261.55 252.9 260.55 253.45 259.2 253.45 257.9 253.45 257.2 252.85 256.5 252.25 256.5 251.35 256.5 250.75 256.85 250.25 257.15 249.8 257.75 249.55 258.3 249.25 259.7 249.05 262.2 248.7 263.45 248.2
M 251.35 236.4
L 249.05 236.4 249.05 254.95 251.35 254.95 251.35 236.4
M 243.3 245.85
Q 243.3 245.95 243.3 246.45 242 246.9 239.2 247.2 237.85 247.4 237.2 247.55 236.3 247.8 235.55 248.3 234.85 248.8 234.4 249.6 233.95 250.4 233.95 251.4 233.95 253.1 235.1 254.2 236.3 255.25 238.5 255.25 239.85 255.25 241.05 254.8 242.2 254.35 243.45 253.3 243.55 254.25 243.9 254.95
L 246.3 254.95
Q 245.85 254.2 245.75 253.35 245.6 252.5 245.6 249.3
L 245.6 246.3
Q 245.6 244.75 245.45 244.2 245.25 243.25 244.75 242.65 244.25 242.05 243.2 241.65 242.1 241.2 240.4 241.2 238.65 241.2 237.35 241.7 236 242.15 235.35 243.05 234.65 243.95 234.35 245.35
L 236.55 245.65
Q 236.9 244.25 237.7 243.65 238.45 243.1 240.05 243.1 241.75 243.1 242.65 243.9 243.3 244.45 243.3 245.85
M 243.3 248.2
L 243.3 249.05
Q 243.3 250.55 242.9 251.3 242.45 252.3 241.4 252.9 240.4 253.45 239.05 253.45 237.75 253.45 237.05 252.85 236.35 252.25 236.35 251.35 236.35 250.75 236.7 250.25 237 249.8 237.6 249.55 238.15 249.25 239.55 249.05 242.05 248.7 243.3 248.2
M 252.25 216.25
Q 252.25 213.05 250.5 211.25 248.7 209.4 245.95 209.4 243.45 209.4 241.75 210.9 239.65 212.7 239.65 216.45 239.65 219.85 241.4 221.65 243.15 223.45 245.95 223.45 247.7 223.45 249.2 222.65 250.7 221.8 251.45 220.35 252.25 218.85 252.25 216.25
M 248.75 212.6
Q 249.9 213.85 249.9 216.35 249.9 219 248.75 220.3 247.65 221.6 245.95 221.6 244.25 221.6 243.1 220.3 242 219 242 216.45 242 213.85 243.1 212.6 244.25 211.3 245.95 211.3 247.65 211.3 248.75 212.6
M 268.2 209.4
Q 266.85 209.4 265.8 210.05 264.75 210.6 264.15 211.6
L 264.15 209.75 262.1 209.75 262.1 223.15 264.4 223.15 264.4 216.2
Q 264.4 214.35 264.75 213.4 265.1 212.4 265.95 211.9 266.75 211.4 267.7 211.4 268.95 211.4 269.55 212.15 270.1 212.9 270.1 214.45
L 270.1 223.15 272.35 223.15 272.35 215.35
Q 272.35 213.3 273.3 212.35 274.25 211.4 275.65 211.4 276.45 211.4 277 211.75 277.6 212.15 277.8 212.75 278.05 213.35 278.05 214.7
L 278.05 223.15 280.3 223.15 280.3 213.95
Q 280.3 211.65 279.2 210.55 278.15 209.4 276.15 209.4 273.6 209.4 272 211.75 271.6 210.65 270.65 210.05 269.7 209.4 268.2 209.4
M 321.4 236.4
L 318.55 236.4 319.25 250.35 320.75 250.35 321.4 236.4
M 304.6 245.1
Q 304.6 246.1 305.1 246.9 305.55 247.7 306.55 248.15 307.5 248.65 310 249.25 311.85 249.75 312.35 250.05 313 250.5 313 251.25 313 252.1 312.25 252.75 311.5 253.4 309.9 253.4 308.35 253.4 307.5 252.65 306.65 251.95 306.45 250.6
L 304.2 250.95
Q 304.6 253.1 305.95 254.15 307.3 255.25 309.95 255.25 311.5 255.25 312.75 254.7 314 254.15 314.7 253.15 315.35 252.15 315.35 251 315.35 249.85 314.8 249.05 314.25 248.3 313.3 247.85 312.35 247.45 309.95 246.8 308.25 246.35 307.95 246.25 307.35 246 307.05 245.6 306.8 245.25 306.8 244.8 306.8 244.15 307.45 243.6 308.1 243.1 309.7 243.1 311 243.1 311.75 243.65 312.45 244.25 312.6 245.3
L 314.85 245
Q 314.65 243.7 314.05 242.9 313.5 242.15 312.3 241.7 311.1 241.2 309.5 241.2 308.45 241.2 307.55 241.5 306.65 241.75 306.1 242.15 305.4 242.65 305 243.45 304.6 244.2 304.6 245.1
M 290.35 245.35
L 292.55 245.65
Q 292.9 244.25 293.7 243.65 294.45 243.1 296.05 243.1 297.75 243.1 298.65 243.9 299.3 244.45 299.3 245.85 299.3 245.95 299.3 246.45 298 246.9 295.2 247.2 293.85 247.4 293.2 247.55 292.3 247.8 291.55 248.3 290.85 248.8 290.4 249.6 289.95 250.4 289.95 251.4 289.95 253.1 291.1 254.2 292.3 255.25 294.5 255.25 295.85 255.25 297.05 254.8 298.2 254.35 299.45 253.3 299.55 254.25 299.9 254.95
L 302.3 254.95
Q 301.85 254.2 301.75 253.35 301.6 252.5 301.6 249.3
L 301.6 246.3
Q 301.6 244.75 301.45 244.2 301.25 243.25 300.75 242.65 300.25 242.05 299.2 241.65 298.1 241.2 296.4 241.2 294.65 241.2 293.35 241.7 292 242.15 291.35 243.05 290.65 243.95 290.35 245.35
M 299.3 249.05
Q 299.3 250.55 298.9 251.3 298.45 252.3 297.4 252.9 296.4 253.45 295.05 253.45 293.75 253.45 293.05 252.85 292.35 252.25 292.35 251.35 292.35 250.75 292.7 250.25 293 249.8 293.6 249.55 294.15 249.25 295.55 249.05 298.05 248.7 299.3 248.2
L 299.3 249.05
M 285.6 244.05
Q 286.2 243.55 286.9 243.55 287.75 243.55 288.6 244.05
L 289.4 241.95
Q 288.2 241.2 287.05 241.2 286.25 241.2 285.6 241.7 284.9 242.15 284.15 243.55
L 284.15 241.55 282.1 241.55 282.1 254.95 284.35 254.95 284.35 247.9
Q 284.35 246.5 284.75 245.25 285 244.45 285.6 244.05
M 289.45 209.4
Q 287.7 209.4 286.4 209.9 285.05 210.35 284.4 211.25 283.7 212.15 283.4 213.55
L 285.6 213.85
Q 285.95 212.45 286.75 211.85 287.5 211.3 289.1 211.3 290.8 211.3 291.7 212.1 292.35 212.65 292.35 214.05 292.35 214.15 292.35 214.65 291.05 215.1 288.25 215.4 286.9 215.6 286.25 215.75 285.35 216 284.6 216.5 283.9 217 283.45 217.8 283 218.6 283 219.6 283 221.3 284.15 222.4 285.35 223.45 287.55 223.45 288.9 223.45 290.1 223 291.25 222.55 292.5 221.5 292.6 222.45 292.95 223.15
L 295.35 223.15
Q 294.9 222.4 294.8 221.55 294.65 220.7 294.65 217.5
L 294.65 214.5
Q 294.65 212.95 294.5 212.4 294.3 211.45 293.8 210.85 293.3 210.25 292.25 209.85 291.15 209.4 289.45 209.4
M 288.1 221.65
Q 286.8 221.65 286.1 221.05 285.4 220.45 285.4 219.55 285.4 218.95 285.75 218.45 286.05 218 286.65 217.75 287.2 217.45 288.6 217.25 291.1 216.9 292.35 216.4
L 292.35 217.25
Q 292.35 218.75 291.95 219.5 291.5 220.5 290.45 221.1 289.45 221.65 288.1 221.65
M 300.4 209.75
L 298.1 209.75 298.1 223.15 300.4 223.15 300.4 209.75
M 298.1 207.25
L 300.4 207.25 300.4 204.6 298.1 204.6 298.1 207.25
M 311.1 209.9
Q 309.9 209.4 308.3 209.4 307.25 209.4 306.35 209.7 305.45 209.95 304.9 210.35 304.2 210.85 303.8 211.65 303.4 212.4 303.4 213.3 303.4 214.3 303.9 215.1 304.35 215.9 305.35 216.35 306.3 216.85 308.8 217.45 310.65 217.95 311.15 218.25 311.8 218.7 311.8 219.45 311.8 220.3 311.05 220.95 310.3 221.6 308.7 221.6 307.15 221.6 306.3 220.85 305.45 220.15 305.25 218.8
L 303 219.15
Q 303.4 221.3 304.75 222.35 306.1 223.45 308.75 223.45 310.3 223.45 311.55 222.9 312.8 222.35 313.5 221.35 314.15 220.35 314.15 219.2 314.15 218.05 313.6 217.25 313.05 216.5 312.1 216.05 311.15 215.65 308.75 215 307.05 214.55 306.75 214.45 306.15 214.2 305.85 213.8 305.6 213.45 305.6 213 305.6 212.35 306.25 211.8 306.9 211.3 308.5 211.3 309.8 211.3 310.55 211.85 311.25 212.45 311.4 213.5
L 313.65 213.2
Q 313.45 211.9 312.85 211.1 312.3 210.35 311.1 209.9
M 159.1 273.5
Q 157.75 273.95 157.1 274.85 156.4 275.75 156.1 277.15
L 158.3 277.45
Q 158.65 276.05 159.45 275.45 160.2 274.9 161.8 274.9 163.5 274.9 164.4 275.7 165.05 276.25 165.05 277.65 165.05 277.75 165.05 278.25 163.75 278.7 160.95 279 159.6 279.2 158.95 279.35 158.05 279.6 157.3 280.1 156.6 280.6 156.15 281.4 155.7 282.2 155.7 283.2 155.7 284.9 156.85 286 158.05 287.05 160.25 287.05 161.6 287.05 162.8 286.6 163.95 286.15 165.2 285.1 165.3 286.05 165.65 286.75
L 168.05 286.75
Q 167.6 286 167.5 285.15 167.35 284.3 167.35 281.1
L 167.35 278.1
Q 167.35 276.55 167.2 276 167 275.05 166.5 274.45 166 273.85 164.95 273.45 163.85 273 162.15 273 160.4 273 159.1 273.5
M 158.45 282.05
Q 158.75 281.6 159.35 281.35 159.9 281.05 161.3 280.85 163.8 280.5 165.05 280
L 165.05 280.85
Q 165.05 282.35 164.65 283.1 164.2 284.1 163.15 284.7 162.15 285.25 160.8 285.25 159.5 285.25 158.8 284.65 158.1 284.05 158.1 283.15 158.1 282.55 158.45 282.05
M 156.55 268.2
L 154.05 268.2 149.05 281.7
Q 148.5 283.2 148.05 284.7 147.65 283.3 147.1 281.7
L 142.25 268.2 139.6 268.2 146.8 286.75 149.3 286.75 156.55 268.2
M 158.25 245.25
Q 158.5 244.45 159.1 244.05 159.7 243.55 160.4 243.55 161.25 243.55 162.1 244.05
L 162.9 241.95
Q 161.7 241.2 160.55 241.2 159.75 241.2 159.1 241.7 158.4 242.15 157.65 243.55
L 157.65 241.55 155.6 241.55 155.6 254.95 157.85 254.95 157.85 247.9
Q 157.85 246.5 158.25 245.25
M 151.3 243.15
Q 150.6 242.2 149.5 241.75 148.4 241.2 147.15 241.2 144.9 241.2 143.45 243.05
L 143.45 236.4 141.2 236.4 141.2 254.95 143.3 254.95 143.3 253.25
Q 144.65 255.25 147.05 255.25 149.4 255.25 151.15 253.35 152.85 251.5 152.85 248.05 152.85 246.6 152.45 245.3 152.05 244.05 151.3 243.15
M 146.95 243.1
Q 148.4 243.1 149.45 244.35 150.5 245.6 150.5 248.2 150.5 250.8 149.4 252.1 148.35 253.4 146.85 253.4 145 253.4 143.95 251.65 143.3 250.55 143.3 248.15 143.3 245.7 144.35 244.4 145.45 243.1 146.95 243.1
M 146.2 221.5
Q 145.2 221.5 144.5 221 143.8 220.45 143.55 219.55 143.45 218.95 143.45 217.15
L 143.45 209.75 141.15 209.75 141.15 218.05
Q 141.15 219.5 141.3 220.15 141.5 221.15 142 221.85 142.5 222.55 143.55 223 144.55 223.45 145.75 223.45 148.45 223.45 150 221.2
L 150 223.15 152.05 223.15 152.05 209.75 149.75 209.75 149.75 216.9
Q 149.75 218.65 149.4 219.55 149 220.45 148.1 221 147.2 221.5 146.2 221.5
M 161.7 209.4
Q 160.35 209.4 159.3 210.05 158.25 210.6 157.65 211.6
L 157.65 209.75 155.6 209.75 155.6 223.15 157.9 223.15 157.9 216.2
Q 157.9 214.35 158.25 213.4 158.6 212.4 159.45 211.9 160.25 211.4 161.2 211.4 162.45 211.4 163.05 212.15 163.6 212.9 163.6 214.45
L 163.6 223.15 165.85 223.15 165.85 215.35
Q 165.85 213.3 166.8 212.35 167.75 211.4 169.15 211.4 169.95 211.4 170.5 211.75 171.1 212.15 171.3 212.75 171.55 213.35 171.55 214.7
L 171.55 223.15 173.8 223.15 173.8 213.95
Q 173.8 211.65 172.7 210.55 171.65 209.4 169.65 209.4 167.1 209.4 165.5 211.75 165.1 210.65 164.15 210.05 163.2 209.4 161.7 209.4
M 141.2 177.95
L 141.2 191.35 143.5 191.35 143.5 184.4
Q 143.5 182.55 143.85 181.6 144.2 180.6 145.05 180.1 145.85 179.6 146.8 179.6 148.05 179.6 148.65 180.35 149.2 181.1 149.2 182.65
L 149.2 191.35 151.45 191.35 151.45 183.55
Q 151.45 181.5 152.4 180.55 153.35 179.6 154.75 179.6 155.55 179.6 156.1 179.95 156.7 180.35 156.9 180.95 157.15 181.55 157.15 182.9
L 157.15 191.35 159.4 191.35 159.4 182.15
Q 159.4 179.85 158.3 178.75 157.25 177.6 155.25 177.6 152.7 177.6 151.1 179.95 150.7 178.85 149.75 178.25 148.8 177.6 147.3 177.6 145.95 177.6 144.9 178.25 143.85 178.8 143.25 179.8
L 143.25 177.95 141.2 177.95
M 146.7 147.75
Q 147.85 147.75 148.65 148.45 149.45 149.1 149.8 150.45
L 152 150.1
Q 151.6 148.1 150.2 147 148.8 145.85 146.65 145.85 144.9 145.85 143.45 146.7 141.95 147.5 141.25 149.15 140.5 150.75 140.5 152.95 140.5 156.3 142.2 158.1 143.85 159.9 146.6 159.9 148.8 159.9 150.35 158.6 151.85 157.3 152.2 154.95
L 149.95 154.7
Q 149.75 156.4 148.85 157.2 147.95 158.05 146.6 158.05 144.9 158.05 143.9 156.8 142.85 155.6 142.85 152.85 142.85 150.2 143.9 149 145 147.75 146.7 147.75
M 156.1 109.25
L 153.65 109.25 153.65 116.9 144.05 116.9 144.05 109.25 141.55 109.25 141.55 127.8 144.05 127.8 144.05 119.05 153.65 119.05 153.65 127.8 156.1 127.8 156.1 109.25
M 316.15 183.1
Q 316.15 181.5 316.05 180.9 315.85 179.9 315.35 179.2 314.85 178.5 313.8 178.05 312.8 177.6 311.6 177.6 308.8 177.6 307.3 179.85
L 307.3 177.95 305.25 177.95 305.25 191.35 307.55 191.35 307.55 184
Q 307.55 181.45 308.6 180.5 309.65 179.6 311.1 179.6 312 179.6 312.7 180 313.35 180.4 313.6 181.1 313.9 181.8 313.9 183.2
L 313.9 191.35 316.15 191.35 316.15 183.1
M 300.75 179.45
Q 299.05 177.6 296.35 177.6 293.6 177.6 291.85 179.5 290.1 181.35 290.1 184.75 290.1 188.05 291.85 189.85 293.55 191.65 296.5 191.65 298.85 191.65 300.35 190.5 301.85 189.4 302.4 187.3
L 300.05 187.05
Q 299.55 188.45 298.65 189.15 297.75 189.8 296.5 189.8 294.85 189.8 293.7 188.6 292.6 187.45 292.45 185.2
L 302.45 185.2
Q 302.45 184.8 302.45 184.6 302.45 181.3 300.75 179.45
M 299.2 180.8
Q 299.9 181.65 300.05 183.35
L 292.6 183.35
Q 292.7 181.6 293.75 180.55 294.85 179.5 296.4 179.5 298.15 179.5 299.2 180.8
M 282.25 177.95
L 282.25 191.35 284.5 191.35 284.5 184.3
Q 284.5 182.9 284.9 181.65 285.15 180.85 285.75 180.45 286.35 179.95 287.05 179.95 287.9 179.95 288.75 180.45
L 289.55 178.35
Q 288.35 177.6 287.2 177.6 286.4 177.6 285.75 178.1 285.05 178.55 284.3 179.95
L 284.3 177.95 282.25 177.95
M 278.85 181
Q 278.15 179.4 276.85 178.5 275.55 177.6 273.8 177.6 272.5 177.6 271.6 178.15 270.65 178.65 269.95 179.65
L 269.95 177.95 267.85 177.95 267.85 196.5 270.15 196.5 270.15 189.95
Q 270.7 190.7 271.6 191.15 272.5 191.65 273.65 191.65 275.2 191.65 276.65 190.8 278.05 189.9 278.8 188.25 279.5 186.6 279.5 184.55 279.5 182.6 278.85 181
M 273.6 179.4
Q 275.05 179.4 276.15 180.7 277.2 181.95 277.2 184.5 277.2 187.2 276.1 188.5 275 189.8 273.5 189.8 272 189.8 270.95 188.55 269.9 187.3 269.9 184.7 269.9 182.1 271.05 180.75 272.15 179.4 273.6 179.4
M 261.95 178.05
Q 260.85 177.6 259.15 177.6 257.4 177.6 256.1 178.1 254.75 178.55 254.1 179.45 253.4 180.35 253.1 181.75
L 255.3 182.05
Q 255.65 180.65 256.45 180.05 257.2 179.5 258.8 179.5 260.5 179.5 261.4 180.3 262.05 180.85 262.05 182.25 262.05 182.35 262.05 182.85 260.75 183.3 257.95 183.6 256.6 183.8 255.95 183.95 255.05 184.2 254.3 184.7 253.6 185.2 253.15 186 252.7 186.8 252.7 187.8 252.7 189.5 253.85 190.6 255.05 191.65 257.25 191.65 258.6 191.65 259.8 191.2 260.95 190.75 262.2 189.7 262.3 190.65 262.65 191.35
L 265.05 191.35
Q 264.6 190.6 264.5 189.75 264.35 188.9 264.35 185.7
L 264.35 182.7
Q 264.35 181.15 264.2 180.6 264 179.65 263.5 179.05 263 178.45 261.95 178.05
M 262.05 184.6
L 262.05 185.45
Q 262.05 186.95 261.65 187.7 261.2 188.7 260.15 189.3 259.15 189.85 257.8 189.85 256.5 189.85 255.8 189.25 255.1 188.65 255.1 187.75 255.1 187.15 255.45 186.65 255.75 186.2 256.35 185.95 256.9 185.65 258.3 185.45 260.8 185.1 262.05 184.6
M 263.05 141.05
L 260.75 141.05 260.75 159.6 263.05 159.6 263.05 152.25
Q 263.05 150.7 263.4 149.8 263.8 148.9 264.7 148.35 265.55 147.85 266.6 147.85 267.95 147.85 268.7 148.6 269.4 149.4 269.4 151.1
L 269.4 159.6 271.7 159.6 271.7 151.1
Q 271.7 149.1 271.2 148.1 270.75 147.05 269.65 146.45 268.55 145.85 267.05 145.85 264.6 145.85 263.05 147.7
L 263.05 141.05
M 252.7 145.85
Q 249.9 145.85 248.4 148.1
L 248.4 146.2 246.35 146.2 246.35 159.6 248.65 159.6 248.65 152.25
Q 248.65 149.7 249.7 148.75 250.75 147.85 252.2 147.85 253.1 147.85 253.8 148.25 254.45 148.65 254.7 149.35 255 150.05 255 151.45
L 255 159.6 257.25 159.6 257.25 151.35
Q 257.25 149.75 257.15 149.15 256.95 148.15 256.45 147.45 255.95 146.75 254.9 146.3 253.9 145.85 252.7 145.85
M 262.1 115.9
Q 260.3 114.05 257.55 114.05 255.05 114.05 253.35 115.55 251.25 117.35 251.25 121.1 251.25 124.5 253 126.3 254.75 128.1 257.55 128.1 259.3 128.1 260.8 127.3 262.3 126.45 263.05 125 263.85 123.5 263.85 120.9 263.85 117.7 262.1 115.9
M 253.6 121.1
Q 253.6 118.5 254.7 117.25 255.85 115.95 257.55 115.95 259.25 115.95 260.35 117.25 261.5 118.5 261.5 121 261.5 123.65 260.35 124.95 259.25 126.25 257.55 126.25 255.85 126.25 254.7 124.95 253.6 123.65 253.6 121.1
M 268.85 116.45
Q 269.5 115.95 271.1 115.95 272.4 115.95 273.15 116.5 273.85 117.1 274 118.15
L 276.25 117.85
Q 276.05 116.55 275.45 115.75 274.9 115 273.7 114.55 272.5 114.05 270.9 114.05 269.85 114.05 268.95 114.35 268.05 114.6 267.5 115 266.8 115.5 266.4 116.3 266 117.05 266 117.95 266 118.95 266.5 119.75 266.95 120.55 267.95 121 268.9 121.5 271.4 122.1 273.25 122.6 273.75 122.9 274.4 123.35 274.4 124.1 274.4 124.95 273.65 125.6 272.9 126.25 271.3 126.25 269.75 126.25 268.9 125.5 268.05 124.8 267.85 123.45
L 265.6 123.8
Q 266 125.95 267.35 127 268.7 128.1 271.35 128.1 272.9 128.1 274.15 127.55 275.4 127 276.1 126 276.75 125 276.75 123.85 276.75 122.7 276.2 121.9 275.65 121.15 274.7 120.7 273.75 120.3 271.35 119.65 269.65 119.2 269.35 119.1 268.75 118.85 268.45 118.45 268.2 118.1 268.2 117.65 268.2 117 268.85 116.45
M 312.3 146.35
Q 310.95 146.8 310.3 147.7 309.6 148.6 309.3 150
L 311.5 150.3
Q 311.85 148.9 312.65 148.3 313.4 147.75 315 147.75 316.7 147.75 317.6 148.55 318.25 149.1 318.25 150.5 318.25 150.6 318.25 151.1 316.95 151.55 314.15 151.85 312.8 152.05 312.15 152.2 311.25 152.45 310.5 152.95 309.8 153.45 309.35 154.25 308.9 155.05 308.9 156.05 308.9 157.75 310.05 158.85 311.25 159.9 313.45 159.9 314.8 159.9 316 159.45 317.15 159 318.4 157.95 318.5 158.9 318.85 159.6
L 321.25 159.6
Q 320.8 158.85 320.7 158 320.55 157.15 320.55 153.95
L 320.55 150.95
Q 320.55 149.4 320.4 148.85 320.2 147.9 319.7 147.3 319.2 146.7 318.15 146.3 317.05 145.85 315.35 145.85 313.6 145.85 312.3 146.35
M 314.5 153.7
Q 317 153.35 318.25 152.85
L 318.25 153.7
Q 318.25 155.2 317.85 155.95 317.4 156.95 316.35 157.55 315.35 158.1 314 158.1 312.7 158.1 312 157.5 311.3 156.9 311.3 156 311.3 155.4 311.65 154.9 311.95 154.45 312.55 154.2 313.1 153.9 314.5 153.7
M 302.15 145.85
Q 300.4 145.85 298.95 146.7 297.45 147.5 296.75 149.15 296 150.75 296 152.95 296 156.3 297.7 158.1 299.35 159.9 302.1 159.9 304.3 159.9 305.85 158.6 307.35 157.3 307.7 154.95
L 305.45 154.7
Q 305.25 156.4 304.35 157.2 303.45 158.05 302.1 158.05 300.4 158.05 299.4 156.8 298.35 155.6 298.35 152.85 298.35 150.2 299.4 149 300.5 147.75 302.2 147.75 303.35 147.75 304.15 148.45 304.95 149.1 305.3 150.45
L 307.5 150.1
Q 307.1 148.1 305.7 147 304.3 145.85 302.15 145.85
M 285.15 147.3
Q 284.65 146.7 283.6 146.3 282.5 145.85 280.8 145.85 279.05 145.85 277.75 146.35 276.4 146.8 275.75 147.7 275.05 148.6 274.75 150
L 276.95 150.3
Q 277.3 148.9 278.1 148.3 278.85 147.75 280.45 147.75 282.15 147.75 283.05 148.55 283.7 149.1 283.7 150.5 283.7 150.6 283.7 151.1 282.4 151.55 279.6 151.85 278.25 152.05 277.6 152.2 276.7 152.45 275.95 152.95 275.25 153.45 274.8 154.25 274.35 155.05 274.35 156.05 274.35 157.75 275.5 158.85 276.7 159.9 278.9 159.9 280.25 159.9 281.45 159.45 282.6 159 283.85 157.95 283.95 158.9 284.3 159.6
L 286.7 159.6
Q 286.25 158.85 286.15 158 286 157.15 286 153.95
L 286 150.95
Q 286 149.4 285.85 148.85 285.65 147.9 285.15 147.3
M 277.45 157.5
Q 276.75 156.9 276.75 156 276.75 155.4 277.1 154.9 277.4 154.45 278 154.2 278.55 153.9 279.95 153.7 282.45 153.35 283.7 152.85
L 283.7 153.7
Q 283.7 155.2 283.3 155.95 282.85 156.95 281.8 157.55 280.8 158.1 279.45 158.1 278.15 158.1 277.45 157.5
M 288.85 109.25
L 286.6 109.25 286.6 127.8 288.7 127.8 288.7 126.1
Q 290.05 128.1 292.45 128.1 294.8 128.1 296.55 126.2 298.25 124.35 298.25 120.9 298.25 119.45 297.85 118.15 297.45 116.9 296.7 116 296 115.05 294.9 114.6 293.8 114.05 292.55 114.05 290.3 114.05 288.85 115.9
L 288.85 109.25
M 289.75 117.25
Q 290.85 115.95 292.35 115.95 293.8 115.95 294.85 117.2 295.9 118.45 295.9 121.05 295.9 123.65 294.8 124.95 293.75 126.25 292.25 126.25 290.4 126.25 289.35 124.5 288.7 123.4 288.7 121 288.7 118.55 289.75 117.25
M 305.8 116.4
Q 306.65 116.4 307.5 116.9
L 308.3 114.8
Q 307.1 114.05 305.95 114.05 305.15 114.05 304.5 114.55 303.8 115 303.05 116.4
L 303.05 114.4 301 114.4 301 127.8 303.25 127.8 303.25 120.75
Q 303.25 119.35 303.65 118.1 303.9 117.3 304.5 116.9 305.1 116.4 305.8 116.4
M 311.95 114.4
L 309.65 114.4 309.65 127.8 311.95 127.8 311.95 114.4
M 311.95 109.25
L 309.65 109.25 309.65 111.9 311.95 111.9 311.95 109.25
M 241.8 179.45
Q 240.1 177.6 237.4 177.6 234.65 177.6 232.9 179.5 231.15 181.35 231.15 184.75 231.15 188.05 232.9 189.85 234.6 191.65 237.55 191.65 239.9 191.65 241.4 190.5 242.9 189.4 243.45 187.3
L 241.1 187.05
Q 240.6 188.45 239.7 189.15 238.8 189.8 237.55 189.8 235.9 189.8 234.75 188.6 233.65 187.45 233.5 185.2
L 243.5 185.2
Q 243.5 184.8 243.5 184.6 243.5 181.3 241.8 179.45
M 240.25 180.8
Q 240.95 181.65 241.1 183.35
L 233.65 183.35
Q 233.75 181.6 234.8 180.55 235.9 179.5 237.45 179.5 239.2 179.5 240.25 180.8
M 220.35 179.05
Q 219.85 178.45 218.8 178.05 217.7 177.6 216 177.6 214.25 177.6 212.95 178.1 211.6 178.55 210.95 179.45 210.25 180.35 209.95 181.75
L 212.15 182.05
Q 212.5 180.65 213.3 180.05 214.05 179.5 215.65 179.5 217.35 179.5 218.25 180.3 218.9 180.85 218.9 182.25 218.9 182.35 218.9 182.85 217.6 183.3 214.8 183.6 213.45 183.8 212.8 183.95 211.9 184.2 211.15 184.7 210.45 185.2 210 186 209.55 186.8 209.55 187.8 209.55 189.5 210.7 190.6 211.9 191.65 214.1 191.65 215.45 191.65 216.65 191.2 217.8 190.75 219.05 189.7 219.15 190.65 219.5 191.35
L 221.9 191.35
Q 221.45 190.6 221.35 189.75 221.2 188.9 221.2 185.7
L 221.2 182.7
Q 221.2 181.15 221.05 180.6 220.85 179.65 220.35 179.05
M 218.9 184.6
L 218.9 185.45
Q 218.9 186.95 218.5 187.7 218.05 188.7 217 189.3 216 189.85 214.65 189.85 213.35 189.85 212.65 189.25 211.95 188.65 211.95 187.75 211.95 187.15 212.3 186.65 212.6 186.2 213.2 185.95 213.75 185.65 215.15 185.45 217.65 185.1 218.9 184.6
M 191.6 177.95
L 191.6 191.35 193.9 191.35 193.9 177.95 191.6 177.95
M 199.6 178.45
Q 198.1 179.25 197.4 180.9 196.65 182.5 196.65 184.7 196.65 188.05 198.35 189.85 200 191.65 202.75 191.65 204.95 191.65 206.5 190.35 208 189.05 208.35 186.7
L 206.1 186.45
Q 205.9 188.15 205 188.95 204.1 189.8 202.75 189.8 201.05 189.8 200.05 188.55 199 187.35 199 184.6 199 181.95 200.05 180.75 201.15 179.5 202.85 179.5 204 179.5 204.8 180.2 205.6 180.85 205.95 182.2
L 208.15 181.85
Q 207.75 179.85 206.35 178.75 204.95 177.6 202.8 177.6 201.05 177.6 199.6 178.45
M 179.1 178.5
Q 177.75 179.4 177.1 181 176.4 182.65 176.4 184.55 176.4 187.35 177.9 189.35 179.4 191.35 182.2 191.35 184.4 191.35 185.9 189.6 185.9 191.8 185.75 192.5 185.45 193.65 184.6 194.3 183.7 194.9 182.15 194.9 180.65 194.9 179.8 194.3 179.2 193.8 179.05 192.8
L 176.85 192.45
Q 176.8 194.65 178.25 195.7 179.75 196.8 182.15 196.8 184.15 196.8 185.55 196.05 186.95 195.3 187.6 194 188.2 192.65 188.2 189.55
L 188.2 177.95 186.1 177.95 186.1 179.55
Q 184.6 177.6 182.2 177.6 180.4 177.6 179.1 178.5
M 178.7 184.4
Q 178.7 181.95 179.8 180.75 180.85 179.5 182.35 179.5 183.9 179.5 185 180.75 186.1 182 186.1 184.45 186.1 187.05 185.05 188.25 183.95 189.45 182.4 189.45 180.8 189.45 179.75 188.25 178.7 187.05 178.7 184.4
M 173.75 182.7
Q 173.75 181.15 173.6 180.6 173.4 179.65 172.9 179.05 172.4 178.45 171.35 178.05 170.25 177.6 168.55 177.6 166.8 177.6 165.5 178.1 164.15 178.55 163.5 179.45 162.8 180.35 162.5 181.75
L 164.7 182.05
Q 165.05 180.65 165.85 180.05 166.6 179.5 168.2 179.5 169.9 179.5 170.8 180.3 171.45 180.85 171.45 182.25 171.45 182.35 171.45 182.85 170.15 183.3 167.35 183.6 166 183.8 165.35 183.95 164.45 184.2 163.7 184.7 163 185.2 162.55 186 162.1 186.8 162.1 187.8 162.1 189.5 163.25 190.6 164.45 191.65 166.65 191.65 168 191.65 169.2 191.2 170.35 190.75 171.6 189.7 171.7 190.65 172.05 191.35
L 174.45 191.35
Q 174 190.6 173.9 189.75 173.75 188.9 173.75 185.7
L 173.75 182.7
M 167.7 185.45
Q 170.2 185.1 171.45 184.6
L 171.45 185.45
Q 171.45 186.95 171.05 187.7 170.6 188.7 169.55 189.3 168.55 189.85 167.2 189.85 165.9 189.85 165.2 189.25 164.5 188.65 164.5 187.75 164.5 187.15 164.85 186.65 165.15 186.2 165.75 185.95 166.3 185.65 167.7 185.45
M 171.65 172.7
L 168.7 172.7 167 176.25 168.9 176.25 171.65 172.7
M 165.1 156.8
Q 165.9 155.3 165.9 152.7 165.9 149.5 164.15 147.7 162.35 145.85 159.6 145.85 157.1 145.85 155.4 147.35 153.3 149.15 153.3 152.9 153.3 156.3 155.05 158.1 156.8 159.9 159.6 159.9 161.35 159.9 162.85 159.1 164.35 158.25 165.1 156.8
M 163.55 152.8
Q 163.55 155.45 162.4 156.75 161.3 158.05 159.6 158.05 157.9 158.05 156.75 156.75 155.65 155.45 155.65 152.9 155.65 150.3 156.75 149.05 157.9 147.75 159.6 147.75 161.3 147.75 162.4 149.05 163.55 150.3 163.55 152.8
M 193.9 172.8
L 191.6 172.8 191.6 175.45 193.9 175.45 193.9 172.8
M 170.6 148.05
L 170.6 146.2 168.55 146.2 168.55 159.6 170.85 159.6 170.85 152.65
Q 170.85 150.8 171.2 149.85 171.55 148.85 172.4 148.35 173.2 147.85 174.15 147.85 175.4 147.85 176 148.6 176.55 149.35 176.55 150.9
L 176.55 159.6 178.8 159.6 178.8 151.8
Q 178.8 149.75 179.75 148.8 180.7 147.85 182.1 147.85 182.9 147.85 183.45 148.2 184.05 148.6 184.25 149.2 184.5 149.8 184.5 151.15
L 184.5 159.6 186.75 159.6 186.75 150.4
Q 186.75 148.1 185.65 147 184.6 145.85 182.6 145.85 180.05 145.85 178.45 148.2 178.05 147.1 177.1 146.5 176.15 145.85 174.65 145.85 173.3 145.85 172.25 146.5 171.2 147.05 170.6 148.05
M 176.55 114.4
L 174.3 114.4 174.3 128.5
Q 174.3 130.35 173.95 130.8 173.6 131.25 172.9 131.25 172.5 131.25 171.85 131.05
L 171.4 133
Q 172.25 133.25 173.2 133.25 175.1 133.25 175.9 132 176.55 131 176.55 128.55
L 176.55 114.4
M 169.9 115.9
Q 168.1 114.05 165.35 114.05 162.85 114.05 161.15 115.55 159.05 117.35 159.05 121.1 159.05 124.5 160.8 126.3 162.55 128.1 165.35 128.1 167.1 128.1 168.6 127.3 170.1 126.45 170.85 125 171.65 123.5 171.65 120.9 171.65 117.7 169.9 115.9
M 165.35 115.95
Q 167.05 115.95 168.15 117.25 169.3 118.5 169.3 121 169.3 123.65 168.15 124.95 167.05 126.25 165.35 126.25 163.65 126.25 162.5 124.95 161.4 123.65 161.4 121.1 161.4 118.5 162.5 117.25 163.65 115.95 165.35 115.95
M 176.55 109.25
L 174.3 109.25 174.3 111.9 176.55 111.9 176.55 109.25
M 191.7 121.65
Q 191.7 121.25 191.7 121.05 191.7 117.75 190 115.9 188.3 114.05 185.6 114.05 182.85 114.05 181.1 115.95 179.35 117.8 179.35 121.2 179.35 124.5 181.1 126.3 182.8 128.1 185.75 128.1 188.1 128.1 189.6 126.95 191.1 125.85 191.65 123.75
L 189.3 123.5
Q 188.8 124.9 187.9 125.6 187 126.25 185.75 126.25 184.1 126.25 182.95 125.05 181.85 123.9 181.7 121.65
L 191.7 121.65
M 183 117
Q 184.1 115.95 185.65 115.95 187.4 115.95 188.45 117.25 189.15 118.1 189.3 119.8
L 181.85 119.8
Q 181.95 118.05 183 117
M 204 127.8
L 204 114.4 201.7 114.4 201.7 127.8 204 127.8
M 242.9 146.2
L 240.6 146.2 240.6 159.6 242.9 159.6 242.9 146.2
M 242.9 143.7
L 242.9 141.05 240.6 141.05 240.6 143.7 242.9 143.7
M 205.85 146.3
Q 204.75 145.85 203.05 145.85 201.3 145.85 200 146.35 198.65 146.8 198 147.7 197.3 148.6 197 150
L 199.2 150.3
Q 199.55 148.9 200.35 148.3 201.1 147.75 202.7 147.75 204.4 147.75 205.3 148.55 205.95 149.1 205.95 150.5 205.95 150.6 205.95 151.1 204.65 151.55 201.85 151.85 200.5 152.05 199.85 152.2 198.95 152.45 198.2 152.95 197.5 153.45 197.05 154.25 196.6 155.05 196.6 156.05 196.6 157.75 197.75 158.85 198.95 159.9 201.15 159.9 202.5 159.9 203.7 159.45 204.85 159 206.1 157.95 206.2 158.9 206.55 159.6
L 208.95 159.6
Q 208.5 158.85 208.4 158 208.25 157.15 208.25 153.95
L 208.25 150.95
Q 208.25 149.4 208.1 148.85 207.9 147.9 207.4 147.3 206.9 146.7 205.85 146.3
M 200.25 154.2
Q 200.8 153.9 202.2 153.7 204.7 153.35 205.95 152.85
L 205.95 153.7
Q 205.95 155.2 205.55 155.95 205.1 156.95 204.05 157.55 203.05 158.1 201.7 158.1 200.4 158.1 199.7 157.5 199 156.9 199 156 199 155.4 199.35 154.9 199.65 154.45 200.25 154.2
M 222.65 146.5
Q 221.6 147.05 221 148.05
L 221 146.2 218.95 146.2 218.95 159.6 221.25 159.6 221.25 152.65
Q 221.25 150.8 221.6 149.85 221.95 148.85 222.8 148.35 223.6 147.85 224.55 147.85 225.8 147.85 226.4 148.6 226.95 149.35 226.95 150.9
L 226.95 159.6 229.2 159.6 229.2 151.8
Q 229.2 149.75 230.15 148.8 231.1 147.85 232.5 147.85 233.3 147.85 233.85 148.2 234.45 148.6 234.65 149.2 234.9 149.8 234.9 151.15
L 234.9 159.6 237.15 159.6 237.15 150.4
Q 237.15 148.1 236.05 147 235 145.85 233 145.85 230.45 145.85 228.85 148.2 228.45 147.1 227.5 146.5 226.55 145.85 225.05 145.85 223.7 145.85 222.65 146.5
M 204 111.9
L 204 109.25 201.7 109.25 201.7 111.9 204 111.9
M 209.7 120.75
Q 209.7 119.35 210.1 118.1 210.35 117.3 210.95 116.9 211.55 116.4 212.25 116.4 213.1 116.4 213.95 116.9
L 214.75 114.8
Q 213.55 114.05 212.4 114.05 211.6 114.05 210.95 114.55 210.25 115 209.5 116.4
L 209.5 114.4 207.45 114.4 207.45 127.8 209.7 127.8 209.7 120.75
M 227.65 121.05
Q 227.65 117.75 225.95 115.9 224.25 114.05 221.55 114.05 218.8 114.05 217.05 115.95 215.3 117.8 215.3 121.2 215.3 124.5 217.05 126.3 218.75 128.1 221.7 128.1 224.05 128.1 225.55 126.95 227.05 125.85 227.6 123.75
L 225.25 123.5
Q 224.75 124.9 223.85 125.6 222.95 126.25 221.7 126.25 220.05 126.25 218.9 125.05 217.8 123.9 217.65 121.65
L 227.65 121.65
Q 227.65 121.25 227.65 121.05
M 224.4 117.25
Q 225.1 118.1 225.25 119.8
L 217.8 119.8
Q 217.9 118.05 218.95 117 220.05 115.95 221.6 115.95 223.35 115.95 224.4 117.25
M 232.5 116.25
L 232.5 114.4 230.45 114.4 230.45 127.8 232.75 127.8 232.75 120.85
Q 232.75 119 233.1 118.05 233.45 117.05 234.3 116.55 235.1 116.05 236.05 116.05 237.3 116.05 237.9 116.8 238.45 117.55 238.45 119.1
L 238.45 127.8 240.7 127.8 240.7 120
Q 240.7 117.95 241.65 117 242.6 116.05 244 116.05 244.8 116.05 245.35 116.4 245.95 116.8 246.15 117.4 246.4 118 246.4 119.35
L 246.4 127.8 248.65 127.8 248.65 118.6
Q 248.65 116.3 247.55 115.2 246.5 114.05 244.5 114.05 241.95 114.05 240.35 116.4 239.95 115.3 239 114.7 238.05 114.05 236.55 114.05 235.2 114.05 234.15 114.7 233.1 115.25 232.5 116.25
M 333 284.15
L 330.45 284.15 330.45 286.75 333 286.75 333 284.15
M 324.2 275.85
L 325 273.75
Q 323.8 273 322.65 273 321.85 273 321.2 273.5 320.5 273.95 319.75 275.35
L 319.75 273.35 317.7 273.35 317.7 286.75 319.95 286.75 319.95 279.7
Q 319.95 278.3 320.35 277.05 320.6 276.25 321.2 275.85 321.8 275.35 322.5 275.35 323.35 275.35 324.2 275.85
M 331.75 267.9
Q 329.2 267.9 327.6 269.3 326.05 270.65 325.75 273.25
L 328.1 273.55
Q 328.4 271.6 329.35 270.7 330.35 269.75 331.8 269.75 333.3 269.75 334.3 270.8 335.35 271.8 335.35 273.1 335.35 273.85 335 274.45 334.65 275.1 333.45 276.15 332.3 277.15 331.85 277.7 331.2 278.45 330.95 279.2 330.55 280.15 330.55 281.5 330.55 281.75 330.55 282.2
L 332.75 282.2
Q 332.8 280.8 332.95 280.2 333.1 279.6 333.45 279.15 333.8 278.65 334.9 277.7 336.55 276.2 337.15 275.2 337.7 274.15 337.7 272.95 337.7 270.85 336.1 269.4 334.45 267.9 331.75 267.9
M 328.4 209.4
Q 327.35 209.4 326.45 209.7 325.55 209.95 325 210.35 324.3 210.85 323.9 211.65 323.5 212.4 323.5 213.3 323.5 214.3 324 215.1 324.45 215.9 325.45 216.35 326.4 216.85 328.9 217.45 330.75 217.95 331.25 218.25 331.9 218.7 331.9 219.45 331.9 220.3 331.15 220.95 330.4 221.6 328.8 221.6 327.25 221.6 326.4 220.85 325.55 220.15 325.35 218.8
L 323.1 219.15
Q 323.5 221.3 324.85 222.35 326.2 223.45 328.85 223.45 330.4 223.45 331.65 222.9 332.9 222.35 333.6 221.35 334.25 220.35 334.25 219.2 334.25 218.05 333.7 217.25 333.15 216.5 332.2 216.05 331.25 215.65 328.85 215 327.15 214.55 326.85 214.45 326.25 214.2 325.95 213.8 325.7 213.45 325.7 213 325.7 212.35 326.35 211.8 327 211.3 328.6 211.3 329.9 211.3 330.65 211.85 331.35 212.45 331.5 213.5
L 333.75 213.2
Q 333.55 211.9 332.95 211.1 332.4 210.35 331.2 209.9 330 209.4 328.4 209.4
M 350.45 215.3
L 350.45 217.6 357.45 217.6 357.45 215.3 350.45 215.3
M 345.65 222.65
Q 347.15 221.8 347.9 220.35 348.7 218.85 348.7 216.25 348.7 213.05 346.95 211.25 345.15 209.4 342.4 209.4 339.9 209.4 338.2 210.9 336.1 212.7 336.1 216.45 336.1 219.85 337.85 221.65 339.6 223.45 342.4 223.45 344.15 223.45 345.65 222.65
M 345.2 212.6
Q 346.35 213.85 346.35 216.35 346.35 219 345.2 220.3 344.1 221.6 342.4 221.6 340.7 221.6 339.55 220.3 338.45 219 338.45 216.45 338.45 213.85 339.55 212.6 340.7 211.3 342.4 211.3 344.1 211.3 345.2 212.6
M 354.9 180.45
L 355.7 178.35
Q 354.5 177.6 353.35 177.6 352.55 177.6 351.9 178.1 351.2 178.55 350.45 179.95
L 350.45 177.95 348.4 177.95 348.4 191.35 350.65 191.35 350.65 184.3
Q 350.65 182.9 351.05 181.65 351.3 180.85 351.9 180.45 352.5 179.95 353.2 179.95 354.05 179.95 354.9 180.45
M 343.9 179.45
Q 342.2 177.6 339.5 177.6 336.75 177.6 335 179.5 333.25 181.35 333.25 184.75 333.25 188.05 335 189.85 336.7 191.65 339.65 191.65 342 191.65 343.5 190.5 345 189.4 345.55 187.3
L 343.2 187.05
Q 342.7 188.45 341.8 189.15 340.9 189.8 339.65 189.8 338 189.8 336.85 188.6 335.75 187.45 335.6 185.2
L 345.6 185.2
Q 345.6 184.8 345.6 184.6 345.6 181.3 343.9 179.45
M 343.2 183.35
L 335.75 183.35
Q 335.85 181.6 336.9 180.55 338 179.5 339.55 179.5 341.3 179.5 342.35 180.8 343.05 181.65 343.2 183.35
M 330.5 172.8
L 328.2 172.8 328.2 179.45
Q 327.6 178.65 326.65 178.15 325.7 177.6 324.5 177.6 322.85 177.6 321.5 178.5 320.15 179.35 319.5 181 318.85 182.65 318.85 184.65 318.85 186.7 319.6 188.3 320.3 189.9 321.65 190.75 323 191.65 324.6 191.65 327.1 191.65 328.35 189.65
L 328.35 191.35 330.5 191.35 330.5 172.8
M 327.35 180.8
Q 328.4 182.1 328.4 184.85 328.4 187.35 327.35 188.55 326.3 189.8 324.85 189.8 323.35 189.8 322.25 188.5 321.15 187.25 321.15 184.65 321.15 182 322.2 180.75 323.2 179.5 324.75 179.5 326.3 179.5 327.35 180.8
M 356.45 141.05
L 354.15 141.05 354.15 159.6 356.45 159.6 356.45 141.05
M 349.85 147.7
Q 348.05 145.85 345.3 145.85 342.8 145.85 341.1 147.35 339 149.15 339 152.9 339 156.3 340.75 158.1 342.5 159.9 345.3 159.9 347.05 159.9 348.55 159.1 350.05 158.25 350.8 156.8 351.6 155.3 351.6 152.7 351.6 149.5 349.85 147.7
M 348.1 156.75
Q 347 158.05 345.3 158.05 343.6 158.05 342.45 156.75 341.35 155.45 341.35 152.9 341.35 150.3 342.45 149.05 343.6 147.75 345.3 147.75 347 147.75 348.1 149.05 349.25 150.3 349.25 152.8 349.25 155.45 348.1 156.75
M 331.4 147.95
L 333.05 147.95 333.05 155.65
Q 333.05 157.7 333.35 158.35 333.65 159 334.3 159.4 335 159.8 336.25 159.8 337 159.8 337.95 159.55
L 337.6 157.55
Q 337 157.65 336.65 157.65 336.1 157.65 335.85 157.5 335.6 157.3 335.45 157.05 335.35 156.75 335.35 155.8
L 335.35 147.95 337.6 147.95 337.6 146.2 335.35 146.2 335.35 141.5 333.05 142.85 333.05 146.2 331.4 146.2 331.4 147.95
M 328.95 145.85
Q 328.15 145.85 327.5 146.35 326.8 146.8 326.05 148.2
L 326.05 146.2 324 146.2 324 159.6 326.25 159.6 326.25 152.55
Q 326.25 151.15 326.65 149.9 326.9 149.1 327.5 148.7 328.1 148.2 328.8 148.2 329.65 148.2 330.5 148.7
L 331.3 146.6
Q 330.1 145.85 328.95 145.85
M 326.3 119.55
Q 326.3 117.95 326.2 117.35 326 116.35 325.5 115.65 325 114.95 323.95 114.5 322.95 114.05 321.75 114.05 318.95 114.05 317.45 116.3
L 317.45 114.4 315.4 114.4 315.4 127.8 317.7 127.8 317.7 120.45
Q 317.7 117.9 318.75 116.95 319.8 116.05 321.25 116.05 322.15 116.05 322.85 116.45 323.5 116.85 323.75 117.55 324.05 118.25 324.05 119.65
L 324.05 127.8 326.3 127.8 326.3 119.55
M 331.4 121.05
Q 331.4 118.4 332.45 117.2 333.55 115.95 335.25 115.95 336.4 115.95 337.2 116.65 338 117.3 338.35 118.65
L 340.55 118.3
Q 340.15 116.3 338.75 115.2 337.35 114.05 335.2 114.05 333.45 114.05 332 114.9 330.5 115.7 329.8 117.35 329.05 118.95 329.05 121.15 329.05 124.5 330.75 126.3 332.4 128.1 335.15 128.1 337.35 128.1 338.9 126.8 340.4 125.5 340.75 123.15
L 338.5 122.9
Q 338.3 124.6 337.4 125.4 336.5 126.25 335.15 126.25 333.45 126.25 332.45 125 331.4 123.8 331.4 121.05
M 364.4 114.8
Q 363.2 114.05 362.05 114.05 361.25 114.05 360.6 114.55 359.9 115 359.15 116.4
L 359.15 114.4 357.1 114.4 357.1 127.8 359.35 127.8 359.35 120.75
Q 359.35 119.35 359.75 118.1 360 117.3 360.6 116.9 361.2 116.4 361.9 116.4 362.75 116.4 363.6 116.9
L 364.4 114.8
M 352.75 115.5
Q 352.25 114.9 351.2 114.5 350.1 114.05 348.4 114.05 346.65 114.05 345.35 114.55 344 115 343.35 115.9 342.65 116.8 342.35 118.2
L 344.55 118.5
Q 344.9 117.1 345.7 116.5 346.45 115.95 348.05 115.95 349.75 115.95 350.65 116.75 351.3 117.3 351.3 118.7 351.3 118.8 351.3 119.3 350 119.75 347.2 120.05 345.85 120.25 345.2 120.4 344.3 120.65 343.55 121.15 342.85 121.65 342.4 122.45 341.95 123.25 341.95 124.25 341.95 125.95 343.1 127.05 344.3 128.1 346.5 128.1 347.85 128.1 349.05 127.65 350.2 127.2 351.45 126.15 351.55 127.1 351.9 127.8
L 354.3 127.8
Q 353.85 127.05 353.75 126.2 353.6 125.35 353.6 122.15
L 353.6 119.15
Q 353.6 117.6 353.45 117.05 353.25 116.1 352.75 115.5
M 345.6 122.4
Q 346.15 122.1 347.55 121.9 350.05 121.55 351.3 121.05
L 351.3 121.9
Q 351.3 123.4 350.9 124.15 350.45 125.15 349.4 125.75 348.4 126.3 347.05 126.3 345.75 126.3 345.05 125.7 344.35 125.1 344.35 124.2 344.35 123.6 344.7 123.1 345 122.65 345.6 122.4
M 368.45 146.3
Q 367.35 145.85 365.65 145.85 363.9 145.85 362.6 146.35 361.25 146.8 360.6 147.7 359.9 148.6 359.6 150
L 361.8 150.3
Q 362.15 148.9 362.95 148.3 363.7 147.75 365.3 147.75 367 147.75 367.9 148.55 368.55 149.1 368.55 150.5 368.55 150.6 368.55 151.1 367.25 151.55 364.45 151.85 363.1 152.05 362.45 152.2 361.55 152.45 360.8 152.95 360.1 153.45 359.65 154.25 359.2 155.05 359.2 156.05 359.2 157.75 360.35 158.85 361.55 159.9 363.75 159.9 365.1 159.9 366.3 159.45 367.45 159 368.7 157.95 368.8 158.9 369.15 159.6
L 371.55 159.6
Q 371.1 158.85 371 158 370.85 157.15 370.85 153.95
L 370.85 150.95
Q 370.85 149.4 370.7 148.85 370.5 147.9 370 147.3 369.5 146.7 368.45 146.3
M 362.3 157.5
Q 361.6 156.9 361.6 156 361.6 155.4 361.95 154.9 362.25 154.45 362.85 154.2 363.4 153.9 364.8 153.7 367.3 153.35 368.55 152.85
L 368.55 153.7
Q 368.55 155.2 368.15 155.95 367.7 156.95 366.65 157.55 365.65 158.1 364.3 158.1 363 158.1 362.3 157.5 Z"/>
</g>
</defs>

<g transform="matrix( 1, 0, 0, 1, -126,-90.5) ">
<use xlink:href="#Layer1_0_FILL"/>
</g>

<g transform="matrix( 1, 0, 0, 1, -126.2,-90.5) ">
<use xlink:href="#Layer0_0_FILL"/>
</g>
</svg>
