
<svg xmlns="http://www.w3.org/2000/svg" version="1.1" xmlns:xlink="http://www.w3.org/1999/xlink" preserveAspectRatio="none" x="0px" y="0px" width="731px" height="69px" viewBox="0 0 731 69">
<defs>
<g id="Layer1_0_FILL">
<path fill="#FFFFFF" stroke="none" d="
M 730.85 57.25
L 730.85 11.75
Q 730.85 0.25 719.35 0.25
L 11.65 0.25
Q 0.15 0.25 0.15 11.75
L 0.15 57.25
Q 0.15 68.75 11.65 68.75
L 719.35 68.75
Q 730.85 68.75 730.85 57.25 Z"/>
</g>

<g id="Layer0_0_FILL">
<path fill="#666666" stroke="none" d="
M 730.85 57.25
L 730.85 11.75
Q 730.85 0.25 719.35 0.25
L 11.65 0.25
Q 0.15 0.25 0.15 11.75
L 0.15 57.25
Q 0.15 68.75 11.65 68.75
L 719.35 68.75
Q 730.85 68.75 730.85 57.25
M 719.35 3.25
Q 727.85 3.25 727.85 11.75
L 727.85 57.25
Q 727.85 65.75 719.35 65.75
L 11.65 65.75
Q 3.15 65.75 3.15 57.25
L 3.15 11.75
Q 3.15 3.25 11.65 3.25
L 719.35 3.25 Z"/>

<path fill="#FFFFFF" stroke="none" d="
M 727.85 11.75
Q 727.85 3.25 719.35 3.25
L 11.65 3.25
Q 3.15 3.25 3.15 11.75
L 3.15 57.25
Q 3.15 65.75 11.65 65.75
L 719.35 65.75
Q 727.85 65.75 727.85 57.25
L 727.85 11.75 Z"/>
</g>

<g id="Layer0_0_MEMBER_0_FILL">
<path fill="#000000" stroke="none" d="
M 31.05 27.8
Q 32.5 26.8 34.65 26.8 36.5 26.8 37.7 27.7 38.95 28.65 39.6 30.65
L 42 30.1
Q 41.25 27.55 39.35 26.1 37.45 24.7 34.7 24.7 32.25 24.7 30.2 25.85 28.15 26.95 27.05 29.1 25.95 31.25 25.95 34.15 25.95 36.8 26.95 39.1 27.9 41.45 29.8 42.65 31.65 43.85 34.65 43.85 37.55 43.85 39.55 42.3 41.55 40.7 42.3 37.65
L 39.85 37.05
Q 39.35 39.4 37.95 40.6 36.5 41.75 34.45 41.75 32.75 41.75 31.3 40.9 29.85 40 29.15 38.25 28.45 36.5 28.45 34.15 28.45 32.3 29.05 30.6 29.65 28.85 31.05 27.8
M 47.3 25
L 45 25 45 43.55 47.3 43.55 47.3 25
M 50.8 27.65
L 53.1 27.65 53.1 25 50.8 25 50.8 27.65
M 53.1 30.15
L 50.8 30.15 50.8 43.55 53.1 43.55 53.1 30.15
M 56.45 33.1
Q 55.75 34.7 55.75 36.7 55.75 40.05 57.5 41.95 59.2 43.85 61.6 43.85 62.65 43.85 63.65 43.35 64.6 42.85 65.1 42.1
L 65.1 48.7 67.4 48.7 67.4 30.15 65.35 30.15 65.35 31.9
Q 63.9 29.8 61.4 29.8 59.85 29.8 58.5 30.65 57.15 31.5 56.45 33.1
M 58.1 36.8
Q 58.1 34.15 59.15 32.9 60.15 31.6 61.65 31.6 63.15 31.6 64.25 32.95 65.35 34.3 65.35 37 65.35 39.5 64.3 40.75 63.25 42 61.8 42 60.25 42 59.2 40.7 58.1 39.4 58.1 36.8
M 117 31.4
Q 116.5 30.7 115.45 30.25 114.45 29.8 113.25 29.8 110.45 29.8 108.95 32.05
L 108.95 30.15 106.9 30.15 106.9 43.55 109.2 43.55 109.2 36.2
Q 109.2 33.65 110.25 32.7 111.3 31.8 112.75 31.8 113.65 31.8 114.35 32.2 115 32.6 115.25 33.3 115.55 34 115.55 35.4
L 115.55 43.55 117.8 43.55 117.8 35.3
Q 117.8 33.7 117.7 33.1 117.5 32.1 117 31.4
M 81.8 43.55
L 81.8 30.15 79.5 30.15 79.5 37.3
Q 79.5 39.05 79.15 39.95 78.75 40.85 77.85 41.4 76.95 41.9 75.95 41.9 74.95 41.9 74.25 41.4 73.55 40.85 73.3 39.95 73.2 39.35 73.2 37.55
L 73.2 30.15 70.9 30.15 70.9 38.45
Q 70.9 39.9 71.05 40.55 71.25 41.55 71.75 42.25 72.25 42.95 73.3 43.4 74.3 43.85 75.5 43.85 78.2 43.85 79.75 41.6
L 79.75 43.55 81.8 43.55
M 96.9 36.8
Q 96.9 33.5 95.2 31.65 93.5 29.8 90.8 29.8 88.05 29.8 86.3 31.7 84.55 33.55 84.55 36.95 84.55 40.25 86.3 42.05 88 43.85 90.95 43.85 93.3 43.85 94.8 42.7 96.3 41.6 96.85 39.5
L 94.5 39.25
Q 94 40.65 93.1 41.35 92.2 42 90.95 42 89.3 42 88.15 40.8 87.05 39.65 86.9 37.4
L 96.9 37.4
Q 96.9 37 96.9 36.8
M 93.65 33
Q 94.35 33.85 94.5 35.55
L 87.05 35.55
Q 87.15 33.8 88.2 32.75 89.3 31.7 90.85 31.7 92.6 31.7 93.65 33
M 132.2 34.9
Q 132.2 33.35 132.05 32.8 131.85 31.85 131.35 31.25 130.85 30.65 129.8 30.25 128.7 29.8 127 29.8 125.25 29.8 123.95 30.3 122.6 30.75 121.95 31.65 121.25 32.55 120.95 33.95
L 123.15 34.25
Q 123.5 32.85 124.3 32.25 125.05 31.7 126.65 31.7 128.35 31.7 129.25 32.5 129.9 33.05 129.9 34.45 129.9 34.55 129.9 35.05 128.6 35.5 125.8 35.8 124.45 36 123.8 36.15 122.9 36.4 122.15 36.9 121.45 37.4 121 38.2 120.55 39 120.55 40 120.55 41.7 121.7 42.8 122.9 43.85 125.1 43.85 126.45 43.85 127.65 43.4 128.8 42.95 130.05 41.9 130.15 42.85 130.5 43.55
L 132.9 43.55
Q 132.45 42.8 132.35 41.95 132.2 41.1 132.2 37.9
L 132.2 34.9
M 129.5 39.9
Q 129.05 40.9 128 41.5 127 42.05 125.65 42.05 124.35 42.05 123.65 41.45 122.95 40.85 122.95 39.95 122.95 39.35 123.3 38.85 123.6 38.4 124.2 38.15 124.75 37.85 126.15 37.65 128.65 37.3 129.9 36.8
L 129.9 37.65
Q 129.9 39.15 129.5 39.9
M 140.05 29.8
Q 139 29.8 138.1 30.1 137.2 30.35 136.65 30.75 135.95 31.25 135.55 32.05 135.15 32.8 135.15 33.7 135.15 34.7 135.65 35.5 136.1 36.3 137.1 36.75 138.05 37.25 140.55 37.85 142.4 38.35 142.9 38.65 143.55 39.1 143.55 39.85 143.55 40.7 142.8 41.35 142.05 42 140.45 42 138.9 42 138.05 41.25 137.2 40.55 137 39.2
L 134.75 39.55
Q 135.15 41.7 136.5 42.75 137.85 43.85 140.5 43.85 142.05 43.85 143.3 43.3 144.55 42.75 145.25 41.75 145.9 40.75 145.9 39.6 145.9 38.45 145.35 37.65 144.8 36.9 143.85 36.45 142.9 36.05 140.5 35.4 138.8 34.95 138.5 34.85 137.9 34.6 137.6 34.2 137.35 33.85 137.35 33.4 137.35 32.75 138 32.2 138.65 31.7 140.25 31.7 141.55 31.7 142.3 32.25 143 32.85 143.15 33.9
L 145.4 33.6
Q 145.2 32.3 144.6 31.5 144.05 30.75 142.85 30.3 141.65 29.8 140.05 29.8
M 186.8 25
L 184.5 25 184.5 43.55 186.8 43.55 186.8 25
M 196 29.8
Q 194.25 29.8 192.95 30.3 191.6 30.75 190.95 31.65 190.25 32.55 189.95 33.95
L 192.15 34.25
Q 192.5 32.85 193.3 32.25 194.05 31.7 195.65 31.7 197.35 31.7 198.25 32.5 198.9 33.05 198.9 34.45 198.9 34.55 198.9 35.05 197.6 35.5 194.8 35.8 193.45 36 192.8 36.15 191.9 36.4 191.15 36.9 190.45 37.4 190 38.2 189.55 39 189.55 40 189.55 41.7 190.7 42.8 191.9 43.85 194.1 43.85 195.45 43.85 196.65 43.4 197.8 42.95 199.05 41.9 199.15 42.85 199.5 43.55
L 201.9 43.55
Q 201.45 42.8 201.35 41.95 201.2 41.1 201.2 37.9
L 201.2 34.9
Q 201.2 33.35 201.05 32.8 200.85 31.85 200.35 31.25 199.85 30.65 198.8 30.25 197.7 29.8 196 29.8
M 191.95 39.95
Q 191.95 39.35 192.3 38.85 192.6 38.4 193.2 38.15 193.75 37.85 195.15 37.65 197.65 37.3 198.9 36.8
L 198.9 37.65
Q 198.9 39.15 198.5 39.9 198.05 40.9 197 41.5 196 42.05 194.65 42.05 193.35 42.05 192.65 41.45 191.95 40.85 191.95 39.95
M 166.8 33.2
Q 166.1 31.6 164.8 30.7 163.5 29.8 161.75 29.8 160.45 29.8 159.55 30.35 158.6 30.85 157.9 31.85
L 157.9 30.15 155.8 30.15 155.8 48.7 158.1 48.7 158.1 42.15
Q 158.65 42.9 159.55 43.35 160.45 43.85 161.6 43.85 163.15 43.85 164.6 43 166 42.1 166.75 40.45 167.45 38.8 167.45 36.75 167.45 34.8 166.8 33.2
M 164.1 32.9
Q 165.15 34.15 165.15 36.7 165.15 39.4 164.05 40.7 162.95 42 161.45 42 159.95 42 158.9 40.75 157.85 39.5 157.85 36.9 157.85 34.3 159 32.95 160.1 31.6 161.55 31.6 163 31.6 164.1 32.9
M 175.9 29.8
Q 174.15 29.8 172.85 30.3 171.5 30.75 170.85 31.65 170.15 32.55 169.85 33.95
L 172.05 34.25
Q 172.4 32.85 173.2 32.25 173.95 31.7 175.55 31.7 177.25 31.7 178.15 32.5 178.8 33.05 178.8 34.45 178.8 34.55 178.8 35.05 177.5 35.5 174.7 35.8 173.35 36 172.7 36.15 171.8 36.4 171.05 36.9 170.35 37.4 169.9 38.2 169.45 39 169.45 40 169.45 41.7 170.6 42.8 171.8 43.85 174 43.85 175.35 43.85 176.55 43.4 177.7 42.95 178.95 41.9 179.05 42.85 179.4 43.55
L 181.8 43.55
Q 181.35 42.8 181.25 41.95 181.1 41.1 181.1 37.9
L 181.1 34.9
Q 181.1 33.35 180.95 32.8 180.75 31.85 180.25 31.25 179.75 30.65 178.7 30.25 177.6 29.8 175.9 29.8
M 178.8 37.65
Q 178.8 39.15 178.4 39.9 177.95 40.9 176.9 41.5 175.9 42.05 174.55 42.05 173.25 42.05 172.55 41.45 171.85 40.85 171.85 39.95 171.85 39.35 172.2 38.85 172.5 38.4 173.1 38.15 173.65 37.85 175.05 37.65 177.55 37.3 178.8 36.8
L 178.8 37.65
M 234.8 34.45
Q 234.8 34.55 234.8 35.05 233.5 35.5 230.7 35.8 229.35 36 228.7 36.15 227.8 36.4 227.05 36.9 226.35 37.4 225.9 38.2 225.45 39 225.45 40 225.45 41.7 226.6 42.8 227.8 43.85 230 43.85 231.35 43.85 232.55 43.4 233.7 42.95 234.95 41.9 235.05 42.85 235.4 43.55
L 237.8 43.55
Q 237.35 42.8 237.25 41.95 237.1 41.1 237.1 37.9
L 237.1 34.9
Q 237.1 33.35 236.95 32.8 236.75 31.85 236.25 31.25 235.75 30.65 234.7 30.25 233.6 29.8 231.9 29.8 230.15 29.8 228.85 30.3 227.5 30.75 226.85 31.65 226.15 32.55 225.85 33.95
L 228.05 34.25
Q 228.4 32.85 229.2 32.25 229.95 31.7 231.55 31.7 233.25 31.7 234.15 32.5 234.8 33.05 234.8 34.45
M 229.1 38.15
Q 229.65 37.85 231.05 37.65 233.55 37.3 234.8 36.8
L 234.8 37.65
Q 234.8 39.15 234.4 39.9 233.95 40.9 232.9 41.5 231.9 42.05 230.55 42.05 229.25 42.05 228.55 41.45 227.85 40.85 227.85 39.95 227.85 39.35 228.2 38.85 228.5 38.4 229.1 38.15
M 215.65 30.15
L 213.3 30.15 210.3 38.3
Q 209.8 39.8 209.45 40.85 209.1 39.45 208.6 38.15
L 205.75 30.15 203.35 30.15 208.45 43.55 210.55 43.55 215.65 30.15
M 219.65 32.15
L 219.65 30.15 217.6 30.15 217.6 43.55 219.85 43.55 219.85 36.5
Q 219.85 35.1 220.25 33.85 220.5 33.05 221.1 32.65 221.7 32.15 222.4 32.15 223.25 32.15 224.1 32.65
L 224.9 30.55
Q 223.7 29.8 222.55 29.8 221.75 29.8 221.1 30.3 220.4 30.75 219.65 32.15
M 245 29.8
Q 243.95 29.8 243.05 30.1 242.15 30.35 241.6 30.75 240.9 31.25 240.5 32.05 240.1 32.8 240.1 33.7 240.1 34.7 240.6 35.5 241.05 36.3 242.05 36.75 243 37.25 245.5 37.85 247.35 38.35 247.85 38.65 248.5 39.1 248.5 39.85 248.5 40.7 247.75 41.35 247 42 245.4 42 243.85 42 243 41.25 242.15 40.55 241.95 39.2
L 239.7 39.55
Q 240.1 41.7 241.45 42.75 242.8 43.85 245.45 43.85 247 43.85 248.25 43.3 249.5 42.75 250.2 41.75 250.85 40.75 250.85 39.6 250.85 38.45 250.3 37.65 249.75 36.9 248.8 36.45 247.85 36.05 245.45 35.4 243.75 34.95 243.45 34.85 242.85 34.6 242.55 34.2 242.3 33.85 242.3 33.4 242.3 32.75 242.95 32.2 243.6 31.7 245.2 31.7 246.5 31.7 247.25 32.25 247.95 32.85 248.1 33.9
L 250.35 33.6
Q 250.15 32.3 249.55 31.5 249 30.75 247.8 30.3 246.6 29.8 245 29.8
M 262.7 30.65
Q 261.35 31.5 260.65 33.1 259.95 34.7 259.95 36.7 259.95 40.05 261.7 41.95 263.4 43.85 265.8 43.85 266.85 43.85 267.85 43.35 268.8 42.85 269.3 42.1
L 269.3 48.7 271.6 48.7 271.6 30.15 269.55 30.15 269.55 31.9
Q 268.1 29.8 265.6 29.8 264.05 29.8 262.7 30.65
M 268.45 32.95
Q 269.55 34.3 269.55 37 269.55 39.5 268.5 40.75 267.45 42 266 42 264.45 42 263.4 40.7 262.3 39.4 262.3 36.8 262.3 34.15 263.35 32.9 264.35 31.6 265.85 31.6 267.35 31.6 268.45 32.95
M 320 31.5
Q 319.45 30.75 318.25 30.3 317.05 29.8 315.45 29.8 314.4 29.8 313.5 30.1 312.6 30.35 312.05 30.75 311.35 31.25 310.95 32.05 310.55 32.8 310.55 33.7 310.55 34.7 311.05 35.5 311.5 36.3 312.5 36.75 313.45 37.25 315.95 37.85 317.8 38.35 318.3 38.65 318.95 39.1 318.95 39.85 318.95 40.7 318.2 41.35 317.45 42 315.85 42 314.3 42 313.45 41.25 312.6 40.55 312.4 39.2
L 310.15 39.55
Q 310.55 41.7 311.9 42.75 313.25 43.85 315.9 43.85 317.45 43.85 318.7 43.3 319.95 42.75 320.65 41.75 321.3 40.75 321.3 39.6 321.3 38.45 320.75 37.65 320.2 36.9 319.25 36.45 318.3 36.05 315.9 35.4 314.2 34.95 313.9 34.85 313.3 34.6 313 34.2 312.75 33.85 312.75 33.4 312.75 32.75 313.4 32.2 314.05 31.7 315.65 31.7 316.95 31.7 317.7 32.25 318.4 32.85 318.55 33.9
L 320.8 33.6
Q 320.6 32.3 320 31.5
M 285.95 30.15
L 283.65 30.15 283.65 37.3
Q 283.65 39.05 283.3 39.95 282.9 40.85 282 41.4 281.1 41.9 280.1 41.9 279.1 41.9 278.4 41.4 277.7 40.85 277.45 39.95 277.35 39.35 277.35 37.55
L 277.35 30.15 275.05 30.15 275.05 38.45
Q 275.05 39.9 275.2 40.55 275.4 41.55 275.9 42.25 276.4 42.95 277.45 43.4 278.45 43.85 279.65 43.85 282.35 43.85 283.9 41.6
L 283.9 43.55 285.95 43.55 285.95 30.15
M 301.1 36.8
Q 301.1 33.5 299.4 31.65 297.7 29.8 295 29.8 292.25 29.8 290.5 31.7 288.75 33.55 288.75 36.95 288.75 40.25 290.5 42.05 292.2 43.85 295.15 43.85 297.5 43.85 299 42.7 300.5 41.6 301.05 39.5
L 298.7 39.25
Q 298.2 40.65 297.3 41.35 296.4 42 295.15 42 293.5 42 292.35 40.8 291.25 39.65 291.1 37.4
L 301.1 37.4
Q 301.1 37 301.1 36.8
M 295.05 31.7
Q 296.8 31.7 297.85 33 298.55 33.85 298.7 35.55
L 291.25 35.55
Q 291.35 33.8 292.4 32.75 293.5 31.7 295.05 31.7
M 333.65 25.2
L 332 25.2
Q 331.9 25.9 331.7 26.1 331.5 26.3 331.1 26.3 330.65 26.3 329.9 25.95 328.55 25.25 327.75 25.25 326.65 25.25 325.9 26.05 325.2 26.85 325.2 28.15
L 326.9 28.15
Q 326.85 27.55 327.15 27.25 327.4 26.95 327.85 26.95 328.25 26.95 329.1 27.4 330.4 28.1 331.15 28.1 332.25 28.1 332.95 27.4 333.6 26.65 333.65 25.2
M 334.9 34.9
Q 334.9 33.35 334.75 32.8 334.55 31.85 334.05 31.25 333.55 30.65 332.5 30.25 331.4 29.8 329.7 29.8 327.95 29.8 326.65 30.3 325.3 30.75 324.65 31.65 323.95 32.55 323.65 33.95
L 325.85 34.25
Q 326.2 32.85 327 32.25 327.75 31.7 329.35 31.7 331.05 31.7 331.95 32.5 332.6 33.05 332.6 34.45 332.6 34.55 332.6 35.05 331.3 35.5 328.5 35.8 327.15 36 326.5 36.15 325.6 36.4 324.85 36.9 324.15 37.4 323.7 38.2 323.25 39 323.25 40 323.25 41.7 324.4 42.8 325.6 43.85 327.8 43.85 329.15 43.85 330.35 43.4 331.5 42.95 332.75 41.9 332.85 42.85 333.2 43.55
L 335.6 43.55
Q 335.15 42.8 335.05 41.95 334.9 41.1 334.9 37.9
L 334.9 34.9
M 332.2 39.9
Q 331.75 40.9 330.7 41.5 329.7 42.05 328.35 42.05 327.05 42.05 326.35 41.45 325.65 40.85 325.65 39.95 325.65 39.35 326 38.85 326.3 38.4 326.9 38.15 327.45 37.85 328.85 37.65 331.35 37.3 332.6 36.8
L 332.6 37.65
Q 332.6 39.15 332.2 39.9
M 339.65 31.3
Q 337.55 33.1 337.55 36.85 337.55 40.25 339.3 42.05 341.05 43.85 343.85 43.85 345.6 43.85 347.1 43.05 348.6 42.2 349.35 40.75 350.15 39.25 350.15 36.65 350.15 33.45 348.4 31.65 346.6 29.8 343.85 29.8 341.35 29.8 339.65 31.3
M 341 33
Q 342.15 31.7 343.85 31.7 345.55 31.7 346.65 33 347.8 34.25 347.8 36.75 347.8 39.4 346.65 40.7 345.55 42 343.85 42 342.15 42 341 40.7 339.9 39.4 339.9 36.85 339.9 34.25 341 33
M 370.05 27.75
Q 371.1 28.65 371.3 30.4
L 373.65 30.25
Q 373.6 28.6 372.75 27.3 371.9 26.05 370.35 25.35 368.75 24.7 366.7 24.7 364.8 24.7 363.3 25.35 361.75 25.95 360.95 27.2 360.15 28.4 360.15 29.8 360.15 31.1 360.85 32.1 361.45 33.15 362.8 33.85 363.8 34.4 366.4 35 368.95 35.6 369.7 35.9 370.85 36.35 371.35 37 371.85 37.65 371.85 38.5 371.85 39.4 371.35 40.1 370.8 40.85 369.75 41.25 368.65 41.65 367.25 41.65 365.65 41.65 364.4 41.1 363.15 40.55 362.55 39.7 361.95 38.8 361.8 37.4
L 359.45 37.6
Q 359.5 39.45 360.5 40.95 361.45 42.4 363.15 43.15 364.85 43.85 367.35 43.85 369.35 43.85 370.95 43.15 372.5 42.4 373.35 41.1 374.2 39.8 374.2 38.3 374.2 36.8 373.45 35.7 372.65 34.55 371.05 33.8 369.95 33.3 366.95 32.6 363.95 31.95 363.25 31.3 362.55 30.65 362.55 29.65 362.55 28.5 363.55 27.7 364.55 26.85 366.8 26.85 368.95 26.85 370.05 27.75
M 377.6 25
L 377.6 35.75
Q 377.6 38.65 378.3 40.4 379 42.05 380.65 42.95 382.3 43.85 384.9 43.85 387.6 43.85 389.25 42.85 390.9 41.8 391.55 40.15 392.15 38.5 392.15 35.75
L 392.15 25 389.7 25 389.7 35.7
Q 389.7 39.2 388.55 40.45 387.4 41.65 384.7 41.65 383.1 41.65 382.05 41.05 380.95 40.4 380.5 39.3 380.05 38.15 380.05 35.7
L 380.05 25 377.6 25
M 437.9 27.2
L 444.05 27.2 444.05 25 429.35 25 429.35 27.2 435.45 27.2 435.45 43.55 437.9 43.55 437.9 27.2
M 408.5 27.3
Q 407.8 26.15 406.5 25.6 405.2 25 403.1 25
L 396.15 25 396.15 43.55 403.2 43.55
Q 405 43.55 406.2 43.25 407.4 42.95 408.25 42.3 409.05 41.7 409.6 40.6 410.15 39.5 410.15 38.2 410.15 36.55 409.25 35.35 408.35 34.2 406.65 33.7 407.95 33.05 408.6 32 409.25 30.95 409.25 29.75 409.25 28.5 408.5 27.3
M 405.1 27.45
Q 405.95 27.7 406.4 28.45 406.85 29.15 406.85 30.05 406.85 31 406.35 31.65 405.9 32.3 404.95 32.6 404.25 32.8 402.6 32.8
L 398.6 32.8 398.6 27.2 402.3 27.2
Q 404.3 27.2 405.1 27.45
M 405.6 35.3
Q 406.55 35.6 407.05 36.4 407.6 37.15 407.6 38.2 407.6 39.05 407.25 39.75 406.85 40.4 406.3 40.75 405.75 41.1 404.9 41.25 404.4 41.35 403.2 41.35
L 398.6 41.35 398.6 35 402.9 35
Q 404.65 35 405.6 35.3
M 423.25 27.75
Q 424.3 28.65 424.5 30.4
L 426.85 30.25
Q 426.8 28.6 425.95 27.3 425.1 26.05 423.55 25.35 421.95 24.7 419.9 24.7 418 24.7 416.5 25.35 414.95 25.95 414.15 27.2 413.35 28.4 413.35 29.8 413.35 31.1 414.05 32.1 414.65 33.15 416 33.85 417 34.4 419.6 35 422.15 35.6 422.9 35.9 424.05 36.35 424.55 37 425.05 37.65 425.05 38.5 425.05 39.4 424.55 40.1 424 40.85 422.95 41.25 421.85 41.65 420.45 41.65 418.85 41.65 417.6 41.1 416.35 40.55 415.75 39.7 415.15 38.8 415 37.4
L 412.65 37.6
Q 412.7 39.45 413.7 40.95 414.65 42.4 416.35 43.15 418.05 43.85 420.55 43.85 422.55 43.85 424.15 43.15 425.7 42.4 426.55 41.1 427.4 39.8 427.4 38.3 427.4 36.8 426.65 35.7 425.85 34.55 424.25 33.8 423.15 33.3 420.15 32.6 417.15 31.95 416.45 31.3 415.75 30.65 415.75 29.65 415.75 28.5 416.75 27.7 417.75 26.85 420 26.85 422.15 26.85 423.25 27.75
M 452.35 25
L 449.75 25 442.6 43.55 445.2 43.55 447.25 37.95 455 37.95 457.15 43.55 459.95 43.55 452.35 25
M 447.95 35.95
L 450 30.5
Q 450.65 28.75 451 26.95 451.4 28.45 452.3 30.8
L 454.25 35.95 447.95 35.95
M 464.4 25
L 461.85 25 461.85 43.55 464.2 43.55 464.2 29 473.95 43.55 476.45 43.55 476.45 25 474.1 25 474.1 39.55 464.4 25
M 487.75 27.2
L 493.9 27.2 493.9 25 479.2 25 479.2 27.2 485.3 27.2 485.3 43.55 487.75 43.55 487.75 27.2
M 499.25 25
L 496.8 25 496.8 43.55 499.25 43.55 499.25 25
M 504.35 25
L 501.7 25 508.9 43.55 511.4 43.55 518.65 25 516.15 25 511.15 38.5
Q 510.6 40 510.15 41.5 509.75 40.1 509.2 38.5
L 504.35 25
M 540.85 29.8
Q 540.85 31.1 541.55 32.1 542.15 33.15 543.5 33.85 544.5 34.4 547.1 35 549.65 35.6 550.4 35.9 551.55 36.35 552.05 37 552.55 37.65 552.55 38.5 552.55 39.4 552.05 40.1 551.5 40.85 550.45 41.25 549.35 41.65 547.95 41.65 546.35 41.65 545.1 41.1 543.85 40.55 543.25 39.7 542.65 38.8 542.5 37.4
L 540.15 37.6
Q 540.2 39.45 541.2 40.95 542.15 42.4 543.85 43.15 545.55 43.85 548.05 43.85 550.05 43.85 551.65 43.15 553.2 42.4 554.05 41.1 554.9 39.8 554.9 38.3 554.9 36.8 554.15 35.7 553.35 34.55 551.75 33.8 550.65 33.3 547.65 32.6 544.65 31.95 543.95 31.3 543.25 30.65 543.25 29.65 543.25 28.5 544.25 27.7 545.25 26.85 547.5 26.85 549.65 26.85 550.75 27.75 551.8 28.65 552 30.4
L 554.35 30.25
Q 554.3 28.6 553.45 27.3 552.6 26.05 551.05 25.35 549.45 24.7 547.4 24.7 545.5 24.7 544 25.35 542.45 25.95 541.65 27.2 540.85 28.4 540.85 29.8
M 537.8 34.3
Q 537.8 31.55 536.75 29.35 535.65 27.15 533.6 25.9 531.55 24.7 529 24.7 525.05 24.7 522.6 27.3 520.1 29.9 520.1 34.5 520.1 36.95 521.15 39.15 522.25 41.35 524.3 42.6 526.35 43.85 528.95 43.85 531.4 43.85 533.45 42.75 535.55 41.6 536.7 39.35 537.8 37.15 537.8 34.3
M 534.55 30.35
Q 535.3 32.05 535.3 34.3 535.3 37.85 533.5 39.8 531.7 41.75 528.95 41.75 526.25 41.75 524.45 39.85 522.65 37.9 522.65 34.55 522.65 30.4 524.5 28.6 526.4 26.8 529 26.8 530.8 26.8 532.3 27.75 533.75 28.65 534.55 30.35
M 582.75 43.55
L 585.2 43.55 585.2 35.3 588.05 35.3
Q 589 35.3 589.4 35.4 589.95 35.55 590.5 35.9 591.05 36.25 591.75 37.15 592.45 38.05 593.55 39.7
L 596 43.55 599.05 43.55 595.85 38.5
Q 594.9 37.05 593.8 36.05 593.3 35.6 592.35 35.1 595 34.75 596.25 33.4 597.55 32.05 597.55 30.05 597.55 28.55 596.8 27.3 596 26 594.7 25.5 593.45 25 590.95 25
L 582.75 25 582.75 43.55
M 585.2 33.2
L 585.2 27.05 591.05 27.05
Q 593.1 27.05 594.05 27.9 595 28.75 595 30.05 595 30.95 594.55 31.75 594.05 32.5 593.1 32.85 592.15 33.2 590.45 33.2
L 585.2 33.2
M 578.1 34.4
Q 579.6 32.75 579.6 30.4 579.6 29 579.05 27.85 578.45 26.7 577.55 26.05 576.6 25.4 575.25 25.2 574.3 25 572.45 25
L 565.45 25 565.45 43.55 567.9 43.55 567.9 36 572.65 36
Q 576.6 36 578.1 34.4
M 572.65 27.2
Q 574.3 27.2 574.95 27.35 575.9 27.65 576.5 28.45 577.05 29.3 577.05 30.45 577.05 32.05 576.05 32.95 575.05 33.85 572.7 33.85
L 567.9 33.85 567.9 27.2 572.65 27.2
M 621.55 43.55
L 624 43.55 624 36 628.75 36
Q 632.7 36 634.2 34.4 635.7 32.75 635.7 30.4 635.7 29 635.15 27.85 634.55 26.7 633.65 26.05 632.7 25.4 631.35 25.2 630.4 25 628.55 25
L 621.55 25 621.55 43.55
M 624 33.85
L 624 27.2 628.75 27.2
Q 630.4 27.2 631.05 27.35 632 27.65 632.6 28.45 633.15 29.3 633.15 30.45 633.15 32.05 632.15 32.95 631.15 33.85 628.8 33.85
L 624 33.85
M 617.3 29.35
Q 616.2 27.15 614.15 25.9 612.1 24.7 609.55 24.7 605.6 24.7 603.15 27.3 600.65 29.9 600.65 34.5 600.65 36.95 601.7 39.15 602.8 41.35 604.85 42.6 606.9 43.85 609.5 43.85 611.95 43.85 614 42.75 616.1 41.6 617.25 39.35 618.35 37.15 618.35 34.3 618.35 31.55 617.3 29.35
M 615.1 30.35
Q 615.85 32.05 615.85 34.3 615.85 37.85 614.05 39.8 612.25 41.75 609.5 41.75 606.8 41.75 605 39.85 603.2 37.9 603.2 34.55 603.2 30.4 605.05 28.6 606.95 26.8 609.55 26.8 611.35 26.8 612.85 27.75 614.3 28.65 615.1 30.35
M 612.6 20.35
L 609.65 20.35 607.95 23.9 609.85 23.9 612.6 20.35
M 657.9 43.55
L 660.35 43.55 660.35 25 657.9 25 657.9 43.55
M 648.45 35.1
Q 651.1 34.75 652.35 33.4 653.65 32.05 653.65 30.05 653.65 28.55 652.9 27.3 652.1 26 650.8 25.5 649.55 25 647.05 25
L 638.85 25 638.85 43.55 641.3 43.55 641.3 35.3 644.15 35.3
Q 645.1 35.3 645.5 35.4 646.05 35.55 646.6 35.9 647.15 36.25 647.85 37.15 648.55 38.05 649.65 39.7
L 652.1 43.55 655.15 43.55 651.95 38.5
Q 651 37.05 649.9 36.05 649.4 35.6 648.45 35.1
M 650.65 31.75
Q 650.15 32.5 649.2 32.85 648.25 33.2 646.55 33.2
L 641.3 33.2 641.3 27.05 647.15 27.05
Q 649.2 27.05 650.15 27.9 651.1 28.75 651.1 30.05 651.1 30.95 650.65 31.75
M 666.45 27.3
Q 663.95 29.9 663.95 34.5 663.95 36.95 665 39.15 666.1 41.35 668.15 42.6 670.2 43.85 672.8 43.85 675.25 43.85 677.3 42.75 679.4 41.6 680.55 39.35 681.65 37.15 681.65 34.3 681.65 31.55 680.6 29.35 679.5 27.15 677.45 25.9 675.4 24.7 672.85 24.7 668.9 24.7 666.45 27.3
M 678.4 30.35
Q 679.15 32.05 679.15 34.3 679.15 37.85 677.35 39.8 675.55 41.75 672.8 41.75 670.1 41.75 668.3 39.85 666.5 37.9 666.5 34.55 666.5 30.4 668.35 28.6 670.25 26.8 672.85 26.8 674.65 26.8 676.15 27.75 677.6 28.65 678.4 30.35
M 702.45 40.95
L 702.45 43.55 705.05 43.55 705.05 40.95 702.45 40.95
M 697.3 27.3
Q 696.45 26.05 694.9 25.35 693.3 24.7 691.25 24.7 689.35 24.7 687.85 25.35 686.3 25.95 685.5 27.2 684.7 28.4 684.7 29.8 684.7 31.1 685.4 32.1 686 33.15 687.35 33.85 688.35 34.4 690.95 35 693.5 35.6 694.25 35.9 695.4 36.35 695.9 37 696.4 37.65 696.4 38.5 696.4 39.4 695.9 40.1 695.35 40.85 694.3 41.25 693.2 41.65 691.8 41.65 690.2 41.65 688.95 41.1 687.7 40.55 687.1 39.7 686.5 38.8 686.35 37.4
L 684 37.6
Q 684.05 39.45 685.05 40.95 686 42.4 687.7 43.15 689.4 43.85 691.9 43.85 693.9 43.85 695.5 43.15 697.05 42.4 697.9 41.1 698.75 39.8 698.75 38.3 698.75 36.8 698 35.7 697.2 34.55 695.6 33.8 694.5 33.3 691.5 32.6 688.5 31.95 687.8 31.3 687.1 30.65 687.1 29.65 687.1 28.5 688.1 27.7 689.1 26.85 691.35 26.85 693.5 26.85 694.6 27.75 695.65 28.65 695.85 30.4
L 698.2 30.25
Q 698.15 28.6 697.3 27.3 Z"/>
</g>
</defs>

<g transform="matrix( 1, 0, 0, 1, 0,0) ">
<use xlink:href="#Layer1_0_FILL"/>
</g>

<g transform="matrix( 1, 0, 0, 1, 0,0) ">
<use xlink:href="#Layer0_0_FILL"/>
</g>

<g transform="matrix( 1, 0, 0, 1, 0,0) ">
<use xlink:href="#Layer0_0_MEMBER_0_FILL"/>
</g>
</svg>
