
<svg xmlns="http://www.w3.org/2000/svg" version="1.1" xmlns:xlink="http://www.w3.org/1999/xlink" preserveAspectRatio="none" x="0px" y="0px" width="666px" height="648px" viewBox="0 0 666 648">
<defs>
<linearGradient id="Gradient_1" gradientUnits="userSpaceOnUse" x1="92.4125" y1="175.0375" x2="86.2875" y2="177.26250000000002" spreadMethod="pad">
<stop  offset="0%" stop-color="#999999"/>

<stop  offset="27.84313725490196%" stop-color="#CCCCCC"/>

<stop  offset="48.627450980392155%" stop-color="#FFFFFF"/>

<stop  offset="70.58823529411765%" stop-color="#CCCCCC"/>

<stop  offset="100%" stop-color="#999999"/>
</linearGradient>

<linearGradient id="Gradient_2" gradientUnits="userSpaceOnUse" x1="67.9625" y1="108.03750000000001" x2="61.837500000000006" y2="110.2625" spreadMethod="pad">
<stop  offset="0%" stop-color="#252525"/>

<stop  offset="27.84313725490196%" stop-color="#494949"/>

<stop  offset="48.627450980392155%" stop-color="#999999"/>

<stop  offset="70.58823529411765%" stop-color="#2C2C2C"/>

<stop  offset="100%" stop-color="#000000"/>
</linearGradient>

<linearGradient id="Gradient_3" gradientUnits="userSpaceOnUse" x1="43.7125" y1="41.6375" x2="37.5875" y2="43.8625" spreadMethod="pad">
<stop  offset="0%" stop-color="#999999"/>

<stop  offset="27.84313725490196%" stop-color="#CCCCCC"/>

<stop  offset="48.627450980392155%" stop-color="#FFFFFF"/>

<stop  offset="70.58823529411765%" stop-color="#CCCCCC"/>

<stop  offset="100%" stop-color="#999999"/>
</linearGradient>

<radialGradient id="Gradient_4" gradientUnits="userSpaceOnUse" cx="0" cy="0" r="5.117677695986718" fx="0" fy="0" gradientTransform="matrix( -0.9183853066178317, 0.3956872863619381, 0.35660706054841335, 0.9989882723582264, 391.4,73.4) " spreadMethod="pad">
<stop  offset="0%" stop-color="#00CCFF"/>

<stop  offset="79.2156862745098%" stop-color="#0066CC"/>
</radialGradient>

<radialGradient id="Gradient_5" gradientUnits="userSpaceOnUse" cx="0" cy="0" r="7.125" fx="0" fy="0" gradientTransform="matrix( 1, 0, 0, 1, 368.1,77.4) " spreadMethod="pad">
<stop  offset="0%" stop-color="#00CCFF"/>

<stop  offset="79.2156862745098%" stop-color="#0066CC"/>
</radialGradient>

<filter id="Filter_1" x="-20%" y="-20%" width="140%" height="140%" color-interpolation-filters="sRGB">
<feColorMatrix in="SourceGraphic" type="matrix" values="1 0 0 0 0 0 1 0 0 0 0 0 1 0 0 0 0 0 0.6 0" result="result1"/>
</filter>

<g id="Layer3_0_FILL">
<path fill="#B32624" stroke="none" d="
M 392.75 669.9
Q 392.7 671.95 392.75 673.5 392.85 675.8 392.75 669.9
M 383.25 160.25
Q 374.25 160 365.1 160.05 323.25 167.65 306.3 207.55 301.45 219 296.4 230.35 284.3 257.65 271.2 284.5 264 299.15 256.75 313.8 245.4 336.6 233.9 359.3 221.95 382.8 209.45 406 203.9 416.1 198.3 426.2 189.1 442.75 179.7 459.25 177.4 463.55 175 467.8 172.65 472 170.2 476.2 151.25 508.95 129.4 538.15 112.15 561.2 93.05 582.1 96.5 585.1 100.45 588.15 106.9 593.2 114.65 598.45 121.55 603.1 129.4 607.95 137.15 612.75 145.9 617.7 158.15 624.45 166.1 612.35 154.95 599.1 153.75 597.7 151.45 595.15 151.55 593.45 151.55 593.25 151.65 593 151.8 592.35 152.25 591.95 152.55 591.5 152.8 591.05
L 153.25 591.3
Q 154.15 590.85 155.65 590.75 159.5 590.45 172 598.15 172.1 598.25 172.3 598.35 186.45 606.9 202.25 614.1 212.85 618.9 223.7 622.55 240.65 628.3 259 631 263.7 631.65 268.45 632.15 268.9 632.15 269.4 632.25 273.6 632.65 277.9 633 286.25 633.65 294.75 633.95 311.4 634.4 328.2 634.1 331.2 633.95 334.25 633.75 367.4 632.95 392.15 630.45 394.7 630.2 397.15 629.9 409.7 628.5 419.9 626.6 451.55 620.6 483.35 608.4 503.35 600.7 520.7 599.9 520.75 599.9 520.8 599.9 530.95 599.4 540.2 601.25 544.75 604.55 537.4 618.7 535.1 623.1 537.4 625.8 540.7 628.05 549 627.65 549.8 627.65 550.65 627.6 560.2 627.2 570.4 623.55 583.45 618.85 597.5 608.85 600.1 606.9 606.1 601.6 608.4 599.5 611.3 596.85 594.95 568.35 579.55 539.75 562.65 508.4 546.85 476.95 530 443.3 514.35 409.5 484.65 345.35 459.45 280.55
L 441.05 223.05
Q 440.75 222.15 440.5 221.25 439.95 219.6 439.4 218 434 201.8 427.6 186 420.7 176.75 415.55 172 410.35 167.25 403.3 165.1
L 383.25 160.25 Z"/>

<path fill="#000000" stroke="none" d="
M 537.4 618.7
L 533.85 620.9 535.85 624.15
Q 536.4 625.1 537.4 625.8 535.1 623.1 537.4 618.7 Z"/>

<path fill="#0F1C2B" stroke="none" d="
M 533.85 620.9
L 537.4 618.7
Q 544.75 604.55 540.2 601.25 530.95 599.4 520.8 599.9
L 533.85 620.9
M 152.25 591.95
Q 151.8 592.35 151.65 593 151.55 593.25 151.55 593.45 151.45 595.15 153.75 597.7 154.95 599.1 166.1 612.35 166.5 611.75 166.95 611.1 168.1 608.95 172.3 598.35 172.1 598.25 172 598.15 159.5 590.45 155.65 590.75 154.15 590.85 153.25 591.3 152.6 591.5 152.25 591.95
M 356.7 154.95
Q 345 157.35 336.5 160.9 327.95 164.45 318.15 171.1 308.3 177.75 302.2 186 296.05 194.25 291 203.55 285.9 212.8 281.5 221.35 280.25 224.25 278.85 227.15 277.7 229.55 276.5 231.95 276.05 232.8 275.65 233.65 274.95 235.15 274.3 236.65
L 272.9 239.65
Q 269.8 246.3 266.7 252.95 266.55 253.2 266.45 253.5
L 265.95 254.6
Q 265.8 254.85 265.7 255.05 193.2 408 92.65 520.95 84.6 529.8 76.5 538.45 71 544.35 59.25 555.8 47.5 567.25 66.2 609.4 80 596.2 93.05 582.1 112.15 561.2 129.4 538.15 151.25 508.95 170.2 476.2 172.65 472 175 467.8 177.4 463.55 179.7 459.25 189.1 442.75 198.3 426.2 203.9 416.1 209.45 406 221.95 382.8 233.9 359.3 245.4 336.6 256.75 313.8 264 299.15 271.2 284.5 284.3 257.65 296.4 230.35 301.45 219 306.3 207.55 323.25 167.65 365.1 160.05 374.25 160 383.25 160.25
L 403.3 165.1
Q 410.35 167.25 415.55 172 420.7 176.75 427.6 186 434 201.8 439.4 218 439.95 219.6 440.5 221.25 440.75 222.15 441.05 223.05
L 459.45 280.55
Q 484.65 345.35 514.35 409.5 530 443.3 546.85 476.95 562.65 508.4 579.55 539.75 594.95 568.35 611.3 596.85
L 626.15 620.3
Q 676.6 584.75 660.2 565.4 563.95 471.2 478.5 290.4 473.85 279.55 469.25 268.65 464.6 257.6 460.35 246.45 456.25 235.75 452.05 225.25 450.35 221 448.6 216.8 447.3 213.8 446.05 210.85 445.25 209.1 444.5 207.35 440.15 197.45 433.15 185.55 426.15 173.6 420.7 168.2 415.2 162.75 405.25 159.05 395.25 155.35 381.4 153.8 367.6 152.2 357.65 154.95
L 356.7 154.95
M 360.05 155.1
L 359.05 155.05 360.05 155.1 Z"/>
</g>

<g id="Layer2_0_FILL">
<path fill="#0F1C2B" stroke="none" d="
M 473.05 277.6
Q 473.0595703125 277.5560546875 473.05 277.5 473.0224609375 277.4693359375 472.95 277.45 472.9205078125 277.321875 472.85 277.2 471.801953125 276.405078125 470.65 275.55 454.4724609375 263.654296875 453.9 263.2
L 459.45 280.55
Q 484.65 345.35 514.35 409.5 530 443.3 546.85 476.95 562.65 508.4 579.55 539.75 594.95 568.35 611.3 596.85
L 626.15 620.3
Q 676.6 584.75 660.2 565.4 563.95 471.2 478.5 290.4 475.765234375 284.019140625 473.05 277.6
M 279.55 225.6
Q 279.21796875 226.3876953125 278.85 227.15 277.7 229.55 276.5 231.95 275.4 234.25 274.3 236.65
L 272.9 239.65
Q 269.8 246.3 266.7 252.95 266.55 253.2 266.45 253.5
L 265.95 254.6
Q 265.8 254.85 265.7 255.05 193.2 408 92.65 520.95 84.6 529.8 76.5 538.45 71 544.35 59.25 555.8 47.5 567.25 66.2 609.4 80 596.2 93.05 582.1 112.15 561.2 129.4 538.15 151.25 508.95 170.2 476.2 172.65 472 175 467.8 177.4 463.55 179.7 459.25 189.1 442.75 198.3 426.2 203.9 416.1 209.45 406 221.95 382.8 233.9 359.3 245.4 336.6 256.75 313.8 264 299.15 271.2 284.5 284.2755859375 257.7 296.35 230.45
L 279.55 225.6
M 537.4 618.7
Q 544.75 604.55 540.2 601.25 530.95 599.4 520.8 599.9
L 533.85 620.9 537.4 618.7
M 151.65 593
Q 151.55 593.25 151.55 593.45 151.45 595.15 153.75 597.7 154.95 599.1 166.1 612.35 166.5 611.75 166.95 611.1 168.1 608.95 172.3 598.35 172.1 598.25 172 598.15 159.5 590.45 155.65 590.75 154.15 590.85 153.25 591.3 152.6 591.5 152.25 591.95 151.8 592.35 151.65 593
M 276.5 231.95
Q 276.05 232.8 275.65 233.65 274.95 235.15 274.3 236.65 275.4 234.25 276.5 231.95
M 358.35 155
L 359.05 155.05 359.35 155.05 358.35 155
M 357.65 154.95
L 356.7 154.95 358.3 155 357.65 154.95 Z"/>

<path fill="#EF3D22" stroke="none" d="
M 427.25 244.9
Q 426.7291015625 244.9 426.25 244.95 425.5001953125 254.6697265625 424.8 272.5 423.55 304.25 421.35 334.6 419.15 364.95 416.35 407.35 411.35 417.55 405.95 424.75 402.4 429.55 401.9 447.3 401.55 457.95 390.65 546.55 391.6 599.45 392.15 630.45 394.7 630.2 397.15 629.9 409.7 628.5 419.9 626.6 451.55 620.6 483.35 608.4 503.35 600.7 520.7 599.9 520.75 599.9 520.8 599.9 530.95 599.4 540.2 601.25 437.9 384.8 436.2 310.7 489.65 457.55 563.75 609.95 567.2 617.05 570.4 623.55 583.45 618.85 597.5 608.85 600.1 606.9 606.1 601.6 608.4 599.5 611.3 596.85
L 605.4 600.5
Q 592 579.05 577.65 551.75 575.45 547.5 573.15 543.2 558.3 514.15 542.6 479.05
L 514.35 409.5
Q 484.65 345.35 459.45 280.55
L 453.9 263.2
Q 440.408203125 252.9701171875 439.4 252.25 429.3 244.9 427.25 244.9
M 302.1 232.1
Q 301.959375 232.073046875 301.8 232 299.325390625 231.126953125 296.4 230.35 296.3775390625 230.40078125 296.35 230.45 284.2755859375 257.7 271.2 284.5 264 299.15 256.75 313.8
L 214 408.45
Q 196.9 442.9 180.95 471.3 178.5 475.55 176.15 479.75 154.8 516.8 135.65 542.7 116.7 570.8 100.45 588.15 106.9 593.2 114.65 598.45 121.55 603.1 129.4 607.95 160.25 556.05 224.65 433.8
L 273.7 330.6
Q 207.95 502.1 152.8 591.05
L 153.25 591.3
Q 154.15 590.85 155.65 590.75 159.5 590.45 172 598.15 172.1 598.25 172.3 598.35 186.45 606.9 202.25 614.1 212.85 618.9 223.7 622.55 240.65 628.3 259 631 263.7 631.65 268.45 632.15 268.9 632.15 269.4 632.25 273.6 632.65 277.9 633 278.7 626.75 279.55 620.1 297.6 480.5 297.6 444.15 297.6 403.95 307.45 362.85 314.75 332.35 316.9 322.25 320.45 305.35 320.45 294.15 320.45 281.55 319.15 268.25 318.35 260.05 316.2 244.75 315.0755859375 236.8373046875 302.1 232.1 Z"/>

<path fill="#B32624" stroke="none" d="
M 403.3 165.1
L 383.25 160.25
Q 374.25 160 365.1 160.05 323.25 167.65 306.3 207.55 301.45 219 296.4 230.35 299.325390625 231.126953125 301.8 232 301.959375 232.073046875 302.1 232.1 315.0755859375 236.8373046875 316.2 244.75 318.35 260.05 319.15 268.25 320.45 281.55 320.45 294.15 320.45 305.35 316.9 322.25 314.75 332.35 307.45 362.85 297.6 403.95 297.6 444.15 297.6 480.5 279.55 620.1 278.7 626.75 277.9 633 286.25 633.65 294.75 633.95 311.4 634.4 328.2 634.1 331.2 633.95 334.25 633.75 367.4 632.95 392.15 630.45 391.6 599.45 390.65 546.55 401.55 457.95 401.9 447.3 402.4 429.55 405.95 424.75 411.35 417.55 416.35 407.35 419.15 364.95 421.35 334.6 423.55 304.25 424.8 272.5 425.5001953125 254.6697265625 426.25 244.95 426.7291015625 244.9 427.25 244.9 429.3 244.9 439.4 252.25 440.408203125 252.9701171875 453.9 263.2
L 441.05 223.05
Q 440.75 222.15 440.5 221.25
L 440.45 221.2
Q 439.9435546875 219.58125 439.4 218 434 201.8 427.6 186 420.7 176.75 415.55 172 410.35 167.25 403.3 165.1
M 537.4 625.8
Q 540.7 628.05 549 627.65 549.8 627.65 550.65 627.6 560.2 627.2 570.4 623.55 567.2 617.05 563.75 609.95 489.65 457.55 436.2 310.7 437.9 384.8 540.2 601.25 544.75 604.55 537.4 618.7 535.1 623.1 537.4 625.8
M 546.85 476.95
Q 530 443.3 514.35 409.5
L 542.6 479.05
Q 558.3 514.15 573.15 543.2 575.45 547.5 577.65 551.75 592 579.05 605.4 600.5
L 611.3 596.85
Q 594.95 568.35 579.55 539.75 562.65 508.4 546.85 476.95
M 151.55 593.45
Q 151.55 593.25 151.65 593 151.8 592.35 152.25 591.95 152.55 591.5 152.8 591.05 207.95 502.1 273.7 330.6
L 224.65 433.8
Q 160.25 556.05 129.4 607.95 137.15 612.75 145.9 617.7 158.15 624.45 166.1 612.35 154.95 599.1 153.75 597.7 151.45 595.15 151.55 593.45
M 256.75 313.8
Q 245.4 336.6 233.9 359.3 221.95 382.8 209.45 406 203.9 416.1 198.3 426.2 189.1 442.75 179.7 459.25 177.4 463.55 175 467.8 172.65 472 170.2 476.2 151.25 508.95 129.4 538.15 112.15 561.2 93.05 582.1 96.5 585.1 100.45 588.15 116.7 570.8 135.65 542.7 154.8 516.8 176.15 479.75 178.5 475.55 180.95 471.3 196.9 442.9 214 408.45
L 256.75 313.8
M 392.75 673.5
Q 392.85 675.8 392.75 669.9 392.7 671.95 392.75 673.5 Z"/>

<path fill="#091420" stroke="none" d="
M 359.05 155.05
L 358.35 155 358.3 155 356.7 154.95
Q 345 157.35 336.5 160.9 327.95 164.45 318.15 171.1 308.3 177.75 302.2 186 296.05 194.25 291 203.55 285.9 212.8 281.5 221.35 280.578515625 223.4876953125 279.55 225.6
L 296.35 230.45
Q 296.3775390625 230.40078125 296.4 230.35 301.45 219 306.3 207.55 323.25 167.65 365.1 160.05 374.25 160 383.25 160.25 387.8 160.2 391.25 159.95 387.8 160.2 383.25 160.25
L 403.3 165.1
Q 410.35 167.25 415.55 172 420.7 176.75 427.6 186 434 201.8 439.4 218 439.9435546875 219.58125 440.45 221.2
L 440.5 221.25
Q 440.75 222.15 441.05 223.05
L 453.9 263.2
Q 454.4724609375 263.654296875 470.65 275.55 471.801953125 276.405078125 472.85 277.2 471.055859375 272.92890625 469.25 268.65 464.6 257.6 460.35 246.45 456.25 235.75 452.05 225.25 450.5171875 221.41796875 448.95 217.6 448.7720703125 217.2130859375 448.6 216.8 447.3 213.8 446.05 210.85 445.25 209.1 444.5 207.35 440.15 197.45 433.15 185.55 426.15 173.6 420.7 168.2 415.2 162.75 405.25 159.05 395.25 155.35 381.4 153.8 367.6 152.2 357.65 154.95
L 358.3 155 358.35 155 359.35 155.05 360.05 155.1 360.75 155.15 360.05 155.1 359.05 155.05 Z"/>

<path fill="#000000" stroke="none" d="
M 533.85 620.9
L 535.85 624.15
Q 536.4 625.1 537.4 625.8 535.1 623.1 537.4 618.7
L 533.85 620.9 Z"/>
</g>

<g id="Layer1_0_FILL">
<path fill="#000000" stroke="none" d="
M 337.5 40.3
Q 335.9 40.7 335.9 41.75 335.9 42.9 337.9 45.35 339.85 47.8 340.75 46.65 344.35 39.3 341.35 39.25 341.05 39.4 337.5 40.3
M 333.05 44.75
Q 331.75 44.7 329.9 48.75 329.5 51.3 339.65 48.9 340.75 48.4 339.65 47.95 337.45 47.2 335.9 46 334.3 44.8 333.05 44.75
M 404.3 105.3
Q 403.74921875 105.1087890625 403.25 104.9 400.4552734375 103.9734375 399.1 103.55 394.1 101.7 391.5 108.6 391.25 110.75 394.75 108.9 398.25 107.05 401.8 108.1 401.9072265625 108.1302734375 402 108.15 405.425390625 109.0697265625 407.85 108.1 410.3 107.1 410.7 104.2 410.4 104.6 410.05 105 408.85 106.45 404.3 105.3
M 393.15 45.65
Q 394.3 44.95 396.6 43.95 398.8 42.9 400.35 39.3 401.8 35.7 398.2 23.8 393.85 30.1 385.7 29.3 377.5 28.5 369.9 26.9 362.25 25.25 355 29.8 347.75 34.3 345.4 38.65 343.05 42.95 342.85 47.85 342.65 48.2 342.4 48.55 342.3 48.6 342.25 48.7 341.3 49.9 339.85 50.45 336.75 51.8 333.7 54.5 330.65 57.15 329.15 63.7 327.65 70.25 337.05 86.85 337.05 84.65 338.2 82.9 339.75 80.6 342.55 80.8 348.85 81.45 350.75 90 351.1 90 351.75 90 353.45 90 354.35 89.5 355.1 89.1 355.1 88.5 355.1 87.3 354.25 84.8 354.2 84.7 354.2 84.65 354.05 84.25 353.9 83.85 352.5 80.15 351.6 76.15 351.1 74 351 71.95 351 71.8 351 71.7 350.9 70.1 351.1 68.55 351.35 65.8 351.55 64.1 351.6 63.5 351.65 63.1 351.85 61.2 352.3 59.75 352.7 58.2 355.7 58.05 358.7 57.9 361.1 57.2 362.3 56.85 363.8 56.05 365.3 55.25 367.05 54.05 370 52.05 376.4 50.3
L 376.45 50.3
Q 377.65 49.95 379.05 49.65 387.5 47.6 392.5 45.8 392.85 45.7 393.15 45.65 Z"/>

<path fill="#101D2A" stroke="none" d="
M 398.45 414.5
L 399.95 402.65
Q 398.9 402.6 398.15 402.45
L 398.45 414.5 Z"/>

<path fill="url(#Gradient_1)" stroke="none" d="
M 88.25 163.35
L 82.05 165.65 89.5 185.95
Q 89.95 187.2 91.2 187.8 92.4 188.4 93.7 187.9 94.95 187.45 95.55 186.2 96.1 185 95.65 183.7
L 88.25 163.35 Z"/>

<path fill="#FCBB90" stroke="none" d="
M 120.6 136.15
L 115.5 134.15
Q 114.6 142.6 108.4 151.9
L 111.2 153 119.2 138.9
Q 119.9134765625 137.375 120.6 136.15
M 393.15 45.65
Q 392.85 45.7 392.5 45.8 387.5 47.6 379.05 49.65 377.65 49.95 376.45 50.3
L 376.4 50.3
Q 370 52.05 367.05 54.05 365.3 55.25 363.8 56.05 362.3 56.85 361.1 57.2 358.7 57.9 355.7 58.05 352.7 58.2 352.3 59.75 351.85 61.2 351.65 63.1 351.6 63.5 351.55 64.1 351.35 65.8 351.1 68.55 350.9 70.1 351 71.7 351 71.8 351 71.95 351.1 74 351.6 76.15 352.5 80.15 353.9 83.85 354.05 84.25 354.2 84.65 354.2 84.7 354.25 84.8 355.1 87.3 355.1 88.5 355.1 89.1 354.35 89.5 353.45 90 351.75 90 351.1 90 350.75 90 348.85 81.45 342.55 80.8 339.75 80.6 338.2 82.9 337.05 84.65 337.05 86.85 336.1 95.95 339.65 101.7 343.2 107.4 346.4 110
L 346.5 110
Q 346.7 110.7 346.9 111.4 352.65 129.7 355.3 146.95 355.3 147.05 355.35 147.15 356.15 152.65 356.7 158.05
L 356.7 162.1 359.5 162.1 375.65 174.2 378.05 169.2 380.1 162.3
Q 380.15 162.05 380.2 161.8 380.8 158.35 380.1 156.85 379.45 153.9 379.1 151.35 378.7 148.95 378.65 146.95 378.6 145.5 378.7 144.25 381.15 145.9 382.9 146.95 385.5 148.55 386.5 148.9 388.95 149.65 389.95 149.5 390.45 149.4 390.95 149.35 391.85 149.1 392.55 148.8 393.5 148.25 394.4 147.4 394.65 147.15 394.95 146.95 395.7 146.45 396.75 146.4 398.2 146.25 400 144.75 401.65 143.45 401.65 141.05 401.65 140.45 401.6 139.9 401.45 138.25 400.85 137 400 135.35 399.4 133.8 398.8 132.2 398.65 129.9 398.5 127.6 399.25 120.75 399.9328125 114.1734375 402 108.15 401.9072265625 108.1302734375 401.8 108.1 398.25 107.05 394.75 108.9 391.25 110.75 391.5 108.6 394.1 101.7 399.1 103.55 400.4552734375 103.9734375 403.25 104.9 403.537890625 104.2384765625 403.85 103.55 407.45 95.5 405.6 90.65 403.7 85.8 402.6 82.5 401.5 79.2 400.65 76.75 399.75 74.25 400.6 71.35 401.45 68.45 400.1 64.6 399.6 63.1 398.7 60.85 397.5 57.9 396.15 52.8 395.8 51.65 395.5 50.65 395.45 50.5 395.4 50.35 394.35 47.1 393.15 45.65
M 362.25 77.8
Q 362.6 77.35 363.05 76.95 364.85 75.7 367.4 75.3 369.9 74.85 372.2 75.65 374.65 76.35 376 77.85 377.2 79.3 377.9 79.95 378.55 80.6 376.65 80.75 374.75 80.8 372.45 81.25 370.8 81.5 368.6 82.1 368.5 82.1 368.45 82.15 366.25 82.7 364.6 83.05 362.25 83.65 360.2 84.1 358.15 84.5 359.2 82.35 360.2 80.2 362.25 77.8
M 388.3 73.3
Q 389.6 72.1 391.35 71.85 393.05 71.55 394.6 71.65 395 71.8 395.4 72 397.35 73.15 398.25 74.45 399 75.65 397.6 76.05 396.8 76.2 395.2 76.45 394.25 76.65 393.1 76.8
L 392.6 76.9
Q 392.5 76.9 392.4 76.9 392.4 76.85 392.35 76.9 390.7 77.15 389.6 77.4 387.9 77.75 386.65 78.2 385.35 78.65 385.65 78.1 385.95 77.55 386.4 76.3 386.8 75.05 388.3 73.3
M 394.7 115.95
Q 394.6 116.45 394.55 116.95 394.1 120.6 394.45 123.8 394.65 126.35 395.4 128.55 396.4 130.9 395.15 131.9 387.9 135.5 384.6 132.7 384.1 132.25 383.7 131.6 382.45 129.55 380.9 126.45 379.75 124 378.4 121 377.8 119.55 377.15 118 376.65 116.8 376.15 115.55 387.35 118.15 395.35 112.55 394.95 114.3 394.7 115.95 Z"/>

<path fill="url(#Gradient_2)" stroke="none" d="
M 80.95 143.3
Q 80.85 143.5 80.75 143.7 80.5 144.1 80.15 144.5 80.1 144.55 80.1 144.6 79.7 145 79.3 145.4 78.1 146.45 76.4 147.4 76 147.65 75.55 147.85
L 76.6 150.7 82.05 165.65 88.25 163.35 83.9 151.45 80.95 143.3
M 47.85 52.8
L 41.7 55 61.2 108.5 64.8 118.4
Q 65.45 118.55 66.1 118.75 67.05 119.05 69.6 119.25 69.75 119.25 69.9 119.3 71.3 119.45 72.25 119.5
L 68.5 109.25 47.85 52.8 Z"/>

<path fill="#FFFFFF" stroke="none" d="
M 64.8 118.4
L 61.2 108.5
Q 58.6 108.15 55.7 107.7 48.95 106.65 40.4 104.95 38.45 105.7 38.85 107.6 38.95 108.15 39.25 108.8 43.05 114.45 46.75 114.95 50.4 115.3 50.85 115.7 51.3 116.05 58.4 118.9 58.3 119.1 58.4 119.4
L 58.4 119.45 58.35 119.5
Q 58.4 119.55 58.4 119.65 58.45 119.75 58.45 119.95 58.25 120 58 120 56.7 121.05 56.5 123.15 56.45 123.55 56.45 124.05 56.45 126.8 57.3 128.8 57.85 129.9 59.35 130.55 59.85 130.8 60.6 130.9 60 131.4 60.05 132.65 60.1 134.25 61.25 137.1 61.25 137.15 61.3 137.2 62.45 139.65 63.8 140.35 64.65 140.75 65.85 140.85 65 142.4 65.55 143.3 65.55 143.4 65.6 143.45 65.65 143.6 65.7 143.7 66.15 144.6 66.65 146.3 67.35 148.3 69.15 148.65 70.95 149 71.3 149 74.4 150.1 76.6 150.7
L 75.55 147.85
Q 76 147.65 76.4 147.4 78.1 146.45 79.3 145.4 79.7 145 80.1 144.6 80.1 144.55 80.15 144.5 80.5 144.1 80.75 143.7 80.85 143.5 80.95 143.3
L 83.9 151.45
Q 84.75 151.4 85.65 151.35 88.5 151.15 90.1 151.1 91.7 151.05 95.65 152.35 96.55 152.65 97.3 152.9 99.85 153.8 100.85 154.2 102.15 154.75 106.2 154.9 107.4 153.4 108.4 151.9 114.6 142.6 115.5 134.15 115.75 131.3 115.45 128.6 110.15 128.05 108.6 127.1 107 126.25 105.3 125.5 103.6 124.7 102.2 123.55 92.15 115.45 87.75 113.5 83.35 111.55 80.1 110.75 77 110 68.5 109.25
L 72.25 119.5
Q 71.3 119.45 69.9 119.3 69.75 119.25 69.6 119.25 67.05 119.05 66.1 118.75 65.45 118.55 64.8 118.4
M 339.95 215.85
Q 337.15 215.85 334.4 215.85 334.15 215.85 333.9 215.85
L 330.6 215.85 331.55 218.4 335.2 228.6 344.4 227.7 339.95 215.85
M 359.5 162.1
L 356.7 162.1 355.3 164.75 355.5 165.85 358.3 184.2
Q 360 190.1 361.55 200.8 363.1 211.45 364.55 226.9
L 364.55 247.4 360.8 327.4 364.8 327.7 364.8 327.8
Q 364.8 327.85 364.8 327.95
L 393.05 331.85 393.05 331
Q 393.55 326.9 394 322.8 396.5 300.4 398.1 277.75 399.8 253.95 400.5 229.95 400.5 229.75 400.5 229.6 401.1 222.75 400.5 215.35 400.45 215.15 400.45 214.95 399.8 207.6 398 199.7
L 390.95 175.6 394.95 178.45 390.9 168.35
Q 390.15 166.85 389.2 165.7 387.2 163.3 384.15 162.3
L 380.1 162.3 378.05 169.2 375.65 174.2 359.5 162.1
M 391.35 71.85
Q 389.6 72.1 388.3 73.3 386.8 75.05 386.4 76.3 385.95 77.55 385.65 78.1 385.35 78.65 386.65 78.2 387.9 77.75 389.6 77.4 390.7 77.15 392.35 76.9 392.4 76.85 392.4 76.9 392.5 76.9 392.6 76.9
L 393.1 76.8
Q 394.25 76.65 395.2 76.45 396.8 76.2 397.6 76.05 399 75.65 398.25 74.45 397.35 73.15 395.4 72 395 71.8 394.6 71.65 393.05 71.55 391.35 71.85
M 363.05 76.95
Q 362.6 77.35 362.25 77.8 360.2 80.2 359.2 82.35 358.15 84.5 360.2 84.1 362.25 83.65 364.6 83.05 366.25 82.7 368.45 82.15 368.5 82.1 368.6 82.1 370.8 81.5 372.45 81.25 374.75 80.8 376.65 80.75 378.55 80.6 377.9 79.95 377.2 79.3 376 77.85 374.65 76.35 372.2 75.65 369.9 74.85 367.4 75.3 364.85 75.7 363.05 76.95 Z"/>

<path fill="url(#Gradient_3)" stroke="none" d="
M 39.15 31.8
Q 37.95 31.2 36.65 31.65 35.4 32.15 34.8 33.35 34.2 34.6 34.7 35.85
L 41.7 55 47.85 52.8 40.85 33.6
Q 40.4 32.3 39.15 31.8 Z"/>

<path fill="#14202D" stroke="none" d="
M 491.25 274.9
L 491.35 274.95 492.1 272.45 491.25 274.9 Z"/>

<path fill="#2D435C" stroke="none" d="
M 611.5 286.25
Q 611.5 286.1 611.5 286
L 610.4 285.9
Q 610.95 286.1 611.5 286.25
M 401.55 169.1
L 399.85 167.25
Q 399.7 167.8 401.55 169.1
M 497.25 252.55
Q 497.4 253.65 497.4 253.2 497.45 252.8 497.3 252.45
L 497.25 252.55 Z"/>

<path fill="#B8C1CE" stroke="none" d="
M 364.8 327.8
L 364.8 327.7 360.8 327.4 364.8 327.95
Q 364.8 327.85 364.8 327.8 Z"/>

<path fill="#A0131F" stroke="none" d="
M 393.05 331.85
L 364.8 327.95 360.8 327.4
Q 360.85 328 361.25 332.45 361.6 336.85 361.45 342.1 361.3 347.35 356.5 354.85
L 344.05 374.45 392.45 374.45 391.15 350.15
Q 391.15 349.65 391.15 349.15 391.25 346.4 391.55 343.25 392 338.1 393.05 331.85 Z"/>

<path fill="#535F81" stroke="none" d="
M 397.1 164.6
Q 396.35 164 395.5 163.35 394.1 162.25 392.55 161 389.95 158.9 387.35 157.85 384.05 156.5 380.65 156.8 380.35 156.8 380.1 156.85 380.8 158.35 380.2 161.8 380.15 162.05 380.1 162.3
L 384.15 162.3
Q 387.2 163.3 389.2 165.7 394.45 167 400.85 168.95 401.25 169.05 401.65 169.2
L 401.55 169.1
Q 399.7 167.8 399.85 167.25
L 398.85 166.2 398 165.25
Q 397.85 165.15 397.7 165.05 397.4 164.85 397.1 164.6
M 356.7 162.1
L 356.7 158.05
Q 353.15 157.75 349.25 160.3 348.85 160.5 348.55 160.75 346.05 162.5 342.95 164.85 340.6 166.55 337.95 168.6
L 331.9 176.3 341.75 170
Q 344.85 168.75 349.45 167.45 349.7 167.35 354.1 166.2 354.8 166 355.5 165.85
L 355.3 164.75 356.7 162.1 Z"/>

<path fill="#3F4861" stroke="none" d="
M 389.2 165.7
Q 390.15 166.85 390.9 168.35
L 394.95 178.45 390.95 175.6 398 199.7
Q 399.8 207.6 400.45 214.95 400.45 215.15 400.5 215.35 401.1 222.75 400.5 229.6 400.5 229.75 400.5 229.95 399.8 253.95 398.1 277.75 396.5 300.4 394 322.8 397.75 300.75 402.35 278.65 411 236.85 422.55 195
L 403.15 182.55 408.55 176.6 401.65 169.2
Q 401.25 169.05 400.85 168.95 394.45 167 389.2 165.7
M 355.5 165.85
Q 354.8 166 354.1 166.2 349.7 167.35 349.45 167.45 344.85 168.75 341.75 170
L 331.9 176.3 348 185.75 333.4 198.05
Q 340.25 205.9 345.1 214.15 349.4 221.5 352.1 229.2 354.2 235.75 355.25 253.6
L 360.75 328.55 360.8 327.4 364.55 247.4 364.55 226.9
Q 363.1 211.45 361.55 200.8 360 190.1 358.3 184.2
L 355.5 165.85 Z"/>

<path fill="#1E2B39" stroke="none" d="
M 331.9 176.3
L 337.95 168.6 324.3 175.2
Q 322.85 175.95 320.55 177.95 318.2 179.9 314.95 183.05 305.85 185.95 303.85 187.5
L 239.15 182.6 124.3 132.25
Q 122.4634765625 133.1142578125 120.6 136.15 119.9134765625 137.375 119.2 138.9
L 111.2 153 107 160.45 228.6 207.6 295.5 214.25 295.45 214.35
Q 299.95 214.65 303.55 215.05 312.55 216 315.9 217.7
L 327.3 269.95
Q 327.85 273.8 328.2 277 328.85 282.65 328.85 286.35 328.85 292.1 327.6 300.5
L 313.15 380.55 307.7 403.5 314.1 403.5 306.15 555.4 286.7 647.5 319.15 647.5 327.95 554.05 352 418.2 352 418.15 353.5 419.25 355 420.3 350.7 565.85 341.7 647.5 376.15 647.5 376.15 560.4 398.45 414.5 398.15 402.45
Q 398.9 402.6 399.95 402.65 404.5 402.8 406.3 403.05 408.1 403.25 409.2 403.35 408.1 391.75 407.3 381.9 406.45 372 406.75 361.9 407 351.8 407.3 341.8 407.6 331.75 407.6 329.65 408.55 319 410.05 307 410.8 300.6 411.75 293.8 415 270 420.1 241.45 420.25 240.6 420.4 239.75 421 236.35 421.65 232.95 422 231.05 422.35 229.15 422.7 227.3 423.05 225.45
L 476.3 268.4
Q 477.5 269.7 480.15 271 480.2 271.05 480.35 271.1 480.4 271.15 480.45 271.1 483.75 272.75 489.25 274.4 490.15 274.65 491.25 274.9
L 492.1 272.45 491.35 274.95 602.6 309.95
Q 603.4 308.35 604.2 306.85 604.4 306.45 604.6 306.15 604.6 306 604.65 306 610.55 294.2 611.5 286.25 610.95 286.1 610.4 285.9
L 611.5 286
Q 611.55 286.05 611.5 285.9 611.7 283.75 611.6 282.05 611.6 281.9 611.6 281.75 611.45 280.6 611.25 279.75 611.2 279.6 611.15 279.4 611.1 279.05 611.05 278.75
L 490.75 243.5 441 201.95 435.75 193.7 427.15 181.7 412.45 169.3
Q 410.9 168.9 409.55 168.55 405.85 167.55 403.2 166.95 400.4 166.35 398.85 166.2
L 399.85 167.25 401.55 169.1 401.65 169.2 408.55 176.6 403.15 182.55 422.55 195
Q 411 236.85 402.35 278.65 397.75 300.75 394 322.8 393.55 326.9 393.05 331
L 393.05 331.85
Q 392 338.1 391.55 343.25 391.25 346.4 391.15 349.15 391.15 349.65 391.15 350.15
L 392.45 374.45 344.05 374.45 356.5 354.85
Q 361.3 347.35 361.45 342.1 361.6 336.85 361.25 332.45 360.85 328 360.8 327.4
L 360.75 328.55 355.25 253.6
Q 354.2 235.75 352.1 229.2 349.4 221.5 345.1 214.15 340.25 205.9 333.4 198.05
L 348 185.75 331.9 176.3
M 334.4 215.85
Q 337.15 215.85 339.95 215.85
L 344.4 227.7 335.2 228.6 330.7 229.05 327.3 218.4 331.55 218.4 330.6 215.85 333.9 215.85
Q 334.15 215.85 334.4 215.85
M 497.4 253.2
Q 497.4 253.65 497.25 252.55
L 497.3 252.45
Q 497.45 252.8 497.4 253.2 Z"/>

<path fill="#CCCCCC" stroke="none" d="
M 331.55 218.4
L 327.3 218.4 330.7 229.05 335.2 228.6 331.55 218.4 Z"/>

<path fill="#333333" stroke="none" d="
M 394.55 116.95
Q 394.6 116.45 394.7 115.95 394.95 114.3 395.35 112.55 387.35 118.15 376.15 115.55 376.65 116.8 377.15 118 377.8 119.55 378.4 121 379.75 124 380.9 126.45 382.45 129.55 383.7 131.6 384.1 132.25 384.6 132.7 387.9 135.5 395.15 131.9 396.4 130.9 395.4 128.55 394.65 126.35 394.45 123.8 394.1 120.6 394.55 116.95 Z"/>
</g>

<g id="Layer0_0_FILL">
<path fill="url(#Gradient_1)" stroke="none" d="
M 88.25 163.35
L 82.05 165.65 89.5 185.95
Q 89.95 187.2 91.2 187.8 92.4 188.4 93.7 187.9 94.95 187.45 95.55 186.2 96.1 185 95.65 183.7
L 88.25 163.35 Z"/>

<path fill="#FCBB90" stroke="none" d="
M 108.4 151.9
L 116 154.85
Q 123.65 148.6 123.95 137.5
L 115.5 134.15
Q 114.6 142.6 108.4 151.9 Z"/>

<path fill="#FFFFFF" stroke="none" d="
M 71.3 149
Q 74.4 150.1 76.6 150.7
L 75.55 147.85
Q 73.55 148.8 71.3 149
M 65.6 143.45
Q 65.65 143.6 65.7 143.7 66.15 144.6 66.65 146.3 67.35 148.3 69.15 148.65 70.95 149 71.3 149 73.55 148.8 75.55 147.85 76 147.65 76.4 147.4 78.1 146.45 79.3 145.4 79.7 145 80.1 144.6 80.1 144.55 80.15 144.5 80.5 144.1 80.75 143.7 80.85 143.5 80.95 143.3 81.1 142.9 81.2 142.5 79.95 142.6 79.8 142.2
L 77.7 141.5
Q 74.45 140.7 73.95 140.7 73.2 140.7 72.2 141.4 70.95 142.3 65.6 143.45
M 75.35 133.55
Q 74.6 133.4 72.55 133.2 70.45 133 69.35 133.4 68.2 133.85 65.5 133.9 62.8 133.9 61.6 133.65 60.35 133.35 60.05 132.65 60.1 134.25 61.25 137.1 61.25 137.15 61.3 137.2 62.45 139.65 63.8 140.35 64.65 140.75 65.85 140.85 67.1 140.9 68.75 140.55 69.3 140.4 69.95 140.25
L 75.4 137.85
Q 75.85 137.5 76.25 137.2
L 77.5 136.05
Q 77.8 135.65 78 135.3
L 78 135.35
Q 78.3 134.85 78.5 134.3 77.05 134.4 76.55 134.05 76.05 133.65 75.35 133.55
M 56.45 124.05
Q 56.45 126.8 57.3 128.8 57.85 129.9 59.35 130.55 59.85 130.8 60.6 130.9 60.8 130.95 61.1 131 62.75 131.3 64.5 131.15 65.25 131.1 66.05 130.95 67.5 130.7 69.15 130.25
L 68.95 129.75
Q 66.6 128.9 64.95 128.15 64.35 128.15 64.1 128.15 64.05 128.15 64 128.15 63.5 128.1 61.1 126.6 59.05 125.65 58.3 125.15 57.55 124.6 56.5 123.15 56.45 123.55 56.45 124.05
M 63.5 114.8
L 61.2 108.5
Q 58.6 108.15 55.7 107.7 48.95 106.65 40.4 104.95 38.45 105.7 38.85 107.6 39.55 107.4 42.25 110.05 44.95 112.7 50.4 113.1 55.8 113.5 58.9 114 61.95 114.5 63.5 114.8
M 64.8 118.4
Q 63.5 118 62.05 117.55 61.85 117.5 61.6 117.5 60.45 117.3 59.35 117.8 58.55 118.15 58.4 118.9 58.3 119.1 58.4 119.4
L 58.4 119.45 58.35 119.5
Q 58.4 119.55 58.4 119.65 58.45 119.75 58.45 119.95 58.7 120.75 59.5 122.55 60.8 125.45 62.05 126.45 62.75 127.05 64.05 127.7 64.45 127.9 64.95 128.15 66.6 128.9 68.95 129.75 69.2 129.8 69.45 129.9 69.65 129.9 69.95 129.95 70.8 130.25 72.15 130.6 73.5 130.95 74.45 131.25 74.7 131.3 74.9 131.4 75.25 131.5 76 131.6 76.95 131.7 78.5 131.75 78.65 131.75 78.8 131.8 79.2 131.9 80.65 131.6 81.9 131.25 82.2 131.45 83.25 132.1 84.25 133.4 84.9 134.25 85.55 135.3 86 136.1 86.65 137.2 87.4 138.45 88.4 140.15 88.45 140.25 88.55 140.35 90.05 142.45 92.15 143.7 93 144.15 93.9 144.5 95.1 144.9 96.5 145.1 98.5 145.35 100.9 145 98.5 145.35 96.5 145.1 95.1 144.9 93.9 144.5 93.85 144.5 93.8 144.5 92.75 144.6 90.15 144.15 87.35 143.6 86.8 143.6 85.15 143.6 82.95 144.85 82.35 145.2 81.8 145.65
L 83.9 151.45
Q 84.75 151.4 85.65 151.35 88.5 151.15 90.1 151.1 91.7 151.05 95.65 152.35 96.55 152.65 97.3 152.9 99.85 153.8 100.85 154.2 102.15 154.75 106.2 154.9 107.4 153.4 108.4 151.9 114.6 142.6 115.5 134.15 115.75 131.3 115.45 128.6 110.15 128.05 108.6 127.1 107 126.25 105.3 125.5 103.6 124.7 102.2 123.55 92.15 115.45 87.75 113.5 83.35 111.55 80.1 110.75 77 110 68.5 109.25
L 70.6 114.95
Q 74.1 114.9 78.7 116.6
L 78.75 116.6
Q 80.5 117.3 82 117.75 82.2 117.8 82.45 117.85 83.25 118.05 83.85 118.25 84.65 118.5 85.1 118.65 85.85 118.95 86.55 120.25 86.95 121 87.25 121.45 86.65 121.4 86.1 121.3 84.65 120.95 83.7 120.05 79.4 119.2 78 119.1 77.9 119.05 77.8 119.05 73.8 119.4 72.95 119.5 72.65 119.5 72.25 119.5 71.3 119.45 69.9 119.3 69.75 119.25 69.6 119.25 67.05 119.05 66.1 118.75 65.45 118.55 64.8 118.4 Z"/>

<path fill="url(#Gradient_2)" stroke="none" d="
M 80.75 143.7
Q 80.5 144.1 80.15 144.5 80.1 144.55 80.1 144.6 79.7 145 79.3 145.4 78.1 146.45 76.4 147.4 76 147.65 75.55 147.85
L 76.6 150.7 82.05 165.65 88.25 163.35 83.9 151.45 81.8 145.65 80.95 143.3
Q 80.85 143.5 80.75 143.7
M 69.45 129.9
Q 69.2 129.8 68.95 129.75
L 69.15 130.25
Q 69.45 130.1 69.85 130 69.9 129.95 69.95 129.95 69.65 129.9 69.45 129.9
M 78 135.35
L 78 135.3
Q 77.8 135.65 77.5 136.05
L 76.25 137.2
Q 75.85 137.5 75.4 137.85
L 76 137.9
Q 76.25 137.95 76.6 138 76.8 138 77.05 138
L 78.5 138.1
Q 78.65 138.1 78.8 138.1
L 78.85 138.1
Q 78.95 138.15 79.05 138.2
L 78 135.35
M 47.85 52.8
L 41.7 55 61.2 108.5 63.5 114.8 64.8 118.4
Q 65.45 118.55 66.1 118.75 67.05 119.05 69.6 119.25 69.75 119.25 69.9 119.3 71.3 119.45 72.25 119.5
L 70.6 114.95 68.5 109.25 47.85 52.8 Z"/>

<path fill="#CCCCCC" stroke="none" d="
M 69.95 140.25
Q 69.3 140.4 68.75 140.55 67.1 140.9 65.85 140.85 65 142.4 65.55 143.3 65.55 143.4 65.6 143.45 70.95 142.3 72.2 141.4 73.2 140.7 73.95 140.7 74.45 140.7 77.7 141.5
L 79.8 142.2
Q 79.95 142.6 81.2 142.5 81.3 141.7 81.2 140.85 80.8 138.85 79.05 138.2 78.95 138.15 78.85 138.1
L 78.8 138.1
Q 78.65 138.1 78.5 138.1
L 77.05 138
Q 76.8 138 76.6 138 76.25 137.95 76 137.9
L 75.4 137.85 69.95 140.25
M 78.8 131.8
L 78.5 131.85
Q 78.9 133.1 78.5 134.3 78.3 134.85 78 135.35
L 79.05 138.2
Q 80.8 138.85 81.2 140.85 81.3 141.7 81.2 142.5 81.1 142.9 80.95 143.3
L 81.8 145.65
Q 82.35 145.2 82.95 144.85 85.15 143.6 86.8 143.6 87.35 143.6 90.15 144.15 92.75 144.6 93.8 144.5 93.85 144.5 93.9 144.5 93 144.15 92.15 143.7 90.05 142.45 88.55 140.35 88.45 140.25 88.4 140.15 87.4 138.45 86.65 137.2 86 136.1 85.55 135.3 84.9 134.25 84.25 133.4 83.25 132.1 82.2 131.45 81.9 131.25 80.65 131.6 79.2 131.9 78.8 131.8
M 60.6 130.9
Q 60 131.4 60.05 132.65 60.35 133.35 61.6 133.65 62.8 133.9 65.5 133.9 68.2 133.85 69.35 133.4 70.45 133 72.55 133.2 74.6 133.4 75.35 133.55 76.05 133.65 76.55 134.05 77.05 134.4 78.5 134.3 78.9 133.1 78.5 131.85 78.5 131.8 78.5 131.75 76.95 131.7 76 131.6 75.25 131.5 74.9 131.4 74.7 131.3 74.45 131.25 73.5 130.95 72.15 130.6 70.8 130.25 69.95 129.95 69.9 129.95 69.85 130 69.45 130.1 69.15 130.25 67.5 130.7 66.05 130.95 65.25 131.1 64.5 131.15 62.75 131.3 61.1 131 60.8 130.95 60.6 130.9
M 58.45 119.95
Q 58.25 120 58 120 56.7 121.05 56.5 123.15 57.55 124.6 58.3 125.15 59.05 125.65 61.1 126.6 63.5 128.1 64 128.15 64.05 128.15 64.1 128.15 64.35 128.15 64.95 128.15 64.45 127.9 64.05 127.7 62.75 127.05 62.05 126.45 60.8 125.45 59.5 122.55 58.7 120.75 58.45 119.95
M 72.95 119.5
Q 73.8 119.4 77.8 119.05 77.9 119.05 78 119.1 79.4 119.2 83.7 120.05 84.5 120.2 85.45 120.45 85.75 120.5 86.1 120.55 85.75 120.5 85.45 120.45 84.5 120.2 83.7 120.05 84.65 120.95 86.1 121.3 86.65 121.4 87.25 121.45 86.95 121 86.55 120.25 85.85 118.95 85.1 118.65 84.65 118.5 83.85 118.25 83.25 118.05 82.45 117.85 82.2 117.8 82 117.75 80.5 117.3 78.75 116.6
L 78.7 116.6
Q 74.1 114.9 70.6 114.95
L 72.25 119.5
Q 72.65 119.5 72.95 119.5
M 62.05 117.55
Q 63.5 118 64.8 118.4
L 63.5 114.8
Q 61.95 114.5 58.9 114 55.8 113.5 50.4 113.1 44.95 112.7 42.25 110.05 39.55 107.4 38.85 107.6 38.95 108.15 39.25 108.8 43.05 114.45 46.75 114.95 50.4 115.3 50.85 115.7 51.3 116.05 58.4 118.9 58.55 118.15 59.35 117.8 60.45 117.3 61.6 117.5 61.85 117.5 62.05 117.55 Z"/>

<path fill="url(#Gradient_3)" stroke="none" d="
M 34.8 33.35
Q 34.2 34.6 34.7 35.85
L 41.7 55 47.85 52.8 40.85 33.6
Q 40.4 32.3 39.15 31.8 37.95 31.2 36.65 31.65 35.4 32.15 34.8 33.35 Z"/>
</g>

<g id="Layer0_1_FILL">
<path fill="#14202D" stroke="none" d="
M 491.25 274.9
L 491.35 274.95 492.1 272.45 491.25 274.9 Z"/>

<path fill="#0C1621" stroke="none" d="
M 430.4 216.3
Q 430.35 216.2 429.85 212.8 429.45 210.55 428.8 209.15
L 427.75 209.15
Q 423.25 212.9 421.45 221.7 420.35 227.1 417.95 238.4 416.3 246.05 414.85 255.8 413.4 265.55 412.9 270.75 412.4 275.95 411.75 293.8 415 270 420.1 241.45 420.25 240.6 420.4 239.75 421 236.35 421.65 232.95 422 231.05 422.35 229.15 422.7 227.3 423.05 225.45
L 423.5 225.8 427.55 213.15 423.5 225.8 476.3 268.4
Q 477.5 269.7 480.15 271 480.2 271.05 480.35 271.1 480.4 271.15 480.45 271.1 483.75 272.75 489.25 274.4 490.15 274.65 491.25 274.9
L 492.1 272.45 491.35 274.95 602.6 309.95
Q 603.4 308.35 604.2 306.85 604.4 306.45 604.6 306.15 604.6 306 604.65 306 601.2 303.85 492.3 271.6 488.1 270.35 483.85 269.15 482.75 268.7 485.95 269.7
L 478.85 265.75
Q 459.5 247.05 445.7 235.75 439.8 230.95 434.85 227.55
L 432.4 225.85
Q 429.75 223.65 430.1 220.05 430.45 216.45 430.4 216.3
M 109.6 155.85
L 107 160.45 228.6 207.6 294.6 214.15 295.5 214.25 295.45 214.35
Q 299.95 214.65 303.55 215.05 312.55 216 315.9 217.7
L 314.9 213.1 315.9 217.7 326.75 267.4 317.8 209.95
Q 317.75 209.9 317.75 209.85 314.3 205.75 310.2 210.85
L 227.25 201.65 109.6 155.85 Z"/>

<path fill="#101D2A" stroke="none" d="
M 399.95 402.65
Q 398.9 402.6 398.15 402.45
L 398.45 414.5 399.95 402.65
M 313.8 647.5
L 319.15 647.5 327.95 554.05 352 418.2 352 418.15 353.5 419.25 355 420.3 350.7 565.85 341.7 647.5 349.75 647.5 356.35 554.9 363.8 419.4 373.2 409.25 345.2 413.45 348.65 415.85
Q 341.45 429.85 322.4 555.4
L 313.8 647.5
M 352 374.45
L 344.05 374.45 328.8 396.6
Q 324.85 403.05 320.5 403.5
L 314.1 403.5 313.35 418.2 332.1 409.2
Q 334.35 408 337.4 402.7
L 352 374.45 Z"/>

<path fill="#2D435C" stroke="none" d="
M 497.4 253.2
Q 497.45 252.8 497.3 252.45
L 497.25 252.55
Q 497.4 253.65 497.4 253.2
M 611.5 286
L 610.4 285.9
Q 610.95 286.1 611.5 286.25 611.5 286.1 611.5 286
M 401.55 169.1
L 399.85 167.25
Q 399.7 167.8 401.55 169.1 Z"/>

<path fill="#1E2B39" stroke="none" d="
M 410.05 307
Q 410.5 349.2 411.2 315.05 411.4 302.7 411.75 293.8 410.8 300.6 410.05 307
M 392.45 374.45
L 352 374.45 337.4 402.7
Q 334.35 408 332.1 409.2
L 313.35 418.2 306.15 555.4 286.7 647.5 313.8 647.5 322.4 555.4
Q 341.45 429.85 348.65 415.85
L 345.2 413.45 373.2 409.25 363.8 419.4 356.35 554.9 349.75 647.5 376.15 647.5 376.15 560.4 398.45 414.5 398.15 402.45
Q 395.75 401.95 395.7 400.4
L 392.45 374.45
M 401.55 169.1
L 401.65 169.2 408.55 176.6 403.15 182.55 422.55 195
Q 411 236.85 402.35 278.65 397.75 300.75 394 322.8 393.55 326.9 393.05 331
L 393.05 331.85
Q 392 338.1 391.55 343.25 391.25 346.4 391.15 349.15 391.15 349.65 391.15 350.15
L 392.45 374.45 395.7 400.4
Q 395.75 401.95 398.15 402.45 398.9 402.6 399.95 402.65 404.5 402.8 406.3 403.05 408.1 403.25 409.2 403.35 408.1 391.75 407.3 381.9 406.45 372 406.75 361.9 407 351.8 407.3 341.8 407.6 331.75 407.6 329.65 408.55 319 410.05 307 410.8 300.6 411.75 293.8 412.4 275.95 412.9 270.75 413.4 265.55 414.85 255.8 416.3 246.05 417.95 238.4 420.35 227.1 421.45 221.7 423.25 212.9 427.75 209.15
L 428.8 209.15
Q 429.45 210.55 429.85 212.8 430.35 216.2 430.4 216.3 430.45 216.45 430.1 220.05 429.75 223.65 432.4 225.85
L 434.85 227.55
Q 439.8 230.95 445.7 235.75 459.5 247.05 478.85 265.75
L 485.95 269.7
Q 482.75 268.7 483.85 269.15 488.1 270.35 492.3 271.6 601.2 303.85 604.65 306 610.55 294.2 611.5 286.25 610.95 286.1 610.4 285.9 509.35 257.05 497.3 252.45 497.45 252.8 497.4 253.2 497.4 253.65 497.25 252.55 497.25 252.45 497.2 252.4 497.15 252.35 497.05 252.3 497.15 254.45 497.1 254.35 497.15 254.55 497.15 254.85 497.95 262.55 493.15 258.6
L 492.25 255.3
Q 492.95 253.25 487 247.5 484.75 245.4 481.65 242.85 480.1 241.45 478.2 239.95 470.55 233.95 463.7 227.95 456.85 222.05 450.65 216.15 446.1 211.8 443.15 209.1
L 442.8 208.7
Q 439.25 205.3 438.45 204.6 430.05 193.55 429.35 191.75
L 421.35 182.65
Q 421.1 182.45 420.9 182.3 420.5 181.95 420.1 181.6 415.1 177.6 411.8 174.75 409.45 172.7 407.15 171.95 404.85 171.2 402.25 169.55 401.85 169.3 401.55 169.1
M 496.9 250.4
Q 496.95 251.05 496.95 251.6 497.05 251.65 497.1 251.65 497 251.1 496.9 250.4
M 402.35 166.95
Q 402.8 166.95 403.2 166.95 400.4 166.35 398.85 166.2
L 399.5 166.9
Q 400.85 166.9 402.35 166.95
M 348 185.75
L 331.9 176.3 319.65 185.45 305.95 193.2
Q 294.85 194.25 242.9 186.9
L 234.4 191.35
Q 228.7 193.45 229.35 191.35
L 233.55 183.5
Q 143.05 150.45 119.2 138.9
L 109.6 155.85 227.25 201.65 310.2 210.85
Q 314.3 205.75 317.75 209.85 317.75 209.9 317.8 209.95
L 326.75 267.4 327.3 269.95
Q 327.85 273.8 328.2 277 328.85 282.65 328.85 286.35 328.85 292.1 327.6 300.5
L 313.15 380.55 307.7 403.5 314.1 403.5 320.5 403.5
Q 324.85 403.05 328.8 396.6
L 344.05 374.45 356.5 354.85
Q 361.3 347.35 361.45 342.1 361.6 336.85 361.25 332.45 360.85 328 360.8 327.4
L 360.75 328.55 355.25 253.6
Q 354.2 235.75 352.1 229.2 349.4 221.5 345.1 214.15 340.25 205.9 333.4 198.05
L 348 185.75
M 334.4 215.85
Q 337.15 215.85 339.95 215.85
L 344.4 227.7 335.2 228.6 330.7 229.05 327.3 218.4 331.55 218.4 330.6 215.85 333.9 215.85
Q 334.15 215.85 334.4 215.85
M 329.7 229.3
L 346.3 227.7 329.7 229.3 Z"/>

<path fill="#C5202E" stroke="none" d="
M 353.85 370.85
L 352 374.45 392.45 374.45 391.05 365.1 353.85 370.85
M 364.8 327.95
Q 365.05 336.85 364.5 343.25
L 389.7 343.25 390.95 331.55 377.4 329.7 375.65 329.45 364.8 327.95
M 361.7 355.7
L 359.6 359.8 390.25 359.8 388.9 350.8 389.05 349.35 363.05 352.2
Q 362.85 352.8 362.7 353.35 362.25 354.65 361.7 355.7 Z"/>

<path fill="#B8C1CE" stroke="none" d="
M 390.95 331.55
L 393.05 331.85 393.05 331 390.95 330.95 390.95 331.55
M 364.8 327.95
Q 364.8 327.85 364.8 327.8
L 364.8 327.7 360.8 327.4 364.8 327.95
M 376.7 178.45
L 375.05 178.85
Q 382.15 203.7 382.05 229.95 382.05 230 382.1 230.1 383.15 237.8 375.65 329.45
L 377.4 329.7
Q 384.95 237 383.8 229.95 383.9 203.5 376.7 178.45 Z"/>

<path fill="#A0131F" stroke="none" d="
M 364.5 343.25
Q 365.05 336.85 364.8 327.95
L 360.8 327.4
Q 360.85 328 361.25 332.45 361.6 336.85 361.45 342.1 361.3 347.35 356.5 354.85
L 344.05 374.45 352 374.45 353.85 370.85 391.05 365.1 392.45 374.45 391.15 350.15
Q 391.15 349.65 391.15 349.15 391.25 346.4 391.55 343.25 392 338.1 393.05 331.85
L 390.95 331.55 389.7 343.25 364.5 343.25
M 359.6 359.8
L 361.7 355.7
Q 362.25 354.65 362.7 353.35 362.85 352.8 363.05 352.2
L 389.05 349.35 388.9 350.8 390.25 359.8 359.6 359.8 Z"/>

<path fill="#CCCCCC" stroke="none" d="
M 390.95 175.6
L 384.6 171.1
Q 389.1 175.6 388.75 182.5 393.85 200.2 395 217.85
L 395 229.7 390.95 330.95 393.05 331
Q 393.55 326.9 394 322.8 396.5 300.4 398.1 277.75 399.8 253.95 400.5 229.95 400.5 229.75 400.5 229.6 401.1 222.75 400.5 215.35 400.45 215.15 400.45 214.95 399.8 207.6 398 199.7
L 390.95 175.6
M 331.55 218.4
L 327.3 218.4 330.7 229.05 335.2 228.6 331.55 218.4
M 362.4 176
L 358.3 184.2
Q 360 190.1 361.55 200.8 363.1 211.45 364.55 226.9
L 364.55 247.4 360.8 327.4 364.8 327.7
Q 368.25 277.8 368.75 252.5 368.75 249.85 368.8 247.4 368.95 235 368.8 226.9 368.75 226.8 368.8 226.75 368.65 221 368.35 217.4 367.8 211.3 366.2 200.1 365.2 193.5 363.9 185.2 363.2 180.7 362.4 176 Z"/>

<path fill="#FFFFFF" stroke="none" d="
M 388.75 182.5
L 376.7 178.45
Q 383.9 203.5 383.8 229.95 384.95 237 377.4 329.7
L 390.95 331.55 390.95 330.95 395 229.7 395 217.85
Q 393.85 200.2 388.75 182.5
M 390.9 168.35
Q 390.15 166.85 389.2 165.7 387.2 163.3 384.15 162.3
L 380.1 162.3 378.05 169.2 375.65 174.2 384.6 171.1 390.95 175.6 394.95 178.45 390.9 168.35
M 339.95 215.85
Q 337.15 215.85 334.4 215.85 334.15 215.85 333.9 215.85
L 330.6 215.85 331.55 218.4 335.2 228.6 344.4 227.7 339.95 215.85
M 362.4 176
Q 363.2 180.7 363.9 185.2 365.2 193.5 366.2 200.1 367.8 211.3 368.35 217.4 368.65 221 368.8 226.75 368.75 226.8 368.8 226.9 368.95 235 368.8 247.4 368.75 249.85 368.75 252.5 368.25 277.8 364.8 327.7
L 364.8 327.8
Q 364.8 327.85 364.8 327.95
L 375.65 329.45
Q 383.15 237.8 382.1 230.1 382.05 230 382.05 229.95 382.15 203.7 375.05 178.85
L 365.55 184.8
Q 362.95 177.25 364.3 172.15
L 362.4 176
M 356.7 162.1
L 355.3 164.75 355.5 165.85 358.3 184.2 362.4 176 364.3 172.15 375.65 174.2 359.5 162.1 356.7 162.1 Z"/>

<path fill="#FF0000" stroke="none" d="
M 365.55 184.8
L 375.05 178.85 376.7 178.45 388.75 182.5
Q 389.1 175.6 384.6 171.1
L 375.65 174.2 364.3 172.15
Q 362.95 177.25 365.55 184.8 Z"/>

<path fill="#535F81" stroke="none" d="
M 399.5 166.9
L 398.85 166.2 398 165.25
Q 397.85 165.15 397.7 165.05 397.4 164.85 397.1 164.6 396.35 164 395.5 163.35 394.1 162.25 392.55 161 389.95 158.9 387.35 157.85 384.05 156.5 380.65 156.8 380.35 156.8 380.1 156.85 380.8 158.35 380.2 161.8 380.15 162.05 380.1 162.3
L 384.15 162.3
Q 387.2 163.3 389.2 165.7 394.45 167 400.85 168.95 401.25 169.05 401.65 169.2
L 401.55 169.1
Q 399.7 167.8 399.85 167.25
L 399.5 166.9
M 349.25 160.3
Q 348.85 160.5 348.55 160.75 346.05 162.5 342.95 164.85 340.6 166.55 337.95 168.6
L 331.9 176.3 341.75 170
Q 344.85 168.75 349.45 167.45 349.7 167.35 354.1 166.2 354.8 166 355.5 165.85
L 355.3 164.75 356.7 162.1 356.7 158.05
Q 353.15 157.75 349.25 160.3 Z"/>

<path fill="#3C5777" stroke="none" d="
M 403.2 166.95
Q 402.8 166.95 402.35 166.95 400.85 166.9 399.5 166.9
L 399.85 167.25 401.55 169.1
Q 401.85 169.3 402.25 169.55 404.85 171.2 407.15 171.95 409.45 172.7 411.8 174.75 415.1 177.6 420.1 181.6 420.5 181.95 420.9 182.3 421.1 182.45 421.35 182.65
L 429.35 191.75
Q 430.05 193.55 438.45 204.6 439.25 205.3 442.8 208.7
L 443.15 209.1
Q 446.1 211.8 450.65 216.15 456.85 222.05 463.7 227.95 470.55 233.95 478.2 239.95 480.1 241.45 481.65 242.85 484.75 245.4 487 247.5 492.95 253.25 492.25 255.3
L 493.15 258.6
Q 497.95 262.55 497.15 254.85 497.15 254.55 497.1 254.35 497.15 254.45 497.05 252.3 497.15 252.35 497.2 252.4 497.25 252.45 497.25 252.55
L 497.3 252.45
Q 509.35 257.05 610.4 285.9
L 611.5 286
Q 611.55 286.05 611.5 285.9 611.7 283.75 611.6 282.05 611.6 281.9 611.6 281.75 611.45 280.6 611.25 279.75 611.2 279.6 611.15 279.4 611.1 279.05 611.05 278.75
L 490.75 243.5
Q 492.55 247.05 493.55 249.75 493.9 250.55 494.2 251.35 494.25 251.75 494.4 252.15 494.75 253.5 494.85 254.7 494.85 254.85 494.9 254.95 494.9 255.2 494.9 255.5 494.9 255.2 494.9 254.95 494.85 254.85 494.85 254.7 494.75 253.5 494.4 252.15 494.25 251.75 494.2 251.35 493.9 250.55 493.55 249.75 492.55 247.05 490.75 243.5
L 441 201.95 435.75 193.7 427.15 181.7 412.45 169.3
Q 410.9 168.9 409.55 168.55 405.85 167.55 403.2 166.95
M 496.95 251.6
Q 496.95 251.05 496.9 250.4 497 251.1 497.1 251.65 497.05 251.65 496.95 251.6
M 331.9 176.3
L 337.95 168.6 324.3 175.2
Q 322.85 175.95 320.55 177.95 318.2 179.9 314.95 183.05 305.85 185.95 303.85 187.5
L 239.15 182.6 232.25 189.85 239.15 182.6 124.3 132.25
Q 121.75 133.45 119.2 138.9 143.05 150.45 233.55 183.5
L 229.35 191.35
Q 228.7 193.45 234.4 191.35
L 242.9 186.9
Q 294.85 194.25 305.95 193.2
L 319.65 185.45 331.9 176.3 Z"/>

<path fill="#3F4861" stroke="none" d="
M 389.2 165.7
Q 390.15 166.85 390.9 168.35
L 394.95 178.45 390.95 175.6 398 199.7
Q 399.8 207.6 400.45 214.95 400.45 215.15 400.5 215.35 401.1 222.75 400.5 229.6 400.5 229.75 400.5 229.95 399.8 253.95 398.1 277.75 396.5 300.4 394 322.8 397.75 300.75 402.35 278.65 411 236.85 422.55 195
L 403.15 182.55 408.55 176.6 401.65 169.2
Q 401.25 169.05 400.85 168.95 394.45 167 389.2 165.7
M 355.5 165.85
Q 354.8 166 354.1 166.2 349.7 167.35 349.45 167.45 344.85 168.75 341.75 170
L 331.9 176.3 348 185.75 333.4 198.05
Q 340.25 205.9 345.1 214.15 349.4 221.5 352.1 229.2 354.2 235.75 355.25 253.6
L 360.75 328.55 360.8 327.4 364.55 247.4 364.55 226.9
Q 363.1 211.45 361.55 200.8 360 190.1 358.3 184.2
L 355.5 165.85 Z"/>

<path fill="#FCBB90" stroke="none" d="
M 351.25 110
L 346.9 111.4
Q 352.65 129.7 355.3 146.95 355.3 147.05 355.35 147.15 356.15 152.65 356.7 158.05
L 356.7 162.1 359.5 162.1 375.65 174.2 378.05 169.2 380.1 162.3
Q 380.15 162.05 380.2 161.8 366.05 159.5 356.6 133.75
L 351.25 110
M 358.4 61.3
Q 355.65 61.25 355 61.6 354.25 62.05 353.55 64.3 353.1 65.7 353.1 70.4 353.1 73.2 353.8 78.95 354.35 83.2 354.9 84.4
L 354.2 84.65
Q 354.2 84.7 354.25 84.8 355.1 87.3 355.1 88.5 355.1 89.1 354.35 89.5 353.45 90 351.75 90 351.1 90 350.75 90 350.4 89.95 350.3 89.85 350.2 89.75 350.15 89.45 350.05 89.1 350 88.55 348.85 81.45 342.55 80.8 339.75 80.6 338.2 82.9 337.05 84.65 337.05 86.85 336.1 95.95 339.65 101.7 343.2 107.4 346.4 110
L 346.5 110
Q 348.05 110.6 349 110 349.6 109.65 350.05 108.9 350.45 108.1 350.7 106.9 350.45 108.1 350.05 108.9
L 351.25 110 351.45 109.8
Q 351.5 108.3 355.2 115.65 358.85 122.95 362.25 128.05 365.65 133.15 376.8 140.25 387.9 147.3 389.55 146.7 391.15 146.15 392.65 144.35 394.15 142.5 396.8 142.65 398.4 142.75 399.6 141.9 400.5 141.3 401.6 139.9 401.45 138.25 400.85 137 400 135.35 399.4 133.8 398.8 132.2 398.65 129.9 398.5 127.6 399.25 120.75 400.2 111.6 403.85 103.55 407.45 95.5 405.6 90.65 403.7 85.8 402.6 82.5 401.5 79.2 400.65 76.75 399.75 74.25 400.6 71.35 401.45 68.45 400.1 64.6 399.6 63.1 398.7 60.85 397.5 57.9 396.15 52.8 395.8 51.65 395.5 50.65 392.65 51.55 391.85 51.75 390 52.25 387 52.65 379.7 53.65 377.45 54.2 375.15 54.75 371.35 56.45 367.5 58.35 365.4 59.35 365.35 59.4 365.3 59.4 365.05 59.5 364.85 59.6 361.05 61.35 358.4 61.3
M 342.2 86.35
Q 341.8 86.15 341.35 86.2 341.8 86.15 342.2 86.35 346.05 87.3 347.05 90.6 347.4 91.7 347.4 93.05 346 93.85 345.6 95.45 344.8 98.65 347.75 99.7
L 348.05 102.9 347.75 99.7
Q 344.8 98.65 345.6 95.45 346 93.85 347.4 93.05 347.4 91.7 347.05 90.6 346.05 87.3 342.2 86.35
M 381.8 68.65
Q 381.75 70 382.45 73.55 383.1 77.1 383.9 79.65 384.7 82.2 388 86.9 391.25 91.6 393.25 92.95 395.25 94.25 395.75 94.75 396.2 95.2 396.45 96.95 396.7 98.65 395.2 101.15 393.65 103.6 387.65 103.8 393.65 103.6 395.2 101.15 396.7 98.65 396.45 96.95 396.2 95.2 395.75 94.75 395.25 94.25 393.25 92.95 391.25 91.6 388 86.9 384.7 82.2 383.9 79.65 383.1 77.1 382.45 73.55 381.75 70 381.8 68.65 Z"/>

<path fill="#FFCC99" stroke="none" d="
M 351.25 110
L 350.05 108.9
Q 349.6 109.65 349 110 348.05 110.6 346.5 110 346.7 110.7 346.9 111.4
L 351.25 110 Z"/>

<path fill="#E99C69" stroke="none" d="
M 378.7 144.25
Q 375.9 142.4 372.15 139.8 360.2 131.45 358.45 128.45 356.65 125.45 351.25 110
L 356.6 133.75
Q 366.05 159.5 380.2 161.8 380.8 158.35 380.1 156.85 379.45 153.9 379.1 151.35 378.7 148.95 378.65 146.95 378.6 145.5 378.7 144.25
M 372.15 139.8
Q 375.9 142.4 378.7 144.25 381.15 145.9 382.9 146.95 385.5 148.55 386.5 148.9 388.95 149.65 389.95 149.5 390.45 149.4 390.95 149.35 391.85 149.1 392.55 148.8 393.5 148.25 394.4 147.4 394.65 147.15 394.95 146.95 395.7 146.45 396.75 146.4 398.2 146.25 400 144.75 401.65 143.45 401.65 141.05 401.65 140.45 401.6 139.9 400.5 141.3 399.6 141.9 398.4 142.75 396.8 142.65 394.15 142.5 392.65 144.35 391.15 146.15 389.55 146.7 387.9 147.3 376.8 140.25 365.65 133.15 362.25 128.05 358.85 122.95 355.2 115.65 351.5 108.3 351.45 109.8
L 351.25 110
Q 356.65 125.45 358.45 128.45 360.2 131.45 372.15 139.8
M 393.15 45.65
Q 392.85 45.7 392.5 45.8 387.5 47.6 379.05 49.65 377.65 49.95 376.45 50.3
L 376.4 50.3
Q 370 52.05 367.05 54.05 365.3 55.25 363.8 56.05 362.3 56.85 361.1 57.2 358.7 57.9 355.7 58.05 352.7 58.2 352.3 59.75 351.85 61.2 351.65 63.1 351.6 63.5 351.55 64.1 351.35 65.8 351.1 68.55 350.9 70.1 351 71.7 351 71.8 351 71.95 351.1 74 351.6 76.15 352.5 80.15 353.9 83.85 354.05 84.25 354.2 84.65
L 354.9 84.4
Q 354.35 83.2 353.8 78.95 353.1 73.2 353.1 70.4 353.1 65.7 353.55 64.3 354.25 62.05 355 61.6 355.65 61.25 358.4 61.3 361.05 61.35 364.85 59.6 365.05 59.5 365.3 59.4 365.35 59.4 365.4 59.35 367.5 58.35 371.35 56.45 375.15 54.75 377.45 54.2 379.7 53.65 387 52.65 390 52.25 391.85 51.75 392.65 51.55 395.5 50.65 395.45 50.5 395.4 50.35 394.35 47.1 393.15 45.65 Z"/>

<path fill="#000000" stroke="none" d="
M 385.7 29.3
Q 377.5 28.5 369.9 26.9 362.25 25.25 355 29.8 347.75 34.3 345.4 38.65 343.05 42.95 342.85 47.85 342.65 48.2 342.4 48.55 342.3 48.6 342.25 48.7 341.3 49.9 339.85 50.45 336.75 51.8 333.7 54.5 330.65 57.15 329.15 63.7 327.65 70.25 337.05 86.85 337.05 84.65 338.2 82.9 339.75 80.6 342.55 80.8 348.85 81.45 350 88.55 350.35 89.2 350.75 90 351.1 90 351.75 90 353.45 90 354.35 89.5 355.1 89.1 355.1 88.5 355.1 87.3 354.25 84.8 354.2 84.7 354.2 84.65 354.05 84.25 353.9 83.85 352.5 80.15 351.6 76.15 351.1 74 351 71.95 351 71.8 351 71.7 350.9 70.1 351.1 68.55 351.35 65.8 351.55 64.1 351.6 63.5 351.65 63.1 351.85 61.2 352.3 59.75 352.7 58.2 355.7 58.05 358.7 57.9 361.1 57.2 362.3 56.85 363.8 56.05 365.3 55.25 367.05 54.05 370 52.05 376.4 50.3
L 376.45 50.3
Q 377.65 49.95 379.05 49.65 387.5 47.6 392.5 45.8 392.85 45.7 393.15 45.65 394.3 44.95 396.6 43.95 398.8 42.9 400.35 39.3 401.8 35.7 398.2 23.8 393.85 30.1 385.7 29.3
M 337.5 40.3
Q 335.9 40.7 335.9 41.75 335.9 42.9 337.9 45.35 339.85 47.8 340.75 46.65 344.35 39.3 341.35 39.25 341.05 39.4 337.5 40.3
M 333.05 44.75
Q 331.75 44.7 329.9 48.75 329.5 51.3 339.65 48.9 340.75 48.4 339.65 47.95 337.45 47.2 335.9 46 334.3 44.8 333.05 44.75 Z"/>
</g>

<g id="Layer0_2_FILL">
<path fill="#FFFFFF" stroke="none" d="
M 395.15 131.9
Q 396.4 130.9 395.4 128.55 392.7 131.4 384.6 132.7 387.9 135.5 395.15 131.9
M 394.7 115.95
Q 394.95 114.3 395.35 112.55 387.35 118.15 376.15 115.55 376.65 116.8 377.15 118 387.2 120.3 394.7 115.95 Z"/>

<path fill="#FF0000" stroke="none" d="
M 380.9 126.45
Q 382.45 129.55 383.7 131.6 384.1 132.25 384.6 132.7 392.7 131.4 395.4 128.55 394.65 126.35 394.45 123.8 393 122.4 390.35 123.1 387.75 123.75 385.1 124.4 382.45 124.95 380.9 126.45 Z"/>

<path fill="#333333" stroke="none" d="
M 394.55 116.95
Q 394.6 116.45 394.7 115.95 387.2 120.3 377.15 118 377.8 119.55 378.4 121 379.75 124 380.9 126.45 382.45 124.95 385.1 124.4 387.75 123.75 390.35 123.1 393 122.4 394.45 123.8 394.1 120.6 394.55 116.95 Z"/>

<path fill="#000000" stroke="none" d="
M 386.4 69.4
Q 390.95 67.8 392.85 67.6 394.75 67.35 396.4 67.25
L 396.85 67.25
Q 396.95 67.25 397.1 67.25 397.25 67.25 397.4 67.25 398.2 67.25 398.75 67.3
L 398.8 67.3
Q 398.85 67.3 398.95 67.3 399.9 66.95 399.95 66.45 399.95 65.95 398.95 65.35 397 64.15 394.1 63.85 393.1 63.75 392.35 63.7 388.9 63.8 384.8 65.35 380.7 66.9 381.3 68.95 381.85 70.95 386.4 69.4
M 356.4 70.6
Q 358.2 69.75 360.4 68.6 362.5 67.4 365.05 67.05 367.55 66.65 370.85 67.55 374.15 68.4 374.85 67.35 375.55 66.25 375.7 65.75 376.05 64.2 373.7 63.35 370.5 62.2 369.45 62.25 368.25 62.25 366.8 62.25 365.9 62.25 364.45 62.55 363.05 62.8 359.8 64.7 356.5 66.6 355.2 69.05 354.85 69.65 354.8 70.15 354.6 71.45 356.4 70.6 Z"/>
</g>

<g id="Layer0_3_FILL">
<path fill="#000000" stroke="none" d="
M 367.55 113.8
Q 370.45 114.25 373.1 112.65 376.7 110.7 380.6 110.4 389.4 111.05 388.95 109.75 384.7 103.7 378.7 106.7 376.75 107.65 372.35 109.8 366.8 112.05 365 110.95 363.9 110.25 363.15 109.45 363.45 110.25 363.75 111 364.85 113.55 367.55 113.8
M 404.3 105.3
Q 400.7 104.05 399.1 103.55 394.1 101.7 391.5 108.6 391.25 110.75 394.75 108.9 398.25 107.05 401.8 108.1 405.35 109.1 407.85 108.1 410.3 107.1 410.7 104.2 410.4 104.6 410.05 105 408.85 106.45 404.3 105.3 Z"/>
</g>

<g id="Layer0_4_FILL">
<path fill="#06111B" stroke="none" d="
M 363.3 166.5
Q 353.9 165.45 353.1 165.25 348.1 164.15 346.2 161.2 345.7 160.55 345.7 159.95 345.9 159.05 345.85 158.55 345.75 158.1 345.9 157.95 346.1 157.8 345.15 157.8 344.1 157.7 342.25 158.25 340.3 158.8 340.35 159.6 340.4 161.9 342.85 164.15 344.2 165.65 346.1 166.55 347.5 167.25 350.5 167.95 354.35 168.75 362.45 169.75 368.4 170.75 373.35 172.05 373.6 172.4 374.25 172.5 374.6 172.6 376.35 172.6 377.4 172.55 378.15 172.1 378.45 171.95 378.7 171.75 378.8 171.65 378.95 171.6
L 382.55 169.7
Q 384.3 168.65 386.8 166.2
L 388.4 164.7 389.45 163
Q 390.05 162.1 390.4 160.95 390.75 160.05 390.7 158.75 390.6 157.25 391.55 156.7 392.35 156.05 391.75 155.55 391.15 155.05 388.75 154.65 386.3 154.3 385.7 154.95 385.35 155.35 385.35 156.3
L 385.5 160.2 384.85 161.55
Q 384.6 162.1 383.75 163.1 383.6 163.35 382.25 164.85 380.45 166.75 379.25 167.7 378.7 168.15 378.05 169.2 377.65 168.8 376.65 168.6 372.6 167.5 363.3 166.5 Z"/>
</g>

<g id="Layer0_5_FILL">
<path fill="#E99C69" stroke="none" d="
M 394.5 77.55
Q 392.25 78.05 389.7 78.9 387.15 79.75 386.05 82.65 386.75 82.25 390.25 80.35 393.75 78.45 399.9 78.7 396.7 77 394.5 77.55
M 359 88.7
Q 358.7 88.6 358.5 88.55 359.05 88.4 360.2 87.9 363.85 86.3 369.65 85.15 375.45 84 380.1 84.65 377.25 82.25 375.7 82.25 374.1 82.2 368.3 83.15 363.35 83.9 358.7 87.55 357.25 88.8 358.4 88.55 358.45 88.55 358.45 88.6
L 359 88.7 Z"/>

<path fill="#FFFFFF" stroke="none" d="
M 386.65 78.2
Q 387.9 77.75 389.6 77.4 388.95 76.7 388.6 75.7 388.15 74.5 388.3 73.3 386.8 75.05 386.4 76.3 385.95 77.55 385.65 78.1 385.35 78.65 386.65 78.2
M 394.6 71.65
Q 395 72.15 395.25 72.8 395.85 74.55 395.3 76.2 395.25 76.3 395.2 76.45 396.8 76.2 397.6 76.05 399 75.65 398.25 74.45 397.35 73.15 395.4 72 395 71.8 394.6 71.65
M 376.65 80.75
Q 378.55 80.6 377.9 79.95 377.2 79.3 376 77.85 374.65 76.35 372.2 75.65 372.95 77 372.95 78.7 372.95 80.1 372.45 81.25 374.75 80.8 376.65 80.75
M 362.25 77.8
Q 360.2 80.2 359.2 82.35 358.15 84.5 360.2 84.1 362.25 83.65 364.6 83.05 364.45 82.95 364.3 82.75 362.85 81.1 362.85 78.7 362.85 77.8 363.05 76.95 362.6 77.35 362.25 77.8 Z"/>

<path fill="url(#Gradient_4)" stroke="none" d="
M 391.35 71.85
Q 389.6 72.1 388.3 73.3 388.15 74.5 388.6 75.7 388.95 76.7 389.6 77.4 390.7 77.15 392.35 76.9 392.4 76.85 392.4 76.9 392.5 76.9 392.6 76.9
L 393.1 76.8
Q 394.25 76.65 395.2 76.45 395.25 76.3 395.3 76.2 395.85 74.55 395.25 72.8 395 72.15 394.6 71.65 393.05 71.55 391.35 71.85 Z"/>

<path fill="url(#Gradient_5)" stroke="none" d="
M 362.85 78.7
Q 362.85 81.1 364.3 82.75 364.45 82.95 364.6 83.05 366.25 82.7 368.45 82.15 368.5 82.1 368.6 82.1 370.8 81.5 372.45 81.25 372.95 80.1 372.95 78.7 372.95 77 372.2 75.65 369.9 74.85 367.4 75.3 364.85 75.7 363.05 76.95 362.85 77.8 362.85 78.7 Z"/>
</g>

<g id="Layer0_6_FILL">
<path fill="#000000" stroke="none" d="
M 366.5 79.2
Q 366.5 79.8 366.9 80.2 367.35 80.65 367.95 80.65 368.55 80.65 368.95 80.2 369.4 79.8 369.4 79.2 369.4 79.05 369.4 78.9 369.3 78.5 368.95 78.15 368.55 77.75 367.95 77.75 367.35 77.75 366.9 78.15 366.6 78.5 366.55 78.9 366.5 79.05 366.5 79.2
M 393 74
Q 392.7 73.7 392.25 73.7 391.8 73.7 391.45 74 391.25 74.3 391.2 74.6 391.15 74.7 391.15 74.8 391.15 75.25 391.45 75.55 391.8 75.9 392.25 75.9 392.7 75.9 393 75.55 393.35 75.25 393.35 74.8 393.35 74.7 393.35 74.6 393.3 74.3 393 74 Z"/>
</g>

<g id="Layer0_7_FILL">
<path fill="#FFFFFF" stroke="none" d="
M 391.5 73.95
Q 391.2 73.7 390.85 73.7 390.45 73.7 390.15 73.95 389.95 74.2 389.9 74.45 389.9 74.55 389.9 74.65 389.9 75.05 390.15 75.3 390.45 75.6 390.85 75.6 391.2 75.6 391.5 75.3 391.8 75.05 391.8 74.65 391.8 74.55 391.8 74.45 391.7 74.2 391.5 73.95
M 364.45 78.5
Q 364.4 78.65 364.4 78.8 364.4 79.4 364.8 79.8 365.25 80.25 365.85 80.25 366.45 80.25 366.85 79.8 367.3 79.4 367.3 78.8 367.3 78.65 367.3 78.5 367.2 78.1 366.85 77.75 366.45 77.35 365.85 77.35 365.25 77.35 364.8 77.75 364.5 78.1 364.45 78.5 Z"/>
</g>

<g id="FL_1233_0_Layer0_0_MEMBER_0_FILL">
<path fill="#FFFFFF" fill-opacity="0.3137254901960784" stroke="none" d="
M -1.55 -15.15
Q -8 -15.15 -12.55 -10.6 -17.15 -6.05 -17.1 0.45 -17.15 6.9 -12.55 11.45 -8 16 -1.55 16 4.9 16 9.5 11.45 14.05 6.9 14.05 0.45 14.05 -6.05 9.5 -10.6 4.9 -15.15 -1.55 -15.15 Z"/>
</g>

<g id="FL_1233_0_Layer0_0_MEMBER_1_FILL">
<path fill="#FFFFFF" fill-opacity="0.2901960784313726" stroke="none" d="
M -1.4 -12.6
Q -6.8 -12.6 -10.65 -8.75 -14.5 -4.9 -14.5 0.55 -14.5 5.95 -10.65 9.8 -6.8 13.65 -1.4 13.65 4.05 13.65 7.9 9.8 11.75 5.95 11.75 0.55 11.75 -4.9 7.9 -8.75 4.05 -12.6 -1.4 -12.6 Z"/>
</g>

<g id="FL_1233_0_Layer0_0_MEMBER_2_FILL">
<path fill="#FFFFFF" fill-opacity="0.2901960784313726" stroke="none" d="
M -1.45 -10.2
Q -5.85 -10.2 -9 -7.05 -12.15 -3.9 -12.15 0.5 -12.15 4.95 -9 8.1 -5.85 11.2 -1.45 11.2 3 11.2 6.15 8.1 9.25 4.95 9.25 0.5 9.25 -3.9 6.15 -7.05 3 -10.2 -1.45 -10.2 Z"/>
</g>

<g id="FL_1233_0_Layer0_0_MEMBER_3_FILL">
<path fill="#FFFFFF" stroke="none" d="
M -0.45 -24.9
L -3.1 -1.85 -17.75 0.75 -3.6 4.1 -0.95 24.9 1.7 3.9 17.75 1.5 1.95 -0.9 -0.45 -24.9 Z"/>
</g>

<g id="FL_1233_0_Layer0_0_MEMBER_4_FILL">
<path fill="#FFFFFF" fill-opacity="0.2901960784313726" stroke="none" d="
M -0.95 -8.8
Q -4.8 -8.8 -7.5 -6.1 -10.2 -3.4 -10.2 0.45 -10.2 4.25 -7.5 6.95 -4.8 9.65 -0.95 9.65 2.85 9.65 5.55 6.95 8.25 4.25 8.25 0.45 8.25 -3.4 5.55 -6.1 2.85 -8.8 -0.95 -8.8 Z"/>
</g>

<g id="FL_1233_0_Layer0_0_MEMBER_5_FILL">
<path fill="#FFFFFF" fill-opacity="0.6" stroke="none" d="
M -0.75 -7.5
Q -4.2 -7.55 -6.65 -5.1 -9.1 -2.6 -9.1 0.85 -9.1 4.3 -6.65 6.75 -4.2 9.2 -0.75 9.2 2.7 9.2 5.15 6.75 7.6 4.3 7.6 0.85 7.6 -2.6 5.15 -5.1 2.7 -7.55 -0.75 -7.5 Z"/>
</g>

<g id="FL_5667_0_Layer0_0_MEMBER_0_FILL">
<path fill="#FFFFFF" fill-opacity="0.3137254901960784" stroke="none" d="
M 7.8 0
Q 4.55 0 2.3 2.3 -0.05 4.6 0 7.9 -0.05 11.1 2.3 13.4 4.55 15.7 7.8 15.7 11.05 15.7 13.4 13.4 15.7 11.1 15.7 7.9 15.7 4.6 13.4 2.3 11.05 0 7.8 0 Z"/>
</g>

<g id="FL_5667_0_Layer0_0_MEMBER_1_FILL">
<path fill="#FFFFFF" fill-opacity="0.2901960784313726" stroke="none" d="
M 7.9 1.3
Q 5.2 1.3 3.25 3.25 1.3 5.2 1.3 7.95 1.3 10.65 3.25 12.6 5.2 14.5 7.9 14.5 10.65 14.5 12.6 12.6 14.5 10.65 14.5 7.95 14.5 5.2 12.6 3.25 10.65 1.3 7.9 1.3 Z"/>
</g>

<g id="FL_5667_0_Layer0_0_MEMBER_2_FILL">
<path fill="#FFFFFF" fill-opacity="0.2901960784313726" stroke="none" d="
M 7.85 2.5
Q 5.65 2.5 4.05 4.1 2.5 5.7 2.5 7.9 2.5 10.15 4.05 11.75 5.65 13.3 7.85 13.3 10.1 13.3 11.7 11.75 13.25 10.15 13.25 7.9 13.25 5.7 11.7 4.1 10.1 2.5 7.85 2.5 Z"/>
</g>

<g id="FL_5667_0_Layer0_0_MEMBER_3_FILL">
<path fill="#FFFFFF" fill-opacity="0.2901960784313726" stroke="none" d="
M 8.1 3.2
Q 6.2 3.2 4.8 4.6 3.45 5.95 3.45 7.9 3.45 9.8 4.8 11.15 6.2 12.5 8.1 12.5 10.05 12.5 11.4 11.15 12.75 9.8 12.75 7.9 12.75 5.95 11.4 4.6 10.05 3.2 8.1 3.2 Z"/>
</g>

<g id="FL_5667_0_Layer0_0_MEMBER_4_FILL">
<path fill="#FFFFFF" fill-opacity="0.6" stroke="none" d="
M 8.2 3.85
Q 6.5 3.85 5.25 5.1 4 6.35 4 8.1 4 9.8 5.25 11.05 6.5 12.3 8.2 12.3 9.95 12.3 11.2 11.05 12.45 9.8 12.45 8.1 12.45 6.35 11.2 5.1 9.95 3.85 8.2 3.85 Z"/>
</g>

<path id="Layer3_0_1_STROKES" stroke="#000000" stroke-width="1" stroke-linejoin="round" stroke-linecap="round" fill="none" d="
M 540.2 601.25
Q 544.75 604.55 537.4 618.7 535.1 623.1 537.4 625.8"/>

<path id="Layer2_0_1_STROKES" stroke="#000000" stroke-width="1" stroke-linejoin="round" stroke-linecap="round" fill="none" d="
M 357.65 154.95
L 356.7 154.95 358.3 155 357.65 154.95
Q 367.6 152.2 381.4 153.8 395.25 155.35 405.25 159.05 415.2 162.75 420.7 168.2 426.15 173.6 433.15 185.55 440.15 197.45 444.5 207.35 445.25 209.1 446.05 210.85 447.3 213.8 448.6 216.8 448.7720703125 217.2130859375 448.95 217.625 450.5171875 221.41796875 452.05 225.25 456.25 235.75 460.35 246.45 464.6 257.6 469.25 268.65 471.055859375 272.92890625 472.875 277.2 472.9205078125 277.321875 472.975 277.45
M 473.05 277.625
Q 475.765234375 284.019140625 478.5 290.4 563.95 471.2 660.2 565.4 676.6 584.75 626.15 620.3
L 611.3 596.85
Q 608.4 599.5 606.1 601.6 600.1 606.9 597.5 608.85 583.45 618.85 570.4 623.55 560.2 627.2 550.65 627.6 549.8 627.65 549 627.65 540.7 628.05 537.4 625.8 536.4 625.1 535.85 624.15
L 533.85 620.9 520.8 599.9
Q 520.75 599.9 520.7 599.9 503.35 600.7 483.35 608.4 451.55 620.6 419.9 626.6 409.7 628.5 397.15 629.9 394.7 630.2 392.15 630.45 367.4 632.95 334.25 633.75 331.2 633.95 328.2 634.1 311.4 634.4 294.75 633.95 286.25 633.65 277.9 633 273.6 632.65 269.4 632.25 268.9 632.15 268.45 632.15 263.7 631.65 259 631 240.65 628.3 223.7 622.55 212.85 618.9 202.25 614.1 186.45 606.9 172.3 598.35 168.1 608.95 166.95 611.1 166.5 611.75 166.1 612.35 158.15 624.45 145.9 617.7 137.15 612.75 129.4 607.95 121.55 603.1 114.65 598.45 106.9 593.2 100.45 588.15 96.5 585.1 93.05 582.1 80 596.2 66.2 609.4 47.5 567.25 59.25 555.8 71 544.35 76.5 538.45 84.6 529.8 92.65 520.95 193.2 408 265.7 255.05 265.8 254.85 265.95 254.6
L 266.45 253.5
Q 266.55 253.2 266.7 252.95 269.8 246.3 272.9 239.65
L 274.3 236.65
Q 274.95 235.15 275.65 233.65 276.05 232.8 276.5 231.95 277.7 229.55 278.85 227.15 279.21796875 226.3876953125 279.575 225.625 280.578515625 223.4876953125 281.5 221.35 285.9 212.8 291 203.55 296.05 194.25 302.2 186 308.3 177.75 318.15 171.1 327.95 164.45 336.5 160.9 345 157.35 356.7 154.95
M 359.05 155.05
L 358.35 155 358.3 155
M 358.35 155
L 359.35 155.05 359.05 155.05
M 359.35 155.05
L 360.05 155.1 360.75 155.15
M 360.05 155.1
L 359.05 155.05
M 453.9 263.225
L 441.05 223.05
Q 440.75 222.15 440.5 221.25
L 440.475 221.2
Q 439.9435546875 219.58125 439.4 218 434 201.8 427.6 186 420.7 176.75 415.55 172 410.35 167.25 403.3 165.1
L 383.25 160.25
Q 374.25 160 365.1 160.05 323.25 167.65 306.3 207.55 301.45 219 296.4 230.35
M 391.25 159.95
Q 387.8 160.2 383.25 160.25
M 514.35 409.5
Q 484.65 345.35 459.45 280.55
L 453.9 263.225
M 296.4 230.35
Q 296.3775390625 230.40078125 296.35 230.45 284.2755859375 257.7 271.2 284.5 264 299.15 256.75 313.8
M 276.5 231.95
Q 275.4 234.25 274.3 236.65
M 256.75 313.8
Q 245.4 336.6 233.9 359.3 221.95 382.8 209.45 406 203.9 416.1 198.3 426.2 189.1 442.75 179.7 459.25 177.4 463.55 175 467.8 172.65 472 170.2 476.2 151.25 508.95 129.4 538.15 112.15 561.2 93.05 582.1
M 166.1 612.35
Q 154.95 599.1 153.75 597.7 151.45 595.15 151.55 593.45 151.55 593.25 151.65 593 151.8 592.35 152.25 591.95 152.55 591.5 152.8 591.05 207.95 502.1 273.7 330.6
M 153.25 591.3
Q 154.15 590.85 155.65 590.75 159.5 590.45 172 598.15 172.1 598.25 172.3 598.35
M 152.25 591.95
Q 152.6 591.5 153.25 591.3
M 611.3 596.85
Q 594.95 568.35 579.55 539.75 562.65 508.4 546.85 476.95 530 443.3 514.35 409.5
M 520.8 599.9
Q 530.95 599.4 540.2 601.25 437.9 384.8 436.2 310.7"/>

<path id="Layer2_0_2_STROKES" stroke="#000000" stroke-width="1" stroke-linejoin="round" stroke-linecap="round" fill="none" d="
M 540.2 601.25
Q 544.75 604.55 537.4 618.7 535.1 623.1 537.4 625.8"/>

<path id="Layer1_0_1_STROKES" stroke="#000000" stroke-width="1" stroke-linejoin="round" stroke-linecap="round" fill="none" d="
M 353.5 419.25
L 352 418.2"/>

<path id="Layer0_0_1_STROKES" stroke="#000000" stroke-width="1" stroke-linejoin="round" stroke-linecap="round" fill="none" d="
M 68.5 109.25
Q 77 110 80.1 110.75 83.35 111.55 87.75 113.5 92.15 115.45 102.2 123.55 103.6 124.7 105.3 125.5 107 126.25 108.6 127.1 110.15 128.05 115.45 128.6 115.75 131.3 115.5 134.15
L 123.95 137.5
Q 123.65 148.6 116 154.85
L 108.4 151.9
Q 107.4 153.4 106.2 154.9 102.15 154.75 100.85 154.2 99.85 153.8 97.3 152.9 96.55 152.65 95.65 152.35 91.7 151.05 90.1 151.1 88.5 151.15 85.65 151.35 84.75 151.4 83.9 151.45
M 76.6 150.7
Q 74.4 150.1 71.3 149 70.95 149 69.15 148.65 67.35 148.3 66.65 146.3 66.15 144.6 65.7 143.7 65.65 143.6 65.6 143.45 65.55 143.4 65.55 143.3 65 142.4 65.85 140.85 64.65 140.75 63.8 140.35 62.45 139.65 61.3 137.2 61.25 137.15 61.25 137.1 60.1 134.25 60.05 132.65 60 131.4 60.6 130.9 59.85 130.8 59.35 130.55 57.85 129.9 57.3 128.8 56.45 126.8 56.45 124.05 56.45 123.55 56.5 123.15 56.7 121.05 58 120 58.2 119.75 58.35 119.5
L 58.4 119.45 58.4 119.4
Q 58.3 119.1 58.4 118.9 51.3 116.05 50.85 115.7 50.4 115.3 46.75 114.95 43.05 114.45 39.25 108.8 38.95 108.15 38.85 107.6 38.45 105.7 40.4 104.95 48.95 106.65 55.7 107.7 58.6 108.15 61.2 108.5
M 58.4 118.9
Q 58.55 118.15 59.35 117.8 60.45 117.3 61.6 117.5 61.85 117.5 62.05 117.55 63.5 118 64.8 118.4 65.45 118.55 66.1 118.75 67.05 119.05 69.6 119.25 69.75 119.25 69.9 119.3 71.3 119.45 72.25 119.5 72.65 119.5 72.95 119.5 73.8 119.4 77.8 119.05 77.9 119.05 78 119.1 79.4 119.2 83.7 120.05 84.5 120.2 85.45 120.45 85.75 120.5 86.1 120.55
M 58.45 119.95
Q 58.45 119.75 58.4 119.65 58.4 119.55 58.35 119.5
M 58.45 119.95
Q 58.25 120 58 120
M 64.95 128.15
Q 64.45 127.9 64.05 127.7 62.75 127.05 62.05 126.45 60.8 125.45 59.5 122.55 58.7 120.75 58.45 119.95
M 78.5 134.3
Q 78.9 133.1 78.5 131.85 78.5 131.8 78.5 131.75 76.95 131.7 76 131.6 75.25 131.5 74.9 131.4 74.7 131.3 74.45 131.25 73.5 130.95 72.15 130.6 70.8 130.25 69.95 129.95 69.9 129.95 69.85 130 69.45 130.1 69.15 130.25 67.5 130.7 66.05 130.95 65.25 131.1 64.5 131.15 62.75 131.3 61.1 131 60.8 130.95 60.6 130.9
M 78.8 131.8
Q 78.65 131.75 78.5 131.75
M 93.9 144.5
Q 93 144.15 92.15 143.7 90.05 142.45 88.55 140.35 88.45 140.25 88.4 140.15 87.4 138.45 86.65 137.2 86 136.1 85.55 135.3 84.9 134.25 84.25 133.4 83.25 132.1 82.2 131.45 81.9 131.25 80.65 131.6 79.2 131.9 78.8 131.8
M 75.4 137.85
Q 75.85 137.5 76.25 137.2
L 77.5 136.05
Q 77.8 135.65 78 135.3
L 78 135.35
Q 78.3 134.85 78.5 134.3
M 69.95 129.95
Q 69.65 129.9 69.45 129.9 69.2 129.8 68.95 129.75 66.6 128.9 64.95 128.15
M 65.85 140.85
Q 67.1 140.9 68.75 140.55 69.3 140.4 69.95 140.25
L 75.4 137.85
M 78.5 138.1
Q 78.65 138.1 78.8 138.1
L 78.85 138.1
M 81.2 142.5
Q 81.3 141.7 81.2 140.85 80.8 138.85 79.05 138.2
M 75.55 147.85
Q 76 147.65 76.4 147.4 78.1 146.45 79.3 145.4 79.7 145 80.1 144.6 80.1 144.55 80.15 144.5 80.5 144.1 80.75 143.7 80.85 143.5 80.95 143.3 81.1 142.9 81.2 142.5
M 71.3 149
Q 73.55 148.8 75.55 147.85
M 93.9 144.5
Q 95.1 144.9 96.5 145.1 98.5 145.35 100.9 145
M 108.4 151.9
Q 114.6 142.6 115.5 134.15"/>

<path id="Layer0_1_1_STROKES" stroke="#000000" stroke-width="1" stroke-linejoin="round" stroke-linecap="round" fill="none" d="
M 337.05 86.85
Q 327.65 70.25 329.15 63.7 330.65 57.15 333.7 54.5 336.75 51.8 339.85 50.45 341.3 49.9 342.25 48.7 342.3 48.6 342.4 48.55 342.65 48.2 342.85 47.85 343.05 42.95 345.4 38.65 347.75 34.3 355 29.8 362.25 25.25 369.9 26.9 377.5 28.5 385.7 29.3 393.85 30.1 398.2 23.8 401.8 35.7 400.35 39.3 398.8 42.9 396.6 43.95 394.3 44.95 393.15 45.65 394.35 47.1 395.4 50.35 395.45 50.5 395.5 50.65 395.8 51.65 396.15 52.8 397.5 57.9 398.7 60.85 399.6 63.1 400.1 64.6 401.45 68.45 400.6 71.35 399.75 74.25 400.65 76.75 401.5 79.2 402.6 82.5 403.7 85.8 405.6 90.65 407.45 95.5 403.85 103.55 400.2 111.6 399.25 120.75 398.5 127.6 398.65 129.9 398.8 132.2 399.4 133.8 400 135.35 400.85 137 401.45 138.25 401.6 139.9 401.65 140.45 401.65 141.05 401.65 143.45 400 144.75 398.2 146.25 396.75 146.4 395.7 146.45 394.95 146.95 394.65 147.15 394.4 147.4 393.5 148.25 392.55 148.8 391.85 149.1 390.95 149.35 390.45 149.4 389.95 149.5 388.95 149.65 386.5 148.9 385.5 148.55 382.9 146.95 381.15 145.9 378.7 144.25 378.6 145.5 378.65 146.95 378.7 148.95 379.1 151.35 379.45 153.9 380.1 156.85 380.35 156.8 380.65 156.8 384.05 156.5 387.35 157.85 389.95 158.9 392.55 161 394.1 162.25 395.5 163.35 396.35 164 397.1 164.6 397.4 164.85 397.7 165.05 397.85 165.15 398 165.25
L 398.85 166.2
Q 400.4 166.35 403.2 166.95 405.85 167.55 409.55 168.55 410.9 168.9 412.45 169.3
L 427.15 181.7 435.75 193.7 441 201.95 490.75 243.5 611.05 278.75
Q 611.1 279.05 611.15 279.4 611.2 279.6 611.25 279.75 611.45 280.6 611.6 281.75 611.6 281.9 611.6 282.05 611.7 283.75 611.5 285.9 611.55 286.05 611.5 286 611.5 286.1 611.5 286.25 610.55 294.2 604.65 306 604.6 306 604.6 306.15 604.4 306.45 604.2 306.85 603.4 308.35 602.6 309.95
L 491.35 274.95 491.25 274.9
Q 490.15 274.65 489.25 274.4 483.75 272.75 480.45 271.1 480.4 271.15 480.35 271.1 480.2 271.05 480.15 271 477.5 269.7 476.3 268.4
L 423.5 225.8 422.35 229.15
Q 422 231.05 421.65 232.95 421 236.35 420.4 239.75 420.25 240.6 420.1 241.45 415 270 411.75 293.8
M 410.05 307
Q 408.55 319 407.6 329.65 407.6 331.75 407.3 341.8 407 351.8 406.75 361.9 406.45 372 407.3 381.9 408.1 391.75 409.2 403.35 408.1 403.25 406.3 403.05 404.5 402.8 399.95 402.65
L 398.45 414.5 376.15 560.4 376.15 647.5
M 341.7 647.5
L 350.7 565.85 355 420.3 353.5 419.25
M 352 418.2
L 327.95 554.05 319.15 647.5
M 286.7 647.5
L 306.15 555.4 313.35 418.2 314.1 403.5 307.7 403.5 313.15 380.55 327.6 300.5
Q 328.85 292.1 328.85 286.35 328.85 282.65 328.2 277 327.85 273.8 327.3 269.95
L 326.75 267.4 315.9 217.7
Q 312.55 216 303.55 215.05 299.95 214.65 295.45 214.35
L 294.6 214.15 228.6 207.6 107 160.45 109.6 155.85 119.2 138.9
Q 121.75 133.45 124.3 132.25
L 239.15 182.6 303.85 187.5
Q 305.85 185.95 314.95 183.05 318.2 179.9 320.55 177.95 322.85 175.95 324.3 175.2
L 337.95 168.6
Q 340.6 166.55 342.95 164.85 346.05 162.5 348.55 160.75 348.85 160.5 349.25 160.3 353.15 157.75 356.7 158.05 356.15 152.65 355.35 147.15 355.3 147.05 355.3 146.95 352.65 129.7 346.9 111.4 346.7 110.7 346.5 110
L 346.4 110
Q 343.2 107.4 339.65 101.7 336.1 95.95 337.05 86.85 337.05 84.65 338.2 82.9 339.75 80.6 342.55 80.8 348.85 81.45 350 88.55 350.35 89.2 350.75 90 351.1 90 351.75 90 353.45 90 354.35 89.5 355.1 89.1 355.1 88.5 355.1 87.3 354.25 84.8 354.2 84.7 354.2 84.65 354.05 84.25 353.9 83.85 352.5 80.15 351.6 76.15 351.1 74 351 71.95 351 71.8 351 71.7 350.9 70.1 351.1 68.55 351.35 65.8 351.55 64.1 351.6 63.5 351.65 63.1 351.85 61.2 352.3 59.75 352.7 58.2 355.7 58.05 358.7 57.9 361.1 57.2 362.3 56.85 363.8 56.05 365.3 55.25 367.05 54.05 370 52.05 376.4 50.3
L 376.45 50.3
Q 377.65 49.95 379.05 49.65 387.5 47.6 392.5 45.8 392.85 45.7 393.15 45.65
M 348.05 102.9
L 347.75 99.7
Q 344.8 98.65 345.6 95.45 346 93.85 347.4 93.05 347.4 91.7 347.05 90.6 346.05 87.3 342.2 86.35 341.8 86.15 341.35 86.2
M 350 88.55
Q 350.05 89.1 350.15 89.45 350.2 89.75 350.3 89.85 350.4 89.95 350.75 90
M 381.8 68.65
Q 381.75 70 382.45 73.55 383.1 77.1 383.9 79.65 384.7 82.2 388 86.9 391.25 91.6 393.25 92.95 395.25 94.25 395.75 94.75 396.2 95.2 396.45 96.95 396.7 98.65 395.2 101.15 393.65 103.6 387.65 103.8
M 351.25 110
Q 356.65 125.45 358.45 128.45 360.2 131.45 372.15 139.8 375.9 142.4 378.7 144.25
M 350.05 108.9
Q 350.45 108.1 350.7 106.9
M 380.1 156.85
Q 380.8 158.35 380.2 161.8
M 346.5 110
Q 348.05 110.6 349 110 349.6 109.65 350.05 108.9
M 355.5 165.85
L 355.3 164.75 356.7 162.1 356.7 158.05
M 355.5 165.85
L 358.3 184.2 362.4 176 364.3 172.15 375.65 174.2 359.5 162.1 356.7 162.1
M 337.95 168.6
L 331.9 176.3 348 185.75 333.4 198.05
Q 340.25 205.9 345.1 214.15 349.4 221.5 352.1 229.2 354.2 235.75 355.25 253.6
L 360.75 328.55 360.8 327.4 364.55 247.4 364.55 226.9
Q 363.1 211.45 361.55 200.8 360 190.1 358.3 184.2
M 390.95 175.6
L 394.95 178.45 390.9 168.35
Q 390.15 166.85 389.2 165.7 387.2 163.3 384.15 162.3
L 380.1 162.3 378.05 169.2 375.65 174.2 384.6 171.1 390.95 175.6 398 199.7
Q 399.8 207.6 400.45 214.95 400.45 215.15 400.5 215.35 401.1 222.75 400.5 229.6 400.5 229.75 400.5 229.95 399.8 253.95 398.1 277.75 396.5 300.4 394 322.8 397.75 300.75 402.35 278.65 411 236.85 422.55 195
L 403.15 182.55 408.55 176.6 401.65 169.2
M 398.85 166.2
L 399.5 166.9 399.85 167.25 401.55 169.1 401.65 169.2
M 380.2 161.8
Q 380.15 162.05 380.1 162.3
M 423.5 225.8
L 427.55 213.15
M 394 322.8
Q 393.55 326.9 393.05 331
M 329.7 229.3
L 346.3 227.7
M 360.8 327.4
Q 360.85 328 361.25 332.45 361.6 336.85 361.45 342.1 361.3 347.35 356.5 354.85
L 344.05 374.45
M 392.45 374.45
L 391.15 350.15
Q 391.15 349.65 391.15 349.15 391.25 346.4 391.55 343.25 392 338.1 393.05 331.85
L 393.05 331
M 410.05 307
Q 410.8 300.6 411.75 293.8
M 490.75 243.5
Q 492.55 247.05 493.55 249.75 493.9 250.55 494.2 251.35 494.25 251.75 494.4 252.15 494.75 253.5 494.85 254.7 494.85 254.85 494.9 254.95 494.9 255.2 494.9 255.5
M 239.15 182.6
L 232.25 189.85
M 294.6 214.15
L 295.5 214.25 295.45 214.35
M 315.9 217.7
L 314.9 213.1
M 314.1 403.5
L 320.5 403.5
Q 324.85 403.05 328.8 396.6
L 344.05 374.45
M 392.45 374.45
L 395.7 400.4
Q 395.75 401.95 398.15 402.45 398.9 402.6 399.95 402.65
M 353.5 419.25
L 352 418.15"/>

<path id="Layer0_1_2_STROKES" stroke="#000000" stroke-width="1" stroke-linejoin="round" stroke-linecap="round" fill="none" d="
M 353.5 419.25
L 352 418.2"/>

<path id="Layer0_2_1_STROKES" stroke="#000000" stroke-width="1" stroke-linejoin="round" stroke-linecap="round" fill="none" d="
M 398.45 110
Q 396.95 111.4 395.35 112.55 394.95 114.3 394.7 115.95
M 395.35 112.55
Q 387.35 118.15 376.15 115.55 376.65 116.8 377.15 118
M 394.7 115.95
Q 394.6 116.45 394.55 116.95 394.1 120.6 394.45 123.8 394.65 126.35 395.4 128.55 396.4 130.9 395.15 131.9 387.9 135.5 384.6 132.7 384.1 132.25 383.7 131.6 382.45 129.55 380.9 126.45 379.75 124 378.4 121 377.8 119.55 377.15 118
M 376.15 115.55
L 372.6 113.95"/>

<path id="Layer0_3_1_STROKES" stroke="#000000" stroke-width="1" stroke-linejoin="round" stroke-linecap="round" fill="none" d="
M 343.25 86.7
Q 338 92.55 343.35 100.8"/>

<path id="Layer0_5_1_STROKES" stroke="#000000" stroke-width="1" stroke-linejoin="round" stroke-linecap="round" fill="none" d="
M 364.6 83.05
Q 362.25 83.65 360.2 84.1 358.15 84.5 359.2 82.35 360.2 80.2 362.25 77.8 362.6 77.35 363.05 76.95 364.85 75.7 367.4 75.3 369.9 74.85 372.2 75.65 374.65 76.35 376 77.85 377.2 79.3 377.9 79.95 378.55 80.6 376.65 80.75 374.75 80.8 372.45 81.25 370.8 81.5 368.6 82.1 368.5 82.1 368.45 82.15 366.25 82.7 364.6 83.05 Z
M 394.6 71.65
Q 393.05 71.55 391.35 71.85 389.6 72.1 388.3 73.3
M 392.6 76.9
L 393.1 76.8
Q 394.25 76.65 395.2 76.45
M 394.6 71.65
Q 395 71.8 395.4 72 397.35 73.15 398.25 74.45 399 75.65 397.6 76.05 396.8 76.2 395.2 76.45
M 388.3 73.3
Q 386.8 75.05 386.4 76.3 385.95 77.55 385.65 78.1 385.35 78.65 386.65 78.2 387.9 77.75 389.6 77.4
L 392.4 76.9"/>
</defs>

<g transform="matrix( 1, 0, 0, 1, 0,0) ">
<use xlink:href="#Layer3_0_FILL"/>

<use xlink:href="#Layer3_0_1_STROKES"/>
</g>

<g transform="matrix( 1, 0, 0, 1, 0,0) ">
<use xlink:href="#Layer2_0_FILL"/>

<use xlink:href="#Layer2_0_1_STROKES"/>

<use xlink:href="#Layer2_0_2_STROKES"/>
</g>

<g transform="matrix( 1, 0, 0, 1, 0,0) ">
<use xlink:href="#Layer1_0_FILL"/>

<use xlink:href="#Layer1_0_1_STROKES"/>
</g>

<g transform="matrix( 1, 0, 0, 1, 0,0) ">
<use xlink:href="#Layer0_0_FILL"/>

<use xlink:href="#Layer0_0_1_STROKES"/>
</g>

<g transform="matrix( 1, 0, 0, 1, 0,0) ">
<use xlink:href="#Layer0_1_FILL"/>

<use xlink:href="#Layer0_1_1_STROKES"/>

<use xlink:href="#Layer0_1_2_STROKES"/>
</g>

<g transform="matrix( 1, 0, 0, 1, 0,0) ">
<use xlink:href="#Layer0_2_FILL"/>

<use xlink:href="#Layer0_2_1_STROKES"/>
</g>

<g transform="matrix( 1, 0, 0, 1, 0,0) ">
<use xlink:href="#Layer0_3_FILL"/>

<use xlink:href="#Layer0_3_1_STROKES"/>
</g>

<g transform="matrix( 1, 0, 0, 1, 0,0) ">
<use xlink:href="#Layer0_4_FILL"/>
</g>

<g transform="matrix( 1, 0, 0, 1, 0,0) ">
<use xlink:href="#Layer0_5_FILL"/>

<use xlink:href="#Layer0_5_1_STROKES"/>
</g>

<g transform="matrix( 1, 0, 0, 1, 0,0) ">
<use xlink:href="#Layer0_6_FILL"/>
</g>

<g transform="matrix( 1, 0, 0, 1, 0,0) ">
<use xlink:href="#Layer0_7_FILL"/>
</g>

<g transform="matrix( 0.433441162109375, 0, 0, 0.433441162109375, 27,17.9) ">
<g transform="matrix( 1, 0, 0, 1, 0,0) ">
<use filter="url(#Filter_1)" xlink:href="#FL_1233_0_Layer0_0_MEMBER_0_FILL"/>
</g>

<g transform="matrix( 1, 0, 0, 1, 0,0) ">
<use filter="url(#Filter_1)" xlink:href="#FL_1233_0_Layer0_0_MEMBER_1_FILL"/>
</g>

<g transform="matrix( 1, 0, 0, 1, 0,0) ">
<use filter="url(#Filter_1)" xlink:href="#FL_1233_0_Layer0_0_MEMBER_2_FILL"/>
</g>

<g transform="matrix( 1, 0, 0, 1, 0,0) ">
<use filter="url(#Filter_1)" xlink:href="#FL_1233_0_Layer0_0_MEMBER_3_FILL"/>
</g>

<g transform="matrix( 1, 0, 0, 1, 0,0) ">
<use filter="url(#Filter_1)" xlink:href="#FL_1233_0_Layer0_0_MEMBER_4_FILL"/>
</g>

<g transform="matrix( 1, 0, 0, 1, 0,0) ">
<use filter="url(#Filter_1)" xlink:href="#FL_1233_0_Layer0_0_MEMBER_5_FILL"/>
</g>
</g>

<g transform="matrix( 0.288665771484375, 0, 0, 0.288665771484375, 50.5,23.1) ">
<g transform="matrix( 1, 0, 0, 1, 0,0) ">
<use filter="url(#Filter_1)" xlink:href="#FL_1233_0_Layer0_0_MEMBER_0_FILL"/>
</g>

<g transform="matrix( 1, 0, 0, 1, 0,0) ">
<use filter="url(#Filter_1)" xlink:href="#FL_1233_0_Layer0_0_MEMBER_1_FILL"/>
</g>

<g transform="matrix( 1, 0, 0, 1, 0,0) ">
<use filter="url(#Filter_1)" xlink:href="#FL_1233_0_Layer0_0_MEMBER_2_FILL"/>
</g>

<g transform="matrix( 1, 0, 0, 1, 0,0) ">
<use filter="url(#Filter_1)" xlink:href="#FL_1233_0_Layer0_0_MEMBER_3_FILL"/>
</g>

<g transform="matrix( 1, 0, 0, 1, 0,0) ">
<use filter="url(#Filter_1)" xlink:href="#FL_1233_0_Layer0_0_MEMBER_4_FILL"/>
</g>

<g transform="matrix( 1, 0, 0, 1, 0,0) ">
<use filter="url(#Filter_1)" xlink:href="#FL_1233_0_Layer0_0_MEMBER_5_FILL"/>
</g>
</g>

<g transform="matrix( 0.382293701171875, 0, 0, 0.382293701171875, 21.1,38.2) ">
<g transform="matrix( 1, 0, 0, 1, 0,0) ">
<use filter="url(#Filter_1)" xlink:href="#FL_1233_0_Layer0_0_MEMBER_0_FILL"/>
</g>

<g transform="matrix( 1, 0, 0, 1, 0,0) ">
<use filter="url(#Filter_1)" xlink:href="#FL_1233_0_Layer0_0_MEMBER_1_FILL"/>
</g>

<g transform="matrix( 1, 0, 0, 1, 0,0) ">
<use filter="url(#Filter_1)" xlink:href="#FL_1233_0_Layer0_0_MEMBER_2_FILL"/>
</g>

<g transform="matrix( 1, 0, 0, 1, 0,0) ">
<use filter="url(#Filter_1)" xlink:href="#FL_1233_0_Layer0_0_MEMBER_3_FILL"/>
</g>

<g transform="matrix( 1, 0, 0, 1, 0,0) ">
<use filter="url(#Filter_1)" xlink:href="#FL_1233_0_Layer0_0_MEMBER_4_FILL"/>
</g>

<g transform="matrix( 1, 0, 0, 1, 0,0) ">
<use filter="url(#Filter_1)" xlink:href="#FL_1233_0_Layer0_0_MEMBER_5_FILL"/>
</g>
</g>

<g transform="matrix( 0.288665771484375, 0, 0, 0.288665771484375, 56.8,43.45) ">
<g transform="matrix( 1, 0, 0, 1, 0,0) ">
<use filter="url(#Filter_1)" xlink:href="#FL_1233_0_Layer0_0_MEMBER_0_FILL"/>
</g>

<g transform="matrix( 1, 0, 0, 1, 0,0) ">
<use filter="url(#Filter_1)" xlink:href="#FL_1233_0_Layer0_0_MEMBER_1_FILL"/>
</g>

<g transform="matrix( 1, 0, 0, 1, 0,0) ">
<use filter="url(#Filter_1)" xlink:href="#FL_1233_0_Layer0_0_MEMBER_2_FILL"/>
</g>

<g transform="matrix( 1, 0, 0, 1, 0,0) ">
<use filter="url(#Filter_1)" xlink:href="#FL_1233_0_Layer0_0_MEMBER_3_FILL"/>
</g>

<g transform="matrix( 1, 0, 0, 1, 0,0) ">
<use filter="url(#Filter_1)" xlink:href="#FL_1233_0_Layer0_0_MEMBER_4_FILL"/>
</g>

<g transform="matrix( 1, 0, 0, 1, 0,0) ">
<use filter="url(#Filter_1)" xlink:href="#FL_1233_0_Layer0_0_MEMBER_5_FILL"/>
</g>
</g>

<g transform="matrix( 0.288665771484375, 0, 0, 0.288665771484375, 36.6,73.05) ">
<g transform="matrix( 1, 0, 0, 1, 0,0) ">
<use filter="url(#Filter_1)" xlink:href="#FL_1233_0_Layer0_0_MEMBER_0_FILL"/>
</g>

<g transform="matrix( 1, 0, 0, 1, 0,0) ">
<use filter="url(#Filter_1)" xlink:href="#FL_1233_0_Layer0_0_MEMBER_1_FILL"/>
</g>

<g transform="matrix( 1, 0, 0, 1, 0,0) ">
<use filter="url(#Filter_1)" xlink:href="#FL_1233_0_Layer0_0_MEMBER_2_FILL"/>
</g>

<g transform="matrix( 1, 0, 0, 1, 0,0) ">
<use filter="url(#Filter_1)" xlink:href="#FL_1233_0_Layer0_0_MEMBER_3_FILL"/>
</g>

<g transform="matrix( 1, 0, 0, 1, 0,0) ">
<use filter="url(#Filter_1)" xlink:href="#FL_1233_0_Layer0_0_MEMBER_4_FILL"/>
</g>

<g transform="matrix( 1, 0, 0, 1, 0,0) ">
<use filter="url(#Filter_1)" xlink:href="#FL_1233_0_Layer0_0_MEMBER_5_FILL"/>
</g>
</g>

<g transform="matrix( 0.21728515625, 0, 0, 0.21728515625, 11.9,23.3) ">
<g transform="matrix( 1, 0, 0, 1, 0,0) ">
<use filter="url(#Filter_1)" xlink:href="#FL_1233_0_Layer0_0_MEMBER_0_FILL"/>
</g>

<g transform="matrix( 1, 0, 0, 1, 0,0) ">
<use filter="url(#Filter_1)" xlink:href="#FL_1233_0_Layer0_0_MEMBER_1_FILL"/>
</g>

<g transform="matrix( 1, 0, 0, 1, 0,0) ">
<use filter="url(#Filter_1)" xlink:href="#FL_1233_0_Layer0_0_MEMBER_2_FILL"/>
</g>

<g transform="matrix( 1, 0, 0, 1, 0,0) ">
<use filter="url(#Filter_1)" xlink:href="#FL_1233_0_Layer0_0_MEMBER_3_FILL"/>
</g>

<g transform="matrix( 1, 0, 0, 1, 0,0) ">
<use filter="url(#Filter_1)" xlink:href="#FL_1233_0_Layer0_0_MEMBER_4_FILL"/>
</g>

<g transform="matrix( 1, 0, 0, 1, 0,0) ">
<use filter="url(#Filter_1)" xlink:href="#FL_1233_0_Layer0_0_MEMBER_5_FILL"/>
</g>
</g>

<g transform="matrix( 0.2454681396484375, 0, 0, 0.2454681396484375, 14.3,61.1) ">
<g transform="matrix( 1, 0, 0, 1, 0,0) ">
<use filter="url(#Filter_1)" xlink:href="#FL_1233_0_Layer0_0_MEMBER_0_FILL"/>
</g>

<g transform="matrix( 1, 0, 0, 1, 0,0) ">
<use filter="url(#Filter_1)" xlink:href="#FL_1233_0_Layer0_0_MEMBER_1_FILL"/>
</g>

<g transform="matrix( 1, 0, 0, 1, 0,0) ">
<use filter="url(#Filter_1)" xlink:href="#FL_1233_0_Layer0_0_MEMBER_2_FILL"/>
</g>

<g transform="matrix( 1, 0, 0, 1, 0,0) ">
<use filter="url(#Filter_1)" xlink:href="#FL_1233_0_Layer0_0_MEMBER_3_FILL"/>
</g>

<g transform="matrix( 1, 0, 0, 1, 0,0) ">
<use filter="url(#Filter_1)" xlink:href="#FL_1233_0_Layer0_0_MEMBER_4_FILL"/>
</g>

<g transform="matrix( 1, 0, 0, 1, 0,0) ">
<use filter="url(#Filter_1)" xlink:href="#FL_1233_0_Layer0_0_MEMBER_5_FILL"/>
</g>
</g>

<g transform="matrix( 0.2454681396484375, 0, 0, 0.2454681396484375, 60.8,61.1) ">
<g transform="matrix( 1, 0, 0, 1, 0,0) ">
<use filter="url(#Filter_1)" xlink:href="#FL_1233_0_Layer0_0_MEMBER_0_FILL"/>
</g>

<g transform="matrix( 1, 0, 0, 1, 0,0) ">
<use filter="url(#Filter_1)" xlink:href="#FL_1233_0_Layer0_0_MEMBER_1_FILL"/>
</g>

<g transform="matrix( 1, 0, 0, 1, 0,0) ">
<use filter="url(#Filter_1)" xlink:href="#FL_1233_0_Layer0_0_MEMBER_2_FILL"/>
</g>

<g transform="matrix( 1, 0, 0, 1, 0,0) ">
<use filter="url(#Filter_1)" xlink:href="#FL_1233_0_Layer0_0_MEMBER_3_FILL"/>
</g>

<g transform="matrix( 1, 0, 0, 1, 0,0) ">
<use filter="url(#Filter_1)" xlink:href="#FL_1233_0_Layer0_0_MEMBER_4_FILL"/>
</g>

<g transform="matrix( 1, 0, 0, 1, 0,0) ">
<use filter="url(#Filter_1)" xlink:href="#FL_1233_0_Layer0_0_MEMBER_5_FILL"/>
</g>
</g>

<g transform="matrix( 0.66363525390625, 0, 0, 0.66363525390625, 26,51.4) ">
<g transform="matrix( 1, 0, 0, 1, 0,0) ">
<use xlink:href="#FL_5667_0_Layer0_0_MEMBER_0_FILL"/>
</g>

<g transform="matrix( 1, 0, 0, 1, 0,0) ">
<use xlink:href="#FL_5667_0_Layer0_0_MEMBER_1_FILL"/>
</g>

<g transform="matrix( 1, 0, 0, 1, 0,0) ">
<use xlink:href="#FL_5667_0_Layer0_0_MEMBER_2_FILL"/>
</g>

<g transform="matrix( 1, 0, 0, 1, 0,0) ">
<use xlink:href="#FL_5667_0_Layer0_0_MEMBER_3_FILL"/>
</g>

<g transform="matrix( 1, 0, 0, 1, 0,0) ">
<use xlink:href="#FL_5667_0_Layer0_0_MEMBER_4_FILL"/>
</g>
</g>

<g transform="matrix( 0.4860687255859375, 0, 0, 0.4860687255859375, 61.5,70.6) ">
<g transform="matrix( 1, 0, 0, 1, 0,0) ">
<use xlink:href="#FL_5667_0_Layer0_0_MEMBER_0_FILL"/>
</g>

<g transform="matrix( 1, 0, 0, 1, 0,0) ">
<use xlink:href="#FL_5667_0_Layer0_0_MEMBER_1_FILL"/>
</g>

<g transform="matrix( 1, 0, 0, 1, 0,0) ">
<use xlink:href="#FL_5667_0_Layer0_0_MEMBER_2_FILL"/>
</g>

<g transform="matrix( 1, 0, 0, 1, 0,0) ">
<use xlink:href="#FL_5667_0_Layer0_0_MEMBER_3_FILL"/>
</g>

<g transform="matrix( 1, 0, 0, 1, 0,0) ">
<use xlink:href="#FL_5667_0_Layer0_0_MEMBER_4_FILL"/>
</g>
</g>

<g transform="matrix( 0.4860687255859375, 0, 0, 0.4860687255859375, 57.9,25.9) ">
<g transform="matrix( 1, 0, 0, 1, 0,0) ">
<use xlink:href="#FL_5667_0_Layer0_0_MEMBER_0_FILL"/>
</g>

<g transform="matrix( 1, 0, 0, 1, 0,0) ">
<use xlink:href="#FL_5667_0_Layer0_0_MEMBER_1_FILL"/>
</g>

<g transform="matrix( 1, 0, 0, 1, 0,0) ">
<use xlink:href="#FL_5667_0_Layer0_0_MEMBER_2_FILL"/>
</g>

<g transform="matrix( 1, 0, 0, 1, 0,0) ">
<use xlink:href="#FL_5667_0_Layer0_0_MEMBER_3_FILL"/>
</g>

<g transform="matrix( 1, 0, 0, 1, 0,0) ">
<use xlink:href="#FL_5667_0_Layer0_0_MEMBER_4_FILL"/>
</g>
</g>

<g transform="matrix( 0.4860687255859375, 0, 0, 0.4860687255859375, 2.3,36.25) ">
<g transform="matrix( 1, 0, 0, 1, 0,0) ">
<use xlink:href="#FL_5667_0_Layer0_0_MEMBER_0_FILL"/>
</g>

<g transform="matrix( 1, 0, 0, 1, 0,0) ">
<use xlink:href="#FL_5667_0_Layer0_0_MEMBER_1_FILL"/>
</g>

<g transform="matrix( 1, 0, 0, 1, 0,0) ">
<use xlink:href="#FL_5667_0_Layer0_0_MEMBER_2_FILL"/>
</g>

<g transform="matrix( 1, 0, 0, 1, 0,0) ">
<use xlink:href="#FL_5667_0_Layer0_0_MEMBER_3_FILL"/>
</g>

<g transform="matrix( 1, 0, 0, 1, 0,0) ">
<use xlink:href="#FL_5667_0_Layer0_0_MEMBER_4_FILL"/>
</g>
</g>

<g transform="matrix( 0.4860687255859375, 0, 0, 0.4860687255859375, 66.6,47.35) ">
<g transform="matrix( 1, 0, 0, 1, 0,0) ">
<use xlink:href="#FL_5667_0_Layer0_0_MEMBER_0_FILL"/>
</g>

<g transform="matrix( 1, 0, 0, 1, 0,0) ">
<use xlink:href="#FL_5667_0_Layer0_0_MEMBER_1_FILL"/>
</g>

<g transform="matrix( 1, 0, 0, 1, 0,0) ">
<use xlink:href="#FL_5667_0_Layer0_0_MEMBER_2_FILL"/>
</g>

<g transform="matrix( 1, 0, 0, 1, 0,0) ">
<use xlink:href="#FL_5667_0_Layer0_0_MEMBER_3_FILL"/>
</g>

<g transform="matrix( 1, 0, 0, 1, 0,0) ">
<use xlink:href="#FL_5667_0_Layer0_0_MEMBER_4_FILL"/>
</g>
</g>

<g transform="matrix( 0.66363525390625, 0, 0, 0.66363525390625, 38.85,2) ">
<g transform="matrix( 1, 0, 0, 1, 0,0) ">
<use xlink:href="#FL_5667_0_Layer0_0_MEMBER_0_FILL"/>
</g>

<g transform="matrix( 1, 0, 0, 1, 0,0) ">
<use xlink:href="#FL_5667_0_Layer0_0_MEMBER_1_FILL"/>
</g>

<g transform="matrix( 1, 0, 0, 1, 0,0) ">
<use xlink:href="#FL_5667_0_Layer0_0_MEMBER_2_FILL"/>
</g>

<g transform="matrix( 1, 0, 0, 1, 0,0) ">
<use xlink:href="#FL_5667_0_Layer0_0_MEMBER_3_FILL"/>
</g>

<g transform="matrix( 1, 0, 0, 1, 0,0) ">
<use xlink:href="#FL_5667_0_Layer0_0_MEMBER_4_FILL"/>
</g>
</g>
</svg>
