
<svg xmlns="http://www.w3.org/2000/svg" version="1.1" xmlns:xlink="http://www.w3.org/1999/xlink" preserveAspectRatio="none" x="0px" y="0px" width="181px" height="57px" viewBox="0 0 181 57">
<defs>
<filter id="Filter_1" x="-20%" y="-20%" width="140%" height="140%" color-interpolation-filters="sRGB">
<feColorMatrix in="SourceGraphic" type="matrix" values="1 0 0 0 0 0 1 0 0 0 0 0 1 0 0 0 0 0 0.2 0" result="result1"/>
</filter>

<g id="S_mbolo_19_0_Layer0_0_FILL">
<path fill="#FFFFFF" stroke="none" d="
M 178.95 44.85
L 178.95 9.35
Q 178.95 0 169.55 0
L 9.35 0
Q 0 0 0 9.35
L 0 44.85
Q 0 54.2 9.35 54.2
L 169.55 54.2
Q 178.95 54.2 178.95 44.85 Z"/>
</g>

<g id="Layer0_0_MEMBER_1_FILL">
<path fill="#FFFFFF" stroke="none" d="
M 365.5 182.75
Q 365.502734375 172.4 355.1 172.4
L 194.9 172.4
Q 184.5501953125 172.4 184.55 182.75
L 184.55 218.25
Q 184.55 228.5998046875 194.9 228.6
L 355.1 228.6
Q 365.502734375 228.6 365.5 218.25
L 365.5 182.75
M 355.1 174.4
Q 363.497265625 174.4 363.5 182.75
L 363.5 218.25
Q 363.497265625 226.6 355.1 226.6
L 194.9 226.6
Q 186.55 226.6 186.55 218.25
L 186.55 182.75
Q 186.55 174.4 194.9 174.4
L 355.1 174.4 Z"/>
</g>

<g id="Layer0_0_MEMBER_2_FILL">
<path fill="#FFFFFF" stroke="none" d="
M 290.4 185.55
L 287.6 185.55 287.6 215.5 290.4 215.5 290.4 185.55
M 310.6 185.55
L 307.75 185.55 294.65 215.5 297.55 215.5 300.95 207.55 316.85 207.55 320.1 215.5 323.2 215.5 310.6 185.55
M 315.8 205
L 302.05 205 309.05 188.55 315.8 205
M 249.65 185.55
L 246.85 185.55 246.85 215.5 249.65 215.5 249.65 185.55
M 260.2 189.2
Q 258.1 191.35 257 194.25 255.85 197.15 255.85 200.5 255.85 203.9 257 206.8 258.1 209.7 260.2 211.8 262.25 213.95 265.1 215.1 268 216.25 271.35 216.25 274.8 216.25 277.65 214.95 280.45 213.65 282.5 210.8
L 280.2 209.05
Q 278.75 211.35 276.25 212.55 273.8 213.7 271.35 213.7 268.5 213.7 266.1 212.75 263.8 211.75 262.1 209.95 260.45 208.15 259.55 205.7 258.65 203.3 258.65 200.5 258.65 197.75 259.55 195.3 260.45 192.9 262.1 191.1 263.75 189.3 266.1 188.3 268.5 187.3 271.35 187.3 273.75 187.3 275.9 188.35 278.05 189.4 279.4 191.4
L 281.7 189.45
Q 279.8 187.05 277.15 185.9 274.55 184.75 271.35 184.75 268 184.75 265.1 185.9 262.25 187.1 260.2 189.2
M 205.75 185.55
L 202.95 185.55 202.95 215.5 205.75 215.5 205.75 185.55
M 216.7 189.25
L 216.8 189.25 235.05 215.5 238.65 215.5 238.65 185.55 235.85 185.55 235.85 211.8 235.75 211.8 217.5 185.55 213.9 185.55 213.9 215.5 216.7 215.5 216.7 189.25
M 341.8 186.6
Q 340.05 185.85 338.45 185.7 336.9 185.55 335.35 185.55
L 327.45 185.55 327.45 215.5 330.25 215.5 330.25 201.3 335.45 201.3 343.9 215.5 347.05 215.5 338.35 201.1
Q 339.8 200.95 341.05 200.5 342.35 200.05 343.5 199.15 344.6 198.3 345.3 196.9 346 195.45 346 193.4 346 190.65 344.8 189 343.55 187.35 341.8 186.6
M 339.65 188.6
Q 341.05 189.1 341.85 189.9 342.6 190.7 342.9 191.6 343.2 192.5 343.2 193.4 343.2 194.3 342.9 195.2 342.6 196.1 341.85 196.9 341.1 197.75 339.7 198.2 338.25 198.75 336.2 198.75
L 330.25 198.75 330.25 188.05 336.2 188.05
Q 338.25 188.05 339.65 188.6 Z"/>
</g>
</defs>

<g transform="matrix( 1, 0, 0, 1, 1.05,1.4) ">
<g transform="matrix( 1, 0, 0, 1, 0,0) ">
<use filter="url(#Filter_1)" xlink:href="#S_mbolo_19_0_Layer0_0_FILL"/>
</g>
</g>

<g transform="matrix( 1, 0, 0, 1, -184.5,-172) ">
<use xlink:href="#Layer0_0_MEMBER_1_FILL"/>
</g>

<g transform="matrix( 1, 0, 0, 1, -184.5,-172) ">
<use xlink:href="#Layer0_0_MEMBER_2_FILL"/>
</g>
</svg>
