
<svg xmlns="http://www.w3.org/2000/svg" version="1.1" xmlns:xlink="http://www.w3.org/1999/xlink" preserveAspectRatio="none" x="0px" y="0px" width="983px" height="505px" viewBox="0 0 983 505">
<defs>
<linearGradient id="Gradient_1" gradientUnits="userSpaceOnUse" x1="1139.775" y1="577.2125000000001" x2="1124.525" y2="582.6875" spreadMethod="pad">
<stop  offset="0%" stop-color="#999999"/>

<stop  offset="27.84313725490196%" stop-color="#CCCCCC"/>

<stop  offset="48.627450980392155%" stop-color="#FFFFFF"/>

<stop  offset="70.58823529411765%" stop-color="#CCCCCC"/>

<stop  offset="100%" stop-color="#999999"/>
</linearGradient>

<linearGradient id="Gradient_2" gradientUnits="userSpaceOnUse" x1="1080.075" y1="411.41249999999997" x2="1064.825" y2="416.8875" spreadMethod="pad">
<stop  offset="0%" stop-color="#252525"/>

<stop  offset="27.84313725490196%" stop-color="#494949"/>

<stop  offset="48.627450980392155%" stop-color="#999999"/>

<stop  offset="70.58823529411765%" stop-color="#2C2C2C"/>

<stop  offset="100%" stop-color="#000000"/>
</linearGradient>

<linearGradient id="Gradient_3" gradientUnits="userSpaceOnUse" x1="1020.875" y1="247.0125" x2="1005.625" y2="252.4875" spreadMethod="pad">
<stop  offset="0%" stop-color="#999999"/>

<stop  offset="27.84313725490196%" stop-color="#CCCCCC"/>

<stop  offset="48.627450980392155%" stop-color="#FFFFFF"/>

<stop  offset="70.58823529411765%" stop-color="#CCCCCC"/>

<stop  offset="100%" stop-color="#999999"/>
</linearGradient>

<filter id="Filter_1" x="-20%" y="-20%" width="140%" height="140%" color-interpolation-filters="sRGB">
<feColorMatrix in="SourceGraphic" type="matrix" values="1 0 0 0 0 0 1 0 0 0 0 0 1 0 0 0 0 0 0.2 0" result="result1"/>
</filter>

<filter id="Filter_2" x="-20%" y="-20%" width="140%" height="140%" color-interpolation-filters="sRGB">
<feColorMatrix in="SourceGraphic" type="matrix" values="1 0 0 0 0 0 1 0 0 0 0 0 1 0 0 0 0 0 0.19 0" result="result1"/>
</filter>

<filter id="Filter_3" x="-20%" y="-20%" width="140%" height="140%" color-interpolation-filters="sRGB">
<feColorMatrix in="SourceGraphic" type="matrix" values="1 0 0 0 0 0 1 0 0 0 0 0 1 0 0 0 0 0 0.6 0" result="result1"/>
</filter>

<g id="S_mbolo_24_0_Layer0_0_FILL">
<path fill="#000000" stroke="none" d="
M 15.75 5.35
Q 14.6 2.2 11.6 0.8 8.55 -0.65 5.4 0.5 2.25 1.65 0.8 4.7 -0.65 7.7 0.5 10.85
L 134.25 382.35
Q 135.35 385.5 138.4 386.95 141.45 388.4 144.6 387.25 147.75 386.1 149.2 383.05 150.6 380 149.5 376.85
L 15.75 5.35 Z"/>
</g>

<g id="Layer9_0_FILL">
<path fill="url(#Gradient_1)" stroke="none" d="
M 1129.35 548.3
L 1114.1 553.8 1132.2 604.05
Q 1133.3 607.2 1136.35 608.65 1139.4 610.1 1142.55 608.95 1145.7 607.8 1147.15 604.75 1148.55 601.7 1147.45 598.55
L 1129.35 548.3 Z"/>

<path fill="url(#Gradient_2)" stroke="none" d="
M 1030.8 274.55
L 1015.55 280.05 1114.1 553.8 1129.35 548.3 1030.8 274.55 Z"/>

<path fill="url(#Gradient_3)" stroke="none" d="
M 998.75 226.4
Q 997.3 229.4 998.45 232.55
L 1015.55 280.05 1030.8 274.55 1013.7 227.05
Q 1012.55 223.9 1009.55 222.5 1006.5 221.05 1003.35 222.2 1000.2 223.35 998.75 226.4 Z"/>
</g>

<g id="S_mbolo_22_0_Layer0_0_FILL">
<path fill="#000000" stroke="none" d="
M 161.4 176.55
Q 152.55 171.5 147.3 180.45
L 95.4 269.8
Q 90.1 278.8 99.05 283.95
L 158.15 318.3
Q 167 323.5 172.25 314.5
L 224.2 225.1
Q 229.45 216.15 220.5 210.95
L 161.4 176.55
M 71.7 102.3
L 0.6 173.3
Q -6.55 180.45 0.5 187.5
L 47.55 234.55
Q 54.55 241.55 61.7 234.4
L 132.75 163.35
Q 139.85 156.2 132.85 149.2
L 85.85 102.2
Q 78.8 95.15 71.7 102.3
M 339.2 238.65
Q 340 227.5 329 226.75
L 255.55 221.65
Q 244.55 220.9 243.7 232.05
L 236 343.2
Q 235.25 354.3 246.25 355.1
L 319.7 360.15
Q 330.75 360.9 331.5 349.8
L 339.2 238.65
M 651.05 252.95
Q 661.25 244.6 652.8 234.35
L 568.75 132.25
Q 560.4 121.95 550.25 130.3
L 482.65 185.8
Q 472.6 194.05 480.9 204.3
L 565.05 306.65
Q 573.35 316.75 583.55 308.6
L 651.05 252.95
M 774.65 127.75
Q 783.75 115.9 771.85 106.75
L 653.7 15.1
Q 641.9 5.85 632.8 17.55
L 572.1 95.65
Q 563.1 107.25 574.9 116.5
L 693.15 208.2
Q 704.8 217.35 714.15 205.85
L 774.65 127.75 Z"/>
</g>

<g id="S_mbolo_22_0_Layer0_1_FILL">
<path fill="#000000" stroke="none" d="
M 462.95 210.1
Q 459.15 198.55 447.65 202.35
L 371.2 227.9
Q 359.85 231.6 363.6 243.3
L 402.3 358.95
Q 406.15 370.5 417.6 366.75
L 494 341.1
Q 505.5 337.35 501.65 325.75
L 462.95 210.1 Z"/>
</g>

<g id="Layer7_0_FILL">
<path fill="#F2F2F2" stroke="none" d="
M 184.75 381.65
Q 179.45 390.65 188.4 395.8
L 247.5 430.15
Q 256.35 435.35 261.6 426.35
L 313.55 336.95
Q 318.8 328 309.85 322.8
L 250.75 288.4
Q 241.9 283.35 236.65 292.3
L 184.75 381.65
M 137.9 349.4
Q 144.9 356.4 152.05 349.25
L 223.1 278.2
Q 230.2 271.05 223.2 264.05
L 176.2 217.05
Q 169.15 210 162.05 217.15
L 90.95 288.15
Q 83.8 295.3 90.85 302.35
L 137.9 349.4
M 453.55 334.75
Q 442.2 338.45 445.95 350.15
L 484.65 465.8
Q 488.5 477.35 499.95 473.6
L 576.35 447.95
Q 587.85 444.2 584 432.6
L 545.3 316.95
Q 541.5 305.4 530 309.2
L 453.55 334.75
M 341.9 329.5
Q 330.9 328.75 330.05 339.9
L 322.35 451.05
Q 321.6 462.15 332.6 462.95
L 406.05 468
Q 417.1 468.75 417.85 457.65
L 425.55 346.5
Q 426.35 335.35 415.35 334.6
L 341.9 329.5
M 729.4 355.8
Q 739.6 347.45 731.15 337.2
L 647.1 235.1
Q 638.75 224.8 628.6 233.15
L 561 288.65
Q 550.95 296.9 559.25 307.15
L 643.4 409.5
Q 651.7 419.6 661.9 411.45
L 729.4 355.8
M 709.15 119.4
L 648.45 197.5
Q 639.45 209.1 651.25 218.35
L 769.5 310.05
Q 781.15 319.2 790.5 307.7
L 851 229.6
Q 860.1 217.75 848.2 208.6
L 730.05 116.95
Q 718.25 107.7 709.15 119.4 Z"/>
</g>

<g id="Layer6_0_FILL">
<path fill="#E6E9E9" stroke="none" d="
M 268.1 467.9
L 262.75 469.8 305.35 512.4
Q 312.35 519.4 319.5 512.25
L 390.55 441.2
Q 397.65 434.05 390.65 427.05
L 388.15 424.55 382.75 426.5 386.25 430
Q 390.35 434.1 386.3 438.2
L 316.45 508
Q 312.35 512.15 308.2 508.05
L 268.1 467.9
M 309.3 507
Q 312.4 510 315.4 506.95
L 385.25 437.1
Q 388.25 434.1 385.2 431.1
L 381.2 427.05 269.7 467.35 309.3 507 Z"/>

<path fill="#DB474C" stroke="none" d="
M 340.75 384.45
Q 336.6 380.4 332.5 384.45
L 262.7 454.3
Q 258.55 458.4 262.7 462.5
L 268.1 467.9 308.2 508.05
Q 312.35 512.15 316.45 508
L 386.3 438.2
Q 390.35 434.1 386.25 430
L 382.75 426.5 340.75 384.45
M 333.65 385.5
Q 336.65 382.5 339.65 385.5
L 381.2 427.05 385.2 431.1
Q 388.25 434.1 385.25 437.1
L 315.4 506.95
Q 312.4 510 309.3 507
L 269.7 467.35 263.8 461.45
Q 260.8 458.4 263.8 455.35
L 333.65 385.5 Z"/>

<path fill="#F2F2F2" stroke="none" d="
M 339.65 385.5
Q 336.65 382.5 333.65 385.5
L 263.8 455.35
Q 260.8 458.4 263.8 461.45
L 269.7 467.35 381.2 427.05 339.65 385.5
M 343.65 380.05
Q 336.6 373 329.5 380.15
L 258.4 451.15
Q 251.25 458.3 258.3 465.35
L 262.75 469.8 268.1 467.9 262.7 462.5
Q 258.55 458.4 262.7 454.3
L 332.5 384.45
Q 336.6 380.4 340.75 384.45
L 382.75 426.5 388.15 424.55 343.65 380.05 Z"/>
</g>

<g id="Layer6_1_FILL">
<path fill="#E6E9E9" stroke="none" d="
M 474.2 484
L 469.3 487.3 473.75 489.95
Q 478.9 492.9 475.85 498.05
L 424.85 585.9
Q 421.9 591.05 416.7 588.1
L 366.2 558.75 361.35 562.05 414.95 593.15
Q 423.8 598.35 429.05 589.35
L 481 499.95
Q 486.25 491 477.3 485.8
L 474.2 484
M 472.95 491.3
L 467.9 488.35 367.6 557.75 417.45 586.75
Q 421.25 588.95 423.5 585.15
L 474.5 497.3
Q 476.7 493.5 472.95 491.3 Z"/>

<path fill="#F2F2F2" stroke="none" d="
M 408.25 458.75
Q 411.25 453.6 416.4 456.6
L 469.3 487.3 474.2 484 418.2 451.4
Q 409.35 446.35 404.1 455.3
L 352.2 544.65
Q 346.9 553.65 355.85 558.8
L 361.35 562.05 366.2 558.75 359.45 554.85
Q 354.25 551.8 357.25 546.65
L 408.25 458.75
M 415.6 457.95
Q 411.8 455.75 409.6 459.6
L 358.55 547.4
Q 356.35 551.25 360.1 553.45
L 367.6 557.75 467.9 488.35 415.6 457.95 Z"/>

<path fill="#333333" stroke="none" d="
M 416.4 456.6
Q 411.25 453.6 408.25 458.75
L 357.25 546.65
Q 354.25 551.8 359.45 554.85
L 366.2 558.75 416.7 588.1
Q 421.9 591.05 424.85 585.9
L 475.85 498.05
Q 478.9 492.9 473.75 489.95
L 469.3 487.3 416.4 456.6
M 409.6 459.6
Q 411.8 455.75 415.6 457.95
L 467.9 488.35 472.95 491.3
Q 476.7 493.5 474.5 497.3
L 423.5 585.15
Q 421.25 588.95 417.45 586.75
L 367.6 557.75 360.1 553.45
Q 356.35 551.25 358.55 547.4
L 409.6 459.6 Z"/>
</g>

<g id="Layer6_2_FILL">
<path fill="#E6E9E9" stroke="none" d="
M 578.85 497.35
L 575.8 502.85 581.3 503.3
Q 587.65 503.65 587.2 510.15
L 579.6 619.35
Q 579.25 625.7 572.8 625.3
L 510 620.95 506.95 626.4 573.5 631
Q 584.55 631.75 585.3 620.65
L 593 509.5
Q 593.8 498.35 582.8 497.6
L 578.85 497.35
M 581.15 505
L 574.9 504.55 510.9 619.35 572.95 623.6
Q 577.65 623.95 578 619.3
L 585.55 510
Q 585.9 505.3 581.15 505 Z"/>

<path fill="#F2F2F2" stroke="none" d="
M 503.2 504.35
Q 503.65 497.85 510.05 498.4
L 575.8 502.85 578.85 497.35 509.35 492.5
Q 498.35 491.75 497.5 502.9
L 489.8 614.05
Q 489.05 625.15 500.05 625.95
L 506.95 626.4 510 620.95 501.6 620.4
Q 495.25 619.95 495.6 613.5
L 503.2 504.35
M 509.95 500.05
Q 505.15 499.7 504.85 504.45
L 497.25 613.65
Q 496.9 618.35 501.75 618.7
L 510.9 619.35 574.9 504.55 509.95 500.05 Z"/>

<path fill="#DB474C" stroke="none" d="
M 510.05 498.4
Q 503.65 497.85 503.2 504.35
L 495.6 613.5
Q 495.25 619.95 501.6 620.4
L 510 620.95 572.8 625.3
Q 579.25 625.7 579.6 619.35
L 587.2 510.15
Q 587.65 503.65 581.3 503.3
L 575.8 502.85 510.05 498.4
M 504.85 504.45
Q 505.15 499.7 509.95 500.05
L 574.9 504.55 581.15 505
Q 585.9 505.3 585.55 510
L 578 619.3
Q 577.65 623.95 572.95 623.6
L 510.9 619.35 501.75 618.7
Q 496.9 618.35 497.25 613.65
L 504.85 504.45 Z"/>
</g>

<g id="Layer6_3_FILL">
<path fill="#333333" stroke="none" d="
M 707.2 483.05
Q 704.95 476.3 698.3 478.55
L 692.6 480.4 624.2 503.45
Q 617.6 505.55 619.75 512.3
L 657.65 625.8
Q 660 632.5 666.6 630.25
L 675.4 627.35 740.75 605.55
Q 747.4 603.25 745.15 596.6
L 707.2 483.05
M 692.4 482.55
L 698.85 480.3
Q 703.8 478.65 705.45 483.65
L 743.45 597.2
Q 745.1 602.25 740.15 603.75
L 675.7 625.3 666 628.55
Q 661.1 630.25 659.4 625.25
L 621.5 511.75
Q 619.85 506.75 624.8 505.1
L 692.4 482.55 Z"/>

<path fill="#F2F2F2" stroke="none" d="
M 666 628.55
L 675.7 625.3 692.4 482.55 624.8 505.1
Q 619.85 506.75 621.5 511.75
L 659.4 625.25
Q 661.1 630.25 666 628.55
M 692.6 480.4
L 693.4 473.55 621 497.75
Q 609.65 501.45 613.4 513.15
L 652.1 628.8
Q 655.95 640.35 667.4 636.6
L 674.55 634.25 675.4 627.35 666.6 630.25
Q 660 632.5 657.65 625.8
L 619.75 512.3
Q 617.6 505.55 624.2 503.45
L 692.6 480.4 Z"/>

<path fill="#E6E9E9" stroke="none" d="
M 698.85 480.3
L 692.4 482.55 675.7 625.3 740.15 603.75
Q 745.1 602.25 743.45 597.2
L 705.45 483.65
Q 703.8 478.65 698.85 480.3
M 693.4 473.55
L 692.6 480.4 698.3 478.55
Q 704.95 476.3 707.2 483.05
L 745.15 596.6
Q 747.4 603.25 740.75 605.55
L 675.4 627.35 674.55 634.25 743.8 610.95
Q 755.3 607.2 751.45 595.6
L 712.75 479.95
Q 708.95 468.4 697.45 472.2
L 693.4 473.55 Z"/>
</g>

<g id="Layer6_4_FILL">
<path fill="#DB474C" stroke="none" d="
M 815.3 567.3
Q 820.3 573.15 826.05 568.25
L 833.8 561.9 891.65 514.4
Q 897.55 509.55 892.65 503.7
L 810.05 403.25
Q 805.2 397.4 799.35 402.2
L 794.3 406.25 733.85 456.2
Q 727.9 460.9 732.75 466.8
L 815.3 567.3
M 833.3 559.75
L 824.85 566.8
Q 820.45 570.45 816.9 566.05
L 734.4 465.55
Q 730.8 461.3 735.1 457.6
L 794.85 408.45 800.6 403.85
Q 805.05 400.1 808.55 404.65
L 891.1 505.05
Q 894.7 509.45 890.4 512.85
L 833.3 559.75 Z"/>

<path fill="#E6E9E9" stroke="none" d="
M 833.3 559.75
L 890.4 512.85
Q 894.7 509.45 891.1 505.05
L 808.55 404.65
Q 805.05 400.1 800.6 403.85
L 794.85 408.45 833.3 559.75
M 833.8 561.9
L 835.7 569.25 896.85 518.8
Q 907.05 510.45 898.6 500.2
L 814.55 398.1
Q 806.2 387.8 796.05 396.15
L 792.45 399 794.3 406.25 799.35 402.2
Q 805.2 397.4 810.05 403.25
L 892.65 503.7
Q 897.55 509.55 891.65 514.4
L 833.8 561.9 Z"/>

<path fill="#F2F2F2" stroke="none" d="
M 824.85 566.8
L 833.3 559.75 794.85 408.45 735.1 457.6
Q 730.8 461.3 734.4 465.55
L 816.9 566.05
Q 820.45 570.45 824.85 566.8
M 835.7 569.25
L 833.8 561.9 826.05 568.25
Q 820.3 573.15 815.3 567.3
L 732.75 466.8
Q 727.9 460.9 733.85 456.2
L 794.3 406.25 792.45 399 728.45 451.65
Q 718.4 459.9 726.7 470.15
L 810.85 572.5
Q 819.15 582.6 829.35 574.45
L 835.7 569.25 Z"/>
</g>

<g id="Layer6_5_FILL">
<path fill="#F2F2F2" stroke="none" d="
M 877.3 293.95
L 873.45 286.5 815.9 360.5
Q 806.9 372.1 818.7 381.35
L 936.95 473.05
Q 948.6 482.2 957.95 470.7
L 963.55 463.3 959.65 455.75 952.65 464.7
Q 947.55 471.55 940.6 466.35
L 824.45 376.15
Q 817.65 370.95 823.15 364.2
L 877.3 293.95
M 824.8 365.4
Q 820.9 370.55 826.05 374.25
L 941.95 464.45
Q 947.05 468.5 950.95 463.35
L 958.55 453.45 878.45 296.35 824.8 365.4 Z"/>

<path fill="#333333" stroke="none" d="
M 1011.6 388.95
Q 1016.85 382.05 1010 376.95
L 893.85 286.8
Q 887.05 281.5 881.75 288.3
L 877.3 293.95 823.15 364.2
Q 817.65 370.95 824.45 376.15
L 940.6 466.35
Q 947.55 471.55 952.65 464.7
L 959.65 455.75 1011.6 388.95
M 1008.65 378.65
Q 1013.7 382.7 1009.85 387.6
L 958.55 453.45 950.95 463.35
Q 947.05 468.5 941.95 464.45
L 826.05 374.25
Q 820.9 370.55 824.8 365.4
L 878.45 296.35 883.55 289.75
Q 887.6 284.65 892.55 288.7
L 1008.65 378.65 Z"/>

<path fill="#E6E9E9" stroke="none" d="
M 1009.85 387.6
Q 1013.7 382.7 1008.65 378.65
L 892.55 288.7
Q 887.6 284.65 883.55 289.75
L 878.45 296.35 958.55 453.45 1009.85 387.6
M 1018.45 392.6
Q 1027.55 380.75 1015.65 371.6
L 897.5 279.95
Q 885.7 270.7 876.6 282.4
L 873.45 286.5 877.3 293.95 881.75 288.3
Q 887.05 281.5 893.85 286.8
L 1010 376.95
Q 1016.85 382.05 1011.6 388.95
L 959.65 455.75 963.55 463.3 1018.45 392.6 Z"/>
</g>

<g id="Layer5_0_FILL">
<path fill="#DB474C" stroke="none" d="
M 392.25 446.5
L 399.7 458.65 409.3 447.95 401.8 435.65 392.25 446.5
M 347 363.55
L 356.6 352.75 349.1 340.55 339.55 351.4 347 363.55 Z"/>
</g>

<g id="Layer4_0_FILL">
<path fill="#424242" stroke="none" d="
M 708.1 183.4
Q 705.4 187.05 705.45 191.6 705.5 196.1 707.8 200.45 712.35 209.7 716.85 218.95 724.55 234.75 730.4 244.95 738.25 258.9 742.5 262.05 747.1 265.5 753 264.55 758.8 263.65 762.3 258.9 766.5 253.3 764.2 245.95 763.55 243.7 758.15 233.45
L 770.45 217
Q 781.9 219.35 784.2 219.35 791.75 219.5 796 213.8 799.55 209.1 798.8 203.25 798.05 197.35 793.45 193.9 789 190.6 773.5 187 762.7 184.55 744.7 181.5 734.6 179.9 724.45 178.15 719.15 176.95 715.15 178.05 711.2 179.3 708.1 183.4
M 711.35 197.8
Q 709.8 194.85 709.6 191.8 709.45 188.75 711.55 185.95 713.8 182.95 716.95 182.15 719.5 181.7 723.5 182.4 733.25 184.1 742.8 185.7 759.45 188.6 771.85 191.35 787.45 194.8 790.8 197.3 794.05 199.75 794.45 203.95 794.85 208.1 792.5 211.25 789.1 215.8 781 214.85 774.8 213.5 768.6 212.2
L 752.95 233.15
Q 759.55 245.45 760.05 247.5 761.35 252.9 758.85 256.25 756.35 259.65 752.3 260.3 748.3 260.95 745.05 258.5 741.6 255.95 733.7 241.9 728.95 233.4 720.4 215.9 712.95 200.65 711.35 197.8
M 715.05 188.55
Q 713.75 190.3 714.05 192.45 714.3 194 715.55 196.25 719.75 204.8 724.1 213.3 731.85 228.65 738.05 239.75 745.65 253.6 747.65 255.1 749.4 256.45 751.7 255.9 754 255.45 755.3 253.65 757.1 251.25 754.8 245.35 751.25 239.05 747.8 232.75
L 766.75 207.35
Q 767.75 207.6 777.35 209.9 786.8 211.55 788.95 208.65 790.35 206.75 790.15 204.45 790 202.15 788.25 200.8 786.25 199.3 770.6 196 763.75 194.5 741.3 190.25 725.5 187.3 722.75 186.7 719.95 186.15 718.4 186.4 716.35 186.85 715.05 188.55
M 742.4 222.45
L 730.3 199.95 755.4 205.05 742.4 222.45
M 738.5 206.05
L 743 214.45 747.85 207.95 738.5 206.05
M 262.55 329.1
Q 261.4 331.15 262 333.5 262.65 335.9 264.75 337.1 266.15 337.9 268.3 337.75 268.85 337.7 274.4 336.2 276.85 335.5 277.8 334.9 278.75 334.25 279.4 333.15 280.55 331.1 279.95 328.8 279.3 326.45 277.2 325.25 275.5 324.25 273.6 324.5 272.85 324.55 271.4 325 268.95 325.65 266.55 326.2 263.65 327.2 262.55 329.1
M 274.75 326.25
Q 275.4 326.25 276.3 326.8 277.65 327.55 278.1 329.2 278.55 330.9 277.75 332.2 276.8 333.9 273.05 334.8 271.6 335.2 270.15 335.5 268.75 335.85 267.7 335.95 266.55 336 265.65 335.5 264.25 334.7 263.8 333.1 263.3 331.5 264.15 330.05 265.1 328.45 268.85 327.45 271.2 326.95 271.85 326.75 274 326.25 274.75 326.25
M 276.3 329.8
Q 276.1 328.9 275.35 328.5 274.45 327.95 270.4 329 266.35 330.1 265.85 331 265.35 331.9 265.75 332.9 266.05 333.55 266.6 333.9 267.5 334.4 271.5 333.35 275.6 332.25 276.15 331.3 276.55 330.6 276.3 329.8
M 214 364.25
Q 212.25 367.35 213.2 370.9 214.25 374.4 217.35 376.2 221.1 378.35 225.45 376.4 226.75 375.85 232.6 371.8
L 243.6 378.15
Q 243 385.3 243.15 386.7 243.6 391.35 247.4 393.55 250.55 395.35 254.05 394.45 257.65 393.6 259.4 390.5 261.1 387.55 262.2 377.8 262.9 371.25 263.45 359.8 264.05 347.55 264.05 347.1 264.35 343.85 263.35 341.45 262.35 339 259.7 337.45 257.2 336 254.45 336.45 251.75 336.8 249.2 338.5 243.9 342 238.55 345.4 229.45 351.25 223.6 355.55 215.7 361.4 214 364.25
M 225.7 357.45
Q 230.55 353.95 240.6 347.5 249.4 341.85 250.75 340.85 252.85 339.4 254.65 339.05 256.45 338.7 258.35 339.8 260.3 340.95 261 342.8 261.6 344.35 261.3 346.95 261 353 260.7 358.95 260.2 369.4 259.4 377.15 258.45 386.9 257.1 389.15 255.9 391.3 253.35 391.85 250.85 392.4 248.75 391.2 245.7 389.45 245.65 384.4 246.05 380.55 246.4 376.65
L 232.4 368.6
Q 225.4 373.5 224.15 374 221 375.15 218.75 373.9 216.5 372.6 215.8 370.15 215.1 367.75 216.3 365.6 217.65 363.3 225.7 357.45
M 225.1 370.6
Q 228.7 367.95 232.3 365.45
L 249.3 375.25
Q 249.25 375.8 248.5 381.85 248.15 387.7 250.05 388.8 251.3 389.55 252.75 389.3 254.15 389.05 254.8 387.85 255.6 386.5 256.45 376.65 257.05 371.25 257.9 358.25 258.65 347.55 258.7 346.7 258.9 345.05 258.6 344.1 258.2 342.85 257 342.15 255.85 341.5 254.5 341.8 253.65 342.05 252.3 343 240.7 350.85 229.2 358.65 219.45 365.55 218.6 366.95 217.95 368.15 218.45 369.5 218.9 370.8 220.05 371.5 221.7 372.45 225.1 370.6
M 251.2 352.2
L 249.85 368.1 238.2 361.35 251.2 352.2
M 247.55 363.55
L 248 357.75 243.25 361.1 247.55 363.55
M 518.4 367
Q 516.2 361.4 512.4 358.95 508.2 356.25 502.8 358.4 497.35 360.55 496.05 365.6 494.95 369.95 497.1 375.45
L 512.95 415.35
Q 515.2 420.95 519 423.4 523.4 426.1 528.85 423.95 534.3 421.75 535.5 416.8 536.55 412.6 534.25 406.9
L 518.4 367
M 511.2 362.2
Q 513.45 363.9 515.25 368.4
L 531 408.1
Q 532.7 412.35 532.2 415.4 531.55 419.15 527.55 420.75 523.35 422.4 520.3 420.1 517.95 418.35 516.2 414
L 500.45 374.3
Q 498.65 369.8 499.2 366.55 499.75 363.35 504.05 361.65 508.15 360 511.2 362.2
M 511.95 369.55
Q 510.8 366.65 509.6 365.45 507.85 363.8 505.3 364.8 503.25 365.6 502.7 367.45 502.05 369.2 503.5 372.9
L 519.35 412.8
Q 520.5 415.7 522 417.15 523.55 418.55 526.2 417.5 528.2 416.7 528.75 414.95 529.3 413.25 527.8 409.45
L 511.95 369.55 Z"/>

<path fill="#ED4C52" stroke="none" d="
M 157.15 252.75
Q 154.45 253.15 150.7 255.8 144.4 260 138.1 264.1 130.5 269.1 126.3 273.3 124.05 275.55 124.1 278.7 124.15 281.85 126.35 284.05 129.95 287.65 135.05 285.25 136.3 284.7 143 279.9 142.2 281.7 140.15 286.65 137.05 294.75 140.6 298.3 143.75 301.45 149.85 299.65 154.45 297.85 159.05 295.95 157.85 297.65 154.85 301.85 150.7 308.4 154.9 312.6 157.2 314.9 160.25 314.95 163.35 314.95 165.65 312.65 170.25 308.05 176.95 297.65 181.7 290.3 183.15 288.25 185.85 284.45 186.3 281.75 186.85 278.25 183.9 275.3 180.25 271.65 171.15 274.65 165.2 277.2 159.2 279.7 160.15 277.45 164.35 267.75 167.3 258.7 163.65 255.05 160.75 252.15 157.15 252.75
M 152.05 257.65
Q 155.9 254.9 158.3 255 160.3 255 162.05 256.75 163.75 258.45 163.5 260.9 163.4 262.2 162.3 265.3
L 155.2 283.65 173.7 276.7
Q 176.1 275.8 177 275.6 180.2 274.9 182.2 276.9 183.95 278.65 183.95 280.85 184 283 181.3 286.9
L 165.9 308.6
Q 165 310 164 311 162.45 312.55 160.2 312.5 158.05 312.45 156.5 310.9 153.25 307.65 158.35 299.85 161.85 295.45 165.4 291 162.5 292.4 159.65 293.85 154.15 296.35 149.85 297.35 144.25 298.55 142.3 296.6 140.35 294.65 141.65 289.05 142.6 285 145.2 279.3 146.6 276.5 148 273.6 146.8 274.4 139 280.6 131.3 285.7 128.05 282.45 126.4 280.8 126.35 278.65 126.4 276.5 127.95 274.95 128.45 274.45 129 274 129.65 273.55 130.4 273.1
L 152.05 257.65
M 160.15 264.35
Q 161 262.1 161.15 261.25 161.45 259.35 160.35 258.25 158.9 256.8 156.75 257.55 155.75 257.95 153.4 259.6
L 131.7 274.9
Q 131.5 275.1 130.95 275.45 130.4 275.8 129.6 276.6 128.7 277.5 128.8 278.7 128.85 279.95 129.65 280.75 130.85 281.95 132.4 281.5 133.1 281.2 135 280
L 152.85 267.25 144.35 289.15
Q 143.45 291.45 143.3 292.2 142.95 294.15 143.85 295.05 144.85 296.05 146.85 295.65 147.4 295.5 149.8 294.6
L 171.7 286.1 159 304
Q 157.8 305.7 157.5 306.6 157.05 308.15 158.2 309.3 159.15 310.25 160.25 310.35 161.4 310.4 162.4 309.4 162.7 309.1 163.15 308.45 163.6 307.8 164.05 307.25
L 179.35 285.55
Q 181.15 283.05 181.5 282.15 182.25 280.15 180.65 278.55 179.55 277.45 177.6 277.8 176.95 277.85 174.6 278.8
L 151.3 287.6 160.15 264.35 Z"/>

<path fill="#DB474C" stroke="none" d="
M 644.35 286.05
Q 631.8 287.4 623.25 293.95 610.25 303.95 607.95 320.1 605.6 336.3 615.6 349.3 625.65 362.45 641.9 364.3 658.15 366.15 671.35 356.05 679.75 349.6 684.35 337.9 689.55 324.6 683.6 316.85 680.6 312.9 675.5 312.35 670.4 311.7 666.55 314.65 664.25 316.4 661 328.65 659.55 334.15 655.8 337 651 340.7 645 339.9 639.05 339.15 635.4 334.4 631.7 329.55 632.4 323.5 633.1 317.5 638 313.75 642.4 310.4 653.65 311.7 658.9 312.2 662.55 309.4 666.55 306.35 667.25 301.4 668 296.5 664.95 292.5 658.75 284.45 644.35 286.05
M 625.5 296.9
Q 632.7 291.4 643.95 289.85 656.9 288.1 662 294.75 664 297.4 663.45 300.9 662.9 304.4 660.2 306.5 657.9 308.25 649.75 307.35 641.5 306.4 635.75 310.8 629.7 315.45 628.75 323 627.85 330.6 632.55 336.75 637.05 342.6 644.65 343.6 652.35 344.5 658.15 340.05 663.3 336.1 665.05 327.65 666.8 319.15 668.75 317.65 671.45 315.55 675.05 316.05 678.7 316.5 680.65 319.15 685.65 325.6 680.55 337.4 676.2 347.6 669.05 353.05 657.2 362.1 642.5 360.45 627.7 358.8 618.65 347 609.7 335.35 611.7 320.6 613.75 305.9 625.5 296.9
M 615.55 321.1
Q 613.7 334.4 621.6 344.75 629.75 355.4 643 356.85 656.15 358.25 666.85 350.05 672.6 345.65 676.75 336.8 681.55 326.5 677.75 321.5 676.75 320.2 674.75 319.85 672.8 319.45 671.45 320.5 669.5 326.8 667.65 333.1 665.55 339.05 660.4 343 653.2 348.5 644.15 347.3 635.1 346.1 629.65 339 623.75 331.3 625.1 322.4 626.3 313.4 634.05 307.5 639.9 303 648.7 303.45 657.45 304 658.15 303.5 659.6 302.4 659.85 300.4 660.25 298.45 659.15 297 655.1 291.75 643.6 293.7 633.6 295.4 627.8 299.85 617.35 307.85 615.55 321.1
M 356.55 372.3
Q 346 380.35 344.4 393.55 342.7 407.25 351.1 417.5 359.4 427.65 373.25 429.35 383.65 430.65 390.3 427.95 398.55 424.55 399.7 415.15
L 400.9 405.3
Q 401.7 398.8 399.6 395.95 397.4 393.1 391 392.3
L 382.3 391.25
Q 377.2 390.6 373.7 392.45 370.2 394.25 369.6 399.15 369.1 403.15 371.65 406.2 374.2 409.2 378.05 409.7
L 379.2 409.75
Q 377.6 410.15 375.95 409.95 370.6 409.3 367.1 405.35 363.65 401.4 364.3 396.1 364.85 391.4 368.85 388.3 372.85 385.25 377.5 385.85 379 386 383.95 388.25 386.1 389.25 387.75 389.5 391.85 390 394.8 387.4 397.7 384.85 398.2 380.8 399 374.4 392.5 370.1 387.4 366.75 380.4 365.9 367.1 364.25 356.55 372.3
M 347.5 393.95
Q 348.95 382 358.5 374.75 367.95 367.5 380.05 369 385.95 369.7 390.2 372.15 395.75 375.45 395.15 380.55 394.8 383.25 392.85 385.05 390.85 386.8 388.1 386.5 386.7 386.3 384.3 385.15 379.6 382.95 377.85 382.75 371.8 382 366.85 385.9 362 389.8 361.3 395.75 360.45 402.5 364.65 407.25 368.85 411.95 375.55 412.8 379.55 413.3 383.45 412.1
L 384.05 407.6
Q 378.15 406.85 376.15 405.95 372.05 404.2 372.65 399.55 373.1 396 375.95 394.8 378.15 393.9 381.9 394.35
L 390.6 395.4
Q 395.55 396.05 397 398 398.45 399.9 397.8 404.95
L 396.6 414.8
Q 395.6 422.85 388.2 425.55 382.8 427.5 373.7 426.35 361 424.8 353.5 415.65 345.95 406.5 347.5 393.95
M 360.35 377.1
Q 351.85 383.55 350.55 394.3 349.15 405.65 355.9 413.75 362.65 421.9 374.05 423.3 381.85 424.3 386.5 422.95 392.8 421.05 393.6 414.4
L 394.85 404.15
Q 395 402.95 395 401.65 395 400.3 394.4 399.5 392.4 398.7 390.25 398.4
L 381.55 397.35
Q 379.2 397.05 377.5 397.5 375.9 397.95 375.6 400.05 375.35 402.1 377.3 403.1 379.35 404.1 382.4 404.5 382.9 404.55 384.8 404.7 386.7 404.85 387.4 404.9
L 386.2 414.7
Q 380.65 416.55 375.2 415.9 367.3 414.9 362.35 409.1 357.3 403.25 358.3 395.4 359.15 388.2 365.1 383.55 370.95 378.8 378.25 379.75 380.25 379.95 383.55 381.6 386.85 383.15 388.5 383.4 389.95 383.55 390.9 382.65 391.95 381.7 392.15 380.2 392.55 376.7 387.5 374.25 384.05 372.55 379.7 372.05 368.8 370.7 360.35 377.1 Z"/>
</g>

<g id="Layer3_0_FILL">
<path fill="#424242" stroke="none" d="
M 509.25 460.95
L 509 460.1
Q 507.5 460.45 506.7 459.55
L 502 459.55
Q 502.05 460 502.05 460.45 501.8 461.95 500.25 462.45
L 500.4 463.35 509.25 460.95
M 569.3 433.3
Q 569.15 431.6 568.3 430.15
L 569.35 428
Q 570.8 425.5 570.05 422.55 569.3 419.85 566.7 418.4 565.05 417.55 563.3 417.6 562.1 417.6 560.75 418 559.6 418.5 558.55 419.4 557.85 418.15 557.85 417.15 557.8 415.8 559.25 415.4
L 558.9 414.65 551.6 417.3 551.8 418.15
Q 553.25 417.6 554.15 418.55 554.8 419.4 554.9 420.75 553.6 420.75 552.35 421.1 551.2 421.5 550.15 422.4 548.7 423.55 548.05 425.35 547.2 428 548.25 430.7 549.5 433.3 552.3 434.35
L 554.55 435.25
Q 554.9 436.9 555.7 438.2 557.3 440.75 560.4 441.5 562.6 441.85 564.55 441.2 566.65 440.5 567.85 438.75 569.85 436.25 569.3 433.3
M 476.35 345.4
Q 475.05 342.8 472.1 341.75 470.1 341.2 468 341.6 465.95 342.15 464.35 343.85 462.4 346.15 462.45 349.3 462.45 350.75 463.3 352.3
L 461.75 354.4
Q 460.25 356.8 460.75 359.6 461.2 362.55 463.7 364.2 465.25 365.2 467.1 365.25 468.25 365.5 469.55 364.95 470.85 364.8 471.9 363.9 472.3 364.75 472.45 365.4
L 476.45 365.4
Q 476.35 365.3 476.3 365.2 475.8 364.4 475.7 362.85 477 363 478.15 362.8 479.45 362.55 480.5 361.7 482.05 360.65 482.85 358.9 484.1 356.35 483.15 353.6 482.25 350.95 479.55 349.7
L 477.3 348.5
Q 477.25 346.85 476.35 345.4 Z"/>
</g>

<g id="Layer2_0_FILL">
<path fill="#424242" stroke="none" d="
M 253.9 406.4
Q 254.3 405.3 254.8 404.8 255.6 404.1 256.55 404.8
L 256.85 404.25 251.55 401.1 251.3 401.7
Q 252.25 402.3 252.15 403.35 252.1 403.65 251.85 404.05
L 251.25 404.8
Q 251.2 404.85 251.2 404.9 250.6 404.05 249.75 403.55 248.85 403.1 247.85 402.9 245.7 402.5 243.7 403.85 241.95 404.95 241.55 407.25 241.5 407.4 241.5 407.55
L 241.6 409.4
Q 241.65 409.7 241.75 410
L 244.9 419.05 254.1 417.15
Q 256.4 416.75 257.55 414.85 258.75 413 258.4 410.9 258.2 409.35 257.25 408.3 256.6 407.55 255.75 407 254.8 406.55 253.9 406.4
M 239.4 304.25
Q 238.05 306.05 238.55 308.3 238.8 309.75 239.85 310.75 240.35 311.5 241.25 312.1 242.2 312.6 243.15 312.8 242.8 313.75 242.2 314.4 241.4 315.05 240.45 314.4
L 240.1 314.9 245.35 318 245.75 317.5
Q 244.75 316.9 244.9 315.85 244.95 315.5 245.25 315.1
L 245.75 314.4 245.8 314.25
Q 246.5 315.05 247.2 315.55 248.2 316.1 249.2 316.2 251.4 316.7 253.25 315.45 255.1 314.15 255.5 311.9 255.55 311.8 255.55 311.5
L 255.4 309.65
Q 255.4 309.35 255.2 309.05
L 252.15 300.2 242.9 302
Q 240.6 302.4 239.4 304.25
M 835.15 218.9
Q 835.6 215.65 833.6 213.05 831.6 210.6 828.7 210.2 826.6 210 824.65 210.85 823.35 211.25 822.25 212.25 821.2 213.2 820.55 214.45 819.35 213.5 818.85 212.6 818.5 211.2 819.7 210.2
L 819 209.55 812.65 215.25 813.1 215.85
Q 814.45 214.8 815.8 215.5 816.1 215.75 816.45 216.2
L 816.55 216.2 817.35 217.35 817.45 217.4
Q 816.1 217.8 815.1 218.75 813.9 219.75 813.3 221.1 811.8 223.8 812.65 226.9 813.65 229.75 816.4 231.4 816.55 231.55 816.8 231.6
L 819.35 232.35
Q 819.8 232.35 820.2 232.35
L 832.9 232.05 833.5 231.9 835.15 218.9
M 684.85 195.35
L 682.3 194.55
Q 681.9 194.55 681.5 194.55
L 668.2 195 666.65 208.2
Q 666 211.25 668.1 213.75 670.1 216.2 673.15 216.65 675.25 217 677.05 216.2 678.3 215.7 679.4 214.65 680.45 213.7 681.15 212.45 682.4 213.4 682.85 214.45 683.3 215.75 682.1 216.65
L 682.7 217.4 689.1 211.65 688.55 210.95
Q 687.15 212.15 686.1 211.45 685.45 211.05 685.15 210.8
L 685.15 210.85 684.45 209.65
Q 684.45 209.6 684.1 209.45 685.6 209 686.6 208.2 687.6 207.15 688.45 205.85 690 203.15 688.95 200.05 688.15 197.05 685.4 195.45 685.15 195.35 684.85 195.35 Z"/>

<path fill="#DB474C" stroke="none" d="
M 178.9 234.55
Q 178.85 232.9 178.15 231.55 177.45 230.05 175.85 229.25 175.25 229.05 174.5 228.85 174.05 228.8 173.5 228.85 173.15 227.4 172.15 226.25 171.3 225.1 169.95 224.75 167.7 224.05 165.75 225.1 163.75 226.1 163.05 228.1 162.65 229.5 162.9 231
L 164.65 240.15 172 240.15
Q 173.85 240.25 175.1 239.55 177.1 238.65 178.15 237.4 178.9 236.15 178.9 234.55
M 138.9 327.05
Q 137 328.1 136.05 329.4 135 330.55 135 332.05 135.25 333.55 135.85 335.05 136.6 336.6 138.2 337.45 138.85 337.65 139.55 337.85 139.95 337.85 140.55 337.85 140.9 339.2 141.85 340.4 142.7 341.55 144.15 341.9 146.3 342.55 148.25 341.55 150.3 340.55 151.05 338.55 151.5 337.15 151.15 335.6
L 149.4 326.45 142.05 326.45
Q 140.3 326.45 138.9 327.05
M 582.35 292.75
Q 580.2 292.65 578.15 293.5 576.15 294.55 575 296.35 573 299.35 573.8 302.55 574.5 305.9 577.4 307.7 579.2 308.95 581.45 309
L 595.65 309.95 598.4 299.35
Q 599.25 296.85 598.55 294.7 598.05 291.25 596.5 289.45 595.1 287.5 592.8 286.95 590.7 286.45 588.35 286.95 585.6 287.45 583.95 289.45 583.4 290.25 582.9 291.15 582.55 291.9 582.35 292.75
M 712.6 336.7
L 698.45 336.25 696 346.85
Q 695.4 349.35 696 351.45 696.6 354.85 698.05 356.8 699.6 358.45 701.75 359.1 704.05 359.5 706.5 358.9 709.2 358.35 710.8 356.25 711.2 355.45 711.85 354.6 712.2 353.9 712.2 352.95 714.5 353.05 716.35 352 718.35 351 719.4 349 721.2 346.15 720.45 342.85 719.65 339.5 716.65 337.85 714.9 336.8 712.6 336.7 Z"/>
</g>

<g id="qqqq_0_Layer0_0_MEMBER_0_FILL">
<path fill="#FFFFFF" fill-opacity="0.3137254901960784" stroke="none" d="
M 7.8 0
Q 4.55 0 2.3 2.3 -0.05 4.6 0 7.9 -0.05 11.1 2.3 13.4 4.55 15.7 7.8 15.7 11.05 15.7 13.4 13.4 15.7 11.1 15.7 7.9 15.7 4.6 13.4 2.3 11.05 0 7.8 0 Z"/>
</g>

<g id="qqqq_0_Layer0_0_MEMBER_1_FILL">
<path fill="#FFFFFF" fill-opacity="0.2901960784313726" stroke="none" d="
M 7.9 1.3
Q 5.2 1.3 3.25 3.25 1.3 5.2 1.3 7.95 1.3 10.65 3.25 12.6 5.2 14.5 7.9 14.5 10.65 14.5 12.6 12.6 14.5 10.65 14.5 7.95 14.5 5.2 12.6 3.25 10.65 1.3 7.9 1.3 Z"/>
</g>

<g id="qqqq_0_Layer0_0_MEMBER_2_FILL">
<path fill="#FFFFFF" fill-opacity="0.2901960784313726" stroke="none" d="
M 7.85 2.5
Q 5.65 2.5 4.05 4.1 2.5 5.7 2.5 7.9 2.5 10.15 4.05 11.75 5.65 13.3 7.85 13.3 10.1 13.3 11.7 11.75 13.25 10.15 13.25 7.9 13.25 5.7 11.7 4.1 10.1 2.5 7.85 2.5 Z"/>
</g>

<g id="qqqq_0_Layer0_0_MEMBER_3_FILL">
<path fill="#FFFFFF" fill-opacity="0.2901960784313726" stroke="none" d="
M 8.1 3.2
Q 6.2 3.2 4.8 4.6 3.45 5.95 3.45 7.9 3.45 9.8 4.8 11.15 6.2 12.5 8.1 12.5 10.05 12.5 11.4 11.15 12.75 9.8 12.75 7.9 12.75 5.95 11.4 4.6 10.05 3.2 8.1 3.2 Z"/>
</g>

<g id="qqqq_0_Layer0_0_MEMBER_4_FILL">
<path fill="#FFFFFF" fill-opacity="0.6" stroke="none" d="
M 8.2 3.85
Q 6.5 3.85 5.25 5.1 4 6.35 4 8.1 4 9.8 5.25 11.05 6.5 12.3 8.2 12.3 9.95 12.3 11.2 11.05 12.45 9.8 12.45 8.1 12.45 6.35 11.2 5.1 9.95 3.85 8.2 3.85 Z"/>
</g>

<g id="brilho_0_Layer0_0_MEMBER_0_FILL">
<path fill="#FFFFFF" fill-opacity="0.3137254901960784" stroke="none" d="
M -1.55 -15.15
Q -8 -15.15 -12.55 -10.6 -17.15 -6.05 -17.1 0.45 -17.15 6.9 -12.55 11.45 -8 16 -1.55 16 4.9 16 9.5 11.45 14.05 6.9 14.05 0.45 14.05 -6.05 9.5 -10.6 4.9 -15.15 -1.55 -15.15 Z"/>
</g>

<g id="brilho_0_Layer0_0_MEMBER_1_FILL">
<path fill="#FFFFFF" fill-opacity="0.2901960784313726" stroke="none" d="
M -1.4 -12.6
Q -6.8 -12.6 -10.65 -8.75 -14.5 -4.9 -14.5 0.55 -14.5 5.95 -10.65 9.8 -6.8 13.65 -1.4 13.65 4.05 13.65 7.9 9.8 11.75 5.95 11.75 0.55 11.75 -4.9 7.9 -8.75 4.05 -12.6 -1.4 -12.6 Z"/>
</g>

<g id="brilho_0_Layer0_0_MEMBER_2_FILL">
<path fill="#FFFFFF" fill-opacity="0.2901960784313726" stroke="none" d="
M -1.45 -10.2
Q -5.85 -10.2 -9 -7.05 -12.15 -3.9 -12.15 0.5 -12.15 4.95 -9 8.1 -5.85 11.2 -1.45 11.2 3 11.2 6.15 8.1 9.25 4.95 9.25 0.5 9.25 -3.9 6.15 -7.05 3 -10.2 -1.45 -10.2 Z"/>
</g>

<g id="brilho_0_Layer0_0_MEMBER_3_FILL">
<path fill="#FFFFFF" stroke="none" d="
M -0.45 -24.9
L -3.1 -1.85 -17.75 0.75 -3.6 4.1 -0.95 24.9 1.7 3.9 17.75 1.5 1.95 -0.9 -0.45 -24.9 Z"/>
</g>

<g id="brilho_0_Layer0_0_MEMBER_4_FILL">
<path fill="#FFFFFF" fill-opacity="0.2901960784313726" stroke="none" d="
M -0.95 -8.8
Q -4.8 -8.8 -7.5 -6.1 -10.2 -3.4 -10.2 0.45 -10.2 4.25 -7.5 6.95 -4.8 9.65 -0.95 9.65 2.85 9.65 5.55 6.95 8.25 4.25 8.25 0.45 8.25 -3.4 5.55 -6.1 2.85 -8.8 -0.95 -8.8 Z"/>
</g>

<g id="brilho_0_Layer0_0_MEMBER_5_FILL">
<path fill="#FFFFFF" fill-opacity="0.6" stroke="none" d="
M -0.75 -7.5
Q -4.2 -7.55 -6.65 -5.1 -9.1 -2.6 -9.1 0.85 -9.1 4.3 -6.65 6.75 -4.2 9.2 -0.75 9.2 2.7 9.2 5.15 6.75 7.6 4.3 7.6 0.85 7.6 -2.6 5.15 -5.1 2.7 -7.55 -0.75 -7.5 Z"/>
</g>
</defs>

<g transform="matrix( 1, 0, 0, 1, 825.5,62.7) ">
<g transform="matrix( 1, 0, 0, 1, 0,0) ">
<use filter="url(#Filter_1)" xlink:href="#S_mbolo_24_0_Layer0_0_FILL"/>
</g>
</g>

<g transform="matrix( 1, 0, 0, 1, -167.45,-163) ">
<use xlink:href="#Layer9_0_FILL"/>
</g>

<g transform="matrix( 1, 0, 0, 1, 77.35,115.85) ">
<g transform="matrix( 1, 0, 0, 1, 0,0) ">
<use filter="url(#Filter_2)" xlink:href="#S_mbolo_22_0_Layer0_0_FILL"/>
</g>

<g transform="matrix( 1, 0, 0, 1, -1,2) ">
<use filter="url(#Filter_2)" xlink:href="#S_mbolo_22_0_Layer0_1_FILL"/>
</g>
</g>

<g transform="matrix( 1, 0, 0, 1, 0,0) ">
<use xlink:href="#Layer7_0_FILL"/>
</g>

<g transform="matrix( 1, 0, 0, 1, -167.45,-163) ">
<use xlink:href="#Layer6_0_FILL"/>
</g>

<g transform="matrix( 1, 0, 0, 1, -167.45,-163) ">
<use xlink:href="#Layer6_1_FILL"/>
</g>

<g transform="matrix( 1, 0, 0, 1, -167.45,-163) ">
<use xlink:href="#Layer6_2_FILL"/>
</g>

<g transform="matrix( 1, 0, 0, 1, -167.45,-163) ">
<use xlink:href="#Layer6_3_FILL"/>
</g>

<g transform="matrix( 1, 0, 0, 1, -167.45,-163) ">
<use xlink:href="#Layer6_4_FILL"/>
</g>

<g transform="matrix( 1, 0, 0, 1, -167.45,-163) ">
<use xlink:href="#Layer6_5_FILL"/>
</g>

<g transform="matrix( 1, 0, 0, 1, 0,0) ">
<use xlink:href="#Layer5_0_FILL"/>
</g>

<g transform="matrix( 1, 0, 0, 1, 0,0) ">
<use xlink:href="#Layer4_0_FILL"/>
</g>

<g transform="matrix( 1, 0, 0, 1, 0,0) ">
<use xlink:href="#Layer3_0_FILL"/>
</g>

<g transform="matrix( 1, 0, 0, 1, 0,0) ">
<use xlink:href="#Layer2_0_FILL"/>
</g>

<g transform="matrix( 0.66363525390625, 0, 0, 0.66363525390625, 77.15,37.45) ">
<g transform="matrix( 1, 0, 0, 1, 0,0) ">
<use xlink:href="#qqqq_0_Layer0_0_MEMBER_0_FILL"/>
</g>

<g transform="matrix( 1, 0, 0, 1, 0,0) ">
<use xlink:href="#qqqq_0_Layer0_0_MEMBER_1_FILL"/>
</g>

<g transform="matrix( 1, 0, 0, 1, 0,0) ">
<use xlink:href="#qqqq_0_Layer0_0_MEMBER_2_FILL"/>
</g>

<g transform="matrix( 1, 0, 0, 1, 0,0) ">
<use xlink:href="#qqqq_0_Layer0_0_MEMBER_3_FILL"/>
</g>

<g transform="matrix( 1, 0, 0, 1, 0,0) ">
<use xlink:href="#qqqq_0_Layer0_0_MEMBER_4_FILL"/>
</g>
</g>

<g transform="matrix( 1.2024993896484375, 0, 0, 1.2024993896484375, 1.15,128.3) ">
<g transform="matrix( 1, 0, 0, 1, 0,0) ">
<use xlink:href="#qqqq_0_Layer0_0_MEMBER_0_FILL"/>
</g>

<g transform="matrix( 1, 0, 0, 1, 0,0) ">
<use xlink:href="#qqqq_0_Layer0_0_MEMBER_1_FILL"/>
</g>

<g transform="matrix( 1, 0, 0, 1, 0,0) ">
<use xlink:href="#qqqq_0_Layer0_0_MEMBER_2_FILL"/>
</g>

<g transform="matrix( 1, 0, 0, 1, 0,0) ">
<use xlink:href="#qqqq_0_Layer0_0_MEMBER_3_FILL"/>
</g>

<g transform="matrix( 1, 0, 0, 1, 0,0) ">
<use xlink:href="#qqqq_0_Layer0_0_MEMBER_4_FILL"/>
</g>
</g>

<g transform="matrix( 1.2024993896484375, 0, 0, 1.2024993896484375, 44.95,285) ">
<g transform="matrix( 1, 0, 0, 1, 0,0) ">
<use xlink:href="#qqqq_0_Layer0_0_MEMBER_0_FILL"/>
</g>

<g transform="matrix( 1, 0, 0, 1, 0,0) ">
<use xlink:href="#qqqq_0_Layer0_0_MEMBER_1_FILL"/>
</g>

<g transform="matrix( 1, 0, 0, 1, 0,0) ">
<use xlink:href="#qqqq_0_Layer0_0_MEMBER_2_FILL"/>
</g>

<g transform="matrix( 1, 0, 0, 1, 0,0) ">
<use xlink:href="#qqqq_0_Layer0_0_MEMBER_3_FILL"/>
</g>

<g transform="matrix( 1, 0, 0, 1, 0,0) ">
<use xlink:href="#qqqq_0_Layer0_0_MEMBER_4_FILL"/>
</g>
</g>

<g transform="matrix( 1.2024993896484375, 0, 0, 1.2024993896484375, 260.1,243.1) ">
<g transform="matrix( 1, 0, 0, 1, 0,0) ">
<use xlink:href="#qqqq_0_Layer0_0_MEMBER_0_FILL"/>
</g>

<g transform="matrix( 1, 0, 0, 1, 0,0) ">
<use xlink:href="#qqqq_0_Layer0_0_MEMBER_1_FILL"/>
</g>

<g transform="matrix( 1, 0, 0, 1, 0,0) ">
<use xlink:href="#qqqq_0_Layer0_0_MEMBER_2_FILL"/>
</g>

<g transform="matrix( 1, 0, 0, 1, 0,0) ">
<use xlink:href="#qqqq_0_Layer0_0_MEMBER_3_FILL"/>
</g>

<g transform="matrix( 1, 0, 0, 1, 0,0) ">
<use xlink:href="#qqqq_0_Layer0_0_MEMBER_4_FILL"/>
</g>
</g>

<g transform="matrix( 1.2024993896484375, 0, 0, 1.2024993896484375, 265.3,450.45) ">
<g transform="matrix( 1, 0, 0, 1, 0,0) ">
<use xlink:href="#qqqq_0_Layer0_0_MEMBER_0_FILL"/>
</g>

<g transform="matrix( 1, 0, 0, 1, 0,0) ">
<use xlink:href="#qqqq_0_Layer0_0_MEMBER_1_FILL"/>
</g>

<g transform="matrix( 1, 0, 0, 1, 0,0) ">
<use xlink:href="#qqqq_0_Layer0_0_MEMBER_2_FILL"/>
</g>

<g transform="matrix( 1, 0, 0, 1, 0,0) ">
<use xlink:href="#qqqq_0_Layer0_0_MEMBER_3_FILL"/>
</g>

<g transform="matrix( 1, 0, 0, 1, 0,0) ">
<use xlink:href="#qqqq_0_Layer0_0_MEMBER_4_FILL"/>
</g>
</g>

<g transform="matrix( 1.2024993896484375, 0, 0, 1.2024993896484375, 698.7,424.95) ">
<g transform="matrix( 1, 0, 0, 1, 0,0) ">
<use xlink:href="#qqqq_0_Layer0_0_MEMBER_0_FILL"/>
</g>

<g transform="matrix( 1, 0, 0, 1, 0,0) ">
<use xlink:href="#qqqq_0_Layer0_0_MEMBER_1_FILL"/>
</g>

<g transform="matrix( 1, 0, 0, 1, 0,0) ">
<use xlink:href="#qqqq_0_Layer0_0_MEMBER_2_FILL"/>
</g>

<g transform="matrix( 1, 0, 0, 1, 0,0) ">
<use xlink:href="#qqqq_0_Layer0_0_MEMBER_3_FILL"/>
</g>

<g transform="matrix( 1, 0, 0, 1, 0,0) ">
<use xlink:href="#qqqq_0_Layer0_0_MEMBER_4_FILL"/>
</g>
</g>

<g transform="matrix( 1.2024993896484375, 0, 0, 1.2024993896484375, 583.5,225.7) ">
<g transform="matrix( 1, 0, 0, 1, 0,0) ">
<use xlink:href="#qqqq_0_Layer0_0_MEMBER_0_FILL"/>
</g>

<g transform="matrix( 1, 0, 0, 1, 0,0) ">
<use xlink:href="#qqqq_0_Layer0_0_MEMBER_1_FILL"/>
</g>

<g transform="matrix( 1, 0, 0, 1, 0,0) ">
<use xlink:href="#qqqq_0_Layer0_0_MEMBER_2_FILL"/>
</g>

<g transform="matrix( 1, 0, 0, 1, 0,0) ">
<use xlink:href="#qqqq_0_Layer0_0_MEMBER_3_FILL"/>
</g>

<g transform="matrix( 1, 0, 0, 1, 0,0) ">
<use xlink:href="#qqqq_0_Layer0_0_MEMBER_4_FILL"/>
</g>
</g>

<g transform="matrix( 0.979522705078125, 0, 0, 0.979522705078125, 917.2,152.25) ">
<g transform="matrix( 1, 0, 0, 1, 0,0) ">
<use xlink:href="#qqqq_0_Layer0_0_MEMBER_0_FILL"/>
</g>

<g transform="matrix( 1, 0, 0, 1, 0,0) ">
<use xlink:href="#qqqq_0_Layer0_0_MEMBER_1_FILL"/>
</g>

<g transform="matrix( 1, 0, 0, 1, 0,0) ">
<use xlink:href="#qqqq_0_Layer0_0_MEMBER_2_FILL"/>
</g>

<g transform="matrix( 1, 0, 0, 1, 0,0) ">
<use xlink:href="#qqqq_0_Layer0_0_MEMBER_3_FILL"/>
</g>

<g transform="matrix( 1, 0, 0, 1, 0,0) ">
<use xlink:href="#qqqq_0_Layer0_0_MEMBER_4_FILL"/>
</g>
</g>

<g transform="matrix( 1.2024993896484375, 0, 0, 1.2024993896484375, 838.75,276.3) ">
<g transform="matrix( 1, 0, 0, 1, 0,0) ">
<use xlink:href="#qqqq_0_Layer0_0_MEMBER_0_FILL"/>
</g>

<g transform="matrix( 1, 0, 0, 1, 0,0) ">
<use xlink:href="#qqqq_0_Layer0_0_MEMBER_1_FILL"/>
</g>

<g transform="matrix( 1, 0, 0, 1, 0,0) ">
<use xlink:href="#qqqq_0_Layer0_0_MEMBER_2_FILL"/>
</g>

<g transform="matrix( 1, 0, 0, 1, 0,0) ">
<use xlink:href="#qqqq_0_Layer0_0_MEMBER_3_FILL"/>
</g>

<g transform="matrix( 1, 0, 0, 1, 0,0) ">
<use xlink:href="#qqqq_0_Layer0_0_MEMBER_4_FILL"/>
</g>
</g>

<g transform="matrix( 1.2024993896484375, 0, 0, 1.2024993896484375, 91.4,385.65) ">
<g transform="matrix( 1, 0, 0, 1, 0,0) ">
<use xlink:href="#qqqq_0_Layer0_0_MEMBER_0_FILL"/>
</g>

<g transform="matrix( 1, 0, 0, 1, 0,0) ">
<use xlink:href="#qqqq_0_Layer0_0_MEMBER_1_FILL"/>
</g>

<g transform="matrix( 1, 0, 0, 1, 0,0) ">
<use xlink:href="#qqqq_0_Layer0_0_MEMBER_2_FILL"/>
</g>

<g transform="matrix( 1, 0, 0, 1, 0,0) ">
<use xlink:href="#qqqq_0_Layer0_0_MEMBER_3_FILL"/>
</g>

<g transform="matrix( 1, 0, 0, 1, 0,0) ">
<use xlink:href="#qqqq_0_Layer0_0_MEMBER_4_FILL"/>
</g>
</g>

<g transform="matrix( 0.979522705078125, 0, 0, 0.979522705078125, 925.55,234.65) ">
<g transform="matrix( 1, 0, 0, 1, 0,0) ">
<use xlink:href="#qqqq_0_Layer0_0_MEMBER_0_FILL"/>
</g>

<g transform="matrix( 1, 0, 0, 1, 0,0) ">
<use xlink:href="#qqqq_0_Layer0_0_MEMBER_1_FILL"/>
</g>

<g transform="matrix( 1, 0, 0, 1, 0,0) ">
<use xlink:href="#qqqq_0_Layer0_0_MEMBER_2_FILL"/>
</g>

<g transform="matrix( 1, 0, 0, 1, 0,0) ">
<use xlink:href="#qqqq_0_Layer0_0_MEMBER_3_FILL"/>
</g>

<g transform="matrix( 1, 0, 0, 1, 0,0) ">
<use xlink:href="#qqqq_0_Layer0_0_MEMBER_4_FILL"/>
</g>
</g>

<g transform="matrix( 1.15380859375, 0.0000152587890625, -0.0000152587890625, 1.15380859375, 35.9,90.7) ">
<g transform="matrix( 1, 0, 0, 1, 0,0) ">
<use filter="url(#Filter_3)" xlink:href="#brilho_0_Layer0_0_MEMBER_0_FILL"/>
</g>

<g transform="matrix( 1, 0, 0, 1, 0,0) ">
<use filter="url(#Filter_3)" xlink:href="#brilho_0_Layer0_0_MEMBER_1_FILL"/>
</g>

<g transform="matrix( 1, 0, 0, 1, 0,0) ">
<use filter="url(#Filter_3)" xlink:href="#brilho_0_Layer0_0_MEMBER_2_FILL"/>
</g>

<g transform="matrix( 1, 0, 0, 1, 0,0) ">
<use filter="url(#Filter_3)" xlink:href="#brilho_0_Layer0_0_MEMBER_3_FILL"/>
</g>

<g transform="matrix( 1, 0, 0, 1, 0,0) ">
<use filter="url(#Filter_3)" xlink:href="#brilho_0_Layer0_0_MEMBER_4_FILL"/>
</g>

<g transform="matrix( 1, 0, 0, 1, 0,0) ">
<use filter="url(#Filter_3)" xlink:href="#brilho_0_Layer0_0_MEMBER_5_FILL"/>
</g>
</g>

<g transform="matrix( 0.8056793212890625, 0, 0, 0.8056793212890625, 950.55,136.2) ">
<g transform="matrix( 1, 0, 0, 1, 0,0) ">
<use filter="url(#Filter_3)" xlink:href="#brilho_0_Layer0_0_MEMBER_0_FILL"/>
</g>

<g transform="matrix( 1, 0, 0, 1, 0,0) ">
<use filter="url(#Filter_3)" xlink:href="#brilho_0_Layer0_0_MEMBER_1_FILL"/>
</g>

<g transform="matrix( 1, 0, 0, 1, 0,0) ">
<use filter="url(#Filter_3)" xlink:href="#brilho_0_Layer0_0_MEMBER_2_FILL"/>
</g>

<g transform="matrix( 1, 0, 0, 1, 0,0) ">
<use filter="url(#Filter_3)" xlink:href="#brilho_0_Layer0_0_MEMBER_3_FILL"/>
</g>

<g transform="matrix( 1, 0, 0, 1, 0,0) ">
<use filter="url(#Filter_3)" xlink:href="#brilho_0_Layer0_0_MEMBER_4_FILL"/>
</g>

<g transform="matrix( 1, 0, 0, 1, 0,0) ">
<use filter="url(#Filter_3)" xlink:href="#brilho_0_Layer0_0_MEMBER_5_FILL"/>
</g>
</g>

<g transform="matrix( 1.15380859375, 0.0000152587890625, -0.0000152587890625, 1.15380859375, 772.7,356.85) ">
<g transform="matrix( 1, 0, 0, 1, 0,0) ">
<use filter="url(#Filter_3)" xlink:href="#brilho_0_Layer0_0_MEMBER_0_FILL"/>
</g>

<g transform="matrix( 1, 0, 0, 1, 0,0) ">
<use filter="url(#Filter_3)" xlink:href="#brilho_0_Layer0_0_MEMBER_1_FILL"/>
</g>

<g transform="matrix( 1, 0, 0, 1, 0,0) ">
<use filter="url(#Filter_3)" xlink:href="#brilho_0_Layer0_0_MEMBER_2_FILL"/>
</g>

<g transform="matrix( 1, 0, 0, 1, 0,0) ">
<use filter="url(#Filter_3)" xlink:href="#brilho_0_Layer0_0_MEMBER_3_FILL"/>
</g>

<g transform="matrix( 1, 0, 0, 1, 0,0) ">
<use filter="url(#Filter_3)" xlink:href="#brilho_0_Layer0_0_MEMBER_4_FILL"/>
</g>

<g transform="matrix( 1, 0, 0, 1, 0,0) ">
<use filter="url(#Filter_3)" xlink:href="#brilho_0_Layer0_0_MEMBER_5_FILL"/>
</g>
</g>

<g transform="matrix( 0.64422607421875, -0.1725921630859375, 0.1725921630859375, 0.64422607421875, 813,149.7) ">
<g transform="matrix( 1, 0, 0, 1, 0,0) ">
<use filter="url(#Filter_3)" xlink:href="#brilho_0_Layer0_0_MEMBER_0_FILL"/>
</g>

<g transform="matrix( 1, 0, 0, 1, 0,0) ">
<use filter="url(#Filter_3)" xlink:href="#brilho_0_Layer0_0_MEMBER_1_FILL"/>
</g>

<g transform="matrix( 1, 0, 0, 1, 0,0) ">
<use filter="url(#Filter_3)" xlink:href="#brilho_0_Layer0_0_MEMBER_2_FILL"/>
</g>

<g transform="matrix( 1, 0, 0, 1, 0,0) ">
<use filter="url(#Filter_3)" xlink:href="#brilho_0_Layer0_0_MEMBER_3_FILL"/>
</g>

<g transform="matrix( 1, 0, 0, 1, 0,0) ">
<use filter="url(#Filter_3)" xlink:href="#brilho_0_Layer0_0_MEMBER_4_FILL"/>
</g>

<g transform="matrix( 1, 0, 0, 1, 0,0) ">
<use filter="url(#Filter_3)" xlink:href="#brilho_0_Layer0_0_MEMBER_5_FILL"/>
</g>
</g>

<g transform="matrix( 0.64422607421875, -0.1725921630859375, 0.1725921630859375, 0.64422607421875, 900.65,128.45) ">
<g transform="matrix( 1, 0, 0, 1, 0,0) ">
<use filter="url(#Filter_3)" xlink:href="#brilho_0_Layer0_0_MEMBER_0_FILL"/>
</g>

<g transform="matrix( 1, 0, 0, 1, 0,0) ">
<use filter="url(#Filter_3)" xlink:href="#brilho_0_Layer0_0_MEMBER_1_FILL"/>
</g>

<g transform="matrix( 1, 0, 0, 1, 0,0) ">
<use filter="url(#Filter_3)" xlink:href="#brilho_0_Layer0_0_MEMBER_2_FILL"/>
</g>

<g transform="matrix( 1, 0, 0, 1, 0,0) ">
<use filter="url(#Filter_3)" xlink:href="#brilho_0_Layer0_0_MEMBER_3_FILL"/>
</g>

<g transform="matrix( 1, 0, 0, 1, 0,0) ">
<use filter="url(#Filter_3)" xlink:href="#brilho_0_Layer0_0_MEMBER_4_FILL"/>
</g>

<g transform="matrix( 1, 0, 0, 1, 0,0) ">
<use filter="url(#Filter_3)" xlink:href="#brilho_0_Layer0_0_MEMBER_5_FILL"/>
</g>
</g>

<g transform="matrix( 0.66693115234375, 0.0000152587890625, -0.0000152587890625, 0.66693115234375, 881.8,281.05) ">
<g transform="matrix( 1, 0, 0, 1, 0,0) ">
<use filter="url(#Filter_3)" xlink:href="#brilho_0_Layer0_0_MEMBER_0_FILL"/>
</g>

<g transform="matrix( 1, 0, 0, 1, 0,0) ">
<use filter="url(#Filter_3)" xlink:href="#brilho_0_Layer0_0_MEMBER_1_FILL"/>
</g>

<g transform="matrix( 1, 0, 0, 1, 0,0) ">
<use filter="url(#Filter_3)" xlink:href="#brilho_0_Layer0_0_MEMBER_2_FILL"/>
</g>

<g transform="matrix( 1, 0, 0, 1, 0,0) ">
<use filter="url(#Filter_3)" xlink:href="#brilho_0_Layer0_0_MEMBER_3_FILL"/>
</g>

<g transform="matrix( 1, 0, 0, 1, 0,0) ">
<use filter="url(#Filter_3)" xlink:href="#brilho_0_Layer0_0_MEMBER_4_FILL"/>
</g>

<g transform="matrix( 1, 0, 0, 1, 0,0) ">
<use filter="url(#Filter_3)" xlink:href="#brilho_0_Layer0_0_MEMBER_5_FILL"/>
</g>
</g>

<g transform="matrix( 0.66693115234375, 0.0000152587890625, -0.0000152587890625, 0.66693115234375, 913.7,192.95) ">
<g transform="matrix( 1, 0, 0, 1, 0,0) ">
<use filter="url(#Filter_3)" xlink:href="#brilho_0_Layer0_0_MEMBER_0_FILL"/>
</g>

<g transform="matrix( 1, 0, 0, 1, 0,0) ">
<use filter="url(#Filter_3)" xlink:href="#brilho_0_Layer0_0_MEMBER_1_FILL"/>
</g>

<g transform="matrix( 1, 0, 0, 1, 0,0) ">
<use filter="url(#Filter_3)" xlink:href="#brilho_0_Layer0_0_MEMBER_2_FILL"/>
</g>

<g transform="matrix( 1, 0, 0, 1, 0,0) ">
<use filter="url(#Filter_3)" xlink:href="#brilho_0_Layer0_0_MEMBER_3_FILL"/>
</g>

<g transform="matrix( 1, 0, 0, 1, 0,0) ">
<use filter="url(#Filter_3)" xlink:href="#brilho_0_Layer0_0_MEMBER_4_FILL"/>
</g>

<g transform="matrix( 1, 0, 0, 1, 0,0) ">
<use filter="url(#Filter_3)" xlink:href="#brilho_0_Layer0_0_MEMBER_5_FILL"/>
</g>
</g>

<g transform="matrix( 0.503570556640625, 0.0000152587890625, -0.0000152587890625, 0.503570556640625, 947.25,207.1) ">
<g transform="matrix( 1, 0, 0, 1, 0,0) ">
<use filter="url(#Filter_3)" xlink:href="#brilho_0_Layer0_0_MEMBER_0_FILL"/>
</g>

<g transform="matrix( 1, 0, 0, 1, 0,0) ">
<use filter="url(#Filter_3)" xlink:href="#brilho_0_Layer0_0_MEMBER_1_FILL"/>
</g>

<g transform="matrix( 1, 0, 0, 1, 0,0) ">
<use filter="url(#Filter_3)" xlink:href="#brilho_0_Layer0_0_MEMBER_2_FILL"/>
</g>

<g transform="matrix( 1, 0, 0, 1, 0,0) ">
<use filter="url(#Filter_3)" xlink:href="#brilho_0_Layer0_0_MEMBER_3_FILL"/>
</g>

<g transform="matrix( 1, 0, 0, 1, 0,0) ">
<use filter="url(#Filter_3)" xlink:href="#brilho_0_Layer0_0_MEMBER_4_FILL"/>
</g>

<g transform="matrix( 1, 0, 0, 1, 0,0) ">
<use filter="url(#Filter_3)" xlink:href="#brilho_0_Layer0_0_MEMBER_5_FILL"/>
</g>
</g>

<g transform="matrix( 0.486419677734375, -0.13031005859375, 0.13031005859375, 0.486419677734375, 887.15,52.45) ">
<g transform="matrix( 1, 0, 0, 1, 0,0) ">
<use filter="url(#Filter_3)" xlink:href="#brilho_0_Layer0_0_MEMBER_0_FILL"/>
</g>

<g transform="matrix( 1, 0, 0, 1, 0,0) ">
<use filter="url(#Filter_3)" xlink:href="#brilho_0_Layer0_0_MEMBER_1_FILL"/>
</g>

<g transform="matrix( 1, 0, 0, 1, 0,0) ">
<use filter="url(#Filter_3)" xlink:href="#brilho_0_Layer0_0_MEMBER_2_FILL"/>
</g>

<g transform="matrix( 1, 0, 0, 1, 0,0) ">
<use filter="url(#Filter_3)" xlink:href="#brilho_0_Layer0_0_MEMBER_3_FILL"/>
</g>

<g transform="matrix( 1, 0, 0, 1, 0,0) ">
<use filter="url(#Filter_3)" xlink:href="#brilho_0_Layer0_0_MEMBER_4_FILL"/>
</g>

<g transform="matrix( 1, 0, 0, 1, 0,0) ">
<use filter="url(#Filter_3)" xlink:href="#brilho_0_Layer0_0_MEMBER_5_FILL"/>
</g>
</g>

<g transform="matrix( 0.486419677734375, -0.13031005859375, 0.13031005859375, 0.486419677734375, 824.55,18.3) ">
<g transform="matrix( 1, 0, 0, 1, 0,0) ">
<use filter="url(#Filter_3)" xlink:href="#brilho_0_Layer0_0_MEMBER_0_FILL"/>
</g>

<g transform="matrix( 1, 0, 0, 1, 0,0) ">
<use filter="url(#Filter_3)" xlink:href="#brilho_0_Layer0_0_MEMBER_1_FILL"/>
</g>

<g transform="matrix( 1, 0, 0, 1, 0,0) ">
<use filter="url(#Filter_3)" xlink:href="#brilho_0_Layer0_0_MEMBER_2_FILL"/>
</g>

<g transform="matrix( 1, 0, 0, 1, 0,0) ">
<use filter="url(#Filter_3)" xlink:href="#brilho_0_Layer0_0_MEMBER_3_FILL"/>
</g>

<g transform="matrix( 1, 0, 0, 1, 0,0) ">
<use filter="url(#Filter_3)" xlink:href="#brilho_0_Layer0_0_MEMBER_4_FILL"/>
</g>

<g transform="matrix( 1, 0, 0, 1, 0,0) ">
<use filter="url(#Filter_3)" xlink:href="#brilho_0_Layer0_0_MEMBER_5_FILL"/>
</g>
</g>

<g transform="matrix( 0.503570556640625, 0.0000152587890625, -0.0000152587890625, 0.503570556640625, 144.85,13.9) ">
<g transform="matrix( 1, 0, 0, 1, 0,0) ">
<use filter="url(#Filter_3)" xlink:href="#brilho_0_Layer0_0_MEMBER_0_FILL"/>
</g>

<g transform="matrix( 1, 0, 0, 1, 0,0) ">
<use filter="url(#Filter_3)" xlink:href="#brilho_0_Layer0_0_MEMBER_1_FILL"/>
</g>

<g transform="matrix( 1, 0, 0, 1, 0,0) ">
<use filter="url(#Filter_3)" xlink:href="#brilho_0_Layer0_0_MEMBER_2_FILL"/>
</g>

<g transform="matrix( 1, 0, 0, 1, 0,0) ">
<use filter="url(#Filter_3)" xlink:href="#brilho_0_Layer0_0_MEMBER_3_FILL"/>
</g>

<g transform="matrix( 1, 0, 0, 1, 0,0) ">
<use filter="url(#Filter_3)" xlink:href="#brilho_0_Layer0_0_MEMBER_4_FILL"/>
</g>

<g transform="matrix( 1, 0, 0, 1, 0,0) ">
<use filter="url(#Filter_3)" xlink:href="#brilho_0_Layer0_0_MEMBER_5_FILL"/>
</g>
</g>

<g transform="matrix( 0.66693115234375, 0.0000152587890625, -0.0000152587890625, 0.66693115234375, 75.7,159.75) ">
<g transform="matrix( 1, 0, 0, 1, 0,0) ">
<use filter="url(#Filter_3)" xlink:href="#brilho_0_Layer0_0_MEMBER_0_FILL"/>
</g>

<g transform="matrix( 1, 0, 0, 1, 0,0) ">
<use filter="url(#Filter_3)" xlink:href="#brilho_0_Layer0_0_MEMBER_1_FILL"/>
</g>

<g transform="matrix( 1, 0, 0, 1, 0,0) ">
<use filter="url(#Filter_3)" xlink:href="#brilho_0_Layer0_0_MEMBER_2_FILL"/>
</g>

<g transform="matrix( 1, 0, 0, 1, 0,0) ">
<use filter="url(#Filter_3)" xlink:href="#brilho_0_Layer0_0_MEMBER_3_FILL"/>
</g>

<g transform="matrix( 1, 0, 0, 1, 0,0) ">
<use filter="url(#Filter_3)" xlink:href="#brilho_0_Layer0_0_MEMBER_4_FILL"/>
</g>

<g transform="matrix( 1, 0, 0, 1, 0,0) ">
<use filter="url(#Filter_3)" xlink:href="#brilho_0_Layer0_0_MEMBER_5_FILL"/>
</g>
</g>

<g transform="matrix( 0.66693115234375, 0.0000152587890625, -0.0000152587890625, 0.66693115234375, 18.2,274.85) ">
<g transform="matrix( 1, 0, 0, 1, 0,0) ">
<use filter="url(#Filter_3)" xlink:href="#brilho_0_Layer0_0_MEMBER_0_FILL"/>
</g>

<g transform="matrix( 1, 0, 0, 1, 0,0) ">
<use filter="url(#Filter_3)" xlink:href="#brilho_0_Layer0_0_MEMBER_1_FILL"/>
</g>

<g transform="matrix( 1, 0, 0, 1, 0,0) ">
<use filter="url(#Filter_3)" xlink:href="#brilho_0_Layer0_0_MEMBER_2_FILL"/>
</g>

<g transform="matrix( 1, 0, 0, 1, 0,0) ">
<use filter="url(#Filter_3)" xlink:href="#brilho_0_Layer0_0_MEMBER_3_FILL"/>
</g>

<g transform="matrix( 1, 0, 0, 1, 0,0) ">
<use filter="url(#Filter_3)" xlink:href="#brilho_0_Layer0_0_MEMBER_4_FILL"/>
</g>

<g transform="matrix( 1, 0, 0, 1, 0,0) ">
<use filter="url(#Filter_3)" xlink:href="#brilho_0_Layer0_0_MEMBER_5_FILL"/>
</g>
</g>

<g transform="matrix( 1.15380859375, 0.0000152587890625, -0.0000152587890625, 1.15380859375, 76.9,235.7) ">
<g transform="matrix( 1, 0, 0, 1, 0,0) ">
<use filter="url(#Filter_3)" xlink:href="#brilho_0_Layer0_0_MEMBER_0_FILL"/>
</g>

<g transform="matrix( 1, 0, 0, 1, 0,0) ">
<use filter="url(#Filter_3)" xlink:href="#brilho_0_Layer0_0_MEMBER_1_FILL"/>
</g>

<g transform="matrix( 1, 0, 0, 1, 0,0) ">
<use filter="url(#Filter_3)" xlink:href="#brilho_0_Layer0_0_MEMBER_2_FILL"/>
</g>

<g transform="matrix( 1, 0, 0, 1, 0,0) ">
<use filter="url(#Filter_3)" xlink:href="#brilho_0_Layer0_0_MEMBER_3_FILL"/>
</g>

<g transform="matrix( 1, 0, 0, 1, 0,0) ">
<use filter="url(#Filter_3)" xlink:href="#brilho_0_Layer0_0_MEMBER_4_FILL"/>
</g>

<g transform="matrix( 1, 0, 0, 1, 0,0) ">
<use filter="url(#Filter_3)" xlink:href="#brilho_0_Layer0_0_MEMBER_5_FILL"/>
</g>
</g>

<g transform="matrix( 1.15380859375, 0.000030517578125, -0.000030517578125, 1.15380859375, 146.25,390.3) ">
<g transform="matrix( 1, 0, 0, 1, 0,0) ">
<use filter="url(#Filter_3)" xlink:href="#brilho_0_Layer0_0_MEMBER_0_FILL"/>
</g>

<g transform="matrix( 1, 0, 0, 1, 0,0) ">
<use filter="url(#Filter_3)" xlink:href="#brilho_0_Layer0_0_MEMBER_1_FILL"/>
</g>

<g transform="matrix( 1, 0, 0, 1, 0,0) ">
<use filter="url(#Filter_3)" xlink:href="#brilho_0_Layer0_0_MEMBER_2_FILL"/>
</g>

<g transform="matrix( 1, 0, 0, 1, 0,0) ">
<use filter="url(#Filter_3)" xlink:href="#brilho_0_Layer0_0_MEMBER_3_FILL"/>
</g>

<g transform="matrix( 1, 0, 0, 1, 0,0) ">
<use filter="url(#Filter_3)" xlink:href="#brilho_0_Layer0_0_MEMBER_4_FILL"/>
</g>

<g transform="matrix( 1, 0, 0, 1, 0,0) ">
<use filter="url(#Filter_3)" xlink:href="#brilho_0_Layer0_0_MEMBER_5_FILL"/>
</g>
</g>

<g transform="matrix( 1.15380859375, 0.000030517578125, -0.000030517578125, 1.15380859375, 451.7,465.25) ">
<g transform="matrix( 1, 0, 0, 1, 0,0) ">
<use filter="url(#Filter_3)" xlink:href="#brilho_0_Layer0_0_MEMBER_0_FILL"/>
</g>

<g transform="matrix( 1, 0, 0, 1, 0,0) ">
<use filter="url(#Filter_3)" xlink:href="#brilho_0_Layer0_0_MEMBER_1_FILL"/>
</g>

<g transform="matrix( 1, 0, 0, 1, 0,0) ">
<use filter="url(#Filter_3)" xlink:href="#brilho_0_Layer0_0_MEMBER_2_FILL"/>
</g>

<g transform="matrix( 1, 0, 0, 1, 0,0) ">
<use filter="url(#Filter_3)" xlink:href="#brilho_0_Layer0_0_MEMBER_3_FILL"/>
</g>

<g transform="matrix( 1, 0, 0, 1, 0,0) ">
<use filter="url(#Filter_3)" xlink:href="#brilho_0_Layer0_0_MEMBER_4_FILL"/>
</g>

<g transform="matrix( 1, 0, 0, 1, 0,0) ">
<use filter="url(#Filter_3)" xlink:href="#brilho_0_Layer0_0_MEMBER_5_FILL"/>
</g>
</g>

<g transform="matrix( 1.15380859375, 0.000030517578125, -0.000030517578125, 1.15380859375, 622.9,449.9) ">
<g transform="matrix( 1, 0, 0, 1, 0,0) ">
<use filter="url(#Filter_3)" xlink:href="#brilho_0_Layer0_0_MEMBER_0_FILL"/>
</g>

<g transform="matrix( 1, 0, 0, 1, 0,0) ">
<use filter="url(#Filter_3)" xlink:href="#brilho_0_Layer0_0_MEMBER_1_FILL"/>
</g>

<g transform="matrix( 1, 0, 0, 1, 0,0) ">
<use filter="url(#Filter_3)" xlink:href="#brilho_0_Layer0_0_MEMBER_2_FILL"/>
</g>

<g transform="matrix( 1, 0, 0, 1, 0,0) ">
<use filter="url(#Filter_3)" xlink:href="#brilho_0_Layer0_0_MEMBER_3_FILL"/>
</g>

<g transform="matrix( 1, 0, 0, 1, 0,0) ">
<use filter="url(#Filter_3)" xlink:href="#brilho_0_Layer0_0_MEMBER_4_FILL"/>
</g>

<g transform="matrix( 1, 0, 0, 1, 0,0) ">
<use filter="url(#Filter_3)" xlink:href="#brilho_0_Layer0_0_MEMBER_5_FILL"/>
</g>
</g>

<g transform="matrix( 0.5035552978515625, 0.0000152587890625, -0.0000152587890625, 0.5035552978515625, 11.1,215.35) ">
<g transform="matrix( 1, 0, 0, 1, 0,0) ">
<use filter="url(#Filter_3)" xlink:href="#brilho_0_Layer0_0_MEMBER_0_FILL"/>
</g>

<g transform="matrix( 1, 0, 0, 1, 0,0) ">
<use filter="url(#Filter_3)" xlink:href="#brilho_0_Layer0_0_MEMBER_1_FILL"/>
</g>

<g transform="matrix( 1, 0, 0, 1, 0,0) ">
<use filter="url(#Filter_3)" xlink:href="#brilho_0_Layer0_0_MEMBER_2_FILL"/>
</g>

<g transform="matrix( 1, 0, 0, 1, 0,0) ">
<use filter="url(#Filter_3)" xlink:href="#brilho_0_Layer0_0_MEMBER_3_FILL"/>
</g>

<g transform="matrix( 1, 0, 0, 1, 0,0) ">
<use filter="url(#Filter_3)" xlink:href="#brilho_0_Layer0_0_MEMBER_4_FILL"/>
</g>

<g transform="matrix( 1, 0, 0, 1, 0,0) ">
<use filter="url(#Filter_3)" xlink:href="#brilho_0_Layer0_0_MEMBER_5_FILL"/>
</g>
</g>

<g transform="matrix( 0.6669158935546875, 0, 0, 0.6669158935546875, 80.55,339.3) ">
<g transform="matrix( 1, 0, 0, 1, 0,0) ">
<use filter="url(#Filter_3)" xlink:href="#brilho_0_Layer0_0_MEMBER_0_FILL"/>
</g>

<g transform="matrix( 1, 0, 0, 1, 0,0) ">
<use filter="url(#Filter_3)" xlink:href="#brilho_0_Layer0_0_MEMBER_1_FILL"/>
</g>

<g transform="matrix( 1, 0, 0, 1, 0,0) ">
<use filter="url(#Filter_3)" xlink:href="#brilho_0_Layer0_0_MEMBER_2_FILL"/>
</g>

<g transform="matrix( 1, 0, 0, 1, 0,0) ">
<use filter="url(#Filter_3)" xlink:href="#brilho_0_Layer0_0_MEMBER_3_FILL"/>
</g>

<g transform="matrix( 1, 0, 0, 1, 0,0) ">
<use filter="url(#Filter_3)" xlink:href="#brilho_0_Layer0_0_MEMBER_4_FILL"/>
</g>

<g transform="matrix( 1, 0, 0, 1, 0,0) ">
<use filter="url(#Filter_3)" xlink:href="#brilho_0_Layer0_0_MEMBER_5_FILL"/>
</g>
</g>

<g transform="matrix( 0.66693115234375, 0.0000152587890625, -0.0000152587890625, 0.66693115234375, 296.05,427.45) ">
<g transform="matrix( 1, 0, 0, 1, 0,0) ">
<use filter="url(#Filter_3)" xlink:href="#brilho_0_Layer0_0_MEMBER_0_FILL"/>
</g>

<g transform="matrix( 1, 0, 0, 1, 0,0) ">
<use filter="url(#Filter_3)" xlink:href="#brilho_0_Layer0_0_MEMBER_1_FILL"/>
</g>

<g transform="matrix( 1, 0, 0, 1, 0,0) ">
<use filter="url(#Filter_3)" xlink:href="#brilho_0_Layer0_0_MEMBER_2_FILL"/>
</g>

<g transform="matrix( 1, 0, 0, 1, 0,0) ">
<use filter="url(#Filter_3)" xlink:href="#brilho_0_Layer0_0_MEMBER_3_FILL"/>
</g>

<g transform="matrix( 1, 0, 0, 1, 0,0) ">
<use filter="url(#Filter_3)" xlink:href="#brilho_0_Layer0_0_MEMBER_4_FILL"/>
</g>

<g transform="matrix( 1, 0, 0, 1, 0,0) ">
<use filter="url(#Filter_3)" xlink:href="#brilho_0_Layer0_0_MEMBER_5_FILL"/>
</g>
</g>

<g transform="matrix( 1.15380859375, 0.000030517578125, -0.000030517578125, 1.15380859375, 230.8,470.25) ">
<g transform="matrix( 1, 0, 0, 1, 0,0) ">
<use filter="url(#Filter_3)" xlink:href="#brilho_0_Layer0_0_MEMBER_0_FILL"/>
</g>

<g transform="matrix( 1, 0, 0, 1, 0,0) ">
<use filter="url(#Filter_3)" xlink:href="#brilho_0_Layer0_0_MEMBER_1_FILL"/>
</g>

<g transform="matrix( 1, 0, 0, 1, 0,0) ">
<use filter="url(#Filter_3)" xlink:href="#brilho_0_Layer0_0_MEMBER_2_FILL"/>
</g>

<g transform="matrix( 1, 0, 0, 1, 0,0) ">
<use filter="url(#Filter_3)" xlink:href="#brilho_0_Layer0_0_MEMBER_3_FILL"/>
</g>

<g transform="matrix( 1, 0, 0, 1, 0,0) ">
<use filter="url(#Filter_3)" xlink:href="#brilho_0_Layer0_0_MEMBER_4_FILL"/>
</g>

<g transform="matrix( 1, 0, 0, 1, 0,0) ">
<use filter="url(#Filter_3)" xlink:href="#brilho_0_Layer0_0_MEMBER_5_FILL"/>
</g>
</g>

<g transform="matrix( 0.503570556640625, 0.0000152587890625, -0.0000152587890625, 0.503570556640625, 184,446.2) ">
<g transform="matrix( 1, 0, 0, 1, 0,0) ">
<use filter="url(#Filter_3)" xlink:href="#brilho_0_Layer0_0_MEMBER_0_FILL"/>
</g>

<g transform="matrix( 1, 0, 0, 1, 0,0) ">
<use filter="url(#Filter_3)" xlink:href="#brilho_0_Layer0_0_MEMBER_1_FILL"/>
</g>

<g transform="matrix( 1, 0, 0, 1, 0,0) ">
<use filter="url(#Filter_3)" xlink:href="#brilho_0_Layer0_0_MEMBER_2_FILL"/>
</g>

<g transform="matrix( 1, 0, 0, 1, 0,0) ">
<use filter="url(#Filter_3)" xlink:href="#brilho_0_Layer0_0_MEMBER_3_FILL"/>
</g>

<g transform="matrix( 1, 0, 0, 1, 0,0) ">
<use filter="url(#Filter_3)" xlink:href="#brilho_0_Layer0_0_MEMBER_4_FILL"/>
</g>

<g transform="matrix( 1, 0, 0, 1, 0,0) ">
<use filter="url(#Filter_3)" xlink:href="#brilho_0_Layer0_0_MEMBER_5_FILL"/>
</g>
</g>

<g transform="matrix( 0.5035552978515625, 0.0000152587890625, -0.0000152587890625, 0.5035552978515625, 360.15,493) ">
<g transform="matrix( 1, 0, 0, 1, 0,0) ">
<use filter="url(#Filter_3)" xlink:href="#brilho_0_Layer0_0_MEMBER_0_FILL"/>
</g>

<g transform="matrix( 1, 0, 0, 1, 0,0) ">
<use filter="url(#Filter_3)" xlink:href="#brilho_0_Layer0_0_MEMBER_1_FILL"/>
</g>

<g transform="matrix( 1, 0, 0, 1, 0,0) ">
<use filter="url(#Filter_3)" xlink:href="#brilho_0_Layer0_0_MEMBER_2_FILL"/>
</g>

<g transform="matrix( 1, 0, 0, 1, 0,0) ">
<use filter="url(#Filter_3)" xlink:href="#brilho_0_Layer0_0_MEMBER_3_FILL"/>
</g>

<g transform="matrix( 1, 0, 0, 1, 0,0) ">
<use filter="url(#Filter_3)" xlink:href="#brilho_0_Layer0_0_MEMBER_4_FILL"/>
</g>

<g transform="matrix( 1, 0, 0, 1, 0,0) ">
<use filter="url(#Filter_3)" xlink:href="#brilho_0_Layer0_0_MEMBER_5_FILL"/>
</g>
</g>

<g transform="matrix( 0.503570556640625, 0.0000152587890625, -0.0000152587890625, 0.503570556640625, 309.5,473) ">
<g transform="matrix( 1, 0, 0, 1, 0,0) ">
<use filter="url(#Filter_3)" xlink:href="#brilho_0_Layer0_0_MEMBER_0_FILL"/>
</g>

<g transform="matrix( 1, 0, 0, 1, 0,0) ">
<use filter="url(#Filter_3)" xlink:href="#brilho_0_Layer0_0_MEMBER_1_FILL"/>
</g>

<g transform="matrix( 1, 0, 0, 1, 0,0) ">
<use filter="url(#Filter_3)" xlink:href="#brilho_0_Layer0_0_MEMBER_2_FILL"/>
</g>

<g transform="matrix( 1, 0, 0, 1, 0,0) ">
<use filter="url(#Filter_3)" xlink:href="#brilho_0_Layer0_0_MEMBER_3_FILL"/>
</g>

<g transform="matrix( 1, 0, 0, 1, 0,0) ">
<use filter="url(#Filter_3)" xlink:href="#brilho_0_Layer0_0_MEMBER_4_FILL"/>
</g>

<g transform="matrix( 1, 0, 0, 1, 0,0) ">
<use filter="url(#Filter_3)" xlink:href="#brilho_0_Layer0_0_MEMBER_5_FILL"/>
</g>
</g>

<g transform="matrix( 0.503570556640625, 0.0000152587890625, -0.0000152587890625, 0.503570556640625, 238.05,252.7) ">
<g transform="matrix( 1, 0, 0, 1, 0,0) ">
<use filter="url(#Filter_3)" xlink:href="#brilho_0_Layer0_0_MEMBER_0_FILL"/>
</g>

<g transform="matrix( 1, 0, 0, 1, 0,0) ">
<use filter="url(#Filter_3)" xlink:href="#brilho_0_Layer0_0_MEMBER_1_FILL"/>
</g>

<g transform="matrix( 1, 0, 0, 1, 0,0) ">
<use filter="url(#Filter_3)" xlink:href="#brilho_0_Layer0_0_MEMBER_2_FILL"/>
</g>

<g transform="matrix( 1, 0, 0, 1, 0,0) ">
<use filter="url(#Filter_3)" xlink:href="#brilho_0_Layer0_0_MEMBER_3_FILL"/>
</g>

<g transform="matrix( 1, 0, 0, 1, 0,0) ">
<use filter="url(#Filter_3)" xlink:href="#brilho_0_Layer0_0_MEMBER_4_FILL"/>
</g>

<g transform="matrix( 1, 0, 0, 1, 0,0) ">
<use filter="url(#Filter_3)" xlink:href="#brilho_0_Layer0_0_MEMBER_5_FILL"/>
</g>
</g>

<g transform="matrix( 0.6669158935546875, 0, 0, 0.6669158935546875, 282.45,278.6) ">
<g transform="matrix( 1, 0, 0, 1, 0,0) ">
<use filter="url(#Filter_3)" xlink:href="#brilho_0_Layer0_0_MEMBER_0_FILL"/>
</g>

<g transform="matrix( 1, 0, 0, 1, 0,0) ">
<use filter="url(#Filter_3)" xlink:href="#brilho_0_Layer0_0_MEMBER_1_FILL"/>
</g>

<g transform="matrix( 1, 0, 0, 1, 0,0) ">
<use filter="url(#Filter_3)" xlink:href="#brilho_0_Layer0_0_MEMBER_2_FILL"/>
</g>

<g transform="matrix( 1, 0, 0, 1, 0,0) ">
<use filter="url(#Filter_3)" xlink:href="#brilho_0_Layer0_0_MEMBER_3_FILL"/>
</g>

<g transform="matrix( 1, 0, 0, 1, 0,0) ">
<use filter="url(#Filter_3)" xlink:href="#brilho_0_Layer0_0_MEMBER_4_FILL"/>
</g>

<g transform="matrix( 1, 0, 0, 1, 0,0) ">
<use filter="url(#Filter_3)" xlink:href="#brilho_0_Layer0_0_MEMBER_5_FILL"/>
</g>
</g>

<g transform="matrix( 0.66693115234375, 0.0000152587890625, -0.0000152587890625, 0.66693115234375, 573.8,479.95) ">
<g transform="matrix( 1, 0, 0, 1, 0,0) ">
<use filter="url(#Filter_3)" xlink:href="#brilho_0_Layer0_0_MEMBER_0_FILL"/>
</g>

<g transform="matrix( 1, 0, 0, 1, 0,0) ">
<use filter="url(#Filter_3)" xlink:href="#brilho_0_Layer0_0_MEMBER_1_FILL"/>
</g>

<g transform="matrix( 1, 0, 0, 1, 0,0) ">
<use filter="url(#Filter_3)" xlink:href="#brilho_0_Layer0_0_MEMBER_2_FILL"/>
</g>

<g transform="matrix( 1, 0, 0, 1, 0,0) ">
<use filter="url(#Filter_3)" xlink:href="#brilho_0_Layer0_0_MEMBER_3_FILL"/>
</g>

<g transform="matrix( 1, 0, 0, 1, 0,0) ">
<use filter="url(#Filter_3)" xlink:href="#brilho_0_Layer0_0_MEMBER_4_FILL"/>
</g>

<g transform="matrix( 1, 0, 0, 1, 0,0) ">
<use filter="url(#Filter_3)" xlink:href="#brilho_0_Layer0_0_MEMBER_5_FILL"/>
</g>
</g>

<g transform="matrix( 0.66693115234375, 0.0000152587890625, -0.0000152587890625, 0.66693115234375, 604.45,396.05) ">
<g transform="matrix( 1, 0, 0, 1, 0,0) ">
<use filter="url(#Filter_3)" xlink:href="#brilho_0_Layer0_0_MEMBER_0_FILL"/>
</g>

<g transform="matrix( 1, 0, 0, 1, 0,0) ">
<use filter="url(#Filter_3)" xlink:href="#brilho_0_Layer0_0_MEMBER_1_FILL"/>
</g>

<g transform="matrix( 1, 0, 0, 1, 0,0) ">
<use filter="url(#Filter_3)" xlink:href="#brilho_0_Layer0_0_MEMBER_2_FILL"/>
</g>

<g transform="matrix( 1, 0, 0, 1, 0,0) ">
<use filter="url(#Filter_3)" xlink:href="#brilho_0_Layer0_0_MEMBER_3_FILL"/>
</g>

<g transform="matrix( 1, 0, 0, 1, 0,0) ">
<use filter="url(#Filter_3)" xlink:href="#brilho_0_Layer0_0_MEMBER_4_FILL"/>
</g>

<g transform="matrix( 1, 0, 0, 1, 0,0) ">
<use filter="url(#Filter_3)" xlink:href="#brilho_0_Layer0_0_MEMBER_5_FILL"/>
</g>
</g>

<g transform="matrix( 0.6669158935546875, 0, 0, 0.6669158935546875, 622.1,208.15) ">
<g transform="matrix( 1, 0, 0, 1, 0,0) ">
<use filter="url(#Filter_3)" xlink:href="#brilho_0_Layer0_0_MEMBER_0_FILL"/>
</g>

<g transform="matrix( 1, 0, 0, 1, 0,0) ">
<use filter="url(#Filter_3)" xlink:href="#brilho_0_Layer0_0_MEMBER_1_FILL"/>
</g>

<g transform="matrix( 1, 0, 0, 1, 0,0) ">
<use filter="url(#Filter_3)" xlink:href="#brilho_0_Layer0_0_MEMBER_2_FILL"/>
</g>

<g transform="matrix( 1, 0, 0, 1, 0,0) ">
<use filter="url(#Filter_3)" xlink:href="#brilho_0_Layer0_0_MEMBER_3_FILL"/>
</g>

<g transform="matrix( 1, 0, 0, 1, 0,0) ">
<use filter="url(#Filter_3)" xlink:href="#brilho_0_Layer0_0_MEMBER_4_FILL"/>
</g>

<g transform="matrix( 1, 0, 0, 1, 0,0) ">
<use filter="url(#Filter_3)" xlink:href="#brilho_0_Layer0_0_MEMBER_5_FILL"/>
</g>
</g>

<g transform="matrix( 0.6669158935546875, 0, 0, 0.6669158935546875, 567.35,256.75) ">
<g transform="matrix( 1, 0, 0, 1, 0,0) ">
<use filter="url(#Filter_3)" xlink:href="#brilho_0_Layer0_0_MEMBER_0_FILL"/>
</g>

<g transform="matrix( 1, 0, 0, 1, 0,0) ">
<use filter="url(#Filter_3)" xlink:href="#brilho_0_Layer0_0_MEMBER_1_FILL"/>
</g>

<g transform="matrix( 1, 0, 0, 1, 0,0) ">
<use filter="url(#Filter_3)" xlink:href="#brilho_0_Layer0_0_MEMBER_2_FILL"/>
</g>

<g transform="matrix( 1, 0, 0, 1, 0,0) ">
<use filter="url(#Filter_3)" xlink:href="#brilho_0_Layer0_0_MEMBER_3_FILL"/>
</g>

<g transform="matrix( 1, 0, 0, 1, 0,0) ">
<use filter="url(#Filter_3)" xlink:href="#brilho_0_Layer0_0_MEMBER_4_FILL"/>
</g>

<g transform="matrix( 1, 0, 0, 1, 0,0) ">
<use filter="url(#Filter_3)" xlink:href="#brilho_0_Layer0_0_MEMBER_5_FILL"/>
</g>
</g>

<g transform="matrix( 0.6669158935546875, 0, 0, 0.6669158935546875, 817.8,318.5) ">
<g transform="matrix( 1, 0, 0, 1, 0,0) ">
<use filter="url(#Filter_3)" xlink:href="#brilho_0_Layer0_0_MEMBER_0_FILL"/>
</g>

<g transform="matrix( 1, 0, 0, 1, 0,0) ">
<use filter="url(#Filter_3)" xlink:href="#brilho_0_Layer0_0_MEMBER_1_FILL"/>
</g>

<g transform="matrix( 1, 0, 0, 1, 0,0) ">
<use filter="url(#Filter_3)" xlink:href="#brilho_0_Layer0_0_MEMBER_2_FILL"/>
</g>

<g transform="matrix( 1, 0, 0, 1, 0,0) ">
<use filter="url(#Filter_3)" xlink:href="#brilho_0_Layer0_0_MEMBER_3_FILL"/>
</g>

<g transform="matrix( 1, 0, 0, 1, 0,0) ">
<use filter="url(#Filter_3)" xlink:href="#brilho_0_Layer0_0_MEMBER_4_FILL"/>
</g>

<g transform="matrix( 1, 0, 0, 1, 0,0) ">
<use filter="url(#Filter_3)" xlink:href="#brilho_0_Layer0_0_MEMBER_5_FILL"/>
</g>
</g>

<g transform="matrix( 0.503570556640625, 0.0000152587890625, -0.0000152587890625, 0.503570556640625, 576.7,209.65) ">
<g transform="matrix( 1, 0, 0, 1, 0,0) ">
<use filter="url(#Filter_3)" xlink:href="#brilho_0_Layer0_0_MEMBER_0_FILL"/>
</g>

<g transform="matrix( 1, 0, 0, 1, 0,0) ">
<use filter="url(#Filter_3)" xlink:href="#brilho_0_Layer0_0_MEMBER_1_FILL"/>
</g>

<g transform="matrix( 1, 0, 0, 1, 0,0) ">
<use filter="url(#Filter_3)" xlink:href="#brilho_0_Layer0_0_MEMBER_2_FILL"/>
</g>

<g transform="matrix( 1, 0, 0, 1, 0,0) ">
<use filter="url(#Filter_3)" xlink:href="#brilho_0_Layer0_0_MEMBER_3_FILL"/>
</g>

<g transform="matrix( 1, 0, 0, 1, 0,0) ">
<use filter="url(#Filter_3)" xlink:href="#brilho_0_Layer0_0_MEMBER_4_FILL"/>
</g>

<g transform="matrix( 1, 0, 0, 1, 0,0) ">
<use filter="url(#Filter_3)" xlink:href="#brilho_0_Layer0_0_MEMBER_5_FILL"/>
</g>
</g>

<g transform="matrix( 0.6669158935546875, 0, 0, 0.6669158935546875, 723.15,398.5) ">
<g transform="matrix( 1, 0, 0, 1, 0,0) ">
<use filter="url(#Filter_3)" xlink:href="#brilho_0_Layer0_0_MEMBER_0_FILL"/>
</g>

<g transform="matrix( 1, 0, 0, 1, 0,0) ">
<use filter="url(#Filter_3)" xlink:href="#brilho_0_Layer0_0_MEMBER_1_FILL"/>
</g>

<g transform="matrix( 1, 0, 0, 1, 0,0) ">
<use filter="url(#Filter_3)" xlink:href="#brilho_0_Layer0_0_MEMBER_2_FILL"/>
</g>

<g transform="matrix( 1, 0, 0, 1, 0,0) ">
<use filter="url(#Filter_3)" xlink:href="#brilho_0_Layer0_0_MEMBER_3_FILL"/>
</g>

<g transform="matrix( 1, 0, 0, 1, 0,0) ">
<use filter="url(#Filter_3)" xlink:href="#brilho_0_Layer0_0_MEMBER_4_FILL"/>
</g>

<g transform="matrix( 1, 0, 0, 1, 0,0) ">
<use filter="url(#Filter_3)" xlink:href="#brilho_0_Layer0_0_MEMBER_5_FILL"/>
</g>
</g>

<g transform="matrix( 0.503570556640625, 0.0000152587890625, -0.0000152587890625, 0.503570556640625, 736.5,309.7) ">
<g transform="matrix( 1, 0, 0, 1, 0,0) ">
<use filter="url(#Filter_3)" xlink:href="#brilho_0_Layer0_0_MEMBER_0_FILL"/>
</g>

<g transform="matrix( 1, 0, 0, 1, 0,0) ">
<use filter="url(#Filter_3)" xlink:href="#brilho_0_Layer0_0_MEMBER_1_FILL"/>
</g>

<g transform="matrix( 1, 0, 0, 1, 0,0) ">
<use filter="url(#Filter_3)" xlink:href="#brilho_0_Layer0_0_MEMBER_2_FILL"/>
</g>

<g transform="matrix( 1, 0, 0, 1, 0,0) ">
<use filter="url(#Filter_3)" xlink:href="#brilho_0_Layer0_0_MEMBER_3_FILL"/>
</g>

<g transform="matrix( 1, 0, 0, 1, 0,0) ">
<use filter="url(#Filter_3)" xlink:href="#brilho_0_Layer0_0_MEMBER_4_FILL"/>
</g>

<g transform="matrix( 1, 0, 0, 1, 0,0) ">
<use filter="url(#Filter_3)" xlink:href="#brilho_0_Layer0_0_MEMBER_5_FILL"/>
</g>
</g>

<g transform="matrix( 0.84033203125, 0, 0, 0.84033203125, 858.8,337.55) ">
<g transform="matrix( 1, 0, 0, 1, 0,0) ">
<use filter="url(#Filter_3)" xlink:href="#brilho_0_Layer0_0_MEMBER_0_FILL"/>
</g>

<g transform="matrix( 1, 0, 0, 1, 0,0) ">
<use filter="url(#Filter_3)" xlink:href="#brilho_0_Layer0_0_MEMBER_1_FILL"/>
</g>

<g transform="matrix( 1, 0, 0, 1, 0,0) ">
<use filter="url(#Filter_3)" xlink:href="#brilho_0_Layer0_0_MEMBER_2_FILL"/>
</g>

<g transform="matrix( 1, 0, 0, 1, 0,0) ">
<use filter="url(#Filter_3)" xlink:href="#brilho_0_Layer0_0_MEMBER_3_FILL"/>
</g>

<g transform="matrix( 1, 0, 0, 1, 0,0) ">
<use filter="url(#Filter_3)" xlink:href="#brilho_0_Layer0_0_MEMBER_4_FILL"/>
</g>

<g transform="matrix( 1, 0, 0, 1, 0,0) ">
<use filter="url(#Filter_3)" xlink:href="#brilho_0_Layer0_0_MEMBER_5_FILL"/>
</g>
</g>

<g transform="matrix( 0.503570556640625, 0.0000152587890625, -0.0000152587890625, 0.503570556640625, 821.55,366.9) ">
<g transform="matrix( 1, 0, 0, 1, 0,0) ">
<use filter="url(#Filter_3)" xlink:href="#brilho_0_Layer0_0_MEMBER_0_FILL"/>
</g>

<g transform="matrix( 1, 0, 0, 1, 0,0) ">
<use filter="url(#Filter_3)" xlink:href="#brilho_0_Layer0_0_MEMBER_1_FILL"/>
</g>

<g transform="matrix( 1, 0, 0, 1, 0,0) ">
<use filter="url(#Filter_3)" xlink:href="#brilho_0_Layer0_0_MEMBER_2_FILL"/>
</g>

<g transform="matrix( 1, 0, 0, 1, 0,0) ">
<use filter="url(#Filter_3)" xlink:href="#brilho_0_Layer0_0_MEMBER_3_FILL"/>
</g>

<g transform="matrix( 1, 0, 0, 1, 0,0) ">
<use filter="url(#Filter_3)" xlink:href="#brilho_0_Layer0_0_MEMBER_4_FILL"/>
</g>

<g transform="matrix( 1, 0, 0, 1, 0,0) ">
<use filter="url(#Filter_3)" xlink:href="#brilho_0_Layer0_0_MEMBER_5_FILL"/>
</g>
</g>

<g transform="matrix( 0.503570556640625, 0.0000152587890625, -0.0000152587890625, 0.503570556640625, 965.15,180.2) ">
<g transform="matrix( 1, 0, 0, 1, 0,0) ">
<use filter="url(#Filter_3)" xlink:href="#brilho_0_Layer0_0_MEMBER_0_FILL"/>
</g>

<g transform="matrix( 1, 0, 0, 1, 0,0) ">
<use filter="url(#Filter_3)" xlink:href="#brilho_0_Layer0_0_MEMBER_1_FILL"/>
</g>

<g transform="matrix( 1, 0, 0, 1, 0,0) ">
<use filter="url(#Filter_3)" xlink:href="#brilho_0_Layer0_0_MEMBER_2_FILL"/>
</g>

<g transform="matrix( 1, 0, 0, 1, 0,0) ">
<use filter="url(#Filter_3)" xlink:href="#brilho_0_Layer0_0_MEMBER_3_FILL"/>
</g>

<g transform="matrix( 1, 0, 0, 1, 0,0) ">
<use filter="url(#Filter_3)" xlink:href="#brilho_0_Layer0_0_MEMBER_4_FILL"/>
</g>

<g transform="matrix( 1, 0, 0, 1, 0,0) ">
<use filter="url(#Filter_3)" xlink:href="#brilho_0_Layer0_0_MEMBER_5_FILL"/>
</g>
</g>

<g transform="matrix( 0.486419677734375, -0.13031005859375, 0.13031005859375, 0.486419677734375, 816.85,108.95) ">
<g transform="matrix( 1, 0, 0, 1, 0,0) ">
<use filter="url(#Filter_3)" xlink:href="#brilho_0_Layer0_0_MEMBER_0_FILL"/>
</g>

<g transform="matrix( 1, 0, 0, 1, 0,0) ">
<use filter="url(#Filter_3)" xlink:href="#brilho_0_Layer0_0_MEMBER_1_FILL"/>
</g>

<g transform="matrix( 1, 0, 0, 1, 0,0) ">
<use filter="url(#Filter_3)" xlink:href="#brilho_0_Layer0_0_MEMBER_2_FILL"/>
</g>

<g transform="matrix( 1, 0, 0, 1, 0,0) ">
<use filter="url(#Filter_3)" xlink:href="#brilho_0_Layer0_0_MEMBER_3_FILL"/>
</g>

<g transform="matrix( 1, 0, 0, 1, 0,0) ">
<use filter="url(#Filter_3)" xlink:href="#brilho_0_Layer0_0_MEMBER_4_FILL"/>
</g>

<g transform="matrix( 1, 0, 0, 1, 0,0) ">
<use filter="url(#Filter_3)" xlink:href="#brilho_0_Layer0_0_MEMBER_5_FILL"/>
</g>
</g>

<g transform="matrix( 0.486419677734375, -0.13031005859375, 0.13031005859375, 0.486419677734375, 860,30.85) ">
<g transform="matrix( 1, 0, 0, 1, 0,0) ">
<use filter="url(#Filter_3)" xlink:href="#brilho_0_Layer0_0_MEMBER_0_FILL"/>
</g>

<g transform="matrix( 1, 0, 0, 1, 0,0) ">
<use filter="url(#Filter_3)" xlink:href="#brilho_0_Layer0_0_MEMBER_1_FILL"/>
</g>

<g transform="matrix( 1, 0, 0, 1, 0,0) ">
<use filter="url(#Filter_3)" xlink:href="#brilho_0_Layer0_0_MEMBER_2_FILL"/>
</g>

<g transform="matrix( 1, 0, 0, 1, 0,0) ">
<use filter="url(#Filter_3)" xlink:href="#brilho_0_Layer0_0_MEMBER_3_FILL"/>
</g>

<g transform="matrix( 1, 0, 0, 1, 0,0) ">
<use filter="url(#Filter_3)" xlink:href="#brilho_0_Layer0_0_MEMBER_4_FILL"/>
</g>

<g transform="matrix( 1, 0, 0, 1, 0,0) ">
<use filter="url(#Filter_3)" xlink:href="#brilho_0_Layer0_0_MEMBER_5_FILL"/>
</g>
</g>

<g transform="matrix( 0.486419677734375, -0.13031005859375, 0.13031005859375, 0.486419677734375, 805.1,42.4) ">
<g transform="matrix( 1, 0, 0, 1, 0,0) ">
<use filter="url(#Filter_3)" xlink:href="#brilho_0_Layer0_0_MEMBER_0_FILL"/>
</g>

<g transform="matrix( 1, 0, 0, 1, 0,0) ">
<use filter="url(#Filter_3)" xlink:href="#brilho_0_Layer0_0_MEMBER_1_FILL"/>
</g>

<g transform="matrix( 1, 0, 0, 1, 0,0) ">
<use filter="url(#Filter_3)" xlink:href="#brilho_0_Layer0_0_MEMBER_2_FILL"/>
</g>

<g transform="matrix( 1, 0, 0, 1, 0,0) ">
<use filter="url(#Filter_3)" xlink:href="#brilho_0_Layer0_0_MEMBER_3_FILL"/>
</g>

<g transform="matrix( 1, 0, 0, 1, 0,0) ">
<use filter="url(#Filter_3)" xlink:href="#brilho_0_Layer0_0_MEMBER_4_FILL"/>
</g>

<g transform="matrix( 1, 0, 0, 1, 0,0) ">
<use filter="url(#Filter_3)" xlink:href="#brilho_0_Layer0_0_MEMBER_5_FILL"/>
</g>
</g>

<g transform="matrix( 0.486419677734375, -0.13031005859375, 0.13031005859375, 0.486419677734375, 881.85,86.2) ">
<g transform="matrix( 1, 0, 0, 1, 0,0) ">
<use filter="url(#Filter_3)" xlink:href="#brilho_0_Layer0_0_MEMBER_0_FILL"/>
</g>

<g transform="matrix( 1, 0, 0, 1, 0,0) ">
<use filter="url(#Filter_3)" xlink:href="#brilho_0_Layer0_0_MEMBER_1_FILL"/>
</g>

<g transform="matrix( 1, 0, 0, 1, 0,0) ">
<use filter="url(#Filter_3)" xlink:href="#brilho_0_Layer0_0_MEMBER_2_FILL"/>
</g>

<g transform="matrix( 1, 0, 0, 1, 0,0) ">
<use filter="url(#Filter_3)" xlink:href="#brilho_0_Layer0_0_MEMBER_3_FILL"/>
</g>

<g transform="matrix( 1, 0, 0, 1, 0,0) ">
<use filter="url(#Filter_3)" xlink:href="#brilho_0_Layer0_0_MEMBER_4_FILL"/>
</g>

<g transform="matrix( 1, 0, 0, 1, 0,0) ">
<use filter="url(#Filter_3)" xlink:href="#brilho_0_Layer0_0_MEMBER_5_FILL"/>
</g>
</g>

<g transform="matrix( 0.486419677734375, -0.13031005859375, 0.13031005859375, 0.486419677734375, 794.9,80.5) ">
<g transform="matrix( 1, 0, 0, 1, 0,0) ">
<use filter="url(#Filter_3)" xlink:href="#brilho_0_Layer0_0_MEMBER_0_FILL"/>
</g>

<g transform="matrix( 1, 0, 0, 1, 0,0) ">
<use filter="url(#Filter_3)" xlink:href="#brilho_0_Layer0_0_MEMBER_1_FILL"/>
</g>

<g transform="matrix( 1, 0, 0, 1, 0,0) ">
<use filter="url(#Filter_3)" xlink:href="#brilho_0_Layer0_0_MEMBER_2_FILL"/>
</g>

<g transform="matrix( 1, 0, 0, 1, 0,0) ">
<use filter="url(#Filter_3)" xlink:href="#brilho_0_Layer0_0_MEMBER_3_FILL"/>
</g>

<g transform="matrix( 1, 0, 0, 1, 0,0) ">
<use filter="url(#Filter_3)" xlink:href="#brilho_0_Layer0_0_MEMBER_4_FILL"/>
</g>

<g transform="matrix( 1, 0, 0, 1, 0,0) ">
<use filter="url(#Filter_3)" xlink:href="#brilho_0_Layer0_0_MEMBER_5_FILL"/>
</g>
</g>

<g transform="matrix( 0.503570556640625, 0.0000152587890625, -0.0000152587890625, 0.503570556640625, 122,199.65) ">
<g transform="matrix( 1, 0, 0, 1, 0,0) ">
<use filter="url(#Filter_3)" xlink:href="#brilho_0_Layer0_0_MEMBER_0_FILL"/>
</g>

<g transform="matrix( 1, 0, 0, 1, 0,0) ">
<use filter="url(#Filter_3)" xlink:href="#brilho_0_Layer0_0_MEMBER_1_FILL"/>
</g>

<g transform="matrix( 1, 0, 0, 1, 0,0) ">
<use filter="url(#Filter_3)" xlink:href="#brilho_0_Layer0_0_MEMBER_2_FILL"/>
</g>

<g transform="matrix( 1, 0, 0, 1, 0,0) ">
<use filter="url(#Filter_3)" xlink:href="#brilho_0_Layer0_0_MEMBER_3_FILL"/>
</g>

<g transform="matrix( 1, 0, 0, 1, 0,0) ">
<use filter="url(#Filter_3)" xlink:href="#brilho_0_Layer0_0_MEMBER_4_FILL"/>
</g>

<g transform="matrix( 1, 0, 0, 1, 0,0) ">
<use filter="url(#Filter_3)" xlink:href="#brilho_0_Layer0_0_MEMBER_5_FILL"/>
</g>
</g>

<g transform="matrix( 0.503570556640625, 0.0000152587890625, -0.0000152587890625, 0.503570556640625, 184,354.15) ">
<g transform="matrix( 1, 0, 0, 1, 0,0) ">
<use filter="url(#Filter_3)" xlink:href="#brilho_0_Layer0_0_MEMBER_0_FILL"/>
</g>

<g transform="matrix( 1, 0, 0, 1, 0,0) ">
<use filter="url(#Filter_3)" xlink:href="#brilho_0_Layer0_0_MEMBER_1_FILL"/>
</g>

<g transform="matrix( 1, 0, 0, 1, 0,0) ">
<use filter="url(#Filter_3)" xlink:href="#brilho_0_Layer0_0_MEMBER_2_FILL"/>
</g>

<g transform="matrix( 1, 0, 0, 1, 0,0) ">
<use filter="url(#Filter_3)" xlink:href="#brilho_0_Layer0_0_MEMBER_3_FILL"/>
</g>

<g transform="matrix( 1, 0, 0, 1, 0,0) ">
<use filter="url(#Filter_3)" xlink:href="#brilho_0_Layer0_0_MEMBER_4_FILL"/>
</g>

<g transform="matrix( 1, 0, 0, 1, 0,0) ">
<use filter="url(#Filter_3)" xlink:href="#brilho_0_Layer0_0_MEMBER_5_FILL"/>
</g>
</g>

<g transform="matrix( 0.503570556640625, 0.0000152587890625, -0.0000152587890625, 0.503570556640625, 669.7,443.1) ">
<g transform="matrix( 1, 0, 0, 1, 0,0) ">
<use filter="url(#Filter_3)" xlink:href="#brilho_0_Layer0_0_MEMBER_0_FILL"/>
</g>

<g transform="matrix( 1, 0, 0, 1, 0,0) ">
<use filter="url(#Filter_3)" xlink:href="#brilho_0_Layer0_0_MEMBER_1_FILL"/>
</g>

<g transform="matrix( 1, 0, 0, 1, 0,0) ">
<use filter="url(#Filter_3)" xlink:href="#brilho_0_Layer0_0_MEMBER_2_FILL"/>
</g>

<g transform="matrix( 1, 0, 0, 1, 0,0) ">
<use filter="url(#Filter_3)" xlink:href="#brilho_0_Layer0_0_MEMBER_3_FILL"/>
</g>

<g transform="matrix( 1, 0, 0, 1, 0,0) ">
<use filter="url(#Filter_3)" xlink:href="#brilho_0_Layer0_0_MEMBER_4_FILL"/>
</g>

<g transform="matrix( 1, 0, 0, 1, 0,0) ">
<use filter="url(#Filter_3)" xlink:href="#brilho_0_Layer0_0_MEMBER_5_FILL"/>
</g>
</g>

<g transform="matrix( 0.503570556640625, 0.0000152587890625, -0.0000152587890625, 0.503570556640625, 766.75,408.6) ">
<g transform="matrix( 1, 0, 0, 1, 0,0) ">
<use filter="url(#Filter_3)" xlink:href="#brilho_0_Layer0_0_MEMBER_0_FILL"/>
</g>

<g transform="matrix( 1, 0, 0, 1, 0,0) ">
<use filter="url(#Filter_3)" xlink:href="#brilho_0_Layer0_0_MEMBER_1_FILL"/>
</g>

<g transform="matrix( 1, 0, 0, 1, 0,0) ">
<use filter="url(#Filter_3)" xlink:href="#brilho_0_Layer0_0_MEMBER_2_FILL"/>
</g>

<g transform="matrix( 1, 0, 0, 1, 0,0) ">
<use filter="url(#Filter_3)" xlink:href="#brilho_0_Layer0_0_MEMBER_3_FILL"/>
</g>

<g transform="matrix( 1, 0, 0, 1, 0,0) ">
<use filter="url(#Filter_3)" xlink:href="#brilho_0_Layer0_0_MEMBER_4_FILL"/>
</g>

<g transform="matrix( 1, 0, 0, 1, 0,0) ">
<use filter="url(#Filter_3)" xlink:href="#brilho_0_Layer0_0_MEMBER_5_FILL"/>
</g>
</g>

<g transform="matrix( 0.6669158935546875, 0, 0, 0.6669158935546875, 58.55,36.05) ">
<g transform="matrix( 1, 0, 0, 1, 0,0) ">
<use filter="url(#Filter_3)" xlink:href="#brilho_0_Layer0_0_MEMBER_0_FILL"/>
</g>

<g transform="matrix( 1, 0, 0, 1, 0,0) ">
<use filter="url(#Filter_3)" xlink:href="#brilho_0_Layer0_0_MEMBER_1_FILL"/>
</g>

<g transform="matrix( 1, 0, 0, 1, 0,0) ">
<use filter="url(#Filter_3)" xlink:href="#brilho_0_Layer0_0_MEMBER_2_FILL"/>
</g>

<g transform="matrix( 1, 0, 0, 1, 0,0) ">
<use filter="url(#Filter_3)" xlink:href="#brilho_0_Layer0_0_MEMBER_3_FILL"/>
</g>

<g transform="matrix( 1, 0, 0, 1, 0,0) ">
<use filter="url(#Filter_3)" xlink:href="#brilho_0_Layer0_0_MEMBER_4_FILL"/>
</g>

<g transform="matrix( 1, 0, 0, 1, 0,0) ">
<use filter="url(#Filter_3)" xlink:href="#brilho_0_Layer0_0_MEMBER_5_FILL"/>
</g>
</g>

<g transform="matrix( 0.503570556640625, 0.0000152587890625, -0.0000152587890625, 0.503570556640625, 99.45,13.9) ">
<g transform="matrix( 1, 0, 0, 1, 0,0) ">
<use filter="url(#Filter_3)" xlink:href="#brilho_0_Layer0_0_MEMBER_0_FILL"/>
</g>

<g transform="matrix( 1, 0, 0, 1, 0,0) ">
<use filter="url(#Filter_3)" xlink:href="#brilho_0_Layer0_0_MEMBER_1_FILL"/>
</g>

<g transform="matrix( 1, 0, 0, 1, 0,0) ">
<use filter="url(#Filter_3)" xlink:href="#brilho_0_Layer0_0_MEMBER_2_FILL"/>
</g>

<g transform="matrix( 1, 0, 0, 1, 0,0) ">
<use filter="url(#Filter_3)" xlink:href="#brilho_0_Layer0_0_MEMBER_3_FILL"/>
</g>

<g transform="matrix( 1, 0, 0, 1, 0,0) ">
<use filter="url(#Filter_3)" xlink:href="#brilho_0_Layer0_0_MEMBER_4_FILL"/>
</g>

<g transform="matrix( 1, 0, 0, 1, 0,0) ">
<use filter="url(#Filter_3)" xlink:href="#brilho_0_Layer0_0_MEMBER_5_FILL"/>
</g>
</g>

<g transform="matrix( 0.503570556640625, 0.0000152587890625, -0.0000152587890625, 0.503570556640625, 31.95,169.55) ">
<g transform="matrix( 1, 0, 0, 1, 0,0) ">
<use filter="url(#Filter_3)" xlink:href="#brilho_0_Layer0_0_MEMBER_0_FILL"/>
</g>

<g transform="matrix( 1, 0, 0, 1, 0,0) ">
<use filter="url(#Filter_3)" xlink:href="#brilho_0_Layer0_0_MEMBER_1_FILL"/>
</g>

<g transform="matrix( 1, 0, 0, 1, 0,0) ">
<use filter="url(#Filter_3)" xlink:href="#brilho_0_Layer0_0_MEMBER_2_FILL"/>
</g>

<g transform="matrix( 1, 0, 0, 1, 0,0) ">
<use filter="url(#Filter_3)" xlink:href="#brilho_0_Layer0_0_MEMBER_3_FILL"/>
</g>

<g transform="matrix( 1, 0, 0, 1, 0,0) ">
<use filter="url(#Filter_3)" xlink:href="#brilho_0_Layer0_0_MEMBER_4_FILL"/>
</g>

<g transform="matrix( 1, 0, 0, 1, 0,0) ">
<use filter="url(#Filter_3)" xlink:href="#brilho_0_Layer0_0_MEMBER_5_FILL"/>
</g>
</g>

<g transform="matrix( 0.503570556640625, 0.0000152587890625, -0.0000152587890625, 0.503570556640625, 867.3,243.25) ">
<g transform="matrix( 1, 0, 0, 1, 0,0) ">
<use filter="url(#Filter_3)" xlink:href="#brilho_0_Layer0_0_MEMBER_0_FILL"/>
</g>

<g transform="matrix( 1, 0, 0, 1, 0,0) ">
<use filter="url(#Filter_3)" xlink:href="#brilho_0_Layer0_0_MEMBER_1_FILL"/>
</g>

<g transform="matrix( 1, 0, 0, 1, 0,0) ">
<use filter="url(#Filter_3)" xlink:href="#brilho_0_Layer0_0_MEMBER_2_FILL"/>
</g>

<g transform="matrix( 1, 0, 0, 1, 0,0) ">
<use filter="url(#Filter_3)" xlink:href="#brilho_0_Layer0_0_MEMBER_3_FILL"/>
</g>

<g transform="matrix( 1, 0, 0, 1, 0,0) ">
<use filter="url(#Filter_3)" xlink:href="#brilho_0_Layer0_0_MEMBER_4_FILL"/>
</g>

<g transform="matrix( 1, 0, 0, 1, 0,0) ">
<use filter="url(#Filter_3)" xlink:href="#brilho_0_Layer0_0_MEMBER_5_FILL"/>
</g>
</g>

<g transform="matrix( 0.503570556640625, 0.0000152587890625, -0.0000152587890625, 0.503570556640625, 856.85,179) ">
<g transform="matrix( 1, 0, 0, 1, 0,0) ">
<use filter="url(#Filter_3)" xlink:href="#brilho_0_Layer0_0_MEMBER_0_FILL"/>
</g>

<g transform="matrix( 1, 0, 0, 1, 0,0) ">
<use filter="url(#Filter_3)" xlink:href="#brilho_0_Layer0_0_MEMBER_1_FILL"/>
</g>

<g transform="matrix( 1, 0, 0, 1, 0,0) ">
<use filter="url(#Filter_3)" xlink:href="#brilho_0_Layer0_0_MEMBER_2_FILL"/>
</g>

<g transform="matrix( 1, 0, 0, 1, 0,0) ">
<use filter="url(#Filter_3)" xlink:href="#brilho_0_Layer0_0_MEMBER_3_FILL"/>
</g>

<g transform="matrix( 1, 0, 0, 1, 0,0) ">
<use filter="url(#Filter_3)" xlink:href="#brilho_0_Layer0_0_MEMBER_4_FILL"/>
</g>

<g transform="matrix( 1, 0, 0, 1, 0,0) ">
<use filter="url(#Filter_3)" xlink:href="#brilho_0_Layer0_0_MEMBER_5_FILL"/>
</g>
</g>

<g transform="matrix( 0.5035552978515625, 0.0000152587890625, -0.0000152587890625, 0.5035552978515625, 66.25,375.85) ">
<g transform="matrix( 1, 0, 0, 1, 0,0) ">
<use filter="url(#Filter_3)" xlink:href="#brilho_0_Layer0_0_MEMBER_0_FILL"/>
</g>

<g transform="matrix( 1, 0, 0, 1, 0,0) ">
<use filter="url(#Filter_3)" xlink:href="#brilho_0_Layer0_0_MEMBER_1_FILL"/>
</g>

<g transform="matrix( 1, 0, 0, 1, 0,0) ">
<use filter="url(#Filter_3)" xlink:href="#brilho_0_Layer0_0_MEMBER_2_FILL"/>
</g>

<g transform="matrix( 1, 0, 0, 1, 0,0) ">
<use filter="url(#Filter_3)" xlink:href="#brilho_0_Layer0_0_MEMBER_3_FILL"/>
</g>

<g transform="matrix( 1, 0, 0, 1, 0,0) ">
<use filter="url(#Filter_3)" xlink:href="#brilho_0_Layer0_0_MEMBER_4_FILL"/>
</g>

<g transform="matrix( 1, 0, 0, 1, 0,0) ">
<use filter="url(#Filter_3)" xlink:href="#brilho_0_Layer0_0_MEMBER_5_FILL"/>
</g>
</g>

<g transform="matrix( 0.5035552978515625, 0.0000152587890625, -0.0000152587890625, 0.5035552978515625, 143.95,444.1) ">
<g transform="matrix( 1, 0, 0, 1, 0,0) ">
<use filter="url(#Filter_3)" xlink:href="#brilho_0_Layer0_0_MEMBER_0_FILL"/>
</g>

<g transform="matrix( 1, 0, 0, 1, 0,0) ">
<use filter="url(#Filter_3)" xlink:href="#brilho_0_Layer0_0_MEMBER_1_FILL"/>
</g>

<g transform="matrix( 1, 0, 0, 1, 0,0) ">
<use filter="url(#Filter_3)" xlink:href="#brilho_0_Layer0_0_MEMBER_2_FILL"/>
</g>

<g transform="matrix( 1, 0, 0, 1, 0,0) ">
<use filter="url(#Filter_3)" xlink:href="#brilho_0_Layer0_0_MEMBER_3_FILL"/>
</g>

<g transform="matrix( 1, 0, 0, 1, 0,0) ">
<use filter="url(#Filter_3)" xlink:href="#brilho_0_Layer0_0_MEMBER_4_FILL"/>
</g>

<g transform="matrix( 1, 0, 0, 1, 0,0) ">
<use filter="url(#Filter_3)" xlink:href="#brilho_0_Layer0_0_MEMBER_5_FILL"/>
</g>
</g>

<g transform="matrix( 0.5035552978515625, 0.0000152587890625, -0.0000152587890625, 0.5035552978515625, 413.3,491.2) ">
<g transform="matrix( 1, 0, 0, 1, 0,0) ">
<use filter="url(#Filter_3)" xlink:href="#brilho_0_Layer0_0_MEMBER_0_FILL"/>
</g>

<g transform="matrix( 1, 0, 0, 1, 0,0) ">
<use filter="url(#Filter_3)" xlink:href="#brilho_0_Layer0_0_MEMBER_1_FILL"/>
</g>

<g transform="matrix( 1, 0, 0, 1, 0,0) ">
<use filter="url(#Filter_3)" xlink:href="#brilho_0_Layer0_0_MEMBER_2_FILL"/>
</g>

<g transform="matrix( 1, 0, 0, 1, 0,0) ">
<use filter="url(#Filter_3)" xlink:href="#brilho_0_Layer0_0_MEMBER_3_FILL"/>
</g>

<g transform="matrix( 1, 0, 0, 1, 0,0) ">
<use filter="url(#Filter_3)" xlink:href="#brilho_0_Layer0_0_MEMBER_4_FILL"/>
</g>

<g transform="matrix( 1, 0, 0, 1, 0,0) ">
<use filter="url(#Filter_3)" xlink:href="#brilho_0_Layer0_0_MEMBER_5_FILL"/>
</g>
</g>

<g transform="matrix( 0.5035552978515625, 0.0000152587890625, -0.0000152587890625, 0.5035552978515625, 533.85,491.2) ">
<g transform="matrix( 1, 0, 0, 1, 0,0) ">
<use filter="url(#Filter_3)" xlink:href="#brilho_0_Layer0_0_MEMBER_0_FILL"/>
</g>

<g transform="matrix( 1, 0, 0, 1, 0,0) ">
<use filter="url(#Filter_3)" xlink:href="#brilho_0_Layer0_0_MEMBER_1_FILL"/>
</g>

<g transform="matrix( 1, 0, 0, 1, 0,0) ">
<use filter="url(#Filter_3)" xlink:href="#brilho_0_Layer0_0_MEMBER_2_FILL"/>
</g>

<g transform="matrix( 1, 0, 0, 1, 0,0) ">
<use filter="url(#Filter_3)" xlink:href="#brilho_0_Layer0_0_MEMBER_3_FILL"/>
</g>

<g transform="matrix( 1, 0, 0, 1, 0,0) ">
<use filter="url(#Filter_3)" xlink:href="#brilho_0_Layer0_0_MEMBER_4_FILL"/>
</g>

<g transform="matrix( 1, 0, 0, 1, 0,0) ">
<use filter="url(#Filter_3)" xlink:href="#brilho_0_Layer0_0_MEMBER_5_FILL"/>
</g>
</g>

<g transform="matrix( 0.503570556640625, 0.0000152587890625, -0.0000152587890625, 0.503570556640625, 36.3,331.2) ">
<g transform="matrix( 1, 0, 0, 1, 0,0) ">
<use filter="url(#Filter_3)" xlink:href="#brilho_0_Layer0_0_MEMBER_0_FILL"/>
</g>

<g transform="matrix( 1, 0, 0, 1, 0,0) ">
<use filter="url(#Filter_3)" xlink:href="#brilho_0_Layer0_0_MEMBER_1_FILL"/>
</g>

<g transform="matrix( 1, 0, 0, 1, 0,0) ">
<use filter="url(#Filter_3)" xlink:href="#brilho_0_Layer0_0_MEMBER_2_FILL"/>
</g>

<g transform="matrix( 1, 0, 0, 1, 0,0) ">
<use filter="url(#Filter_3)" xlink:href="#brilho_0_Layer0_0_MEMBER_3_FILL"/>
</g>

<g transform="matrix( 1, 0, 0, 1, 0,0) ">
<use filter="url(#Filter_3)" xlink:href="#brilho_0_Layer0_0_MEMBER_4_FILL"/>
</g>

<g transform="matrix( 1, 0, 0, 1, 0,0) ">
<use filter="url(#Filter_3)" xlink:href="#brilho_0_Layer0_0_MEMBER_5_FILL"/>
</g>
</g>
</svg>
