
<svg xmlns="http://www.w3.org/2000/svg" version="1.1" xmlns:xlink="http://www.w3.org/1999/xlink" preserveAspectRatio="none" x="0px" y="0px" width="665px" height="342px" viewBox="0 0 665 342">
<defs>
<linearGradient id="Gradient_1" gradientUnits="userSpaceOnUse" x1="372.875" y1="319.375" x2="307.125" y2="269.625" spreadMethod="pad">
<stop  offset="0%" stop-color="#000000"/>

<stop  offset="100%" stop-color="#333333"/>
</linearGradient>

<linearGradient id="Gradient_2" gradientUnits="userSpaceOnUse" x1="428.975" y1="255.2625" x2="369.025" y2="131.2375" spreadMethod="pad">
<stop  offset="0%" stop-color="#000000"/>

<stop  offset="100%" stop-color="#333333"/>
</linearGradient>

<linearGradient id="Gradient_3" gradientUnits="userSpaceOnUse" x1="521.4625" y1="237.1875" x2="500.0375" y2="164.0125" spreadMethod="pad">
<stop  offset="0%" stop-color="#000000"/>

<stop  offset="100%" stop-color="#333333"/>
</linearGradient>

<linearGradient id="Gradient_4" gradientUnits="userSpaceOnUse" x1="583.9124999999999" y1="194.0875" x2="574.1875" y2="120.11249999999998" spreadMethod="pad">
<stop  offset="0%" stop-color="#000000"/>

<stop  offset="100%" stop-color="#333333"/>
</linearGradient>

<linearGradient id="Gradient_5" gradientUnits="userSpaceOnUse" x1="637.9375" y1="221.175" x2="656.5625" y2="159.325" spreadMethod="pad">
<stop  offset="0%" stop-color="#000000"/>

<stop  offset="100%" stop-color="#333333"/>
</linearGradient>

<linearGradient id="Gradient_6" gradientUnits="userSpaceOnUse" x1="726.7125" y1="211.225" x2="744.5875" y2="146.975" spreadMethod="pad">
<stop  offset="0%" stop-color="#000000"/>

<stop  offset="100%" stop-color="#333333"/>
</linearGradient>

<linearGradient id="Gradient_7" gradientUnits="userSpaceOnUse" x1="776.9375" y1="286.6375" x2="829.5625" y2="229.4625" spreadMethod="pad">
<stop  offset="0%" stop-color="#000000"/>

<stop  offset="100%" stop-color="#333333"/>
</linearGradient>

<filter id="Filter_1" x="-20%" y="-20%" width="140%" height="140%" color-interpolation-filters="sRGB">
<feColorMatrix in="SourceGraphic" type="matrix" values="1 0 0 0 0 0 1 0 0 0 0 0 1 0 0 0 0 0 0.19 0" result="result1"/>
</filter>

<g id="S_mbolo_23_0_Layer0_0_FILL">
<path fill="#000000" stroke="none" d="
M 657.05 137
Q 656.55 134.55 654.55 133.05
L 613.25 101.8
Q 611.3 100.3 608.9 100.45 606.45 100.6 604.7 102.3
L 525.3 177.15 526.15 175.3
Q 527.25 172.75 526.3 170.2 525.3 167.65 522.8 166.5
L 497.3 155.05 542.1 55.4
Q 543.2 52.85 542.25 50.3 541.25 47.7 538.75 46.6
L 509.55 33.5
Q 507 32.35 504.45 33.35 501.85 34.35 500.75 36.85
L 457.1 133.9 464.2 108.4
Q 469.9 87.9 460.75 74.1
L 460.8 74.1
Q 452.3 60.25 431.9 54.65 411.8 49.05 397.7 56.6
L 397.75 56.55
Q 382.5 63.95 376.9 84.3
L 361.45 140 351.15 37.35 368.55 35.6
Q 371.25 35.3 373.05 33.15 374.8 31 374.55 28.3
L 372.3 6
Q 372 3.25 369.9 1.5 367.75 -0.25 365 0.05
L 282.65 8.35
Q 279.9 8.6 278.15 10.75 276.4 12.9 276.7 15.65
L 278.95 37.95
Q 279.2 40.65 281.35 42.4 283.45 44.15 286.2 43.9
L 303.7 42.1 312.7 131.8
Q 309 123.25 304.15 119.05 300.15 115.15 295 113.55 297.4 110.25 298.75 106.7
L 298.75 106.75
Q 303.55 95.7 299.05 78.85 292.75 55.15 273.55 50.5 260.45 46.6 237.25 52.85
L 197.55 63.5
Q 194.85 64.2 193.5 66.6 192.1 69 192.85 71.65
L 219.45 171.05 158.1 73.55
Q 156.75 71.45 154.35 70.75 151.95 70 149.7 71.05
L 109.8 89.45
Q 107.55 90.5 106.55 92.7 105.5 94.9 106.15 97.25
L 138.2 215.95
Q 136.9 215.2 135.25 215.15 132.5 215.05 130.5 216.95
L 101.6 243.85
Q 99.55 245.7 99.45 248.45 99.35 251.15 101.2 253.2 102.3 254.4 108 259.6 108.05 259.65 108.1 259.7 113.15 264.45 116.2 267.65 122.05 273.95 123.5 278.6 124 280.65 122.65 282.05
L 122.6 282.05
Q 121.6 282.95 120.2 282.85
L 120.1 282.85
Q 118.4 282.7 117.3 281.55
L 48.3 207.45
Q 47.3 206.3 47.35 204.65 47.35 204.5 47.35 204.4 47.35 203.05 48.2 202.15
L 48.25 202.1
Q 52.5 199.5 60.45 208 62.8 210.55 66.25 215
L 66.35 215.1
Q 70.3 220 71.65 221.4 73.55 223.35 76.25 223.45 78.95 223.55 81 221.7
L 109.9 194.8
Q 111.9 192.9 112 190.15 112.1 187.35 110.2 185.35
L 95.8 169.95
Q 78.9 151.8 59.75 152.8 41.25 153.2 20.95 172.15 1.65 190.05 0.25 209.95 -2 230.85 16.05 250.25
L 72.3 310.7
Q 90.45 330.15 111.6 329.4 131.45 329.3 150.95 311.15 168.7 294.65 171.4 276.15 174.9 254.9 158.35 237.1
L 155.15 233.65 175.85 224.15
Q 178.05 223.1 179.1 220.9 180.1 218.65 179.45 216.35
L 171.9 189 177 186.65 191.35 210.5
Q 192.7 212.65 195.1 213.4 197.5 214.15 199.85 213.1
L 227.35 200.45 231.25 215.05
Q 231.95 217.65 234.35 219.05 236.7 220.45 239.35 219.75
L 272.75 210.8
Q 275.4 210.05 276.8 207.7 278.2 205.3 277.5 202.65
L 262 144.75
Q 264.35 145.05 266.15 146.3 269.5 149.8 271.85 158.5
L 271.9 158.6
Q 272.65 161.7 274.2 168.65
L 274.2 168.6
Q 275.8 176 276.85 179.85
L 276.85 179.8
Q 281.05 195.75 288.8 203.1 290.05 204.35 291.75 204.8 293.45 205.25 295.15 204.8
L 328.55 195.85
Q 331.05 195.15 332.45 193 333.85 190.75 333.4 188.25 332.95 185.7 330.9 184.1 325.75 179.75 322.35 167.6 322.65 167.6 322.95 167.6
L 357.15 164.2
Q 357.5 164.15 357.85 164.1 358.6 172.95 363.35 180.2 371.55 193.65 391.7 199.3
L 391.75 199.3
Q 412.1771484375 204.9796875 426.1 197.8 426.150390625 197.77578125 426.2 197.75 441.319140625 190.68125 447.05 170.15
L 447.1 170
Q 447.5 170.25 448 170.5
L 505.15 196.15 485.95 214.3
Q 484.5 215.65 484.05 217.55 483.55 219.45 484.25 221.35 484.9 223.2 486.5 224.4
L 511.65 243.45
Q 513.6 244.95 516.05 244.8 518.45 244.65 520.25 243
L 545.1 219.25 552.05 224.5 534.8 253.5
Q 533.5 255.7 534 258.2 534.5 260.65 536.5 262.2
L 566.35 284.75
Q 567.9 285.9 569.85 286.1 571.75 286.25 573.45 285.35 575.15 284.4 576.15 282.75
L 656.35 141.65
Q 657.55 139.45 657.05 137
M 423.85 88.8
Q 423.95 88.85 424 88.95
L 424.05 89 402.6 166.1
Q 401.95 166.35 401.3 166.2 400.65 166.05 400.35 165.55
L 400.4 165.55
Q 400.1 165 400.3 164.4
L 400.25 164.45 421.2 89.1
Q 421.4 88.4 421.85 88.05
L 421.95 88
Q 422.4 87.8 422.95 87.9 423.45 88.2 423.85 88.8
M 246.25 86.55
Q 248.4 86.5 249.9 87.45 252.15 90.05 253.9 96.4
L 253.9 96.35
Q 255.7 103.35 255.4 106.95
L 255.4 106.85
Q 254.85 109.2 252.6 110.25
L 246.25 86.55 Z"/>
</g>

<g id="Layer0_0_MEMBER_1_MEMBER_0_FILL">
<path fill="#FFFFFF" stroke="none" d="
M 346.7 232.95
L 332.3 217.55
Q 303.15 186.2 266.8 220.05 249.65 236 248.2 253.6 246.5 271.8 262.25 288.75
L 318.5 349.2
Q 334.4 366.25 352.8 365.8 370.35 365.5 387.75 349.3 403.6 334.6 406.15 318.15 409.05 299.95 394.8 284.65
L 376.35 264.85 347.45 291.75
Q 348.5 292.9 353.9 297.8 359.25 302.8 362.4 306.15 377.1 321.95 368.5 329.95 365.4 332.85 361 332.5 356.65 332.2 353.75 329.1
L 284.8 255.05
Q 281.9 251.95 282.05 247.45 282.05 243.05 285.05 240.3 293.5 232.4 306.65 246.5 309.2 249.25 312.85 253.95 316.55 258.55 317.8 259.85
L 346.7 232.95
M 393.8 120.15
L 353.9 138.55 390.05 272.35 414.4 261.15 405.3 228.35 420.95 221.15 438.4 250.1 467.25 236.8 393.8 120.15
M 410.05 203.1
L 399.55 207.95 379.6 150.45 410.05 203.1
M 533.95 147.25
Q 537.8 137.9 533.95 123.6 528.75 104.05 513.2 99.95 501.35 96.65 480.3 102.3
L 440.6 112.95 479 256.35 512.4 247.4 494.9 182
Q 505.95 179.05 512 184.45 516.65 188.75 519.65 199.9 520.45 203.05 522.05 210.25 523.6 217.45 524.6 221.15 528.25 234.95 534.8 241.4
L 568.2 232.45
Q 561.25 227.15 557 211.4 556 207.7 554.3 199.9 552.6 192.2 551.55 188.25 547.45 172.9 541 167 532.45 159.2 517.1 163.9 530.1 156.7 533.95 147.25
M 495.75 125.6
Q 499.3 128.95 501.65 137.7 503.95 146.45 503.3 150.95 502.15 158.05 494.6 160.05
L 489.25 161.5 479.35 124.6 482.8 123.65
Q 491.1 121.45 495.75 125.6
M 585.2 74.45
L 609.25 72 607 49.7 524.65 58 526.9 80.3 551 77.85 563.65 204 597.85 200.6 585.2 74.45
M 696.5 120.7
Q 689.05 108.95 671.45 104.1 654.2 99.3 642.1 105.55 629.4 111.95 624.65 129.1
L 607.55 190.7
Q 602.8 207.8 610.3 219.7 617.5 231.1 634.85 235.95 652.55 240.85 664.55 234.85 677.15 228.75 682 211.4
L 699.15 149.65
Q 703.95 132.4 696.5 120.7
M 670.65 128
Q 672.65 130.65 671.95 133.15
L 650.25 211.25
Q 649.5 214 646.65 215.2 643.75 216.45 640.85 215.65 637.6 214.75 635.95 211.9 634.3 209 635.2 205.7
L 656.15 130.35
Q 657.1 126.9 659.95 125.3 662.8 123.65 666.15 124.55 668.75 125.3 670.65 128
M 777.35 95.7
L 748.15 82.6 692.05 207.45 752.8 234.75 761.4 215.6 729.85 201.4 777.35 95.7
M 891.9 181.4
L 850.6 150.15 731.85 262.15 757 281.2 785.95 253.55 802.15 265.8 781.85 299.95 811.7 322.5 891.9 181.4
M 852.55 183.45
L 814.8 244.35 803.95 236.15 852.55 183.45 Z"/>
</g>

<g id="Layer0_0_MEMBER_1_MEMBER_1_FILL">
<path fill="url(#Gradient_1)" stroke="none" d="
M 346.7 232.95
L 332.3 217.55
Q 323.61484375 208.209375 314.3 204.65 314.2236328125 204.627734375 314.15 204.6 313.78984375 204.453515625 313.4 204.3 312.603515625 204.0375 311.75 203.8 311.711328125 203.78125 311.65 203.75
L 311.6 203.75
Q 290.83046875 197.741015625 266.9 219.9 266.8646484375 219.98984375 266.8 220.05 266.0876953125 220.7125 265.4 221.35 249.58984375 236.7310546875 248.2 253.6 247.6029296875 259.9935546875 249.15 266.2 249.395703125 267.1533203125 249.65 268.05 252.85390625 278.6380859375 262.25 288.75
L 318.5 349.2
Q 334.4 366.25 352.8 365.8 367.928125 365.54140625 382.95 353.45 383.046875 353.3966796875 383.15 353.3 385.4458984375 351.4453125 387.75 349.3 388.462890625 348.638671875 389.15 347.95 403.7146484375 333.8599609375 406.15 318.15 409.05 299.95 394.8 284.65
L 376.35 264.85 347.45 291.75
Q 348.5 292.9 353.9 297.8 359.25 302.8 362.4 306.15 377.1 321.95 368.5 329.95 368.3634765625 330.077734375 368.2 330.2 365.2060546875 332.8345703125 361 332.5 356.65 332.2 353.75 329.1
L 284.8 255.05
Q 281.9 251.95 282.05 247.45 282.05 243.05 285.05 240.3 285.578125 239.80625 286.1 239.4 294.321875 233.28125 306.65 246.5 309.2 249.25 312.85 253.95 316.55 258.55 317.8 259.85
L 346.7 232.95 Z"/>

<path fill="url(#Gradient_2)" stroke="none" d="
M 393.8 120.15
L 353.9 138.55 390.05 272.35 414.4 261.15 405.3 228.35 420.95 221.15 438.4 250.1 467.25 236.8 393.8 120.15
M 410.05 203.1
L 399.55 207.95 379.6 150.45 410.05 203.1 Z"/>

<path fill="url(#Gradient_3)" stroke="none" d="
M 529.25 112.15
Q 529.01953125 111.754296875 528.75 111.35 523.048046875 102.546484375 513.2 99.95 503.8203125 97.337890625 488.65 100.3 484.68828125 101.122265625 480.3 102.3
L 440.6 112.95 479 256.35 512.4 247.4 494.9 182
Q 497.2916015625 181.3615234375 499.45 181.1 507.259375 180.21875 512 184.45 516.65 188.75 519.65 199.9 520.45 203.05 522.05 210.25 523.6 217.45 524.6 221.15 528.25 234.95 534.8 241.4
L 568.2 232.45
Q 561.25 227.15 557 211.4 556.434375 209.3068359375 555.65 205.9
L 555.65 205.85
Q 555.4802734375 205.137890625 555.3 204.35 555.14609375 203.6328125 554.95 202.85 554.643359375 201.4306640625 554.3 199.9 552.6 192.2 551.55 188.25 547.45 172.9 541 167 534.1853515625 160.783203125 523.05 162.5 522.9125 162.5216796875 522.75 162.55 520.064453125 162.9923828125 517.1 163.9 524.22734375 159.95234375 528.6 155.3 528.8529296875 155.0494140625 529.1 154.75 532.334765625 151.214453125 533.95 147.25 537.8 137.9 533.95 123.6 532.195703125 117.004296875 529.25 112.15
M 495.75 125.6
Q 499.3 128.95 501.65 137.7 502.9349609375 142.5884765625 503.3 146.15 503.5869140625 148.9640625 503.3 150.95 502.333984375 156.9140625 496.85 159.25 495.8080078125 159.730078125 494.6 160.05
L 489.25 161.5 479.35 124.6 482.8 123.65
Q 486.07109375 122.7830078125 488.75 122.9 492.9326171875 123.085546875 495.75 125.6 Z"/>

<path fill="url(#Gradient_4)" stroke="none" d="
M 585.2 74.45
L 609.25 72 607 49.7 524.65 58 526.9 80.3 551 77.85 563.65 204 597.85 200.6 585.2 74.45 Z"/>

<path fill="url(#Gradient_5)" stroke="none" d="
M 700.65 132
Q 699.7595703125 125.8189453125 696.5 120.7 689.05 108.95 671.45 104.1 671.162890625 104.0201171875 670.85 103.95 653.9986328125 99.4041015625 642.1 105.55 636.9818359375 108.1291015625 633.15 112.45 632.9595703125 112.659375 632.75 112.85 627.3919921875 119.1998046875 624.65 129.1
L 607.55 190.7
Q 606.0318359375 196.1654296875 605.75 201.1 605.1970703125 211.6033203125 610.3 219.7 616.6783203125 229.7990234375 631 234.75 632.869921875 235.396484375 634.85 235.95 635.9736328125 236.2611328125 637.05 236.5 653.31171875 240.469140625 664.55 234.85 677.15 228.75 682 211.4
L 699.15 149.65
Q 701.85 139.9470703125 700.65 132
M 670.65 128
Q 672.65 130.65 671.95 133.15
L 650.25 211.25
Q 649.5 214 646.65 215.2 643.75 216.45 640.85 215.65 640.7119140625 215.61171875 640.55 215.55 637.5298828125 214.62890625 635.95 211.9 634.3 209 635.2 205.7
L 656.15 130.35
Q 656.6234375 128.63046875 657.55 127.35 658.5205078125 126.1025390625 659.95 125.3 662.8 123.65 666.15 124.55 666.6482421875 124.69375 667.1 124.9 669.1142578125 125.817578125 670.65 128 Z"/>

<path fill="url(#Gradient_6)" stroke="none" d="
M 777.35 95.7
L 748.15 82.6 692.05 207.45 752.8 234.75 761.4 215.6 729.85 201.4 777.35 95.7 Z"/>

<path fill="url(#Gradient_7)" stroke="none" d="
M 891.9 181.4
L 850.6 150.15 731.85 262.15 757 281.2 785.95 253.55 802.15 265.8 781.85 299.95 811.7 322.5 891.9 181.4
M 852.55 183.45
L 814.8 244.35 803.95 236.15 852.55 183.45 Z"/>
</g>

<g id="Layer0_0_MEMBER_1_MEMBER_2_FILL">
<path fill="#FFFF99" stroke="none" d="
M 308.8 302.85
Q 309.15 301 309.5 297.6 308.9 298.35 308.25 298.95 305.4 301.6 301 298.4 304 302.9 301.05 305.65 300.45 306.2 299.6 306.8 301.5 306.45 305.15 306.25 305.65 307.6 306.85 310.2 307.75 306.4 308.25 305.95 308.5 305.7 312.3 305.15 311.05 304.25 308.8 302.85
M 268.75 252.3
L 267.7 253.25
Q 264.9 255.9 261 253.4 263.75 257.9 258.85 261.5 260.8 261.2 264.3 260.8 264.3 261 266 264.75 266.9 261.05 267.45 260.6 267.7 260.35 271.55 259.35 270.25 258.9 269.4 258 267.7 256.2 268.75 252.3
M 303.5 218.75
Q 301.45 216.55 302.8 213.1
L 301.95 214.2
Q 299.25 216.75 295.15 214.25 297.6 219.15 293.2 222.05 295 221.8 298.45 221.6 299.05 222.85 300.5 225.45 301.35 221.65 301.6 221.45 301.85 221.2 305.8 220.25 304.3 219.65 303.5 218.75
M 496.1 242.8
Q 495.2 241.6 494.9 240.65 494.2 238.05 496.8 236.05 495.95 236.4 495.25 236.55 492.1 237.4 490.6 233.6 490.35 238.5 485.45 239.1 487.6 239.55 489.8 240.8 489.8 242.05 489.8 244.65 492.05 242.05 492.6 241.9 492.35 241.95 496.1 242.8
M 550.85 221.55
Q 549.85 221.95 549.15 222.1 545.75 223.05 544.55 219.2 544.1 223.45 541.1 224.3 540.4 224.45 539.55 224.6 540.9 225.1 543.7 226.35 543.7 227.6 543.75 230.2 545.8 227.6 546.4 227.45 546.9 227.35 550.25 228.3 549.25 227.15 548.95 226.2 548.25 223.6 550.85 221.55
M 642.25 225.25
Q 641.6 225.25 641.05 225.1 637.2 224.05 638.65 220.7 636.15 224.15 632.45 222.55 633.2 223.65 634.7 225.75 634.15 226.7 633.05 228.7 635.85 227.8 636.35 227.95 636.25 227.9 638.6 230.1 638.5 228.95 638.75 227.95 639.35 225.8 642.25 225.25
M 348.7 345.75
Q 349.05 343.6 349.4 340.5
L 348.15 341.65
Q 345.6 344.25 341.65 341.6 343.7 346.05 341 348.55 340.4 349.1 339.5 349.7 341.4 349.35 345.05 349.15 345.6 350.5 346.75 353.1 347.65 349.3 348.15 348.85 348.4 348.6 352.2 348.05 350.95 347.15 348.7 345.75
M 390.2 311.95
Q 390.7 309.75 390.85 306.75
L 390 307.75
Q 387.3 310.3 383.2 307.75 385.2 312.25 382.5 314.8 382 315.25 381.05 315.85 382.95 315.55 386.6 315.3 387.15 316.65 388.3 319.25 389.15 315.55 389.65 315.05 390 314.75 393.75 314.2 392.5 313.4 390.2 311.95
M 394.05 219.25
Q 393.55 219.6 392.9 219.9 389.9 221.3 387.95 218.4 388.65 222.45 384.2 223.75 385.8 224.15 388.45 224.85 388.65 226.15 389 228.5 390.6 225.8 391.1 225.55 391.45 225.4 394.7 225.85 393.8 224.95 392.2 223.1 392.95 221.75 394.05 219.25
M 432.25 203.5
Q 432.8 202.25 433.4 201.1
L 432.4 201.7
Q 429.25 203.35 427.65 200.15 427.7 203.9 424.85 205.2 424.35 205.45 423.65 205.6 426.1 206.15 427.7 206.9 427.75 208.15 428.1 210.45 428.4 210.05 430.25 207.3 431.5 207.6 433.8 207.85 432.6 206.75 432.1 205.75 431.6 204.65 432.25 203.5
M 447.4 229.3
Q 446.9 228.25 447.5 227.05 448.15 225.8 448.85 224.65 446.4 225.85 447 225.6 444 226.95 442.7 223.8 443.3 227.7 439 229.15
L 442.8 230.55
Q 442.85 230.65 443.5 234 445 231.35 445.65 231.05 446.25 230.8 449.05 231.4 447.85 230.35 447.4 229.3
M 480.35 184
Q 479.5 183 479.2 181.95 478.5 179.35 481.05 177.35 480.25 177.75 479.55 177.9 476.4 178.75 474.9 175 474.7 179.4 469.7 180.4 471.9 180.9 474.05 182 474.1 183.35 474.1 185.95 476.35 183.45 476.9 183.3 476.65 183.35 480.35 184
M 465.35 118.7
Q 464.55 119.1 463.85 119.25 460.7 120.1 459.2 116.35 458.95 120.7 454 121.75 456.2 122.3 458.35 123.35 458.4 124.75 458.35 127.15 460.65 124.75 461.2 124.6 460.95 124.65 464.6 125.3 463.75 124.35 463.5 123.35 462.8 120.75 465.35 118.7
M 373.1 167.45
Q 373.55 171.3 370.85 172.55 370.3 172.8 369.5 173.05 372.15 173.55 373.45 174.25 373.65 175.3 374.1 177.4 375.75 174.8 376.25 174.55 376.7 174.35 379.8 174.8 378.95 173.95 377.45 172.4 377.9 171.05 379.1 168.65 378.35 169.1 377.75 169.4 375 170.65 373.1 167.45
M 400.45 154.85
Q 400.15 159.5 396.55 160.6 399.2 161.1 400.55 161.6 400.55 162.8 400.9 165.05 402.45 162.5 403.05 162.2 403.6 161.95 406.5 162.5 405.9 161.55 404.5 159.95 405.25 158.35 406.4 156.05 405.7 156.5 405.1 156.8 402.4 158.05 400.45 154.85
M 626.75 177.8
Q 626.15 178.8 625.1 180.65 627.95 179.7 628.2 179.8 628.45 179.85 630.7 182.05 630.5 180.8 630.7 180.05 631.25 178.05 634.2 177.2 633.6 177.3 633 177.15 629.45 176.15 630.15 172.2 628.85 175.9 625.45 174.95 624.75 174.75 624.15 174.4 625.1 175.55 626.75 177.8
M 580.9 154.35
Q 580.3 154.45 579.9 154.45 575.4 154.9 574.7 151.1 574.75 151.55 574.8 152 575.1 155.1 571.8 155.45 571.25 155.5 570.5 155.4 569.6 155.5 569.3 155.55 571.75 157.1 573.3 158.15 573.1 159.4 572.75 161.95 575.45 159.9 576 159.85 575.75 159.9 579.15 161.15 578.6 160.05 578.5 159 578.25 156.45 580.9 154.35
M 523.4 181.1
Q 523.8 180.85 526.3 178.15 527.55 178.55 529.95 179.2 529.1 178.15 528.8 177.15 528.1 174.6 530.65 172.55
L 529.4 172.85
Q 526.25 173.85 524.15 170.25 524.35 174.95 519.3 175.55 520.8 175.9 523.65 177.2 523.45 178.5 523.4 181.1
M 519.95 118.6
Q 520.9 117.55 521.75 116.5 520.8 116.85 520.25 117 516.6 118 515.05 114.3 513.55 119.2 510.4 119.55 513 120.55 514.45 121.35 514.45 122.65 514.6 125.25 516.8 122.6 517.05 122.5 517.9 122.3 520.9 123.55 519.75 122.15 519.45 121 519.1 119.7 519.95 118.6
M 540.55 71.05
Q 541 71 544.15 72.7 543.65 71.45 542.45 69.05 543.6 67.9 545.9 66.05
L 544.55 66.2
Q 541.25 66.55 539.85 62.65 538.65 67.25 534.15 67.1 535.5 67.7 538.1 69.4 537.85 70.6 537.35 73.4 539.9 71.1 540.55 71.05
M 574.85 93.9
Q 574.1 94 573.3 94.05 569.9 94.4 568.85 89.7 568.3 95 563.2 94.85 564.5 95.7 567.2 97.4 567 98.6 566.65 101.05 569.15 98.85 569.85 98.75 569.6 98.8 573.05 100.25 572.45 99.15 572.35 98.15 572.15 96.05 574.85 93.9
M 599.7 60.65
Q 598.65 60.75 597.85 60.85 594.15 61.2 593.6 57.25 592.45 61.85 587.9 61.7 589.25 62.4 591.65 64.2 591.45 65.4 591.1 68 593.75 65.7 594.3 65.65 594.75 65.6 597.8 67.3 597.4 66.05 596.3 63.65 597.35 62.5 599.7 60.65
M 823.15 271.7
Q 823.55 269.8 824.35 268.75 825.2 267.6 826.75 267.65 828.35 267.55 829.9 267.55
L 828.7 266.8
Q 825.25 264.45 827.7 261 823.8 263.1 820.85 260.85 820.35 260.5 819.8 259.9 820.6 262.8 820.7 264.85 819.45 265.55 817.25 267.25 817.8 267.25 821.7 267.65 822.1 269.1 823.15 271.7
M 861.6 214.35
Q 860.75 213.95 860.15 213.5 857.3 211.35 859.55 207.6 854.6 209.85 851.45 206.7 852.35 209.75 852.6 211.4 851.45 212.1 849.25 213.7 852.7 213.85 853.35 214.35 853.9 214.75 855 218.05 855.65 217 856.6 214.65 858.6 214.45 861.6 214.35
M 731.5 214.15
Q 730.55 215.1 729 216.95 732.4 216.4 732.5 216.45 732.6 216.5 734.6 219.45 734.65 218.3 735.1 215.8 736.65 215.5 739.15 214.75
L 738.05 214.25
Q 735.3 213 735.95 209.45 733.3 212.1 730.65 210.9 730.05 210.65 729.25 210.3 730.1 211.55 731.5 214.15
M 789.2 236.75
Q 788.45 236.4 787.85 235.9 784.7 233.55 786.65 229.95 782.85 232.9 779 229.1 779.5 230.95 780.25 234.05 779 234.95 776.75 236.65 780.45 236.85 780.95 237.2 781.35 237.5 782.65 241.1 783.15 239.65 784.15 237 786 237 789.2 236.75
M 742.3 125.05
Q 741.8 124.85 741.05 124.5 741.7 125.65 742.85 128.1 742.2 129.05 740.75 130.85 743.8 130.25 744.35 130.5 744.6 130.6 746.5 133.35 746.45 132 746.85 131.15 747.85 128.9 750.95 128.95
L 749.75 128.45
Q 747.05 127.2 747.65 123.5 745 126.3 742.3 125.05
M 728.25 179.4
L 727 179
Q 724.3 177.75 724.95 174 722.25 176.85 719.55 175.6 719.05 175.4 718.35 174.95 719.65 177.35 720 178.85 719.5 179.7 718.05 181.35 721.05 180.85 721.6 181.1 721.85 181.2 723.8 183.85 723.7 182.6 724.05 181.75 724.9 179.85 728.25 179.4
M 668 186.75
Q 667.35 186.55 666.9 186.3 667.65 187.35 669.35 189.65 668.8 190.65 667.7 192.5 670.5 191.55 670.75 191.6 671.05 191.7 673.3 193.9 673.05 192.6 673.25 191.85 673.8 189.85 676.85 189.05 676.1 189.1 675.6 189 672.05 188 672.7 184 671.4 187.7 668 186.75
M 649.8 121.45
L 648.55 121.25
Q 645.8 120.5 645.85 116.8 643.25 120.25 639.65 118.6 640.6 119.8 642.25 122 641.6 123.05 640.6 124.85 643.4 123.95 643.65 124.05 643.9 124.1 646.15 126.25 645.9 125.2 646.15 124.3 646.7 122.45 649.8 121.45
M 692.35 133.25
L 691.15 133.1
Q 688.4 132.3 688.45 128.6 685.85 132.1 682.4 130.5 683.15 131.6 684.85 133.85 684.25 134.9 683.2 136.7 685.95 135.8 686.2 135.85 686.5 135.95 688.75 138.1 688.55 137.05 688.8 136.15 689.35 134.3 692.35 133.25
M 827.4 197.2
Q 827.8 195.9 828.6 193.5 830.25 193.2 833.4 193 832.45 192.55 831.85 192.1 829 189.95 831.25 186.2 827.5 188.8 824.7 186.65 824.1 186.25 823.45 185.55 824.4 188.6 824.45 190.35 823.45 191.15 821.5 192.75 825.1 193 825.6 193.35 826.1 193.75 827.4 197.2 Z"/>

<path fill="#00FFFF" stroke="none" d="
M 281.05 284.15
Q 280.45 284.7 279.55 285.3 281.45 284.95 285.1 284.75 285.65 286.1 287.05 288.95 288.1 284.55 288.2 284.45 288.6 284.1 290.45 284.05 292.3 283.85 292.5 283.9 290.55 282.95 289.75 282.1 288.7 280.95 288.85 279.3 289.1 277.6 289.45 276.1 288.9 276.85 288.25 277.45 285.4 280.1 281 276.9 284 281.4 281.05 284.15
M 277.35 225.15
Q 276.85 225.65 276.25 226.15 273.55 228.7 269.9 226.05 271.9 230.55 269.2 233.1 268.65 233.6 267.6 233.95 269.7 233.8 273.1 233.45 273.85 235 275.2 237.7 276.15 233.3 276.3 233.2 276.55 232.95 278.35 232.7 280.1 232.5 280.5 232.5 279.1 232 278.15 231 276.2 228.9 277.35 225.15
M 626.65 204.8
Q 625.8 204.7 625.25 204.55 622.1 203.7 622.6 200.45 620.6 203.65 616.5 201.95 618.1 203.9 619.05 205.5 618.45 206.5 617.35 208.45 620.2 207.5 620.45 207.6 620.7 207.65 622.95 209.85 622.75 208.65 623 207.75 623.6 205.6 626.65 204.8
M 329.4 319
Q 328.8 319.75 328.15 320.35 325.3 323 320.9 319.8 323.9 324.3 320.95 327.05 320.35 327.6 319.5 328.2 321.4 327.85 325.05 327.65 325.6 329 327 331.8 327.9 327.3 328 327.2 328.4 326.85 330.25 326.8 332.2 326.75 332.3 326.65 330.5 325.85 329.65 325 328.6 323.85 328.8 322.15 329.05 320.5 329.4 319
M 380.25 334.7
L 379.35 335.8
Q 376.45 338.5 372.55 335.85 375.15 340.35 370.65 343.65 374.15 343.3 376 343.5 376.65 344.65 377.9 347.05 378.85 343.35 379.1 343.1 379.35 342.9 383.25 341.8 381.9 341.45 381.1 340.55 379.35 338.7 380.25 334.7
M 372.2 295.1
Q 373 291.35 373.55 290.9 373.8 290.65 377.75 289.7 376.35 288.95 375.65 288.2 373.95 286.35 374.85 282.45
L 373.65 283.55
Q 371.1 286.2 367.05 283.65 369.6 288.3 365 291.6 366.75 291.45 370.4 291.2 370.55 291.3 372.2 295.1
M 325.1 229.6
Q 324.5 230.4 324 230.85 321.15 233.5 317.6 230.5 319.8 235.5 315.55 238.45 317.15 238.4 320.6 238.15 321.3 239.4 322.75 242 323.6 238.25 324.15 237.8 324.65 237.3 328.45 236.7 327.1 236 324.3 234.45 324.7 232.9 325.1 229.6
M 401.2 246.55
Q 400.65 246.95 400.05 247.2 396.95 248.65 395.1 245.7 395.55 247.45 394.5 249 393.4 250.55 391.65 250.95 394.1 251.4 395.7 252.25 395.8 253.35 396.1 255.8 397.75 253.1 398.25 252.9 398.55 252.75 401.8 253 400.8 252.3 400.35 251.25 399.4 249.2 401.2 246.55
M 412.9 210.55
Q 410.95 211.6 411.3 211.45 408.6 212.7 406.9 209.7 407.5 213.8 403.15 215.05 405.9 215.6 407.2 216.35 407.45 217.5 407.85 219.8 409.45 217.1 410 216.85
L 413.35 217.25
Q 412.1 216.2 411.6 215.2 411.1 214.1 411.8 212.9 412.4 211.65 412.9 210.55
M 482.35 204.25
Q 483.15 208.2 479.55 209.15 479.45 209.2 477.5 209.55 480.1 210.5 481.95 211.4 481.95 212.65 481.95 215.25 484.2 212.8 484.75 212.65 484.5 212.7 488.2 213.4 487.35 212.4 487.05 211.35 486.4 208.9 488.85 206.5
L 487.55 206.85
Q 484.4 207.7 482.35 204.25
M 416.15 183.9
Q 416.5 183.75 417.85 183.8 419.2 183.9 419.6 183.85 418.9 182.95 417.55 181.25 418 180.05 419.5 177.7 418.85 178.2 418.2 178.5 415.5 179.75 412.95 176.05 413.4 178.85 412.8 180.05 412.15 181.4 409.7 182.25 411 182.35 413.6 183.05 413.55 183.35 413.9 186.45 414.1 186.25 414.95 185.15 415.8 184.1 416.15 183.9
M 471.85 148.15
Q 468.7 149 466.6 145.4 467.4 149.35 463.8 150.3 463.7 150.35 461.75 150.7 464.4 151.85 466.2 152.75 466.2 153.95 466.2 156.55 468.8 153.6 468.95 153.6 469.3 153.5 470.75 154.05 472.2 154.7 472.5 154.7 471.65 153.75 471.3 152.55 470.7 150.15 473.1 147.65
L 471.85 148.15
M 380 191.95
Q 380.7 196.05 376.65 197.45 377.8 197.65 380.5 198.25 380.5 198.6 380.85 201.7 381.1 201.45 381.8 200.4 382.6 199.35 383.15 199.1 383.4 199 384.75 199.05 386.2 199.1 386.5 199.1 385.9 198.15 384.35 196.5 384.95 195.25 386.2 193.05
L 385 193.6
Q 382.25 194.85 380 191.95
M 386.05 143.3
Q 387.7 140.65 388.2 140.4 388.55 140.25 391.9 140.85 390.85 139.95 390.45 139.1 389.55 137.1 391.4 134.65 390.7 135.1 390.1 135.4 387.4 136.65 385.45 133.45 385.75 137.8 381.8 139.05 383.15 139.3 385.65 139.85 385.9 140.9 386.05 143.3
M 373.25 143
L 372.1 143.5
Q 369.4 144.8 367.1 141.9 367.4 146.25 363.45 147.5 364.7 147.65 367.3 148.3 367.6 149.3 367.9 151.65 369.6 149 370.05 148.8 370.55 148.55 373.6 149 372.9 148.1 371.55 146.35 372.05 145.15 373.25 143
M 583.95 184.7
Q 583.35 184.8 582.95 184.8 579.3 185.2 577.9 181.45 578.15 185.45 574.45 185.8 574.15 185.85 572.35 185.9 574.75 187.3 576.35 188.45 576.15 189.8 575.8 192.25 578.9 189.8 579 189.8 579.3 189.8 580.7 190.6 582.05 191.3 582.2 191.45 581.65 190.35 581.5 189.25 581.25 186.8 583.95 184.7
M 577.85 124.05
Q 577.1 124.3 576.3 124.35 572.6 124.75 571.9 120 571.35 125.35 566.25 125.25 568.3 125.95 570.2 127.5 570.05 128.8 569.7 131.3 572.35 129.15 572.9 129.1 572.65 129.15 576.05 130.5 575.5 129.4 575.4 128.25 575.15 125.7 577.85 124.05
M 638.1 144.75
Q 635.55 148.05 631.85 146.6 632.85 147.7 634.45 150 633.9 150.85 632.8 152.85 635.65 151.9 635.9 152 636.15 152.05 638.45 154.15 638.2 153 638.45 152.1 638.95 150.25 642 149.45
L 640.8 149.1
Q 638.05 148.35 638.1 144.75
M 542.75 197.1
L 541.45 197.55
Q 538.3 198.4 536.3 194.8 536.05 199 532.9 199.85 532.3 200 531.4 200.15 532.8 200.9 535.75 202.05 535.8 203.3 535.55 205.8 537.75 203.2 538.35 203.05 538.6 202.95 541.7 204.15 541.25 203 540.1 200.85 541.2 199.4 542.75 197.1
M 504.25 168.7
Q 505.2 167.5 506 166.55 505.05 166.8 504.4 167 500.85 167.95 499.2 164.35 499.4 168.8 494.65 169.6 497.55 170.65 498.7 171.6 498.75 172.8 498.8 175.4 501.4 172.5 501.3 172.5 501.7 172.4 505.1 173.7 504 172.3 503.7 171.3 503.35 169.9 504.25 168.7
M 523.15 142.45
Q 522.25 142.85 521.55 143.05 518.1 143.95 516.75 140.1 516.5 144.4 513.5 145.2 512.8 145.4 511.9 145.45 514.6 146.55 516 147.55 516.1 148.6 515.95 151.1 518.2 148.5 518.6 148.35 518.35 148.45 522.6 149.35 521.7 148.45 521.4 147.35 520.75 144.9 523.15 142.45
M 494.95 108.8
Q 491.85 109.8 489.8 106.2 489.6 110.4 486.6 111.2 485.8 111.4 484.95 111.45 486.45 112.15 489.3 113.4 489.45 115.15 489.1 117.1 491.3 114.55 491.75 114.4 491.45 114.5 495.45 115.75 494.35 114.3 494.05 113.15 493.7 111.9 494.55 110.7 495.45 109.55 496.25 108.45
L 494.95 108.8
M 571.75 63.45
Q 571 63.55 570.2 63.6 566.8 63.95 565.8 59.35 565.25 64.7 560.15 64.5 562.2 65.3 564.15 66.95 563.95 68.15 563.6 70.75 566.25 68.45 566.8 68.4 566.55 68.45 570 69.8 569.4 68.7 569.3 67.65 569.05 65.05 571.75 63.45
M 840.25 234.45
Q 838.55 234.5 836.25 232.4 836.85 233.85 837.6 236.85 837.3 237 834.25 239.15 834.6 239.2 836.25 239.5 837.8 239.8 838.2 240.1 838.55 240.35 839.25 241.75 839.85 243.15 840.15 243.6 840.7 242.35 841.7 239.95 843.2 239.8 846.4 240.05 845.6 239.65 845 239.15 842.15 237.05 844.55 232.35 841.85 234.4 840.25 234.45
M 667.9 216.4
Q 664.7 215.5 665.2 212.25 663.15 215.45 659.25 213.85 660.65 215.75 661.65 217.35 661.1 218.35 659.95 220.3 662.75 219.35 663 219.4 663.3 219.5 665.55 221.7 665.3 220.45 665.55 219.55 666.15 217.4 669.2 216.6 668.4 216.55 667.9 216.4
M 712.65 207.15
Q 713.55 205.1 716.85 204.7 715.9 204.3 715.3 204 712.3 202.65 713.55 199.35 710.9 202.05 708.3 200.85 707.7 200.6 706.95 200.25 708.25 202.7 708.7 204.05 708 205.05 706.6 206.85 709.85 206.4 710.2 206.4 710.05 206.45 712.35 209.3 712.25 208.1 712.65 207.15
M 804.6 293.65
Q 804.5 293.75 801.4 296.3 804.95 296.4 805.6 296.85 806.2 297.35 807.15 300.65 807.6 298.75 808.4 297.7 809.25 296.55 810.85 296.6 812.45 296.55 814.05 296.6
L 811.95 295.15
Q 808.957421875 292.891015625 811.5 289.8 807.8 292.65 803.9 288.9
L 804.6 293.65
M 764.8 259.35
Q 764.05 259 763.45 258.5 760.25 256.1 762.3 252.6 760.75 254 758.55 253.8 756.3 253.5 754.95 251.9 755.8 254.7 755.9 256.85 754.7 257.55 752.35 259.2 756.05 259.45 756.55 259.8 756.9 260.05 758.45 263.6 758.6 262.15 759.4 261.1 761.05 258.95 764.8 259.35
M 806.2 244.75
Q 802.35 247.65 798.6 243.9 799.55 247.05 799.5 248.8 798.45 249.65 796.3 251.4 800 251.6 800.55 252
L 802 255.7
Q 802.35 253.8 803.15 252.75 804 251.6 805.6 251.65 807.3 251.6 808.7 251.5
L 806.8 250.25
Q 804.0138671875 248.1287109375 806.2 244.75
M 809.75 207
Q 805.8 209.95 802.1 206.55 802.55 207.9 803.4 211 803.1 211.15 800.05 213.3 800.45 213.4 801.95 213.6 803.5 213.85 804.05 214.25 804.3 214.45 805 215.85 805.75 217.35 805.9 217.7 806.55 216.55 807.35 214 809.1 214 811.95 214
L 810.7 213.05
Q 807.9 210.95 809.75 207
M 738.35 153.7
Q 735.6 152.6 736.3 148.75 733.55 151.7 730.85 150.45 730.35 150.25 729.65 149.75 730.35 150.95 731.5 153.3 730.85 154.2 729.4 156.1 732.4 155.6 732.95 155.85 733.2 155.95 735.15 158.55 735.1 157.25 735.45 156.4 736.5 154.15 739.55 154.2
L 738.35 153.7
M 762.3 103.65
L 761.1 103.15
Q 758.35 102 759.05 98.2 755.95 101.4 752.4 99.2 753.1 100.4 754.25 102.75 753.6 103.65 752.15 105.5 755.1 105.1 755.65 105.35 755.9 105.45 757.9 108 757.8 106.75 758.2 105.85 759.2 103.6 762.3 103.65
M 677.05 161.85
Q 676.55 162.7 675.4 164.7 678.2 163.75 678.45 163.8 678.75 163.9 681.05 166 680.85 164.85 681.1 163.95 681.6 162.1 684.55 161.25
L 683.4 160.95
Q 680.65 160.15 680.7 156.55 678.15 159.9 674.6 158.5 675.4 159.5 677.05 161.85
M 669.6 116.85
Q 670.25 114.6 673.2 113.9 672.55 113.75 672 113.6 669.05 112.8 669.4 109.65 667.5 112.9 663.4 111.2 664.85 113.1 665.6 114.5 665.05 115.5 663.95 117.35 667.0154296875 117.12578125 667.3 116.9 667.7107421875 117.334765625 669.45 119 669.35 117.75 669.6 116.85
M 869.3 190.9
Q 869.7 189.35 870.35 188.45 871.95 186.4 875.6 186.95 874.65 186.5 874.05 186 871.2 183.85 873.45 180.15 869.1 182.85 865.65 179.45 866.1 180.95 866.9 183.9 865.9 184.7 863.6 186.15 867.25 186.45 867.75 186.85 868.15 187.15 869.3 190.9
M 846.65 165.1
Q 847.15 166.5 847.9 169.5 847.05 170.4 844.85 172 848.5 172.3 849 172.65 849.5 173.05 850.75 176.45 851.3 175.2 852.3 172.85 853.85 172.7 856.8 172.75
L 855.65 171.85
Q 852.8 169.75 854.45 165.75 850.1 168.45 846.65 165.1 Z"/>
</g>

<path id="Layer0_0_MEMBER_1_MEMBER_0_1_STROKES" stroke="#FFFFFF" stroke-width="13.3" stroke-linejoin="round" stroke-linecap="round" fill="none" d="
M 811.7 322.5
L 781.85 299.95 802.15 265.8 785.95 253.55 757 281.2 731.85 262.15 850.6 150.15 891.9 181.4 811.7 322.5 Z
M 752.8 234.75
L 692.05 207.45 748.15 82.6 777.35 95.7 729.85 201.4 761.4 215.6 752.8 234.75 Z
M 650.25 211.25
L 671.95 133.15
Q 672.65 130.65 670.65 128 668.75 125.3 666.15 124.55 662.8 123.65 659.95 125.3 657.1 126.9 656.15 130.35
L 635.2 205.7
Q 634.3 209 635.95 211.9 637.6 214.75 640.85 215.65 643.75 216.45 646.65 215.2 649.5 214 650.25 211.25 Z
M 682 211.4
Q 677.15 228.75 664.55 234.85 652.55 240.85 634.85 235.95 617.5 231.1 610.3 219.7 602.8 207.8 607.55 190.7
L 624.65 129.1
Q 629.4 111.95 642.1 105.55 654.2 99.3 671.45 104.1 689.05 108.95 696.5 120.7 703.95 132.4 699.15 149.65
L 682 211.4 Z
M 814.8 244.35
L 852.55 183.45 803.95 236.15 814.8 244.35 Z
M 609.25 72
L 585.2 74.45 597.85 200.6 563.65 204 551 77.85 526.9 80.3 524.65 58 607 49.7 609.25 72 Z
M 568.2 232.45
L 534.8 241.4
Q 528.25 234.95 524.6 221.15 523.6 217.45 522.05 210.25 520.45 203.05 519.65 199.9 516.65 188.75 512 184.45 505.95 179.05 494.9 182
L 512.4 247.4 479 256.35 440.6 112.95 480.3 102.3
Q 501.35 96.65 513.2 99.95 528.75 104.05 533.95 123.6 537.8 137.9 533.95 147.25 530.1 156.7 517.1 163.9 532.45 159.2 541 167 547.45 172.9 551.55 188.25 552.6 192.2 554.3 199.9 556 207.7 557 211.4 561.25 227.15 568.2 232.45 Z
M 501.65 137.7
Q 499.3 128.95 495.75 125.6 491.1 121.45 482.8 123.65
L 479.35 124.6 489.25 161.5 494.6 160.05
Q 502.15 158.05 503.3 150.95 503.95 146.45 501.65 137.7 Z
M 467.25 236.8
L 438.4 250.1 420.95 221.15 405.3 228.35 414.4 261.15 390.05 272.35 353.9 138.55 393.8 120.15 467.25 236.8 Z
M 394.8 284.65
Q 409.05 299.95 406.15 318.15 403.6 334.6 387.75 349.3 370.35 365.5 352.8 365.8 334.4 366.25 318.5 349.2
L 262.25 288.75
Q 246.5 271.8 248.2 253.6 249.65 236 266.8 220.05 303.15 186.2 332.3 217.55
L 346.7 232.95 317.8 259.85
Q 316.55 258.55 312.85 253.95 309.2 249.25 306.65 246.5 293.5 232.4 285.05 240.3 282.05 243.05 282.05 247.45 281.9 251.95 284.8 255.05
L 353.75 329.1
Q 356.65 332.2 361 332.5 365.4 332.85 368.5 329.95 377.1 321.95 362.4 306.15 359.25 302.8 353.9 297.8 348.5 292.9 347.45 291.75
L 376.35 264.85 394.8 284.65 Z
M 410.05 203.1
L 379.6 150.45 399.55 207.95 410.05 203.1 Z"/>
</defs>

<g transform="matrix( 1, 0, 0, 1, 0.6,10.85) ">
<g transform="matrix( 1, 0, 0, 1, 0,0) ">
<use filter="url(#Filter_1)" xlink:href="#S_mbolo_23_0_Layer0_0_FILL"/>
</g>
</g>

<g transform="matrix( 1, 0, 0, 1, -235.75,-41.2) ">
<use xlink:href="#Layer0_0_MEMBER_1_MEMBER_0_FILL"/>

<use xlink:href="#Layer0_0_MEMBER_1_MEMBER_0_1_STROKES"/>
</g>

<g transform="matrix( 1, 0, 0, 1, -235.75,-41.2) ">
<use xlink:href="#Layer0_0_MEMBER_1_MEMBER_1_FILL"/>
</g>

<g transform="matrix( 1, 0, 0, 1, -235.75,-41.2) ">
<use xlink:href="#Layer0_0_MEMBER_1_MEMBER_2_FILL"/>
</g>
</svg>
