
<svg xmlns="http://www.w3.org/2000/svg" version="1.1" xmlns:xlink="http://www.w3.org/1999/xlink" preserveAspectRatio="none" x="0px" y="0px" width="502px" height="150px" viewBox="0 0 502 150">
<defs>
<linearGradient id="Gradient_1" gradientUnits="userSpaceOnUse" x1="-528.6000000000001" y1="96.69999999999999" x2="759.7" y2="418.2" spreadMethod="pad">
<stop  offset="0%" stop-color="#460113"/>

<stop  offset="59.6078431372549%" stop-color="#7E1327"/>

<stop  offset="97.25490196078431%" stop-color="#490416"/>
</linearGradient>

<radialGradient id="Gradient_2" gradientUnits="userSpaceOnUse" cx="0" cy="0" r="5.117677695986718" fx="0" fy="0" gradientTransform="matrix( -0.9183853066178317, 0.3956872863619381, 0.35660706054841335, 0.9989882723582264, 389.1,71.4) " spreadMethod="pad">
<stop  offset="0%" stop-color="#00CCFF"/>

<stop  offset="79.2156862745098%" stop-color="#0066CC"/>
</radialGradient>

<radialGradient id="Gradient_3" gradientUnits="userSpaceOnUse" cx="0" cy="0" r="7.125" fx="0" fy="0" gradientTransform="matrix( 1, 0, 0, 1, 365.8,75.4) " spreadMethod="pad">
<stop  offset="0%" stop-color="#00CCFF"/>

<stop  offset="79.2156862745098%" stop-color="#0066CC"/>
</radialGradient>

<linearGradient id="Gradient_4" gradientUnits="userSpaceOnUse" x1="73.2125" y1="146.425" x2="76.1875" y2="63.074999999999996" spreadMethod="pad">
<stop  offset="0%" stop-color="#666666"/>

<stop  offset="100%" stop-color="#FFFFFF"/>
</linearGradient>

<g id="Layer5_0_FILL">
<path fill="#6E0D21" stroke="none" d="
M 146.25 29.8
Q 146.25 11.3 132.5 6.5 127.75 4.85 121.3 4.85
L 30.25 4.85
Q 18.3 4.85 12.05 10.6 5.3 16.8 5.3 29.8
L 5.3 120.85
Q 5.3 123.8287109375 5.65 126.45 6.4708984375 132.5009765625 9.15 136.65 10.4162109375 138.5494140625 12.05 140.05 18.3 145.8 30.25 145.8
L 121.3 145.8
Q 127.75 145.8 132.5 144.15 138.9388671875 141.90234375 142.35 136.65 145.0767578125 132.491796875 145.9 126.45 146.25 123.8275390625 146.25 120.85
L 146.25 29.8 Z"/>
</g>

<g id="Layer4_0_FILL">
<path fill="url(#Gradient_1)" stroke="none" d="
M 88.55 145.8
L 88.55 4.85 56 4.85 56 145.8 88.55 145.8
M 39 4.85
L 30.5 4.85 30.5 145.8 39 145.8 39 4.85
M 12.05 10.6
Q 5.3 16.8 5.3 29.8
L 5.3 120.85
Q 5.3 123.8287109375 5.65 126.45 6.4708984375 132.5009765625 9.15 136.65 10.4162109375 138.5494140625 12.05 140.05
L 12.05 10.6
M 115.5 4.85
L 107 4.85 107 145.8 115.5 145.8 115.5 4.85
M 146.25 29.8
Q 146.25 11.3 132.5 6.5
L 132.5 144.15
Q 138.9388671875 141.90234375 142.35 136.65 145.0767578125 132.491796875 145.9 126.45 146.25 123.8275390625 146.25 120.85
L 146.25 29.8 Z"/>

<path fill="#951A2F" stroke="none" d="
M 56 4.85
L 39 4.85 39 145.8 56 145.8 56 4.85
M 30.25 4.85
Q 18.3 4.85 12.05 10.6
L 12.05 140.05
Q 18.3 145.8 30.25 145.8
L 30.5 145.8 30.5 4.85 30.25 4.85
M 121.3 4.85
L 115.5 4.85 115.5 145.8 121.3 145.8
Q 127.75 145.8 132.5 144.15
L 132.5 6.5
Q 127.75 4.85 121.3 4.85
M 107 4.85
L 88.55 4.85 88.55 145.8 107 145.8 107 4.85 Z"/>

<path fill="#FFFFFF" stroke="none" d="
M 488.3 136.65
Q 496.3099609375 134.25546875 498.9 126.45 500.15 122.699609375 500.15 117.7
L 500.15 34.65
Q 500.15 15.1 481.1 14.65
L 236.25 14.65
Q 217.15 15.1 217.15 34.65
L 217.15 50.75 173.7 76.95 217.15 76.95 217.15 117.7
Q 217.15 122.699609375 218.4 126.45 220.99921875 134.25546875 229 136.65 232.2001953125 137.6044921875 236.25 137.7
L 481.1 137.7
Q 485.1390625 137.6044921875 488.3 136.65 Z"/>
</g>

<g id="Layer3_0_FILL">
<path fill="#000000" stroke="none" d="
M 257.6 103.1
Q 259.45 103.1 260.65 104 261.9 104.95 262.55 106.95
L 264.95 106.4
Q 264.2 103.85 262.3 102.4 260.4 101 257.65 101 255.2 101 253.15 102.15 251.1 103.25 250 105.4 248.9 107.55 248.9 110.45 248.9 113.1 249.9 115.4 250.85 117.75 252.75 118.95 254.6 120.15 257.6 120.15 260.5 120.15 262.5 118.6 264.5 117 265.25 113.95
L 262.8 113.35
Q 262.3 115.7 260.9 116.9 259.45 118.05 257.4 118.05 255.7 118.05 254.25 117.2 252.8 116.3 252.1 114.55 251.4 112.8 251.4 110.45 251.4 108.6 252 106.9 252.6 105.15 254 104.1 255.45 103.1 257.6 103.1
M 278 107.95
Q 276.2 106.1 273.45 106.1 270.95 106.1 269.25 107.6 267.15 109.4 267.15 113.15 267.15 116.55 268.9 118.35 270.65 120.15 273.45 120.15 275.2 120.15 276.7 119.35 278.2 118.5 278.95 117.05 279.75 115.55 279.75 112.95 279.75 109.75 278 107.95
M 273.45 108
Q 275.15 108 276.25 109.3 277.4 110.55 277.4 113.05 277.4 115.7 276.25 117 275.15 118.3 273.45 118.3 271.75 118.3 270.6 117 269.5 115.7 269.5 113.15 269.5 110.55 270.6 109.3 271.75 108 273.45 108
M 288.25 108.1
Q 289.15 108.1 289.85 108.5 290.5 108.9 290.75 109.6 291.05 110.3 291.05 111.7
L 291.05 119.85 293.3 119.85 293.3 111.6
Q 293.3 110 293.2 109.4 293 108.4 292.5 107.7 292 107 290.95 106.55 289.95 106.1 288.75 106.1 285.95 106.1 284.45 108.35
L 284.45 106.45 282.4 106.45 282.4 119.85 284.7 119.85 284.7 112.5
Q 284.7 109.95 285.75 109 286.8 108.1 288.25 108.1
M 295.5 108.2
L 297.15 108.2 297.15 115.9
Q 297.15 117.95 297.45 118.6 297.75 119.25 298.4 119.65 299.1 120.05 300.35 120.05 301.1 120.05 302.05 119.8
L 301.7 117.8
Q 301.1 117.9 300.75 117.9 300.2 117.9 299.95 117.75 299.7 117.55 299.55 117.3 299.45 117 299.45 116.05
L 299.45 108.2 301.7 108.2 301.7 106.45 299.45 106.45 299.45 101.75 297.15 103.1 297.15 106.45 295.5 106.45 295.5 108.2
M 306.25 106.45
L 303.95 106.45 303.95 119.85 306.25 119.85 306.25 106.45
M 306.25 103.95
L 306.25 101.3 303.95 101.3 303.95 103.95 306.25 103.95
M 320.5 109.4
Q 320.3 108.4 319.8 107.7 319.3 107 318.25 106.55 317.25 106.1 316.05 106.1 313.25 106.1 311.75 108.35
L 311.75 106.45 309.7 106.45 309.7 119.85 312 119.85 312 112.5
Q 312 109.95 313.05 109 314.1 108.1 315.55 108.1 316.45 108.1 317.15 108.5 317.8 108.9 318.05 109.6 318.35 110.3 318.35 111.7
L 318.35 119.85 320.6 119.85 320.6 111.6
Q 320.6 110 320.5 109.4
M 322.65 78.6
Q 322.25 76.6 320.85 75.5 319.45 74.35 317.3 74.35 315.55 74.35 314.1 75.2 312.6 76 311.9 77.65 311.15 79.25 311.15 81.45 311.15 84.8 312.85 86.6 314.5 88.4 317.25 88.4 319.45 88.4 321 87.1 322.5 85.8 322.85 83.45
L 320.6 83.2
Q 320.4 84.9 319.5 85.7 318.6 86.55 317.25 86.55 315.55 86.55 314.55 85.3 313.5 84.1 313.5 81.35 313.5 78.7 314.55 77.5 315.65 76.25 317.35 76.25 318.5 76.25 319.3 76.95 320.1 77.6 320.45 78.95
L 322.65 78.6
M 298.75 75.85
Q 296.65 77.65 296.65 81.4 296.65 84.8 298.4 86.6 300.15 88.4 302.95 88.4 304.7 88.4 306.2 87.6 307.7 86.75 308.45 85.3 309.25 83.8 309.25 81.2 309.25 78 307.5 76.2 305.7 74.35 302.95 74.35 300.45 74.35 298.75 75.85
M 302.95 86.55
Q 301.25 86.55 300.1 85.25 299 83.95 299 81.4 299 78.8 300.1 77.55 301.25 76.25 302.95 76.25 304.65 76.25 305.75 77.55 306.9 78.8 306.9 81.3 306.9 83.95 305.75 85.25 304.65 86.55 302.95 86.55
M 282.7 69.55
L 280.05 69.55 287.25 88.1 289.75 88.1 297 69.55 294.5 69.55 289.5 83.05
Q 288.95 84.55 288.5 86.05 288.1 84.65 287.55 83.05
L 282.7 69.55
M 310.95 37.75
L 308.35 37.75 301.2 56.3 303.8 56.3 305.85 50.7 313.6 50.7 315.75 56.3 318.55 56.3 310.95 37.75
M 308.6 43.25
Q 309.25 41.5 309.6 39.7 310 41.2 310.9 43.55
L 312.85 48.7 306.55 48.7 308.6 43.25
M 302.15 43.15
Q 302.15 41.75 301.6 40.6 301 39.45 300.1 38.8 299.15 38.15 297.8 37.95 296.85 37.75 295 37.75
L 288 37.75 288 56.3 290.45 56.3 290.45 48.75 295.2 48.75
Q 299.15 48.75 300.65 47.15 302.15 45.5 302.15 43.15
M 290.45 46.6
L 290.45 39.95 295.2 39.95
Q 296.85 39.95 297.5 40.1 298.45 40.4 299.05 41.2 299.6 42.05 299.6 43.2 299.6 44.8 298.6 45.7 297.6 46.6 295.25 46.6
L 290.45 46.6
M 420.15 109.9
Q 419.95 108.6 419.35 107.8 418.8 107.05 417.6 106.6 416.4 106.1 414.8 106.1 413.75 106.1 412.85 106.4 411.95 106.65 411.4 107.05 410.7 107.55 410.3 108.35 409.9 109.1 409.9 110 409.9 111 410.4 111.8 410.85 112.6 411.85 113.05 412.8 113.55 415.3 114.15 417.15 114.65 417.65 114.95 418.3 115.4 418.3 116.15 418.3 117 417.55 117.65 416.8 118.3 415.2 118.3 413.65 118.3 412.8 117.55 411.95 116.85 411.75 115.5
L 409.5 115.85
Q 409.9 118 411.25 119.05 412.6 120.15 415.25 120.15 416.8 120.15 418.05 119.6 419.3 119.05 420 118.05 420.65 117.05 420.65 115.9 420.65 114.75 420.1 113.95 419.55 113.2 418.6 112.75 417.65 112.35 415.25 111.7 413.55 111.25 413.25 111.15 412.65 110.9 412.35 110.5 412.1 110.15 412.1 109.7 412.1 109.05 412.75 108.5 413.4 108 415 108 416.3 108 417.05 108.55 417.75 109.15 417.9 110.2
L 420.15 109.9
M 426.35 108.55
Q 427.1 108 428.7 108 430.4 108 431.3 108.8 431.95 109.35 431.95 110.75 431.95 110.85 431.95 111.35 430.65 111.8 427.85 112.1 426.5 112.3 425.85 112.45 424.95 112.7 424.2 113.2 423.5 113.7 423.05 114.5 422.6 115.3 422.6 116.3 422.6 118 423.75 119.1 424.95 120.15 427.15 120.15 428.5 120.15 429.7 119.7 430.85 119.25 432.1 118.2 432.2 119.15 432.55 119.85
L 434.95 119.85
Q 434.5 119.1 434.4 118.25 434.25 117.4 434.25 114.2
L 434.25 111.2
Q 434.25 109.65 434.1 109.1 433.9 108.15 433.4 107.55 432.9 106.95 431.85 106.55 430.75 106.1 429.05 106.1 427.3 106.1 426 106.6 424.65 107.05 424 107.95 423.3 108.85 423 110.25
L 425.2 110.55
Q 425.55 109.15 426.35 108.55
M 431.95 113.1
L 431.95 113.95
Q 431.95 115.45 431.55 116.2 431.1 117.2 430.05 117.8 429.05 118.35 427.7 118.35 426.4 118.35 425.7 117.75 425 117.15 425 116.25 425 115.65 425.35 115.15 425.65 114.7 426.25 114.45 426.8 114.15 428.2 113.95 430.7 113.6 431.95 113.1
M 444.1 101.25
Q 442.95 101 441.95 101 440.45 101 439.65 101.55 438.8 102.1 438.5 103 438.25 103.65 438.25 105
L 438.25 106.45 436.25 106.45 436.25 108.2 438.25 108.2 438.25 119.85 440.5 119.85 440.5 108.2 443.15 108.2 443.15 106.45 440.5 106.45 440.5 105.2
Q 440.5 103.95 440.95 103.55 441.35 103.1 442.4 103.1 443.05 103.1 443.75 103.2
L 444.1 101.25
M 447.2 119.85
L 447.2 106.45 444.9 106.45 444.9 119.85 447.2 119.85
M 447.2 103.95
L 447.2 101.3 444.9 101.3 444.9 103.95 447.2 103.95
M 460.65 107.95
Q 458.85 106.1 456.1 106.1 453.6 106.1 451.9 107.6 449.8 109.4 449.8 113.15 449.8 116.55 451.55 118.35 453.3 120.15 456.1 120.15 457.85 120.15 459.35 119.35 460.85 118.5 461.6 117.05 462.4 115.55 462.4 112.95 462.4 109.75 460.65 107.95
M 456.1 108
Q 457.8 108 458.9 109.3 460.05 110.55 460.05 113.05 460.05 115.7 458.9 117 457.8 118.3 456.1 118.3 454.4 118.3 453.25 117 452.15 115.7 452.15 113.15 452.15 110.55 453.25 109.3 454.4 108 456.1 108
M 466.25 115.25
L 467.75 115.25 468.4 101.3 465.55 101.3 466.25 115.25
M 468.3 119.85
L 468.3 117.25 465.7 117.25 465.7 119.85 468.3 119.85
M 326.35 106.45
L 324.05 106.45 324.05 114.75
Q 324.05 116.2 324.2 116.85 324.4 117.85 324.9 118.55 325.4 119.25 326.45 119.7 327.45 120.15 328.65 120.15 331.35 120.15 332.9 117.9
L 332.9 119.85 334.95 119.85 334.95 106.45 332.65 106.45 332.65 113.6
Q 332.65 115.35 332.3 116.25 331.9 117.15 331 117.7 330.1 118.2 329.1 118.2 328.1 118.2 327.4 117.7 326.7 117.15 326.45 116.25 326.35 115.65 326.35 113.85
L 326.35 106.45
M 347.65 115.55
Q 347.15 116.95 346.25 117.65 345.35 118.3 344.1 118.3 342.45 118.3 341.3 117.1 340.2 115.95 340.05 113.7
L 350.05 113.7
Q 350.05 113.3 350.05 113.1 350.05 109.8 348.35 107.95 346.65 106.1 343.95 106.1 341.2 106.1 339.45 108 337.7 109.85 337.7 113.25 337.7 116.55 339.45 118.35 341.15 120.15 344.1 120.15 346.45 120.15 347.95 119 349.45 117.9 350 115.8
L 347.65 115.55
M 346.8 109.3
Q 347.5 110.15 347.65 111.85
L 340.2 111.85
Q 340.3 110.1 341.35 109.05 342.45 108 344 108 345.75 108 346.8 109.3
M 370.05 107.95
Q 368.25 106.1 365.5 106.1 363 106.1 361.3 107.6 359.2 109.4 359.2 113.15 359.2 116.55 360.95 118.35 362.7 120.15 365.5 120.15 367.25 120.15 368.75 119.35 370.25 118.5 371 117.05 371.8 115.55 371.8 112.95 371.8 109.75 370.05 107.95
M 365.5 108
Q 367.2 108 368.3 109.3 369.45 110.55 369.45 113.05 369.45 115.7 368.3 117 367.2 118.3 365.5 118.3 363.8 118.3 362.65 117 361.55 115.7 361.55 113.15 361.55 110.55 362.65 109.3 363.8 108 365.5 108
M 392.45 101.3
L 390.15 101.3 390.15 107.95
Q 389.55 107.15 388.6 106.65 387.65 106.1 386.45 106.1 384.8 106.1 383.45 107 382.1 107.85 381.45 109.5 380.8 111.15 380.8 113.15 380.8 115.2 381.55 116.8 382.25 118.4 383.6 119.25 384.95 120.15 386.55 120.15 389.05 120.15 390.3 118.15
L 390.3 119.85 392.45 119.85 392.45 101.3
M 386.7 108
Q 388.25 108 389.3 109.3 390.35 110.6 390.35 113.35 390.35 115.85 389.3 117.05 388.25 118.3 386.8 118.3 385.3 118.3 384.2 117 383.1 115.75 383.1 113.15 383.1 110.5 384.15 109.25 385.15 108 386.7 108
M 401.5 106.1
Q 398.75 106.1 397 108 395.25 109.85 395.25 113.25 395.25 116.55 397 118.35 398.7 120.15 401.65 120.15 404 120.15 405.5 119 407 117.9 407.55 115.8
L 405.2 115.55
Q 404.7 116.95 403.8 117.65 402.9 118.3 401.65 118.3 400 118.3 398.85 117.1 397.75 115.95 397.6 113.7
L 407.6 113.7
Q 407.6 113.3 407.6 113.1 407.6 109.8 405.9 107.95 404.2 106.1 401.5 106.1
M 401.55 108
Q 403.3 108 404.35 109.3 405.05 110.15 405.2 111.85
L 397.75 111.85
Q 397.85 110.1 398.9 109.05 400 108 401.55 108
M 392.9 76.7
Q 393.75 76.7 394.6 77.2
L 395.4 75.1
Q 394.2 74.35 393.05 74.35 392.25 74.35 391.6 74.85 390.9 75.3 390.15 76.7
L 390.15 74.7 388.1 74.7 388.1 88.1 390.35 88.1 390.35 81.05
Q 390.35 79.65 390.75 78.4 391 77.6 391.6 77.2 392.2 76.7 392.9 76.7
M 379.2 74.35
Q 376.45 74.35 374.7 76.25 372.95 78.1 372.95 81.5 372.95 84.8 374.7 86.6 376.4 88.4 379.35 88.4 381.7 88.4 383.2 87.25 384.7 86.15 385.25 84.05
L 382.9 83.8
Q 382.4 85.2 381.5 85.9 380.6 86.55 379.35 86.55 377.7 86.55 376.55 85.35 375.45 84.2 375.3 81.95
L 385.3 81.95
Q 385.3 81.55 385.3 81.35 385.3 78.05 383.6 76.2 381.9 74.35 379.2 74.35
M 382.05 77.55
Q 382.75 78.4 382.9 80.1
L 375.45 80.1
Q 375.55 78.35 376.6 77.3 377.7 76.25 379.25 76.25 381 76.25 382.05 77.55
M 399.45 70
L 397.15 71.35 397.15 74.7 395.5 74.7 395.5 76.45 397.15 76.45 397.15 84.15
Q 397.15 86.2 397.45 86.85 397.75 87.5 398.4 87.9 399.1 88.3 400.35 88.3 401.1 88.3 402.05 88.05
L 401.7 86.05
Q 401.1 86.15 400.75 86.15 400.2 86.15 399.95 86 399.7 85.8 399.55 85.55 399.45 85.25 399.45 84.3
L 399.45 76.45 401.7 76.45 401.7 74.7 399.45 74.7 399.45 70
M 356.45 75.8
Q 355.95 75.2 354.9 74.8 353.8 74.35 352.1 74.35 350.35 74.35 349.05 74.85 347.7 75.3 347.05 76.2 346.35 77.1 346.05 78.5
L 348.25 78.8
Q 348.6 77.4 349.4 76.8 350.15 76.25 351.75 76.25 353.45 76.25 354.35 77.05 355 77.6 355 79 355 79.1 355 79.6 353.7 80.05 350.9 80.35 349.55 80.55 348.9 80.7 348 80.95 347.25 81.45 346.55 81.95 346.1 82.75 345.65 83.55 345.65 84.55 345.65 86.25 346.8 87.35 348 88.4 350.2 88.4 351.55 88.4 352.75 87.95 353.9 87.5 355.15 86.45 355.25 87.4 355.6 88.1
L 358 88.1
Q 357.55 87.35 357.45 86.5 357.3 85.65 357.3 82.45
L 357.3 79.45
Q 357.3 77.9 357.15 77.35 356.95 76.4 356.45 75.8
M 355 81.35
L 355 82.2
Q 355 83.7 354.6 84.45 354.15 85.45 353.1 86.05 352.1 86.6 350.75 86.6 349.45 86.6 348.75 86 348.05 85.4 348.05 84.5 348.05 83.9 348.4 83.4 348.7 82.95 349.3 82.7 349.85 82.4 351.25 82.2 353.75 81.85 355 81.35
M 363 75.2
Q 361.5 76 360.8 77.65 360.05 79.25 360.05 81.45 360.05 84.8 361.75 86.6 363.4 88.4 366.15 88.4 368.35 88.4 369.9 87.1 371.4 85.8 371.75 83.45
L 369.5 83.2
Q 369.3 84.9 368.4 85.7 367.5 86.55 366.15 86.55 364.45 86.55 363.45 85.3 362.4 84.1 362.4 81.35 362.4 78.7 363.45 77.5 364.55 76.25 366.25 76.25 367.4 76.25 368.2 76.95 369 77.6 369.35 78.95
L 371.55 78.6
Q 371.15 76.6 369.75 75.5 368.35 74.35 366.2 74.35 364.45 74.35 363 75.2
M 336.4 81.35
Q 336.4 78.05 334.7 76.2 333 74.35 330.3 74.35 327.55 74.35 325.8 76.25 324.05 78.1 324.05 81.5 324.05 84.8 325.8 86.6 327.5 88.4 330.45 88.4 332.8 88.4 334.3 87.25 335.8 86.15 336.35 84.05
L 334 83.8
Q 333.5 85.2 332.6 85.9 331.7 86.55 330.45 86.55 328.8 86.55 327.65 85.35 326.55 84.2 326.4 81.95
L 336.4 81.95
Q 336.4 81.55 336.4 81.35
M 333.15 77.55
Q 333.85 78.4 334 80.1
L 326.55 80.1
Q 326.65 78.35 327.7 77.3 328.8 76.25 330.35 76.25 332.1 76.25 333.15 77.55
M 328.85 73
L 330.25 70.85 331.65 73 334.25 73 331.4 69.45 328.95 69.45 326.25 73 328.85 73
M 346.9 37.75
L 344.3 37.75 337.15 56.3 339.75 56.3 341.8 50.7 349.55 50.7 351.7 56.3 354.5 56.3 346.9 37.75
M 346.85 43.55
L 348.8 48.7 342.5 48.7 344.55 43.25
Q 345.2 41.5 345.55 39.7 345.95 41.2 346.85 43.55
M 325.85 48.05
Q 326.8 48.05 327.2 48.15 327.75 48.3 328.3 48.65 328.85 49 329.55 49.9 330.25 50.8 331.35 52.45
L 333.8 56.3 336.85 56.3 333.65 51.25
Q 332.7 49.8 331.6 48.8 331.1 48.35 330.15 47.85 332.8 47.5 334.05 46.15 335.35 44.8 335.35 42.8 335.35 41.3 334.6 40.05 333.8 38.75 332.5 38.25 331.25 37.75 328.75 37.75
L 320.55 37.75 320.55 56.3 323 56.3 323 48.05 325.85 48.05
M 331.85 40.65
Q 332.8 41.5 332.8 42.8 332.8 43.7 332.35 44.5 331.85 45.25 330.9 45.6 329.95 45.95 328.25 45.95
L 323 45.95 323 39.8 328.85 39.8
Q 330.9 39.8 331.85 40.65
M 376.2 45.65
L 376.2 39.95 387.15 39.95 387.15 37.75 373.75 37.75 373.75 56.3 387.6 56.3 387.6 54.1 376.2 54.1 376.2 47.8 386.45 47.8 386.45 45.65 376.2 45.65
M 368.7 40.05
Q 368 38.9 366.7 38.35 365.4 37.75 363.3 37.75
L 356.35 37.75 356.35 56.3 363.4 56.3
Q 365.2 56.3 366.4 56 367.6 55.7 368.45 55.05 369.25 54.45 369.8 53.35 370.35 52.25 370.35 50.95 370.35 49.3 369.45 48.1 368.55 46.95 366.85 46.45 368.15 45.8 368.8 44.75 369.45 43.7 369.45 42.5 369.45 41.25 368.7 40.05
M 365.3 40.2
Q 366.15 40.45 366.6 41.2 367.05 41.9 367.05 42.8 367.05 43.75 366.55 44.4 366.1 45.05 365.15 45.35 364.45 45.55 362.8 45.55
L 358.8 45.55 358.8 39.95 362.5 39.95
Q 364.5 39.95 365.3 40.2
M 365.8 48.05
Q 366.75 48.35 367.25 49.15 367.8 49.9 367.8 50.95 367.8 51.8 367.45 52.5 367.05 53.15 366.5 53.5 365.95 53.85 365.1 54 364.6 54.1 363.4 54.1
L 358.8 54.1 358.8 47.75 363.1 47.75
Q 364.85 47.75 365.8 48.05
M 383.45 33.1
L 380.5 33.1 378.8 36.65 380.7 36.65 383.45 33.1
M 405.55 56.3
L 405.55 37.75 403.2 37.75 403.2 52.3 393.5 37.75 390.95 37.75 390.95 56.3 393.3 56.3 393.3 41.75 403.05 56.3 405.55 56.3
M 435.95 85.5
L 433.35 85.5 433.35 88.1 435.95 88.1 435.95 85.5
M 409.35 74.35
Q 406.85 74.35 405.15 75.85 403.05 77.65 403.05 81.4 403.05 84.8 404.8 86.6 406.55 88.4 409.35 88.4 411.1 88.4 412.6 87.6 414.1 86.75 414.85 85.3 415.65 83.8 415.65 81.2 415.65 78 413.9 76.2 412.1 74.35 409.35 74.35
M 406.5 77.55
Q 407.65 76.25 409.35 76.25 411.05 76.25 412.15 77.55 413.3 78.8 413.3 81.3 413.3 83.95 412.15 85.25 411.05 86.55 409.35 86.55 407.65 86.55 406.5 85.25 405.4 83.95 405.4 81.4 405.4 78.8 406.5 77.55
M 418.25 83
Q 418.25 84.45 418.4 85.1 418.6 86.1 419.1 86.8 419.6 87.5 420.65 87.95 421.65 88.4 422.85 88.4 425.55 88.4 427.1 86.15
L 427.1 88.1 429.15 88.1 429.15 74.7 426.85 74.7 426.85 81.85
Q 426.85 83.6 426.5 84.5 426.1 85.4 425.2 85.95 424.3 86.45 423.3 86.45 422.3 86.45 421.6 85.95 420.9 85.4 420.65 84.5 420.55 83.9 420.55 82.1
L 420.55 74.7 418.25 74.7 418.25 83
M 429.9 56.3
L 429.9 53.7 427.3 53.7 427.3 56.3 429.9 56.3
M 430 37.75
L 427.15 37.75 427.85 51.7 429.35 51.7 430 37.75
M 411.95 42.4
Q 411.95 41.25 412.95 40.45 413.95 39.6 416.2 39.6 418.35 39.6 419.45 40.5 420.5 41.4 420.7 43.15
L 423.05 43
Q 423 41.35 422.15 40.05 421.3 38.8 419.75 38.1 418.15 37.45 416.1 37.45 414.2 37.45 412.7 38.1 411.15 38.7 410.35 39.95 409.55 41.15 409.55 42.55 409.55 43.85 410.25 44.85 410.85 45.9 412.2 46.6 413.2 47.15 415.8 47.75 418.35 48.35 419.1 48.65 420.25 49.1 420.75 49.75 421.25 50.4 421.25 51.25 421.25 52.15 420.75 52.85 420.2 53.6 419.15 54 418.05 54.4 416.65 54.4 415.05 54.4 413.8 53.85 412.55 53.3 411.95 52.45 411.35 51.55 411.2 50.15
L 408.85 50.35
Q 408.9 52.2 409.9 53.7 410.85 55.15 412.55 55.9 414.25 56.6 416.75 56.6 418.75 56.6 420.35 55.9 421.9 55.15 422.75 53.85 423.6 52.55 423.6 51.05 423.6 49.55 422.85 48.45 422.05 47.3 420.45 46.55 419.35 46.05 416.35 45.35 413.35 44.7 412.65 44.05 411.95 43.4 411.95 42.4 Z"/>
</g>

<g id="Layer2_0_FILL">
<path fill="#000000" stroke="none" d="
M 42.5 25.75
Q 46.1 18.35 43.1 18.3 42.8 18.45 39.2 19.35 37.6 19.75 37.6 20.8 37.6 21.95 39.6 24.4 41.6 26.9 42.5 25.75
M 41.4 28
Q 42.5 27.5 41.4 27.05 39.15 26.3 37.6 25.05 36 23.85 34.75 23.8 33.45 23.75 31.55 27.85 31.15 30.4 41.4 28
M 80.9 144.35
Q 80.85 144.45 80.85 144.5
L 81.95 144.5 82.5 142.6 86.1 142.6
Q 88 143.25 89.5 144.5
L 90.8 144.5
Q 90.8 144.25 90.65 144.15 89.15 142.85 87.4 142.05 86.85 141.8 86.3 141.65 86.25 141.6 86.15 141.6
L 82.2 141.6 82.1 141.6
Q 81.95 141.6 81.8 141.7 81.65 141.8 81.65 141.95
L 80.9 144.35
M 61.15 141.75
Q 61.1 141.8 61.1 141.9 61.05 141.95 61.05 142.05 61.05 142.1 61.05 142.15 61.1 142.35 61.25 142.45
L 64 144.5 65.4 144.5 65.4 144.45
Q 65.35 144.2 65.2 144.1
L 61.85 141.65
Q 61.7 141.5 61.5 141.55 61.25 141.6 61.15 141.75
M 58.35 141.6
Q 58.15 141.65 58.05 141.85
L 56.7 144.3
Q 56.65 144.4 56.65 144.5
L 57.8 144.5 58.95 142.3
Q 59 142.15 59 142.05 59 142 59 141.9 58.9 141.7 58.75 141.6 58.65 141.55 58.55 141.55 58.45 141.55 58.35 141.6
M 102.9 18.55
L 102.95 18.55
Q 104.15 15.5 102 6.85
L 94.7 6.85
Q 91.7 8.15 87.75 7.75 84 7.4 80.35 6.85
L 59.3 6.85
Q 57.9 7.5 56.55 8.35 49.15 12.95 46.7 17.4 44.3 21.85 44.1 26.95 44.1 27.15 44.25 27.3 44.25 27.35 44.35 27.4 44.25 27.5 44.15 27.65 44.05 27.7 44 27.8 43.05 29 41.6 29.55 38.45 30.9 35.4 33.6 32.3 36.3 30.8 42.9 29.3 49.45 38.75 66.15 38.75 63.95 39.9 62.2 41.5 59.9 44.3 60.1 50.65 60.75 51.8 67.9 52.15 68.55 52.55 69.35 52.9 69.35 53.55 69.35 55.25 69.35 56.15 68.85 56.9 68.45 56.9 67.85 56.9 66.65 56.05 64.1 56 64 56 63.95 55.85 63.55 55.7 63.15 54.3 59.45 53.4 55.4 52.9 53.25 52.8 51.2 52.8 51.05 52.8 50.95 52.7 49.3 52.9 47.75 53.15 45 53.35 43.3 53.4 42.7 53.45 42.3 53.65 40.35 54.1 38.9 54.5 37.35 57.55 37.2 60.55 37.05 62.95 36.35 64.15 36 65.7 35.2 67.2 34.4 68.95 33.15 71.9 31.15 78.35 29.4
L 78.4 29.4
Q 79.6 29.05 81 28.75 89.5 26.7 94.55 24.85 94.65 24.85 94.75 24.8 94.75 24.9 94.8 24.95 94.9 25.15 95.1 25.2 95.25 25.25 95.45 25.15
L 95.5 25.1
Q 96.65 24.4 98.9 23.45
L 98.95 23.45
Q 101.25 22.35 102.9 18.55 Z"/>

<path fill="#FFFFFF" stroke="none" d="
M 82.5 142.6
L 81.95 144.5 89.5 144.5
Q 88 143.25 86.1 142.6
L 82.5 142.6
M 59 141.9
Q 59 142 59 142.05 59 142.15 58.95 142.3
L 57.8 144.5 64 144.5 61.25 142.45
Q 61.1 142.35 61.05 142.15 61.05 142.1 61.05 142.05 61.05 141.95 61.1 141.9
L 59 141.9
M 74.4 60.55
Q 76.7 60.1 78.6 60.05 80.5 59.9 79.85 59.25 79.15 58.6 77.95 57.1 76.6 55.6 74.15 54.9 71.8 54.1 69.3 54.55 66.75 54.95 64.9 56.2 64.45 56.6 64.1 57.05 62.05 59.5 61.05 61.65 60 63.8 62.05 63.4 64.1 62.95 66.5 62.35 68.15 62 70.35 61.45 70.4 61.4 70.5 61.4 72.7 60.8 74.4 60.55
M 100.35 53.7
Q 99.45 52.4 97.45 51.25 97.05 51.05 96.65 50.9 95.1 50.8 93.4 51.1 91.65 51.35 90.35 52.55 88.8 54.3 88.4 55.55 87.95 56.8 87.65 57.35 87.35 57.9 88.65 57.45 89.95 57 91.65 56.65 92.75 56.4 94.4 56.15 94.45 56.1 94.45 56.15 94.55 56.15 94.65 56.15
L 95.15 56.05
Q 96.3 55.9 97.25 55.7 98.9 55.45 99.7 55.3 101.1 54.9 100.35 53.7 Z"/>

<path fill="#535F81" stroke="none" d="
M 86.3 141.65
Q 86.85 141.8 87.4 142.05 89.15 142.85 90.65 144.15 90.8 144.25 90.8 144.5
L 98.55 144.5
Q 97.95 144.05 97.25 143.55 96.55 143 95.85 142.45 95.7 142.3 95.65 142.1
L 95.65 142.05
Q 95.65 141.9 95.75 141.75 95.2 141.3 94.6 140.8 92 138.65 89.35 137.6 87.659765625 136.90859375 85.95 136.65 84.30859375 136.4037109375 82.65 136.55 82.35 136.55 82.1 136.6 82.1115234375 136.6248046875 82.1 136.65 82.7900390625 138.1578125 82.2 141.6
L 86.15 141.6
Q 86.25 141.6 86.3 141.65
M 50.35 140.55
Q 49.55 141.1 48.6 141.75 48.7 141.9 48.7 142.05 48.7 142.1 48.7 142.15 48.65 142.35 48.5 142.45 47.2 143.4 45.75 144.5
L 56.65 144.5
Q 56.65 144.4 56.7 144.3
L 58.05 141.85
Q 58.15 141.65 58.35 141.6 58.45 141.55 58.55 141.55
L 58.55 137.8
Q 54.95 137.5 51.05 140.1 50.65 140.3 50.35 140.55 Z"/>

<path fill="#FCBB90" stroke="none" d="
M 94.75 24.8
Q 94.65 24.85 94.55 24.85 89.5 26.7 81 28.75 79.6 29.05 78.4 29.4
L 78.35 29.4
Q 71.9 31.15 68.95 33.15 67.2 34.4 65.7 35.2 64.15 36 62.95 36.35 60.55 37.05 57.55 37.2 54.5 37.35 54.1 38.9 53.65 40.35 53.45 42.3 53.4 42.7 53.35 43.3 53.15 45 52.9 47.75 52.7 49.3 52.8 50.95 52.8 51.05 52.8 51.2 52.9 53.25 53.4 55.4 54.3 59.45 55.7 63.15 55.85 63.55 56 63.95 56 64 56.05 64.1 56.9 66.65 56.9 67.85 56.9 68.45 56.15 68.85 55.25 69.35 53.55 69.35 52.9 69.35 52.55 69.35 52.2 69.3 52.1 69.2 52 69.1 51.95 68.8 51.85 68.45 51.8 67.9 50.65 60.75 44.3 60.1 41.5 59.9 39.9 62.2 38.75 63.95 38.75 66.15 37.8 75.35 41.4 81.1 44.95 86.85 48.15 89.45
L 48.25 89.45
Q 48.45 90.15 48.65 90.85 54.4166015625 109.1939453125 57.1 126.45 57.134375 126.5501953125 57.15 126.65 57.15 126.75 57.2 126.85 57.9150390625 131.8099609375 58.4 136.65 58.4916015625 137.2259765625 58.55 137.8
L 58.55 141.55
Q 58.65 141.55 58.75 141.6 58.9 141.7 59 141.9
L 61.1 141.9
Q 61.1 141.8 61.15 141.75 61.25 141.6 61.5 141.55 61.7 141.5 61.85 141.65
L 65.2 144.1
Q 65.35 144.2 65.4 144.45
L 65.4 144.5 80.85 144.5
Q 80.85 144.45 80.9 144.35
L 81.65 141.95
Q 81.65 141.8 81.8 141.7 81.95 141.6 82.1 141.6
L 82.2 141.6
Q 82.7900390625 138.1578125 82.1 136.65 82.1115234375 136.6248046875 82.1 136.6 81.4 133.65 81.05 131.05 80.65 128.65 80.6 126.65 80.596484375 126.5494140625 80.6 126.45 80.5568359375 125.11328125 80.65 123.95 82.9181640625 125.446875 84.55 126.45 84.7376953125 126.5525390625 84.9 126.65 87.5 128.25 88.5 128.6 91 129.35 92 129.2 92.5 129.1 93 129.05 93.9 128.8 94.6 128.5 95.55 127.95 96.45 127.1 96.7 126.85 97 126.65 97.177734375 126.5388671875 97.35 126.45 98.0333984375 126.1388671875 98.85 126.1 100.3 125.95 102.1 124.45 103.75 123.1 103.75 120.7 103.75 120.1 103.7 119.55 103.55 117.9 102.95 116.65 102.1 114.95 101.5 113.4 100.9 111.8 100.75 109.5 100.6 107.15 101.35 100.3 102.05 93.65 104.15 87.65 104.35 87.65 104.5 87.7 104.85 86.2 105.4 84.4 105.7 83.7 106 83 109.6 74.9 107.75 70 105.8 65.1 104.7 61.8 103.6 58.5 102.75 56 101.85 53.5 102.7 50.6 103.55 47.65 102.2 43.8 101.7 42.3 100.8 40 99.6 37.05 98.25 31.9 97.9 30.75 97.55 29.75 97.5 29.6 97.45 29.45 96.55 26.6 95.5 25.1
L 95.45 25.15
Q 95.25 25.25 95.1 25.2 94.9 25.15 94.8 24.95 94.75 24.9 94.75 24.8
M 97.45 51.25
Q 99.45 52.4 100.35 53.7 101.1 54.9 99.7 55.3 98.9 55.45 97.25 55.7 96.3 55.9 95.15 56.05
L 94.65 56.15
Q 94.55 56.15 94.45 56.15 94.45 56.1 94.4 56.15 92.75 56.4 91.65 56.65 89.95 57 88.65 57.45 87.35 57.9 87.65 57.35 87.95 56.8 88.4 55.55 88.8 54.3 90.35 52.55 91.65 51.35 93.4 51.1 95.1 50.8 96.65 50.9 97.05 51.05 97.45 51.25
M 97.4 92.05
Q 97 93.8 96.75 95.45 96.65 95.95 96.6 96.45 96.15 100.15 96.5 103.35 96.7 105.9 97.45 108.15 98.5 110.5 97.2 111.5 89.95 115.1 86.6 112.3 86.1 111.85 85.7 111.2 84.45 109.15 82.9 106 81.75 103.55 80.35 100.55 79.75 99.05 79.1 97.5 78.6 96.3 78.1 95.05 89.35 97.65 97.4 92.05
M 78.6 60.05
Q 76.7 60.1 74.4 60.55 72.7 60.8 70.5 61.4 70.4 61.4 70.35 61.45 68.15 62 66.5 62.35 64.1 62.95 62.05 63.4 60 63.8 61.05 61.65 62.05 59.5 64.1 57.05 64.45 56.6 64.9 56.2 66.75 54.95 69.3 54.55 71.8 54.1 74.15 54.9 76.6 55.6 77.95 57.1 79.15 58.6 79.85 59.25 80.5 59.9 78.6 60.05 Z"/>

<path fill="#333333" stroke="none" d="
M 96.75 95.45
Q 97 93.8 97.4 92.05 89.35 97.65 78.1 95.05 78.6 96.3 79.1 97.5 79.75 99.05 80.35 100.55 81.75 103.55 82.9 106 84.45 109.15 85.7 111.2 86.1 111.85 86.6 112.3 89.95 115.1 97.2 111.5 98.5 110.5 97.45 108.15 96.7 105.9 96.5 103.35 96.15 100.15 96.6 96.45 96.65 95.95 96.75 95.45 Z"/>
</g>

<g id="FL_6789_0_Layer0_0_FILL">
<path fill="#000000" stroke="none" d="
M 339.05 37.25
Q 338.75 37.4 335.2 38.3 333.6 38.7 333.6 39.75 333.6 40.9 335.6 43.35 337.55 45.8 338.45 44.65 342.05 37.3 339.05 37.25
M 333.6 44
Q 332 42.8 330.75 42.75 329.45 42.7 327.6 46.75 327.2 49.3 337.35 46.9 338.45 46.4 337.35 45.95 335.15 45.2 333.6 44
M 385.2 162.7
L 386.45 162.7 386.45 162.65
Q 386.433984375 162.4669921875 386.25 162.3 384.868359375 161.0392578125 383.1 160.25 382.5611328125 160.015625 382 159.8 381.926171875 159.7990234375 381.85 159.8
L 377.9 159.8 377.8 159.8
Q 377.6341796875 159.7998046875 377.5 159.9 377.3689453125 159.995703125 377.3 160.15
L 376.6 162.55
Q 376.6005859375 162.626171875 376.6 162.7
L 377.6 162.7 378.15 160.8 381.75 160.8
Q 383.69375 161.4689453125 385.2 162.7
M 391.4 159.95
Q 391.28984375 160.084375 391.3 160.25
L 391.3 160.3
Q 391.33125 160.5130859375 391.5 160.65 392.2 161.2 392.9 161.75 393.539453125 162.2390625 394.1 162.7
L 395.3 162.7
Q 395.310546875 162.628515625 395.3 162.55 395.2689453125 162.3373046875 395.1 162.2 394.3501953125 161.6 393.5 160.95 392.8 160.4 392.1 159.85 391.9453125 159.7236328125 391.75 159.75 391.5453125 159.7796875 391.4 159.9
L 391.4 159.95
M 344.45 160.65
Q 344.61796875 160.52734375 344.65 160.3 344.6548828125 160.2869140625 344.65 160.25 344.653515625 160.0876953125 344.55 159.95 344.427734375 159.7818359375 344.2 159.75 344.01875 159.7232421875 343.85 159.85 342.3 160.9998046875 340.55 162.3 340.3822265625 162.42265625 340.35 162.6 340.344921875 162.6630859375 340.35 162.7
L 341.7 162.7
Q 343.140625 161.621484375 344.45 160.65
M 356.9 160.25
Q 356.894921875 160.287109375 356.9 160.3 356.932421875 160.5279296875 357.1 160.65
L 359.85 162.7 361.2 162.7
Q 361.205078125 162.66328125 361.2 162.6 361.167578125 162.4220703125 361 162.3
L 357.7 159.85
Q 357.53046875 159.7232421875 357.3 159.75 357.1216796875 159.7822265625 357 159.95 356.94609375 160.021875 356.9 160.1 356.8982421875 160.172265625 356.9 160.25
M 354.8 160.45
Q 354.8556640625 160.3646484375 354.85 160.25 354.851171875 160.1759765625 354.8 160.1 354.7607421875 159.899609375 354.55 159.8 354.4888671875 159.7564453125 354.4 159.75 354.3017578125 159.7400390625 354.2 159.75 353.999609375 159.8400390625 353.9 160
L 352.6 162.45
Q 352.5443359375 162.585546875 352.55 162.7
L 353.6 162.7 354.8 160.45
M 374.15 48.3
Q 375.35 47.95 376.75 47.65 385.2 45.6 390.2 43.8 390.2849609375 43.77578125 390.35 43.75 390.383203125 43.8291015625 390.4 43.9 390.52890625 44.0765625 390.7 44.1 390.923828125 44.178125 391.1 44.05 391.125 44.0599609375 391.15 44.05 392.28515625 43.363671875 394.5 42.4
L 394.5 42.4
Q 396.868359375 41.3095703125 398.5 37.5
L 398.5 37.45
Q 399.7705078125 34.483984375 397.55 25.9
L 390.3 25.9
Q 387.3294921875 27.1833984375 383.45 26.8 379.7119140625 26.4333984375 376.1 25.9
L 355.1 25.9
Q 353.763671875 26.5341796875 352.4 27.35 345.033203125 31.9572265625 342.65 36.4 340.2494140625 40.8052734375 340.05 45.8 340.0380859375 46.0390625 340.15 46.2 340.224609375 46.2513671875 340.25 46.25 340.1947265625 46.4173828125 340.1 46.55 340 46.6 339.95 46.7 339 47.9 337.55 48.45 334.45 49.8 331.4 52.5 328.35 55.15 326.85 61.7 325.35 68.25 334.75 84.85 334.75 82.65 335.9 80.9 337.45 78.6 340.25 78.8 346.55 79.45 347.7 86.55 348.05 87.2 348.45 88 348.8 88 349.45 88 351.15 88 352.05 87.5 352.8 87.1 352.8 86.5 352.8 85.3 351.95 82.8 351.9 82.7 351.9 82.65 351.75 82.25 351.6 81.85 350.2 78.15 349.3 74.15 348.8 72 348.7 69.95 348.7 69.8 348.7 69.7 348.6 68.1 348.8 66.55 349.05 63.8 349.25 62.1 349.3 61.5 349.35 61.1 349.55 59.2 350 57.75 350.4 56.2 353.4 56.05 356.4 55.9 358.8 55.2 360 54.85 361.5 54.05 363 53.25 364.75 52.05 367.7 50.05 374.1 48.3
L 374.15 48.3 Z"/>

<path fill="#FFFFFF" stroke="none" d="
M 381.75 160.8
L 378.15 160.8 377.6 162.7 385.2 162.7
Q 383.69375 161.4689453125 381.75 160.8
M 354.85 160.25
Q 354.8556640625 160.3646484375 354.8 160.45
L 353.6 162.7 359.85 162.7 357.1 160.65
Q 356.932421875 160.5279296875 356.9 160.3 356.894921875 160.287109375 356.9 160.25 356.8982421875 160.172265625 356.9 160.1
L 354.8 160.1
Q 354.851171875 160.1759765625 354.85 160.25 Z"/>

<path fill="#535F81" stroke="none" d="
M 391.3 160.25
Q 391.28984375 160.084375 391.4 159.95
L 391.4 159.9
Q 390.8443359375 159.4794921875 390.25 159 387.65 156.9 385.05 155.85 381.75 154.5 378.35 154.8 378.05 154.8 377.8 154.85 378.5 156.35 377.9 159.8
L 381.85 159.8
Q 381.926171875 159.7990234375 382 159.8 382.5611328125 160.015625 383.1 160.25 384.868359375 161.0392578125 386.25 162.3 386.433984375 162.4669921875 386.45 162.65
L 386.45 162.7 394.1 162.7
Q 393.539453125 162.2390625 392.9 161.75 392.2 161.2 391.5 160.65 391.33125 160.5130859375 391.3 160.3
L 391.3 160.25
M 354.4 159.75
L 354.4 156.05
Q 350.85 155.75 346.95 158.3 346.55 158.5 346.25 158.75 345.4337890625 159.3212890625 344.55 159.95 344.653515625 160.0876953125 344.65 160.25 344.6548828125 160.2869140625 344.65 160.3 344.61796875 160.52734375 344.45 160.65 343.140625 161.621484375 341.7 162.7
L 352.55 162.7
Q 352.5443359375 162.585546875 352.6 162.45
L 353.9 160
Q 353.999609375 159.8400390625 354.2 159.75 354.3017578125 159.7400390625 354.4 159.75 Z"/>

<path fill="#FCBB90" stroke="none" d="
M 348.95 108
L 344.6 109.4
Q 350.35 127.7 353 144.95 353 145.05 353.05 145.15 353.85 150.65 354.4 156.05
L 354.4 159.75
Q 354.4888671875 159.7564453125 354.55 159.8 354.7607421875 159.899609375 354.8 160.1
L 356.9 160.1
Q 356.94609375 160.021875 357 159.95 357.1216796875 159.7822265625 357.3 159.75 357.53046875 159.7232421875 357.7 159.85
L 361 162.3
Q 361.167578125 162.4220703125 361.2 162.6 361.205078125 162.66328125 361.2 162.7
L 376.6 162.7
Q 376.6005859375 162.626171875 376.6 162.55
L 377.3 160.15
Q 377.3689453125 159.995703125 377.5 159.9 377.6341796875 159.7998046875 377.8 159.8
L 377.9 159.8
Q 363.75 157.5 354.3 131.75
L 348.95 108
M 362.55 57.6
Q 358.75 59.35 356.1 59.3 353.35 59.25 352.7 59.6 351.95 60.05 351.25 62.3 350.8 63.7 350.8 68.4 350.8 71.2 351.5 76.95 352.05 81.2 352.6 82.4
L 351.9 82.65
Q 351.9 82.7 351.95 82.8 352.8 85.3 352.8 86.5 352.8 87.1 352.05 87.5 351.15 88 349.45 88 348.8 88 348.45 88 348.1 87.95 348 87.85 347.9 87.75 347.85 87.45 347.75 87.1 347.7 86.55 346.55 79.45 340.25 78.8 337.45 78.6 335.9 80.9 334.75 82.65 334.75 84.85 333.8 93.95 337.35 99.7 340.9 105.4 344.1 108
L 344.2 108
Q 345.75 108.6 346.7 108 347.3 107.65 347.75 106.9 348.15 106.1 348.4 104.9 348.15 106.1 347.75 106.9
L 348.95 108 349.15 107.8
Q 349.2 106.3 352.9 113.65 356.55 120.95 359.95 126.05 363.35 131.15 374.5 138.25 385.6 145.3 387.25 144.7 388.85 144.15 390.35 142.35 391.85 140.5 394.5 140.65 396.1 140.75 397.3 139.9 398.2 139.3 399.3 137.9 399.15 136.25 398.55 135 397.7 133.35 397.1 131.8 396.5 130.2 396.35 127.9 396.2 125.6 396.95 118.75 397.9 109.6 401.55 101.55 405.15 93.5 403.3 88.65 401.4 83.8 400.3 80.5 399.2 77.2 398.35 74.75 397.45 72.25 398.3 69.35 399.15 66.45 397.8 62.6 397.3 61.1 396.4 58.85 395.2 55.9 393.85 50.8 393.5 49.65 393.2 48.65 390.35 49.55 389.55 49.75 387.7 50.25 384.7 50.65 377.4 51.65 375.15 52.2 372.85 52.75 369.05 54.45 365.2 56.35 363.1 57.35 363.05 57.4 363 57.4 362.75 57.5 362.55 57.6
M 339.9 84.35
Q 339.5 84.15 339.05 84.2 339.5 84.15 339.9 84.35 343.75 85.3 344.75 88.6 345.1 89.7 345.1 91.05 343.7 91.85 343.3 93.45 342.5 96.65 345.45 97.7
L 345.75 100.9 345.45 97.7
Q 342.5 96.65 343.3 93.45 343.7 91.85 345.1 91.05 345.1 89.7 344.75 88.6 343.75 85.3 339.9 84.35
M 379.5 66.65
Q 379.45 68 380.15 71.55 380.8 75.1 381.6 77.65 382.4 80.2 385.7 84.9 388.95 89.6 390.95 90.95 392.95 92.25 393.45 92.75 393.9 93.2 394.15 94.95 394.4 96.65 392.9 99.15 391.35 101.6 385.35 101.8 391.35 101.6 392.9 99.15 394.4 96.65 394.15 94.95 393.9 93.2 393.45 92.75 392.95 92.25 390.95 90.95 388.95 89.6 385.7 84.9 382.4 80.2 381.6 77.65 380.8 75.1 380.15 71.55 379.45 68 379.5 66.65 Z"/>

<path fill="#FFCC99" stroke="none" d="
M 344.6 109.4
L 348.95 108 347.75 106.9
Q 347.3 107.65 346.7 108 345.75 108.6 344.2 108 344.4 108.7 344.6 109.4 Z"/>

<path fill="#E99C69" stroke="none" d="
M 369.85 137.8
Q 373.6 140.4 376.4 142.25 378.85 143.9 380.6 144.95 383.2 146.55 384.2 146.9 386.65 147.65 387.65 147.5 388.15 147.4 388.65 147.35 389.55 147.1 390.25 146.8 391.2 146.25 392.1 145.4 392.35 145.15 392.65 144.95 393.4 144.45 394.45 144.4 395.9 144.25 397.7 142.75 399.35 141.45 399.35 139.05 399.35 138.45 399.3 137.9 398.2 139.3 397.3 139.9 396.1 140.75 394.5 140.65 391.85 140.5 390.35 142.35 388.85 144.15 387.25 144.7 385.6 145.3 374.5 138.25 363.35 131.15 359.95 126.05 356.55 120.95 352.9 113.65 349.2 106.3 349.15 107.8
L 348.95 108
Q 354.35 123.45 356.15 126.45 357.9 129.45 369.85 137.8
M 376.35 144.95
Q 376.3 143.5 376.4 142.25 373.6 140.4 369.85 137.8 357.9 129.45 356.15 126.45 354.35 123.45 348.95 108
L 354.3 131.75
Q 363.75 157.5 377.9 159.8 378.5 156.35 377.8 154.85 377.15 151.9 376.8 149.35 376.4 146.95 376.35 144.95
M 376.75 47.65
Q 375.35 47.95 374.15 48.3
L 374.1 48.3
Q 367.7 50.05 364.75 52.05 363 53.25 361.5 54.05 360 54.85 358.8 55.2 356.4 55.9 353.4 56.05 350.4 56.2 350 57.75 349.55 59.2 349.35 61.1 349.3 61.5 349.25 62.1 349.05 63.8 348.8 66.55 348.6 68.1 348.7 69.7 348.7 69.8 348.7 69.95 348.8 72 349.3 74.15 350.2 78.15 351.6 81.85 351.75 82.25 351.9 82.65
L 352.6 82.4
Q 352.05 81.2 351.5 76.95 350.8 71.2 350.8 68.4 350.8 63.7 351.25 62.3 351.95 60.05 352.7 59.6 353.35 59.25 356.1 59.3 358.75 59.35 362.55 57.6 362.75 57.5 363 57.4 363.05 57.4 363.1 57.35 365.2 56.35 369.05 54.45 372.85 52.75 375.15 52.2 377.4 51.65 384.7 50.65 387.7 50.25 389.55 49.75 390.35 49.55 393.2 48.65 393.15 48.5 393.1 48.35 392.182421875 45.509765625 391.15 44.05 391.125 44.0599609375 391.1 44.05 390.923828125 44.178125 390.7 44.1 390.52890625 44.0765625 390.4 43.9 390.383203125 43.8291015625 390.35 43.75 390.2849609375 43.77578125 390.2 43.8 385.2 45.6 376.75 47.65 Z"/>
</g>

<g id="FL_6789_0_Layer0_1_FILL">
<path fill="#FFFFFF" stroke="none" d="
M 392.85 129.9
Q 394.1 128.9 393.1 126.55 390.4 129.4 382.3 130.7 385.6 133.5 392.85 129.9
M 392.4 113.95
Q 392.65 112.3 393.05 110.55 385.05 116.15 373.85 113.55 374.35 114.8 374.85 116 384.9 118.3 392.4 113.95 Z"/>

<path fill="#FF0000" stroke="none" d="
M 392.15 121.8
Q 390.7 120.4 388.05 121.1 385.45 121.75 382.8 122.4 380.15 122.95 378.6 124.45 380.15 127.55 381.4 129.6 381.8 130.25 382.3 130.7 390.4 129.4 393.1 126.55 392.35 124.35 392.15 121.8 Z"/>

<path fill="#333333" stroke="none" d="
M 388.05 121.1
Q 390.7 120.4 392.15 121.8 391.8 118.6 392.25 114.95 392.3 114.45 392.4 113.95 384.9 118.3 374.85 116 375.5 117.55 376.1 119 377.45 122 378.6 124.45 380.15 122.95 382.8 122.4 385.45 121.75 388.05 121.1 Z"/>

<path fill="#000000" stroke="none" d="
M 391.8 61.85
Q 390.8 61.75 390.05 61.7 386.6 61.8 382.5 63.35 378.4 64.9 379 66.95 379.55 68.95 384.1 67.4 388.65 65.8 390.55 65.6 392.45 65.35 394.1 65.25
L 394.55 65.25
Q 394.65 65.25 394.8 65.25 394.95 65.25 395.1 65.25 395.9 65.25 396.45 65.3
L 396.5 65.3
Q 396.55 65.3 396.65 65.3 397.6 64.95 397.65 64.45 397.65 63.95 396.65 63.35 394.7 62.15 391.8 61.85
M 358.1 66.6
Q 360.2 65.4 362.75 65.05 365.25 64.65 368.55 65.55 371.85 66.4 372.55 65.35 373.25 64.25 373.4 63.75 373.75 62.2 371.4 61.35 368.2 60.2 367.15 60.25 365.95 60.25 364.5 60.25 363.6 60.25 362.15 60.55 360.75 60.8 357.5 62.7 354.2 64.6 352.9 67.05 352.55 67.65 352.5 68.15 352.3 69.45 354.1 68.6 355.9 67.75 358.1 66.6 Z"/>
</g>

<g id="FL_6789_0_Layer0_2_FILL">
<path fill="#000000" stroke="none" d="
M 365.25 111.8
Q 368.15 112.25 370.8 110.65 374.4 108.7 378.3 108.4 387.1 109.05 386.65 107.75 382.4 101.7 376.4 104.7 374.45 105.65 370.05 107.8 364.5 110.05 362.7 108.95 361.6 108.25 360.85 107.45 361.15 108.25 361.45 109 362.55 111.55 365.25 111.8
M 402 103.3
Q 398.4 102.05 396.8 101.55 391.8 99.7 389.2 106.6 388.95 108.75 392.45 106.9 395.95 105.05 399.5 106.1 403.05 107.1 405.55 106.1 408 105.1 408.4 102.2 408.1 102.6 407.75 103 406.55 104.45 402 103.3 Z"/>
</g>

<g id="FL_6789_0_Layer0_3_FILL">
<path fill="#E99C69" stroke="none" d="
M 392.2 75.55
Q 389.95 76.05 387.4 76.9 384.85 77.75 383.75 80.65 384.45 80.25 387.95 78.35 391.45 76.45 397.6 76.7 394.4 75 392.2 75.55
M 356.4 85.55
Q 354.95 86.8 356.1 86.55 356.15 86.55 356.15 86.6
L 356.7 86.7
Q 356.4 86.6 356.2 86.55 356.75 86.4 357.9 85.9 361.55 84.3 367.35 83.15 373.15 82 377.8 82.65 374.95 80.25 373.4 80.25 371.8 80.2 366 81.15 361.05 81.9 356.4 85.55 Z"/>

<path fill="#FFFFFF" stroke="none" d="
M 392.3 69.65
Q 392.7 70.15 392.95 70.8 393.55 72.55 393 74.2 392.95 74.3 392.9 74.45 394.5 74.2 395.3 74.05 396.7 73.65 395.95 72.45 395.05 71.15 393.1 70 392.7 69.8 392.3 69.65
M 386.3 73.7
Q 385.85 72.5 386 71.3 384.5 73.05 384.1 74.3 383.65 75.55 383.35 76.1 383.05 76.65 384.35 76.2 385.6 75.75 387.3 75.4 386.65 74.7 386.3 73.7
M 370.65 76.7
Q 370.65 78.1 370.15 79.25 372.45 78.8 374.35 78.75 376.25 78.6 375.6 77.95 374.9 77.3 373.7 75.85 372.35 74.35 369.9 73.65 370.65 75 370.65 76.7
M 360.55 76.7
Q 360.55 75.8 360.75 74.95 360.3 75.35 359.95 75.8 357.9 78.2 356.9 80.35 355.85 82.5 357.9 82.1 359.95 81.65 362.3 81.05 362.15 80.95 362 80.75 360.55 79.1 360.55 76.7 Z"/>

<path fill="url(#Gradient_2)" stroke="none" d="
M 386 71.3
Q 385.85 72.5 386.3 73.7 386.65 74.7 387.3 75.4 388.4 75.15 390.05 74.9 390.1 74.85 390.1 74.9 390.2 74.9 390.3 74.9
L 390.8 74.8
Q 391.95 74.65 392.9 74.45 392.95 74.3 393 74.2 393.55 72.55 392.95 70.8 392.7 70.15 392.3 69.65 390.75 69.55 389.05 69.85 387.3 70.1 386 71.3 Z"/>

<path fill="url(#Gradient_3)" stroke="none" d="
M 360.75 74.95
Q 360.55 75.8 360.55 76.7 360.55 79.1 362 80.75 362.15 80.95 362.3 81.05 363.95 80.7 366.15 80.15 366.2 80.1 366.3 80.1 368.5 79.5 370.15 79.25 370.65 78.1 370.65 76.7 370.65 75 369.9 73.65 367.6 72.85 365.1 73.3 362.55 73.7 360.75 74.95 Z"/>
</g>

<g id="FL_6789_0_Layer0_4_FILL">
<path fill="#000000" stroke="none" d="
M 389.15 72
Q 388.95 72.3 388.9 72.6 388.85 72.7 388.85 72.8 388.85 73.25 389.15 73.55 389.5 73.9 389.95 73.9 390.4 73.9 390.7 73.55 391.05 73.25 391.05 72.8 391.05 72.7 391.05 72.6 391 72.3 390.7 72 390.4 71.7 389.95 71.7 389.5 71.7 389.15 72
M 364.25 76.9
Q 364.2 77.05 364.2 77.2 364.2 77.8 364.6 78.2 365.05 78.65 365.65 78.65 366.25 78.65 366.65 78.2 367.1 77.8 367.1 77.2 367.1 77.05 367.1 76.9 367 76.5 366.65 76.15 366.25 75.75 365.65 75.75 365.05 75.75 364.6 76.15 364.3 76.5 364.25 76.9 Z"/>
</g>

<g id="FL_6789_0_Layer0_5_FILL">
<path fill="#FFFFFF" stroke="none" d="
M 389.5 72.65
Q 389.5 72.55 389.5 72.45 389.4 72.2 389.2 71.95 388.9 71.7 388.55 71.7 388.15 71.7 387.85 71.95 387.65 72.2 387.6 72.45 387.6 72.55 387.6 72.65 387.6 73.05 387.85 73.3 388.15 73.6 388.55 73.6 388.9 73.6 389.2 73.3 389.5 73.05 389.5 72.65
M 362.5 77.8
Q 362.95 78.25 363.55 78.25 364.15 78.25 364.55 77.8 365 77.4 365 76.8 365 76.65 365 76.5 364.9 76.1 364.55 75.75 364.15 75.35 363.55 75.35 362.95 75.35 362.5 75.75 362.2 76.1 362.15 76.5 362.1 76.65 362.1 76.8 362.1 77.4 362.5 77.8 Z"/>
</g>

<g id="Layer0_0_FILL">
<path fill="url(#Gradient_4)" stroke="none" d="
M 149.55 29.75
Q 149.55 2 121.8 2
L 29.75 2
Q 2 2 2 29.75
L 2 121.8
Q 2 149.55 29.75 149.55
L 121.8 149.55
Q 149.55 149.55 149.55 121.8
L 149.55 29.75
M 121.8 7
Q 144.55 7 144.55 29.75
L 144.55 121.8
Q 144.55 144.55 121.8 144.55
L 29.75 144.55
Q 7 144.55 7 121.8
L 7 29.75
Q 7 7 29.75 7
L 121.8 7 Z"/>
</g>

<path id="Layer4_0_1_STROKES" stroke="#666666" stroke-width="2" stroke-linejoin="round" stroke-linecap="round" fill="none" d="
M 217.15 76.95
L 173.7 76.95 217.15 50.75 217.15 34.65
Q 217.15 15.1 236.25 14.65
L 481.1 14.65
Q 500.15 15.1 500.15 34.65
L 500.15 117.7
Q 500.15 122.699609375 498.9 126.45 496.3099609375 134.25546875 488.325 136.65 485.1390625 137.6044921875 481.1 137.7
L 236.25 137.7
Q 232.2001953125 137.6044921875 229 136.65 220.99921875 134.25546875 218.4 126.45 217.15 122.699609375 217.15 117.7
L 217.15 76.95 Z"/>

<path id="Layer2_0_1_STROKES" stroke="#000000" stroke-width="1" stroke-linejoin="round" stroke-linecap="round" fill="none" d="
M 59 141.9
L 61.1 141.9"/>

<path id="FL_6789_0_Layer0_0_1_STROKES" stroke="#000000" stroke-width="1" stroke-linejoin="round" stroke-linecap="round" fill="none" d="
M 351.9 82.65
Q 351.75 82.25 351.6 81.85 350.2 78.15 349.3 74.15 348.8 72 348.7 69.95 348.7 69.8 348.7 69.7 348.6 68.1 348.8 66.55 349.05 63.8 349.25 62.1 349.3 61.5 349.35 61.1 349.55 59.2 350 57.75 350.4 56.2 353.4 56.05 356.4 55.9 358.8 55.2 360 54.85 361.5 54.05 363 53.25 364.75 52.05 367.7 50.05 374.1 48.3
L 374.15 48.3
Q 375.35 47.95 376.75 47.65 385.2 45.6 390.2 43.8 390.2849609375 43.77578125 390.375 43.75
M 340.275 46.275
Q 340.1947265625 46.4173828125 340.1 46.55 340 46.6 339.95 46.7 339 47.9 337.55 48.45 334.45 49.8 331.4 52.5 328.35 55.15 326.85 61.7 325.35 68.25 334.75 84.85 334.75 82.65 335.9 80.9 337.45 78.6 340.25 78.8 346.55 79.45 347.7 86.55 348.05 87.2 348.45 88 348.8 88 349.45 88 351.15 88 352.05 87.5 352.8 87.1 352.8 86.5 352.8 85.3 351.95 82.8 351.9 82.7 351.9 82.65
M 393.2 48.65
Q 393.15 48.5 393.1 48.35 392.182421875 45.509765625 391.15 44.05
M 345.75 100.9
L 345.45 97.7
Q 342.5 96.65 343.3 93.45 343.7 91.85 345.1 91.05 345.1 89.7 344.75 88.6 343.75 85.3 339.9 84.35 339.5 84.15 339.05 84.2
M 347.7 86.55
Q 347.75 87.1 347.85 87.45 347.9 87.75 348 87.85 348.1 87.95 348.45 88
M 399.3 137.9
Q 399.15 136.25 398.55 135 397.7 133.35 397.1 131.8 396.5 130.2 396.35 127.9 396.2 125.6 396.95 118.75 397.9 109.6 401.55 101.55 405.15 93.5 403.3 88.65 401.4 83.8 400.3 80.5 399.2 77.2 398.35 74.75 397.45 72.25 398.3 69.35 399.15 66.45 397.8 62.6 397.3 61.1 396.4 58.85 395.2 55.9 393.85 50.8 393.5 49.65 393.2 48.65
M 379.5 66.65
Q 379.45 68 380.15 71.55 380.8 75.1 381.6 77.65 382.4 80.2 385.7 84.9 388.95 89.6 390.95 90.95 392.95 92.25 393.45 92.75 393.9 93.2 394.15 94.95 394.4 96.65 392.9 99.15 391.35 101.6 385.35 101.8
M 399.3 137.9
Q 399.35 138.45 399.35 139.05 399.35 141.45 397.7 142.75 395.9 144.25 394.45 144.4 393.4 144.45 392.65 144.95 392.35 145.15 392.1 145.4 391.2 146.25 390.25 146.8 389.55 147.1 388.65 147.35 388.15 147.4 387.65 147.5 386.65 147.65 384.2 146.9 383.2 146.55 380.6 144.95 378.85 143.9 376.4 142.25 376.3 143.5 376.35 144.95 376.4 146.95 376.8 149.35 377.15 151.9 377.8 154.85 378.05 154.8 378.35 154.8 381.75 154.5 385.05 155.85 387.65 156.9 390.25 159 390.8443359375 159.4794921875 391.4 159.925
M 344.55 159.95
Q 345.4337890625 159.3212890625 346.25 158.75 346.55 158.5 346.95 158.3 350.85 155.75 354.4 156.05 353.85 150.65 353.05 145.15 353 145.05 353 144.95 350.35 127.7 344.6 109.4 344.4 108.7 344.2 108
L 344.1 108
Q 340.9 105.4 337.35 99.7 333.8 93.95 334.75 84.85
M 348.95 108
Q 354.35 123.45 356.15 126.45 357.9 129.45 369.85 137.8 373.6 140.4 376.4 142.25
M 347.75 106.9
Q 347.3 107.65 346.7 108 345.75 108.6 344.2 108
M 347.75 106.9
Q 348.15 106.1 348.4 104.9
M 377.8 154.85
Q 378.5 156.35 377.9 159.8
M 354.825 160.1
L 356.925 160.1
M 354.4 156.05
L 354.4 159.75"/>

<path id="FL_6789_0_Layer0_1_1_STROKES" stroke="#000000" stroke-width="1" stroke-linejoin="round" stroke-linecap="round" fill="none" d="
M 393.05 110.55
Q 394.65 109.4 396.15 108
M 392.15 121.8
Q 391.8 118.6 392.25 114.95 392.3 114.45 392.4 113.95
M 374.85 116
Q 375.5 117.55 376.1 119 377.45 122 378.6 124.45 380.15 127.55 381.4 129.6 381.8 130.25 382.3 130.7
M 393.1 126.55
Q 392.35 124.35 392.15 121.8
M 392.4 113.95
Q 392.65 112.3 393.05 110.55 385.05 116.15 373.85 113.55 374.35 114.8 374.85 116
M 373.85 113.55
L 370.3 111.95
M 382.3 130.7
Q 385.6 133.5 392.85 129.9 394.1 128.9 393.1 126.55"/>

<path id="FL_6789_0_Layer0_2_1_STROKES" stroke="#000000" stroke-width="1" stroke-linejoin="round" stroke-linecap="round" fill="none" d="
M 340.95 84.7
Q 335.7 90.55 341.05 98.8"/>

<path id="FL_6789_0_Layer0_3_1_STROKES" stroke="#000000" stroke-width="1" stroke-linejoin="round" stroke-linecap="round" fill="none" d="
M 360.75 74.95
Q 360.3 75.35 359.95 75.8 357.9 78.2 356.9 80.35 355.85 82.5 357.9 82.1 359.95 81.65 362.3 81.05 363.95 80.7 366.15 80.15 366.2 80.1 366.3 80.1 368.5 79.5 370.15 79.25
M 369.9 73.65
Q 367.6 72.85 365.1 73.3 362.55 73.7 360.75 74.95
M 390.3 74.9
L 390.8 74.8
Q 391.95 74.65 392.9 74.45
M 392.3 69.65
Q 390.75 69.55 389.05 69.85 387.3 70.1 386 71.3 384.5 73.05 384.1 74.3 383.65 75.55 383.35 76.1 383.05 76.65 384.35 76.2 385.6 75.75 387.3 75.4
L 390.1 74.9
M 392.9 74.45
Q 394.5 74.2 395.3 74.05 396.7 73.65 395.95 72.45 395.05 71.15 393.1 70 392.7 69.8 392.3 69.65
M 369.9 73.65
Q 372.35 74.35 373.7 75.85 374.9 77.3 375.6 77.95 376.25 78.6 374.35 78.75 372.45 78.8 370.15 79.25"/>
</defs>

<g transform="matrix( 1, 0, 0, 1, 0,0) ">
<use xlink:href="#Layer5_0_FILL"/>
</g>

<g transform="matrix( 1, 0, 0, 1, 0,0) ">
<use xlink:href="#Layer4_0_FILL"/>

<use xlink:href="#Layer4_0_1_STROKES"/>
</g>

<g transform="matrix( 1, 0, 0, 1, 0,-0.45) ">
<use xlink:href="#Layer3_0_FILL"/>
</g>

<g transform="matrix( 1, 0, 0, 1, 0,0) ">
<use xlink:href="#Layer2_0_FILL"/>

<use xlink:href="#Layer2_0_1_STROKES"/>
</g>

<g transform="matrix( 1.00616455078125, 0, 0, 1.00616455078125, -298.05,-19.2) ">
<g transform="matrix( 1, 0, 0, 1, 0,0) ">
<use xlink:href="#FL_6789_0_Layer0_0_FILL"/>

<use xlink:href="#FL_6789_0_Layer0_0_1_STROKES"/>
</g>

<g transform="matrix( 1, 0, 0, 1, 0,0) ">
<use xlink:href="#FL_6789_0_Layer0_1_FILL"/>

<use xlink:href="#FL_6789_0_Layer0_1_1_STROKES"/>
</g>

<g transform="matrix( 1, 0, 0, 1, 0,0) ">
<use xlink:href="#FL_6789_0_Layer0_2_FILL"/>

<use xlink:href="#FL_6789_0_Layer0_2_1_STROKES"/>
</g>

<g transform="matrix( 1, 0, 0, 1, 0,0) ">
<use xlink:href="#FL_6789_0_Layer0_3_FILL"/>

<use xlink:href="#FL_6789_0_Layer0_3_1_STROKES"/>
</g>

<g transform="matrix( 1, 0, 0, 1, 0,0) ">
<use xlink:href="#FL_6789_0_Layer0_4_FILL"/>
</g>

<g transform="matrix( 1, 0, 0, 1, 0,0) ">
<use xlink:href="#FL_6789_0_Layer0_5_FILL"/>
</g>
</g>

<g transform="matrix( 1, 0, 0, 1, 0,-0.45) ">
<use xlink:href="#Layer0_0_FILL"/>
</g>
</svg>
