
<svg xmlns="http://www.w3.org/2000/svg" version="1.1" xmlns:xlink="http://www.w3.org/1999/xlink" preserveAspectRatio="none" x="0px" y="0px" width="485px" height="69px" viewBox="0 0 485 69">
<defs>
<g id="Layer1_0_FILL">
<path fill="#666666" stroke="none" d="
M 489.1 60.25
L 489.1 14.75
Q 489.1009765625 3.57109375 478.3 3.25
L 15.75 3.25
Q 4.898828125 3.574609375 4.9 14.75
L 4.9 60.25
Q 4.898828125 71.425390625 15.75 71.75
L 478.3 71.75
Q 489.1009765625 71.42890625 489.1 60.25
M 486.1 14.75
L 486.1 60.25
Q 486.0990234375 68.47109375 478.2 68.75
L 15.8 68.75
Q 7.9009765625 68.448828125 7.9 60.25
L 7.9 14.75
Q 7.9009765625 6.551171875 15.8 6.25
L 478.25 6.25
Q 486.0990234375 6.555078125 486.1 14.75 Z"/>

<path fill="#FFFFFF" stroke="none" d="
M 486.1 60.25
L 486.1 14.75
Q 486.0990234375 6.555078125 478.25 6.25
L 15.8 6.25
Q 7.9009765625 6.551171875 7.9 14.75
L 7.9 60.25
Q 7.9009765625 68.448828125 15.8 68.75
L 478.2 68.75
Q 486.0990234375 68.47109375 486.1 60.25 Z"/>
</g>

<g id="Layer0_0_FILL">
<path fill="#000000" stroke="none" d="
M 33.8 29.7
Q 35.65 29.7 36.85 30.6 38.1 31.55 38.75 33.55
L 41.15 33
Q 40.4 30.45 38.5 29 36.6 27.6 33.85 27.6 31.4 27.6 29.35 28.75 27.3 29.85 26.2 32 25.1 34.15 25.1 37.05 25.1 39.7 26.1 42 27.05 44.35 28.95 45.55 30.8 46.75 33.8 46.75 36.7 46.75 38.7 45.2 40.7 43.6 41.45 40.55
L 39 39.95
Q 38.5 42.3 37.1 43.5 35.65 44.65 33.6 44.65 31.9 44.65 30.45 43.8 29 42.9 28.3 41.15 27.6 39.4 27.6 37.05 27.6 35.2 28.2 33.5 28.8 31.75 30.2 30.7 31.65 29.7 33.8 29.7
M 80.95 33.05
L 78.65 33.05 78.65 40.2
Q 78.65 41.95 78.3 42.85 77.9 43.75 77 44.3 76.1 44.8 75.1 44.8 74.1 44.8 73.4 44.3 72.7 43.75 72.45 42.85 72.35 42.25 72.35 40.45
L 72.35 33.05 70.05 33.05 70.05 41.35
Q 70.05 42.8 70.2 43.45 70.4 44.45 70.9 45.15 71.4 45.85 72.45 46.3 73.45 46.75 74.65 46.75 77.35 46.75 78.9 44.5
L 78.9 46.45 80.95 46.45 80.95 33.05
M 49.95 46.45
L 52.25 46.45 52.25 33.05 49.95 33.05 49.95 46.45
M 46.45 27.9
L 44.15 27.9 44.15 46.45 46.45 46.45 46.45 27.9
M 52.25 30.55
L 52.25 27.9 49.95 27.9 49.95 30.55 52.25 30.55
M 60.55 32.7
Q 59 32.7 57.65 33.55 56.3 34.4 55.6 36 54.9 37.6 54.9 39.6 54.9 42.95 56.65 44.85 58.35 46.75 60.75 46.75 61.8 46.75 62.8 46.25 63.75 45.75 64.25 45
L 64.25 51.6 66.55 51.6 66.55 33.05 64.5 33.05 64.5 34.8
Q 63.05 32.7 60.55 32.7
M 58.35 43.6
Q 57.25 42.3 57.25 39.7 57.25 37.05 58.3 35.8 59.3 34.5 60.8 34.5 62.3 34.5 63.4 35.85 64.5 37.2 64.5 39.9 64.5 42.4 63.45 43.65 62.4 44.9 60.95 44.9 59.4 44.9 58.35 43.6
M 114.6 33.15
Q 113.6 32.7 112.4 32.7 109.6 32.7 108.1 34.95
L 108.1 33.05 106.05 33.05 106.05 46.45 108.35 46.45 108.35 39.1
Q 108.35 36.55 109.4 35.6 110.45 34.7 111.9 34.7 112.8 34.7 113.5 35.1 114.15 35.5 114.4 36.2 114.7 36.9 114.7 38.3
L 114.7 46.45 116.95 46.45 116.95 38.2
Q 116.95 36.6 116.85 36 116.65 35 116.15 34.3 115.65 33.6 114.6 33.15
M 89.95 32.7
Q 87.2 32.7 85.45 34.6 83.7 36.45 83.7 39.85 83.7 43.15 85.45 44.95 87.15 46.75 90.1 46.75 92.45 46.75 93.95 45.6 95.45 44.5 96 42.4
L 93.65 42.15
Q 93.15 43.55 92.25 44.25 91.35 44.9 90.1 44.9 88.45 44.9 87.3 43.7 86.2 42.55 86.05 40.3
L 96.05 40.3
Q 96.05 39.9 96.05 39.7 96.05 36.4 94.35 34.55 92.65 32.7 89.95 32.7
M 87.35 35.65
Q 88.45 34.6 90 34.6 91.75 34.6 92.8 35.9 93.5 36.75 93.65 38.45
L 86.2 38.45
Q 86.3 36.7 87.35 35.65
M 131.2 35.7
Q 131 34.75 130.5 34.15 130 33.55 128.95 33.15 127.85 32.7 126.15 32.7 124.4 32.7 123.1 33.2 121.75 33.65 121.1 34.55 120.4 35.45 120.1 36.85
L 122.3 37.15
Q 122.65 35.75 123.45 35.15 124.2 34.6 125.8 34.6 127.5 34.6 128.4 35.4 129.05 35.95 129.05 37.35 129.05 37.45 129.05 37.95 127.75 38.4 124.95 38.7 123.6 38.9 122.95 39.05 122.05 39.3 121.3 39.8 120.6 40.3 120.15 41.1 119.7 41.9 119.7 42.9 119.7 44.6 120.85 45.7 122.05 46.75 124.25 46.75 125.6 46.75 126.8 46.3 127.95 45.85 129.2 44.8 129.3 45.75 129.65 46.45
L 132.05 46.45
Q 131.6 45.7 131.5 44.85 131.35 44 131.35 40.8
L 131.35 37.8
Q 131.35 36.25 131.2 35.7
M 129.05 39.7
L 129.05 40.55
Q 129.05 42.05 128.65 42.8 128.2 43.8 127.15 44.4 126.15 44.95 124.8 44.95 123.5 44.95 122.8 44.35 122.1 43.75 122.1 42.85 122.1 42.25 122.45 41.75 122.75 41.3 123.35 41.05 123.9 40.75 125.3 40.55 127.8 40.2 129.05 39.7
M 136.75 37.1
Q 136.5 36.75 136.5 36.3 136.5 35.65 137.15 35.1 137.8 34.6 139.4 34.6 140.7 34.6 141.45 35.15 142.15 35.75 142.3 36.8
L 144.55 36.5
Q 144.35 35.2 143.75 34.4 143.2 33.65 142 33.2 140.8 32.7 139.2 32.7 138.15 32.7 137.25 33 136.35 33.25 135.8 33.65 135.1 34.15 134.7 34.95 134.3 35.7 134.3 36.6 134.3 37.6 134.8 38.4 135.25 39.2 136.25 39.65 137.2 40.15 139.7 40.75 141.55 41.25 142.05 41.55 142.7 42 142.7 42.75 142.7 43.6 141.95 44.25 141.2 44.9 139.6 44.9 138.05 44.9 137.2 44.15 136.35 43.45 136.15 42.1
L 133.9 42.45
Q 134.3 44.6 135.65 45.65 137 46.75 139.65 46.75 141.2 46.75 142.45 46.2 143.7 45.65 144.4 44.65 145.05 43.65 145.05 42.5 145.05 41.35 144.5 40.55 143.95 39.8 143 39.35 142.05 38.95 139.65 38.3 137.95 37.85 137.65 37.75 137.05 37.5 136.75 37.1
M 185.95 27.9
L 183.65 27.9 183.65 46.45 185.95 46.45 185.95 27.9
M 194.8 34.6
Q 196.5 34.6 197.4 35.4 198.05 35.95 198.05 37.35 198.05 37.45 198.05 37.95 196.75 38.4 193.95 38.7 192.6 38.9 191.95 39.05 191.05 39.3 190.3 39.8 189.6 40.3 189.15 41.1 188.7 41.9 188.7 42.9 188.7 44.6 189.85 45.7 191.05 46.75 193.25 46.75 194.6 46.75 195.8 46.3 196.95 45.85 198.2 44.8 198.3 45.75 198.65 46.45
L 201.05 46.45
Q 200.6 45.7 200.5 44.85 200.35 44 200.35 40.8
L 200.35 37.8
Q 200.35 36.25 200.2 35.7 200 34.75 199.5 34.15 199 33.55 197.95 33.15 196.85 32.7 195.15 32.7 193.4 32.7 192.1 33.2 190.75 33.65 190.1 34.55 189.4 35.45 189.1 36.85
L 191.3 37.15
Q 191.65 35.75 192.45 35.15 193.2 34.6 194.8 34.6
M 191.8 44.35
Q 191.1 43.75 191.1 42.85 191.1 42.25 191.45 41.75 191.75 41.3 192.35 41.05 192.9 40.75 194.3 40.55 196.8 40.2 198.05 39.7
L 198.05 40.55
Q 198.05 42.05 197.65 42.8 197.2 43.8 196.15 44.4 195.15 44.95 193.8 44.95 192.5 44.95 191.8 44.35
M 165.95 36.1
Q 165.25 34.5 163.95 33.6 162.65 32.7 160.9 32.7 159.6 32.7 158.7 33.25 157.75 33.75 157.05 34.75
L 157.05 33.05 154.95 33.05 154.95 51.6 157.25 51.6 157.25 45.05
Q 157.8 45.8 158.7 46.25 159.6 46.75 160.75 46.75 162.3 46.75 163.75 45.9 165.15 45 165.9 43.35 166.6 41.7 166.6 39.65 166.6 37.7 165.95 36.1
M 164.3 39.6
Q 164.3 42.3 163.2 43.6 162.1 44.9 160.6 44.9 159.1 44.9 158.05 43.65 157 42.4 157 39.8 157 37.2 158.15 35.85 159.25 34.5 160.7 34.5 162.15 34.5 163.25 35.8 164.3 37.05 164.3 39.6
M 180.1 35.7
Q 179.9 34.75 179.4 34.15 178.9 33.55 177.85 33.15 176.75 32.7 175.05 32.7 173.3 32.7 172 33.2 170.65 33.65 170 34.55 169.3 35.45 169 36.85
L 171.2 37.15
Q 171.55 35.75 172.35 35.15 173.1 34.6 174.7 34.6 176.4 34.6 177.3 35.4 177.95 35.95 177.95 37.35 177.95 37.45 177.95 37.95 176.65 38.4 173.85 38.7 172.5 38.9 171.85 39.05 170.95 39.3 170.2 39.8 169.5 40.3 169.05 41.1 168.6 41.9 168.6 42.9 168.6 44.6 169.75 45.7 170.95 46.75 173.15 46.75 174.5 46.75 175.7 46.3 176.85 45.85 178.1 44.8 178.2 45.75 178.55 46.45
L 180.95 46.45
Q 180.5 45.7 180.4 44.85 180.25 44 180.25 40.8
L 180.25 37.8
Q 180.25 36.25 180.1 35.7
M 171 42.85
Q 171 42.25 171.35 41.75 171.65 41.3 172.25 41.05 172.8 40.75 174.2 40.55 176.7 40.2 177.95 39.7
L 177.95 40.55
Q 177.95 42.05 177.55 42.8 177.1 43.8 176.05 44.4 175.05 44.95 173.7 44.95 172.4 44.95 171.7 44.35 171 43.75 171 42.85
M 235.4 34.15
Q 234.9 33.55 233.85 33.15 232.75 32.7 231.05 32.7 229.3 32.7 228 33.2 226.65 33.65 226 34.55 225.3 35.45 225 36.85
L 227.2 37.15
Q 227.55 35.75 228.35 35.15 229.1 34.6 230.7 34.6 232.4 34.6 233.3 35.4 233.95 35.95 233.95 37.35 233.95 37.45 233.95 37.95 232.65 38.4 229.85 38.7 228.5 38.9 227.85 39.05 226.95 39.3 226.2 39.8 225.5 40.3 225.05 41.1 224.6 41.9 224.6 42.9 224.6 44.6 225.75 45.7 226.95 46.75 229.15 46.75 230.5 46.75 231.7 46.3 232.85 45.85 234.1 44.8 234.2 45.75 234.55 46.45
L 236.95 46.45
Q 236.5 45.7 236.4 44.85 236.25 44 236.25 40.8
L 236.25 37.8
Q 236.25 36.25 236.1 35.7 235.9 34.75 235.4 34.15
M 228.25 41.05
Q 228.8 40.75 230.2 40.55 232.7 40.2 233.95 39.7
L 233.95 40.55
Q 233.95 42.05 233.55 42.8 233.1 43.8 232.05 44.4 231.05 44.95 229.7 44.95 228.4 44.95 227.7 44.35 227 43.75 227 42.85 227 42.25 227.35 41.75 227.65 41.3 228.25 41.05
M 204.9 33.05
L 202.5 33.05 207.6 46.45 209.7 46.45 214.8 33.05 212.45 33.05 209.45 41.2
Q 208.95 42.7 208.6 43.75 208.25 42.35 207.75 41.05
L 204.9 33.05
M 219.4 36.75
Q 219.65 35.95 220.25 35.55 220.85 35.05 221.55 35.05 222.4 35.05 223.25 35.55
L 224.05 33.45
Q 222.85 32.7 221.7 32.7 220.9 32.7 220.25 33.2 219.55 33.65 218.8 35.05
L 218.8 33.05 216.75 33.05 216.75 46.45 219 46.45 219 39.4
Q 219 38 219.4 36.75
M 244.35 34.6
Q 245.65 34.6 246.4 35.15 247.1 35.75 247.25 36.8
L 249.5 36.5
Q 249.3 35.2 248.7 34.4 248.15 33.65 246.95 33.2 245.75 32.7 244.15 32.7 243.1 32.7 242.2 33 241.3 33.25 240.75 33.65 240.05 34.15 239.65 34.95 239.25 35.7 239.25 36.6 239.25 37.6 239.75 38.4 240.2 39.2 241.2 39.65 242.15 40.15 244.65 40.75 246.5 41.25 247 41.55 247.65 42 247.65 42.75 247.65 43.6 246.9 44.25 246.15 44.9 244.55 44.9 243 44.9 242.15 44.15 241.3 43.45 241.1 42.1
L 238.85 42.45
Q 239.25 44.6 240.6 45.65 241.95 46.75 244.6 46.75 246.15 46.75 247.4 46.2 248.65 45.65 249.35 44.65 250 43.65 250 42.5 250 41.35 249.45 40.55 248.9 39.8 247.95 39.35 247 38.95 244.6 38.3 242.9 37.85 242.6 37.75 242 37.5 241.7 37.1 241.45 36.75 241.45 36.3 241.45 35.65 242.1 35.1 242.75 34.6 244.35 34.6
M 261.85 33.55
Q 260.5 34.4 259.8 36 259.1 37.6 259.1 39.6 259.1 42.95 260.85 44.85 262.55 46.75 264.95 46.75 266 46.75 267 46.25 267.95 45.75 268.45 45
L 268.45 51.6 270.75 51.6 270.75 33.05 268.7 33.05 268.7 34.8
Q 267.25 32.7 264.75 32.7 263.2 32.7 261.85 33.55
M 262.55 43.6
Q 261.45 42.3 261.45 39.7 261.45 37.05 262.5 35.8 263.5 34.5 265 34.5 266.5 34.5 267.6 35.85 268.7 37.2 268.7 39.9 268.7 42.4 267.65 43.65 266.6 44.9 265.15 44.9 263.6 44.9 262.55 43.6
M 317.4 33.2
Q 316.2 32.7 314.6 32.7 313.55 32.7 312.65 33 311.75 33.25 311.2 33.65 310.5 34.15 310.1 34.95 309.7 35.7 309.7 36.6 309.7 37.6 310.2 38.4 310.65 39.2 311.65 39.65 312.6 40.15 315.1 40.75 316.95 41.25 317.45 41.55 318.1 42 318.1 42.75 318.1 43.6 317.35 44.25 316.6 44.9 315 44.9 313.45 44.9 312.6 44.15 311.75 43.45 311.55 42.1
L 309.3 42.45
Q 309.7 44.6 311.05 45.65 312.4 46.75 315.05 46.75 316.6 46.75 317.85 46.2 319.1 45.65 319.8 44.65 320.45 43.65 320.45 42.5 320.45 41.35 319.9 40.55 319.35 39.8 318.4 39.35 317.45 38.95 315.05 38.3 313.35 37.85 313.05 37.75 312.45 37.5 312.15 37.1 311.9 36.75 311.9 36.3 311.9 35.65 312.55 35.1 313.2 34.6 314.8 34.6 316.1 34.6 316.85 35.15 317.55 35.75 317.7 36.8
L 319.95 36.5
Q 319.75 35.2 319.15 34.4 318.6 33.65 317.4 33.2
M 285.1 46.45
L 285.1 33.05 282.8 33.05 282.8 40.2
Q 282.8 41.95 282.45 42.85 282.05 43.75 281.15 44.3 280.25 44.8 279.25 44.8 278.25 44.8 277.55 44.3 276.85 43.75 276.6 42.85 276.5 42.25 276.5 40.45
L 276.5 33.05 274.2 33.05 274.2 41.35
Q 274.2 42.8 274.35 43.45 274.55 44.45 275.05 45.15 275.55 45.85 276.6 46.3 277.6 46.75 278.8 46.75 281.5 46.75 283.05 44.5
L 283.05 46.45 285.1 46.45
M 298.55 34.55
Q 296.85 32.7 294.15 32.7 291.4 32.7 289.65 34.6 287.9 36.45 287.9 39.85 287.9 43.15 289.65 44.95 291.35 46.75 294.3 46.75 296.65 46.75 298.15 45.6 299.65 44.5 300.2 42.4
L 297.85 42.15
Q 297.35 43.55 296.45 44.25 295.55 44.9 294.3 44.9 292.65 44.9 291.5 43.7 290.4 42.55 290.25 40.3
L 300.25 40.3
Q 300.25 39.9 300.25 39.7 300.25 36.4 298.55 34.55
M 294.2 34.6
Q 295.95 34.6 297 35.9 297.7 36.75 297.85 38.45
L 290.4 38.45
Q 290.5 36.7 291.55 35.65 292.65 34.6 294.2 34.6
M 326.15 35.15
Q 326.9 34.6 328.5 34.6 330.2 34.6 331.1 35.4 331.75 35.95 331.75 37.35 331.75 37.45 331.75 37.95 330.45 38.4 327.65 38.7 326.3 38.9 325.65 39.05 324.75 39.3 324 39.8 323.3 40.3 322.85 41.1 322.4 41.9 322.4 42.9 322.4 44.6 323.55 45.7 324.75 46.75 326.95 46.75 328.3 46.75 329.5 46.3 330.65 45.85 331.9 44.8 332 45.75 332.35 46.45
L 334.75 46.45
Q 334.3 45.7 334.2 44.85 334.05 44 334.05 40.8
L 334.05 37.8
Q 334.05 36.25 333.9 35.7 333.7 34.75 333.2 34.15 332.7 33.55 331.65 33.15 330.55 32.7 328.85 32.7 327.1 32.7 325.8 33.2 324.45 33.65 323.8 34.55 323.1 35.45 322.8 36.85
L 325 37.15
Q 325.35 35.75 326.15 35.15
M 331.75 39.7
L 331.75 40.55
Q 331.75 42.05 331.35 42.8 330.9 43.8 329.85 44.4 328.85 44.95 327.5 44.95 326.2 44.95 325.5 44.35 324.8 43.75 324.8 42.85 324.8 42.25 325.15 41.75 325.45 41.3 326.05 41.05 326.6 40.75 328 40.55 330.5 40.2 331.75 39.7
M 332.1 30.3
Q 332.75 29.55 332.8 28.1
L 331.15 28.1
Q 331.05 28.8 330.85 29 330.65 29.2 330.25 29.2 329.8 29.2 329.05 28.85 327.7 28.15 326.9 28.15 325.8 28.15 325.05 28.95 324.35 29.75 324.35 31.05
L 326.05 31.05
Q 326 30.45 326.3 30.15 326.55 29.85 327 29.85 327.4 29.85 328.25 30.3 329.55 31 330.3 31 331.4 31 332.1 30.3
M 343 32.7
Q 340.5 32.7 338.8 34.2 336.7 36 336.7 39.75 336.7 43.15 338.45 44.95 340.2 46.75 343 46.75 344.75 46.75 346.25 45.95 347.75 45.1 348.5 43.65 349.3 42.15 349.3 39.55 349.3 36.35 347.55 34.55 345.75 32.7 343 32.7
M 340.15 35.9
Q 341.3 34.6 343 34.6 344.7 34.6 345.8 35.9 346.95 37.15 346.95 39.65 346.95 42.3 345.8 43.6 344.7 44.9 343 44.9 341.3 44.9 340.15 43.6 339.05 42.3 339.05 39.75 339.05 37.15 340.15 35.9
M 374.5 27.9
L 372 27.9 367 41.4
Q 366.45 42.9 366 44.4 365.6 43 365.05 41.4
L 360.2 27.9 357.55 27.9 364.75 46.45 367.25 46.45 374.5 27.9
M 379.2 35.8
L 379.2 30.1 390.15 30.1 390.15 27.9 376.75 27.9 376.75 46.45 390.6 46.45 390.6 44.25 379.2 44.25 379.2 37.95 389.45 37.95 389.45 35.8 379.2 35.8
M 408.05 30.2
Q 407.25 28.9 405.95 28.4 404.7 27.9 402.2 27.9
L 394 27.9 394 46.45 396.45 46.45 396.45 38.2 399.3 38.2
Q 400.25 38.2 400.65 38.3 401.2 38.45 401.75 38.8 402.3 39.15 403 40.05 403.7 40.95 404.8 42.6
L 407.25 46.45 410.3 46.45 407.1 41.4
Q 406.15 39.95 405.05 38.95 404.55 38.5 403.6 38 406.25 37.65 407.5 36.3 408.8 34.95 408.8 32.95 408.8 31.45 408.05 30.2
M 406.25 32.95
Q 406.25 33.85 405.8 34.65 405.3 35.4 404.35 35.75 403.4 36.1 401.7 36.1
L 396.45 36.1 396.45 29.95 402.3 29.95
Q 404.35 29.95 405.3 30.8 406.25 31.65 406.25 32.95
M 424.9 30.2
Q 424.2 29.05 422.9 28.5 421.6 27.9 419.5 27.9
L 412.55 27.9 412.55 46.45 419.6 46.45
Q 421.4 46.45 422.6 46.15 423.8 45.85 424.65 45.2 425.45 44.6 426 43.5 426.55 42.4 426.55 41.1 426.55 39.45 425.65 38.25 424.75 37.1 423.05 36.6 424.35 35.95 425 34.9 425.65 33.85 425.65 32.65 425.65 31.4 424.9 30.2
M 422.75 34.55
Q 422.3 35.2 421.35 35.5 420.65 35.7 419 35.7
L 415 35.7 415 30.1 418.7 30.1
Q 420.7 30.1 421.5 30.35 422.35 30.6 422.8 31.35 423.25 32.05 423.25 32.95 423.25 33.9 422.75 34.55
M 415 44.25
L 415 37.9 419.3 37.9
Q 421.05 37.9 422 38.2 422.95 38.5 423.45 39.3 424 40.05 424 41.1 424 41.95 423.65 42.65 423.25 43.3 422.7 43.65 422.15 44 421.3 44.15 420.8 44.25 419.6 44.25
L 415 44.25
M 467.65 43.85
L 467.65 46.45 470.25 46.45 470.25 43.85 467.65 43.85
M 445.75 42.25
Q 446.85 40.05 446.85 37.2 446.85 34.45 445.8 32.25 444.7 30.05 442.65 28.8 440.6 27.6 438.05 27.6 434.1 27.6 431.65 30.2 429.15 32.8 429.15 37.4 429.15 39.85 430.2 42.05 431.3 44.25 433.35 45.5 435.4 46.75 438 46.75 440.45 46.75 442.5 45.65 444.6 44.5 445.75 42.25
M 441.35 30.65
Q 442.8 31.55 443.6 33.25 444.35 34.95 444.35 37.2 444.35 40.75 442.55 42.7 440.75 44.65 438 44.65 435.3 44.65 433.5 42.75 431.7 40.8 431.7 37.45 431.7 33.3 433.55 31.5 435.45 29.7 438.05 29.7 439.85 29.7 441.35 30.65
M 460.1 28.25
Q 458.5 27.6 456.45 27.6 454.55 27.6 453.05 28.25 451.5 28.85 450.7 30.1 449.9 31.3 449.9 32.7 449.9 34 450.6 35 451.2 36.05 452.55 36.75 453.55 37.3 456.15 37.9 458.7 38.5 459.45 38.8 460.6 39.25 461.1 39.9 461.6 40.55 461.6 41.4 461.6 42.3 461.1 43 460.55 43.75 459.5 44.15 458.4 44.55 457 44.55 455.4 44.55 454.15 44 452.9 43.45 452.3 42.6 451.7 41.7 451.55 40.3
L 449.2 40.5
Q 449.25 42.35 450.25 43.85 451.2 45.3 452.9 46.05 454.6 46.75 457.1 46.75 459.1 46.75 460.7 46.05 462.25 45.3 463.1 44 463.95 42.7 463.95 41.2 463.95 39.7 463.2 38.6 462.4 37.45 460.8 36.7 459.7 36.2 456.7 35.5 453.7 34.85 453 34.2 452.3 33.55 452.3 32.55 452.3 31.4 453.3 30.6 454.3 29.75 456.55 29.75 458.7 29.75 459.8 30.65 460.85 31.55 461.05 33.3
L 463.4 33.15
Q 463.35 31.5 462.5 30.2 461.65 28.95 460.1 28.25 Z"/>
</g>
</defs>

<g transform="matrix( 1, 0, 0, 1, -4.5,-3) ">
<use xlink:href="#Layer1_0_FILL"/>
</g>

<g transform="matrix( 1, 0, 0, 1, -5.15,-5.1) ">
<use xlink:href="#Layer0_0_FILL"/>
</g>
</svg>
