
<svg xmlns="http://www.w3.org/2000/svg" version="1.1" xmlns:xlink="http://www.w3.org/1999/xlink" preserveAspectRatio="none" x="0px" y="0px" width="298px" height="130px" viewBox="0 0 298 130">
<defs>
<g id="Layer2_0_FILL">
<path fill="#666666" stroke="none" d="
M 384.65 182.7
L 384.65 156.7
Q 384.6521484375 136.1119140625 364.4 135.7
L 146.3 135.7
Q 126.7767578125 136.073046875 126.1 155.45
L 126.1 245.6
Q 126.7755859375 264.9767578125 146.3 265.35
L 364.4 265.35
Q 384.6521484375 264.937890625 384.65 244.35
L 384.65 223.8 422.95 223.8
Q 423.3583984375 223.7962890625 423.65 223.5 423.9462890625 223.209765625 423.95 222.8 423.9451171875 222.390625 423.65 222.1
L 384.65 182.7
M 382.65 183.1
Q 382.6552734375 183.5083984375 382.95 183.8
L 420.55 221.8 383.65 221.8
Q 383.2392578125 221.803515625 382.95 222.1 382.653515625 222.3892578125 382.65 222.8
L 382.65 244.35
Q 382.6478515625 262.96171875 364.35 263.35
L 146.35 263.35
Q 128.7236328125 263.0109375 128.1 245.55
L 128.1 155.5
Q 128.73515625 138.0390625 146.35 137.7
L 364.4 137.7
Q 382.6478515625 138.10078125 382.65 156.7
L 382.65 183.1 Z"/>

<path fill="#FFFFFF" stroke="none" d="
M 382.95 183.8
Q 382.6552734375 183.5083984375 382.65 183.1
L 382.65 156.7
Q 382.6478515625 138.10078125 364.4 137.7
L 146.35 137.7
Q 128.73515625 138.0390625 128.1 155.5
L 128.1 245.55
Q 128.7236328125 263.0109375 146.35 263.35
L 364.35 263.35
Q 382.6478515625 262.96171875 382.65 244.35
L 382.65 222.8
Q 382.653515625 222.3892578125 382.95 222.1 383.2392578125 221.803515625 383.65 221.8
L 420.55 221.8 382.95 183.8 Z"/>
</g>

<g id="Layer1_0_FILL">
<path fill="#000000" stroke="none" d="
M 198.5 230.8
Q 196.8 228.95 194.1 228.95 191.35 228.95 189.6 230.85 187.85 232.7 187.85 236.1 187.85 239.4 189.6 241.2 191.3 243 194.25 243 196.6 243 198.1 241.85 199.6 240.75 200.15 238.65
L 197.8 238.4
Q 197.3 239.8 196.4 240.5 195.5 241.15 194.25 241.15 192.6 241.15 191.45 239.95 190.35 238.8 190.2 236.55
L 200.2 236.55
Q 200.2 236.15 200.2 235.95 200.2 232.65 198.5 230.8
M 194.15 230.85
Q 195.9 230.85 196.95 232.15 197.65 233 197.8 234.7
L 190.35 234.7
Q 190.45 232.95 191.5 231.9 192.6 230.85 194.15 230.85
M 176.7 229.9
Q 176 230.4 175.6 231.2 175.2 231.95 175.2 232.85 175.2 233.85 175.7 234.65 176.15 235.45 177.15 235.9 178.1 236.4 180.6 237 182.45 237.5 182.95 237.8 183.6 238.25 183.6 239 183.6 239.85 182.85 240.5 182.1 241.15 180.5 241.15 178.95 241.15 178.1 240.4 177.25 239.7 177.05 238.35
L 174.8 238.7
Q 175.2 240.85 176.55 241.9 177.9 243 180.55 243 182.1 243 183.35 242.45 184.6 241.9 185.3 240.9 185.95 239.9 185.95 238.75 185.95 237.6 185.4 236.8 184.85 236.05 183.9 235.6 182.95 235.2 180.55 234.55 178.85 234.1 178.55 234 177.95 233.75 177.65 233.35 177.4 233 177.4 232.55 177.4 231.9 178.05 231.35 178.7 230.85 180.3 230.85 181.6 230.85 182.35 231.4 183.05 232 183.2 233.05
L 185.45 232.75
Q 185.25 231.45 184.65 230.65 184.1 229.9 182.9 229.45 181.7 228.95 180.1 228.95 179.05 228.95 178.15 229.25 177.25 229.5 176.7 229.9
M 230.1 228.95
Q 227.35 228.95 225.6 230.85 223.85 232.7 223.85 236.1 223.85 239.4 225.6 241.2 227.3 243 230.25 243 232.6 243 234.1 241.85 235.6 240.75 236.15 238.65
L 233.8 238.4
Q 233.3 239.8 232.4 240.5 231.5 241.15 230.25 241.15 228.6 241.15 227.45 239.95 226.35 238.8 226.2 236.55
L 236.2 236.55
Q 236.2 236.15 236.2 235.95 236.2 232.65 234.5 230.8 232.8 228.95 230.1 228.95
M 232.95 232.15
Q 233.65 233 233.8 234.7
L 226.35 234.7
Q 226.45 232.95 227.5 231.9 228.6 230.85 230.15 230.85 231.9 230.85 232.95 232.15
M 217.2 229.5
Q 216.25 228.95 215.05 228.95 213.4 228.95 212.05 229.85 210.7 230.7 210.05 232.35 209.4 234 209.4 236 209.4 238.05 210.15 239.65 210.85 241.25 212.2 242.1 213.55 243 215.15 243 217.65 243 218.9 241
L 218.9 242.7 221.05 242.7 221.05 224.15 218.75 224.15 218.75 230.8
Q 218.15 230 217.2 229.5
M 215.3 230.85
Q 216.85 230.85 217.9 232.15 218.95 233.45 218.95 236.2 218.95 238.7 217.9 239.9 216.85 241.15 215.4 241.15 213.9 241.15 212.8 239.85 211.7 238.6 211.7 236 211.7 233.35 212.75 232.1 213.75 230.85 215.3 230.85
M 259.8 236.1
Q 259.8 239.4 261.55 241.2 263.25 243 266.2 243 268.55 243 270.05 241.85 271.55 240.75 272.1 238.65
L 269.75 238.4
Q 269.25 239.8 268.35 240.5 267.45 241.15 266.2 241.15 264.55 241.15 263.4 239.95 262.3 238.8 262.15 236.55
L 272.15 236.55
Q 272.15 236.15 272.15 235.95 272.15 232.65 270.45 230.8 268.75 228.95 266.05 228.95 263.3 228.95 261.55 230.85 259.8 232.7 259.8 236.1
M 268.9 232.15
Q 269.6 233 269.75 234.7
L 262.3 234.7
Q 262.4 232.95 263.45 231.9 264.55 230.85 266.1 230.85 267.85 230.85 268.9 232.15
M 254.7 230.8
Q 254.1 230 253.15 229.5 252.2 228.95 251 228.95 249.35 228.95 248 229.85 246.65 230.7 246 232.35 245.35 234 245.35 236 245.35 238.05 246.1 239.65 246.8 241.25 248.15 242.1 249.5 243 251.1 243 253.6 243 254.85 241
L 254.85 242.7 257 242.7 257 224.15 254.7 224.15 254.7 230.8
M 248.7 232.1
Q 249.7 230.85 251.25 230.85 252.8 230.85 253.85 232.15 254.9 233.45 254.9 236.2 254.9 238.7 253.85 239.9 252.8 241.15 251.35 241.15 249.85 241.15 248.75 239.85 247.65 238.6 247.65 236 247.65 233.35 248.7 232.1
M 311.75 229.3
L 309.45 229.3 309.45 242.7 311.75 242.7 311.75 229.3
M 309.45 224.15
L 309.45 226.8 311.75 226.8 311.75 224.15 309.45 224.15
M 284.65 232.75
Q 284.45 231.45 283.85 230.65 283.3 229.9 282.1 229.45 280.9 228.95 279.3 228.95 278.25 228.95 277.35 229.25 276.45 229.5 275.9 229.9 275.2 230.4 274.8 231.2 274.4 231.95 274.4 232.85 274.4 233.85 274.9 234.65 275.35 235.45 276.35 235.9 277.3 236.4 279.8 237 281.65 237.5 282.15 237.8 282.8 238.25 282.8 239 282.8 239.85 282.05 240.5 281.3 241.15 279.7 241.15 278.15 241.15 277.3 240.4 276.45 239.7 276.25 238.35
L 274 238.7
Q 274.4 240.85 275.75 241.9 277.1 243 279.75 243 281.3 243 282.55 242.45 283.8 241.9 284.5 240.9 285.15 239.9 285.15 238.75 285.15 237.6 284.6 236.8 284.05 236.05 283.1 235.6 282.15 235.2 279.75 234.55 278.05 234.1 277.75 234 277.15 233.75 276.85 233.35 276.6 233 276.6 232.55 276.6 231.9 277.25 231.35 277.9 230.85 279.5 230.85 280.8 230.85 281.55 231.4 282.25 232 282.4 233.05
L 284.65 232.75
M 298.6 231.95
Q 298.4 231 297.9 230.4 297.4 229.8 296.35 229.4 295.25 228.95 293.55 228.95 291.8 228.95 290.5 229.45 289.15 229.9 288.5 230.8 287.8 231.7 287.5 233.1
L 289.7 233.4
Q 290.05 232 290.85 231.4 291.6 230.85 293.2 230.85 294.9 230.85 295.8 231.65 296.45 232.2 296.45 233.6 296.45 233.7 296.45 234.2 295.15 234.65 292.35 234.95 291 235.15 290.35 235.3 289.45 235.55 288.7 236.05 288 236.55 287.55 237.35 287.1 238.15 287.1 239.15 287.1 240.85 288.25 241.95 289.45 243 291.65 243 293 243 294.2 242.55 295.35 242.1 296.6 241.05 296.7 242 297.05 242.7
L 299.45 242.7
Q 299 241.95 298.9 241.1 298.75 240.25 298.75 237.05
L 298.75 234.05
Q 298.75 232.5 298.6 231.95
M 292.2 241.2
Q 290.9 241.2 290.2 240.6 289.5 240 289.5 239.1 289.5 238.5 289.85 238 290.15 237.55 290.75 237.3 291.3 237 292.7 236.8 295.2 236.45 296.45 235.95
L 296.45 236.8
Q 296.45 238.3 296.05 239.05 295.6 240.05 294.55 240.65 293.55 241.2 292.2 241.2
M 303.05 225.85
Q 302.8 226.5 302.8 227.85
L 302.8 229.3 300.8 229.3 300.8 231.05 302.8 231.05 302.8 242.7 305.05 242.7 305.05 231.05 307.7 231.05 307.7 229.3 305.05 229.3 305.05 228.05
Q 305.05 226.8 305.5 226.4 305.9 225.95 306.95 225.95 307.6 225.95 308.3 226.05
L 308.65 224.1
Q 307.5 223.85 306.5 223.85 305 223.85 304.2 224.4 303.35 224.95 303.05 225.85
M 296.8 204.05
Q 296.8 200.85 295.05 199.05 293.25 197.2 290.5 197.2 288 197.2 286.3 198.7 284.2 200.5 284.2 204.25 284.2 207.65 285.95 209.45 287.7 211.25 290.5 211.25 292.25 211.25 293.75 210.45 295.25 209.6 296 208.15 296.8 206.65 296.8 204.05
M 286.55 204.25
Q 286.55 201.65 287.65 200.4 288.8 199.1 290.5 199.1 292.2 199.1 293.3 200.4 294.45 201.65 294.45 204.15 294.45 206.8 293.3 208.1 292.2 209.4 290.5 209.4 288.8 209.4 287.65 208.1 286.55 206.8 286.55 204.25
M 161.95 230.8
Q 161.25 231.7 160.95 233.1
L 163.15 233.4
Q 163.5 232 164.3 231.4 165.05 230.85 166.65 230.85 168.35 230.85 169.25 231.65 169.9 232.2 169.9 233.6 169.9 233.7 169.9 234.2 168.6 234.65 165.8 234.95 164.45 235.15 163.8 235.3 162.9 235.55 162.15 236.05 161.45 236.55 161 237.35 160.55 238.15 160.55 239.15 160.55 240.85 161.7 241.95 162.9 243 165.1 243 166.45 243 167.65 242.55 168.8 242.1 170.05 241.05 170.15 242 170.5 242.7
L 172.9 242.7
Q 172.45 241.95 172.35 241.1 172.2 240.25 172.2 237.05
L 172.2 234.05
Q 172.2 232.5 172.05 231.95 171.85 231 171.35 230.4 170.85 229.8 169.8 229.4 168.7 228.95 167 228.95 165.25 228.95 163.95 229.45 162.6 229.9 161.95 230.8
M 169.9 235.95
L 169.9 236.8
Q 169.9 238.3 169.5 239.05 169.05 240.05 168 240.65 167 241.2 165.65 241.2 164.35 241.2 163.65 240.6 162.95 240 162.95 239.1 162.95 238.5 163.3 238 163.6 237.55 164.2 237.3 164.75 237 166.15 236.8 168.65 236.45 169.9 235.95
M 160.15 226.05
L 160.5 224.1
Q 159.35 223.85 158.35 223.85 156.85 223.85 156.05 224.4 155.2 224.95 154.9 225.85 154.65 226.5 154.65 227.85
L 154.65 229.3 152.65 229.3 152.65 231.05 154.65 231.05 154.65 242.7 156.9 242.7 156.9 231.05 159.55 231.05 159.55 229.3 156.9 229.3 156.9 228.05
Q 156.9 226.8 157.35 226.4 157.75 225.95 158.8 225.95 159.45 225.95 160.15 226.05
M 156.2 197.55
L 154.1 197.55 154.1 216.1 156.4 216.1 156.4 209.55
Q 156.95 210.3 157.85 210.75 158.75 211.25 159.9 211.25 161.45 211.25 162.9 210.4 164.3 209.5 165.05 207.85 165.75 206.2 165.75 204.15 165.75 202.2 165.1 200.6 164.4 199 163.1 198.1 161.8 197.2 160.05 197.2 158.75 197.2 157.85 197.75 156.9 198.25 156.2 199.25
L 156.2 197.55
M 156.15 204.3
Q 156.15 201.7 157.3 200.35 158.4 199 159.85 199 161.3 199 162.4 200.3 163.45 201.55 163.45 204.1 163.45 206.8 162.35 208.1 161.25 209.4 159.75 209.4 158.25 209.4 157.2 208.15 156.15 206.9 156.15 204.3
M 320.8 197.65
Q 319.7 197.2 318 197.2 316.25 197.2 314.95 197.7 313.6 198.15 312.95 199.05 312.25 199.95 311.95 201.35
L 314.15 201.65
Q 314.5 200.25 315.3 199.65 316.05 199.1 317.65 199.1 319.35 199.1 320.25 199.9 320.9 200.45 320.9 201.85 320.9 201.95 320.9 202.45 319.6 202.9 316.8 203.2 315.45 203.4 314.8 203.55 313.9 203.8 313.15 204.3 312.45 204.8 312 205.6 311.55 206.4 311.55 207.4 311.55 209.1 312.7 210.2 313.9 211.25 316.1 211.25 317.45 211.25 318.65 210.8 319.8 210.35 321.05 209.3 321.15 210.25 321.5 210.95
L 323.9 210.95
Q 323.45 210.2 323.35 209.35 323.2 208.5 323.2 205.3
L 323.2 202.3
Q 323.2 200.75 323.05 200.2 322.85 199.25 322.35 198.65 321.85 198.05 320.8 197.65
M 316.65 209.45
Q 315.35 209.45 314.65 208.85 313.95 208.25 313.95 207.35 313.95 206.75 314.3 206.25 314.6 205.8 315.2 205.55 315.75 205.25 317.15 205.05 319.65 204.7 320.9 204.2
L 320.9 205.05
Q 320.9 206.55 320.5 207.3 320.05 208.3 319 208.9 318 209.45 316.65 209.45
M 300.5 197.55
L 298.1 197.55 303.2 210.95 305.3 210.95 310.4 197.55 308.05 197.55 305.05 205.7
Q 304.55 207.2 304.2 208.25 303.85 206.85 303.35 205.55
L 300.5 197.55
M 292.75 167.25
Q 292.05 168.15 291.75 169.55
L 293.95 169.85
Q 294.3 168.45 295.1 167.85 295.85 167.3 297.45 167.3 299.15 167.3 300.05 168.1 300.7 168.65 300.7 170.05 300.7 170.15 300.7 170.65 299.4 171.1 296.6 171.4 295.25 171.6 294.6 171.75 293.7 172 292.95 172.5 292.25 173 291.8 173.8 291.35 174.6 291.35 175.6 291.35 177.3 292.5 178.4 293.7 179.45 295.9 179.45 297.25 179.45 298.45 179 299.6 178.55 300.85 177.5 300.95 178.45 301.3 179.15
L 303.7 179.15
Q 303.25 178.4 303.15 177.55 303 176.7 303 173.5
L 303 170.5
Q 303 168.95 302.85 168.4 302.65 167.45 302.15 166.85 301.65 166.25 300.6 165.85 299.5 165.4 297.8 165.4 296.05 165.4 294.75 165.9 293.4 166.35 292.75 167.25
M 300.7 173.25
Q 300.7 174.75 300.3 175.5 299.85 176.5 298.8 177.1 297.8 177.65 296.45 177.65 295.15 177.65 294.45 177.05 293.75 176.45 293.75 175.55 293.75 174.95 294.1 174.45 294.4 174 295 173.75 295.55 173.45 296.95 173.25 299.45 172.9 300.7 172.4
L 300.7 173.25
M 272.75 197.55
L 270.7 197.55 270.7 210.95 273 210.95 273 203.6
Q 273 201.05 274.05 200.1 275.1 199.2 276.55 199.2 277.45 199.2 278.15 199.6 278.8 200 279.05 200.7 279.35 201.4 279.35 202.8
L 279.35 210.95 281.6 210.95 281.6 202.7
Q 281.6 201.1 281.5 200.5 281.3 199.5 280.8 198.8 280.3 198.1 279.25 197.65 278.25 197.2 277.05 197.2 274.25 197.2 272.75 199.45
L 272.75 197.55
M 257.6 197.65
Q 256.5 197.2 254.8 197.2 253.05 197.2 251.75 197.7 250.4 198.15 249.75 199.05 249.05 199.95 248.75 201.35
L 250.95 201.65
Q 251.3 200.25 252.1 199.65 252.85 199.1 254.45 199.1 256.15 199.1 257.05 199.9 257.7 200.45 257.7 201.85 257.7 201.95 257.7 202.45 256.4 202.9 253.6 203.2 252.25 203.4 251.6 203.55 250.7 203.8 249.95 204.3 249.25 204.8 248.8 205.6 248.35 206.4 248.35 207.4 248.35 209.1 249.5 210.2 250.7 211.25 252.9 211.25 254.25 211.25 255.45 210.8 256.6 210.35 257.85 209.3 257.95 210.25 258.3 210.95
L 260.7 210.95
Q 260.25 210.2 260.15 209.35 260 208.5 260 205.3
L 260 202.3
Q 260 200.75 259.85 200.2 259.65 199.25 259.15 198.65 258.65 198.05 257.6 197.65
M 257.3 207.3
Q 256.85 208.3 255.8 208.9 254.8 209.45 253.45 209.45 252.15 209.45 251.45 208.85 250.75 208.25 250.75 207.35 250.75 206.75 251.1 206.25 251.4 205.8 252 205.55 252.55 205.25 253.95 205.05 256.45 204.7 257.7 204.2
L 257.7 205.05
Q 257.7 206.55 257.3 207.3
M 250.15 165.4
Q 247.65 165.4 245.95 166.9 243.85 168.7 243.85 172.45 243.85 175.85 245.6 177.65 247.35 179.45 250.15 179.45 251.9 179.45 253.4 178.65 254.9 177.8 255.65 176.35 256.45 174.85 256.45 172.25 256.45 169.05 254.7 167.25 252.9 165.4 250.15 165.4
M 250.15 167.3
Q 251.85 167.3 252.95 168.6 254.1 169.85 254.1 172.35 254.1 175 252.95 176.3 251.85 177.6 250.15 177.6 248.45 177.6 247.3 176.3 246.2 175 246.2 172.45 246.2 169.85 247.3 168.6 248.45 167.3 250.15 167.3
M 248.9 164.05
L 250.75 164.05 253.55 160.5 250.55 160.5 248.9 164.05
M 266.3 165.9
Q 265.1 165.4 263.5 165.4 262.45 165.4 261.55 165.7 260.65 165.95 260.1 166.35 259.4 166.85 259 167.65 258.6 168.4 258.6 169.3 258.6 170.3 259.1 171.1 259.55 171.9 260.55 172.35 261.5 172.85 264 173.45 265.85 173.95 266.35 174.25 267 174.7 267 175.45 267 176.3 266.25 176.95 265.5 177.6 263.9 177.6 262.35 177.6 261.5 176.85 260.65 176.15 260.45 174.8
L 258.2 175.15
Q 258.6 177.3 259.95 178.35 261.3 179.45 263.95 179.45 265.5 179.45 266.75 178.9 268 178.35 268.7 177.35 269.35 176.35 269.35 175.2 269.35 174.05 268.8 173.25 268.25 172.5 267.3 172.05 266.35 171.65 263.95 171 262.25 170.55 261.95 170.45 261.35 170.2 261.05 169.8 260.8 169.45 260.8 169 260.8 168.35 261.45 167.8 262.1 167.3 263.7 167.3 265 167.3 265.75 167.85 266.45 168.45 266.6 169.5
L 268.85 169.2
Q 268.65 167.9 268.05 167.1 267.5 166.35 266.3 165.9
M 280.3 165.75
L 277.9 165.75 283 179.15 285.1 179.15 290.2 165.75 287.85 165.75 284.85 173.9
Q 284.35 175.4 284 176.45 283.65 175.05 283.15 173.75
L 280.3 165.75
M 229.5 197.55
L 227.45 197.55 227.45 210.95 229.75 210.95 229.75 204
Q 229.75 202.15 230.1 201.2 230.45 200.2 231.3 199.7 232.1 199.2 233.05 199.2 234.3 199.2 234.9 199.95 235.45 200.7 235.45 202.25
L 235.45 210.95 237.7 210.95 237.7 203.15
Q 237.7 201.1 238.65 200.15 239.6 199.2 241 199.2 241.8 199.2 242.35 199.55 242.95 199.95 243.15 200.55 243.4 201.15 243.4 202.5
L 243.4 210.95 245.65 210.95 245.65 201.75
Q 245.65 199.45 244.55 198.35 243.5 197.2 241.5 197.2 238.95 197.2 237.35 199.55 236.95 198.45 236 197.85 235.05 197.2 233.55 197.2 232.2 197.2 231.15 197.85 230.1 198.4 229.5 199.4
L 229.5 197.55
M 215.3 197.55
L 213 197.55 213 205.85
Q 213 207.3 213.15 207.95 213.35 208.95 213.85 209.65 214.35 210.35 215.4 210.8 216.4 211.25 217.6 211.25 220.3 211.25 221.85 209
L 221.85 210.95 223.9 210.95 223.9 197.55 221.6 197.55 221.6 204.7
Q 221.6 206.45 221.25 207.35 220.85 208.25 219.95 208.8 219.05 209.3 218.05 209.3 217.05 209.3 216.35 208.8 215.65 208.25 215.4 207.35 215.3 206.75 215.3 204.95
L 215.3 197.55
M 209.4 167.25
Q 208.7 168.15 208.4 169.55
L 210.6 169.85
Q 210.95 168.45 211.75 167.85 212.5 167.3 214.1 167.3 215.8 167.3 216.7 168.1 217.35 168.65 217.35 170.05 217.35 170.15 217.35 170.65 216.05 171.1 213.25 171.4 211.9 171.6 211.25 171.75 210.35 172 209.6 172.5 208.9 173 208.45 173.8 208 174.6 208 175.6 208 177.3 209.15 178.4 210.35 179.45 212.55 179.45 213.9 179.45 215.1 179 216.25 178.55 217.5 177.5 217.6 178.45 217.95 179.15
L 220.35 179.15
Q 219.9 178.4 219.8 177.55 219.65 176.7 219.65 173.5
L 219.65 170.5
Q 219.65 168.95 219.5 168.4 219.3 167.45 218.8 166.85 218.3 166.25 217.25 165.85 216.15 165.4 214.45 165.4 212.7 165.4 211.4 165.9 210.05 166.35 209.4 167.25
M 217.35 173.25
Q 217.35 174.75 216.95 175.5 216.5 176.5 215.45 177.1 214.45 177.65 213.1 177.65 211.8 177.65 211.1 177.05 210.4 176.45 210.4 175.55 210.4 174.95 210.75 174.45 211.05 174 211.65 173.75 212.2 173.45 213.6 173.25 216.1 172.9 217.35 172.4
L 217.35 173.25
M 232.4 165.75
L 230.35 165.75 230.35 179.15 232.65 179.15 232.65 171.8
Q 232.65 169.25 233.7 168.3 234.75 167.4 236.2 167.4 237.1 167.4 237.8 167.8 238.45 168.2 238.7 168.9 239 169.6 239 171
L 239 179.15 241.25 179.15 241.25 170.9
Q 241.25 169.3 241.15 168.7 240.95 167.7 240.45 167 239.95 166.3 238.9 165.85 237.9 165.4 236.7 165.4 233.9 165.4 232.4 167.65
L 232.4 165.75
M 200 197.65
Q 198.9 197.2 197.2 197.2 195.45 197.2 194.15 197.7 192.8 198.15 192.15 199.05 191.45 199.95 191.15 201.35
L 193.35 201.65
Q 193.7 200.25 194.5 199.65 195.25 199.1 196.85 199.1 198.55 199.1 199.45 199.9 200.1 200.45 200.1 201.85 200.1 201.95 200.1 202.45 198.8 202.9 196 203.2 194.65 203.4 194 203.55 193.1 203.8 192.35 204.3 191.65 204.8 191.2 205.6 190.75 206.4 190.75 207.4 190.75 209.1 191.9 210.2 193.1 211.25 195.3 211.25 196.65 211.25 197.85 210.8 199 210.35 200.25 209.3 200.35 210.25 200.7 210.95
L 203.1 210.95
Q 202.65 210.2 202.55 209.35 202.4 208.5 202.4 205.3
L 202.4 202.3
Q 202.4 200.75 202.25 200.2 202.05 199.25 201.55 198.65 201.05 198.05 200 197.65
M 195.85 209.45
Q 194.55 209.45 193.85 208.85 193.15 208.25 193.15 207.35 193.15 206.75 193.5 206.25 193.8 205.8 194.4 205.55 194.95 205.25 196.35 205.05 198.85 204.7 200.1 204.2
L 200.1 205.05
Q 200.1 206.55 199.7 207.3 199.25 208.3 198.2 208.9 197.2 209.45 195.85 209.45
M 190.15 197.95
Q 188.95 197.2 187.8 197.2 187 197.2 186.35 197.7 185.65 198.15 184.9 199.55
L 184.9 197.55 182.85 197.55 182.85 210.95 185.1 210.95 185.1 203.9
Q 185.1 202.5 185.5 201.25 185.75 200.45 186.35 200.05 186.95 199.55 187.65 199.55 188.5 199.55 189.35 200.05
L 190.15 197.95
M 177 197.65
Q 175.9 197.2 174.2 197.2 172.45 197.2 171.15 197.7 169.8 198.15 169.15 199.05 168.45 199.95 168.15 201.35
L 170.35 201.65
Q 170.7 200.25 171.5 199.65 172.25 199.1 173.85 199.1 175.55 199.1 176.45 199.9 177.1 200.45 177.1 201.85 177.1 201.95 177.1 202.45 175.8 202.9 173 203.2 171.65 203.4 171 203.55 170.1 203.8 169.35 204.3 168.65 204.8 168.2 205.6 167.75 206.4 167.75 207.4 167.75 209.1 168.9 210.2 170.1 211.25 172.3 211.25 173.65 211.25 174.85 210.8 176 210.35 177.25 209.3 177.35 210.25 177.7 210.95
L 180.1 210.95
Q 179.65 210.2 179.55 209.35 179.4 208.5 179.4 205.3
L 179.4 202.3
Q 179.4 200.75 179.25 200.2 179.05 199.25 178.55 198.65 178.05 198.05 177 197.65
M 176.7 207.3
Q 176.25 208.3 175.2 208.9 174.2 209.45 172.85 209.45 171.55 209.45 170.85 208.85 170.15 208.25 170.15 207.35 170.15 206.75 170.5 206.25 170.8 205.8 171.4 205.55 171.95 205.25 173.35 205.05 175.85 204.7 177.1 204.2
L 177.1 205.05
Q 177.1 206.55 176.7 207.3
M 164.75 173.55
L 166.9 179.15 169.7 179.15 162.1 160.6 159.5 160.6 152.35 179.15 154.95 179.15 157 173.55 164.75 173.55
M 162.05 166.4
L 164 171.55 157.7 171.55 159.75 166.1
Q 160.4 164.35 160.75 162.55 161.15 164.05 162.05 166.4
M 171.2 168.8
Q 170.5 170.45 170.5 172.35 170.5 175.15 172 177.15 173.5 179.15 176.3 179.15 178.5 179.15 180 177.4 180 179.6 179.85 180.3 179.55 181.45 178.7 182.1 177.8 182.7 176.25 182.7 174.75 182.7 173.9 182.1 173.3 181.6 173.15 180.6
L 170.95 180.25
Q 170.9 182.45 172.35 183.5 173.85 184.6 176.25 184.6 178.25 184.6 179.65 183.85 181.05 183.1 181.7 181.8 182.3 180.45 182.3 177.35
L 182.3 165.75 180.2 165.75 180.2 167.35
Q 178.7 165.4 176.3 165.4 174.5 165.4 173.2 166.3 171.85 167.2 171.2 168.8
M 179.1 168.55
Q 180.2 169.8 180.2 172.25 180.2 174.85 179.15 176.05 178.05 177.25 176.5 177.25 174.9 177.25 173.85 176.05 172.8 174.85 172.8 172.2 172.8 169.75 173.9 168.55 174.95 167.3 176.45 167.3 178 167.3 179.1 168.55
M 202.2 167.75
L 202.2 165.75 200.15 165.75 200.15 179.15 202.4 179.15 202.4 172.1
Q 202.4 170.7 202.8 169.45 203.05 168.65 203.65 168.25 204.25 167.75 204.95 167.75 205.8 167.75 206.65 168.25
L 207.45 166.15
Q 206.25 165.4 205.1 165.4 204.3 165.4 203.65 165.9 202.95 166.35 202.2 167.75
M 187 166.9
Q 184.9 168.7 184.9 172.45 184.9 175.85 186.65 177.65 188.4 179.45 191.2 179.45 192.95 179.45 194.45 178.65 195.95 177.8 196.7 176.35 197.5 174.85 197.5 172.25 197.5 169.05 195.75 167.25 193.95 165.4 191.2 165.4 188.7 165.4 187 166.9
M 187.25 172.45
Q 187.25 169.85 188.35 168.6 189.5 167.3 191.2 167.3 192.9 167.3 194 168.6 195.15 169.85 195.15 172.35 195.15 175 194 176.3 192.9 177.6 191.2 177.6 189.5 177.6 188.35 176.3 187.25 175 187.25 172.45
M 343 224.15
L 343.7 238.1 345.2 238.1 345.85 224.15 343 224.15
M 343.15 240.1
L 343.15 242.7 345.75 242.7 345.75 240.1 343.15 240.1
M 326.15 239.9
Q 326.95 238.4 326.95 235.8 326.95 232.6 325.2 230.8 323.4 228.95 320.65 228.95 318.15 228.95 316.45 230.45 314.35 232.25 314.35 236 314.35 239.4 316.1 241.2 317.85 243 320.65 243 322.4 243 323.9 242.2 325.4 241.35 326.15 239.9
M 317.8 232.15
Q 318.95 230.85 320.65 230.85 322.35 230.85 323.45 232.15 324.6 233.4 324.6 235.9 324.6 238.55 323.45 239.85 322.35 241.15 320.65 241.15 318.95 241.15 317.8 239.85 316.7 238.55 316.7 236 316.7 233.4 317.8 232.15
M 338.55 230.65
Q 338 229.9 336.8 229.45 335.6 228.95 334 228.95 332.95 228.95 332.05 229.25 331.15 229.5 330.6 229.9 329.9 230.4 329.5 231.2 329.1 231.95 329.1 232.85 329.1 233.85 329.6 234.65 330.05 235.45 331.05 235.9 332 236.4 334.5 237 336.35 237.5 336.85 237.8 337.5 238.25 337.5 239 337.5 239.85 336.75 240.5 336 241.15 334.4 241.15 332.85 241.15 332 240.4 331.15 239.7 330.95 238.35
L 328.7 238.7
Q 329.1 240.85 330.45 241.9 331.8 243 334.45 243 336 243 337.25 242.45 338.5 241.9 339.2 240.9 339.85 239.9 339.85 238.75 339.85 237.6 339.3 236.8 338.75 236.05 337.8 235.6 336.85 235.2 334.45 234.55 332.75 234.1 332.45 234 331.85 233.75 331.55 233.35 331.3 233 331.3 232.55 331.3 231.9 331.95 231.35 332.6 230.85 334.2 230.85 335.5 230.85 336.25 231.4 336.95 232 337.1 233.05
L 339.35 232.75
Q 339.15 231.45 338.55 230.65
M 324.7 179.15
L 324.7 169.95
Q 324.7 167.65 323.6 166.55 322.55 165.4 320.55 165.4 318 165.4 316.4 167.75 316 166.65 315.05 166.05 314.1 165.4 312.6 165.4 311.25 165.4 310.2 166.05 309.15 166.6 308.55 167.6
L 308.55 165.75 306.5 165.75 306.5 179.15 308.8 179.15 308.8 172.2
Q 308.8 170.35 309.15 169.4 309.5 168.4 310.35 167.9 311.15 167.4 312.1 167.4 313.35 167.4 313.95 168.15 314.5 168.9 314.5 170.45
L 314.5 179.15 316.75 179.15 316.75 171.35
Q 316.75 169.3 317.7 168.35 318.65 167.4 320.05 167.4 320.85 167.4 321.4 167.75 322 168.15 322.2 168.75 322.45 169.35 322.45 170.7
L 322.45 179.15 324.7 179.15
M 333.6 165.4
Q 331.1 165.4 329.4 166.9 327.3 168.7 327.3 172.45 327.3 175.85 329.05 177.65 330.8 179.45 333.6 179.45 335.35 179.45 336.85 178.65 338.35 177.8 339.1 176.35 339.9 174.85 339.9 172.25 339.9 169.05 338.15 167.25 336.35 165.4 333.6 165.4
M 330.75 168.6
Q 331.9 167.3 333.6 167.3 335.3 167.3 336.4 168.6 337.55 169.85 337.55 172.35 337.55 175 336.4 176.3 335.3 177.6 333.6 177.6 331.9 177.6 330.75 176.3 329.65 175 329.65 172.45 329.65 169.85 330.75 168.6
M 346.9 165.4
Q 345.85 165.4 344.95 165.7 344.05 165.95 343.5 166.35 342.8 166.85 342.4 167.65 342 168.4 342 169.3 342 170.3 342.5 171.1 342.95 171.9 343.95 172.35 344.9 172.85 347.4 173.45 349.25 173.95 349.75 174.25 350.4 174.7 350.4 175.45 350.4 176.3 349.65 176.95 348.9 177.6 347.3 177.6 345.75 177.6 344.9 176.85 344.05 176.15 343.85 174.8
L 341.6 175.15
Q 342 177.3 343.35 178.35 344.7 179.45 347.35 179.45 348.9 179.45 350.15 178.9 351.4 178.35 352.1 177.35 352.75 176.35 352.75 175.2 352.75 174.05 352.2 173.25 351.65 172.5 350.7 172.05 349.75 171.65 347.35 171 345.65 170.55 345.35 170.45 344.75 170.2 344.45 169.8 344.2 169.45 344.2 169 344.2 168.35 344.85 167.8 345.5 167.3 347.1 167.3 348.4 167.3 349.15 167.85 349.85 168.45 350 169.5
L 352.25 169.2
Q 352.05 167.9 351.45 167.1 350.9 166.35 349.7 165.9 348.5 165.4 346.9 165.4 Z"/>
</g>
</defs>

<g transform="matrix( 1, 0, 0, 1, -126,-135.5) ">
<use xlink:href="#Layer2_0_FILL"/>
</g>

<g transform="matrix( 1, 0, 0, 1, -123.2,-136.75) ">
<use xlink:href="#Layer1_0_FILL"/>
</g>
</svg>
