
<svg xmlns="http://www.w3.org/2000/svg" version="1.1" xmlns:xlink="http://www.w3.org/1999/xlink" preserveAspectRatio="none" x="0px" y="0px" width="285px" height="57px" viewBox="0 0 285 57">
<defs>
<filter id="Filter_1" x="-20%" y="-20%" width="140%" height="140%" color-interpolation-filters="sRGB">
<feColorMatrix in="SourceGraphic" type="matrix" values="1 0 0 0 0 0 1 0 0 0 0 0 1 0 0 0 0 0 0.2 0" result="result1"/>
</filter>

<g id="sds_0_Layer0_0_FILL">
<path fill="#FFFFFF" stroke="none" d="
M 282.25 44.85
L 282.25 9.35
Q 282.25 0.1 273.05 0
L 9.35 0
Q 0 0 0 9.35
L 0 44.85
Q 0 54.2 9.35 54.2
L 273.05 54.2
Q 282.25 54.1 282.25 44.85 Z"/>
</g>

<g id="Layer0_0_MEMBER_1_FILL">
<path fill="#FFFFFF" stroke="none" d="
M 417.15 182.75
Q 417.14453125 172.5080078125 406.95 172.4
L 143.25 172.4
Q 132.9001953125 172.4 132.9 182.75
L 132.9 218.25
Q 132.9 228.5998046875 143.25 228.6
L 406.95 228.6
Q 417.1419921875 228.4892578125 417.15 218.25
L 417.15 182.75
M 406.95 174.4
Q 415.15546875 174.491796875 415.15 182.75
L 415.15 218.25
Q 415.1580078125 226.5107421875 406.95 226.6
L 143.25 226.6
Q 134.9 226.6 134.9 218.25
L 134.9 182.75
Q 134.9 174.4 143.25 174.4
L 406.95 174.4 Z"/>
</g>

<g id="Layer0_0_MEMBER_2_FILL">
<path fill="#FFFFFF" stroke="none" d="
M 290.3 188.95
L 290.35 188.95 308.7 215.95 312.35 215.95 312.35 185.1 309.55 185.1 309.55 212.1 309.45 212.1 291.1 185.1 287.5 185.1 287.5 215.95 290.3 215.95 290.3 188.95
M 261.5 187.7
L 271.8 187.7 271.8 185.1 248.4 185.1 248.4 187.7 258.7 187.7 258.7 215.95 261.5 215.95 261.5 187.7
M 279.35 185.1
L 276.55 185.1 276.55 215.95 279.35 215.95 279.35 185.1
M 221.7 188.95
L 221.75 188.95 240.1 215.95 243.75 215.95 243.75 185.1 240.95 185.1 240.95 212.1 240.85 212.1 222.5 185.1 218.9 185.1 218.9 215.95 221.7 215.95 221.7 188.95
M 185.8 188.9
Q 183.7 191.1 182.6 194.05 181.5 197.05 181.5 200.5 181.5 204 182.6 207 183.7 210 185.8 212.15 187.9 214.35 190.75 215.55 193.65 216.75 197.05 216.75 200.45 216.75 203.3 215.55 206.2 214.35 208.25 212.15 210.35 210 211.5 207 212.6 204 212.6 200.5 212.6 197.05 211.5 194.05 210.35 191.1 208.25 188.9 206.2 186.7 203.3 185.5 200.45 184.3 197.05 184.3 193.65 184.3 190.75 185.5 187.9 186.7 185.8 188.9
M 197.05 186.95
Q 199.95 186.95 202.3 187.95 204.65 188.95 206.35 190.8 208.05 192.65 208.9 195.15 209.8 197.65 209.8 200.5 209.8 203.4 208.9 205.9 208 208.4 206.35 210.25 204.7 212.1 202.3 213.1 199.95 214.1 197.05 214.1 194.15 214.1 191.8 213.1 189.45 212.1 187.75 210.25 186.05 208.4 185.2 205.9 184.3 203.4 184.3 200.5 184.3 197.65 185.2 195.15 186.05 192.65 187.75 190.8 189.4 188.95 191.75 187.95 194.15 186.95 197.05 186.95
M 167.1 186.95
Q 169.5 186.95 171.7 188 173.8 189.05 175.2 191.1
L 177.5 189.15
Q 175.55 186.65 172.95 185.5 170.3 184.3 167.1 184.3 163.7 184.3 160.8 185.5 157.95 186.7 155.85 188.9 153.75 191.1 152.65 194.05 151.55 197.05 151.55 200.5 151.55 204 152.65 207 153.75 210 155.85 212.15 157.95 214.35 160.8 215.55 163.7 216.75 167.1 216.75 170.55 216.75 173.4 215.4 176.25 214.05 178.3 211.1
L 176 209.35
Q 174.5 211.65 172.05 212.9 169.55 214.1 167.1 214.1 164.2 214.1 161.85 213.1 159.5 212.1 157.8 210.25 156.1 208.4 155.25 205.9 154.35 203.4 154.35 200.5 154.35 197.65 155.25 195.15 156.1 192.65 157.8 190.8 159.45 188.95 161.8 187.95 164.2 186.95 167.1 186.95
M 389.85 185.25
Q 388.3 185.1 386.7 185.1
L 378.8 185.1 378.8 215.95 381.6 215.95 381.6 201.3 386.8 201.3 395.3 215.95 398.5 215.95 389.7 201.15
Q 391.15 200.95 392.45 200.5 393.75 200.05 394.9 199.15 396 198.25 396.7 196.8 397.4 195.3 397.4 193.2 397.4 190.4 396.2 188.65 394.95 186.95 393.2 186.2 391.4 185.45 389.85 185.25
M 391.05 188.25
Q 392.45 188.75 393.2 189.6 394 190.4 394.3 191.35 394.6 192.3 394.6 193.2 394.6 194.1 394.3 195.05 394 196 393.25 196.8 392.5 197.65 391.05 198.15 389.65 198.7 387.55 198.7
L 381.6 198.7 381.6 187.7 387.55 187.7
Q 389.65 187.7 391.05 188.25
M 342.05 185.1
L 339.25 185.1 339.25 203.4
Q 339.25 205.3 338.9 207.1 338.6 208.95 337.7 210.5 336.85 212.1 335.2 213.1 333.55 214.1 331.05 214.1 328.55 214.1 326.9 213.1 325.25 212.1 324.4 210.5 323.5 208.95 323.2 207.1 322.9 205.3 322.9 203.4
L 322.9 185.1 320.05 185.1 320.05 204.15
Q 320.05 206.7 320.7 208.95 321.25 211.25 322.55 213 323.8 214.75 325.95 215.75 328.05 216.75 331.05 216.75 334.05 216.75 336.15 215.75 338.3 214.75 339.6 213 340.9 211.25 341.45 208.95 342.05 206.7 342.05 204.15
L 342.05 185.1
M 361.85 185.1
L 358.95 185.1 345.8 215.95 348.75 215.95 352.15 207.75 368.1 207.75 371.35 215.95 374.5 215.95 361.85 185.1
M 367.1 205.15
L 353.25 205.15 360.25 188.25 367.1 205.15 Z"/>
</g>
</defs>

<g transform="matrix( 1, 0, 0, 1, 1.4,1.4) ">
<g transform="matrix( 1, 0, 0, 1, 0,0) ">
<use filter="url(#Filter_1)" xlink:href="#sds_0_Layer0_0_FILL"/>
</g>
</g>

<g transform="matrix( 1, 0, 0, 1, -132.5,-172) ">
<use xlink:href="#Layer0_0_MEMBER_1_FILL"/>
</g>

<g transform="matrix( 1, 0, 0, 1, -132.5,-172) ">
<use xlink:href="#Layer0_0_MEMBER_2_FILL"/>
</g>
</svg>
