
<svg xmlns="http://www.w3.org/2000/svg" version="1.1" xmlns:xlink="http://www.w3.org/1999/xlink" preserveAspectRatio="none" x="0px" y="0px" width="515px" height="150px" viewBox="0 0 515 150">
<defs>
<linearGradient id="Gradient_1" gradientUnits="userSpaceOnUse" x1="-528.8000000000001" y1="96.64999999999998" x2="759.5000000000001" y2="418.15" spreadMethod="pad">
<stop  offset="0%" stop-color="#460113"/>

<stop  offset="59.6078431372549%" stop-color="#7E1327"/>

<stop  offset="97.25490196078431%" stop-color="#490416"/>
</linearGradient>

<radialGradient id="Gradient_2" gradientUnits="userSpaceOnUse" cx="0" cy="0" r="7.162499999999994" fx="0" fy="0" gradientTransform="matrix( 1.0000000000000009, 0, 0, 1.0000000000000009, 69.8,56.6) " spreadMethod="pad">
<stop  offset="0%" stop-color="#00CCFF"/>

<stop  offset="79.2156862745098%" stop-color="#0066CC"/>
</radialGradient>

<radialGradient id="Gradient_3" gradientUnits="userSpaceOnUse" cx="0" cy="0" r="5.140646846458132" fx="0" fy="0" gradientTransform="matrix( -0.919145030018059, 0.39391929857916813, 0.35501368884295403, 0.9993878500990007, 93.2,52.55) " spreadMethod="pad">
<stop  offset="0%" stop-color="#00CCFF"/>

<stop  offset="79.2156862745098%" stop-color="#0066CC"/>
</radialGradient>

<linearGradient id="Gradient_4" gradientUnits="userSpaceOnUse" x1="73.0125" y1="145.925" x2="75.9875" y2="62.574999999999996" spreadMethod="pad">
<stop  offset="0%" stop-color="#666666"/>

<stop  offset="100%" stop-color="#FFFFFF"/>
</linearGradient>

<g id="Layer7_0_FILL">
<path fill="#6E0E21" stroke="none" d="
M 145.35 29.75
Q 145.35 11.25 131.6 6.45 126.85 4.8 120.4 4.8
L 29.35 4.8
Q 17.4 4.8 11.15 10.55 4.4 16.75 4.4 29.75
L 4.4 120.8
Q 4.4 133.8 11.15 140 17.4 145.75 29.35 145.75
L 120.4 145.75
Q 126.85 145.75 131.6 144.1 145.35 139.3 145.35 120.8
L 145.35 29.75 Z"/>

<path fill="#FFFFFF" stroke="none" d="
M 513.05 40.2
Q 513.05 39.199609375 513 38.25 512.523828125 29.1806640625 507.5 24.7 505.583203125 22.9658203125 503 21.9 502.753125 21.79609375 502.5 21.7 501.3142578125 21.2513671875 500 20.9 497.213671875 20.26796875 493.85 20.2
L 229.8 20.2
Q 210.55 20.6 210.55 40.2
L 210.55 56.3 167.1 82.5 210.55 82.5 210.55 93.25
Q 210.55 112.85 229.8 113.25
L 493.85 113.25
Q 497.213671875 113.18203125 500 112.5 501.3142578125 112.1986328125 502.5 111.75 502.753125 111.65390625 503 111.55 505.583203125 110.4884765625 507.5 108.8 512.523828125 104.2740234375 513 95.2 513.05 94.250390625 513.05 93.25
L 513.05 40.2 Z"/>
</g>

<g id="Layer6_0_FILL">
<path fill="url(#Gradient_1)" stroke="none" d="
M 55.8 4.8
L 55.8 145.75 88.35 145.75 88.35 4.8 55.8 4.8
M 38.8 4.8
L 30.3 4.8 30.3 145.75 38.8 145.75 38.8 4.8
M 11.85 10.55
Q 5.1 16.75 5.1 29.75
L 5.1 120.8
Q 5.1 133.8 11.85 140
L 11.85 10.55
M 115.3 4.8
L 106.8 4.8 106.8 145.75 115.3 145.75 115.3 4.8
M 146.05 29.75
Q 146.05 11.25 132.3 6.45
L 132.3 144.1
Q 146.05 139.3 146.05 120.8
L 146.05 29.75 Z"/>

<path fill="#951A2F" stroke="none" d="
M 55.8 4.8
L 38.8 4.8 38.8 145.75 55.8 145.75 55.8 4.8
M 30.05 4.8
Q 18.1 4.8 11.85 10.55
L 11.85 140
Q 18.1 145.75 30.05 145.75
L 30.3 145.75 30.3 4.8 30.05 4.8
M 121.1 4.8
L 115.3 4.8 115.3 145.75 121.1 145.75
Q 127.55 145.75 132.3 144.1
L 132.3 6.45
Q 127.55 4.8 121.1 4.8
M 106.8 4.8
L 88.35 4.8 88.35 145.75 106.8 145.75 106.8 4.8 Z"/>
</g>

<g id="Layer5_0_FILL">
<path fill="#000000" stroke="none" d="
M 41.6 25.7
Q 45.2 18.3 42.2 18.25 41.9 18.4 38.3 19.3 36.7 19.7 36.7 20.75 36.7 21.9 38.7 24.35 40.7 26.85 41.6 25.7
M 40.5 27.95
Q 41.6 27.45 40.5 27 38.25 26.25 36.7 25 35.1 23.8 33.85 23.75 32.55 23.7 30.65 27.8 30.25 30.35 40.5 27.95
M 60.2 141.85
Q 60.15 141.9 60.15 142 60.15 142.05 60.15 142.1 60.2 142.3 60.35 142.4
L 63.1 144.45 64.5 144.45 64.5 144.4
Q 64.45 144.15 64.3 144.05
L 60.95 141.6
Q 60.8 141.45 60.6 141.5 60.35 141.55 60.25 141.7 60.2 141.75 60.2 141.85
M 58.05 142.25
Q 58.1 142.1 58.1 142 58.1 141.95 58.1 141.85 58 141.65 57.85 141.55 57.75 141.5 57.65 141.5 57.55 141.5 57.45 141.55 57.25 141.6 57.15 141.8
L 55.8 144.25
Q 55.75 144.35 55.75 144.45
L 56.9 144.45 58.05 142.25
M 97.2 98.3
Q 97.3 97.25 97.45 96.2 97.65 94.7 98 93.25 90.8 92.2 79.55 96.45 80 98.1 80.4 99.65 80.5 100.2 80.7 100.6 81.35 102.8 81.95 104.55 82.45 105.9 82.85 107.15 83.3 107.95 83.75 108.55 87 112.2 96.3 108.35 98 107.15 97.35 104.2 97.15 103.1 97.1 101.9 97 100.15 97.2 98.3
M 102 18.5
L 102.05 18.5
Q 103.25 15.45 101.1 6.8
L 93.8 6.8
Q 90.8 8.1 86.85 7.7 83.1 7.35 79.45 6.8
L 58.4 6.8
Q 57 7.45 55.65 8.3 48.25 12.9 45.8 17.35 43.4 21.8 43.2 26.9 43.2 27.1 43.35 27.25 43.35 27.3 43.45 27.35 43.35 27.45 43.25 27.6 43.15 27.65 43.1 27.75 42.15 28.95 40.7 29.5 37.55 30.85 34.5 33.55 31.4 36.25 29.9 42.85 28.4 49.4 37.85 66.1 37.85 63.9 39 62.15 40.6 59.85 43.4 60.05 49.75 60.7 50.9 67.85 51.25 68.5 51.65 69.3 52 69.3 52.65 69.3 54.35 69.3 55.25 68.8 56 68.4 56 67.8 56 66.6 55.15 64.05 55.1 63.95 55.1 63.9 54.95 63.5 54.8 63.1 53.4 59.4 52.5 55.35 52 53.2 51.9 51.15 51.9 51 51.9 50.9 51.8 49.25 52 47.7 52.25 44.95 52.45 43.25 52.5 42.65 52.55 42.25 52.75 40.3 53.2 38.85 53.6 37.3 56.65 37.15 59.65 37 62.05 36.3 63.25 35.95 64.8 35.15 66.3 34.35 68.05 33.1 71 31.1 77.45 29.35
L 77.5 29.35
Q 78.7 29 80.1 28.7 88.6 26.65 93.65 24.8 93.75 24.8 93.85 24.75 93.85 24.85 93.9 24.9 94 25.1 94.2 25.15 94.35 25.2 94.55 25.1
L 94.6 25.05
Q 95.75 24.35 98 23.4
L 98.05 23.4
Q 100.35 22.3 102 18.5 Z"/>

<path fill="#535F81" stroke="none" d="
M 81.75 136.5
Q 81.45 136.5 81.2 136.55 81.9 138.05 81.3 141.55
L 85.25 141.55
Q 85.35 141.55 85.4 141.6 85.95 141.75 86.5 142 88.25 142.8 89.75 144.1 89.9 144.2 89.9 144.45
L 97.65 144.45
Q 97.05 144 96.35 143.5 95.65 142.95 94.95 142.4 94.8 142.25 94.75 142.05
L 94.75 142
Q 94.75 141.85 94.85 141.7 94.3 141.25 93.7 140.75 91.1 138.6 88.45 137.55 85.15 136.2 81.75 136.5
M 50.15 140.05
Q 49.75 140.25 49.45 140.5 48.65 141.05 47.7 141.7 47.8 141.85 47.8 142 47.8 142.05 47.8 142.1 47.75 142.3 47.6 142.4 46.3 143.35 44.85 144.45
L 55.75 144.45
Q 55.75 144.35 55.8 144.25
L 57.15 141.8
Q 57.25 141.6 57.45 141.55 57.55 141.5 57.65 141.5
L 57.65 137.75
Q 54.05 137.45 50.15 140.05 Z"/>

<path fill="#FFFFFF" stroke="none" d="
M 80 144.3
Q 79.95 144.4 79.95 144.45
L 89.9 144.45
Q 89.9 144.2 89.75 144.1 88.25 142.8 86.5 142 85.95 141.75 85.4 141.6 85.35 141.55 85.25 141.55
L 81.3 141.55 81.2 141.55
Q 81.05 141.55 80.9 141.65 80.75 141.75 80.75 141.9
L 80 144.3
M 58.1 142
Q 58.1 142.1 58.05 142.25
L 56.9 144.45 63.1 144.45 60.35 142.4
Q 60.2 142.3 60.15 142.1 60.15 142.05 60.15 142 60.15 141.9 60.2 141.85
L 58.1 141.85
Q 58.1 141.95 58.1 142
M 73.5 60.5
Q 75.8 60.05 77.7 60 79.6 59.85 78.95 59.2 78.25 58.55 77.05 57.05 75.7 55.55 73.25 54.85 70.9 54.05 68.4 54.5 65.85 54.9 64 56.15 63.55 56.55 63.2 57 61.15 59.45 60.15 61.6 59.1 63.75 61.15 63.35 63.2 62.9 65.6 62.3 67.25 61.95 69.45 61.4 69.5 61.35 69.6 61.35 71.8 60.75 73.5 60.5
M 99.45 53.65
Q 98.55 52.35 96.55 51.2 96.15 51 95.75 50.85 94.2 50.75 92.5 51.05 90.75 51.3 89.45 52.5 87.9 54.25 87.5 55.5 87.05 56.75 86.75 57.3 86.45 57.85 87.75 57.4 89.05 56.95 90.75 56.6 91.85 56.35 93.5 56.1 93.55 56.05 93.55 56.1 93.65 56.1 93.75 56.1
L 94.25 56
Q 95.4 55.85 96.35 55.65 98 55.4 98.8 55.25 100.2 54.85 99.45 53.65 Z"/>

<path fill="#FFCC99" stroke="none" d="
M 47.35 89.4
Q 47.55 90.1 47.75 90.8
L 52.15 89.4 50.95 88.3
Q 50.5 89.05 49.9 89.4 48.95 90 47.35 89.4 Z"/>

<path fill="#FCBB90" stroke="none" d="
M 94.2 25.15
Q 94 25.1 93.9 24.9 93.85 24.85 93.85 24.75 93.75 24.8 93.65 24.8 88.6 26.65 80.1 28.7 78.7 29 77.5 29.35
L 77.45 29.35
Q 71 31.1 68.05 33.1 66.3 34.35 64.8 35.15 63.25 35.95 62.05 36.3 59.65 37 56.65 37.15 53.6 37.3 53.2 38.85 52.75 40.3 52.55 42.25 52.5 42.65 52.45 43.25 52.25 44.95 52 47.7 51.8 49.25 51.9 50.9 51.9 51 51.9 51.15 52 53.2 52.5 55.35 53.4 59.4 54.8 63.1 54.95 63.5 55.1 63.9 55.1 63.95 55.15 64.05 56 66.6 56 67.8 56 68.4 55.25 68.8 54.35 69.3 52.65 69.3 52 69.3 51.65 69.3 51.3 69.25 51.2 69.15 51.1 69.05 51.05 68.75 50.95 68.4 50.9 67.85 49.75 60.7 43.4 60.05 40.6 59.85 39 62.15 37.85 63.9 37.85 66.1 36.9 75.3 40.5 81.05 44.05 86.8 47.25 89.4
L 47.35 89.4
Q 48.95 90 49.9 89.4 50.5 89.05 50.95 88.3
L 52.15 89.4 47.75 90.8
Q 53.55 109.25 56.25 126.6 56.25 126.7 56.3 126.8 57.1 132.35 57.65 137.75
L 57.65 141.5
Q 57.75 141.5 57.85 141.55 58 141.65 58.1 141.85
L 60.2 141.85
Q 60.2 141.75 60.25 141.7 60.35 141.55 60.6 141.5 60.8 141.45 60.95 141.6
L 64.3 144.05
Q 64.45 144.15 64.5 144.4
L 64.5 144.45 79.95 144.45
Q 79.95 144.4 80 144.3
L 80.75 141.9
Q 80.75 141.75 80.9 141.65 81.05 141.55 81.2 141.55
L 81.3 141.55
Q 81.9 138.05 81.2 136.55 80.5 133.6 80.15 131 79.75 128.6 79.7 126.6 79.65 125.15 79.75 123.9 82.25 125.55 84 126.6 86.6 128.2 87.6 128.55 90.1 129.3 91.1 129.15 91.6 129.05 92.1 129 93 128.75 93.7 128.45 94.65 127.9 95.55 127.05 95.8 126.8 96.1 126.6 96.9 126.1 97.95 126.05 99.4 125.9 101.2 124.4 102.85 123.05 102.85 120.65 102.85 120.05 102.8 119.5 102.65 117.85 102.05 116.6 101.2 114.9 100.6 113.35 100 111.75 99.85 109.45 99.7 107.1 100.45 100.25 101.15 93.6 104.5 84.35 104.8 83.65 105.1 82.95 108.7 74.85 106.85 69.95 104.9 65.05 103.8 61.75 102.7 58.45 101.85 55.95 100.95 53.45 101.8 50.55 102.65 47.6 101.3 43.75 100.8 42.25 99.9 39.95 98.7 37 97.35 31.85 97 30.7 96.65 29.7 96.6 29.55 96.55 29.4 95.65 26.55 94.6 25.05
L 94.55 25.1
Q 94.35 25.2 94.2 25.15
M 96.55 51.2
Q 98.55 52.35 99.45 53.65 100.2 54.85 98.8 55.25 98 55.4 96.35 55.65 95.4 55.85 94.25 56
L 93.75 56.1
Q 93.65 56.1 93.55 56.1 93.55 56.05 93.5 56.1 91.85 56.35 90.75 56.6 89.05 56.95 87.75 57.4 86.45 57.85 86.75 57.3 87.05 56.75 87.5 55.5 87.9 54.25 89.45 52.5 90.75 51.3 92.5 51.05 94.2 50.75 95.75 50.85 96.15 51 96.55 51.2
M 97.45 96.2
Q 97.3 97.25 97.2 98.3 97 100.15 97.1 101.9 97.15 103.1 97.35 104.2 98 107.15 96.3 108.35 87 112.2 83.75 108.55 83.3 107.95 82.85 107.15 82.45 105.9 81.95 104.55 81.35 102.8 80.7 100.6 80.5 100.2 80.4 99.65 80 98.1 79.55 96.45 90.8 92.2 98 93.25 97.65 94.7 97.45 96.2
M 77.7 60
Q 75.8 60.05 73.5 60.5 71.8 60.75 69.6 61.35 69.5 61.35 69.45 61.4 67.25 61.95 65.6 62.3 63.2 62.9 61.15 63.35 59.1 63.75 60.15 61.6 61.15 59.45 63.2 57 63.55 56.55 64 56.15 65.85 54.9 68.4 54.5 70.9 54.05 73.25 54.85 75.7 55.55 77.05 57.05 78.25 58.55 78.95 59.2 79.6 59.85 77.7 60 Z"/>
</g>

<g id="Layer3_0_MEMBER_0_FILL">
<path fill="#000000" stroke="none" d="
M 42.3 25.7
Q 45.9 18.3 42.9 18.25 42.6 18.4 39 19.3 37.4 19.7 37.4 20.75 37.4 21.9 39.4 24.35 41.4 26.85 42.3 25.7
M 41.2 27.95
Q 42.3 27.45 41.2 27 38.95 26.25 37.4 25 35.8 23.8 34.55 23.75 33.25 23.7 31.35 27.8 30.95 30.35 41.2 27.95
M 95.45 142
L 95.45 142.05
Q 95.5 142.25 95.65 142.4 96.35 142.95 97.05 143.5 97.75 144 98.35 144.45
L 99.5 144.45
Q 99.5 144.4 99.5 144.3 99.45 144.1 99.3 143.95 98.55 143.35 97.7 142.7 96.95 142.15 96.25 141.6 96.1 141.45 95.9 141.5 95.7 141.55 95.55 141.7 95.45 141.85 95.45 142
M 80.7 144.3
Q 80.65 144.4 80.65 144.45
L 81.75 144.45 82.3 142.55 85.9 142.55
Q 87.8 143.2 89.3 144.45
L 90.6 144.45
Q 90.6 144.2 90.45 144.1 88.95 142.8 87.2 142 86.65 141.75 86.1 141.6 86.05 141.55 85.95 141.55
L 82 141.55 81.9 141.55
Q 81.75 141.55 81.6 141.65 81.45 141.75 81.45 141.9
L 80.7 144.3
M 60.85 142
Q 60.85 142.05 60.85 142.1 60.9 142.3 61.05 142.4
L 63.8 144.45 65.2 144.45 65.2 144.4
Q 65.15 144.15 65 144.05
L 61.65 141.6
Q 61.5 141.45 61.3 141.5 61.05 141.55 60.95 141.7 60.9 141.75 60.9 141.85 60.85 141.9 60.85 142
M 58.75 142.25
Q 58.8 142.1 58.8 142 58.8 141.95 58.8 141.85 58.7 141.65 58.55 141.55 58.45 141.5 58.35 141.5 58.25 141.5 58.15 141.55 57.95 141.6 57.85 141.8
L 56.5 144.25
Q 56.45 144.35 56.45 144.45
L 57.6 144.45 58.75 142.25
M 48.5 142
Q 48.5 141.85 48.4 141.7 48.3 141.55 48.1 141.5 47.85 141.45 47.7 141.6 46.15 142.75 44.4 144.05 44.25 144.15 44.2 144.4
L 44.2 144.45 45.55 144.45
Q 47 143.35 48.3 142.4 48.45 142.3 48.5 142.1 48.5 142.05 48.5 142
M 102.7 18.5
L 102.75 18.5
Q 103.95 15.45 101.8 6.8
L 94.5 6.8
Q 91.5 8.1 87.55 7.7 83.8 7.35 80.15 6.8
L 59.1 6.8
Q 57.7 7.45 56.35 8.3 48.95 12.9 46.5 17.35 44.1 21.8 43.9 26.9 43.9 27.1 44.05 27.25 44.05 27.3 44.15 27.35 44.05 27.45 43.95 27.6 43.85 27.65 43.8 27.75 42.85 28.95 41.4 29.5 38.25 30.85 35.2 33.55 32.1 36.25 30.6 42.85 29.1 49.4 38.55 66.1 38.55 63.9 39.7 62.15 41.3 59.85 44.1 60.05 50.45 60.7 51.6 67.85 51.95 68.5 52.35 69.3 52.7 69.3 53.35 69.3 55.05 69.3 55.95 68.8 56.7 68.4 56.7 67.8 56.7 66.6 55.85 64.05 55.8 63.95 55.8 63.9 55.65 63.5 55.5 63.1 54.1 59.4 53.2 55.35 52.7 53.2 52.6 51.15 52.6 51 52.6 50.9 52.5 49.25 52.7 47.7 52.95 44.95 53.15 43.25 53.2 42.65 53.25 42.25 53.45 40.3 53.9 38.85 54.3 37.3 57.35 37.15 60.35 37 62.75 36.3 63.95 35.95 65.5 35.15 67 34.35 68.75 33.1 71.7 31.1 78.15 29.35
L 78.2 29.35
Q 79.4 29 80.8 28.7 89.3 26.65 94.35 24.8 94.45 24.8 94.55 24.75 94.55 24.85 94.6 24.9 94.7 25.1 94.9 25.15 95.05 25.2 95.25 25.1
L 95.3 25.05
Q 96.45 24.35 98.7 23.4
L 98.75 23.4
Q 101.05 22.3 102.7 18.5 Z"/>

<path fill="#FFFFFF" stroke="none" d="
M 85.9 142.55
L 82.3 142.55 81.75 144.45 89.3 144.45
Q 87.8 143.2 85.9 142.55
M 58.8 142
Q 58.8 142.1 58.75 142.25
L 57.6 144.45 63.8 144.45 61.05 142.4
Q 60.9 142.3 60.85 142.1 60.85 142.05 60.85 142 60.85 141.9 60.9 141.85
L 58.8 141.85
Q 58.8 141.95 58.8 142 Z"/>

<path fill="#535F81" stroke="none" d="
M 86.1 141.6
Q 86.65 141.75 87.2 142 88.95 142.8 90.45 144.1 90.6 144.2 90.6 144.45
L 98.35 144.45
Q 97.75 144 97.05 143.5 96.35 142.95 95.65 142.4 95.5 142.25 95.45 142.05
L 95.45 142
Q 95.45 141.85 95.55 141.7 95 141.25 94.4 140.75 91.8 138.6 89.15 137.55 85.85 136.2 82.45 136.5 82.15 136.5 81.9 136.55 82.6 138.05 82 141.55
L 85.95 141.55
Q 86.05 141.55 86.1 141.6
M 48.4 141.7
Q 48.5 141.85 48.5 142 48.5 142.05 48.5 142.1 48.45 142.3 48.3 142.4 47 143.35 45.55 144.45
L 56.45 144.45
Q 56.45 144.35 56.5 144.25
L 57.85 141.8
Q 57.95 141.6 58.15 141.55 58.25 141.5 58.35 141.5
L 58.35 137.75
Q 54.75 137.45 50.85 140.05 50.45 140.25 50.15 140.5 49.35 141.05 48.4 141.7 Z"/>

<path fill="#E99C69" stroke="none" d="
M 80.4 126.6
Q 80.35 125.15 80.45 123.9 77.65 122 73.9 119.4 61.85 111 60.1 108 58.3 104.95 52.85 89.4
L 58.25 113.3
Q 67.75 139.2 82 141.55 82.6 138.05 81.9 136.55 81.2 133.6 80.85 131 80.45 128.6 80.4 126.6
M 56.85 95.1
Q 53.1 87.7 53.05 89.2
L 52.85 89.4
Q 58.3 104.95 60.1 108 61.85 111 73.9 119.4 77.65 122 80.45 123.9 82.95 125.55 84.7 126.6 87.3 128.2 88.3 128.55 90.8 129.3 91.8 129.15 92.3 129.05 92.8 129 93.7 128.75 94.4 128.45 95.35 127.9 96.25 127.05 96.5 126.8 96.8 126.6 97.6 126.1 98.65 126.05 100.1 125.9 101.9 124.4 103.55 123.05 103.55 120.65 103.55 120.05 103.5 119.5 102.4 120.9 101.5 121.5 100.3 122.35 98.7 122.25 96 122.1 94.5 124 93 125.8 91.4 126.35 89.75 126.95 78.55 119.85 67.35 112.7 63.9 107.6 60.5 102.45 56.85 95.1
M 97.35 29.7
Q 97.3 29.55 97.25 29.4 96.35 26.55 95.3 25.05
L 95.25 25.1
Q 95.05 25.2 94.9 25.15 94.7 25.1 94.6 24.9 94.55 24.85 94.55 24.75 94.45 24.8 94.35 24.8 89.3 26.65 80.8 28.7 79.4 29 78.2 29.35
L 78.15 29.35
Q 71.7 31.1 68.75 33.1 67 34.35 65.5 35.15 63.95 35.95 62.75 36.3 60.35 37 57.35 37.15 54.3 37.3 53.9 38.85 53.45 40.3 53.25 42.25 53.2 42.65 53.15 43.25 52.95 44.95 52.7 47.7 52.5 49.25 52.6 50.9 52.6 51 52.6 51.15 52.7 53.2 53.2 55.35 54.1 59.4 55.5 63.1 55.65 63.5 55.8 63.9
L 56.5 63.65
Q 55.95 62.45 55.4 58.15 54.7 52.4 54.7 49.55 54.7 44.85 55.15 43.45 55.85 41.15 56.6 40.7 57.3 40.35 60.05 40.4 62.7 40.45 66.55 38.7 66.75 38.6 67 38.5 67.05 38.5 67.1 38.45 69.2 37.45 73.1 35.55 76.9 33.85 79.2 33.25 81.5 32.7 88.8 31.7 91.85 31.3 93.7 30.8 94.5 30.6 97.35 29.7 Z"/>

<path fill="#FCBB90" stroke="none" d="
M 52.85 89.4
L 48.45 90.8
Q 54.25 109.25 56.95 126.6 56.95 126.7 57 126.8 57.8 132.35 58.35 137.75
L 58.35 141.5
Q 58.45 141.5 58.55 141.55 58.7 141.65 58.8 141.85
L 60.9 141.85
Q 60.9 141.75 60.95 141.7 61.05 141.55 61.3 141.5 61.5 141.45 61.65 141.6
L 65 144.05
Q 65.15 144.15 65.2 144.4
L 65.2 144.45 80.65 144.45
Q 80.65 144.4 80.7 144.3
L 81.45 141.9
Q 81.45 141.75 81.6 141.65 81.75 141.55 81.9 141.55
L 82 141.55
Q 67.75 139.2 58.25 113.3
L 52.85 89.4
M 97.35 29.7
Q 94.5 30.6 93.7 30.8 91.85 31.3 88.8 31.7 81.5 32.7 79.2 33.25 76.9 33.85 73.1 35.55 69.2 37.45 67.1 38.45 67.05 38.5 67 38.5 66.75 38.6 66.55 38.7 62.7 40.45 60.05 40.4 57.3 40.35 56.6 40.7 55.85 41.15 55.15 43.45 54.7 44.85 54.7 49.55 54.7 52.4 55.4 58.15 55.95 62.45 56.5 63.65
L 55.8 63.9
Q 55.8 63.95 55.85 64.05 56.7 66.6 56.7 67.8 56.7 68.4 55.95 68.8 55.05 69.3 53.35 69.3 52.7 69.3 52.35 69.3 52 69.25 51.9 69.15 51.8 69.05 51.75 68.75 51.65 68.4 51.6 67.85 50.45 60.7 44.1 60.05 41.3 59.85 39.7 62.15 38.55 63.9 38.55 66.1 37.6 75.3 41.2 81.05 44.75 86.8 47.95 89.4
L 48.05 89.4
Q 49.65 90 50.6 89.4 51.2 89.05 51.65 88.3 52.05 87.5 52.3 86.3 52.05 87.5 51.65 88.3
L 52.85 89.4 53.05 89.2
Q 53.1 87.7 56.85 95.1 60.5 102.45 63.9 107.6 67.35 112.7 78.55 119.85 89.75 126.95 91.4 126.35 93 125.8 94.5 124 96 122.1 98.7 122.25 100.3 122.35 101.5 121.5 102.4 120.9 103.5 119.5 103.35 117.85 102.75 116.6 101.9 114.9 101.3 113.35 100.7 111.75 100.55 109.45 100.4 107.1 101.15 100.25 102.1 91.05 105.8 82.95 109.4 74.85 107.55 69.95 105.6 65.05 104.5 61.75 103.4 58.45 102.55 55.95 101.65 53.45 102.5 50.55 103.35 47.6 102 43.75 101.5 42.25 100.6 39.95 99.4 37 98.05 31.85 97.7 30.7 97.35 29.7
M 84.25 52.75
Q 84.9 56.3 85.7 58.9 86.5 61.45 89.85 66.15 93.1 70.9 95.1 72.25 97.1 73.55 97.65 74.05 98.1 74.5 98.35 76.3 98.6 78 97.05 80.5 95.5 83 89.5 83.2 95.5 83 97.05 80.5 98.6 78 98.35 76.3 98.1 74.5 97.65 74.05 97.1 73.55 95.1 72.25 93.1 70.9 89.85 66.15 86.5 61.45 85.7 58.9 84.9 56.3 84.25 52.75 83.55 49.15 83.6 47.8 83.55 49.15 84.25 52.75
M 49 72.35
Q 49 71 48.65 69.9 47.6 66.6 43.75 65.6 43.35 65.4 42.9 65.45 43.35 65.4 43.75 65.6 47.6 66.6 48.65 69.9 49 71 49 72.35 47.55 73.15 47.15 74.8 46.35 78 49.35 79.05
L 49.65 82.25 49.35 79.05
Q 46.35 78 47.15 74.8 47.55 73.15 49 72.35 Z"/>

<path fill="#FFCC99" stroke="none" d="
M 48.05 89.4
Q 48.25 90.1 48.45 90.8
L 52.85 89.4 51.65 88.3
Q 51.2 89.05 50.6 89.4 49.65 90 48.05 89.4 Z"/>
</g>

<g id="Layer3_0_MEMBER_1_FILL">
<path fill="#000000" stroke="none" d="
M 74.55 49.3
Q 75.45 49.2 77.05 48.25 78.6 47.3 78 45.05 77.4 42.75 76.35 42.8 75.3 42.8 73.9 44.1 72.45 45.35 69.6 45.8 66.7 46.25 63.8 47.05 60.9 47.85 59.2 49.75 57.45 51.7 57.7 53.25 57.9 54.75 59.45 53.15 60.95 51.5 62.95 50.6 65 49.65 67.85 49.65 70.65 49.65 72.1 49.55 73.6 49.4 74.55 49.3
M 97.9 98.3
Q 98 97.25 98.15 96.2 89.5 95.35 81.1 99.65 81.2 100.2 81.4 100.6 82.05 102.8 82.65 104.55 91.7 98.1 97.8 101.9 97.7 100.15 97.9 98.3
M 82.95 47.45
Q 83.6 50 87 48.4 90.4 46.8 92.3 46.3 94.2 45.8 96.75 46.05 99.35 46.25 99.65 46.25 99.95 46.25 100.7 46.45 100.75 46.45 100.85 46.45 101.8 46.1 101.85 45.6 101.85 45.1 100.85 44.5 98.9 43.3 95.95 43 94.95 42.9 92.85 42.8 90.7 42.7 86.5 43.8 82.3 44.9 82.95 47.45 Z"/>

<path fill="#FF0000" stroke="none" d="
M 82.65 104.55
Q 83.15 105.9 83.55 107.15 84 107.95 84.45 108.55 87.7 112.2 97 108.35 98.7 107.15 98.05 104.2 97.85 103.1 97.8 101.9 91.7 98.1 82.65 104.55 Z"/>

<path fill="#FFFFFF" stroke="none" d="
M 98.15 96.2
Q 98.35 94.7 98.7 93.25 91.5 92.2 80.25 96.45 80.7 98.1 81.1 99.65 89.5 95.35 98.15 96.2 Z"/>
</g>

<g id="Layer3_0_MEMBER_2_FILL">
<path fill="#000000" stroke="none" d="
M 101 82.95
Q 95.95 81.05 93.35 88 93.1 90.15 96.6 88.3 100.15 86.45 103.7 87.5 107.3 88.5 109.8 87.5 112.25 86.5 112.65 83.6 112.35 84 112 84.4 110.8 85.85 106.25 84.7 102.6 83.45 101 82.95
M 82.4 89.8
Q 91.25 90.45 90.8 89.15 86.5 83.1 80.45 86.1 78.5 87.05 74.1 89.2 68.5 91.5 66.7 90.35 65.6 89.65 64.8 88.85 65.15 89.65 65.45 90.4 66.55 93 69.25 93.25 72.15 93.7 74.85 92.1 78.45 90.1 82.4 89.8 Z"/>
</g>

<g id="Layer3_0_MEMBER_3_FILL">
<path fill="#E99C69" stroke="none" d="
M 77.45 61.5
Q 75.85 61.45 70 62.4 65.05 63.15 60.35 66.85 58.9 68.1 60.05 67.85 60.1 67.85 60.1 67.9
L 60.65 68
Q 60.35 67.9 60.15 67.85 60.7 67.7 61.85 67.2 65.55 65.55 71.35 64.4 77.2 63.25 81.9 63.9 79 61.5 77.45 61.5
M 96.35 56.75
Q 94.1 57.25 91.55 58.1 88.95 59 87.85 61.9 88.55 61.5 92.1 59.6 95.6 57.65 101.8 57.9 98.6 56.2 96.35 56.75 Z"/>

<path fill="#FFFFFF" stroke="none" d="
M 63.9 57
Q 61.85 59.45 60.85 61.6 59.8 63.75 61.85 63.35 63.9 62.9 66.3 62.3 66.15 62.2 66 62 64.5 60.35 64.5 57.9 64.5 57 64.7 56.15 64.25 56.55 63.9 57
M 78.4 60
Q 80.3 59.85 79.65 59.2 78.95 58.55 77.75 57.05 76.4 55.55 73.95 54.85 74.7 56.2 74.7 57.9 74.7 59.35 74.2 60.5 76.5 60.05 78.4 60
M 90.15 52.5
Q 88.6 54.25 88.2 55.5 87.75 56.75 87.45 57.3 87.15 57.85 88.45 57.4 89.75 56.95 91.45 56.6 90.8 55.9 90.45 54.9 90 53.7 90.15 52.5
M 96.45 50.85
Q 96.85 51.35 97.1 52 97.75 53.75 97.15 55.4 97.1 55.5 97.05 55.65 98.7 55.4 99.5 55.25 100.9 54.85 100.15 53.65 99.25 52.35 97.25 51.2 96.85 51 96.45 50.85 Z"/>

<path fill="url(#Gradient_2)" stroke="none" d="
M 74.7 57.9
Q 74.7 56.2 73.95 54.85 71.6 54.05 69.1 54.5 66.55 54.9 64.7 56.15 64.5 57 64.5 57.9 64.5 60.35 66 62 66.15 62.2 66.3 62.3 67.95 61.95 70.15 61.4 70.2 61.35 70.3 61.35 72.5 60.75 74.2 60.5 74.7 59.35 74.7 57.9 Z"/>

<path fill="url(#Gradient_3)" stroke="none" d="
M 97.1 52
Q 96.85 51.35 96.45 50.85 94.9 50.75 93.2 51.05 91.45 51.3 90.15 52.5 90 53.7 90.45 54.9 90.8 55.9 91.45 56.6 92.55 56.35 94.2 56.1 94.25 56.05 94.25 56.1 94.35 56.1 94.45 56.1
L 94.95 56
Q 96.1 55.85 97.05 55.65 97.1 55.5 97.15 55.4 97.75 53.75 97.1 52 Z"/>
</g>

<g id="Layer3_0_MEMBER_4_FILL">
<path fill="#000000" stroke="none" d="
M 71.1 58.45
Q 71.1 58.25 71.1 58.1 71 57.7 70.65 57.35 70.25 56.95 69.65 56.95 69.05 56.95 68.6 57.35 68.3 57.7 68.25 58.1 68.2 58.25 68.2 58.45 68.2 59.05 68.6 59.45 69.05 59.9 69.65 59.9 70.25 59.9 70.65 59.45 71.1 59.05 71.1 58.45
M 93 54
Q 93 54.45 93.3 54.75 93.65 55.1 94.1 55.1 94.55 55.1 94.85 54.75 95.2 54.45 95.2 54 95.2 53.9 95.2 53.8 95.15 53.5 94.85 53.2 94.55 52.9 94.1 52.9 93.65 52.9 93.3 53.2 93.1 53.5 93.05 53.8 93 53.9 93 54 Z"/>
</g>

<g id="Layer3_0_MEMBER_5_FILL">
<path fill="#FFFFFF" stroke="none" d="
M 69 57.7
Q 68.9 57.3 68.55 56.95 68.15 56.55 67.55 56.55 66.95 56.55 66.5 56.95 66.2 57.3 66.15 57.7 66.1 57.85 66.1 58 66.1 58.65 66.5 59.05 66.95 59.5 67.55 59.5 68.15 59.5 68.55 59.05 69 58.65 69 58 69 57.85 69 57.7
M 93.65 53.85
Q 93.65 53.75 93.65 53.65 93.55 53.4 93.35 53.15 93.05 52.9 92.7 52.9 92.3 52.9 92 53.15 91.8 53.4 91.75 53.65 91.75 53.75 91.75 53.85 91.75 54.25 92 54.5 92.3 54.8 92.7 54.8 93.05 54.8 93.35 54.5 93.65 54.25 93.65 53.85 Z"/>
</g>

<g id="Layer2_0_FILL">
<path fill="url(#Gradient_4)" stroke="none" d="
M 149.35 29.25
Q 149.35 1.5 121.6 1.5
L 29.55 1.5
Q 1.8 1.5 1.8 29.25
L 1.8 121.3
Q 1.8 149.05 29.55 149.05
L 121.6 149.05
Q 149.35 149.05 149.35 121.3
L 149.35 29.25
M 121.6 6.5
Q 144.35 6.5 144.35 29.25
L 144.35 121.3
Q 144.35 144.05 121.6 144.05
L 29.55 144.05
Q 6.8 144.05 6.8 121.3
L 6.8 29.25
Q 6.8 6.5 29.55 6.5
L 121.6 6.5 Z"/>
</g>

<g id="Layer1_0_FILL">
<path fill="#000000" stroke="none" d="
M 318.15 78.15
Q 316.95 77.65 315.35 77.65 314.3 77.65 313.4 77.95 312.5 78.2 311.95 78.6 311.25 79.1 310.85 79.9 310.45 80.65 310.45 81.55 310.45 82.55 310.95 83.35 311.4 84.15 312.4 84.6 313.35 85.1 315.85 85.7 317.7 86.2 318.2 86.5 318.85 86.95 318.85 87.7 318.85 88.55 318.1 89.2 317.35 89.85 315.75 89.85 314.2 89.85 313.35 89.1 312.5 88.4 312.3 87.05
L 310.05 87.4
Q 310.45 89.55 311.8 90.6 313.15 91.7 315.8 91.7 317.35 91.7 318.6 91.15 319.85 90.6 320.55 89.6 321.2 88.6 321.2 87.45 321.2 86.3 320.65 85.5 320.1 84.75 319.15 84.3 318.2 83.9 315.8 83.25 314.1 82.8 313.8 82.7 313.2 82.45 312.9 82.05 312.65 81.7 312.65 81.25 312.65 80.6 313.3 80.05 313.95 79.55 315.55 79.55 316.85 79.55 317.6 80.1 318.3 80.7 318.45 81.75
L 320.7 81.45
Q 320.5 80.15 319.9 79.35 319.35 78.6 318.15 78.15
M 297.85 79.15
Q 295.75 80.95 295.75 84.7 295.75 88.1 297.5 89.9 299.25 91.7 302.05 91.7 303.8 91.7 305.3 90.9 306.8 90.05 307.55 88.6 308.35 87.1 308.35 84.5 308.35 81.3 306.6 79.5 304.8 77.65 302.05 77.65 299.55 77.65 297.85 79.15
M 299.2 80.85
Q 300.35 79.55 302.05 79.55 303.75 79.55 304.85 80.85 306 82.1 306 84.6 306 87.25 304.85 88.55 303.75 89.85 302.05 89.85 300.35 89.85 299.2 88.55 298.1 87.25 298.1 84.7 298.1 82.1 299.2 80.85
M 278.8 80.15
Q 279.6 79.65 280.55 79.65 281.8 79.65 282.4 80.4 282.95 81.15 282.95 82.7
L 282.95 91.4 285.2 91.4 285.2 83.6
Q 285.2 81.55 286.15 80.6 287.1 79.65 288.5 79.65 289.3 79.65 289.85 80 290.45 80.4 290.65 81 290.9 81.6 290.9 82.95
L 290.9 91.4 293.15 91.4 293.15 82.2
Q 293.15 79.9 292.05 78.8 291 77.65 289 77.65 286.45 77.65 284.85 80 284.45 78.9 283.5 78.3 282.55 77.65 281.05 77.65 279.7 77.65 278.65 78.3 277.6 78.85 277 79.85
L 277 78 274.95 78 274.95 91.4 277.25 91.4 277.25 84.45
Q 277.25 82.6 277.6 81.65 277.95 80.65 278.8 80.15
M 261.4 84.75
Q 260.7 85.25 260.25 86.05 259.8 86.85 259.8 87.85 259.8 89.55 260.95 90.65 262.15 91.7 264.35 91.7 265.7 91.7 266.9 91.25 268.05 90.8 269.3 89.75 269.4 90.7 269.75 91.4
L 272.15 91.4
Q 271.7 90.65 271.6 89.8 271.45 88.95 271.45 85.75
L 271.45 82.75
Q 271.45 81.2 271.3 80.65 271.1 79.7 270.6 79.1 270.1 78.5 269.05 78.1 267.95 77.65 266.25 77.65 264.5 77.65 263.2 78.15 261.85 78.6 261.2 79.5 260.5 80.4 260.2 81.8
L 262.4 82.1
Q 262.75 80.7 263.55 80.1 264.3 79.55 265.9 79.55 267.6 79.55 268.5 80.35 269.15 80.9 269.15 82.3 269.15 82.4 269.15 82.9 267.85 83.35 265.05 83.65 263.7 83.85 263.05 84 262.15 84.25 261.4 84.75
M 262.2 87.8
Q 262.2 87.2 262.55 86.7 262.85 86.25 263.45 86 264 85.7 265.4 85.5 267.9 85.15 269.15 84.65
L 269.15 85.5
Q 269.15 87 268.75 87.75 268.3 88.75 267.25 89.35 266.25 89.9 264.9 89.9 263.6 89.9 262.9 89.3 262.2 88.7 262.2 87.8
M 260.65 72.85
L 258.15 72.85 253.15 86.35
Q 252.6 87.85 252.15 89.35 251.75 87.95 251.2 86.35
L 246.35 72.85 243.7 72.85 250.9 91.4 253.4 91.4 260.65 72.85
M 266.65 46.35
Q 265.3 46.8 264.65 47.7 263.95 48.6 263.65 50
L 265.85 50.3
Q 266.2 48.9 267 48.3 267.75 47.75 269.35 47.75 271.05 47.75 271.95 48.55 272.6 49.1 272.6 50.5 272.6 50.6 272.6 51.1 271.3 51.55 268.5 51.85 267.15 52.05 266.5 52.2 265.6 52.45 264.85 52.95 264.15 53.45 263.7 54.25 263.25 55.05 263.25 56.05 263.25 57.75 264.4 58.85 265.6 59.9 267.8 59.9 269.15 59.9 270.35 59.45 271.5 59 272.75 57.95 272.85 58.9 273.2 59.6
L 275.6 59.6
Q 275.15 58.85 275.05 58 274.9 57.15 274.9 53.95
L 274.9 50.95
Q 274.9 49.4 274.75 48.85 274.55 47.9 274.05 47.3 273.55 46.7 272.5 46.3 271.4 45.85 269.7 45.85 267.95 45.85 266.65 46.35
M 272.6 52.85
L 272.6 53.7
Q 272.6 55.2 272.2 55.95 271.75 56.95 270.7 57.55 269.7 58.1 268.35 58.1 267.05 58.1 266.35 57.5 265.65 56.9 265.65 56 265.65 55.4 266 54.9 266.3 54.45 266.9 54.2 267.45 53.9 268.85 53.7 271.35 53.35 272.6 52.85
M 272 41.25
Q 271.9 41.95 271.7 42.15 271.5 42.35 271.1 42.35 270.65 42.35 269.9 42 268.55 41.3 267.75 41.3 266.65 41.3 265.9 42.1 265.2 42.9 265.2 44.2
L 266.9 44.2
Q 266.85 43.6 267.15 43.3 267.4 43 267.85 43 268.25 43 269.1 43.45 270.4 44.15 271.15 44.15 272.25 44.15 272.95 43.45 273.6 42.7 273.65 41.25
L 272 41.25
M 248.1 41.05
L 245.55 41.05 245.55 59.6 247.9 59.6 247.9 45.05 257.65 59.6 260.15 59.6 260.15 41.05 257.8 41.05 257.8 55.6 248.1 41.05
M 323.85 46.2
L 321.55 46.2 321.55 59.6 323.85 59.6 323.85 46.2
M 321.55 41.05
L 321.55 43.7 323.85 43.7 323.85 41.05 321.55 41.05
M 312.6 45.85
Q 310.1 45.85 308.4 47.35 306.3 49.15 306.3 52.9 306.3 56.3 308.05 58.1 309.8 59.9 312.6 59.9 314.35 59.9 315.85 59.1 317.35 58.25 318.1 56.8 318.9 55.3 318.9 52.7 318.9 49.5 317.15 47.7 315.35 45.85 312.6 45.85
M 309.75 49.05
Q 310.9 47.75 312.6 47.75 314.3 47.75 315.4 49.05 316.55 50.3 316.55 52.8 316.55 55.45 315.4 56.75 314.3 58.05 312.6 58.05 310.9 58.05 309.75 56.75 308.65 55.45 308.65 52.9 308.65 50.3 309.75 49.05
M 302.75 44.95
Q 302.75 43.7 303.2 43.3 303.6 42.85 304.65 42.85 305.3 42.85 306 42.95
L 306.35 41
Q 305.2 40.75 304.2 40.75 302.7 40.75 301.9 41.3 301.05 41.85 300.75 42.75 300.5 43.4 300.5 44.75
L 300.5 46.2 298.5 46.2 298.5 47.95 300.5 47.95 300.5 59.6 302.75 59.6 302.75 47.95 305.4 47.95 305.4 46.2 302.75 46.2 302.75 44.95
M 288.4 47.7
Q 286.6 45.85 283.85 45.85 281.35 45.85 279.65 47.35 277.55 49.15 277.55 52.9 277.55 56.3 279.3 58.1 281.05 59.9 283.85 59.9 285.6 59.9 287.1 59.1 288.6 58.25 289.35 56.8 290.15 55.3 290.15 52.7 290.15 49.5 288.4 47.7
M 283.85 47.75
Q 285.55 47.75 286.65 49.05 287.8 50.3 287.8 52.8 287.8 55.45 286.65 56.75 285.55 58.05 283.85 58.05 282.15 58.05 281 56.75 279.9 55.45 279.9 52.9 279.9 50.3 281 49.05 282.15 47.75 283.85 47.75
M 395.15 80.5
L 395.95 78.4
Q 394.75 77.65 393.6 77.65 392.8 77.65 392.15 78.15 391.45 78.6 390.7 80
L 390.7 78 388.65 78 388.65 91.4 390.9 91.4 390.9 84.35
Q 390.9 82.95 391.3 81.7 391.55 80.9 392.15 80.5 392.75 80 393.45 80 394.3 80 395.15 80.5
M 369.75 79.75
L 372 79.75 372 78 369.75 78 369.75 73.3 367.45 74.65 367.45 78 365.8 78 365.8 79.75 367.45 79.75 367.45 87.45
Q 367.45 89.5 367.75 90.15 368.05 90.8 368.7 91.2 369.4 91.6 370.65 91.6 371.4 91.6 372.35 91.35
L 372 89.35
Q 371.4 89.45 371.05 89.45 370.5 89.45 370.25 89.3 370 89.1 369.85 88.85 369.75 88.55 369.75 87.6
L 369.75 79.75
M 384.3 79.1
Q 383.8 78.5 382.75 78.1 381.65 77.65 379.95 77.65 378.2 77.65 376.9 78.15 375.55 78.6 374.9 79.5 374.2 80.4 373.9 81.8
L 376.1 82.1
Q 376.45 80.7 377.25 80.1 378 79.55 379.6 79.55 381.3 79.55 382.2 80.35 382.85 80.9 382.85 82.3 382.85 82.4 382.85 82.9 381.55 83.35 378.75 83.65 377.4 83.85 376.75 84 375.85 84.25 375.1 84.75 374.4 85.25 373.95 86.05 373.5 86.85 373.5 87.85 373.5 89.55 374.65 90.65 375.85 91.7 378.05 91.7 379.4 91.7 380.6 91.25 381.75 90.8 383 89.75 383.1 90.7 383.45 91.4
L 385.85 91.4
Q 385.4 90.65 385.3 89.8 385.15 88.95 385.15 85.75
L 385.15 82.75
Q 385.15 81.2 385 80.65 384.8 79.7 384.3 79.1
M 377.15 86
Q 377.7 85.7 379.1 85.5 381.6 85.15 382.85 84.65
L 382.85 85.5
Q 382.85 87 382.45 87.75 382 88.75 380.95 89.35 379.95 89.9 378.6 89.9 377.3 89.9 376.6 89.3 375.9 88.7 375.9 87.8 375.9 87.2 376.25 86.7 376.55 86.25 377.15 86
M 362.75 79.25
Q 362.25 78.55 361.2 78.1 360.2 77.65 359 77.65 356.2 77.65 354.7 79.9
L 354.7 78 352.65 78 352.65 91.4 354.95 91.4 354.95 84.05
Q 354.95 81.5 356 80.55 357.05 79.65 358.5 79.65 359.4 79.65 360.1 80.05 360.75 80.45 361 81.15 361.3 81.85 361.3 83.25
L 361.3 91.4 363.55 91.4 363.55 83.15
Q 363.55 81.55 363.45 80.95 363.25 79.95 362.75 79.25
M 343.8 77.65
Q 341.05 77.65 339.3 79.55 337.55 81.4 337.55 84.8 337.55 88.1 339.3 89.9 341 91.7 343.95 91.7 346.3 91.7 347.8 90.55 349.3 89.45 349.85 87.35
L 347.5 87.1
Q 347 88.5 346.1 89.2 345.2 89.85 343.95 89.85 342.3 89.85 341.15 88.65 340.05 87.5 339.9 85.25
L 349.9 85.25
Q 349.9 84.85 349.9 84.65 349.9 81.35 348.2 79.5 346.5 77.65 343.8 77.65
M 341.2 80.6
Q 342.3 79.55 343.85 79.55 345.6 79.55 346.65 80.85 347.35 81.7 347.5 83.4
L 340.05 83.4
Q 340.15 81.65 341.2 80.6
M 336.05 79.75
L 336.05 78 333.8 78 333.8 73.3 331.5 74.65 331.5 78 329.85 78 329.85 79.75 331.5 79.75 331.5 87.45
Q 331.5 89.5 331.8 90.15 332.1 90.8 332.75 91.2 333.45 91.6 334.7 91.6 335.45 91.6 336.4 91.35
L 336.05 89.35
Q 335.45 89.45 335.1 89.45 334.55 89.45 334.3 89.3 334.05 89.1 333.9 88.85 333.8 88.55 333.8 87.6
L 333.8 79.75 336.05 79.75
M 354.35 45.85
Q 351.6 45.85 349.85 47.75 348.1 49.6 348.1 53 348.1 56.3 349.85 58.1 351.55 59.9 354.5 59.9 356.85 59.9 358.35 58.75 359.85 57.65 360.4 55.55
L 358.05 55.3
Q 357.55 56.7 356.65 57.4 355.75 58.05 354.5 58.05 352.85 58.05 351.7 56.85 350.6 55.7 350.45 53.45
L 360.45 53.45
Q 360.45 53.05 360.45 52.85 360.45 49.55 358.75 47.7 357.05 45.85 354.35 45.85
M 354.4 47.75
Q 356.15 47.75 357.2 49.05 357.9 49.9 358.05 51.6
L 350.6 51.6
Q 350.7 49.85 351.75 48.8 352.85 47.75 354.4 47.75
M 343.05 47.7
Q 342.45 46.9 341.5 46.4 340.55 45.85 339.35 45.85 337.7 45.85 336.35 46.75 335 47.6 334.35 49.25 333.7 50.9 333.7 52.9 333.7 54.95 334.45 56.55 335.15 58.15 336.5 59 337.85 59.9 339.45 59.9 341.95 59.9 343.2 57.9
L 343.2 59.6 345.35 59.6 345.35 41.05 343.05 41.05 343.05 47.7
M 339.6 47.75
Q 341.15 47.75 342.2 49.05 343.25 50.35 343.25 53.1 343.25 55.6 342.2 56.8 341.15 58.05 339.7 58.05 338.2 58.05 337.1 56.75 336 55.5 336 52.9 336 50.25 337.05 49 338.05 47.75 339.6 47.75
M 394.15 48.85
Q 393.95 47.9 393.45 47.3 392.95 46.7 391.9 46.3 390.8 45.85 389.1 45.85 387.35 45.85 386.05 46.35 384.7 46.8 384.05 47.7 383.35 48.6 383.05 50
L 385.25 50.3
Q 385.6 48.9 386.4 48.3 387.15 47.75 388.75 47.75 390.45 47.75 391.35 48.55 392 49.1 392 50.5 392 50.6 392 51.1 390.7 51.55 387.9 51.85 386.55 52.05 385.9 52.2 385 52.45 384.25 52.95 383.55 53.45 383.1 54.25 382.65 55.05 382.65 56.05 382.65 57.75 383.8 58.85 385 59.9 387.2 59.9 388.55 59.9 389.75 59.45 390.9 59 392.15 57.95 392.25 58.9 392.6 59.6
L 395 59.6
Q 394.55 58.85 394.45 58 394.3 57.15 394.3 53.95
L 394.3 50.95
Q 394.3 49.4 394.15 48.85
M 392 52.85
L 392 53.7
Q 392 55.2 391.6 55.95 391.15 56.95 390.1 57.55 389.1 58.1 387.75 58.1 386.45 58.1 385.75 57.5 385.05 56.9 385.05 56 385.05 55.4 385.4 54.9 385.7 54.45 386.3 54.2 386.85 53.9 388.25 53.7 390.75 53.35 392 52.85
M 378.9 41.5
L 376.6 42.85 376.6 46.2 374.95 46.2 374.95 47.95 376.6 47.95 376.6 55.65
Q 376.6 57.7 376.9 58.35 377.2 59 377.85 59.4 378.55 59.8 379.8 59.8 380.55 59.8 381.5 59.55
L 381.15 57.55
Q 380.55 57.65 380.2 57.65 379.65 57.65 379.4 57.5 379.15 57.3 379 57.05 378.9 56.75 378.9 55.8
L 378.9 47.95 381.15 47.95 381.15 46.2 378.9 46.2 378.9 41.5
M 364.95 49.45
Q 364.95 48.8 365.6 48.25 366.25 47.75 367.85 47.75 369.15 47.75 369.9 48.3 370.6 48.9 370.75 49.95
L 373 49.65
Q 372.8 48.35 372.2 47.55 371.65 46.8 370.45 46.35 369.25 45.85 367.65 45.85 366.6 45.85 365.7 46.15 364.8 46.4 364.25 46.8 363.55 47.3 363.15 48.1 362.75 48.85 362.75 49.75 362.75 50.75 363.25 51.55 363.7 52.35 364.7 52.8 365.65 53.3 368.15 53.9 370 54.4 370.5 54.7 371.15 55.15 371.15 55.9 371.15 56.75 370.4 57.4 369.65 58.05 368.05 58.05 366.5 58.05 365.65 57.3 364.8 56.6 364.6 55.25
L 362.35 55.6
Q 362.75 57.75 364.1 58.8 365.45 59.9 368.1 59.9 369.65 59.9 370.9 59.35 372.15 58.8 372.85 57.8 373.5 56.8 373.5 55.65 373.5 54.5 372.95 53.7 372.4 52.95 371.45 52.5 370.5 52.1 368.1 51.45 366.4 51 366.1 50.9 365.5 50.65 365.2 50.25 364.95 49.9 364.95 49.45
M 480.15 78
L 477.8 78 474.8 86.15
Q 474.3 87.65 473.95 88.7 473.6 87.3 473.1 86
L 470.25 78 467.85 78 472.95 91.4 475.05 91.4 480.15 78
M 464.8 79.5
Q 463 77.65 460.25 77.65 457.75 77.65 456.05 79.15 453.95 80.95 453.95 84.7 453.95 88.1 455.7 89.9 457.45 91.7 460.25 91.7 462 91.7 463.5 90.9 465 90.05 465.75 88.6 466.55 87.1 466.55 84.5 466.55 81.3 464.8 79.5
M 456.3 84.7
Q 456.3 82.1 457.4 80.85 458.55 79.55 460.25 79.55 461.95 79.55 463.05 80.85 464.2 82.1 464.2 84.6 464.2 87.25 463.05 88.55 461.95 89.85 460.25 89.85 458.55 89.85 457.4 88.55 456.3 87.25 456.3 84.7
M 445.8 59.6
L 448.4 59.6 448.4 57 445.8 57 445.8 59.6
M 442.45 79.9
L 442.45 78 440.4 78 440.4 91.4 442.7 91.4 442.7 84.05
Q 442.7 81.5 443.75 80.55 444.8 79.65 446.25 79.65 447.15 79.65 447.85 80.05 448.5 80.45 448.75 81.15 449.05 81.85 449.05 83.25
L 449.05 91.4 451.3 91.4 451.3 83.15
Q 451.3 81.55 451.2 80.95 451 79.95 450.5 79.25 450 78.55 448.95 78.1 447.95 77.65 446.75 77.65 443.95 77.65 442.45 79.9
M 419.85 79.55
Q 418.1 81.4 418.1 84.8 418.1 88.1 419.85 89.9 421.55 91.7 424.5 91.7 426.85 91.7 428.35 90.55 429.85 89.45 430.4 87.35
L 428.05 87.1
Q 427.55 88.5 426.65 89.2 425.75 89.85 424.5 89.85 422.85 89.85 421.7 88.65 420.6 87.5 420.45 85.25
L 430.45 85.25
Q 430.45 84.85 430.45 84.65 430.45 81.35 428.75 79.5 427.05 77.65 424.35 77.65 421.6 77.65 419.85 79.55
M 421.75 80.6
Q 422.85 79.55 424.4 79.55 426.15 79.55 427.2 80.85 427.9 81.7 428.05 83.4
L 420.6 83.4
Q 420.7 81.65 421.75 80.6
M 415.3 72.85
L 413 72.85 413 79.5
Q 412.4 78.7 411.45 78.2 410.5 77.65 409.3 77.65 407.65 77.65 406.3 78.55 404.95 79.4 404.3 81.05 403.65 82.7 403.65 84.7 403.65 86.75 404.4 88.35 405.1 89.95 406.45 90.8 407.8 91.7 409.4 91.7 411.9 91.7 413.15 89.7
L 413.15 91.4 415.3 91.4 415.3 72.85
M 409.55 79.55
Q 411.1 79.55 412.15 80.85 413.2 82.15 413.2 84.9 413.2 87.4 412.15 88.6 411.1 89.85 409.65 89.85 408.15 89.85 407.05 88.55 405.95 87.3 405.95 84.7 405.95 82.05 407 80.8 408 79.55 409.55 79.55
M 442.5 47.7
L 442.5 46.2 431.5 46.2 431.5 48 437 48
Q 438.1 48 439.55 47.95
L 431 57.75 431 59.6 442.9 59.6 442.9 57.65 436.7 57.65
Q 435.35 57.65 433.8 57.75
L 442.5 47.7
M 423.35 45.85
Q 420.6 45.85 418.85 47.75 417.1 49.6 417.1 53 417.1 56.3 418.85 58.1 420.55 59.9 423.5 59.9 425.85 59.9 427.35 58.75 428.85 57.65 429.4 55.55
L 427.05 55.3
Q 426.55 56.7 425.65 57.4 424.75 58.05 423.5 58.05 421.85 58.05 420.7 56.85 419.6 55.7 419.45 53.45
L 429.45 53.45
Q 429.45 53.05 429.45 52.85 429.45 49.55 427.75 47.7 426.05 45.85 423.35 45.85
M 420.75 48.8
Q 421.85 47.75 423.4 47.75 425.15 47.75 426.2 49.05 426.9 49.9 427.05 51.6
L 419.6 51.6
Q 419.7 49.85 420.75 48.8
M 415.9 46.2
L 413.55 46.2 410.55 54.35
Q 410.05 55.85 409.7 56.9 409.35 55.5 408.85 54.2
L 406 46.2 403.6 46.2 408.7 59.6 410.8 59.6 415.9 46.2
M 448.5 41.05
L 445.65 41.05 446.35 55 447.85 55 448.5 41.05
M 497.1 88.8
L 497.1 91.4 499.7 91.4 499.7 88.8 497.1 88.8
M 493.8 84.5
Q 493.8 81.3 492.05 79.5 490.25 77.65 487.5 77.65 485 77.65 483.3 79.15 481.2 80.95 481.2 84.7 481.2 88.1 482.95 89.9 484.7 91.7 487.5 91.7 489.25 91.7 490.75 90.9 492.25 90.05 493 88.6 493.8 87.1 493.8 84.5
M 490.3 80.85
Q 491.45 82.1 491.45 84.6 491.45 87.25 490.3 88.55 489.2 89.85 487.5 89.85 485.8 89.85 484.65 88.55 483.55 87.25 483.55 84.7 483.55 82.1 484.65 80.85 485.8 79.55 487.5 79.55 489.2 79.55 490.3 80.85 Z"/>
</g>

<path id="Layer7_0_1_STROKES" stroke="#666666" stroke-width="2" stroke-linejoin="round" stroke-linecap="round" fill="none" d="
M 229.8 20.2
L 493.85 20.2
Q 497.213671875 20.26796875 500 20.925 501.3142578125 21.2513671875 502.5 21.7 502.753125 21.79609375 503 21.9 505.583203125 22.9658203125 507.5 24.7 512.523828125 29.1806640625 513 38.25 513.05 39.199609375 513.05 40.2
L 513.05 93.25
Q 513.05 94.250390625 513 95.2 512.523828125 104.2740234375 507.5 108.8 505.583203125 110.4884765625 503 111.55 502.753125 111.65390625 502.5 111.75 501.3142578125 112.1986328125 500 112.525 497.213671875 113.18203125 493.85 113.25
L 229.8 113.25
Q 210.55 112.85 210.55 93.25
L 210.55 82.5 167.1 82.5 210.55 56.3 210.55 40.2
Q 210.55 20.6 229.8 20.2 Z"/>

<path id="Layer5_0_1_STROKES" stroke="#000000" stroke-width="1" stroke-linejoin="round" stroke-linecap="round" fill="none" d="
M 58.1 141.85
L 60.2 141.85"/>

<path id="Layer3_0_MEMBER_0_1_STROKES" stroke="#000000" stroke-width="1" stroke-linejoin="round" stroke-linecap="round" fill="none" d="
M 44.15 27.35
Q 44.05 27.45 43.95 27.6 43.85 27.65 43.8 27.75 42.85 28.95 41.4 29.5 38.25 30.85 35.2 33.55 32.1 36.25 30.6 42.85 29.1 49.4 38.55 66.1 38.55 63.9 39.7 62.15 41.3 59.85 44.1 60.05 50.45 60.7 51.6 67.85 51.95 68.5 52.35 69.3 52.7 69.3 53.35 69.3 55.05 69.3 55.95 68.8 56.7 68.4 56.7 67.8 56.7 66.6 55.85 64.05 55.8 63.95 55.8 63.9 55.65 63.5 55.5 63.1 54.1 59.4 53.2 55.35 52.7 53.2 52.6 51.15 52.6 51 52.6 50.9 52.5 49.25 52.7 47.7 52.95 44.95 53.15 43.25 53.2 42.65 53.25 42.25 53.45 40.3 53.9 38.85 54.3 37.3 57.35 37.15 60.35 37 62.75 36.3 63.95 35.95 65.5 35.15 67 34.35 68.75 33.1 71.7 31.1 78.15 29.35
L 78.2 29.35
Q 79.4 29 80.8 28.7 89.3 26.65 94.35 24.8 94.45 24.8 94.55 24.75
M 95.3 25.05
Q 96.35 26.55 97.25 29.4 97.3 29.55 97.35 29.7 97.7 30.7 98.05 31.85 99.4 37 100.6 39.95 101.5 42.25 102 43.75 103.35 47.6 102.5 50.55 101.65 53.45 102.55 55.95 103.4 58.45 104.5 61.75 105.6 65.05 107.55 69.95 109.4 74.85 105.8 82.95 102.1 91.05 101.15 100.25 100.4 107.1 100.55 109.45 100.7 111.75 101.3 113.35 101.9 114.9 102.75 116.6 103.35 117.85 103.5 119.5 103.55 120.05 103.55 120.65 103.55 123.05 101.9 124.4 100.1 125.9 98.65 126.05 97.6 126.1 96.8 126.6 96.5 126.8 96.25 127.05 95.35 127.9 94.4 128.45 93.7 128.75 92.8 129 92.3 129.05 91.8 129.15 90.8 129.3 88.3 128.55 87.3 128.2 84.7 126.6 82.95 125.55 80.45 123.9 80.35 125.15 80.4 126.6 80.45 128.6 80.85 131 81.2 133.6 81.9 136.55 82.15 136.5 82.45 136.5 85.85 136.2 89.15 137.55 91.8 138.6 94.4 140.75 95 141.25 95.55 141.7
M 48.4 141.7
Q 49.35 141.05 50.15 140.5 50.45 140.25 50.85 140.05 54.75 137.45 58.35 137.75 57.8 132.35 57 126.8 56.95 126.7 56.95 126.6 54.25 109.25 48.45 90.8 48.25 90.1 48.05 89.4
L 47.95 89.4
Q 44.75 86.8 41.2 81.05 37.6 75.3 38.55 66.1
M 83.6 47.8
Q 83.55 49.15 84.25 52.75 84.9 56.3 85.7 58.9 86.5 61.45 89.85 66.15 93.1 70.9 95.1 72.25 97.1 73.55 97.65 74.05 98.1 74.5 98.35 76.3 98.6 78 97.05 80.5 95.5 83 89.5 83.2
M 49.65 82.25
L 49.35 79.05
Q 46.35 78 47.15 74.8 47.55 73.15 49 72.35 49 71 48.65 69.9 47.6 66.6 43.75 65.6 43.35 65.4 42.9 65.45
M 51.6 67.85
Q 51.65 68.4 51.75 68.75 51.8 69.05 51.9 69.15 52 69.25 52.35 69.3
M 48.05 89.4
Q 49.65 90 50.6 89.4 51.2 89.05 51.65 88.3 52.05 87.5 52.3 86.3
M 52.85 89.4
Q 58.3 104.95 60.1 108 61.85 111 73.9 119.4 77.65 122 80.45 123.9
M 81.9 136.55
Q 82.6 138.05 82 141.55
M 58.35 137.75
L 58.35 141.5
M 58.8 141.85
L 60.9 141.85"/>

<path id="Layer3_0_MEMBER_1_1_STROKES" stroke="#000000" stroke-width="1" stroke-linejoin="round" stroke-linecap="round" fill="none" d="
M 97.8 101.9
Q 97.7 100.15 97.9 98.3 98 97.25 98.15 96.2
M 81.1 99.65
Q 81.2 100.2 81.4 100.6 82.05 102.8 82.65 104.55
M 97.8 101.9
Q 97.85 103.1 98.05 104.2 98.7 107.15 97 108.35 87.7 112.2 84.45 108.55 84 107.95 83.55 107.15 83.15 105.9 82.65 104.55
M 98.15 96.2
Q 98.35 94.7 98.7 93.25 91.5 92.2 80.25 96.45 80.7 98.1 81.1 99.65"/>

<path id="Layer3_0_MEMBER_2_1_STROKES" stroke="#000000" stroke-width="1" stroke-linejoin="round" stroke-linecap="round" fill="none" d="
M 44.8 65.95
Q 39.5 71.85 44.9 80.15"/>

<path id="Layer3_0_MEMBER_3_1_STROKES" stroke="#000000" stroke-width="1" stroke-linejoin="round" stroke-linecap="round" fill="none" d="
M 96.45 50.85
Q 94.9 50.75 93.2 51.05 91.45 51.3 90.15 52.5
M 94.45 56.1
L 94.95 56
Q 96.1 55.85 97.05 55.65 98.7 55.4 99.5 55.25 100.9 54.85 100.15 53.65 99.25 52.35 97.25 51.2 96.85 51 96.45 50.85
M 91.45 56.6
L 94.25 56.1
M 90.15 52.5
Q 88.6 54.25 88.2 55.5 87.75 56.75 87.45 57.3 87.15 57.85 88.45 57.4 89.75 56.95 91.45 56.6
M 73.95 54.85
Q 76.4 55.55 77.75 57.05 78.95 58.55 79.65 59.2 80.3 59.85 78.4 60 76.5 60.05 74.2 60.5 72.5 60.75 70.3 61.35 70.2 61.35 70.15 61.4 67.95 61.95 66.3 62.3 63.9 62.9 61.85 63.35 59.8 63.75 60.85 61.6 61.85 59.45 63.9 57 64.25 56.55 64.7 56.15 66.55 54.9 69.1 54.5 71.6 54.05 73.95 54.85 Z"/>
</defs>

<g transform="matrix( 1, 0, 0, 1, 0,0) ">
<use xlink:href="#Layer7_0_FILL"/>

<use xlink:href="#Layer7_0_1_STROKES"/>
</g>

<g transform="matrix( 1, 0, 0, 1, -0.7,0) ">
<use xlink:href="#Layer6_0_FILL"/>
</g>

<g transform="matrix( 1, 0, 0, 1, 0,0) ">
<use xlink:href="#Layer5_0_FILL"/>

<use xlink:href="#Layer5_0_1_STROKES"/>
</g>

<g transform="matrix( 1, 0, 0, 1, -0.7,0) ">
<use xlink:href="#Layer3_0_MEMBER_0_FILL"/>

<use xlink:href="#Layer3_0_MEMBER_0_1_STROKES"/>
</g>

<g transform="matrix( 1, 0, 0, 1, -0.7,0) ">
<use xlink:href="#Layer3_0_MEMBER_1_FILL"/>

<use xlink:href="#Layer3_0_MEMBER_1_1_STROKES"/>
</g>

<g transform="matrix( 1, 0, 0, 1, -0.7,0) ">
<use xlink:href="#Layer3_0_MEMBER_2_FILL"/>

<use xlink:href="#Layer3_0_MEMBER_2_1_STROKES"/>
</g>

<g transform="matrix( 1, 0, 0, 1, -0.7,0) ">
<use xlink:href="#Layer3_0_MEMBER_3_FILL"/>

<use xlink:href="#Layer3_0_MEMBER_3_1_STROKES"/>
</g>

<g transform="matrix( 1, 0, 0, 1, -0.7,0) ">
<use xlink:href="#Layer3_0_MEMBER_4_FILL"/>
</g>

<g transform="matrix( 1, 0, 0, 1, -0.7,0) ">
<use xlink:href="#Layer3_0_MEMBER_5_FILL"/>
</g>

<g transform="matrix( 1, 0, 0, 1, -0.7,0) ">
<use xlink:href="#Layer2_0_FILL"/>
</g>

<g transform="matrix( 1, 0, 0, 1, -9.9,0.5) ">
<use xlink:href="#Layer1_0_FILL"/>
</g>
</svg>
