
<svg xmlns="http://www.w3.org/2000/svg" version="1.1" xmlns:xlink="http://www.w3.org/1999/xlink" preserveAspectRatio="none" x="0px" y="0px" width="260px" height="243px" viewBox="0 0 260 243">
<defs>
<linearGradient id="Gradient_1" gradientUnits="userSpaceOnUse" x1="273.05" y1="96.11249999999998" x2="273.05" y2="174.7875" spreadMethod="pad">
<stop  offset="0%" stop-color="#CCCCCC"/>

<stop  offset="46.666666666666664%" stop-color="#4B535A"/>

<stop  offset="100%" stop-color="#636A70"/>
</linearGradient>

<linearGradient id="Gradient_2" gradientUnits="userSpaceOnUse" x1="451.45" y1="286.77500000000003" x2="449.65000000000003" y2="318.425" spreadMethod="pad">
<stop  offset="0%" stop-color="#CCCCCC"/>

<stop  offset="46.666666666666664%" stop-color="#4B535A"/>

<stop  offset="100%" stop-color="#636A70"/>
</linearGradient>

<linearGradient id="Gradient_3" gradientUnits="userSpaceOnUse" x1="270.36249999999995" y1="223.79999999999998" x2="277.9375" y2="339.1" spreadMethod="pad">
<stop  offset="0%" stop-color="#CCCCCC"/>

<stop  offset="46.666666666666664%" stop-color="#4B535A"/>

<stop  offset="100%" stop-color="#636A70"/>
</linearGradient>

<linearGradient id="Gradient_4" gradientUnits="userSpaceOnUse" x1="18.8" y1="106.5875" x2="18.8" y2="116.7125" spreadMethod="pad">
<stop  offset="0%" stop-color="#999999"/>

<stop  offset="27.84313725490196%" stop-color="#CCCCCC"/>

<stop  offset="48.627450980392155%" stop-color="#FFFFFF"/>

<stop  offset="70.58823529411765%" stop-color="#CCCCCC"/>

<stop  offset="100%" stop-color="#999999"/>
</linearGradient>

<linearGradient id="Gradient_5" gradientUnits="userSpaceOnUse" x1="128.4" y1="106.5875" x2="128.4" y2="116.7125" spreadMethod="pad">
<stop  offset="0%" stop-color="#252525"/>

<stop  offset="27.84313725490196%" stop-color="#494949"/>

<stop  offset="48.627450980392155%" stop-color="#999999"/>

<stop  offset="70.58823529411765%" stop-color="#2C2C2C"/>

<stop  offset="100%" stop-color="#000000"/>
</linearGradient>

<linearGradient id="Gradient_6" gradientUnits="userSpaceOnUse" x1="239" y1="106.5875" x2="239" y2="116.7125" spreadMethod="pad">
<stop  offset="0%" stop-color="#999999"/>

<stop  offset="27.84313725490196%" stop-color="#CCCCCC"/>

<stop  offset="48.627450980392155%" stop-color="#FFFFFF"/>

<stop  offset="70.58823529411765%" stop-color="#CCCCCC"/>

<stop  offset="100%" stop-color="#999999"/>
</linearGradient>

<g id="Layer1_0_FILL">
<path fill="url(#Gradient_1)" stroke="none" d="
M 374.65 174.85
Q 389.65 174.35 389.65 160.1
L 389.65 110.85
Q 389.65 96.55 374.65 96.15
L 171.6 96.15
Q 156.45 96.55 156.45 110.85
L 156.45 160.1
Q 156.45 174.35 171.6 174.85
L 374.65 174.85
M 373.4 101.5
Q 384.4494140625 103.7681640625 384.45 116.2
L 384.45 154.45
Q 384.4671875 169.1833984375 368.9 169.7
L 177.1 169.7
Q 161.4814453125 169.1833984375 161.5 154.45
L 161.5 116.2
Q 161.4794921875 101.46328125 177.1 101.05
L 368.9 101.05
Q 371.3029296875 101.096484375 373.4 101.5 Z"/>

<path fill="#FFFFFF" stroke="none" d="
M 384.45 116.2
Q 384.4494140625 103.7681640625 373.4 101.5 371.3029296875 101.096484375 368.9 101.05
L 177.1 101.05
Q 161.4794921875 101.46328125 161.5 116.2
L 161.5 154.45
Q 161.4814453125 169.1833984375 177.1 169.7
L 368.9 169.7
Q 384.4671875 169.1833984375 384.45 154.45
L 384.45 116.2
M 373.2 102.5
Q 383.4505859375 104.6314453125 383.45 116.2
L 383.45 154.45
Q 383.4326171875 168.21640625 368.85 168.7
L 177.15 168.7
Q 162.5189453125 168.2046875 162.5 154.45
L 162.5 116.2
Q 162.5203125 102.4482421875 177.15 102.05
L 368.9 102.05
Q 371.1970703125 102.103515625 373.2 102.5 Z"/>

<path fill="#003366" fill-opacity="0.6980392156862745" stroke="none" d="
M 383.45 116.2
Q 383.4505859375 104.6314453125 373.2 102.5 371.1970703125 102.103515625 368.9 102.05
L 177.15 102.05
Q 162.5203125 102.4482421875 162.5 116.2
L 162.5 154.45
Q 162.5189453125 168.2046875 177.15 168.7
L 368.85 168.7
Q 383.4326171875 168.21640625 383.45 154.45
L 383.45 116.2 Z"/>
</g>

<g id="Layer1_1_FILL">
<path fill="url(#Gradient_2)" stroke="none" d="
M 444.95 294.3
L 444.95 294.5 441.55 307 451.45 299.75 451.85 299.35 452.05 299.35 462.15 306.8 458.4 293.95 458.6 293.75 468.3 285.9 455.5 285.65 455.5 285.5 451.45 273.2 447.45 285.9 434.75 286.25 444.95 294.3 Z"/>
</g>

<g id="Layer1_2_FILL">
<path fill="url(#Gradient_3)" stroke="none" d="
M 389.65 221.6
Q 389.65 207.35 374.65 206.95
L 171.6 206.95
Q 156.45 207.35 156.45 221.6
L 156.45 307.05
Q 156.5 309.45 157.05 311.4 159.4 320.7 171.6 321.1
L 374.65 321.1
Q 389.65 320.65 389.65 306.35
L 389.65 221.6
M 373.4 212.3
Q 384.4494140625 214.5681640625 384.45 227
L 384.45 300.7
Q 384.4671875 315.4333984375 368.9 315.95
L 177.1 315.95
Q 161.4814453125 315.4333984375 161.5 300.7
L 161.5 227
Q 161.4802734375 212.26484375 177.1 211.8
L 368.9 211.8
Q 371.3150390625 211.897265625 373.4 212.3 Z"/>

<path fill="#FFFFFF" stroke="none" d="
M 384.45 227
Q 384.4494140625 214.5681640625 373.4 212.3 371.3150390625 211.897265625 368.9 211.8
L 177.1 211.8
Q 161.4802734375 212.26484375 161.5 227
L 161.5 300.7
Q 161.4814453125 315.4333984375 177.1 315.95
L 368.9 315.95
Q 384.4671875 315.4333984375 384.45 300.7
L 384.45 227
M 373.2 213.3
Q 383.4505859375 215.4314453125 383.45 227
L 383.45 300.7
Q 383.4326171875 314.46640625 368.85 314.95
L 177.15 314.95
Q 162.5189453125 314.4546875 162.5 300.7
L 162.5 227
Q 162.51953125 213.2466796875 177.15 212.8
L 368.9 212.8
Q 371.1958984375 212.9046875 373.2 213.3 Z"/>

<path fill="#003366" fill-opacity="0.6980392156862745" stroke="none" d="
M 383.45 227
Q 383.4505859375 215.4314453125 373.2 213.3 371.1958984375 212.9046875 368.9 212.8
L 177.15 212.8
Q 162.51953125 213.2466796875 162.5 227
L 162.5 300.7
Q 162.5189453125 314.4546875 177.15 314.95
L 368.85 314.95
Q 383.4326171875 314.46640625 383.45 300.7
L 383.45 227 Z"/>
</g>

<g id="Layer0_0_FILL">
<path fill="url(#Gradient_4)" stroke="none" d="
M 5.65 116.85
L 37.3 116.75 37.3 106.65 5.65 106.6
Q 3.55 106.6 2.05 108.1 0.55 109.55 0.55 111.7 0.55 113.85 2.1 115.25 3.45 116.85 5.65 116.85 Z"/>

<path fill="url(#Gradient_5)" stroke="none" d="
M 219.75 116.75
L 219.8 106.65 37.3 106.65 37.3 116.75 219.75 116.75 Z"/>

<path fill="url(#Gradient_6)" stroke="none" d="
M 219.8 106.65
L 219.75 116.75 253.35 116.75
Q 255.4 116.85 256.9 115.35 258.45 113.85 258.4 111.8 258.4 109.65 256.9 108.1 255.4 106.65 253.25 106.65
L 219.8 106.65 Z"/>
</g>

<path id="Layer1_1_1_STROKES" stroke="#FFFFFF" stroke-width="1" stroke-linejoin="round" stroke-linecap="round" fill="none" d="
M 451.45 299.75
L 441.55 307 444.95 294.5 444.95 294.3 434.75 286.25 447.45 285.9 451.45 273.2 455.5 285.5 455.5 285.65 468.3 285.9 458.6 293.75 458.4 293.95 462.15 306.8 452.05 299.35 451.85 299.35 451.45 299.75 Z"/>
</defs>

<g transform="matrix( 1, 0, 0, 1, -143.6,-79.1) ">
<use xlink:href="#Layer1_0_FILL"/>
</g>

<g transform="matrix( 1, 0, 0, 1, -322.05,-272.2) ">
<use xlink:href="#Layer1_1_FILL"/>

<use xlink:href="#Layer1_1_1_STROKES"/>
</g>

<g transform="matrix( 1, 0, 0, 1, -143.6,-79.1) ">
<use xlink:href="#Layer1_2_FILL"/>
</g>

<g transform="matrix( 1, 0, 0, 1, 0,0.15) ">
<use xlink:href="#Layer0_0_FILL"/>
</g>
</svg>
