
<svg xmlns="http://www.w3.org/2000/svg" version="1.1" xmlns:xlink="http://www.w3.org/1999/xlink" preserveAspectRatio="none" x="0px" y="0px" width="181px" height="199px" viewBox="0 0 181 199">
<defs>
<filter id="Filter_1" x="-20%" y="-20%" width="140%" height="140%" color-interpolation-filters="sRGB">
<feColorMatrix in="SourceGraphic" type="matrix" values="1 0 0 0 0 0 1 0 0 0 0 0 1 0 0 0 0 0 0.19 0" result="result1"/>
</filter>

<g id="S_mbolo_31_0_Layer0_0_FILL">
<path fill="#000000" stroke="none" d="
M 173.9 126.4
Q 184.1 118.05 175.65 107.8
L 91.6 5.7
Q 83.25 -4.6 73.1 3.75
L 5.5 59.25
Q -4.55 67.5 3.75 77.75
L 87.9 180.1
Q 96.2 190.2 106.4 182.05
L 173.9 126.4 Z"/>
</g>

<g id="Layer1_1_FILL">
<path fill="#F2F2F2" stroke="none" d="
M 175.15 126.55
Q 185.35 118.2 176.9 107.95
L 92.85 5.85
Q 84.5 -4.45 74.35 3.9
L 6.75 59.4
Q -3.3 67.65 5 77.9
L 89.15 180.25
Q 97.45 190.35 107.65 182.2
L 175.15 126.55 Z"/>
</g>

<g id="Layer0_0_FILL">
<path fill="#F2F2F2" stroke="none" d="
M 72.6 14
L 70.75 6.75 6.75 59.4
Q -3.3 67.65 5 77.9
L 89.15 180.25
Q 97.45 190.35 107.65 182.2
L 114 177 112.1 169.65 104.35 176
Q 98.6 180.9 93.6 175.05
L 11.05 74.55
Q 6.2 68.65 12.15 63.95
L 72.6 14
M 13.4 65.35
Q 9.1 69.05 12.7 73.3
L 95.2 173.8
Q 98.75 178.2 103.15 174.55
L 111.6 167.5 73.15 16.2 13.4 65.35 Z"/>

<path fill="#E6E9E9" stroke="none" d="
M 170.95 111.45
Q 175.85 117.3 169.95 122.15
L 112.1 169.65 114 177 175.15 126.55
Q 185.35 118.2 176.9 107.95
L 92.85 5.85
Q 84.5 -4.45 74.35 3.9
L 70.75 6.75 72.6 14 77.65 9.95
Q 83.5 5.15 88.35 11
L 170.95 111.45
M 168.7 120.6
Q 173 117.2 169.4 112.8
L 86.85 12.4
Q 83.35 7.85 78.9 11.6
L 73.15 16.2 111.6 167.5 168.7 120.6 Z"/>

<path fill="#DB474C" stroke="none" d="
M 169.95 122.15
Q 175.85 117.3 170.95 111.45
L 88.35 11
Q 83.5 5.15 77.65 9.95
L 72.6 14 12.15 63.95
Q 6.2 68.65 11.05 74.55
L 93.6 175.05
Q 98.6 180.9 104.35 176
L 112.1 169.65 169.95 122.15
M 169.4 112.8
Q 173 117.2 168.7 120.6
L 111.6 167.5 103.15 174.55
Q 98.75 178.2 95.2 173.8
L 12.7 73.3
Q 9.1 69.05 13.4 65.35
L 73.15 16.2 78.9 11.6
Q 83.35 7.85 86.85 12.4
L 169.4 112.8 Z"/>
</g>

<g id="Layer0_1_FILL">
<path fill="#DB474C" stroke="none" d="
M 28.1 63.5
Q 25.95 63.4 23.9 64.25 21.9 65.3 20.75 67.1 18.75 70.1 19.55 73.3 20.25 76.65 23.15 78.45 24.95 79.7 27.2 79.75
L 41.4 80.7 44.15 70.1
Q 45 67.6 44.3 65.45 43.8 62 42.25 60.2 40.85 58.25 38.55 57.7 36.45 57.2 34.1 57.7 31.35 58.2 29.7 60.2 29.15 61 28.65 61.9 28.3 62.65 28.1 63.5
M 166.2 113.6
Q 165.4 110.25 162.4 108.6 160.65 107.55 158.35 107.45
L 144.2 107 141.75 117.6
Q 141.15 120.1 141.75 122.2 142.35 125.6 143.8 127.55 145.35 129.2 147.5 129.85 149.8 130.25 152.25 129.65 154.95 129.1 156.55 127 156.95 126.2 157.6 125.35 157.95 124.65 157.95 123.7 160.25 123.8 162.1 122.75 164.1 121.75 165.15 119.75 166.95 116.9 166.2 113.6 Z"/>
</g>

<g id="Layer0_2_FILL">
<path fill="#DB474C" stroke="none" d="
M 113 72.15
Q 113.75 67.25 110.7 63.25 104.5 55.2 90.1 56.8 77.55 58.15 69 64.7 56 74.7 53.7 90.85 51.35 107.05 61.35 120.05 71.4 133.2 87.65 135.05 103.9 136.9 117.1 126.8 125.5 120.35 130.1 108.65 135.3 95.35 129.35 87.6 126.35 83.65 121.25 83.1 116.15 82.45 112.3 85.4 110 87.15 106.75 99.4 105.3 104.9 101.55 107.75 96.75 111.45 90.75 110.65 84.8 109.9 81.15 105.15 77.45 100.3 78.15 94.25 78.85 88.25 83.75 84.5 88.15 81.15 99.4 82.45 104.65 82.95 108.3 80.15 112.3 77.1 113 72.15
M 107.75 65.5
Q 109.75 68.15 109.2 71.65 108.65 75.15 105.95 77.25 103.65 79 95.5 78.1 87.25 77.15 81.5 81.55 75.45 86.2 74.5 93.75 73.6 101.35 78.3 107.5 82.8 113.35 90.4 114.35 98.1 115.25 103.9 110.8 109.05 106.85 110.8 98.4 112.55 89.9 114.5 88.4 117.2 86.3 120.8 86.8 124.45 87.25 126.4 89.9 131.4 96.35 126.3 108.15 121.95 118.35 114.8 123.8 102.95 132.85 88.25 131.2 73.45 129.55 64.4 117.75 55.45 106.1 57.45 91.35 59.5 76.65 71.25 67.65 78.45 62.15 89.7 60.6 102.65 58.85 107.75 65.5
M 105.6 71.15
Q 106 69.2 104.9 67.75 100.85 62.5 89.35 64.45 79.35 66.15 73.55 70.6 63.1 78.6 61.3 91.85 59.45 105.15 67.35 115.5 75.5 126.15 88.75 127.6 101.9 129 112.6 120.8 118.35 116.4 122.5 107.55 127.3 97.25 123.5 92.25 122.5 90.95 120.5 90.6 118.55 90.2 117.2 91.25 115.25 97.55 113.4 103.85 111.3 109.8 106.15 113.75 98.95 119.25 89.9 118.05 80.85 116.85 75.4 109.75 69.5 102.05 70.85 93.15 72.05 84.15 79.8 78.25 85.65 73.75 94.45 74.2 103.2 74.75 103.9 74.25 105.35 73.15 105.6 71.15 Z"/>
</g>
</defs>

<g transform="matrix( 1, 0, 0, 1, 0.25,13.15) ">
<g transform="matrix( 1, 0, 0, 1, 0,0) ">
<use filter="url(#Filter_1)" xlink:href="#S_mbolo_31_0_Layer0_0_FILL"/>
</g>
</g>

<g transform="matrix( 1, 0, 0, 1, 0,0) ">
<use xlink:href="#Layer1_1_FILL"/>
</g>

<g transform="matrix( 1, 0, 0, 1, 0,0) ">
<use xlink:href="#Layer0_0_FILL"/>
</g>

<g transform="matrix( 1, 0, 0, 1, 0,0) ">
<use xlink:href="#Layer0_1_FILL"/>
</g>

<g transform="matrix( 1, 0, 0, 1, 0,0) ">
<use xlink:href="#Layer0_2_FILL"/>
</g>
</svg>
