
<svg xmlns="http://www.w3.org/2000/svg" version="1.1" xmlns:xlink="http://www.w3.org/1999/xlink" preserveAspectRatio="none" x="0px" y="0px" width="146px" height="178px" viewBox="0 0 146 178">
<defs>
<filter id="Filter_1" x="-20%" y="-20%" width="140%" height="140%" color-interpolation-filters="sRGB">
<feColorMatrix in="SourceGraphic" type="matrix" values="1 0 0 0 0 0 1 0 0 0 0 0 1 0 0 0 0 0 0.19 0" result="result1"/>
</filter>

<g id="S_mbolo_30_0_Layer0_0_FILL">
<path fill="#000000" stroke="none" d="
M 100.3 8.7
Q 96.5 -2.85 85 0.95
L 8.55 26.5
Q -2.8 30.2 0.95 41.9
L 39.65 157.55
Q 43.5 169.1 54.95 165.35
L 131.35 139.7
Q 142.85 135.95 139 124.35
L 100.3 8.7 Z"/>
</g>

<g id="Layer1_1_FILL">
<path fill="#F2F2F2" stroke="none" d="
M 106.35 9.1
Q 102.55 -2.45 91.05 1.35
L 14.6 26.9
Q 3.25 30.6 7 42.3
L 45.7 157.95
Q 49.55 169.5 61 165.75
L 137.4 140.1
Q 148.9 136.35 145.05 124.75
L 106.35 9.1 Z"/>
</g>

<g id="Layer0_0_FILL">
<path fill="#333333" stroke="none" d="
M 100.8 12.2
Q 98.55 5.45 91.9 7.7
L 86.2 9.55 17.8 32.6
Q 11.2 34.7 13.35 41.45
L 51.25 154.95
Q 53.6 161.65 60.2 159.4
L 69 156.5 134.35 134.7
Q 141 132.4 138.75 125.75
L 100.8 12.2
M 86 11.7
L 92.45 9.45
Q 97.4 7.8 99.05 12.8
L 137.05 126.35
Q 138.7 131.4 133.75 132.9
L 69.3 154.45 59.6 157.7
Q 54.7 159.4 53 154.4
L 15.1 40.9
Q 13.45 35.9 18.4 34.25
L 86 11.7 Z"/>

<path fill="#F2F2F2" stroke="none" d="
M 18.4 34.25
Q 13.45 35.9 15.1 40.9
L 53 154.4
Q 54.7 159.4 59.6 157.7
L 69.3 154.45 86 11.7 18.4 34.25
M 86.2 9.55
L 87 2.7 14.6 26.9
Q 3.25 30.6 7 42.3
L 45.7 157.95
Q 49.55 169.5 61 165.75
L 68.15 163.4 69 156.5 60.2 159.4
Q 53.6 161.65 51.25 154.95
L 13.35 41.45
Q 11.2 34.7 17.8 32.6
L 86.2 9.55 Z"/>

<path fill="#E6E9E9" stroke="none" d="
M 92.45 9.45
L 86 11.7 69.3 154.45 133.75 132.9
Q 138.7 131.4 137.05 126.35
L 99.05 12.8
Q 97.4 7.8 92.45 9.45
M 87 2.7
L 86.2 9.55 91.9 7.7
Q 98.55 5.45 100.8 12.2
L 138.75 125.75
Q 141 132.4 134.35 134.7
L 69 156.5 68.15 163.4 137.4 140.1
Q 148.9 136.35 145.05 124.75
L 106.35 9.1
Q 102.55 -2.45 91.05 1.35
L 87 2.7 Z"/>
</g>

<g id="Layer0_1_FILL">
<path fill="#424242" stroke="none" d="
M 130.35 125.45
Q 130.2 123.75 129.35 122.3
L 130.4 120.15
Q 131.85 117.65 131.1 114.7 130.35 112 127.75 110.55 126.1 109.7 124.35 109.75 123.15 109.75 121.8 110.15 120.65 110.65 119.6 111.55 118.9 110.3 118.9 109.3 118.85 107.95 120.3 107.55
L 119.95 106.8 112.65 109.45 112.85 110.3
Q 114.3 109.75 115.2 110.7 115.85 111.55 115.95 112.9 114.65 112.9 113.4 113.25 112.25 113.65 111.2 114.55 109.75 115.7 109.1 117.5 108.25 120.15 109.3 122.85 110.55 125.45 113.35 126.5
L 115.6 127.4
Q 115.95 129.05 116.75 130.35 118.35 132.9 121.45 133.65 123.65 134 125.6 133.35 127.7 132.65 128.9 130.9 130.9 128.4 130.35 125.45
M 44.75 45.5
Q 43.8 42.75 41.1 41.45
L 38.95 40.3
Q 38.8 38.6 38.15 37.25 36.85 34.5 33.85 33.4 31.7 32.85 29.65 33.25 27.55 33.75 26.15 35.35 23.85 37.65 24.1 40.6 24.05 42.35 24.75 43.85
L 23.5 45.9
Q 21.75 48.25 22.2 51.25 22.65 54 25.1 55.75 26.65 56.75 28.35 56.9 29.55 57.05 30.95 56.8 32.15 56.4 33.3 55.65 33.85 56.95 33.75 57.95 33.65 59.25 32.15 59.5
L 32.45 60.3 39.95 58.5 39.85 57.6
Q 38.35 58 37.55 56.95 37 56.05 37.05 54.65 38.35 54.8 39.65 54.6 40.8 54.3 41.95 53.55 43.55 52.55 44.4 50.8 45.5 48.3 44.75 45.5 Z"/>
</g>

<g id="Layer0_2_FILL">
<path fill="#424242" stroke="none" d="
M 79.45 59.15
Q 77.25 53.55 73.45 51.1 69.25 48.4 63.85 50.55 58.4 52.7 57.1 57.75 56 62.1 58.15 67.6
L 74 107.5
Q 76.25 113.1 80.05 115.55 84.45 118.25 89.9 116.1 95.35 113.9 96.55 108.95 97.6 104.75 95.3 99.05
L 79.45 59.15
M 65.1 53.8
Q 69.2 52.15 72.25 54.35 74.5 56.05 76.3 60.55
L 92.05 100.25
Q 93.75 104.5 93.25 107.55 92.6 111.3 88.6 112.9 84.4 114.55 81.35 112.25 79 110.5 77.25 106.15
L 61.5 66.45
Q 59.7 61.95 60.25 58.7 60.8 55.5 65.1 53.8
M 73 61.7
Q 71.85 58.8 70.65 57.6 68.9 55.95 66.35 56.95 64.3 57.75 63.75 59.6 63.1 61.35 64.55 65.05
L 80.4 104.95
Q 81.55 107.85 83.05 109.3 84.6 110.7 87.25 109.65 89.25 108.85 89.8 107.1 90.35 105.4 88.85 101.6
L 73 61.7 Z"/>
</g>
</defs>

<g transform="matrix( 1, 0, 0, 1, 0.05,11.4) ">
<g transform="matrix( 1, 0, 0, 1, 0,0) ">
<use filter="url(#Filter_1)" xlink:href="#S_mbolo_30_0_Layer0_0_FILL"/>
</g>
</g>

<g transform="matrix( 1, 0, 0, 1, 0,0) ">
<use xlink:href="#Layer1_1_FILL"/>
</g>

<g transform="matrix( 1, 0, 0, 1, 0,0) ">
<use xlink:href="#Layer0_0_FILL"/>
</g>

<g transform="matrix( 1, 0, 0, 1, 0,0) ">
<use xlink:href="#Layer0_1_FILL"/>
</g>

<g transform="matrix( 1, 0, 0, 1, 0,0) ">
<use xlink:href="#Layer0_2_FILL"/>
</g>
</svg>
