
<svg xmlns="http://www.w3.org/2000/svg" version="1.1" xmlns:xlink="http://www.w3.org/1999/xlink" preserveAspectRatio="none" x="0px" y="0px" width="212px" height="216px" viewBox="0 0 212 216">
<defs>
<filter id="Filter_1" x="-20%" y="-20%" width="140%" height="140%" color-interpolation-filters="sRGB">
<feColorMatrix in="SourceGraphic" type="matrix" values="1 0 0 0 0 0 1 0 0 0 0 0 1 0 0 0 0 0 0.19 0" result="result1"/>
</filter>

<g id="S_mbolo_32_0_Layer0_0_FILL">
<path fill="#000000" stroke="none" d="
M 206.45 116.75
Q 215.55 104.9 203.65 95.75
L 85.5 4.1
Q 73.7 -5.15 64.6 6.55
L 3.9 84.65
Q -5.1 96.25 6.7 105.5
L 124.95 197.2
Q 136.6 206.35 145.95 194.85
L 206.45 116.75 Z"/>
</g>

<g id="Layer1_1_FILL">
<path fill="#F2F2F2" stroke="none" d="
M 206.75 117.15
Q 215.85 105.3 203.95 96.15
L 85.8 4.5
Q 74 -4.75 64.9 6.95
L 4.2 85.05
Q -4.8 96.65 7 105.9
L 125.25 197.6
Q 136.9 206.75 146.25 195.25
L 206.75 117.15 Z"/>
</g>

<g id="Layer0_0_FILL">
<path fill="#F2F2F2" stroke="none" d="
M 65.6 18.5
L 61.75 11.05 4.2 85.05
Q -4.8 96.65 7 105.9
L 125.25 197.6
Q 136.9 206.75 146.25 195.25
L 151.85 187.85 147.95 180.3 140.95 189.25
Q 135.85 196.1 128.9 190.9
L 12.75 100.7
Q 5.95 95.5 11.45 88.75
L 65.6 18.5
M 13.1 89.95
Q 9.2 95.1 14.35 98.8
L 130.25 189
Q 135.35 193.05 139.25 187.9
L 146.85 178 66.75 20.9 13.1 89.95 Z"/>

<path fill="#E6E9E9" stroke="none" d="
M 198.3 101.5
Q 205.15 106.6 199.9 113.5
L 147.95 180.3 151.85 187.85 206.75 117.15
Q 215.85 105.3 203.95 96.15
L 85.8 4.5
Q 74 -4.75 64.9 6.95
L 61.75 11.05 65.6 18.5 70.05 12.85
Q 75.35 6.05 82.15 11.35
L 198.3 101.5
M 198.15 112.15
Q 202 107.25 196.95 103.2
L 80.85 13.25
Q 75.9 9.2 71.85 14.3
L 66.75 20.9 146.85 178 198.15 112.15 Z"/>

<path fill="#333333" stroke="none" d="
M 199.9 113.5
Q 205.15 106.6 198.3 101.5
L 82.15 11.35
Q 75.35 6.05 70.05 12.85
L 65.6 18.5 11.45 88.75
Q 5.95 95.5 12.75 100.7
L 128.9 190.9
Q 135.85 196.1 140.95 189.25
L 147.95 180.3 199.9 113.5
M 196.95 103.2
Q 202 107.25 198.15 112.15
L 146.85 178 139.25 187.9
Q 135.35 193.05 130.25 189
L 14.35 98.8
Q 9.2 95.1 13.1 89.95
L 66.75 20.9 71.85 14.3
Q 75.9 9.2 80.85 13.25
L 196.95 103.2 Z"/>
</g>

<g id="Layer0_1_FILL">
<path fill="#424242" stroke="none" d="
M 40.2 97.2
Q 40.2 97.15 39.85 97 41.35 96.55 42.35 95.75 43.35 94.7 44.2 93.4 45.75 90.7 44.7 87.6 43.9 84.6 41.15 83 40.9 82.9 40.6 82.9
L 38.05 82.1
Q 37.65 82.1 37.25 82.1
L 23.95 82.55 22.4 95.75
Q 21.75 98.8 23.85 101.3 25.85 103.75 28.9 104.2 31 104.55 32.8 103.75 34.05 103.25 35.15 102.2 36.2 101.25 36.9 100 38.15 100.95 38.6 102 39.05 103.3 37.85 104.2
L 38.45 104.95 44.85 99.2 44.3 98.5
Q 42.9 99.7 41.85 99 41.2 98.6 40.9 98.35
L 40.9 98.4 40.2 97.2
M 184.45 97.75
Q 182.35 97.55 180.4 98.4 179.1 98.8 178 99.8 176.95 100.75 176.3 102 175.1 101.05 174.6 100.15 174.25 98.75 175.45 97.75
L 174.75 97.1 168.4 102.8 168.85 103.4
Q 170.2 102.35 171.55 103.05 171.85 103.3 172.2 103.75
L 172.3 103.75 173.1 104.9 173.2 104.95
Q 171.85 105.35 170.85 106.3 169.65 107.3 169.05 108.65 167.55 111.35 168.4 114.45 169.4 117.3 172.15 118.95 172.3 119.1 172.55 119.15
L 175.1 119.9
Q 175.55 119.9 175.95 119.9
L 188.65 119.6 189.25 119.45 190.9 106.45
Q 191.35 103.2 189.35 100.6 187.35 98.15 184.45 97.75 Z"/>
</g>

<g id="Layer0_2_FILL">
<path fill="#424242" stroke="none" d="
M 154.55 90.8
Q 153.8 84.9 149.2 81.45 144.75 78.15 129.25 74.55 118.45 72.1 100.45 69.05 90.35 67.45 80.2 65.7 74.9 64.5 70.9 65.6 66.95 66.85 63.85 70.95 61.15 74.6 61.2 79.15 61.25 83.65 63.55 88 68.1 97.25 72.6 106.5 80.3 122.3 86.15 132.5 94 146.45 98.25 149.6 102.85 153.05 108.75 152.1 114.55 151.2 118.05 146.45 122.25 140.85 119.95 133.5 119.3 131.25 113.9 121
L 126.2 104.55
Q 137.65 106.9 139.95 106.9 147.5 107.05 151.75 101.35 155.3 96.65 154.55 90.8
M 150.2 91.5
Q 150.6 95.65 148.25 98.8 144.85 103.35 136.75 102.4 130.55 101.05 124.35 99.75
L 108.7 120.7
Q 115.3 133 115.8 135.05 117.1 140.45 114.6 143.8 112.1 147.2 108.05 147.85 104.05 148.5 100.8 146.05 97.35 143.5 89.45 129.45 84.7 120.95 76.15 103.45 68.7 88.2 67.1 85.35 65.55 82.4 65.35 79.35 65.2 76.3 67.3 73.5 69.55 70.5 72.7 69.7 75.25 69.25 79.25 69.95 89 71.65 98.55 73.25 115.2 76.15 127.6 78.9 143.2 82.35 146.55 84.85 149.8 87.3 150.2 91.5
M 122.5 94.9
Q 123.5 95.15 133.1 97.45 142.55 99.1 144.7 96.2 146.1 94.3 145.9 92 145.75 89.7 144 88.35 142 86.85 126.35 83.55 119.5 82.05 97.05 77.8 81.25 74.85 78.5 74.25 75.7 73.7 74.15 73.95 72.1 74.4 70.8 76.1 69.5 77.85 69.8 80 70.05 81.55 71.3 83.8 75.5 92.35 79.85 100.85 87.6 116.2 93.8 127.3 101.4 141.15 103.4 142.65 105.15 144 107.45 143.45 109.75 143 111.05 141.2 112.85 138.8 110.55 132.9 107 126.6 103.55 120.3
L 122.5 94.9
M 86.05 87.5
L 111.15 92.6 98.15 110 86.05 87.5
M 103.6 95.5
L 94.25 93.6 98.75 102 103.6 95.5 Z"/>
</g>
</defs>

<g transform="matrix( 1, 0, 0, 1, 1.3,14.4) ">
<g transform="matrix( 1, 0, 0, 1, 0,0) ">
<use filter="url(#Filter_1)" xlink:href="#S_mbolo_32_0_Layer0_0_FILL"/>
</g>
</g>

<g transform="matrix( 1, 0, 0, 1, 0,0) ">
<use xlink:href="#Layer1_1_FILL"/>
</g>

<g transform="matrix( 1, 0, 0, 1, 0,0) ">
<use xlink:href="#Layer0_0_FILL"/>
</g>

<g transform="matrix( 1, 0, 0, 1, 0,0) ">
<use xlink:href="#Layer0_1_FILL"/>
</g>

<g transform="matrix( 1, 0, 0, 1, 0,0) ">
<use xlink:href="#Layer0_2_FILL"/>
</g>
</svg>
