
<svg xmlns="http://www.w3.org/2000/svg" version="1.1" xmlns:xlink="http://www.w3.org/1999/xlink" preserveAspectRatio="none" x="0px" y="0px" width="113px" height="147px" viewBox="0 0 113 147">
<defs>
<filter id="Filter_1" x="-20%" y="-20%" width="140%" height="140%" color-interpolation-filters="sRGB">
<feColorMatrix in="SourceGraphic" type="matrix" values="1 0 0 0 0 0 1 0 0 0 0 0 1 0 0 0 0 0 0.19 0" result="result1"/>
</filter>

<g id="S_mbolo_29_0_Layer0_0_FILL">
<path fill="#000000" stroke="none" d="
M 103.25 17.05
Q 104.05 5.9 93.05 5.15
L 19.6 0.05
Q 8.6 -0.7 7.75 10.45
L 0.05 121.6
Q -0.7 132.7 10.3 133.5
L 83.75 138.55
Q 94.8 139.3 95.55 128.2
L 103.25 17.05 Z"/>
</g>

<g id="Layer1_1_FILL">
<path fill="#F2F2F2" stroke="none" d="
M 112.6 17.25
Q 113.4 6.1 102.4 5.35
L 28.95 0.25
Q 17.95 -0.5 17.1 10.65
L 9.4 121.8
Q 8.65 132.9 19.65 133.7
L 93.1 138.75
Q 104.15 139.5 104.9 128.4
L 112.6 17.25 Z"/>
</g>

<g id="Layer0_0_FILL">
<path fill="#F2F2F2" stroke="none" d="
M 95.4 10.6
L 98.45 5.1 28.95 0.25
Q 17.95 -0.5 17.1 10.65
L 9.4 121.8
Q 8.65 132.9 19.65 133.7
L 26.55 134.15 29.6 128.7 21.2 128.15
Q 14.85 127.7 15.2 121.25
L 22.8 12.1
Q 23.25 5.6 29.65 6.15
L 95.4 10.6
M 29.55 7.8
Q 24.75 7.45 24.45 12.2
L 16.85 121.4
Q 16.5 126.1 21.35 126.45
L 30.5 127.1 94.5 12.3 29.55 7.8 Z"/>

<path fill="#E6E9E9" stroke="none" d="
M 100.9 11.05
Q 107.25 11.4 106.8 17.9
L 99.2 127.1
Q 98.85 133.45 92.4 133.05
L 29.6 128.7 26.55 134.15 93.1 138.75
Q 104.15 139.5 104.9 128.4
L 112.6 17.25
Q 113.4 6.1 102.4 5.35
L 98.45 5.1 95.4 10.6 100.9 11.05
M 100.75 12.75
L 94.5 12.3 30.5 127.1 92.55 131.35
Q 97.25 131.7 97.6 127.05
L 105.15 17.75
Q 105.5 13.05 100.75 12.75 Z"/>

<path fill="#DB474C" stroke="none" d="
M 106.8 17.9
Q 107.25 11.4 100.9 11.05
L 95.4 10.6 29.65 6.15
Q 23.25 5.6 22.8 12.1
L 15.2 121.25
Q 14.85 127.7 21.2 128.15
L 29.6 128.7 92.4 133.05
Q 98.85 133.45 99.2 127.1
L 106.8 17.9
M 94.5 12.3
L 100.75 12.75
Q 105.5 13.05 105.15 17.75
L 97.6 127.05
Q 97.25 131.7 92.55 131.35
L 30.5 127.1 21.35 126.45
Q 16.5 126.1 16.85 121.4
L 24.45 12.2
Q 24.75 7.45 29.55 7.8
L 94.5 12.3 Z"/>
</g>

<g id="Layer0_1_FILL">
<path fill="#DB474C" stroke="none" d="
M 96.35 118.7
L 88.85 106.4 79.3 117.25 86.75 129.4 96.35 118.7
M 26.6 22.15
L 34.05 34.3 43.65 23.5 36.15 11.3 26.6 22.15 Z"/>
</g>

<g id="Layer0_2_FILL">
<path fill="#DB474C" stroke="none" d="
M 87.95 76.05
Q 88.75 69.55 86.65 66.7 84.45 63.85 78.05 63.05
L 69.35 62
Q 64.25 61.35 60.75 63.2 57.25 65 56.65 69.9 56.15 73.9 58.7 76.95 61.25 79.95 65.1 80.45
L 66.25 80.5
Q 64.65 80.9 63 80.7 57.65 80.05 54.15 76.1 50.7 72.15 51.35 66.85 51.9 62.15 55.9 59.05 59.9 56 64.55 56.6 66.05 56.75 71 59 73.15 60 74.8 60.25 78.9 60.75 81.85 58.15 84.75 55.6 85.25 51.55 86.05 45.15 79.55 40.85 74.45 37.5 67.45 36.65 54.15 35 43.6 43.05 33.05 51.1 31.45 64.3 29.75 78 38.15 88.25 46.45 98.4 60.3 100.1 70.7 101.4 77.35 98.7 85.6 95.3 86.75 85.9
L 87.95 76.05
M 84.85 75.7
L 83.65 85.55
Q 82.65 93.6 75.25 96.3 69.85 98.25 60.75 97.1 48.05 95.55 40.55 86.4 33 77.25 34.55 64.7 36 52.75 45.55 45.5 55 38.25 67.1 39.75 73 40.45 77.25 42.9 82.8 46.2 82.2 51.3 81.85 54 79.9 55.8 77.9 57.55 75.15 57.25 73.75 57.05 71.35 55.9 66.65 53.7 64.9 53.5 58.85 52.75 53.9 56.65 49.05 60.55 48.35 66.5 47.5 73.25 51.7 78 55.9 82.7 62.6 83.55 66.6 84.05 70.5 82.85
L 71.1 78.35
Q 65.2 77.6 63.2 76.7 59.1 74.95 59.7 70.3 60.15 66.75 63 65.55 65.2 64.65 68.95 65.1
L 77.65 66.15
Q 82.6 66.8 84.05 68.75 85.5 70.65 84.85 75.7
M 82.05 72.4
Q 82.05 71.05 81.45 70.25 79.45 69.45 77.3 69.15
L 68.6 68.1
Q 66.25 67.8 64.55 68.25 62.95 68.7 62.65 70.8 62.4 72.85 64.35 73.85 66.4 74.85 69.45 75.25 69.95 75.3 71.85 75.45 73.75 75.6 74.45 75.65
L 73.25 85.45
Q 67.7 87.3 62.25 86.65 54.35 85.65 49.4 79.85 44.35 74 45.35 66.15 46.2 58.95 52.15 54.3 58 49.55 65.3 50.5 67.3 50.7 70.6 52.35 73.9 53.9 75.55 54.15 77 54.3 77.95 53.4 79 52.45 79.2 50.95 79.6 47.45 74.55 45 71.1 43.3 66.75 42.8 55.85 41.45 47.4 47.85 38.9 54.3 37.6 65.05 36.2 76.4 42.95 84.5 49.7 92.65 61.1 94.05 68.9 95.05 73.55 93.7 79.85 91.8 80.65 85.15
L 81.9 74.9
Q 82.05 73.7 82.05 72.4 Z"/>
</g>
</defs>

<g transform="matrix( 1, 0, 0, 1, 0.35,8.2) ">
<g transform="matrix( 1, 0, 0, 1, 0,0) ">
<use filter="url(#Filter_1)" xlink:href="#S_mbolo_29_0_Layer0_0_FILL"/>
</g>
</g>

<g transform="matrix( 1, 0, 0, 1, 0,0) ">
<use xlink:href="#Layer1_1_FILL"/>
</g>

<g transform="matrix( 1, 0, 0, 1, 0,0) ">
<use xlink:href="#Layer0_0_FILL"/>
</g>

<g transform="matrix( 1, 0, 0, 1, 0,0) ">
<use xlink:href="#Layer0_1_FILL"/>
</g>

<g transform="matrix( 1, 0, 0, 1, 0,0) ">
<use xlink:href="#Layer0_2_FILL"/>
</g>
</svg>
