
<svg xmlns="http://www.w3.org/2000/svg" version="1.1" xmlns:xlink="http://www.w3.org/1999/xlink" preserveAspectRatio="none" x="0px" y="0px" width="153px" height="141px" viewBox="0 0 153 141">
<defs>
<filter id="Filter_1" x="-20%" y="-20%" width="140%" height="140%" color-interpolation-filters="sRGB">
<feColorMatrix in="SourceGraphic" type="matrix" values="1 0 0 0 0 0 1 0 0 0 0 0 1 0 0 0 0 0 0.19 0" result="result1"/>
</filter>

<g id="S_mbolo_27_0_Layer0_0_FILL">
<path fill="#000000" stroke="none" d="
M 135.75 64.65
Q 142.85 57.5 135.85 50.5
L 88.85 3.5
Q 81.8 -3.55 74.7 3.6
L 3.6 74.6
Q -3.55 81.75 3.5 88.8
L 50.55 135.85
Q 57.55 142.85 64.7 135.7
L 135.75 64.65 Z"/>
</g>

<g id="Layer1_0_FILL">
<path fill="#F2F2F2" stroke="none" d="
M 102.2 3.85
Q 95.15 -3.2 88.05 3.95
L 16.95 74.95
Q 9.8 82.1 16.85 89.15
L 63.9 136.2
Q 70.9 143.2 78.05 136.05
L 149.1 65
Q 156.2 57.85 149.2 50.85
L 102.2 3.85 Z"/>
</g>

<g id="Layer0_0_FILL">
<path fill="#E6E9E9" stroke="none" d="
M 268.1 467.9
L 262.75 469.8 305.35 512.4
Q 312.35 519.4 319.5 512.25
L 390.55 441.2
Q 397.65 434.05 390.65 427.05
L 388.15 424.55 382.75 426.5 386.25 430
Q 390.35 434.1 386.3 438.2
L 316.45 508
Q 312.35 512.15 308.2 508.05
L 268.1 467.9
M 309.3 507
Q 312.4 510 315.4 506.95
L 385.25 437.1
Q 388.25 434.1 385.2 431.1
L 381.2 427.05 269.7 467.35 309.3 507 Z"/>

<path fill="#F2F2F2" stroke="none" d="
M 332.5 384.45
Q 336.6 380.4 340.75 384.45
L 382.75 426.5 388.15 424.55 343.65 380.05
Q 336.6 373 329.5 380.15
L 258.4 451.15
Q 251.25 458.3 258.3 465.35
L 262.75 469.8 268.1 467.9 262.7 462.5
Q 258.55 458.4 262.7 454.3
L 332.5 384.45
M 339.65 385.5
Q 336.65 382.5 333.65 385.5
L 263.8 455.35
Q 260.8 458.4 263.8 461.45
L 269.7 467.35 381.2 427.05 339.65 385.5 Z"/>

<path fill="#DB474C" stroke="none" d="
M 340.75 384.45
Q 336.6 380.4 332.5 384.45
L 262.7 454.3
Q 258.55 458.4 262.7 462.5
L 268.1 467.9 308.2 508.05
Q 312.35 512.15 316.45 508
L 386.3 438.2
Q 390.35 434.1 386.25 430
L 382.75 426.5 340.75 384.45
M 333.65 385.5
Q 336.65 382.5 339.65 385.5
L 381.2 427.05 385.2 431.1
Q 388.25 434.1 385.25 437.1
L 315.4 506.95
Q 312.4 510 309.3 507
L 269.7 467.35 263.8 461.45
Q 260.8 458.4 263.8 455.35
L 333.65 385.5 Z"/>
</g>

<g id="Layer0_1_FILL">
<path fill="#DB474C" stroke="none" d="
M 316.85 489.45
L 309.5 489.45
Q 307.75 489.45 306.35 490.05 304.45 491.1 303.5 492.4 302.45 493.55 302.45 495.05 302.7 496.55 303.3 498.05 304.05 499.6 305.65 500.45 306.3 500.65 307 500.85 307.4 500.85 308 500.85 308.35 502.2 309.3 503.4 310.15 504.55 311.6 504.9 313.75 505.55 315.7 504.55 317.75 503.55 318.5 501.55 318.95 500.15 318.6 498.6
L 316.85 489.45
M 340.95 391.85
Q 340.6 390.4 339.6 389.25 338.75 388.1 337.4 387.75 335.15 387.05 333.2 388.1 331.2 389.1 330.5 391.1 330.1 392.5 330.35 394
L 332.1 403.15 339.45 403.15
Q 341.3 403.25 342.55 402.55 344.55 401.65 345.6 400.4 346.35 399.15 346.35 397.55 346.3 395.9 345.6 394.55 344.9 393.05 343.3 392.25 342.7 392.05 341.95 391.85 341.5 391.8 340.95 391.85 Z"/>
</g>

<g id="Layer0_2_FILL">
<path fill="#ED4C52" stroke="none" d="
M 293.75 436.3
Q 291.5 438.55 291.55 441.7 291.6 444.85 293.8 447.05 297.4 450.65 302.5 448.25 303.75 447.7 310.45 442.9 309.65 444.7 307.6 449.65 304.5 457.75 308.05 461.3 311.2 464.45 317.3 462.65 321.9 460.85 326.5 458.95 325.3 460.65 322.3 464.85 318.15 471.4 322.35 475.6 324.65 477.9 327.7 477.95 330.8 477.95 333.1 475.65 337.7 471.05 344.4 460.65 349.15 453.3 350.6 451.25 353.3 447.45 353.75 444.75 354.3 441.25 351.35 438.3 347.7 434.65 338.6 437.65 332.65 440.2 326.65 442.7 327.6 440.45 331.8 430.75 334.75 421.7 331.1 418.05 328.2 415.15 324.6 415.75 321.9 416.15 318.15 418.8 311.85 423 305.55 427.1 297.95 432.1 293.75 436.3
M 296.45 437
Q 297.1 436.55 297.85 436.1
L 319.5 420.65
Q 323.35 417.9 325.75 418 327.75 418 329.5 419.75 331.2 421.45 330.95 423.9 330.85 425.2 329.75 428.3
L 322.65 446.65 341.15 439.7
Q 343.55 438.8 344.45 438.6 347.65 437.9 349.65 439.9 351.4 441.65 351.4 443.85 351.45 446 348.75 449.9
L 333.35 471.6
Q 332.45 473 331.45 474 329.9 475.55 327.65 475.5 325.5 475.45 323.95 473.9 320.7 470.65 325.8 462.85 329.3 458.45 332.85 454 329.95 455.4 327.1 456.85 321.6 459.35 317.3 460.35 311.7 461.55 309.75 459.6 307.8 457.65 309.1 452.05 310.05 448 312.65 442.3 314.05 439.5 315.45 436.6 314.25 437.4 306.45 443.6 298.75 448.7 295.5 445.45 293.85 443.8 293.8 441.65 293.85 439.5 295.4 437.95 295.9 437.45 296.45 437
M 297.05 439.6
Q 296.15 440.5 296.25 441.7 296.3 442.95 297.1 443.75 298.3 444.95 299.85 444.5 300.55 444.2 302.45 443
L 320.3 430.25 311.8 452.15
Q 310.9 454.45 310.75 455.2 310.4 457.15 311.3 458.05 312.3 459.05 314.3 458.65 314.85 458.5 317.25 457.6
L 339.15 449.1 326.45 467
Q 325.25 468.7 324.95 469.6 324.5 471.15 325.65 472.3 326.6 473.25 327.7 473.35 328.85 473.4 329.85 472.4 330.15 472.1 330.6 471.45 331.05 470.8 331.5 470.25
L 346.8 448.55
Q 348.6 446.05 348.95 445.15 349.7 443.15 348.1 441.55 347 440.45 345.05 440.8 344.4 440.85 342.05 441.8
L 318.75 450.6 327.6 427.35
Q 328.45 425.1 328.6 424.25 328.9 422.35 327.8 421.25 326.35 419.8 324.2 420.55 323.2 420.95 320.85 422.6
L 299.15 437.9
Q 298.95 438.1 298.4 438.45 297.85 438.8 297.05 439.6 Z"/>
</g>
</defs>

<g transform="matrix( 1, 0, 0, 1, 0.35,1.35) ">
<g transform="matrix( 1, 0, 0, 1, 0,0) ">
<use filter="url(#Filter_1)" xlink:href="#S_mbolo_27_0_Layer0_0_FILL"/>
</g>
</g>

<g transform="matrix( 1, 0, 0, 1, 0,0) ">
<use xlink:href="#Layer1_0_FILL"/>
</g>

<g transform="matrix( 1, 0, 0, 1, -241.45,-376.2) ">
<use xlink:href="#Layer0_0_FILL"/>
</g>

<g transform="matrix( 1, 0, 0, 1, -241.45,-376.2) ">
<use xlink:href="#Layer0_1_FILL"/>
</g>

<g transform="matrix( 1, 0, 0, 1, -241.45,-376.2) ">
<use xlink:href="#Layer0_2_FILL"/>
</g>
</svg>
