
<svg xmlns="http://www.w3.org/2000/svg" version="1.1" xmlns:xlink="http://www.w3.org/1999/xlink" preserveAspectRatio="none" x="0px" y="0px" width="145px" height="150px" viewBox="0 0 145 150">
<defs>
<filter id="Filter_1" x="-20%" y="-20%" width="140%" height="140%" color-interpolation-filters="sRGB">
<feColorMatrix in="SourceGraphic" type="matrix" values="1 0 0 0 0 0 1 0 0 0 0 0 1 0 0 0 0 0 0.19 0" result="result1"/>
</filter>

<g id="S_mbolo_28_0_Layer0_0_FILL">
<path fill="#000000" stroke="none" d="
M 130.75 50.35
Q 136 41.4 127.05 36.2
L 67.95 1.8
Q 59.1 -3.25 53.85 5.7
L 1.95 95.05
Q -3.35 104.05 5.6 109.2
L 64.7 143.55
Q 73.55 148.75 78.8 139.75
L 130.75 50.35 Z"/>
</g>

<g id="Layer1_1_FILL">
<path fill="#F2F2F2" stroke="none" d="
M 142.9 50.65
Q 148.15 41.7 139.2 36.5
L 80.1 2.1
Q 71.25 -2.95 66 6
L 14.1 95.35
Q 8.8 104.35 17.75 109.5
L 76.85 143.85
Q 85.7 149.05 90.95 140.05
L 142.9 50.65 Z"/>
</g>

<g id="Layer0_0_FILL">
<path fill="#F2F2F2" stroke="none" d="
M 131.2 38
L 136.1 34.7 80.1 2.1
Q 71.25 -2.95 66 6
L 14.1 95.35
Q 8.8 104.35 17.75 109.5
L 23.25 112.75 28.1 109.45 21.35 105.55
Q 16.15 102.5 19.15 97.35
L 70.15 9.45
Q 73.15 4.3 78.3 7.3
L 131.2 38
M 77.5 8.65
Q 73.7 6.45 71.5 10.3
L 20.45 98.1
Q 18.25 101.95 22 104.15
L 29.5 108.45 129.8 39.05 77.5 8.65 Z"/>

<path fill="#E6E9E9" stroke="none" d="
M 135.65 40.65
Q 140.8 43.6 137.75 48.75
L 86.75 136.6
Q 83.8 141.75 78.6 138.8
L 28.1 109.45 23.25 112.75 76.85 143.85
Q 85.7 149.05 90.95 140.05
L 142.9 50.65
Q 148.15 41.7 139.2 36.5
L 136.1 34.7 131.2 38 135.65 40.65
M 136.4 48
Q 138.6 44.2 134.85 42
L 129.8 39.05 29.5 108.45 79.35 137.45
Q 83.15 139.65 85.4 135.85
L 136.4 48 Z"/>

<path fill="#333333" stroke="none" d="
M 137.75 48.75
Q 140.8 43.6 135.65 40.65
L 131.2 38 78.3 7.3
Q 73.15 4.3 70.15 9.45
L 19.15 97.35
Q 16.15 102.5 21.35 105.55
L 28.1 109.45 78.6 138.8
Q 83.8 141.75 86.75 136.6
L 137.75 48.75
M 134.85 42
Q 138.6 44.2 136.4 48
L 85.4 135.85
Q 83.15 139.65 79.35 137.45
L 29.5 108.45 22 104.15
Q 18.25 101.95 20.45 98.1
L 71.5 10.3
Q 73.7 6.45 77.5 8.65
L 129.8 39.05 134.85 42 Z"/>
</g>

<g id="Layer0_1_FILL">
<path fill="#424242" stroke="none" d="
M 79.1 117.25
Q 78.2 116.8 77.2 116.6 75.05 116.2 73.05 117.55 71.3 118.65 70.9 120.95 70.85 121.1 70.85 121.25
L 70.95 123.1
Q 71 123.4 71.1 123.7
L 74.25 132.75 83.45 130.85
Q 85.75 130.45 86.9 128.55 88.1 126.7 87.75 124.6 87.55 123.05 86.6 122 85.95 121.25 85.1 120.7 84.15 120.25 83.25 120.1 83.65 119 84.15 118.5 84.95 117.8 85.9 118.5
L 86.2 117.95 80.9 114.8 80.65 115.4
Q 81.6 116 81.5 117.05 81.45 117.35 81.2 117.75
L 80.6 118.5
Q 80.55 118.55 80.55 118.6 79.95 117.75 79.1 117.25
M 84.55 22.75
L 81.5 13.9 72.25 15.7
Q 69.95 16.1 68.75 17.95 67.4 19.75 67.9 22 68.15 23.45 69.2 24.45 69.7 25.2 70.6 25.8 71.55 26.3 72.5 26.5 72.15 27.45 71.55 28.1 70.75 28.75 69.8 28.1
L 69.45 28.6 74.7 31.7 75.1 31.2
Q 74.1 30.6 74.25 29.55 74.3 29.2 74.6 28.8
L 75.1 28.1 75.15 27.95
Q 75.85 28.75 76.55 29.25 77.55 29.8 78.55 29.9 80.75 30.4 82.6 29.15 84.45 27.85 84.85 25.6 84.9 25.5 84.9 25.2
L 84.75 23.35
Q 84.75 23.05 84.55 22.75 Z"/>
</g>

<g id="Layer0_2_FILL">
<path fill="#424242" stroke="none" d="
M 93.4 60.8
Q 93.7 57.55 92.7 55.15 91.7 52.7 89.05 51.15 86.55 49.7 83.8 50.15 81.1 50.5 78.55 52.2 73.25 55.7 67.9 59.1 58.8 64.95 52.95 69.25 45.05 75.1 43.35 77.95 41.6 81.05 42.55 84.6 43.6 88.1 46.7 89.9 50.45 92.05 54.8 90.1 56.1 89.55 61.95 85.5
L 72.95 91.85
Q 72.35 99 72.5 100.4 72.95 105.05 76.75 107.25 79.9 109.05 83.4 108.15 87 107.3 88.75 104.2 90.45 101.25 91.55 91.5 92.25 84.95 92.8 73.5 93.4 61.25 93.4 60.8
M 84 52.75
Q 85.8 52.4 87.7 53.5 89.65 54.65 90.35 56.5 90.95 58.05 90.65 60.65 90.35 66.7 90.05 72.65 89.55 83.1 88.75 90.85 87.8 100.6 86.45 102.85 85.25 105 82.7 105.55 80.2 106.1 78.1 104.9 75.05 103.15 75 98.1 75.4 94.25 75.75 90.35
L 61.75 82.3
Q 54.75 87.2 53.5 87.7 50.35 88.85 48.1 87.6 45.85 86.3 45.15 83.85 44.45 81.45 45.65 79.3 47 77 55.05 71.15 59.9 67.65 69.95 61.2 78.75 55.55 80.1 54.55 82.2 53.1 84 52.75
M 86.35 55.85
Q 85.2 55.2 83.85 55.5 83 55.75 81.65 56.7 70.05 64.55 58.55 72.35 48.8 79.25 47.95 80.65 47.3 81.85 47.8 83.2 48.25 84.5 49.4 85.2 51.05 86.15 54.45 84.3 58.05 81.65 61.65 79.15
L 78.65 88.95
Q 78.6 89.5 77.85 95.55 77.5 101.4 79.4 102.5 80.65 103.25 82.1 103 83.5 102.75 84.15 101.55 84.95 100.2 85.8 90.35 86.4 84.95 87.25 71.95 88 61.25 88.05 60.4 88.25 58.75 87.95 57.8 87.55 56.55 86.35 55.85
M 79.2 81.8
L 67.55 75.05 80.55 65.9 79.2 81.8
M 72.6 74.8
L 76.9 77.25 77.35 71.45 72.6 74.8
M 95.9 39.9
Q 93 40.9 91.9 42.8 90.75 44.85 91.35 47.2 92 49.6 94.1 50.8 95.5 51.6 97.65 51.45 98.2 51.4 103.75 49.9 106.2 49.2 107.15 48.6 108.1 47.95 108.75 46.85 109.9 44.8 109.3 42.5 108.65 40.15 106.55 38.95 104.85 37.95 102.95 38.2 102.2 38.25 100.75 38.7 98.3 39.35 95.9 39.9
M 98.2 41.15
Q 100.55 40.65 101.2 40.45 103.35 39.95 104.1 39.95 104.75 39.95 105.65 40.5 107 41.25 107.45 42.9 107.9 44.6 107.1 45.9 106.15 47.6 102.4 48.5 100.95 48.9 99.5 49.2 98.1 49.55 97.05 49.65 95.9 49.7 95 49.2 93.6 48.4 93.15 46.8 92.65 45.2 93.5 43.75 94.45 42.15 98.2 41.15
M 95.2 44.7
Q 94.7 45.6 95.1 46.6 95.4 47.25 95.95 47.6 96.85 48.1 100.85 47.05 104.95 45.95 105.5 45 105.9 44.3 105.65 43.5 105.45 42.6 104.7 42.2 103.8 41.65 99.75 42.7 95.7 43.8 95.2 44.7 Z"/>
</g>
</defs>

<g transform="matrix( 1, 0, 0, 1, 0.15,4.3) ">
<g transform="matrix( 1, 0, 0, 1, 0,0) ">
<use filter="url(#Filter_1)" xlink:href="#S_mbolo_28_0_Layer0_0_FILL"/>
</g>
</g>

<g transform="matrix( 1, 0, 0, 1, 0,0) ">
<use xlink:href="#Layer1_1_FILL"/>
</g>

<g transform="matrix( 1, 0, 0, 1, 0,0) ">
<use xlink:href="#Layer0_0_FILL"/>
</g>

<g transform="matrix( 1, 0, 0, 1, 0,0) ">
<use xlink:href="#Layer0_1_FILL"/>
</g>

<g transform="matrix( 1, 0, 0, 1, 0,0) ">
<use xlink:href="#Layer0_2_FILL"/>
</g>
</svg>
