
<svg xmlns="http://www.w3.org/2000/svg" version="1.1" xmlns:xlink="http://www.w3.org/1999/xlink" preserveAspectRatio="none" x="0px" y="0px" width="873px" height="69px" viewBox="0 0 873 69">
<defs>
<g id="Layer1_0_FILL">
<path fill="#666666" stroke="none" d="
M 871.2 177.75
Q 871.2009765625 166.57109375 860.4 166.25
L 9.35 166.25
Q -1.501171875 166.574609375 -1.5 177.75
L -1.5 223.25
Q -1.501171875 234.425390625 9.35 234.75
L 860.4 234.75
Q 871.2009765625 234.42890625 871.2 223.25
L 871.2 177.75
M 860.3 169.25
Q 868.1990234375 169.52890625 868.2 177.75
L 868.2 223.25
Q 868.1990234375 231.47109375 860.3 231.75
L 9.4 231.75
Q 1.5009765625 231.448828125 1.5 223.25
L 1.5 177.75
Q 1.5009765625 169.525390625 9.45 169.25
L 860.3 169.25 Z"/>

<path fill="#FFFFFF" stroke="none" d="
M 868.2 177.75
Q 868.1990234375 169.52890625 860.3 169.25
L 9.45 169.25
Q 1.5009765625 169.525390625 1.5 177.75
L 1.5 223.25
Q 1.5009765625 231.448828125 9.4 231.75
L 860.3 231.75
Q 868.1990234375 231.47109375 868.2 223.25
L 868.2 177.75 Z"/>
</g>

<g id="Layer0_0_FILL">
<path fill="#000000" stroke="none" d="
M 150 196.25
Q 149.05 196.75 148.35 197.75
L 148.35 196.05 146.25 196.05 146.25 214.6 148.55 214.6 148.55 208.05
Q 149.1 208.8 150 209.25 150.9 209.75 152.05 209.75 153.6 209.75 155.05 208.9 156.45 208 157.2 206.35 157.9 204.7 157.9 202.65 157.9 200.7 157.25 199.1 156.55 197.5 155.25 196.6 153.95 195.7 152.2 195.7 150.9 195.7 150 196.25
M 154.55 198.8
Q 155.6 200.05 155.6 202.6 155.6 205.3 154.5 206.6 153.4 207.9 151.9 207.9 150.4 207.9 149.35 206.65 148.3 205.4 148.3 202.8 148.3 200.2 149.45 198.85 150.55 197.5 152 197.5 153.45 197.5 154.55 198.8
M 127.1 196.65
Q 126.4 197.15 126 197.95 125.6 198.7 125.6 199.6 125.6 200.6 126.1 201.4 126.55 202.2 127.55 202.65 128.5 203.15 131 203.75 132.85 204.25 133.35 204.55 134 205 134 205.75 134 206.6 133.25 207.25 132.5 207.9 130.9 207.9 129.35 207.9 128.5 207.15 127.65 206.45 127.45 205.1
L 125.2 205.45
Q 125.6 207.6 126.95 208.65 128.3 209.75 130.95 209.75 132.5 209.75 133.75 209.2 135 208.65 135.7 207.65 136.35 206.65 136.35 205.5 136.35 204.35 135.8 203.55 135.25 202.8 134.3 202.35 133.35 201.95 130.95 201.3 129.25 200.85 128.95 200.75 128.35 200.5 128.05 200.1 127.8 199.75 127.8 199.3 127.8 198.65 128.45 198.1 129.1 197.6 130.7 197.6 132 197.6 132.75 198.15 133.45 198.75 133.6 199.8
L 135.85 199.5
Q 135.65 198.2 135.05 197.4 134.5 196.65 133.3 196.2 132.1 195.7 130.5 195.7 129.45 195.7 128.55 196 127.65 196.25 127.1 196.65
M 120.2 196.15
Q 119.1 195.7 117.4 195.7 115.65 195.7 114.35 196.2 113 196.65 112.35 197.55 111.65 198.45 111.35 199.85
L 113.55 200.15
Q 113.9 198.75 114.7 198.15 115.45 197.6 117.05 197.6 118.75 197.6 119.65 198.4 120.3 198.95 120.3 200.35 120.3 200.45 120.3 200.95 119 201.4 116.2 201.7 114.85 201.9 114.2 202.05 113.3 202.3 112.55 202.8 111.85 203.3 111.4 204.1 110.95 204.9 110.95 205.9 110.95 207.6 112.1 208.7 113.3 209.75 115.5 209.75 116.85 209.75 118.05 209.3 119.2 208.85 120.45 207.8 120.55 208.75 120.9 209.45
L 123.3 209.45
Q 122.85 208.7 122.75 207.85 122.6 207 122.6 203.8
L 122.6 200.8
Q 122.6 199.25 122.45 198.7 122.25 197.75 121.75 197.15 121.25 196.55 120.2 196.15
M 116.55 203.55
Q 119.05 203.2 120.3 202.7
L 120.3 203.55
Q 120.3 205.05 119.9 205.8 119.45 206.8 118.4 207.4 117.4 207.95 116.05 207.95 114.75 207.95 114.05 207.35 113.35 206.75 113.35 205.85 113.35 205.25 113.7 204.75 114 204.3 114.6 204.05 115.15 203.75 116.55 203.55
M 100.05 197.55
Q 98.35 195.7 95.65 195.7 92.9 195.7 91.15 197.6 89.4 199.45 89.4 202.85 89.4 206.15 91.15 207.95 92.85 209.75 95.8 209.75 98.15 209.75 99.65 208.6 101.15 207.5 101.7 205.4
L 99.35 205.15
Q 98.85 206.55 97.95 207.25 97.05 207.9 95.8 207.9 94.15 207.9 93 206.7 91.9 205.55 91.75 203.3
L 101.75 203.3
Q 101.75 202.9 101.75 202.7 101.75 199.4 100.05 197.55
M 98.5 198.9
Q 99.2 199.75 99.35 201.45
L 91.9 201.45
Q 92 199.7 93.05 198.65 94.15 197.6 95.7 197.6 97.45 197.6 98.5 198.9
M 81.7 197.8
L 83.35 197.8 83.35 205.5
Q 83.35 207.55 83.65 208.2 83.95 208.85 84.6 209.25 85.3 209.65 86.55 209.65 87.3 209.65 88.25 209.4
L 87.9 207.4
Q 87.3 207.5 86.95 207.5 86.4 207.5 86.15 207.35 85.9 207.15 85.75 206.9 85.65 206.6 85.65 205.65
L 85.65 197.8 87.9 197.8 87.9 196.05 85.65 196.05 85.65 191.35 83.35 192.7 83.35 196.05 81.7 196.05 81.7 197.8
M 74.4 195.7
Q 73.35 195.7 72.45 196 71.55 196.25 71 196.65 70.3 197.15 69.9 197.95 69.5 198.7 69.5 199.6 69.5 200.6 70 201.4 70.45 202.2 71.45 202.65 72.4 203.15 74.9 203.75 76.75 204.25 77.25 204.55 77.9 205 77.9 205.75 77.9 206.6 77.15 207.25 76.4 207.9 74.8 207.9 73.25 207.9 72.4 207.15 71.55 206.45 71.35 205.1
L 69.1 205.45
Q 69.5 207.6 70.85 208.65 72.2 209.75 74.85 209.75 76.4 209.75 77.65 209.2 78.9 208.65 79.6 207.65 80.25 206.65 80.25 205.5 80.25 204.35 79.7 203.55 79.15 202.8 78.2 202.35 77.25 201.95 74.85 201.3 73.15 200.85 72.85 200.75 72.25 200.5 71.95 200.1 71.7 199.75 71.7 199.3 71.7 198.65 72.35 198.1 73 197.6 74.6 197.6 75.9 197.6 76.65 198.15 77.35 198.75 77.5 199.8
L 79.75 199.5
Q 79.55 198.2 78.95 197.4 78.4 196.65 77.2 196.2 76 195.7 74.4 195.7
M 58.25 196.2
Q 56.9 196.65 56.25 197.55 55.55 198.45 55.25 199.85
L 57.45 200.15
Q 57.8 198.75 58.6 198.15 59.35 197.6 60.95 197.6 62.65 197.6 63.55 198.4 64.2 198.95 64.2 200.35 64.2 200.45 64.2 200.95 62.9 201.4 60.1 201.7 58.75 201.9 58.1 202.05 57.2 202.3 56.45 202.8 55.75 203.3 55.3 204.1 54.85 204.9 54.85 205.9 54.85 207.6 56 208.7 57.2 209.75 59.4 209.75 60.75 209.75 61.95 209.3 63.1 208.85 64.35 207.8 64.45 208.75 64.8 209.45
L 67.2 209.45
Q 66.75 208.7 66.65 207.85 66.5 207 66.5 203.8
L 66.5 200.8
Q 66.5 199.25 66.35 198.7 66.15 197.75 65.65 197.15 65.15 196.55 64.1 196.15 63 195.7 61.3 195.7 59.55 195.7 58.25 196.2
M 64.2 202.7
L 64.2 203.55
Q 64.2 205.05 63.8 205.8 63.35 206.8 62.3 207.4 61.3 207.95 59.95 207.95 58.65 207.95 57.95 207.35 57.25 206.75 57.25 205.85 57.25 205.25 57.6 204.75 57.9 204.3 58.5 204.05 59.05 203.75 60.45 203.55 62.95 203.2 64.2 202.7
M 49.05 196.05
L 47 196.05 47 209.45 49.25 209.45 49.25 202.4
Q 49.25 201 49.65 199.75 49.9 198.95 50.5 198.55 51.1 198.05 51.8 198.05 52.65 198.05 53.5 198.55
L 54.3 196.45
Q 53.1 195.7 51.95 195.7 51.15 195.7 50.5 196.2 49.8 196.65 49.05 198.05
L 49.05 196.05
M 29.1 190.9
L 26.5 190.9 19.35 209.45 21.95 209.45 24 203.85 31.75 203.85 33.9 209.45 36.7 209.45 29.1 190.9
M 26.75 196.4
Q 27.4 194.65 27.75 192.85 28.15 194.35 29.05 196.7
L 31 201.85 24.7 201.85 26.75 196.4
M 40.4 196.05
L 38.35 196.05 38.35 209.45 40.6 209.45 40.6 202.4
Q 40.6 201 41 199.75 41.25 198.95 41.85 198.55 42.45 198.05 43.15 198.05 44 198.05 44.85 198.55
L 45.65 196.45
Q 44.45 195.7 43.3 195.7 42.5 195.7 41.85 196.2 41.15 196.65 40.4 198.05
L 40.4 196.05
M 317.35 194.05
Q 317.3 193.45 317.6 193.15 317.85 192.85 318.3 192.85 318.7 192.85 319.55 193.3 320.85 194 321.6 194 322.7 194 323.4 193.3 324.05 192.55 324.1 191.1
L 322.45 191.1
Q 322.35 191.8 322.15 192 321.95 192.2 321.55 192.2 321.1 192.2 320.35 191.85 319 191.15 318.2 191.15 317.1 191.15 316.35 191.95 315.65 192.75 315.65 194.05
L 317.35 194.05
M 289.85 197.55
Q 288.15 195.7 285.45 195.7 282.7 195.7 280.95 197.6 279.2 199.45 279.2 202.85 279.2 206.15 280.95 207.95 282.65 209.75 285.6 209.75 287.95 209.75 289.45 208.6 290.95 207.5 291.5 205.4
L 289.15 205.15
Q 288.65 206.55 287.75 207.25 286.85 207.9 285.6 207.9 283.95 207.9 282.8 206.7 281.7 205.55 281.55 203.3
L 291.55 203.3
Q 291.55 202.9 291.55 202.7 291.55 199.4 289.85 197.55
M 288.3 198.9
Q 289 199.75 289.15 201.45
L 281.7 201.45
Q 281.8 199.7 282.85 198.65 283.95 197.6 285.5 197.6 287.25 197.6 288.3 198.9
M 302.5 196.65
Q 301.8 197.15 301.4 197.95 301 198.7 301 199.6 301 200.6 301.5 201.4 301.95 202.2 302.95 202.65 303.9 203.15 306.4 203.75 308.25 204.25 308.75 204.55 309.4 205 309.4 205.75 309.4 206.6 308.65 207.25 307.9 207.9 306.3 207.9 304.75 207.9 303.9 207.15 303.05 206.45 302.85 205.1
L 300.6 205.45
Q 301 207.6 302.35 208.65 303.7 209.75 306.35 209.75 307.9 209.75 309.15 209.2 310.4 208.65 311.1 207.65 311.75 206.65 311.75 205.5 311.75 204.35 311.2 203.55 310.65 202.8 309.7 202.35 308.75 201.95 306.35 201.3 304.65 200.85 304.35 200.75 303.75 200.5 303.45 200.1 303.2 199.75 303.2 199.3 303.2 198.65 303.85 198.1 304.5 197.6 306.1 197.6 307.4 197.6 308.15 198.15 308.85 198.75 309 199.8
L 311.25 199.5
Q 311.05 198.2 310.45 197.4 309.9 196.65 308.7 196.2 307.5 195.7 305.9 195.7 304.85 195.7 303.95 196 303.05 196.25 302.5 196.65
M 262 196.05
L 259.95 196.05 259.95 197.8
Q 258.5 195.7 256 195.7 254.45 195.7 253.1 196.55 251.75 197.4 251.05 199 250.35 200.6 250.35 202.6 250.35 205.95 252.1 207.85 253.8 209.75 256.2 209.75 257.25 209.75 258.25 209.25 259.2 208.75 259.7 208
L 259.7 214.6 262 214.6 262 196.05
M 258.85 198.85
Q 259.95 200.2 259.95 202.9 259.95 205.4 258.9 206.65 257.85 207.9 256.4 207.9 254.85 207.9 253.8 206.6 252.7 205.3 252.7 202.7 252.7 200.05 253.75 198.8 254.75 197.5 256.25 197.5 257.75 197.5 258.85 198.85
M 267.8 196.05
L 265.5 196.05 265.5 204.35
Q 265.5 205.8 265.65 206.45 265.85 207.45 266.35 208.15 266.85 208.85 267.9 209.3 268.9 209.75 270.1 209.75 272.8 209.75 274.35 207.5
L 274.35 209.45 276.4 209.45 276.4 196.05 274.1 196.05 274.1 203.2
Q 274.1 204.95 273.75 205.85 273.35 206.75 272.45 207.3 271.55 207.8 270.55 207.8 269.55 207.8 268.85 207.3 268.15 206.75 267.9 205.85 267.8 205.25 267.8 203.45
L 267.8 196.05
M 235.45 195.7
Q 234.4 195.7 233.5 196 232.6 196.25 232.05 196.65 231.35 197.15 230.95 197.95 230.55 198.7 230.55 199.6 230.55 200.6 231.05 201.4 231.5 202.2 232.5 202.65 233.45 203.15 235.95 203.75 237.8 204.25 238.3 204.55 238.95 205 238.95 205.75 238.95 206.6 238.2 207.25 237.45 207.9 235.85 207.9 234.3 207.9 233.45 207.15 232.6 206.45 232.4 205.1
L 230.15 205.45
Q 230.55 207.6 231.9 208.65 233.25 209.75 235.9 209.75 237.45 209.75 238.7 209.2 239.95 208.65 240.65 207.65 241.3 206.65 241.3 205.5 241.3 204.35 240.75 203.55 240.2 202.8 239.25 202.35 238.3 201.95 235.9 201.3 234.2 200.85 233.9 200.75 233.3 200.5 233 200.1 232.75 199.75 232.75 199.3 232.75 198.65 233.4 198.1 234.05 197.6 235.65 197.6 236.95 197.6 237.7 198.15 238.4 198.75 238.55 199.8
L 240.8 199.5
Q 240.6 198.2 240 197.4 239.45 196.65 238.25 196.2 237.05 195.7 235.45 195.7
M 219.3 196.2
Q 217.95 196.65 217.3 197.55 216.6 198.45 216.3 199.85
L 218.5 200.15
Q 218.85 198.75 219.65 198.15 220.4 197.6 222 197.6 223.7 197.6 224.6 198.4 225.25 198.95 225.25 200.35 225.25 200.45 225.25 200.95 223.95 201.4 221.15 201.7 219.8 201.9 219.15 202.05 218.25 202.3 217.5 202.8 216.8 203.3 216.35 204.1 215.9 204.9 215.9 205.9 215.9 207.6 217.05 208.7 218.25 209.75 220.45 209.75 221.8 209.75 223 209.3 224.15 208.85 225.4 207.8 225.5 208.75 225.85 209.45
L 228.25 209.45
Q 227.8 208.7 227.7 207.85 227.55 207 227.55 203.8
L 227.55 200.8
Q 227.55 199.25 227.4 198.7 227.2 197.75 226.7 197.15 226.2 196.55 225.15 196.15 224.05 195.7 222.35 195.7 220.6 195.7 219.3 196.2
M 225.25 202.7
L 225.25 203.55
Q 225.25 205.05 224.85 205.8 224.4 206.8 223.35 207.4 222.35 207.95 221 207.95 219.7 207.95 219 207.35 218.3 206.75 218.3 205.85 218.3 205.25 218.65 204.75 218.95 204.3 219.55 204.05 220.1 203.75 221.5 203.55 224 203.2 225.25 202.7
M 215.3 196.45
Q 214.1 195.7 212.95 195.7 212.15 195.7 211.5 196.2 210.8 196.65 210.05 198.05
L 210.05 196.05 208 196.05 208 209.45 210.25 209.45 210.25 202.4
Q 210.25 201 210.65 199.75 210.9 198.95 211.5 198.55 212.1 198.05 212.8 198.05 213.65 198.05 214.5 198.55
L 215.3 196.45
M 196.2 196.05
L 193.8 196.05 198.9 209.45 201 209.45 206.1 196.05 203.75 196.05 200.75 204.2
Q 200.25 205.7 199.9 206.75 199.55 205.35 199.05 204.05
L 196.2 196.05
M 186.45 195.7
Q 184.7 195.7 183.4 196.2 182.05 196.65 181.4 197.55 180.7 198.45 180.4 199.85
L 182.6 200.15
Q 182.95 198.75 183.75 198.15 184.5 197.6 186.1 197.6 187.8 197.6 188.7 198.4 189.35 198.95 189.35 200.35 189.35 200.45 189.35 200.95 188.05 201.4 185.25 201.7 183.9 201.9 183.25 202.05 182.35 202.3 181.6 202.8 180.9 203.3 180.45 204.1 180 204.9 180 205.9 180 207.6 181.15 208.7 182.35 209.75 184.55 209.75 185.9 209.75 187.1 209.3 188.25 208.85 189.5 207.8 189.6 208.75 189.95 209.45
L 192.35 209.45
Q 191.9 208.7 191.8 207.85 191.65 207 191.65 203.8
L 191.65 200.8
Q 191.65 199.25 191.5 198.7 191.3 197.75 190.8 197.15 190.3 196.55 189.25 196.15 188.15 195.7 186.45 195.7
M 189.35 202.7
L 189.35 203.55
Q 189.35 205.05 188.95 205.8 188.5 206.8 187.45 207.4 186.45 207.95 185.1 207.95 183.8 207.95 183.1 207.35 182.4 206.75 182.4 205.85 182.4 205.25 182.75 204.75 183.05 204.3 183.65 204.05 184.2 203.75 185.6 203.55 188.1 203.2 189.35 202.7
M 177.25 190.9
L 174.95 190.9 174.95 209.45 177.25 209.45 177.25 190.9
M 166.3 195.7
Q 164.55 195.7 163.25 196.2 161.9 196.65 161.25 197.55 160.55 198.45 160.25 199.85
L 162.45 200.15
Q 162.8 198.75 163.6 198.15 164.35 197.6 165.95 197.6 167.65 197.6 168.55 198.4 169.2 198.95 169.2 200.35 169.2 200.45 169.2 200.95 167.9 201.4 165.1 201.7 163.75 201.9 163.1 202.05 162.2 202.3 161.45 202.8 160.75 203.3 160.3 204.1 159.85 204.9 159.85 205.9 159.85 207.6 161 208.7 162.2 209.75 164.4 209.75 165.75 209.75 166.95 209.3 168.1 208.85 169.35 207.8 169.45 208.75 169.8 209.45
L 172.2 209.45
Q 171.75 208.7 171.65 207.85 171.5 207 171.5 203.8
L 171.5 200.8
Q 171.5 199.25 171.35 198.7 171.15 197.75 170.65 197.15 170.15 196.55 169.1 196.15 168 195.7 166.3 195.7
M 169.2 202.7
L 169.2 203.55
Q 169.2 205.05 168.8 205.8 168.35 206.8 167.3 207.4 166.3 207.95 164.95 207.95 163.65 207.95 162.95 207.35 162.25 206.75 162.25 205.85 162.25 205.25 162.6 204.75 162.9 204.3 163.5 204.05 164.05 203.75 165.45 203.55 167.95 203.2 169.2 202.7
M 326.05 209.45
Q 325.6 208.7 325.5 207.85 325.35 207 325.35 203.8
L 325.35 200.8
Q 325.35 199.25 325.2 198.7 325 197.75 324.5 197.15 324 196.55 322.95 196.15 321.85 195.7 320.15 195.7 318.4 195.7 317.1 196.2 315.75 196.65 315.1 197.55 314.4 198.45 314.1 199.85
L 316.3 200.15
Q 316.65 198.75 317.45 198.15 318.2 197.6 319.8 197.6 321.5 197.6 322.4 198.4 323.05 198.95 323.05 200.35 323.05 200.45 323.05 200.95 321.75 201.4 318.95 201.7 317.6 201.9 316.95 202.05 316.05 202.3 315.3 202.8 314.6 203.3 314.15 204.1 313.7 204.9 313.7 205.9 313.7 207.6 314.85 208.7 316.05 209.75 318.25 209.75 319.6 209.75 320.8 209.3 321.95 208.85 323.2 207.8 323.3 208.75 323.65 209.45
L 326.05 209.45
M 323.05 202.7
L 323.05 203.55
Q 323.05 205.05 322.65 205.8 322.2 206.8 321.15 207.4 320.15 207.95 318.8 207.95 317.5 207.95 316.8 207.35 316.1 206.75 316.1 205.85 316.1 205.25 316.45 204.75 316.75 204.3 317.35 204.05 317.9 203.75 319.3 203.55 321.8 203.2 323.05 202.7
M 463.85 190.6
Q 459.9 190.6 457.45 193.2 454.95 195.8 454.95 200.4 454.95 202.85 456 205.05 457.1 207.25 459.15 208.5 461.2 209.75 463.8 209.75 466.25 209.75 468.3 208.65 470.4 207.5 471.55 205.25 472.65 203.05 472.65 200.2 472.65 197.45 471.6 195.25 470.5 193.05 468.45 191.8 466.4 190.6 463.85 190.6
M 459.35 194.5
Q 461.25 192.7 463.85 192.7 465.65 192.7 467.15 193.65 468.6 194.55 469.4 196.25 470.15 197.95 470.15 200.2 470.15 203.75 468.35 205.7 466.55 207.65 463.8 207.65 461.1 207.65 459.3 205.75 457.5 203.8 457.5 200.45 457.5 196.3 459.35 194.5
M 439.2 190.9
L 436.55 190.9 443.75 209.45 446.25 209.45 453.5 190.9 451 190.9 446 204.4
Q 445.45 205.9 445 207.4 444.6 206 444.05 204.4
L 439.2 190.9
M 434.1 190.9
L 431.65 190.9 431.65 209.45 434.1 209.45 434.1 190.9
M 414.05 193.1
L 420.15 193.1 420.15 209.45 422.6 209.45 422.6 193.1 428.75 193.1 428.75 190.9 414.05 190.9 414.05 193.1
M 411.65 193.1
L 411.65 190.9 398.25 190.9 398.25 209.45 412.1 209.45 412.1 207.25 400.7 207.25 400.7 200.95 410.95 200.95 410.95 198.8 400.7 198.8 400.7 193.1 411.65 193.1
M 394.2 190.9
L 391.75 190.9 391.75 203.7
Q 391.75 205.3 391.5 206 391.25 206.75 390.55 207.15 389.9 207.6 388.95 207.6 387.7 207.6 387 206.8 386.3 206 386.2 203.9
L 384 204.2
Q 383.95 206.95 385.25 208.35 386.55 209.75 389 209.75 390.6 209.75 391.85 209.1 393.05 208.45 393.65 207.15 394.2 205.85 394.2 203.55
L 394.2 190.9
M 372.95 190.9
L 366.55 190.9 366.55 209.45 373.25 209.45
Q 374.9 209.45 376.2 209.15 377.5 208.8 378.45 208.2 379.35 207.6 380.1 206.55 380.9 205.45 381.4 203.8 381.85 202.2 381.85 200.1 381.85 197.6 381.15 195.7 380.4 193.75 378.95 192.5 377.8 191.55 376.25 191.2 375.1 190.9 372.95 190.9
M 376.05 193.5
Q 377.45 194 378.4 195.6 379.35 197.15 379.35 200.05 379.35 202.15 378.85 203.6 378.35 205.1 377.5 205.95 376.9 206.6 375.85 206.9 374.8 207.25 372.95 207.25
L 369 207.25 369 193.1 372.9 193.1
Q 375.1 193.1 376.05 193.5
M 356.95 190.9
L 354.35 190.9 347.2 209.45 349.8 209.45 351.85 203.85 359.6 203.85 361.75 209.45 364.55 209.45 356.95 190.9
M 355.6 192.85
Q 356 194.35 356.9 196.7
L 358.85 201.85 352.55 201.85 354.6 196.4
Q 355.25 194.65 355.6 192.85
M 334.3 195.7
Q 331.8 195.7 330.1 197.2 328 199 328 202.75 328 206.15 329.75 207.95 331.5 209.75 334.3 209.75 336.05 209.75 337.55 208.95 339.05 208.1 339.8 206.65 340.6 205.15 340.6 202.55 340.6 199.35 338.85 197.55 337.05 195.7 334.3 195.7
M 337.1 198.9
Q 338.25 200.15 338.25 202.65 338.25 205.3 337.1 206.6 336 207.9 334.3 207.9 332.6 207.9 331.45 206.6 330.35 205.3 330.35 202.75 330.35 200.15 331.45 198.9 332.6 197.6 334.3 197.6 336 197.6 337.1 198.9
M 623.4 195.7
Q 620.9 195.7 619.2 197.2 617.1 199 617.1 202.75 617.1 206.15 618.85 207.95 620.6 209.75 623.4 209.75 625.15 209.75 626.65 208.95 628.15 208.1 628.9 206.65 629.7 205.15 629.7 202.55 629.7 199.35 627.95 197.55 626.15 195.7 623.4 195.7
M 627.35 202.65
Q 627.35 205.3 626.2 206.6 625.1 207.9 623.4 207.9 621.7 207.9 620.55 206.6 619.45 205.3 619.45 202.75 619.45 200.15 620.55 198.9 621.7 197.6 623.4 197.6 625.1 197.6 626.2 198.9 627.35 200.15 627.35 202.65
M 611.35 196.05
L 609.3 196.05 609.3 209.45 611.55 209.45 611.55 202.4
Q 611.55 201 611.95 199.75 612.2 198.95 612.8 198.55 613.4 198.05 614.1 198.05 614.95 198.05 615.8 198.55
L 616.6 196.45
Q 615.4 195.7 614.25 195.7 613.45 195.7 612.8 196.2 612.1 196.65 611.35 198.05
L 611.35 196.05
M 600.85 196.05
L 600.85 197.8 602.5 197.8 602.5 205.5
Q 602.5 207.55 602.8 208.2 603.1 208.85 603.75 209.25 604.45 209.65 605.7 209.65 606.45 209.65 607.4 209.4
L 607.05 207.4
Q 606.45 207.5 606.1 207.5 605.55 207.5 605.3 207.35 605.05 207.15 604.9 206.9 604.8 206.6 604.8 205.65
L 604.8 197.8 607.05 197.8 607.05 196.05 604.8 196.05 604.8 191.35 602.5 192.7 602.5 196.05 600.85 196.05
M 589.8 196.05
L 587.75 196.05 587.75 209.45 590.05 209.45 590.05 202.1
Q 590.05 199.55 591.1 198.6 592.15 197.7 593.6 197.7 594.5 197.7 595.2 198.1 595.85 198.5 596.1 199.2 596.4 199.9 596.4 201.3
L 596.4 209.45 598.65 209.45 598.65 201.2
Q 598.65 199.6 598.55 199 598.35 198 597.85 197.3 597.35 196.6 596.3 196.15 595.3 195.7 594.1 195.7 591.3 195.7 589.8 197.95
L 589.8 196.05
M 578.85 195.7
Q 576.1 195.7 574.35 197.6 572.6 199.45 572.6 202.85 572.6 206.15 574.35 207.95 576.05 209.75 579 209.75 581.35 209.75 582.85 208.6 584.35 207.5 584.9 205.4
L 582.55 205.15
Q 582.05 206.55 581.15 207.25 580.25 207.9 579 207.9 577.35 207.9 576.2 206.7 575.1 205.55 574.95 203.3
L 584.95 203.3
Q 584.95 202.9 584.95 202.7 584.95 199.4 583.25 197.55 581.55 195.7 578.85 195.7
M 581.7 198.9
Q 582.4 199.75 582.55 201.45
L 575.1 201.45
Q 575.2 199.7 576.25 198.65 577.35 197.6 578.9 197.6 580.65 197.6 581.7 198.9
M 563.8 195.7
Q 562.15 195.7 560.8 196.6 559.45 197.45 558.8 199.1 558.15 200.75 558.15 202.75 558.15 204.8 558.9 206.4 559.6 208 560.95 208.85 562.3 209.75 563.9 209.75 566.4 209.75 567.65 207.75
L 567.65 209.45 569.8 209.45 569.8 190.9 567.5 190.9 567.5 197.55
Q 566.9 196.75 565.95 196.25 565 195.7 563.8 195.7
M 560.45 202.75
Q 560.45 200.1 561.5 198.85 562.5 197.6 564.05 197.6 565.6 197.6 566.65 198.9 567.7 200.2 567.7 202.95 567.7 205.45 566.65 206.65 565.6 207.9 564.15 207.9 562.65 207.9 561.55 206.6 560.45 205.35 560.45 202.75
M 540.05 196.2
Q 538.7 196.65 538.05 197.55 537.35 198.45 537.05 199.85
L 539.25 200.15
Q 539.6 198.75 540.4 198.15 541.15 197.6 542.75 197.6 544.45 197.6 545.35 198.4 546 198.95 546 200.35 546 200.45 546 200.95 544.7 201.4 541.9 201.7 540.55 201.9 539.9 202.05 539 202.3 538.25 202.8 537.55 203.3 537.1 204.1 536.65 204.9 536.65 205.9 536.65 207.6 537.8 208.7 539 209.75 541.2 209.75 542.55 209.75 543.75 209.3 544.9 208.85 546.15 207.8 546.25 208.75 546.6 209.45
L 549 209.45
Q 548.55 208.7 548.45 207.85 548.3 207 548.3 203.8
L 548.3 200.8
Q 548.3 199.25 548.15 198.7 547.95 197.75 547.45 197.15 546.95 196.55 545.9 196.15 544.8 195.7 543.1 195.7 541.35 195.7 540.05 196.2
M 542.25 203.55
Q 544.75 203.2 546 202.7
L 546 203.55
Q 546 205.05 545.6 205.8 545.15 206.8 544.1 207.4 543.1 207.95 541.75 207.95 540.45 207.95 539.75 207.35 539.05 206.75 539.05 205.85 539.05 205.25 539.4 204.75 539.7 204.3 540.3 204.05 540.85 203.75 542.25 203.55
M 536.05 196.45
Q 534.85 195.7 533.7 195.7 532.9 195.7 532.25 196.2 531.55 196.65 530.8 198.05
L 530.8 196.05 528.75 196.05 528.75 209.45 531 209.45 531 202.4
Q 531 201 531.4 199.75 531.65 198.95 532.25 198.55 532.85 198.05 533.55 198.05 534.4 198.05 535.25 198.55
L 536.05 196.45
M 517.05 196.2
Q 515.7 196.65 515.05 197.55 514.35 198.45 514.05 199.85
L 516.25 200.15
Q 516.6 198.75 517.4 198.15 518.15 197.6 519.75 197.6 521.45 197.6 522.35 198.4 523 198.95 523 200.35 523 200.45 523 200.95 521.7 201.4 518.9 201.7 517.55 201.9 516.9 202.05 516 202.3 515.25 202.8 514.55 203.3 514.1 204.1 513.65 204.9 513.65 205.9 513.65 207.6 514.8 208.7 516 209.75 518.2 209.75 519.55 209.75 520.75 209.3 521.9 208.85 523.15 207.8 523.25 208.75 523.6 209.45
L 526 209.45
Q 525.55 208.7 525.45 207.85 525.3 207 525.3 203.8
L 525.3 200.8
Q 525.3 199.25 525.15 198.7 524.95 197.75 524.45 197.15 523.95 196.55 522.9 196.15 521.8 195.7 520.1 195.7 518.35 195.7 517.05 196.2
M 523 202.7
L 523 203.55
Q 523 205.05 522.6 205.8 522.15 206.8 521.1 207.4 520.1 207.95 518.75 207.95 517.45 207.95 516.75 207.35 516.05 206.75 516.05 205.85 516.05 205.25 516.4 204.75 516.7 204.3 517.3 204.05 517.85 203.75 519.25 203.55 521.75 203.2 523 202.7
M 502.1 196.05
L 500 196.05 500 214.6 502.3 214.6 502.3 208.05
Q 502.85 208.8 503.75 209.25 504.65 209.75 505.8 209.75 507.35 209.75 508.8 208.9 510.2 208 510.95 206.35 511.65 204.7 511.65 202.65 511.65 200.7 511 199.1 510.3 197.5 509 196.6 507.7 195.7 505.95 195.7 504.65 195.7 503.75 196.25 502.8 196.75 502.1 197.75
L 502.1 196.05
M 508.3 198.8
Q 509.35 200.05 509.35 202.6 509.35 205.3 508.25 206.6 507.15 207.9 505.65 207.9 504.15 207.9 503.1 206.65 502.05 205.4 502.05 202.8 502.05 200.2 503.2 198.85 504.3 197.5 505.75 197.5 507.2 197.5 508.3 198.8
M 486.85 196.3
L 489.2 196.15
Q 489.15 194.5 488.3 193.2 487.45 191.95 485.9 191.25 484.3 190.6 482.25 190.6 480.35 190.6 478.85 191.25 477.3 191.85 476.5 193.1 475.7 194.3 475.7 195.7 475.7 197 476.4 198 477 199.05 478.35 199.75 479.35 200.3 481.95 200.9 484.5 201.5 485.25 201.8 486.4 202.25 486.9 202.9 487.4 203.55 487.4 204.4 487.4 205.3 486.9 206 486.35 206.75 485.3 207.15 484.2 207.55 482.8 207.55 481.2 207.55 479.95 207 478.7 206.45 478.1 205.6 477.5 204.7 477.35 203.3
L 475 203.5
Q 475.05 205.35 476.05 206.85 477 208.3 478.7 209.05 480.4 209.75 482.9 209.75 484.9 209.75 486.5 209.05 488.05 208.3 488.9 207 489.75 205.7 489.75 204.2 489.75 202.7 489 201.6 488.2 200.45 486.6 199.7 485.5 199.2 482.5 198.5 479.5 197.85 478.8 197.2 478.1 196.55 478.1 195.55 478.1 194.4 479.1 193.6 480.1 192.75 482.35 192.75 484.5 192.75 485.6 193.65 486.65 194.55 486.85 196.3
M 844.5 206.85
L 844.5 209.45 847.1 209.45 847.1 206.85 844.5 206.85
M 801.3 195.7
Q 799.5 195.7 798.2 196.6 796.85 197.5 796.2 199.1 795.5 200.75 795.5 202.65 795.5 205.45 797 207.45 798.5 209.45 801.3 209.45 803.5 209.45 805 207.7 805 209.9 804.85 210.6 804.55 211.75 803.7 212.4 802.8 213 801.25 213 799.75 213 798.9 212.4 798.3 211.9 798.15 210.9
L 795.95 210.55
Q 795.9 212.75 797.35 213.8 798.85 214.9 801.25 214.9 803.25 214.9 804.65 214.15 806.05 213.4 806.7 212.1 807.3 210.75 807.3 207.65
L 807.3 196.05 805.2 196.05 805.2 197.65
Q 803.7 195.7 801.3 195.7
M 804.1 198.85
Q 805.2 200.1 805.2 202.55 805.2 205.15 804.15 206.35 803.05 207.55 801.5 207.55 799.9 207.55 798.85 206.35 797.8 205.15 797.8 202.5 797.8 200.05 798.9 198.85 799.95 197.6 801.45 197.6 803 197.6 804.1 198.85
M 787.85 190.8
L 786.15 194.35 788.05 194.35 790.8 190.8 787.85 190.8
M 784.65 196.2
Q 783.3 196.65 782.65 197.55 781.95 198.45 781.65 199.85
L 783.85 200.15
Q 784.2 198.75 785 198.15 785.75 197.6 787.35 197.6 789.05 197.6 789.95 198.4 790.6 198.95 790.6 200.35 790.6 200.45 790.6 200.95 789.3 201.4 786.5 201.7 785.15 201.9 784.5 202.05 783.6 202.3 782.85 202.8 782.15 203.3 781.7 204.1 781.25 204.9 781.25 205.9 781.25 207.6 782.4 208.7 783.6 209.75 785.8 209.75 787.15 209.75 788.35 209.3 789.5 208.85 790.75 207.8 790.85 208.75 791.2 209.45
L 793.6 209.45
Q 793.15 208.7 793.05 207.85 792.9 207 792.9 203.8
L 792.9 200.8
Q 792.9 199.25 792.75 198.7 792.55 197.75 792.05 197.15 791.55 196.55 790.5 196.15 789.4 195.7 787.7 195.7 785.95 195.7 784.65 196.2
M 790.6 202.7
L 790.6 203.55
Q 790.6 205.05 790.2 205.8 789.75 206.8 788.7 207.4 787.7 207.95 786.35 207.95 785.05 207.95 784.35 207.35 783.65 206.75 783.65 205.85 783.65 205.25 784 204.75 784.3 204.3 784.9 204.05 785.45 203.75 786.85 203.55 789.35 203.2 790.6 202.7
M 764.05 196.35
Q 763 196.9 762.4 197.9
L 762.4 196.05 760.35 196.05 760.35 209.45 762.65 209.45 762.65 202.5
Q 762.65 200.65 763 199.7 763.35 198.7 764.2 198.2 765 197.7 765.95 197.7 767.2 197.7 767.8 198.45 768.35 199.2 768.35 200.75
L 768.35 209.45 770.6 209.45 770.6 201.65
Q 770.6 199.6 771.55 198.65 772.5 197.7 773.9 197.7 774.7 197.7 775.25 198.05 775.85 198.45 776.05 199.05 776.3 199.65 776.3 201
L 776.3 209.45 778.55 209.45 778.55 200.25
Q 778.55 197.95 777.45 196.85 776.4 195.7 774.4 195.7 771.85 195.7 770.25 198.05 769.85 196.95 768.9 196.35 767.95 195.7 766.45 195.7 765.1 195.7 764.05 196.35
M 741.4 196.2
Q 740.05 196.65 739.4 197.55 738.7 198.45 738.4 199.85
L 740.6 200.15
Q 740.95 198.75 741.75 198.15 742.5 197.6 744.1 197.6 745.8 197.6 746.7 198.4 747.35 198.95 747.35 200.35 747.35 200.45 747.35 200.95 746.05 201.4 743.25 201.7 741.9 201.9 741.25 202.05 740.35 202.3 739.6 202.8 738.9 203.3 738.45 204.1 738 204.9 738 205.9 738 207.6 739.15 208.7 740.35 209.75 742.55 209.75 743.9 209.75 745.1 209.3 746.25 208.85 747.5 207.8 747.6 208.75 747.95 209.45
L 750.35 209.45
Q 749.9 208.7 749.8 207.85 749.65 207 749.65 203.8
L 749.65 200.8
Q 749.65 199.25 749.5 198.7 749.3 197.75 748.8 197.15 748.3 196.55 747.25 196.15 746.15 195.7 744.45 195.7 742.7 195.7 741.4 196.2
M 747.35 202.7
L 747.35 203.55
Q 747.35 205.05 746.95 205.8 746.5 206.8 745.45 207.4 744.45 207.95 743.1 207.95 741.8 207.95 741.1 207.35 740.4 206.75 740.4 205.85 740.4 205.25 740.75 204.75 741.05 204.3 741.65 204.05 742.2 203.75 743.6 203.55 746.1 203.2 747.35 202.7
M 735.25 190.9
L 732.95 190.9 732.95 209.45 735.25 209.45 735.25 190.9
M 724.1 195.7
Q 721.6 195.7 719.9 197.2 717.8 199 717.8 202.75 717.8 206.15 719.55 207.95 721.3 209.75 724.1 209.75 725.85 209.75 727.35 208.95 728.85 208.1 729.6 206.65 730.4 205.15 730.4 202.55 730.4 199.35 728.65 197.55 726.85 195.7 724.1 195.7
M 720.15 202.75
Q 720.15 200.15 721.25 198.9 722.4 197.6 724.1 197.6 725.8 197.6 726.9 198.9 728.05 200.15 728.05 202.65 728.05 205.3 726.9 206.6 725.8 207.9 724.1 207.9 722.4 207.9 721.25 206.6 720.15 205.3 720.15 202.75
M 710.2 196.05
L 710.2 197.8 711.85 197.8 711.85 205.5
Q 711.85 207.55 712.15 208.2 712.45 208.85 713.1 209.25 713.8 209.65 715.05 209.65 715.8 209.65 716.75 209.4
L 716.4 207.4
Q 715.8 207.5 715.45 207.5 714.9 207.5 714.65 207.35 714.4 207.15 714.25 206.9 714.15 206.6 714.15 205.65
L 714.15 197.8 716.4 197.8 716.4 196.05 714.15 196.05 714.15 191.35 711.85 192.7 711.85 196.05 710.2 196.05
M 704.85 196.05
L 702.8 196.05 702.8 209.45 705.05 209.45 705.05 202.4
Q 705.05 201 705.45 199.75 705.7 198.95 706.3 198.55 706.9 198.05 707.6 198.05 708.45 198.05 709.3 198.55
L 710.1 196.45
Q 708.9 195.7 707.75 195.7 706.95 195.7 706.3 196.2 705.6 196.65 704.85 198.05
L 704.85 196.05
M 691.05 196.2
Q 689.7 196.65 689.05 197.55 688.35 198.45 688.05 199.85
L 690.25 200.15
Q 690.6 198.75 691.4 198.15 692.15 197.6 693.75 197.6 695.45 197.6 696.35 198.4 697 198.95 697 200.35 697 200.45 697 200.95 695.7 201.4 692.9 201.7 691.55 201.9 690.9 202.05 690 202.3 689.25 202.8 688.55 203.3 688.1 204.1 687.65 204.9 687.65 205.9 687.65 207.6 688.8 208.7 690 209.75 692.2 209.75 693.55 209.75 694.75 209.3 695.9 208.85 697.15 207.8 697.25 208.75 697.6 209.45
L 700 209.45
Q 699.55 208.7 699.45 207.85 699.3 207 699.3 203.8
L 699.3 200.8
Q 699.3 199.25 699.15 198.7 698.95 197.75 698.45 197.15 697.95 196.55 696.9 196.15 695.8 195.7 694.1 195.7 692.35 195.7 691.05 196.2
M 697 202.7
L 697 203.55
Q 697 205.05 696.6 205.8 696.15 206.8 695.1 207.4 694.1 207.95 692.75 207.95 691.45 207.95 690.75 207.35 690.05 206.75 690.05 205.85 690.05 205.25 690.4 204.75 690.7 204.3 691.3 204.05 691.85 203.75 693.25 203.55 695.75 203.2 697 202.7
M 648.05 190.9
L 648.05 197.55
Q 647.45 196.75 646.5 196.25 645.55 195.7 644.35 195.7 642.7 195.7 641.35 196.6 640 197.45 639.35 199.1 638.7 200.75 638.7 202.75 638.7 204.8 639.45 206.4 640.15 208 641.5 208.85 642.85 209.75 644.45 209.75 646.95 209.75 648.2 207.75
L 648.2 209.45 650.35 209.45 650.35 190.9 648.05 190.9
M 641 202.75
Q 641 200.1 642.05 198.85 643.05 197.6 644.6 197.6 646.15 197.6 647.2 198.9 648.25 200.2 648.25 202.95 648.25 205.45 647.2 206.65 646.15 207.9 644.7 207.9 643.2 207.9 642.1 206.6 641 205.35 641 202.75
M 663.95 197.15
Q 663.45 196.55 662.4 196.15 661.3 195.7 659.6 195.7 657.85 195.7 656.55 196.2 655.2 196.65 654.55 197.55 653.85 198.45 653.55 199.85
L 655.75 200.15
Q 656.1 198.75 656.9 198.15 657.65 197.6 659.25 197.6 660.95 197.6 661.85 198.4 662.5 198.95 662.5 200.35 662.5 200.45 662.5 200.95 661.2 201.4 658.4 201.7 657.05 201.9 656.4 202.05 655.5 202.3 654.75 202.8 654.05 203.3 653.6 204.1 653.15 204.9 653.15 205.9 653.15 207.6 654.3 208.7 655.5 209.75 657.7 209.75 659.05 209.75 660.25 209.3 661.4 208.85 662.65 207.8 662.75 208.75 663.1 209.45
L 665.5 209.45
Q 665.05 208.7 664.95 207.85 664.8 207 664.8 203.8
L 664.8 200.8
Q 664.8 199.25 664.65 198.7 664.45 197.75 663.95 197.15
M 662.5 202.7
L 662.5 203.55
Q 662.5 205.05 662.1 205.8 661.65 206.8 660.6 207.4 659.6 207.95 658.25 207.95 656.95 207.95 656.25 207.35 655.55 206.75 655.55 205.85 655.55 205.25 655.9 204.75 656.2 204.3 656.8 204.05 657.35 203.75 658.75 203.55 661.25 203.2 662.5 202.7
M 680.95 195.7
Q 679.2 195.7 677.75 196.55 676.25 197.35 675.55 199 674.8 200.6 674.8 202.8 674.8 206.15 676.5 207.95 678.15 209.75 680.9 209.75 683.1 209.75 684.65 208.45 686.15 207.15 686.5 204.8
L 684.25 204.55
Q 684.05 206.25 683.15 207.05 682.25 207.9 680.9 207.9 679.2 207.9 678.2 206.65 677.15 205.45 677.15 202.7 677.15 200.05 678.2 198.85 679.3 197.6 681 197.6 682.15 197.6 682.95 198.3 683.75 198.95 684.1 200.3
L 686.3 199.95
Q 685.9 197.95 684.5 196.85 683.1 195.7 680.95 195.7
M 837.95 196.15
Q 836.85 195.7 835.15 195.7 833.4 195.7 832.1 196.2 830.75 196.65 830.1 197.55 829.4 198.45 829.1 199.85
L 831.3 200.15
Q 831.65 198.75 832.45 198.15 833.2 197.6 834.8 197.6 836.5 197.6 837.4 198.4 838.05 198.95 838.05 200.35 838.05 200.45 838.05 200.95 836.75 201.4 833.95 201.7 832.6 201.9 831.95 202.05 831.05 202.3 830.3 202.8 829.6 203.3 829.15 204.1 828.7 204.9 828.7 205.9 828.7 207.6 829.85 208.7 831.05 209.75 833.25 209.75 834.6 209.75 835.8 209.3 836.95 208.85 838.2 207.8 838.3 208.75 838.65 209.45
L 841.05 209.45
Q 840.6 208.7 840.5 207.85 840.35 207 840.35 203.8
L 840.35 200.8
Q 840.35 199.25 840.2 198.7 840 197.75 839.5 197.15 839 196.55 837.95 196.15
M 838.05 202.7
L 838.05 203.55
Q 838.05 205.05 837.65 205.8 837.2 206.8 836.15 207.4 835.15 207.95 833.8 207.95 832.5 207.95 831.8 207.35 831.1 206.75 831.1 205.85 831.1 205.25 831.45 204.75 831.75 204.3 832.35 204.05 832.9 203.75 834.3 203.55 836.8 203.2 838.05 202.7
M 810.75 193.55
L 813.05 193.55 813.05 190.9 810.75 190.9 810.75 193.55
M 813.05 196.05
L 810.75 196.05 810.75 209.45 813.05 209.45 813.05 196.05
M 825.5 196.85
Q 824.1 195.7 821.95 195.7 820.2 195.7 818.75 196.55 817.25 197.35 816.55 199 815.8 200.6 815.8 202.8 815.8 206.15 817.5 207.95 819.15 209.75 821.9 209.75 824.1 209.75 825.65 208.45 827.15 207.15 827.5 204.8
L 825.25 204.55
Q 825.05 206.25 824.15 207.05 823.25 207.9 821.9 207.9 820.2 207.9 819.2 206.65 818.15 205.45 818.15 202.7 818.15 200.05 819.2 198.85 820.3 197.6 822 197.6 823.15 197.6 823.95 198.3 824.75 198.95 825.1 200.3
L 827.3 199.95
Q 826.9 197.95 825.5 196.85 Z"/>
</g>
</defs>

<g transform="matrix( 1, 0, 0, 1, 1.65,-166) ">
<use xlink:href="#Layer1_0_FILL"/>
</g>

<g transform="matrix( 1, 0, 0, 1, 3.3,-168.25) ">
<use xlink:href="#Layer0_0_FILL"/>
</g>
</svg>
