
<svg xmlns="http://www.w3.org/2000/svg" version="1.1" xmlns:xlink="http://www.w3.org/1999/xlink" preserveAspectRatio="none" x="0px" y="0px" width="181px" height="57px" viewBox="0 0 181 57">
<defs>
<filter id="Filter_1" x="-20%" y="-20%" width="140%" height="140%" color-interpolation-filters="sRGB">
<feColorMatrix in="SourceGraphic" type="matrix" values="1 0 0 0 0 0 1 0 0 0 0 0 1 0 0 0 0 0 0.2 0" result="result1"/>
</filter>

<g id="S_mbolo_19_0_Layer0_0_FILL">
<path fill="#FFFFFF" stroke="none" d="
M 178.95 44.85
L 178.95 9.35
Q 178.95 0 169.55 0
L 9.35 0
Q 0 0 0 9.35
L 0 44.85
Q 0 54.2 9.35 54.2
L 169.55 54.2
Q 178.95 54.2 178.95 44.85 Z"/>
</g>

<g id="Layer0_0_MEMBER_1_FILL">
<path fill="#FFFFFF" stroke="none" d="
M 365.5 182.75
Q 365.502734375 172.4 355.1 172.4
L 194.9 172.4
Q 184.5501953125 172.4 184.55 182.75
L 184.55 218.25
Q 184.55 228.5998046875 194.9 228.6
L 355.1 228.6
Q 365.502734375 228.6 365.5 218.25
L 365.5 182.75
M 355.1 174.4
Q 363.497265625 174.4 363.5 182.75
L 363.5 218.25
Q 363.497265625 226.6 355.1 226.6
L 194.9 226.6
Q 186.55 226.6 186.55 218.25
L 186.55 182.75
Q 186.55 174.4 194.9 174.4
L 355.1 174.4 Z"/>
</g>

<g id="Layer0_0_MEMBER_2_FILL">
<path fill="#FFFFFF" stroke="none" d="
M 314.1 185.1
L 311.2 185.1 298.05 215.95 301 215.95 304.4 207.75 320.35 207.75 323.6 215.95 326.75 215.95 314.1 185.1
M 319.35 205.15
L 305.5 205.15 312.5 188.25 319.35 205.15
M 266.9 185.1
L 264.1 185.1 264.1 215.95 280.95 215.95 280.95 213.35 266.9 213.35 266.9 185.1
M 277.8 185.1
L 277.8 187.7 288.1 187.7 288.1 215.95 290.9 215.95 290.9 187.7 301.2 187.7 301.2 185.1 277.8 185.1
M 230.95 188.9
Q 228.85 191.1 227.75 194.05 226.65 197.05 226.65 200.5 226.65 204 227.75 207 228.85 210 230.95 212.15 233.05 214.35 235.9 215.55 238.8 216.75 242.2 216.75 245.6 216.75 248.45 215.55 251.35 214.35 253.4 212.15 255.5 210 256.65 207 257.75 204 257.75 200.5 257.75 197.05 256.65 194.05 255.5 191.1 253.4 188.9 251.35 186.7 248.45 185.5 245.6 184.3 242.2 184.3 238.8 184.3 235.9 185.5 233.05 186.7 230.95 188.9
M 236.9 187.95
Q 239.3 186.95 242.2 186.95 245.1 186.95 247.45 187.95 249.8 188.95 251.5 190.8 253.2 192.65 254.05 195.15 254.95 197.65 254.95 200.5 254.95 203.4 254.05 205.9 253.15 208.4 251.5 210.25 249.85 212.1 247.45 213.1 245.1 214.1 242.2 214.1 239.3 214.1 236.95 213.1 234.6 212.1 232.9 210.25 231.2 208.4 230.35 205.9 229.45 203.4 229.45 200.5 229.45 197.65 230.35 195.15 231.2 192.65 232.9 190.8 234.55 188.95 236.9 187.95
M 202.2 185.1
L 199.2 185.1 210.4 215.95 213.2 215.95 224.65 185.1 221.65 185.1 211.9 212.15 202.2 185.1
M 342.15 185.25
Q 340.6 185.1 339 185.1
L 331.1 185.1 331.1 215.95 333.9 215.95 333.9 201.3 339.1 201.3 347.6 215.95 350.8 215.95 342 201.15
Q 343.45 200.95 344.75 200.5 346.05 200.05 347.2 199.15 348.3 198.25 349 196.8 349.7 195.3 349.7 193.2 349.7 190.4 348.5 188.65 347.25 186.95 345.5 186.2 343.7 185.45 342.15 185.25
M 333.9 187.7
L 339.85 187.7
Q 341.95 187.7 343.35 188.25 344.75 188.75 345.5 189.6 346.3 190.4 346.6 191.35 346.9 192.3 346.9 193.2 346.9 194.1 346.6 195.05 346.3 196 345.55 196.8 344.8 197.65 343.35 198.15 341.95 198.7 339.85 198.7
L 333.9 198.7 333.9 187.7 Z"/>
</g>
</defs>

<g transform="matrix( 1, 0, 0, 1, 1.05,1.4) ">
<g transform="matrix( 1, 0, 0, 1, 0,0) ">
<use filter="url(#Filter_1)" xlink:href="#S_mbolo_19_0_Layer0_0_FILL"/>
</g>
</g>

<g transform="matrix( 1, 0, 0, 1, -184.5,-172) ">
<use xlink:href="#Layer0_0_MEMBER_1_FILL"/>
</g>

<g transform="matrix( 1, 0, 0, 1, -184.5,-172) ">
<use xlink:href="#Layer0_0_MEMBER_2_FILL"/>
</g>
</svg>
