
<svg xmlns="http://www.w3.org/2000/svg" version="1.1" xmlns:xlink="http://www.w3.org/1999/xlink" preserveAspectRatio="none" x="0px" y="0px" width="538px" height="69px" viewBox="0 0 538 69">
<defs>
<g id="Layer1_0_FILL">
<path fill="#666666" stroke="none" d="
M 543.85 177.75
Q 543.85 166.25 532.35 166.25
L 17.65 166.25
Q 6.15 166.25 6.15 177.75
L 6.15 223.25
Q 6.15 234.75 17.65 234.75
L 532.35 234.75
Q 543.85 234.75 543.85 223.25
L 543.85 177.75
M 532.35 169.25
Q 540.85 169.25 540.85 177.75
L 540.85 223.25
Q 540.85 231.75 532.35 231.75
L 17.65 231.75
Q 9.15 231.75 9.15 223.25
L 9.15 177.75
Q 9.15 169.25 17.65 169.25
L 532.35 169.25 Z"/>

<path fill="#FFFFFF" stroke="none" d="
M 540.85 177.75
Q 540.85 169.25 532.35 169.25
L 17.65 169.25
Q 9.15 169.25 9.15 177.75
L 9.15 223.25
Q 9.15 231.75 17.65 231.75
L 532.35 231.75
Q 540.85 231.75 540.85 223.25
L 540.85 177.75 Z"/>
</g>

<g id="Layer0_0_FILL">
<path fill="#000000" stroke="none" d="
M 145.25 196.65
Q 144.55 197.15 144.15 197.95 143.75 198.7 143.75 199.6 143.75 200.6 144.25 201.4 144.7 202.2 145.7 202.65 146.65 203.15 149.15 203.75 151 204.25 151.5 204.55 152.15 205 152.15 205.75 152.15 206.6 151.4 207.25 150.65 207.9 149.05 207.9 147.5 207.9 146.65 207.15 145.8 206.45 145.6 205.1
L 143.35 205.45
Q 143.75 207.6 145.1 208.65 146.45 209.75 149.1 209.75 150.65 209.75 151.9 209.2 153.15 208.65 153.85 207.65 154.5 206.65 154.5 205.5 154.5 204.35 153.95 203.55 153.4 202.8 152.45 202.35 151.5 201.95 149.1 201.3 147.4 200.85 147.1 200.75 146.5 200.5 146.2 200.1 145.95 199.75 145.95 199.3 145.95 198.65 146.6 198.1 147.25 197.6 148.85 197.6 150.15 197.6 150.9 198.15 151.6 198.75 151.75 199.8
L 154 199.5
Q 153.8 198.2 153.2 197.4 152.65 196.65 151.45 196.2 150.25 195.7 148.65 195.7 147.6 195.7 146.7 196 145.8 196.25 145.25 196.65
M 132.55 196.2
Q 131.2 196.65 130.55 197.55 129.85 198.45 129.55 199.85
L 131.75 200.15
Q 132.1 198.75 132.9 198.15 133.65 197.6 135.25 197.6 136.95 197.6 137.85 198.4 138.5 198.95 138.5 200.35 138.5 200.45 138.5 200.95 137.2 201.4 134.4 201.7 133.05 201.9 132.4 202.05 131.5 202.3 130.75 202.8 130.05 203.3 129.6 204.1 129.15 204.9 129.15 205.9 129.15 207.6 130.3 208.7 131.5 209.75 133.7 209.75 135.05 209.75 136.25 209.3 137.4 208.85 138.65 207.8 138.75 208.75 139.1 209.45
L 141.5 209.45
Q 141.05 208.7 140.95 207.85 140.8 207 140.8 203.8
L 140.8 200.8
Q 140.8 199.25 140.65 198.7 140.45 197.75 139.95 197.15 139.45 196.55 138.4 196.15 137.3 195.7 135.6 195.7 133.85 195.7 132.55 196.2
M 138.5 202.7
L 138.5 203.55
Q 138.5 205.05 138.1 205.8 137.65 206.8 136.6 207.4 135.6 207.95 134.25 207.95 132.95 207.95 132.25 207.35 131.55 206.75 131.55 205.85 131.55 205.25 131.9 204.75 132.2 204.3 132.8 204.05 133.35 203.75 134.75 203.55 137.25 203.2 138.5 202.7
M 90.4 196.05
L 88.1 196.05 88.1 203.2
Q 88.1 204.95 87.75 205.85 87.35 206.75 86.45 207.3 85.55 207.8 84.55 207.8 83.55 207.8 82.85 207.3 82.15 206.75 81.9 205.85 81.8 205.25 81.8 203.45
L 81.8 196.05 79.5 196.05 79.5 204.35
Q 79.5 205.8 79.65 206.45 79.85 207.45 80.35 208.15 80.85 208.85 81.9 209.3 82.9 209.75 84.1 209.75 86.8 209.75 88.35 207.5
L 88.35 209.45 90.4 209.45 90.4 196.05
M 103.8 197.55
Q 102.1 195.7 99.4 195.7 96.65 195.7 94.9 197.6 93.15 199.45 93.15 202.85 93.15 206.15 94.9 207.95 96.6 209.75 99.55 209.75 101.9 209.75 103.4 208.6 104.9 207.5 105.45 205.4
L 103.1 205.15
Q 102.6 206.55 101.7 207.25 100.8 207.9 99.55 207.9 97.9 207.9 96.75 206.7 95.65 205.55 95.5 203.3
L 105.5 203.3
Q 105.5 202.9 105.5 202.7 105.5 199.4 103.8 197.55
M 102.25 198.9
Q 102.95 199.75 103.1 201.45
L 95.65 201.45
Q 95.75 199.7 96.8 198.65 97.9 197.6 99.45 197.6 101.2 197.6 102.25 198.9
M 117.55 197.95
L 117.55 196.05 115.5 196.05 115.5 209.45 117.8 209.45 117.8 202.1
Q 117.8 199.55 118.85 198.6 119.9 197.7 121.35 197.7 122.25 197.7 122.95 198.1 123.6 198.5 123.85 199.2 124.15 199.9 124.15 201.3
L 124.15 209.45 126.4 209.45 126.4 201.2
Q 126.4 199.6 126.3 199 126.1 198 125.6 197.3 125.1 196.6 124.05 196.15 123.05 195.7 121.85 195.7 119.05 195.7 117.55 197.95
M 61.7 196.05
L 59.4 196.05 59.4 209.45 61.7 209.45 61.7 196.05
M 73.95 196.05
L 73.95 197.8
Q 72.5 195.7 70 195.7 68.45 195.7 67.1 196.55 65.75 197.4 65.05 199 64.35 200.6 64.35 202.6 64.35 205.95 66.1 207.85 67.8 209.75 70.2 209.75 71.25 209.75 72.25 209.25 73.2 208.75 73.7 208
L 73.7 214.6 76 214.6 76 196.05 73.95 196.05
M 73.95 202.9
Q 73.95 205.4 72.9 206.65 71.85 207.9 70.4 207.9 68.85 207.9 67.8 206.6 66.7 205.3 66.7 202.7 66.7 200.05 67.75 198.8 68.75 197.5 70.25 197.5 71.75 197.5 72.85 198.85 73.95 200.2 73.95 202.9
M 59.4 190.9
L 59.4 193.55 61.7 193.55 61.7 190.9 59.4 190.9
M 55.9 190.9
L 53.6 190.9 53.6 209.45 55.9 209.45 55.9 190.9
M 37.65 196.5
Q 38.25 194.75 39.65 193.7 41.1 192.7 43.25 192.7 45.1 192.7 46.3 193.6 47.55 194.55 48.2 196.55
L 50.6 196
Q 49.85 193.45 47.95 192 46.05 190.6 43.3 190.6 40.85 190.6 38.8 191.75 36.75 192.85 35.65 195 34.55 197.15 34.55 200.05 34.55 202.7 35.55 205 36.5 207.35 38.4 208.55 40.25 209.75 43.25 209.75 46.15 209.75 48.15 208.2 50.15 206.6 50.9 203.55
L 48.45 202.95
Q 47.95 205.3 46.55 206.5 45.1 207.65 43.05 207.65 41.35 207.65 39.9 206.8 38.45 205.9 37.75 204.15 37.05 202.4 37.05 200.05 37.05 198.2 37.65 196.5
M 303.6 195.7
Q 300.85 195.7 299.1 197.6 297.35 199.45 297.35 202.85 297.35 206.15 299.1 207.95 300.8 209.75 303.75 209.75 306.1 209.75 307.6 208.6 309.1 207.5 309.65 205.4
L 307.3 205.15
Q 306.8 206.55 305.9 207.25 305 207.9 303.75 207.9 302.1 207.9 300.95 206.7 299.85 205.55 299.7 203.3
L 309.7 203.3
Q 309.7 202.9 309.7 202.7 309.7 199.4 308 197.55 306.3 195.7 303.6 195.7
M 306.45 198.9
Q 307.15 199.75 307.3 201.45
L 299.85 201.45
Q 299.95 199.7 301 198.65 302.1 197.6 303.65 197.6 305.4 197.6 306.45 198.9
M 285.95 196.05
L 283.65 196.05 283.65 204.35
Q 283.65 205.8 283.8 206.45 284 207.45 284.5 208.15 285 208.85 286.05 209.3 287.05 209.75 288.25 209.75 290.95 209.75 292.5 207.5
L 292.5 209.45 294.55 209.45 294.55 196.05 292.25 196.05 292.25 203.2
Q 292.25 204.95 291.9 205.85 291.5 206.75 290.6 207.3 289.7 207.8 288.7 207.8 287.7 207.8 287 207.3 286.3 206.75 286.05 205.85 285.95 205.25 285.95 203.45
L 285.95 196.05
M 278.15 197.8
Q 276.7 195.7 274.2 195.7 272.65 195.7 271.3 196.55 269.95 197.4 269.25 199 268.55 200.6 268.55 202.6 268.55 205.95 270.3 207.85 272 209.75 274.4 209.75 275.45 209.75 276.45 209.25 277.4 208.75 277.9 208
L 277.9 214.6 280.2 214.6 280.2 196.05 278.15 196.05 278.15 197.8
M 277.1 206.65
Q 276.05 207.9 274.6 207.9 273.05 207.9 272 206.6 270.9 205.3 270.9 202.7 270.9 200.05 271.95 198.8 272.95 197.5 274.45 197.5 275.95 197.5 277.05 198.85 278.15 200.2 278.15 202.9 278.15 205.4 277.1 206.65
M 250.2 196.65
Q 249.5 197.15 249.1 197.95 248.7 198.7 248.7 199.6 248.7 200.6 249.2 201.4 249.65 202.2 250.65 202.65 251.6 203.15 254.1 203.75 255.95 204.25 256.45 204.55 257.1 205 257.1 205.75 257.1 206.6 256.35 207.25 255.6 207.9 254 207.9 252.45 207.9 251.6 207.15 250.75 206.45 250.55 205.1
L 248.3 205.45
Q 248.7 207.6 250.05 208.65 251.4 209.75 254.05 209.75 255.6 209.75 256.85 209.2 258.1 208.65 258.8 207.65 259.45 206.65 259.45 205.5 259.45 204.35 258.9 203.55 258.35 202.8 257.4 202.35 256.45 201.95 254.05 201.3 252.35 200.85 252.05 200.75 251.45 200.5 251.15 200.1 250.9 199.75 250.9 199.3 250.9 198.65 251.55 198.1 252.2 197.6 253.8 197.6 255.1 197.6 255.85 198.15 256.55 198.75 256.7 199.8
L 258.95 199.5
Q 258.75 198.2 258.15 197.4 257.6 196.65 256.4 196.2 255.2 195.7 253.6 195.7 252.55 195.7 251.65 196 250.75 196.25 250.2 196.65
M 237.45 196.2
Q 236.1 196.65 235.45 197.55 234.75 198.45 234.45 199.85
L 236.65 200.15
Q 237 198.75 237.8 198.15 238.55 197.6 240.15 197.6 241.85 197.6 242.75 198.4 243.4 198.95 243.4 200.35 243.4 200.45 243.4 200.95 242.1 201.4 239.3 201.7 237.95 201.9 237.3 202.05 236.4 202.3 235.65 202.8 234.95 203.3 234.5 204.1 234.05 204.9 234.05 205.9 234.05 207.6 235.2 208.7 236.4 209.75 238.6 209.75 239.95 209.75 241.15 209.3 242.3 208.85 243.55 207.8 243.65 208.75 244 209.45
L 246.4 209.45
Q 245.95 208.7 245.85 207.85 245.7 207 245.7 203.8
L 245.7 200.8
Q 245.7 199.25 245.55 198.7 245.35 197.75 244.85 197.15 244.35 196.55 243.3 196.15 242.2 195.7 240.5 195.7 238.75 195.7 237.45 196.2
M 243.4 202.7
L 243.4 203.55
Q 243.4 205.05 243 205.8 242.55 206.8 241.5 207.4 240.5 207.95 239.15 207.95 237.85 207.95 237.15 207.35 236.45 206.75 236.45 205.85 236.45 205.25 236.8 204.75 237.1 204.3 237.7 204.05 238.25 203.75 239.65 203.55 242.15 203.2 243.4 202.7
M 233.5 196.45
Q 232.3 195.7 231.15 195.7 230.35 195.7 229.7 196.2 229 196.65 228.25 198.05
L 228.25 196.05 226.2 196.05 226.2 209.45 228.45 209.45 228.45 202.4
Q 228.45 201 228.85 199.75 229.1 198.95 229.7 198.55 230.3 198.05 231 198.05 231.85 198.05 232.7 198.55
L 233.5 196.45
M 214.35 196.05
L 211.95 196.05 217.05 209.45 219.15 209.45 224.25 196.05 221.9 196.05 218.9 204.2
Q 218.4 205.7 218.05 206.75 217.7 205.35 217.2 204.05
L 214.35 196.05
M 195.4 190.9
L 193.1 190.9 193.1 209.45 195.4 209.45 195.4 190.9
M 201.55 196.2
Q 200.2 196.65 199.55 197.55 198.85 198.45 198.55 199.85
L 200.75 200.15
Q 201.1 198.75 201.9 198.15 202.65 197.6 204.25 197.6 205.95 197.6 206.85 198.4 207.5 198.95 207.5 200.35 207.5 200.45 207.5 200.95 206.2 201.4 203.4 201.7 202.05 201.9 201.4 202.05 200.5 202.3 199.75 202.8 199.05 203.3 198.6 204.1 198.15 204.9 198.15 205.9 198.15 207.6 199.3 208.7 200.5 209.75 202.7 209.75 204.05 209.75 205.25 209.3 206.4 208.85 207.65 207.8 207.75 208.75 208.1 209.45
L 210.5 209.45
Q 210.05 208.7 209.95 207.85 209.8 207 209.8 203.8
L 209.8 200.8
Q 209.8 199.25 209.65 198.7 209.45 197.75 208.95 197.15 208.45 196.55 207.4 196.15 206.3 195.7 204.6 195.7 202.85 195.7 201.55 196.2
M 207.5 202.7
L 207.5 203.55
Q 207.5 205.05 207.1 205.8 206.65 206.8 205.6 207.4 204.6 207.95 203.25 207.95 201.95 207.95 201.25 207.35 200.55 206.75 200.55 205.85 200.55 205.25 200.9 204.75 201.2 204.3 201.8 204.05 202.35 203.75 203.75 203.55 206.25 203.2 207.5 202.7
M 181.45 196.2
Q 180.1 196.65 179.45 197.55 178.75 198.45 178.45 199.85
L 180.65 200.15
Q 181 198.75 181.8 198.15 182.55 197.6 184.15 197.6 185.85 197.6 186.75 198.4 187.4 198.95 187.4 200.35 187.4 200.45 187.4 200.95 186.1 201.4 183.3 201.7 181.95 201.9 181.3 202.05 180.4 202.3 179.65 202.8 178.95 203.3 178.5 204.1 178.05 204.9 178.05 205.9 178.05 207.6 179.2 208.7 180.4 209.75 182.6 209.75 183.95 209.75 185.15 209.3 186.3 208.85 187.55 207.8 187.65 208.75 188 209.45
L 190.4 209.45
Q 189.95 208.7 189.85 207.85 189.7 207 189.7 203.8
L 189.7 200.8
Q 189.7 199.25 189.55 198.7 189.35 197.75 188.85 197.15 188.35 196.55 187.3 196.15 186.2 195.7 184.5 195.7 182.75 195.7 181.45 196.2
M 187.4 202.7
L 187.4 203.55
Q 187.4 205.05 187 205.8 186.55 206.8 185.5 207.4 184.5 207.95 183.15 207.95 181.85 207.95 181.15 207.35 180.45 206.75 180.45 205.85 180.45 205.25 180.8 204.75 181.1 204.3 181.7 204.05 182.25 203.75 183.65 203.55 186.15 203.2 187.4 202.7
M 166.5 196.05
L 164.4 196.05 164.4 214.6 166.7 214.6 166.7 208.05
Q 167.25 208.8 168.15 209.25 169.05 209.75 170.2 209.75 171.75 209.75 173.2 208.9 174.6 208 175.35 206.35 176.05 204.7 176.05 202.65 176.05 200.7 175.4 199.1 174.7 197.5 173.4 196.6 172.1 195.7 170.35 195.7 169.05 195.7 168.15 196.25 167.2 196.75 166.5 197.75
L 166.5 196.05
M 172.7 198.8
Q 173.75 200.05 173.75 202.6 173.75 205.3 172.65 206.6 171.55 207.9 170.05 207.9 168.55 207.9 167.5 206.65 166.45 205.4 166.45 202.8 166.45 200.2 167.6 198.85 168.7 197.5 170.15 197.5 171.6 197.5 172.7 198.8
M 511.6 206.85
L 511.6 209.45 514.2 209.45 514.2 206.85 511.6 206.85
M 457.35 190.9
L 454.7 190.9 461.9 209.45 464.4 209.45 471.65 190.9 469.15 190.9 464.15 204.4
Q 463.6 205.9 463.15 207.4 462.75 206 462.2 204.4
L 457.35 190.9
M 452.25 190.9
L 449.8 190.9 449.8 209.45 452.25 209.45 452.25 190.9
M 432.2 193.1
L 438.3 193.1 438.3 209.45 440.75 209.45 440.75 193.1 446.9 193.1 446.9 190.9 432.2 190.9 432.2 193.1
M 429.8 190.9
L 416.4 190.9 416.4 209.45 430.25 209.45 430.25 207.25 418.85 207.25 418.85 200.95 429.1 200.95 429.1 198.8 418.85 198.8 418.85 193.1 429.8 193.1 429.8 190.9
M 412.35 190.9
L 409.9 190.9 409.9 203.7
Q 409.9 205.3 409.65 206 409.4 206.75 408.7 207.15 408.05 207.6 407.1 207.6 405.85 207.6 405.15 206.8 404.45 206 404.35 203.9
L 402.15 204.2
Q 402.1 206.95 403.4 208.35 404.7 209.75 407.15 209.75 408.75 209.75 410 209.1 411.2 208.45 411.8 207.15 412.35 205.85 412.35 203.55
L 412.35 190.9
M 394.4 191.2
Q 393.25 190.9 391.1 190.9
L 384.7 190.9 384.7 209.45 391.4 209.45
Q 393.05 209.45 394.35 209.15 395.65 208.8 396.6 208.2 397.5 207.6 398.25 206.55 399.05 205.45 399.55 203.8 400 202.2 400 200.1 400 197.6 399.3 195.7 398.55 193.75 397.1 192.5 395.95 191.55 394.4 191.2
M 387.15 193.1
L 391.05 193.1
Q 393.25 193.1 394.2 193.5 395.6 194 396.55 195.6 397.5 197.15 397.5 200.05 397.5 202.15 397 203.6 396.5 205.1 395.65 205.95 395.05 206.6 394 206.9 392.95 207.25 391.1 207.25
L 387.15 207.25 387.15 193.1
M 375.15 190.9
L 372.55 190.9 365.4 209.45 368 209.45 370.05 203.85 377.8 203.85 379.95 209.45 382.75 209.45 375.15 190.9
M 373.8 192.85
Q 374.2 194.35 375.1 196.7
L 377.05 201.85 370.75 201.85 372.8 196.4
Q 373.45 194.65 373.8 192.85
M 352.45 195.7
Q 349.95 195.7 348.25 197.2 346.15 199 346.15 202.75 346.15 206.15 347.9 207.95 349.65 209.75 352.45 209.75 354.2 209.75 355.7 208.95 357.2 208.1 357.95 206.65 358.75 205.15 358.75 202.55 358.75 199.35 357 197.55 355.2 195.7 352.45 195.7
M 355.25 198.9
Q 356.4 200.15 356.4 202.65 356.4 205.3 355.25 206.6 354.15 207.9 352.45 207.9 350.75 207.9 349.6 206.6 348.5 205.3 348.5 202.75 348.5 200.15 349.6 198.9 350.75 197.6 352.45 197.6 354.15 197.6 355.25 198.9
M 338.3 195.7
Q 336.55 195.7 335.25 196.2 333.9 196.65 333.25 197.55 332.55 198.45 332.25 199.85
L 334.45 200.15
Q 334.8 198.75 335.6 198.15 336.35 197.6 337.95 197.6 339.65 197.6 340.55 198.4 341.2 198.95 341.2 200.35 341.2 200.45 341.2 200.95 339.9 201.4 337.1 201.7 335.75 201.9 335.1 202.05 334.2 202.3 333.45 202.8 332.75 203.3 332.3 204.1 331.85 204.9 331.85 205.9 331.85 207.6 333 208.7 334.2 209.75 336.4 209.75 337.75 209.75 338.95 209.3 340.1 208.85 341.35 207.8 341.45 208.75 341.8 209.45
L 344.2 209.45
Q 343.75 208.7 343.65 207.85 343.5 207 343.5 203.8
L 343.5 200.8
Q 343.5 199.25 343.35 198.7 343.15 197.75 342.65 197.15 342.15 196.55 341.1 196.15 340 195.7 338.3 195.7
M 341.2 202.7
L 341.2 203.55
Q 341.2 205.05 340.8 205.8 340.35 206.8 339.3 207.4 338.3 207.95 336.95 207.95 335.65 207.95 334.95 207.35 334.25 206.75 334.25 205.85 334.25 205.25 334.6 204.75 334.9 204.3 335.5 204.05 336.05 203.75 337.45 203.55 339.95 203.2 341.2 202.7
M 342.25 191.1
L 340.6 191.1
Q 340.5 191.8 340.3 192 340.1 192.2 339.7 192.2 339.25 192.2 338.5 191.85 337.15 191.15 336.35 191.15 335.25 191.15 334.5 191.95 333.8 192.75 333.8 194.05
L 335.5 194.05
Q 335.45 193.45 335.75 193.15 336 192.85 336.45 192.85 336.85 192.85 337.7 193.3 339 194 339.75 194 340.85 194 341.55 193.3 342.2 192.55 342.25 191.1
M 326.85 196.2
Q 325.65 195.7 324.05 195.7 323 195.7 322.1 196 321.2 196.25 320.65 196.65 319.95 197.15 319.55 197.95 319.15 198.7 319.15 199.6 319.15 200.6 319.65 201.4 320.1 202.2 321.1 202.65 322.05 203.15 324.55 203.75 326.4 204.25 326.9 204.55 327.55 205 327.55 205.75 327.55 206.6 326.8 207.25 326.05 207.9 324.45 207.9 322.9 207.9 322.05 207.15 321.2 206.45 321 205.1
L 318.75 205.45
Q 319.15 207.6 320.5 208.65 321.85 209.75 324.5 209.75 326.05 209.75 327.3 209.2 328.55 208.65 329.25 207.65 329.9 206.65 329.9 205.5 329.9 204.35 329.35 203.55 328.8 202.8 327.85 202.35 326.9 201.95 324.5 201.3 322.8 200.85 322.5 200.75 321.9 200.5 321.6 200.1 321.35 199.75 321.35 199.3 321.35 198.65 322 198.1 322.65 197.6 324.25 197.6 325.55 197.6 326.3 198.15 327 198.75 327.15 199.8
L 329.4 199.5
Q 329.2 198.2 328.6 197.4 328.05 196.65 326.85 196.2
M 494.65 193.1
Q 493.85 194.3 493.85 195.7 493.85 197 494.55 198 495.15 199.05 496.5 199.75 497.5 200.3 500.1 200.9 502.65 201.5 503.4 201.8 504.55 202.25 505.05 202.9 505.55 203.55 505.55 204.4 505.55 205.3 505.05 206 504.5 206.75 503.45 207.15 502.35 207.55 500.95 207.55 499.35 207.55 498.1 207 496.85 206.45 496.25 205.6 495.65 204.7 495.5 203.3
L 493.15 203.5
Q 493.2 205.35 494.2 206.85 495.15 208.3 496.85 209.05 498.55 209.75 501.05 209.75 503.05 209.75 504.65 209.05 506.2 208.3 507.05 207 507.9 205.7 507.9 204.2 507.9 202.7 507.15 201.6 506.35 200.45 504.75 199.7 503.65 199.2 500.65 198.5 497.65 197.85 496.95 197.2 496.25 196.55 496.25 195.55 496.25 194.4 497.25 193.6 498.25 192.75 500.5 192.75 502.65 192.75 503.75 193.65 504.8 194.55 505 196.3
L 507.35 196.15
Q 507.3 194.5 506.45 193.2 505.6 191.95 504.05 191.25 502.45 190.6 500.4 190.6 498.5 190.6 497 191.25 495.45 191.85 494.65 193.1
M 489.8 195.25
Q 488.7 193.05 486.65 191.8 484.6 190.6 482.05 190.6 478.1 190.6 475.65 193.2 473.15 195.8 473.15 200.4 473.15 202.85 474.2 205.05 475.3 207.25 477.35 208.5 479.4 209.75 482 209.75 484.45 209.75 486.5 208.65 488.6 207.5 489.75 205.25 490.85 203.05 490.85 200.2 490.85 197.45 489.8 195.25
M 482.05 192.7
Q 483.85 192.7 485.35 193.65 486.8 194.55 487.6 196.25 488.35 197.95 488.35 200.2 488.35 203.75 486.55 205.7 484.75 207.65 482 207.65 479.3 207.65 477.5 205.75 475.7 203.8 475.7 200.45 475.7 196.3 477.55 194.5 479.45 192.7 482.05 192.7 Z"/>
</g>
</defs>

<g transform="matrix( 1, 0, 0, 1, -6,-166) ">
<use xlink:href="#Layer1_0_FILL"/>
</g>

<g transform="matrix( 1, 0, 0, 1, -5.35,-168.1) ">
<use xlink:href="#Layer0_0_FILL"/>
</g>
</svg>
