
<svg xmlns="http://www.w3.org/2000/svg" version="1.1" xmlns:xlink="http://www.w3.org/1999/xlink" preserveAspectRatio="none" x="0px" y="0px" width="84px" height="84px" viewBox="0 0 84 84">
<defs>
<linearGradient id="Gradient_1" gradientUnits="userSpaceOnUse" x1="311.40000000000003" y1="160.84999999999997" x2="302.2" y2="311.05" spreadMethod="pad">
<stop  offset="0%" stop-color="#CCCCCC"/>

<stop  offset="46.666666666666664%" stop-color="#4B535A"/>

<stop  offset="100%" stop-color="#636A70"/>
</linearGradient>

<g id="Layer1_0_FILL">
<path fill="url(#Gradient_1)" stroke="none" d="
M 339.5 159.5
Q 337.85 159.25 335.95 159.25
L 282.05 159.25
Q 280.15 159.25 278.55 159.5 267.2 161.15 267.2 174.1
L 267.2 228.05
Q 267.2 242.85 282.05 242.85
L 335.95 242.85
Q 336.6 242.85 337.25 242.85 350.8 242.2 350.8 228.05
L 350.8 174.1
Q 350.8 161.15 339.5 159.5
M 333.8 162.25
Q 347.95 162.25 347.95 176.3
L 347.95 225.9
Q 347.95 238.2 337.05 239.8 335.55 240 333.8 240
L 284.25 240
Q 270.15 240 270.15 225.9
L 270.15 176.3
Q 270.15 162.25 284.25 162.25
L 333.8 162.25 Z"/>

<path fill="#FFFFFF" stroke="none" d="
M 347.95 176.3
Q 347.95 162.25 333.8 162.25
L 284.25 162.25
Q 270.15 162.25 270.15 176.3
L 270.15 225.9
Q 270.15 240 284.25 240
L 333.8 240
Q 335.55 240 337.05 239.8 347.95 238.2 347.95 225.9
L 347.95 176.3
M 333.8 163.25
Q 346.95 163.25 346.95 176.3
L 346.95 225.9
Q 346.95 237.3 336.9 238.8 335.45 239 333.8 239
L 284.25 239
Q 271.15 239 271.15 225.9
L 271.15 176.3
Q 271.15 163.25 284.25 163.25
L 333.8 163.25 Z"/>

<path fill="#003366" fill-opacity="0.6980392156862745" stroke="none" d="
M 346.95 176.3
Q 346.95 163.25 333.8 163.25
L 284.25 163.25
Q 271.15 163.25 271.15 176.3
L 271.15 225.9
Q 271.15 239 284.25 239
L 333.8 239
Q 335.45 239 336.9 238.8 346.95 237.3 346.95 225.9
L 346.95 176.3 Z"/>
</g>

<g id="Layer1_0_MEMBER_0_FILL">
<path fill="#00FFFF" stroke="none" d="
M 280.35 217.75
L 270 217.75 270 227.8 280.35 227.8 280.35 217.75
M 258.7 184.7
Q 257.45 187.8 257.45 191.55
L 267.35 191.55
Q 267.75 187.7 269.25 185.45 270.8 183.2 274.9 183.2 277.7 183.2 279.8 184.7 281.9 186.2 281.9 189.95 281.9 192.2 281.05 193.55 280.2 194.95 278.95 196.05 277.75 197.2 276.3 198.15 274.85 199.2 273.65 200.55 271.65 202.85 270.95 205.65 270.3 208.4 270.3 212.95
L 279.65 212.95
Q 279.65 211.25 279.8 209.9 280 208.55 280.5 207.35 281.05 206.1 282.1 205 283.15 203.85 284.8 202.55 286.65 201.15 288.15 199.85 289.6 198.6 290.6 197.1 291.6 195.55 292.1 193.75 292.6 191.85 292.6 189.4 292.6 181.8 287.8 178.4 283 175.05 274.65 175.05 270.8 175.05 267.6 176.2 264.45 177.3 262.15 179.5 259.9 181.65 258.7 184.7 Z"/>
</g>
</defs>

<g transform="matrix( 1, 0, 0, 1, -267,-159.05) ">
<use xlink:href="#Layer1_0_FILL"/>
</g>

<g transform="matrix( 1, 0, 0, 1, -233,-159.4) ">
<use xlink:href="#Layer1_0_MEMBER_0_FILL"/>
</g>
</svg>
