
<svg xmlns="http://www.w3.org/2000/svg" version="1.1" xmlns:xlink="http://www.w3.org/1999/xlink" preserveAspectRatio="none" x="0px" y="0px" width="212px" height="91px" viewBox="0 0 212 91">
<defs>
<linearGradient id="Gradient_1" gradientUnits="userSpaceOnUse" x1="277.825" y1="180.175" x2="266.47499999999997" y2="263.325" spreadMethod="pad">
<stop  offset="0%" stop-color="#CCCCCC"/>

<stop  offset="46.666666666666664%" stop-color="#4B535A"/>

<stop  offset="100%" stop-color="#636A70"/>
</linearGradient>

<g id="Layer0_0_FILL">
<path fill="url(#Gradient_1)" stroke="none" d="
M 380.7 166.25
Q 380.7 155.8 369.7 155.5
L 180.45 155.5
Q 169.35 155.8 169.35 166.25
L 169.35 235.25
Q 169.4 237 169.8 238.45 171.5 245.25 180.45 245.55
L 369.7 245.55
Q 379.1 245.25 380.5 237.6 380.65 236.45 380.7 235.15
L 380.7 166.25
M 368.8 159.3
Q 376.9998046875 160.9671875 377 170.2
L 377 230.6
Q 377.016796875 241.533984375 365.5 241.9
L 184.45 241.9
Q 172.8810546875 241.5341796875 172.9 230.6
L 172.9 170.2
Q 172.8798828125 159.2634765625 184.45 158.95
L 365.5 158.95
Q 367.2650390625 158.996484375 368.8 159.3 Z"/>

<path fill="#FFFFFF" stroke="none" d="
M 377 170.2
Q 376.9998046875 160.9671875 368.8 159.3 367.2650390625 158.996484375 365.5 158.95
L 184.45 158.95
Q 172.8798828125 159.2634765625 172.9 170.2
L 172.9 230.6
Q 172.8810546875 241.5341796875 184.45 241.9
L 365.5 241.9
Q 377.016796875 241.533984375 377 230.6
L 377 170.2
M 368.6 160.3
Q 376.0001953125 161.832421875 376 170.2
L 376 230.6
Q 375.9830078125 240.5658203125 365.45 240.9
L 184.5 240.9
Q 173.91875 240.55390625 173.9 230.6
L 173.9 170.2
Q 173.9197265625 160.248046875 184.5 159.95
L 365.5 159.95
Q 367.1458984375 160.00546875 368.6 160.3 Z"/>

<path fill="#003366" fill-opacity="0.6980392156862745" stroke="none" d="
M 376 170.2
Q 376.0001953125 161.832421875 368.6 160.3 367.1458984375 160.00546875 365.5 159.95
L 184.5 159.95
Q 173.9197265625 160.248046875 173.9 170.2
L 173.9 230.6
Q 173.91875 240.55390625 184.5 240.9
L 365.45 240.9
Q 375.9830078125 240.5658203125 376 230.6
L 376 170.2 Z"/>
</g>
</defs>

<g transform="matrix( 1, 0, 0, 1, -169,-155) ">
<use xlink:href="#Layer0_0_FILL"/>
</g>
</svg>
