
<svg xmlns="http://www.w3.org/2000/svg" version="1.1" xmlns:xlink="http://www.w3.org/1999/xlink" preserveAspectRatio="none" x="0px" y="0px" width="742px" height="69px" viewBox="0 0 742 69">
<defs>
<g id="Layer1_0_FILL">
<path fill="#666666" stroke="none" d="
M 741.6 11.75
Q 741.6 0.55 730.8 0.25
L 11.25 0.25
Q 0.4 0.55 0.4 11.75
L 0.4 57.25
Q 0.4 68.45 11.25 68.75
L 730.8 68.75
Q 741.6 68.45 741.6 57.25
L 741.6 11.75
M 730.7 3.25
Q 738.6 3.55 738.6 11.75
L 738.6 57.25
Q 738.6 65.45 730.7 65.75
L 11.3 65.75
Q 3.4 65.45 3.4 57.25
L 3.4 11.75
Q 3.4 3.55 11.35 3.25
L 730.7 3.25 Z"/>

<path fill="#FFFFFF" stroke="none" d="
M 738.6 11.75
Q 738.6 3.55 730.7 3.25
L 11.35 3.25
Q 3.4 3.55 3.4 11.75
L 3.4 57.25
Q 3.4 65.45 11.3 65.75
L 730.7 65.75
Q 738.6 65.45 738.6 57.25
L 738.6 11.75 Z"/>
</g>

<g id="Layer0_0_FILL">
<path fill="#000000" stroke="none" d="
M 34.45 22.5
Q 32 22.5 29.95 23.65 27.9 24.75 26.8 26.9 25.7 29.05 25.7 31.95 25.7 34.6 26.7 36.9 27.65 39.25 29.55 40.45 31.4 41.65 34.4 41.65 37.3 41.65 39.3 40.1 41.3 38.5 42.05 35.45
L 39.6 34.85
Q 39.1 37.2 37.7 38.4 36.25 39.55 34.2 39.55 32.5 39.55 31.05 38.7 29.6 37.8 28.9 36.05 28.2 34.3 28.2 31.95 28.2 30.1 28.8 28.4 29.4 26.65 30.8 25.6 32.25 24.6 34.4 24.6 36.25 24.6 37.45 25.5 38.7 26.45 39.35 28.45
L 41.75 27.9
Q 41 25.35 39.1 23.9 37.2 22.5 34.45 22.5
M 50.55 41.35
L 52.85 41.35 52.85 27.95 50.55 27.95 50.55 41.35
M 56.2 30.9
Q 55.5 32.5 55.5 34.5 55.5 37.85 57.25 39.75 58.95 41.65 61.35 41.65 62.4 41.65 63.4 41.15 64.35 40.65 64.85 39.9
L 64.85 46.5 67.15 46.5 67.15 27.95 65.1 27.95 65.1 29.7
Q 63.65 27.6 61.15 27.6 59.6 27.6 58.25 28.45 56.9 29.3 56.2 30.9
M 57.85 34.6
Q 57.85 31.95 58.9 30.7 59.9 29.4 61.4 29.4 62.9 29.4 64 30.75 65.1 32.1 65.1 34.8 65.1 37.3 64.05 38.55 63 39.8 61.55 39.8 60 39.8 58.95 38.5 57.85 37.2 57.85 34.6
M 47.05 22.8
L 44.75 22.8 44.75 41.35 47.05 41.35 47.05 22.8
M 52.85 22.8
L 50.55 22.8 50.55 25.45 52.85 25.45 52.85 22.8
M 116.75 29.2
Q 116.25 28.5 115.2 28.05 114.2 27.6 113 27.6 110.2 27.6 108.7 29.85
L 108.7 27.95 106.65 27.95 106.65 41.35 108.95 41.35 108.95 34
Q 108.95 31.45 110 30.5 111.05 29.6 112.5 29.6 113.4 29.6 114.1 30 114.75 30.4 115 31.1 115.3 31.8 115.3 33.2
L 115.3 41.35 117.55 41.35 117.55 33.1
Q 117.55 31.5 117.45 30.9 117.25 29.9 116.75 29.2
M 81.55 41.35
L 81.55 27.95 79.25 27.95 79.25 35.1
Q 79.25 36.85 78.9 37.75 78.5 38.65 77.6 39.2 76.7 39.7 75.7 39.7 74.7 39.7 74 39.2 73.3 38.65 73.05 37.75 72.95 37.15 72.95 35.35
L 72.95 27.95 70.65 27.95 70.65 36.25
Q 70.65 37.7 70.8 38.35 71 39.35 71.5 40.05 72 40.75 73.05 41.2 74.05 41.65 75.25 41.65 77.95 41.65 79.5 39.4
L 79.5 41.35 81.55 41.35
M 96.65 34.6
Q 96.65 31.3 94.95 29.45 93.25 27.6 90.55 27.6 87.8 27.6 86.05 29.5 84.3 31.35 84.3 34.75 84.3 38.05 86.05 39.85 87.75 41.65 90.7 41.65 93.05 41.65 94.55 40.5 96.05 39.4 96.6 37.3
L 94.25 37.05
Q 93.75 38.45 92.85 39.15 91.95 39.8 90.7 39.8 89.05 39.8 87.9 38.6 86.8 37.45 86.65 35.2
L 96.65 35.2
Q 96.65 34.8 96.65 34.6
M 93.4 30.8
Q 94.1 31.65 94.25 33.35
L 86.8 33.35
Q 86.9 31.6 87.95 30.55 89.05 29.5 90.6 29.5 92.35 29.5 93.4 30.8
M 131.95 35.7
L 131.95 32.7
Q 131.95 31.15 131.8 30.6 131.6 29.65 131.1 29.05 130.6 28.45 129.55 28.05 128.45 27.6 126.75 27.6 125 27.6 123.7 28.1 122.35 28.55 121.7 29.45 121 30.35 120.7 31.75
L 122.9 32.05
Q 123.25 30.65 124.05 30.05 124.8 29.5 126.4 29.5 128.1 29.5 129 30.3 129.65 30.85 129.65 32.25 129.65 32.35 129.65 32.85 128.35 33.3 125.55 33.6 124.2 33.8 123.55 33.95 122.65 34.2 121.9 34.7 121.2 35.2 120.75 36 120.3 36.8 120.3 37.8 120.3 39.5 121.45 40.6 122.65 41.65 124.85 41.65 126.2 41.65 127.4 41.2 128.55 40.75 129.8 39.7 129.9 40.65 130.25 41.35
L 132.65 41.35
Q 132.2 40.6 132.1 39.75 131.95 38.9 131.95 35.7
M 123.05 36.65
Q 123.35 36.2 123.95 35.95 124.5 35.65 125.9 35.45 128.4 35.1 129.65 34.6
L 129.65 35.45
Q 129.65 36.95 129.25 37.7 128.8 38.7 127.75 39.3 126.75 39.85 125.4 39.85 124.1 39.85 123.4 39.25 122.7 38.65 122.7 37.75 122.7 37.15 123.05 36.65
M 139.8 27.6
Q 138.75 27.6 137.85 27.9 136.95 28.15 136.4 28.55 135.7 29.05 135.3 29.85 134.9 30.6 134.9 31.5 134.9 32.5 135.4 33.3 135.85 34.1 136.85 34.55 137.8 35.05 140.3 35.65 142.15 36.15 142.65 36.45 143.3 36.9 143.3 37.65 143.3 38.5 142.55 39.15 141.8 39.8 140.2 39.8 138.65 39.8 137.8 39.05 136.95 38.35 136.75 37
L 134.5 37.35
Q 134.9 39.5 136.25 40.55 137.6 41.65 140.25 41.65 141.8 41.65 143.05 41.1 144.3 40.55 145 39.55 145.65 38.55 145.65 37.4 145.65 36.25 145.1 35.45 144.55 34.7 143.6 34.25 142.65 33.85 140.25 33.2 138.55 32.75 138.25 32.65 137.65 32.4 137.35 32 137.1 31.65 137.1 31.2 137.1 30.55 137.75 30 138.4 29.5 140 29.5 141.3 29.5 142.05 30.05 142.75 30.65 142.9 31.7
L 145.15 31.4
Q 144.95 30.1 144.35 29.3 143.8 28.55 142.6 28.1 141.4 27.6 139.8 27.6
M 200.8 30.6
Q 200.6 29.65 200.1 29.05 199.6 28.45 198.55 28.05 197.45 27.6 195.75 27.6 194 27.6 192.7 28.1 191.35 28.55 190.7 29.45 190 30.35 189.7 31.75
L 191.9 32.05
Q 192.25 30.65 193.05 30.05 193.8 29.5 195.4 29.5 197.1 29.5 198 30.3 198.65 30.85 198.65 32.25 198.65 32.35 198.65 32.85 197.35 33.3 194.55 33.6 193.2 33.8 192.55 33.95 191.65 34.2 190.9 34.7 190.2 35.2 189.75 36 189.3 36.8 189.3 37.8 189.3 39.5 190.45 40.6 191.65 41.65 193.85 41.65 195.2 41.65 196.4 41.2 197.55 40.75 198.8 39.7 198.9 40.65 199.25 41.35
L 201.65 41.35
Q 201.2 40.6 201.1 39.75 200.95 38.9 200.95 35.7
L 200.95 32.7
Q 200.95 31.15 200.8 30.6
M 192.95 35.95
Q 193.5 35.65 194.9 35.45 197.4 35.1 198.65 34.6
L 198.65 35.45
Q 198.65 36.95 198.25 37.7 197.8 38.7 196.75 39.3 195.75 39.85 194.4 39.85 193.1 39.85 192.4 39.25 191.7 38.65 191.7 37.75 191.7 37.15 192.05 36.65 192.35 36.2 192.95 35.95
M 167.2 34.55
Q 167.2 32.6 166.55 31 165.85 29.4 164.55 28.5 163.25 27.6 161.5 27.6 160.2 27.6 159.3 28.15 158.35 28.65 157.65 29.65
L 157.65 27.95 155.55 27.95 155.55 46.5 157.85 46.5 157.85 39.95
Q 158.4 40.7 159.3 41.15 160.2 41.65 161.35 41.65 162.9 41.65 164.35 40.8 165.75 39.9 166.5 38.25 167.2 36.6 167.2 34.55
M 163.85 30.7
Q 164.9 31.95 164.9 34.5 164.9 37.2 163.8 38.5 162.7 39.8 161.2 39.8 159.7 39.8 158.65 38.55 157.6 37.3 157.6 34.7 157.6 32.1 158.75 30.75 159.85 29.4 161.3 29.4 162.75 29.4 163.85 30.7
M 180 29.05
Q 179.5 28.45 178.45 28.05 177.35 27.6 175.65 27.6 173.9 27.6 172.6 28.1 171.25 28.55 170.6 29.45 169.9 30.35 169.6 31.75
L 171.8 32.05
Q 172.15 30.65 172.95 30.05 173.7 29.5 175.3 29.5 177 29.5 177.9 30.3 178.55 30.85 178.55 32.25 178.55 32.35 178.55 32.85 177.25 33.3 174.45 33.6 173.1 33.8 172.45 33.95 171.55 34.2 170.8 34.7 170.1 35.2 169.65 36 169.2 36.8 169.2 37.8 169.2 39.5 170.35 40.6 171.55 41.65 173.75 41.65 175.1 41.65 176.3 41.2 177.45 40.75 178.7 39.7 178.8 40.65 179.15 41.35
L 181.55 41.35
Q 181.1 40.6 181 39.75 180.85 38.9 180.85 35.7
L 180.85 32.7
Q 180.85 31.15 180.7 30.6 180.5 29.65 180 29.05
M 172.85 35.95
Q 173.4 35.65 174.8 35.45 177.3 35.1 178.55 34.6
L 178.55 35.45
Q 178.55 36.95 178.15 37.7 177.7 38.7 176.65 39.3 175.65 39.85 174.3 39.85 173 39.85 172.3 39.25 171.6 38.65 171.6 37.75 171.6 37.15 171.95 36.65 172.25 36.2 172.85 35.95
M 186.55 22.8
L 184.25 22.8 184.25 41.35 186.55 41.35 186.55 22.8
M 236.7 30.6
Q 236.5 29.65 236 29.05 235.5 28.45 234.45 28.05 233.35 27.6 231.65 27.6 229.9 27.6 228.6 28.1 227.25 28.55 226.6 29.45 225.9 30.35 225.6 31.75
L 227.8 32.05
Q 228.15 30.65 228.95 30.05 229.7 29.5 231.3 29.5 233 29.5 233.9 30.3 234.55 30.85 234.55 32.25 234.55 32.35 234.55 32.85 233.25 33.3 230.45 33.6 229.1 33.8 228.45 33.95 227.55 34.2 226.8 34.7 226.1 35.2 225.65 36 225.2 36.8 225.2 37.8 225.2 39.5 226.35 40.6 227.55 41.65 229.75 41.65 231.1 41.65 232.3 41.2 233.45 40.75 234.7 39.7 234.8 40.65 235.15 41.35
L 237.55 41.35
Q 237.1 40.6 237 39.75 236.85 38.9 236.85 35.7
L 236.85 32.7
Q 236.85 31.15 236.7 30.6
M 234.55 34.6
L 234.55 35.45
Q 234.55 36.95 234.15 37.7 233.7 38.7 232.65 39.3 231.65 39.85 230.3 39.85 229 39.85 228.3 39.25 227.6 38.65 227.6 37.75 227.6 37.15 227.95 36.65 228.25 36.2 228.85 35.95 229.4 35.65 230.8 35.45 233.3 35.1 234.55 34.6
M 215.4 27.95
L 213.05 27.95 210.05 36.1
Q 209.55 37.6 209.2 38.65 208.85 37.25 208.35 35.95
L 205.5 27.95 203.1 27.95 208.2 41.35 210.3 41.35 215.4 27.95
M 219.4 29.95
L 219.4 27.95 217.35 27.95 217.35 41.35 219.6 41.35 219.6 34.3
Q 219.6 32.9 220 31.65 220.25 30.85 220.85 30.45 221.45 29.95 222.15 29.95 223 29.95 223.85 30.45
L 224.65 28.35
Q 223.45 27.6 222.3 27.6 221.5 27.6 220.85 28.1 220.15 28.55 219.4 29.95
M 247.55 28.1
Q 246.35 27.6 244.75 27.6 243.7 27.6 242.8 27.9 241.9 28.15 241.35 28.55 240.65 29.05 240.25 29.85 239.85 30.6 239.85 31.5 239.85 32.5 240.35 33.3 240.8 34.1 241.8 34.55 242.75 35.05 245.25 35.65 247.1 36.15 247.6 36.45 248.25 36.9 248.25 37.65 248.25 38.5 247.5 39.15 246.75 39.8 245.15 39.8 243.6 39.8 242.75 39.05 241.9 38.35 241.7 37
L 239.45 37.35
Q 239.85 39.5 241.2 40.55 242.55 41.65 245.2 41.65 246.75 41.65 248 41.1 249.25 40.55 249.95 39.55 250.6 38.55 250.6 37.4 250.6 36.25 250.05 35.45 249.5 34.7 248.55 34.25 247.6 33.85 245.2 33.2 243.5 32.75 243.2 32.65 242.6 32.4 242.3 32 242.05 31.65 242.05 31.2 242.05 30.55 242.7 30 243.35 29.5 244.95 29.5 246.25 29.5 247 30.05 247.7 30.65 247.85 31.7
L 250.1 31.4
Q 249.9 30.1 249.3 29.3 248.75 28.55 247.55 28.1
M 262.45 28.45
Q 261.1 29.3 260.4 30.9 259.7 32.5 259.7 34.5 259.7 37.85 261.45 39.75 263.15 41.65 265.55 41.65 266.6 41.65 267.6 41.15 268.55 40.65 269.05 39.9
L 269.05 46.5 271.35 46.5 271.35 27.95 269.3 27.95 269.3 29.7
Q 267.85 27.6 265.35 27.6 263.8 27.6 262.45 28.45
M 262.05 34.6
Q 262.05 31.95 263.1 30.7 264.1 29.4 265.6 29.4 267.1 29.4 268.2 30.75 269.3 32.1 269.3 34.8 269.3 37.3 268.25 38.55 267.2 39.8 265.75 39.8 264.2 39.8 263.15 38.5 262.05 37.2 262.05 34.6
M 318 28.1
Q 316.8 27.6 315.2 27.6 314.15 27.6 313.25 27.9 312.35 28.15 311.8 28.55 311.1 29.05 310.7 29.85 310.3 30.6 310.3 31.5 310.3 32.5 310.8 33.3 311.25 34.1 312.25 34.55 313.2 35.05 315.7 35.65 317.55 36.15 318.05 36.45 318.7 36.9 318.7 37.65 318.7 38.5 317.95 39.15 317.2 39.8 315.6 39.8 314.05 39.8 313.2 39.05 312.35 38.35 312.15 37
L 309.9 37.35
Q 310.3 39.5 311.65 40.55 313 41.65 315.65 41.65 317.2 41.65 318.45 41.1 319.7 40.55 320.4 39.55 321.05 38.55 321.05 37.4 321.05 36.25 320.5 35.45 319.95 34.7 319 34.25 318.05 33.85 315.65 33.2 313.95 32.75 313.65 32.65 313.05 32.4 312.75 32 312.5 31.65 312.5 31.2 312.5 30.55 313.15 30 313.8 29.5 315.4 29.5 316.7 29.5 317.45 30.05 318.15 30.65 318.3 31.7
L 320.55 31.4
Q 320.35 30.1 319.75 29.3 319.2 28.55 318 28.1
M 283.65 41.35
L 285.7 41.35 285.7 27.95 283.4 27.95 283.4 35.1
Q 283.4 36.85 283.05 37.75 282.65 38.65 281.75 39.2 280.85 39.7 279.85 39.7 278.85 39.7 278.15 39.2 277.45 38.65 277.2 37.75 277.1 37.15 277.1 35.35
L 277.1 27.95 274.8 27.95 274.8 36.25
Q 274.8 37.7 274.95 38.35 275.15 39.35 275.65 40.05 276.15 40.75 277.2 41.2 278.2 41.65 279.4 41.65 282.1 41.65 283.65 39.4
L 283.65 41.35
M 300.85 34.6
Q 300.85 31.3 299.15 29.45 297.45 27.6 294.75 27.6 292 27.6 290.25 29.5 288.5 31.35 288.5 34.75 288.5 38.05 290.25 39.85 291.95 41.65 294.9 41.65 297.25 41.65 298.75 40.5 300.25 39.4 300.8 37.3
L 298.45 37.05
Q 297.95 38.45 297.05 39.15 296.15 39.8 294.9 39.8 293.25 39.8 292.1 38.6 291 37.45 290.85 35.2
L 300.85 35.2
Q 300.85 34.8 300.85 34.6
M 294.8 29.5
Q 296.55 29.5 297.6 30.8 298.3 31.65 298.45 33.35
L 291 33.35
Q 291.1 31.6 292.15 30.55 293.25 29.5 294.8 29.5
M 343.6 27.6
Q 341.1 27.6 339.4 29.1 337.3 30.9 337.3 34.65 337.3 38.05 339.05 39.85 340.8 41.65 343.6 41.65 345.35 41.65 346.85 40.85 348.35 40 349.1 38.55 349.9 37.05 349.9 34.45 349.9 31.25 348.15 29.45 346.35 27.6 343.6 27.6
M 339.65 34.65
Q 339.65 32.05 340.75 30.8 341.9 29.5 343.6 29.5 345.3 29.5 346.4 30.8 347.55 32.05 347.55 34.55 347.55 37.2 346.4 38.5 345.3 39.8 343.6 39.8 341.9 39.8 340.75 38.5 339.65 37.2 339.65 34.65
M 334.65 32.7
Q 334.65 31.15 334.5 30.6 334.3 29.65 333.8 29.05 333.3 28.45 332.25 28.05 331.15 27.6 329.45 27.6 327.7 27.6 326.4 28.1 325.05 28.55 324.4 29.45 323.7 30.35 323.4 31.75
L 325.6 32.05
Q 325.95 30.65 326.75 30.05 327.5 29.5 329.1 29.5 330.8 29.5 331.7 30.3 332.35 30.85 332.35 32.25 332.35 32.35 332.35 32.85 331.05 33.3 328.25 33.6 326.9 33.8 326.25 33.95 325.35 34.2 324.6 34.7 323.9 35.2 323.45 36 323 36.8 323 37.8 323 39.5 324.15 40.6 325.35 41.65 327.55 41.65 328.9 41.65 330.1 41.2 331.25 40.75 332.5 39.7 332.6 40.65 332.95 41.35
L 335.35 41.35
Q 334.9 40.6 334.8 39.75 334.65 38.9 334.65 35.7
L 334.65 32.7
M 326.65 35.95
Q 327.2 35.65 328.6 35.45 331.1 35.1 332.35 34.6
L 332.35 35.45
Q 332.35 36.95 331.95 37.7 331.5 38.7 330.45 39.3 329.45 39.85 328.1 39.85 326.8 39.85 326.1 39.25 325.4 38.65 325.4 37.75 325.4 37.15 325.75 36.65 326.05 36.2 326.65 35.95
M 333.4 23
L 331.75 23
Q 331.65 23.7 331.45 23.9 331.25 24.1 330.85 24.1 330.4 24.1 329.65 23.75 328.3 23.05 327.5 23.05 326.4 23.05 325.65 23.85 324.95 24.65 324.95 25.95
L 326.65 25.95
Q 326.6 25.35 326.9 25.05 327.15 24.75 327.6 24.75 328 24.75 328.85 25.2 330.15 25.9 330.9 25.9 332 25.9 332.7 25.2 333.35 24.45 333.4 23
M 370.1 23.15
Q 368.5 22.5 366.45 22.5 364.55 22.5 363.05 23.15 361.5 23.75 360.7 25 359.9 26.2 359.9 27.6 359.9 28.9 360.6 29.9 361.2 30.95 362.55 31.65 363.55 32.2 366.15 32.8 368.7 33.4 369.45 33.7 370.6 34.15 371.1 34.8 371.6 35.45 371.6 36.3 371.6 37.2 371.1 37.9 370.55 38.65 369.5 39.05 368.4 39.45 367 39.45 365.4 39.45 364.15 38.9 362.9 38.35 362.3 37.5 361.7 36.6 361.55 35.2
L 359.2 35.4
Q 359.25 37.25 360.25 38.75 361.2 40.2 362.9 40.95 364.6 41.65 367.1 41.65 369.1 41.65 370.7 40.95 372.25 40.2 373.1 38.9 373.95 37.6 373.95 36.1 373.95 34.6 373.2 33.5 372.4 32.35 370.8 31.6 369.7 31.1 366.7 30.4 363.7 29.75 363 29.1 362.3 28.45 362.3 27.45 362.3 26.3 363.3 25.5 364.3 24.65 366.55 24.65 368.7 24.65 369.8 25.55 370.85 26.45 371.05 28.2
L 373.4 28.05
Q 373.35 26.4 372.5 25.1 371.65 23.85 370.1 23.15
M 391.9 22.8
L 389.45 22.8 389.45 33.5
Q 389.45 37 388.3 38.25 387.15 39.45 384.45 39.45 382.85 39.45 381.8 38.85 380.7 38.2 380.25 37.1 379.8 35.95 379.8 33.5
L 379.8 22.8 377.35 22.8 377.35 33.55
Q 377.35 36.45 378.05 38.2 378.75 39.85 380.4 40.75 382.05 41.65 384.65 41.65 387.35 41.65 389 40.65 390.65 39.6 391.3 37.95 391.9 36.3 391.9 33.55
L 391.9 22.8
M 409 27.55
Q 409 26.3 408.25 25.1 407.55 23.95 406.25 23.4 404.95 22.8 402.85 22.8
L 395.9 22.8 395.9 41.35 402.95 41.35
Q 404.75 41.35 405.95 41.05 407.15 40.75 408 40.1 408.8 39.5 409.35 38.4 409.9 37.3 409.9 36 409.9 34.35 409 33.15 408.1 32 406.4 31.5 407.7 30.85 408.35 29.8 409 28.75 409 27.55
M 406.6 27.85
Q 406.6 28.8 406.1 29.45 405.65 30.1 404.7 30.4 404 30.6 402.35 30.6
L 398.35 30.6 398.35 25 402.05 25
Q 404.05 25 404.85 25.25 405.7 25.5 406.15 26.25 406.6 26.95 406.6 27.85
M 405.35 33.1
Q 406.3 33.4 406.8 34.2 407.35 34.95 407.35 36 407.35 36.85 407 37.55 406.6 38.2 406.05 38.55 405.5 38.9 404.65 39.05 404.15 39.15 402.95 39.15
L 398.35 39.15 398.35 32.8 402.65 32.8
Q 404.4 32.8 405.35 33.1
M 419.65 22.5
Q 417.75 22.5 416.25 23.15 414.7 23.75 413.9 25 413.1 26.2 413.1 27.6 413.1 28.9 413.8 29.9 414.4 30.95 415.75 31.65 416.75 32.2 419.35 32.8 421.9 33.4 422.65 33.7 423.8 34.15 424.3 34.8 424.8 35.45 424.8 36.3 424.8 37.2 424.3 37.9 423.75 38.65 422.7 39.05 421.6 39.45 420.2 39.45 418.6 39.45 417.35 38.9 416.1 38.35 415.5 37.5 414.9 36.6 414.75 35.2
L 412.4 35.4
Q 412.45 37.25 413.45 38.75 414.4 40.2 416.1 40.95 417.8 41.65 420.3 41.65 422.3 41.65 423.9 40.95 425.45 40.2 426.3 38.9 427.15 37.6 427.15 36.1 427.15 34.6 426.4 33.5 425.6 32.35 424 31.6 422.9 31.1 419.9 30.4 416.9 29.75 416.2 29.1 415.5 28.45 415.5 27.45 415.5 26.3 416.5 25.5 417.5 24.65 419.75 24.65 421.9 24.65 423 25.55 424.05 26.45 424.25 28.2
L 426.6 28.05
Q 426.55 26.4 425.7 25.1 424.85 23.85 423.3 23.15 421.7 22.5 419.65 22.5
M 443.8 22.8
L 429.1 22.8 429.1 25 435.2 25 435.2 41.35 437.65 41.35 437.65 25 443.8 25 443.8 22.8
M 452.1 22.8
L 449.5 22.8 442.35 41.35 444.95 41.35 447 35.75 454.75 35.75 456.9 41.35 459.7 41.35 452.1 22.8
M 449.75 28.3
Q 450.4 26.55 450.75 24.75 451.15 26.25 452.05 28.6
L 454 33.75 447.7 33.75 449.75 28.3
M 476.2 22.8
L 473.85 22.8 473.85 37.35 464.15 22.8 461.6 22.8 461.6 41.35 463.95 41.35 463.95 26.8 473.7 41.35 476.2 41.35 476.2 22.8
M 487.5 25
L 493.65 25 493.65 22.8 478.95 22.8 478.95 25 485.05 25 485.05 41.35 487.5 41.35 487.5 25
M 499 22.8
L 496.55 22.8 496.55 41.35 499 41.35 499 22.8
M 518.4 22.8
L 515.9 22.8 510.9 36.3
Q 510.35 37.8 509.9 39.3 509.5 37.9 508.95 36.3
L 504.1 22.8 501.45 22.8 508.65 41.35 511.15 41.35 518.4 22.8
M 533.35 23.7
Q 531.3 22.5 528.75 22.5 524.8 22.5 522.35 25.1 519.85 27.7 519.85 32.3 519.85 34.75 520.9 36.95 522 39.15 524.05 40.4 526.1 41.65 528.7 41.65 531.15 41.65 533.2 40.55 535.3 39.4 536.45 37.15 537.55 34.95 537.55 32.1 537.55 29.35 536.5 27.15 535.4 24.95 533.35 23.7
M 532.05 25.55
Q 533.5 26.45 534.3 28.15 535.05 29.85 535.05 32.1 535.05 35.65 533.25 37.6 531.45 39.55 528.7 39.55 526 39.55 524.2 37.65 522.4 35.7 522.4 32.35 522.4 28.2 524.25 26.4 526.15 24.6 528.75 24.6 530.55 24.6 532.05 25.55
M 550.8 23.15
Q 549.2 22.5 547.15 22.5 545.25 22.5 543.75 23.15 542.2 23.75 541.4 25 540.6 26.2 540.6 27.6 540.6 28.9 541.3 29.9 541.9 30.95 543.25 31.65 544.25 32.2 546.85 32.8 549.4 33.4 550.15 33.7 551.3 34.15 551.8 34.8 552.3 35.45 552.3 36.3 552.3 37.2 551.8 37.9 551.25 38.65 550.2 39.05 549.1 39.45 547.7 39.45 546.1 39.45 544.85 38.9 543.6 38.35 543 37.5 542.4 36.6 542.25 35.2
L 539.9 35.4
Q 539.95 37.25 540.95 38.75 541.9 40.2 543.6 40.95 545.3 41.65 547.8 41.65 549.8 41.65 551.4 40.95 552.95 40.2 553.8 38.9 554.65 37.6 554.65 36.1 554.65 34.6 553.9 33.5 553.1 32.35 551.5 31.6 550.4 31.1 547.4 30.4 544.4 29.75 543.7 29.1 543 28.45 543 27.45 543 26.3 544 25.5 545 24.65 547.25 24.65 549.4 24.65 550.5 25.55 551.55 26.45 551.75 28.2
L 554.1 28.05
Q 554.05 26.4 553.2 25.1 552.35 23.85 550.8 23.15
M 577.9 23.9
Q 576 22.5 573.25 22.5 570.8 22.5 568.75 23.65 566.7 24.75 565.6 26.9 564.5 29.05 564.5 31.95 564.5 34.6 565.5 36.9 566.45 39.25 568.35 40.45 570.2 41.65 573.2 41.65 576.1 41.65 578.1 40.1 580.1 38.5 580.85 35.45
L 578.4 34.85
Q 577.9 37.2 576.5 38.4 575.05 39.55 573 39.55 571.3 39.55 569.85 38.7 568.4 37.8 567.7 36.05 567 34.3 567 31.95 567 30.1 567.6 28.4 568.2 26.65 569.6 25.6 571.05 24.6 573.2 24.6 575.05 24.6 576.25 25.5 577.5 26.45 578.15 28.45
L 580.55 27.9
Q 579.8 25.35 577.9 23.9
M 596.65 23.7
Q 594.6 22.5 592.05 22.5 588.1 22.5 585.65 25.1 583.15 27.7 583.15 32.3 583.15 34.75 584.2 36.95 585.3 39.15 587.35 40.4 589.4 41.65 592 41.65 594.45 41.65 596.5 40.55 598.6 39.4 599.75 37.15 600.85 34.95 600.85 32.1 600.85 29.35 599.8 27.15 598.7 24.95 596.65 23.7
M 597.6 28.15
Q 598.35 29.85 598.35 32.1 598.35 35.65 596.55 37.6 594.75 39.55 592 39.55 589.3 39.55 587.5 37.65 585.7 35.7 585.7 32.35 585.7 28.2 587.55 26.4 589.45 24.6 592.05 24.6 593.85 24.6 595.35 25.55 596.8 26.45 597.6 28.15
M 620.95 30.7
L 620.95 25 631.9 25 631.9 22.8 618.5 22.8 618.5 41.35 632.35 41.35 632.35 39.15 620.95 39.15 620.95 32.85 631.2 32.85 631.2 30.7 620.95 30.7
M 615.55 41.35
L 615.55 39.15 606.4 39.15 606.4 22.8 603.95 22.8 603.95 41.35 615.55 41.35
M 649 25
L 649 22.8 634.3 22.8 634.3 25 640.4 25 640.4 41.35 642.85 41.35 642.85 25 649 25
M 654.35 22.8
L 651.9 22.8 651.9 41.35 654.35 41.35 654.35 22.8
M 673.75 22.8
L 671.25 22.8 666.25 36.3
Q 665.7 37.8 665.25 39.3 664.85 37.9 664.3 36.3
L 659.45 22.8 656.8 22.8 664 41.35 666.5 41.35 673.75 22.8
M 713.7 41.35
L 716.3 41.35 716.3 38.75 713.7 38.75 713.7 41.35
M 692.9 32.1
Q 692.9 29.35 691.85 27.15 690.75 24.95 688.7 23.7 686.65 22.5 684.1 22.5 680.15 22.5 677.7 25.1 675.2 27.7 675.2 32.3 675.2 34.75 676.25 36.95 677.35 39.15 679.4 40.4 681.45 41.65 684.05 41.65 686.5 41.65 688.55 40.55 690.65 39.4 691.8 37.15 692.9 34.95 692.9 32.1
M 689.65 28.15
Q 690.4 29.85 690.4 32.1 690.4 35.65 688.6 37.6 686.8 39.55 684.05 39.55 681.35 39.55 679.55 37.65 677.75 35.7 677.75 32.35 677.75 28.2 679.6 26.4 681.5 24.6 684.1 24.6 685.9 24.6 687.4 25.55 688.85 26.45 689.65 28.15
M 702.5 22.5
Q 700.6 22.5 699.1 23.15 697.55 23.75 696.75 25 695.95 26.2 695.95 27.6 695.95 28.9 696.65 29.9 697.25 30.95 698.6 31.65 699.6 32.2 702.2 32.8 704.75 33.4 705.5 33.7 706.65 34.15 707.15 34.8 707.65 35.45 707.65 36.3 707.65 37.2 707.15 37.9 706.6 38.65 705.55 39.05 704.45 39.45 703.05 39.45 701.45 39.45 700.2 38.9 698.95 38.35 698.35 37.5 697.75 36.6 697.6 35.2
L 695.25 35.4
Q 695.3 37.25 696.3 38.75 697.25 40.2 698.95 40.95 700.65 41.65 703.15 41.65 705.15 41.65 706.75 40.95 708.3 40.2 709.15 38.9 710 37.6 710 36.1 710 34.6 709.25 33.5 708.45 32.35 706.85 31.6 705.75 31.1 702.75 30.4 699.75 29.75 699.05 29.1 698.35 28.45 698.35 27.45 698.35 26.3 699.35 25.5 700.35 24.65 702.6 24.65 704.75 24.65 705.85 25.55 706.9 26.45 707.1 28.2
L 709.45 28.05
Q 709.4 26.4 708.55 25.1 707.7 23.85 706.15 23.15 704.55 22.5 702.5 22.5 Z"/>
</g>
</defs>

<g transform="matrix( 1, 0, 0, 1, 0,0) ">
<use xlink:href="#Layer1_0_FILL"/>
</g>

<g transform="matrix( 1, 0, 0, 1, 0,0) ">
<use xlink:href="#Layer0_0_FILL"/>
</g>
</svg>
