
<svg xmlns="http://www.w3.org/2000/svg" version="1.1" xmlns:xlink="http://www.w3.org/1999/xlink" preserveAspectRatio="none" x="0px" y="0px" width="1071px" height="69px" viewBox="0 0 1071 69">
<defs>
<g id="Layer1_0_FILL">
<path fill="#666666" stroke="none" d="
M 1068.7 177.75
Q 1068.7009765625 166.57109375 1057.9 166.25
L 9.35 166.25
Q -1.501171875 166.574609375 -1.5 177.75
L -1.5 223.25
Q -1.501171875 234.425390625 9.35 234.75
L 1057.9 234.75
Q 1068.7009765625 234.42890625 1068.7 223.25
L 1068.7 177.75
M 1057.8 169.25
Q 1065.6990234375 169.52890625 1065.7 177.75
L 1065.7 223.25
Q 1065.6990234375 231.47109375 1057.8 231.75
L 9.4 231.75
Q 1.5009765625 231.448828125 1.5 223.25
L 1.5 177.75
Q 1.5009765625 169.525390625 9.45 169.25
L 1057.8 169.25 Z"/>

<path fill="#FFFFFF" stroke="none" d="
M 1065.7 177.75
Q 1065.6990234375 169.52890625 1057.8 169.25
L 9.45 169.25
Q 1.5009765625 169.525390625 1.5 177.75
L 1.5 223.25
Q 1.5009765625 231.448828125 9.4 231.75
L 1057.8 231.75
Q 1065.6990234375 231.47109375 1065.7 223.25
L 1065.7 177.75 Z"/>
</g>

<g id="Layer0_0_FILL">
<path fill="#000000" stroke="none" d="
M 150 196.25
Q 149.05 196.75 148.35 197.75
L 148.35 196.05 146.25 196.05 146.25 214.6 148.55 214.6 148.55 208.05
Q 149.1 208.8 150 209.25 150.9 209.75 152.05 209.75 153.6 209.75 155.05 208.9 156.45 208 157.2 206.35 157.9 204.7 157.9 202.65 157.9 200.7 157.25 199.1 156.55 197.5 155.25 196.6 153.95 195.7 152.2 195.7 150.9 195.7 150 196.25
M 154.55 198.8
Q 155.6 200.05 155.6 202.6 155.6 205.3 154.5 206.6 153.4 207.9 151.9 207.9 150.4 207.9 149.35 206.65 148.3 205.4 148.3 202.8 148.3 200.2 149.45 198.85 150.55 197.5 152 197.5 153.45 197.5 154.55 198.8
M 127.1 196.65
Q 126.4 197.15 126 197.95 125.6 198.7 125.6 199.6 125.6 200.6 126.1 201.4 126.55 202.2 127.55 202.65 128.5 203.15 131 203.75 132.85 204.25 133.35 204.55 134 205 134 205.75 134 206.6 133.25 207.25 132.5 207.9 130.9 207.9 129.35 207.9 128.5 207.15 127.65 206.45 127.45 205.1
L 125.2 205.45
Q 125.6 207.6 126.95 208.65 128.3 209.75 130.95 209.75 132.5 209.75 133.75 209.2 135 208.65 135.7 207.65 136.35 206.65 136.35 205.5 136.35 204.35 135.8 203.55 135.25 202.8 134.3 202.35 133.35 201.95 130.95 201.3 129.25 200.85 128.95 200.75 128.35 200.5 128.05 200.1 127.8 199.75 127.8 199.3 127.8 198.65 128.45 198.1 129.1 197.6 130.7 197.6 132 197.6 132.75 198.15 133.45 198.75 133.6 199.8
L 135.85 199.5
Q 135.65 198.2 135.05 197.4 134.5 196.65 133.3 196.2 132.1 195.7 130.5 195.7 129.45 195.7 128.55 196 127.65 196.25 127.1 196.65
M 120.2 196.15
Q 119.1 195.7 117.4 195.7 115.65 195.7 114.35 196.2 113 196.65 112.35 197.55 111.65 198.45 111.35 199.85
L 113.55 200.15
Q 113.9 198.75 114.7 198.15 115.45 197.6 117.05 197.6 118.75 197.6 119.65 198.4 120.3 198.95 120.3 200.35 120.3 200.45 120.3 200.95 119 201.4 116.2 201.7 114.85 201.9 114.2 202.05 113.3 202.3 112.55 202.8 111.85 203.3 111.4 204.1 110.95 204.9 110.95 205.9 110.95 207.6 112.1 208.7 113.3 209.75 115.5 209.75 116.85 209.75 118.05 209.3 119.2 208.85 120.45 207.8 120.55 208.75 120.9 209.45
L 123.3 209.45
Q 122.85 208.7 122.75 207.85 122.6 207 122.6 203.8
L 122.6 200.8
Q 122.6 199.25 122.45 198.7 122.25 197.75 121.75 197.15 121.25 196.55 120.2 196.15
M 116.55 203.55
Q 119.05 203.2 120.3 202.7
L 120.3 203.55
Q 120.3 205.05 119.9 205.8 119.45 206.8 118.4 207.4 117.4 207.95 116.05 207.95 114.75 207.95 114.05 207.35 113.35 206.75 113.35 205.85 113.35 205.25 113.7 204.75 114 204.3 114.6 204.05 115.15 203.75 116.55 203.55
M 100.05 197.55
Q 98.35 195.7 95.65 195.7 92.9 195.7 91.15 197.6 89.4 199.45 89.4 202.85 89.4 206.15 91.15 207.95 92.85 209.75 95.8 209.75 98.15 209.75 99.65 208.6 101.15 207.5 101.7 205.4
L 99.35 205.15
Q 98.85 206.55 97.95 207.25 97.05 207.9 95.8 207.9 94.15 207.9 93 206.7 91.9 205.55 91.75 203.3
L 101.75 203.3
Q 101.75 202.9 101.75 202.7 101.75 199.4 100.05 197.55
M 98.5 198.9
Q 99.2 199.75 99.35 201.45
L 91.9 201.45
Q 92 199.7 93.05 198.65 94.15 197.6 95.7 197.6 97.45 197.6 98.5 198.9
M 81.7 197.8
L 83.35 197.8 83.35 205.5
Q 83.35 207.55 83.65 208.2 83.95 208.85 84.6 209.25 85.3 209.65 86.55 209.65 87.3 209.65 88.25 209.4
L 87.9 207.4
Q 87.3 207.5 86.95 207.5 86.4 207.5 86.15 207.35 85.9 207.15 85.75 206.9 85.65 206.6 85.65 205.65
L 85.65 197.8 87.9 197.8 87.9 196.05 85.65 196.05 85.65 191.35 83.35 192.7 83.35 196.05 81.7 196.05 81.7 197.8
M 74.4 195.7
Q 73.35 195.7 72.45 196 71.55 196.25 71 196.65 70.3 197.15 69.9 197.95 69.5 198.7 69.5 199.6 69.5 200.6 70 201.4 70.45 202.2 71.45 202.65 72.4 203.15 74.9 203.75 76.75 204.25 77.25 204.55 77.9 205 77.9 205.75 77.9 206.6 77.15 207.25 76.4 207.9 74.8 207.9 73.25 207.9 72.4 207.15 71.55 206.45 71.35 205.1
L 69.1 205.45
Q 69.5 207.6 70.85 208.65 72.2 209.75 74.85 209.75 76.4 209.75 77.65 209.2 78.9 208.65 79.6 207.65 80.25 206.65 80.25 205.5 80.25 204.35 79.7 203.55 79.15 202.8 78.2 202.35 77.25 201.95 74.85 201.3 73.15 200.85 72.85 200.75 72.25 200.5 71.95 200.1 71.7 199.75 71.7 199.3 71.7 198.65 72.35 198.1 73 197.6 74.6 197.6 75.9 197.6 76.65 198.15 77.35 198.75 77.5 199.8
L 79.75 199.5
Q 79.55 198.2 78.95 197.4 78.4 196.65 77.2 196.2 76 195.7 74.4 195.7
M 58.25 196.2
Q 56.9 196.65 56.25 197.55 55.55 198.45 55.25 199.85
L 57.45 200.15
Q 57.8 198.75 58.6 198.15 59.35 197.6 60.95 197.6 62.65 197.6 63.55 198.4 64.2 198.95 64.2 200.35 64.2 200.45 64.2 200.95 62.9 201.4 60.1 201.7 58.75 201.9 58.1 202.05 57.2 202.3 56.45 202.8 55.75 203.3 55.3 204.1 54.85 204.9 54.85 205.9 54.85 207.6 56 208.7 57.2 209.75 59.4 209.75 60.75 209.75 61.95 209.3 63.1 208.85 64.35 207.8 64.45 208.75 64.8 209.45
L 67.2 209.45
Q 66.75 208.7 66.65 207.85 66.5 207 66.5 203.8
L 66.5 200.8
Q 66.5 199.25 66.35 198.7 66.15 197.75 65.65 197.15 65.15 196.55 64.1 196.15 63 195.7 61.3 195.7 59.55 195.7 58.25 196.2
M 64.2 202.7
L 64.2 203.55
Q 64.2 205.05 63.8 205.8 63.35 206.8 62.3 207.4 61.3 207.95 59.95 207.95 58.65 207.95 57.95 207.35 57.25 206.75 57.25 205.85 57.25 205.25 57.6 204.75 57.9 204.3 58.5 204.05 59.05 203.75 60.45 203.55 62.95 203.2 64.2 202.7
M 49.05 196.05
L 47 196.05 47 209.45 49.25 209.45 49.25 202.4
Q 49.25 201 49.65 199.75 49.9 198.95 50.5 198.55 51.1 198.05 51.8 198.05 52.65 198.05 53.5 198.55
L 54.3 196.45
Q 53.1 195.7 51.95 195.7 51.15 195.7 50.5 196.2 49.8 196.65 49.05 198.05
L 49.05 196.05
M 29.1 190.9
L 26.5 190.9 19.35 209.45 21.95 209.45 24 203.85 31.75 203.85 33.9 209.45 36.7 209.45 29.1 190.9
M 26.75 196.4
Q 27.4 194.65 27.75 192.85 28.15 194.35 29.05 196.7
L 31 201.85 24.7 201.85 26.75 196.4
M 40.4 196.05
L 38.35 196.05 38.35 209.45 40.6 209.45 40.6 202.4
Q 40.6 201 41 199.75 41.25 198.95 41.85 198.55 42.45 198.05 43.15 198.05 44 198.05 44.85 198.55
L 45.65 196.45
Q 44.45 195.7 43.3 195.7 42.5 195.7 41.85 196.2 41.15 196.65 40.4 198.05
L 40.4 196.05
M 317.35 194.05
Q 317.3 193.45 317.6 193.15 317.85 192.85 318.3 192.85 318.7 192.85 319.55 193.3 320.85 194 321.6 194 322.7 194 323.4 193.3 324.05 192.55 324.1 191.1
L 322.45 191.1
Q 322.35 191.8 322.15 192 321.95 192.2 321.55 192.2 321.1 192.2 320.35 191.85 319 191.15 318.2 191.15 317.1 191.15 316.35 191.95 315.65 192.75 315.65 194.05
L 317.35 194.05
M 289.85 197.55
Q 288.15 195.7 285.45 195.7 282.7 195.7 280.95 197.6 279.2 199.45 279.2 202.85 279.2 206.15 280.95 207.95 282.65 209.75 285.6 209.75 287.95 209.75 289.45 208.6 290.95 207.5 291.5 205.4
L 289.15 205.15
Q 288.65 206.55 287.75 207.25 286.85 207.9 285.6 207.9 283.95 207.9 282.8 206.7 281.7 205.55 281.55 203.3
L 291.55 203.3
Q 291.55 202.9 291.55 202.7 291.55 199.4 289.85 197.55
M 288.3 198.9
Q 289 199.75 289.15 201.45
L 281.7 201.45
Q 281.8 199.7 282.85 198.65 283.95 197.6 285.5 197.6 287.25 197.6 288.3 198.9
M 302.5 196.65
Q 301.8 197.15 301.4 197.95 301 198.7 301 199.6 301 200.6 301.5 201.4 301.95 202.2 302.95 202.65 303.9 203.15 306.4 203.75 308.25 204.25 308.75 204.55 309.4 205 309.4 205.75 309.4 206.6 308.65 207.25 307.9 207.9 306.3 207.9 304.75 207.9 303.9 207.15 303.05 206.45 302.85 205.1
L 300.6 205.45
Q 301 207.6 302.35 208.65 303.7 209.75 306.35 209.75 307.9 209.75 309.15 209.2 310.4 208.65 311.1 207.65 311.75 206.65 311.75 205.5 311.75 204.35 311.2 203.55 310.65 202.8 309.7 202.35 308.75 201.95 306.35 201.3 304.65 200.85 304.35 200.75 303.75 200.5 303.45 200.1 303.2 199.75 303.2 199.3 303.2 198.65 303.85 198.1 304.5 197.6 306.1 197.6 307.4 197.6 308.15 198.15 308.85 198.75 309 199.8
L 311.25 199.5
Q 311.05 198.2 310.45 197.4 309.9 196.65 308.7 196.2 307.5 195.7 305.9 195.7 304.85 195.7 303.95 196 303.05 196.25 302.5 196.65
M 262 196.05
L 259.95 196.05 259.95 197.8
Q 258.5 195.7 256 195.7 254.45 195.7 253.1 196.55 251.75 197.4 251.05 199 250.35 200.6 250.35 202.6 250.35 205.95 252.1 207.85 253.8 209.75 256.2 209.75 257.25 209.75 258.25 209.25 259.2 208.75 259.7 208
L 259.7 214.6 262 214.6 262 196.05
M 258.85 198.85
Q 259.95 200.2 259.95 202.9 259.95 205.4 258.9 206.65 257.85 207.9 256.4 207.9 254.85 207.9 253.8 206.6 252.7 205.3 252.7 202.7 252.7 200.05 253.75 198.8 254.75 197.5 256.25 197.5 257.75 197.5 258.85 198.85
M 267.8 196.05
L 265.5 196.05 265.5 204.35
Q 265.5 205.8 265.65 206.45 265.85 207.45 266.35 208.15 266.85 208.85 267.9 209.3 268.9 209.75 270.1 209.75 272.8 209.75 274.35 207.5
L 274.35 209.45 276.4 209.45 276.4 196.05 274.1 196.05 274.1 203.2
Q 274.1 204.95 273.75 205.85 273.35 206.75 272.45 207.3 271.55 207.8 270.55 207.8 269.55 207.8 268.85 207.3 268.15 206.75 267.9 205.85 267.8 205.25 267.8 203.45
L 267.8 196.05
M 235.45 195.7
Q 234.4 195.7 233.5 196 232.6 196.25 232.05 196.65 231.35 197.15 230.95 197.95 230.55 198.7 230.55 199.6 230.55 200.6 231.05 201.4 231.5 202.2 232.5 202.65 233.45 203.15 235.95 203.75 237.8 204.25 238.3 204.55 238.95 205 238.95 205.75 238.95 206.6 238.2 207.25 237.45 207.9 235.85 207.9 234.3 207.9 233.45 207.15 232.6 206.45 232.4 205.1
L 230.15 205.45
Q 230.55 207.6 231.9 208.65 233.25 209.75 235.9 209.75 237.45 209.75 238.7 209.2 239.95 208.65 240.65 207.65 241.3 206.65 241.3 205.5 241.3 204.35 240.75 203.55 240.2 202.8 239.25 202.35 238.3 201.95 235.9 201.3 234.2 200.85 233.9 200.75 233.3 200.5 233 200.1 232.75 199.75 232.75 199.3 232.75 198.65 233.4 198.1 234.05 197.6 235.65 197.6 236.95 197.6 237.7 198.15 238.4 198.75 238.55 199.8
L 240.8 199.5
Q 240.6 198.2 240 197.4 239.45 196.65 238.25 196.2 237.05 195.7 235.45 195.7
M 219.3 196.2
Q 217.95 196.65 217.3 197.55 216.6 198.45 216.3 199.85
L 218.5 200.15
Q 218.85 198.75 219.65 198.15 220.4 197.6 222 197.6 223.7 197.6 224.6 198.4 225.25 198.95 225.25 200.35 225.25 200.45 225.25 200.95 223.95 201.4 221.15 201.7 219.8 201.9 219.15 202.05 218.25 202.3 217.5 202.8 216.8 203.3 216.35 204.1 215.9 204.9 215.9 205.9 215.9 207.6 217.05 208.7 218.25 209.75 220.45 209.75 221.8 209.75 223 209.3 224.15 208.85 225.4 207.8 225.5 208.75 225.85 209.45
L 228.25 209.45
Q 227.8 208.7 227.7 207.85 227.55 207 227.55 203.8
L 227.55 200.8
Q 227.55 199.25 227.4 198.7 227.2 197.75 226.7 197.15 226.2 196.55 225.15 196.15 224.05 195.7 222.35 195.7 220.6 195.7 219.3 196.2
M 225.25 202.7
L 225.25 203.55
Q 225.25 205.05 224.85 205.8 224.4 206.8 223.35 207.4 222.35 207.95 221 207.95 219.7 207.95 219 207.35 218.3 206.75 218.3 205.85 218.3 205.25 218.65 204.75 218.95 204.3 219.55 204.05 220.1 203.75 221.5 203.55 224 203.2 225.25 202.7
M 215.3 196.45
Q 214.1 195.7 212.95 195.7 212.15 195.7 211.5 196.2 210.8 196.65 210.05 198.05
L 210.05 196.05 208 196.05 208 209.45 210.25 209.45 210.25 202.4
Q 210.25 201 210.65 199.75 210.9 198.95 211.5 198.55 212.1 198.05 212.8 198.05 213.65 198.05 214.5 198.55
L 215.3 196.45
M 196.2 196.05
L 193.8 196.05 198.9 209.45 201 209.45 206.1 196.05 203.75 196.05 200.75 204.2
Q 200.25 205.7 199.9 206.75 199.55 205.35 199.05 204.05
L 196.2 196.05
M 186.45 195.7
Q 184.7 195.7 183.4 196.2 182.05 196.65 181.4 197.55 180.7 198.45 180.4 199.85
L 182.6 200.15
Q 182.95 198.75 183.75 198.15 184.5 197.6 186.1 197.6 187.8 197.6 188.7 198.4 189.35 198.95 189.35 200.35 189.35 200.45 189.35 200.95 188.05 201.4 185.25 201.7 183.9 201.9 183.25 202.05 182.35 202.3 181.6 202.8 180.9 203.3 180.45 204.1 180 204.9 180 205.9 180 207.6 181.15 208.7 182.35 209.75 184.55 209.75 185.9 209.75 187.1 209.3 188.25 208.85 189.5 207.8 189.6 208.75 189.95 209.45
L 192.35 209.45
Q 191.9 208.7 191.8 207.85 191.65 207 191.65 203.8
L 191.65 200.8
Q 191.65 199.25 191.5 198.7 191.3 197.75 190.8 197.15 190.3 196.55 189.25 196.15 188.15 195.7 186.45 195.7
M 189.35 202.7
L 189.35 203.55
Q 189.35 205.05 188.95 205.8 188.5 206.8 187.45 207.4 186.45 207.95 185.1 207.95 183.8 207.95 183.1 207.35 182.4 206.75 182.4 205.85 182.4 205.25 182.75 204.75 183.05 204.3 183.65 204.05 184.2 203.75 185.6 203.55 188.1 203.2 189.35 202.7
M 177.25 190.9
L 174.95 190.9 174.95 209.45 177.25 209.45 177.25 190.9
M 166.3 195.7
Q 164.55 195.7 163.25 196.2 161.9 196.65 161.25 197.55 160.55 198.45 160.25 199.85
L 162.45 200.15
Q 162.8 198.75 163.6 198.15 164.35 197.6 165.95 197.6 167.65 197.6 168.55 198.4 169.2 198.95 169.2 200.35 169.2 200.45 169.2 200.95 167.9 201.4 165.1 201.7 163.75 201.9 163.1 202.05 162.2 202.3 161.45 202.8 160.75 203.3 160.3 204.1 159.85 204.9 159.85 205.9 159.85 207.6 161 208.7 162.2 209.75 164.4 209.75 165.75 209.75 166.95 209.3 168.1 208.85 169.35 207.8 169.45 208.75 169.8 209.45
L 172.2 209.45
Q 171.75 208.7 171.65 207.85 171.5 207 171.5 203.8
L 171.5 200.8
Q 171.5 199.25 171.35 198.7 171.15 197.75 170.65 197.15 170.15 196.55 169.1 196.15 168 195.7 166.3 195.7
M 169.2 202.7
L 169.2 203.55
Q 169.2 205.05 168.8 205.8 168.35 206.8 167.3 207.4 166.3 207.95 164.95 207.95 163.65 207.95 162.95 207.35 162.25 206.75 162.25 205.85 162.25 205.25 162.6 204.75 162.9 204.3 163.5 204.05 164.05 203.75 165.45 203.55 167.95 203.2 169.2 202.7
M 326.05 209.45
Q 325.6 208.7 325.5 207.85 325.35 207 325.35 203.8
L 325.35 200.8
Q 325.35 199.25 325.2 198.7 325 197.75 324.5 197.15 324 196.55 322.95 196.15 321.85 195.7 320.15 195.7 318.4 195.7 317.1 196.2 315.75 196.65 315.1 197.55 314.4 198.45 314.1 199.85
L 316.3 200.15
Q 316.65 198.75 317.45 198.15 318.2 197.6 319.8 197.6 321.5 197.6 322.4 198.4 323.05 198.95 323.05 200.35 323.05 200.45 323.05 200.95 321.75 201.4 318.95 201.7 317.6 201.9 316.95 202.05 316.05 202.3 315.3 202.8 314.6 203.3 314.15 204.1 313.7 204.9 313.7 205.9 313.7 207.6 314.85 208.7 316.05 209.75 318.25 209.75 319.6 209.75 320.8 209.3 321.95 208.85 323.2 207.8 323.3 208.75 323.65 209.45
L 326.05 209.45
M 323.05 202.7
L 323.05 203.55
Q 323.05 205.05 322.65 205.8 322.2 206.8 321.15 207.4 320.15 207.95 318.8 207.95 317.5 207.95 316.8 207.35 316.1 206.75 316.1 205.85 316.1 205.25 316.45 204.75 316.75 204.3 317.35 204.05 317.9 203.75 319.3 203.55 321.8 203.2 323.05 202.7
M 469.65 193.1
L 475.75 193.1 475.75 209.45 478.2 209.45 478.2 193.1 484.35 193.1 484.35 190.9 469.65 190.9 469.65 193.1
M 454.85 190.9
L 452.3 190.9 452.3 209.45 454.65 209.45 454.65 194.9 464.4 209.45 466.9 209.45 466.9 190.9 464.55 190.9 464.55 205.45 454.85 190.9
M 442.75 190.9
L 440.15 190.9 433 209.45 435.6 209.45 437.65 203.85 445.4 203.85 447.55 209.45 450.35 209.45 442.75 190.9
M 441.4 192.85
Q 441.8 194.35 442.7 196.7
L 444.65 201.85 438.35 201.85 440.4 196.4
Q 441.05 194.65 441.4 192.85
M 419.8 190.9
L 419.8 193.1 425.9 193.1 425.9 209.45 428.35 209.45 428.35 193.1 434.5 193.1 434.5 190.9 419.8 190.9
M 404.6 193.1
Q 403.8 194.3 403.8 195.7 403.8 197 404.5 198 405.1 199.05 406.45 199.75 407.45 200.3 410.05 200.9 412.6 201.5 413.35 201.8 414.5 202.25 415 202.9 415.5 203.55 415.5 204.4 415.5 205.3 415 206 414.45 206.75 413.4 207.15 412.3 207.55 410.9 207.55 409.3 207.55 408.05 207 406.8 206.45 406.2 205.6 405.6 204.7 405.45 203.3
L 403.1 203.5
Q 403.15 205.35 404.15 206.85 405.1 208.3 406.8 209.05 408.5 209.75 411 209.75 413 209.75 414.6 209.05 416.15 208.3 417 207 417.85 205.7 417.85 204.2 417.85 202.7 417.1 201.6 416.3 200.45 414.7 199.7 413.6 199.2 410.6 198.5 407.6 197.85 406.9 197.2 406.2 196.55 406.2 195.55 406.2 194.4 407.2 193.6 408.2 192.75 410.45 192.75 412.6 192.75 413.7 193.65 414.75 194.55 414.95 196.3
L 417.3 196.15
Q 417.25 194.5 416.4 193.2 415.55 191.95 414 191.25 412.4 190.6 410.35 190.6 408.45 190.6 406.95 191.25 405.4 191.85 404.6 193.1
M 393.5 190.9
L 386.55 190.9 386.55 209.45 393.6 209.45
Q 395.4 209.45 396.6 209.15 397.8 208.85 398.65 208.2 399.45 207.6 400 206.5 400.55 205.4 400.55 204.1 400.55 202.45 399.65 201.25 398.75 200.1 397.05 199.6 398.35 198.95 399 197.9 399.65 196.85 399.65 195.65 399.65 194.4 398.9 193.2 398.2 192.05 396.9 191.5 395.6 190.9 393.5 190.9
M 389 193.1
L 392.7 193.1
Q 394.7 193.1 395.5 193.35 396.35 193.6 396.8 194.35 397.25 195.05 397.25 195.95 397.25 196.9 396.75 197.55 396.3 198.2 395.35 198.5 394.65 198.7 393 198.7
L 389 198.7 389 193.1
M 397.45 202.3
Q 398 203.05 398 204.1 398 204.95 397.65 205.65 397.25 206.3 396.7 206.65 396.15 207 395.3 207.15 394.8 207.25 393.6 207.25
L 389 207.25 389 200.9 393.3 200.9
Q 395.05 200.9 396 201.2 396.95 201.5 397.45 202.3
M 382.55 190.9
L 380.1 190.9 380.1 201.6
Q 380.1 205.1 378.95 206.35 377.8 207.55 375.1 207.55 373.5 207.55 372.45 206.95 371.35 206.3 370.9 205.2 370.45 204.05 370.45 201.6
L 370.45 190.9 368 190.9 368 201.65
Q 368 204.55 368.7 206.3 369.4 207.95 371.05 208.85 372.7 209.75 375.3 209.75 378 209.75 379.65 208.75 381.3 207.7 381.95 206.05 382.55 204.4 382.55 201.65
L 382.55 190.9
M 351.35 193.1
Q 350.55 194.3 350.55 195.7 350.55 197 351.25 198 351.85 199.05 353.2 199.75 354.2 200.3 356.8 200.9 359.35 201.5 360.1 201.8 361.25 202.25 361.75 202.9 362.25 203.55 362.25 204.4 362.25 205.3 361.75 206 361.2 206.75 360.15 207.15 359.05 207.55 357.65 207.55 356.05 207.55 354.8 207 353.55 206.45 352.95 205.6 352.35 204.7 352.2 203.3
L 349.85 203.5
Q 349.9 205.35 350.9 206.85 351.85 208.3 353.55 209.05 355.25 209.75 357.75 209.75 359.75 209.75 361.35 209.05 362.9 208.3 363.75 207 364.6 205.7 364.6 204.2 364.6 202.7 363.85 201.6 363.05 200.45 361.45 199.7 360.35 199.2 357.35 198.5 354.35 197.85 353.65 197.2 352.95 196.55 352.95 195.55 352.95 194.4 353.95 193.6 354.95 192.75 357.2 192.75 359.35 192.75 360.45 193.65 361.5 194.55 361.7 196.3
L 364.05 196.15
Q 364 194.5 363.15 193.2 362.3 191.95 360.75 191.25 359.15 190.6 357.1 190.6 355.2 190.6 353.7 191.25 352.15 191.85 351.35 193.1
M 334.3 195.7
Q 331.8 195.7 330.1 197.2 328 199 328 202.75 328 206.15 329.75 207.95 331.5 209.75 334.3 209.75 336.05 209.75 337.55 208.95 339.05 208.1 339.8 206.65 340.6 205.15 340.6 202.55 340.6 199.35 338.85 197.55 337.05 195.7 334.3 195.7
M 337.1 198.9
Q 338.25 200.15 338.25 202.65 338.25 205.3 337.1 206.6 336 207.9 334.3 207.9 332.6 207.9 331.45 206.6 330.35 205.3 330.35 202.75 330.35 200.15 331.45 198.9 332.6 197.6 334.3 197.6 336 197.6 337.1 198.9
M 637.5 190.9
L 629.3 190.9 629.3 209.45 631.75 209.45 631.75 201.2 634.6 201.2
Q 635.55 201.2 635.95 201.3 636.5 201.45 637.05 201.8 637.6 202.15 638.3 203.05 639 203.95 640.1 205.6
L 642.55 209.45 645.6 209.45 642.4 204.4
Q 641.45 202.95 640.35 201.95 639.85 201.5 638.9 201 641.55 200.65 642.8 199.3 644.1 197.95 644.1 195.95 644.1 194.45 643.35 193.2 642.55 191.9 641.25 191.4 640 190.9 637.5 190.9
M 641.55 195.95
Q 641.55 196.85 641.1 197.65 640.6 198.4 639.65 198.75 638.7 199.1 637 199.1
L 631.75 199.1 631.75 192.95 637.6 192.95
Q 639.65 192.95 640.6 193.8 641.55 194.65 641.55 195.95
M 621.8 191.1
Q 620.85 190.9 619 190.9
L 612 190.9 612 209.45 614.45 209.45 614.45 201.9 619.2 201.9
Q 623.15 201.9 624.65 200.3 626.15 198.65 626.15 196.3 626.15 194.9 625.6 193.75 625 192.6 624.1 191.95 623.15 191.3 621.8 191.1
M 623.05 194.35
Q 623.6 195.2 623.6 196.35 623.6 197.95 622.6 198.85 621.6 199.75 619.25 199.75
L 614.45 199.75 614.45 193.1 619.2 193.1
Q 620.85 193.1 621.5 193.25 622.45 193.55 623.05 194.35
M 600.1 186.25
L 598.4 189.8 600.3 189.8 603.05 186.25 600.1 186.25
M 604.6 191.8
Q 602.55 190.6 600 190.6 596.05 190.6 593.6 193.2 591.1 195.8 591.1 200.4 591.1 202.85 592.15 205.05 593.25 207.25 595.3 208.5 597.35 209.75 599.95 209.75 602.4 209.75 604.45 208.65 606.55 207.5 607.7 205.25 608.8 203.05 608.8 200.2 608.8 197.45 607.75 195.25 606.65 193.05 604.6 191.8
M 603.3 193.65
Q 604.75 194.55 605.55 196.25 606.3 197.95 606.3 200.2 606.3 203.75 604.5 205.7 602.7 207.65 599.95 207.65 597.25 207.65 595.45 205.75 593.65 203.8 593.65 200.45 593.65 196.3 595.5 194.5 597.4 192.7 600 192.7 601.8 192.7 603.3 193.65
M 581.4 190.9
L 573.2 190.9 573.2 209.45 575.65 209.45 575.65 201.2 578.5 201.2
Q 579.45 201.2 579.85 201.3 580.4 201.45 580.95 201.8 581.5 202.15 582.2 203.05 582.9 203.95 584 205.6
L 586.45 209.45 589.5 209.45 586.3 204.4
Q 585.35 202.95 584.25 201.95 583.75 201.5 582.8 201 585.45 200.65 586.7 199.3 588 197.95 588 195.95 588 194.45 587.25 193.2 586.45 191.9 585.15 191.4 583.9 190.9 581.4 190.9
M 575.65 192.95
L 581.5 192.95
Q 583.55 192.95 584.5 193.8 585.45 194.65 585.45 195.95 585.45 196.85 585 197.65 584.5 198.4 583.55 198.75 582.6 199.1 580.9 199.1
L 575.65 199.1 575.65 192.95
M 562.9 190.9
L 555.9 190.9 555.9 209.45 558.35 209.45 558.35 201.9 563.1 201.9
Q 567.05 201.9 568.55 200.3 570.05 198.65 570.05 196.3 570.05 194.9 569.5 193.75 568.9 192.6 568 191.95 567.05 191.3 565.7 191.1 564.75 190.9 562.9 190.9
M 565.4 193.25
Q 566.35 193.55 566.95 194.35 567.5 195.2 567.5 196.35 567.5 197.95 566.5 198.85 565.5 199.75 563.15 199.75
L 558.35 199.75 558.35 193.1 563.1 193.1
Q 564.75 193.1 565.4 193.25
M 532.1 193.1
Q 531.3 194.3 531.3 195.7 531.3 197 532 198 532.6 199.05 533.95 199.75 534.95 200.3 537.55 200.9 540.1 201.5 540.85 201.8 542 202.25 542.5 202.9 543 203.55 543 204.4 543 205.3 542.5 206 541.95 206.75 540.9 207.15 539.8 207.55 538.4 207.55 536.8 207.55 535.55 207 534.3 206.45 533.7 205.6 533.1 204.7 532.95 203.3
L 530.6 203.5
Q 530.65 205.35 531.65 206.85 532.6 208.3 534.3 209.05 536 209.75 538.5 209.75 540.5 209.75 542.1 209.05 543.65 208.3 544.5 207 545.35 205.7 545.35 204.2 545.35 202.7 544.6 201.6 543.8 200.45 542.2 199.7 541.1 199.2 538.1 198.5 535.1 197.85 534.4 197.2 533.7 196.55 533.7 195.55 533.7 194.4 534.7 193.6 535.7 192.75 537.95 192.75 540.1 192.75 541.2 193.65 542.25 194.55 542.45 196.3
L 544.8 196.15
Q 544.75 194.5 543.9 193.2 543.05 191.95 541.5 191.25 539.9 190.6 537.85 190.6 535.95 190.6 534.45 191.25 532.9 191.85 532.1 193.1
M 519.45 190.6
Q 515.5 190.6 513.05 193.2 510.55 195.8 510.55 200.4 510.55 202.85 511.6 205.05 512.7 207.25 514.75 208.5 516.8 209.75 519.4 209.75 521.85 209.75 523.9 208.65 526 207.5 527.15 205.25 528.25 203.05 528.25 200.2 528.25 197.45 527.2 195.25 526.1 193.05 524.05 191.8 522 190.6 519.45 190.6
M 522.75 193.65
Q 524.2 194.55 525 196.25 525.75 197.95 525.75 200.2 525.75 203.75 523.95 205.7 522.15 207.65 519.4 207.65 516.7 207.65 514.9 205.75 513.1 203.8 513.1 200.45 513.1 196.3 514.95 194.5 516.85 192.7 519.45 192.7 521.25 192.7 522.75 193.65
M 494.8 190.9
L 492.15 190.9 499.35 209.45 501.85 209.45 509.1 190.9 506.6 190.9 501.6 204.4
Q 501.05 205.9 500.6 207.4 500.2 206 499.65 204.4
L 494.8 190.9
M 489.7 190.9
L 487.25 190.9 487.25 209.45 489.7 209.45 489.7 190.9
M 800.3 196.05
L 800.3 197.8 801.95 197.8 801.95 205.5
Q 801.95 207.55 802.25 208.2 802.55 208.85 803.2 209.25 803.9 209.65 805.15 209.65 805.9 209.65 806.85 209.4
L 806.5 207.4
Q 805.9 207.5 805.55 207.5 805 207.5 804.75 207.35 804.5 207.15 804.35 206.9 804.25 206.6 804.25 205.65
L 804.25 197.8 806.5 197.8 806.5 196.05 804.25 196.05 804.25 191.35 801.95 192.7 801.95 196.05 800.3 196.05
M 789.2 196.05
L 787.15 196.05 787.15 209.45 789.45 209.45 789.45 202.1
Q 789.45 199.55 790.5 198.6 791.55 197.7 793 197.7 793.9 197.7 794.6 198.1 795.25 198.5 795.5 199.2 795.8 199.9 795.8 201.3
L 795.8 209.45 798.05 209.45 798.05 201.2
Q 798.05 199.6 797.95 199 797.75 198 797.25 197.3 796.75 196.6 795.7 196.15 794.7 195.7 793.5 195.7 790.7 195.7 789.2 197.95
L 789.2 196.05
M 778.3 195.7
Q 775.55 195.7 773.8 197.6 772.05 199.45 772.05 202.85 772.05 206.15 773.8 207.95 775.5 209.75 778.45 209.75 780.8 209.75 782.3 208.6 783.8 207.5 784.35 205.4
L 782 205.15
Q 781.5 206.55 780.6 207.25 779.7 207.9 778.45 207.9 776.8 207.9 775.65 206.7 774.55 205.55 774.4 203.3
L 784.4 203.3
Q 784.4 202.9 784.4 202.7 784.4 199.4 782.7 197.55 781 195.7 778.3 195.7
M 781.15 198.9
Q 781.85 199.75 782 201.45
L 774.55 201.45
Q 774.65 199.7 775.7 198.65 776.8 197.6 778.35 197.6 780.1 197.6 781.15 198.9
M 763.25 195.7
Q 761.6 195.7 760.25 196.6 758.9 197.45 758.25 199.1 757.6 200.75 757.6 202.75 757.6 204.8 758.35 206.4 759.05 208 760.4 208.85 761.75 209.75 763.35 209.75 765.85 209.75 767.1 207.75
L 767.1 209.45 769.25 209.45 769.25 190.9 766.95 190.9 766.95 197.55
Q 766.35 196.75 765.4 196.25 764.45 195.7 763.25 195.7
M 766.1 198.9
Q 767.15 200.2 767.15 202.95 767.15 205.45 766.1 206.65 765.05 207.9 763.6 207.9 762.1 207.9 761 206.6 759.9 205.35 759.9 202.75 759.9 200.1 760.95 198.85 761.95 197.6 763.5 197.6 765.05 197.6 766.1 198.9
M 739.5 196.2
Q 738.15 196.65 737.5 197.55 736.8 198.45 736.5 199.85
L 738.7 200.15
Q 739.05 198.75 739.85 198.15 740.6 197.6 742.2 197.6 743.9 197.6 744.8 198.4 745.45 198.95 745.45 200.35 745.45 200.45 745.45 200.95 744.15 201.4 741.35 201.7 740 201.9 739.35 202.05 738.45 202.3 737.7 202.8 737 203.3 736.55 204.1 736.1 204.9 736.1 205.9 736.1 207.6 737.25 208.7 738.45 209.75 740.65 209.75 742 209.75 743.2 209.3 744.35 208.85 745.6 207.8 745.7 208.75 746.05 209.45
L 748.45 209.45
Q 748 208.7 747.9 207.85 747.75 207 747.75 203.8
L 747.75 200.8
Q 747.75 199.25 747.6 198.7 747.4 197.75 746.9 197.15 746.4 196.55 745.35 196.15 744.25 195.7 742.55 195.7 740.8 195.7 739.5 196.2
M 745.45 202.7
L 745.45 203.55
Q 745.45 205.05 745.05 205.8 744.6 206.8 743.55 207.4 742.55 207.95 741.2 207.95 739.9 207.95 739.2 207.35 738.5 206.75 738.5 205.85 738.5 205.25 738.85 204.75 739.15 204.3 739.75 204.05 740.3 203.75 741.7 203.55 744.2 203.2 745.45 202.7
M 735.5 196.45
Q 734.3 195.7 733.15 195.7 732.35 195.7 731.7 196.2 731 196.65 730.25 198.05
L 730.25 196.05 728.2 196.05 728.2 209.45 730.45 209.45 730.45 202.4
Q 730.45 201 730.85 199.75 731.1 198.95 731.7 198.55 732.3 198.05 733 198.05 733.85 198.05 734.7 198.55
L 735.5 196.45
M 716.45 196.2
Q 715.1 196.65 714.45 197.55 713.75 198.45 713.45 199.85
L 715.65 200.15
Q 716 198.75 716.8 198.15 717.55 197.6 719.15 197.6 720.85 197.6 721.75 198.4 722.4 198.95 722.4 200.35 722.4 200.45 722.4 200.95 721.1 201.4 718.3 201.7 716.95 201.9 716.3 202.05 715.4 202.3 714.65 202.8 713.95 203.3 713.5 204.1 713.05 204.9 713.05 205.9 713.05 207.6 714.2 208.7 715.4 209.75 717.6 209.75 718.95 209.75 720.15 209.3 721.3 208.85 722.55 207.8 722.65 208.75 723 209.45
L 725.4 209.45
Q 724.95 208.7 724.85 207.85 724.7 207 724.7 203.8
L 724.7 200.8
Q 724.7 199.25 724.55 198.7 724.35 197.75 723.85 197.15 723.35 196.55 722.3 196.15 721.2 195.7 719.5 195.7 717.75 195.7 716.45 196.2
M 722.4 202.7
L 722.4 203.55
Q 722.4 205.05 722 205.8 721.55 206.8 720.5 207.4 719.5 207.95 718.15 207.95 716.85 207.95 716.15 207.35 715.45 206.75 715.45 205.85 715.45 205.25 715.8 204.75 716.1 204.3 716.7 204.05 717.25 203.75 718.65 203.55 721.15 203.2 722.4 202.7
M 708.45 196.6
Q 707.15 195.7 705.4 195.7 704.1 195.7 703.2 196.25 702.25 196.75 701.55 197.75
L 701.55 196.05 699.45 196.05 699.45 214.6 701.75 214.6 701.75 208.05
Q 702.3 208.8 703.2 209.25 704.1 209.75 705.25 209.75 706.8 209.75 708.25 208.9 709.65 208 710.4 206.35 711.1 204.7 711.1 202.65 711.1 200.7 710.45 199.1 709.75 197.5 708.45 196.6
M 701.5 202.8
Q 701.5 200.2 702.65 198.85 703.75 197.5 705.2 197.5 706.65 197.5 707.75 198.8 708.8 200.05 708.8 202.6 708.8 205.3 707.7 206.6 706.6 207.9 705.1 207.9 703.6 207.9 702.55 206.65 701.5 205.4 701.5 202.8
M 678.25 197.2
Q 677.55 196.55 677.55 195.55 677.55 194.4 678.55 193.6 679.55 192.75 681.8 192.75 683.95 192.75 685.05 193.65 686.1 194.55 686.3 196.3
L 688.65 196.15
Q 688.6 194.5 687.75 193.2 686.9 191.95 685.35 191.25 683.75 190.6 681.7 190.6 679.8 190.6 678.3 191.25 676.75 191.85 675.95 193.1 675.15 194.3 675.15 195.7 675.15 197 675.85 198 676.45 199.05 677.8 199.75 678.8 200.3 681.4 200.9 683.95 201.5 684.7 201.8 685.85 202.25 686.35 202.9 686.85 203.55 686.85 204.4 686.85 205.3 686.35 206 685.8 206.75 684.75 207.15 683.65 207.55 682.25 207.55 680.65 207.55 679.4 207 678.15 206.45 677.55 205.6 676.95 204.7 676.8 203.3
L 674.45 203.5
Q 674.5 205.35 675.5 206.85 676.45 208.3 678.15 209.05 679.85 209.75 682.35 209.75 684.35 209.75 685.95 209.05 687.5 208.3 688.35 207 689.2 205.7 689.2 204.2 689.2 202.7 688.45 201.6 687.65 200.45 686.05 199.7 684.95 199.2 681.95 198.5 678.95 197.85 678.25 197.2
M 663.3 190.6
Q 659.35 190.6 656.9 193.2 654.4 195.8 654.4 200.4 654.4 202.85 655.45 205.05 656.55 207.25 658.6 208.5 660.65 209.75 663.25 209.75 665.7 209.75 667.75 208.65 669.85 207.5 671 205.25 672.1 203.05 672.1 200.2 672.1 197.45 671.05 195.25 669.95 193.05 667.9 191.8 665.85 190.6 663.3 190.6
M 663.3 192.7
Q 665.1 192.7 666.6 193.65 668.05 194.55 668.85 196.25 669.6 197.95 669.6 200.2 669.6 203.75 667.8 205.7 666 207.65 663.25 207.65 660.55 207.65 658.75 205.75 656.95 203.8 656.95 200.45 656.95 196.3 658.8 194.5 660.7 192.7 663.3 192.7
M 650.8 190.9
L 648.35 190.9 648.35 209.45 650.8 209.45 650.8 190.9
M 940.85 196.2
Q 939.5 196.65 938.85 197.55 938.15 198.45 937.85 199.85
L 940.05 200.15
Q 940.4 198.75 941.2 198.15 941.95 197.6 943.55 197.6 945.25 197.6 946.15 198.4 946.8 198.95 946.8 200.35 946.8 200.45 946.8 200.95 945.5 201.4 942.7 201.7 941.35 201.9 940.7 202.05 939.8 202.3 939.05 202.8 938.35 203.3 937.9 204.1 937.45 204.9 937.45 205.9 937.45 207.6 938.6 208.7 939.8 209.75 942 209.75 943.35 209.75 944.55 209.3 945.7 208.85 946.95 207.8 947.05 208.75 947.4 209.45
L 949.8 209.45
Q 949.35 208.7 949.25 207.85 949.1 207 949.1 203.8
L 949.1 200.8
Q 949.1 199.25 948.95 198.7 948.75 197.75 948.25 197.15 947.75 196.55 946.7 196.15 945.6 195.7 943.9 195.7 942.15 195.7 940.85 196.2
M 946.8 202.7
L 946.8 203.55
Q 946.8 205.05 946.4 205.8 945.95 206.8 944.9 207.4 943.9 207.95 942.55 207.95 941.25 207.95 940.55 207.35 939.85 206.75 939.85 205.85 939.85 205.25 940.2 204.75 940.5 204.3 941.1 204.05 941.65 203.75 943.05 203.55 945.55 203.2 946.8 202.7
M 934.7 190.9
L 932.4 190.9 932.4 209.45 934.7 209.45 934.7 190.9
M 923.5 195.7
Q 921 195.7 919.3 197.2 917.2 199 917.2 202.75 917.2 206.15 918.95 207.95 920.7 209.75 923.5 209.75 925.25 209.75 926.75 208.95 928.25 208.1 929 206.65 929.8 205.15 929.8 202.55 929.8 199.35 928.05 197.55 926.25 195.7 923.5 195.7
M 926.3 198.9
Q 927.45 200.15 927.45 202.65 927.45 205.3 926.3 206.6 925.2 207.9 923.5 207.9 921.8 207.9 920.65 206.6 919.55 205.3 919.55 202.75 919.55 200.15 920.65 198.9 921.8 197.6 923.5 197.6 925.2 197.6 926.3 198.9
M 909.6 196.05
L 909.6 197.8 911.25 197.8 911.25 205.5
Q 911.25 207.55 911.55 208.2 911.85 208.85 912.5 209.25 913.2 209.65 914.45 209.65 915.2 209.65 916.15 209.4
L 915.8 207.4
Q 915.2 207.5 914.85 207.5 914.3 207.5 914.05 207.35 913.8 207.15 913.65 206.9 913.55 206.6 913.55 205.65
L 913.55 197.8 915.8 197.8 915.8 196.05 913.55 196.05 913.55 191.35 911.25 192.7 911.25 196.05 909.6 196.05
M 904.3 196.05
L 902.25 196.05 902.25 209.45 904.5 209.45 904.5 202.4
Q 904.5 201 904.9 199.75 905.15 198.95 905.75 198.55 906.35 198.05 907.05 198.05 907.9 198.05 908.75 198.55
L 909.55 196.45
Q 908.35 195.7 907.2 195.7 906.4 195.7 905.75 196.2 905.05 196.65 904.3 198.05
L 904.3 196.05
M 863.4 197.15
Q 862.9 196.55 861.85 196.15 860.75 195.7 859.05 195.7 857.3 195.7 856 196.2 854.65 196.65 854 197.55 853.3 198.45 853 199.85
L 855.2 200.15
Q 855.55 198.75 856.35 198.15 857.1 197.6 858.7 197.6 860.4 197.6 861.3 198.4 861.95 198.95 861.95 200.35 861.95 200.45 861.95 200.95 860.65 201.4 857.85 201.7 856.5 201.9 855.85 202.05 854.95 202.3 854.2 202.8 853.5 203.3 853.05 204.1 852.6 204.9 852.6 205.9 852.6 207.6 853.75 208.7 854.95 209.75 857.15 209.75 858.5 209.75 859.7 209.3 860.85 208.85 862.1 207.8 862.2 208.75 862.55 209.45
L 864.95 209.45
Q 864.5 208.7 864.4 207.85 864.25 207 864.25 203.8
L 864.25 200.8
Q 864.25 199.25 864.1 198.7 863.9 197.75 863.4 197.15
M 861.95 202.7
L 861.95 203.55
Q 861.95 205.05 861.55 205.8 861.1 206.8 860.05 207.4 859.05 207.95 857.7 207.95 856.4 207.95 855.7 207.35 855 206.75 855 205.85 855 205.25 855.35 204.75 855.65 204.3 856.25 204.05 856.8 203.75 858.2 203.55 860.7 203.2 861.95 202.7
M 880.35 195.7
Q 878.6 195.7 877.15 196.55 875.65 197.35 874.95 199 874.2 200.6 874.2 202.8 874.2 206.15 875.9 207.95 877.55 209.75 880.3 209.75 882.5 209.75 884.05 208.45 885.55 207.15 885.9 204.8
L 883.65 204.55
Q 883.45 206.25 882.55 207.05 881.65 207.9 880.3 207.9 878.6 207.9 877.6 206.65 876.55 205.45 876.55 202.7 876.55 200.05 877.6 198.85 878.7 197.6 880.4 197.6 881.55 197.6 882.35 198.3 883.15 198.95 883.5 200.3
L 885.7 199.95
Q 885.3 197.95 883.9 196.85 882.5 195.7 880.35 195.7
M 890.5 196.2
Q 889.15 196.65 888.5 197.55 887.8 198.45 887.5 199.85
L 889.7 200.15
Q 890.05 198.75 890.85 198.15 891.6 197.6 893.2 197.6 894.9 197.6 895.8 198.4 896.45 198.95 896.45 200.35 896.45 200.45 896.45 200.95 895.15 201.4 892.35 201.7 891 201.9 890.35 202.05 889.45 202.3 888.7 202.8 888 203.3 887.55 204.1 887.1 204.9 887.1 205.9 887.1 207.6 888.25 208.7 889.45 209.75 891.65 209.75 893 209.75 894.2 209.3 895.35 208.85 896.6 207.8 896.7 208.75 897.05 209.45
L 899.45 209.45
Q 899 208.7 898.9 207.85 898.75 207 898.75 203.8
L 898.75 200.8
Q 898.75 199.25 898.6 198.7 898.4 197.75 897.9 197.15 897.4 196.55 896.35 196.15 895.25 195.7 893.55 195.7 891.8 195.7 890.5 196.2
M 896.45 202.7
L 896.45 203.55
Q 896.45 205.05 896.05 205.8 895.6 206.8 894.55 207.4 893.55 207.95 892.2 207.95 890.9 207.95 890.2 207.35 889.5 206.75 889.5 205.85 889.5 205.25 889.85 204.75 890.15 204.3 890.75 204.05 891.3 203.75 892.7 203.55 895.2 203.2 896.45 202.7
M 843.8 195.7
Q 842.15 195.7 840.8 196.6 839.45 197.45 838.8 199.1 838.15 200.75 838.15 202.75 838.15 204.8 838.9 206.4 839.6 208 840.95 208.85 842.3 209.75 843.9 209.75 846.4 209.75 847.65 207.75
L 847.65 209.45 849.8 209.45 849.8 190.9 847.5 190.9 847.5 197.55
Q 846.9 196.75 845.95 196.25 845 195.7 843.8 195.7
M 846.65 198.9
Q 847.7 200.2 847.7 202.95 847.7 205.45 846.65 206.65 845.6 207.9 844.15 207.9 842.65 207.9 841.55 206.6 840.45 205.35 840.45 202.75 840.45 200.1 841.5 198.85 842.5 197.6 844.05 197.6 845.6 197.6 846.65 198.9
M 822.8 195.7
Q 820.3 195.7 818.6 197.2 816.5 199 816.5 202.75 816.5 206.15 818.25 207.95 820 209.75 822.8 209.75 824.55 209.75 826.05 208.95 827.55 208.1 828.3 206.65 829.1 205.15 829.1 202.55 829.1 199.35 827.35 197.55 825.55 195.7 822.8 195.7
M 825.6 198.9
Q 826.75 200.15 826.75 202.65 826.75 205.3 825.6 206.6 824.5 207.9 822.8 207.9 821.1 207.9 819.95 206.6 818.85 205.3 818.85 202.75 818.85 200.15 819.95 198.9 821.1 197.6 822.8 197.6 824.5 197.6 825.6 198.9
M 813.7 195.7
Q 812.9 195.7 812.25 196.2 811.55 196.65 810.8 198.05
L 810.8 196.05 808.75 196.05 808.75 209.45 811 209.45 811 202.4
Q 811 201 811.4 199.75 811.65 198.95 812.25 198.55 812.85 198.05 813.55 198.05 814.4 198.05 815.25 198.55
L 816.05 196.45
Q 814.85 195.7 813.7 195.7
M 1043.9 206.85
L 1043.9 209.45 1046.5 209.45 1046.5 206.85 1043.9 206.85
M 1012.5 196.05
L 1010.2 196.05 1010.2 209.45 1012.5 209.45 1012.5 196.05
M 1021.4 195.7
Q 1019.65 195.7 1018.2 196.55 1016.7 197.35 1016 199 1015.25 200.6 1015.25 202.8 1015.25 206.15 1016.95 207.95 1018.6 209.75 1021.35 209.75 1023.55 209.75 1025.1 208.45 1026.6 207.15 1026.95 204.8
L 1024.7 204.55
Q 1024.5 206.25 1023.6 207.05 1022.7 207.9 1021.35 207.9 1019.65 207.9 1018.65 206.65 1017.6 205.45 1017.6 202.7 1017.6 200.05 1018.65 198.85 1019.75 197.6 1021.45 197.6 1022.6 197.6 1023.4 198.3 1024.2 198.95 1024.55 200.3
L 1026.75 199.95
Q 1026.35 197.95 1024.95 196.85 1023.55 195.7 1021.4 195.7
M 1038.95 197.15
Q 1038.45 196.55 1037.4 196.15 1036.3 195.7 1034.6 195.7 1032.85 195.7 1031.55 196.2 1030.2 196.65 1029.55 197.55 1028.85 198.45 1028.55 199.85
L 1030.75 200.15
Q 1031.1 198.75 1031.9 198.15 1032.65 197.6 1034.25 197.6 1035.95 197.6 1036.85 198.4 1037.5 198.95 1037.5 200.35 1037.5 200.45 1037.5 200.95 1036.2 201.4 1033.4 201.7 1032.05 201.9 1031.4 202.05 1030.5 202.3 1029.75 202.8 1029.05 203.3 1028.6 204.1 1028.15 204.9 1028.15 205.9 1028.15 207.6 1029.3 208.7 1030.5 209.75 1032.7 209.75 1034.05 209.75 1035.25 209.3 1036.4 208.85 1037.65 207.8 1037.75 208.75 1038.1 209.45
L 1040.5 209.45
Q 1040.05 208.7 1039.95 207.85 1039.8 207 1039.8 203.8
L 1039.8 200.8
Q 1039.8 199.25 1039.65 198.7 1039.45 197.75 1038.95 197.15
M 1033.75 203.55
Q 1036.25 203.2 1037.5 202.7
L 1037.5 203.55
Q 1037.5 205.05 1037.1 205.8 1036.65 206.8 1035.6 207.4 1034.6 207.95 1033.25 207.95 1031.95 207.95 1031.25 207.35 1030.55 206.75 1030.55 205.85 1030.55 205.25 1030.9 204.75 1031.2 204.3 1031.8 204.05 1032.35 203.75 1033.75 203.55
M 1006.75 196.05
L 1004.65 196.05 1004.65 197.65
Q 1003.15 195.7 1000.75 195.7 998.95 195.7 997.65 196.6 996.3 197.5 995.65 199.1 994.95 200.75 994.95 202.65 994.95 205.45 996.45 207.45 997.95 209.45 1000.75 209.45 1002.95 209.45 1004.45 207.7 1004.45 209.9 1004.3 210.6 1004 211.75 1003.15 212.4 1002.25 213 1000.7 213 999.2 213 998.35 212.4 997.75 211.9 997.6 210.9
L 995.4 210.55
Q 995.35 212.75 996.8 213.8 998.3 214.9 1000.7 214.9 1002.7 214.9 1004.1 214.15 1005.5 213.4 1006.15 212.1 1006.75 210.75 1006.75 207.65
L 1006.75 196.05
M 1004.65 202.55
Q 1004.65 205.15 1003.6 206.35 1002.5 207.55 1000.95 207.55 999.35 207.55 998.3 206.35 997.25 205.15 997.25 202.5 997.25 200.05 998.35 198.85 999.4 197.6 1000.9 197.6 1002.45 197.6 1003.55 198.85 1004.65 200.1 1004.65 202.55
M 1010.2 190.9
L 1010.2 193.55 1012.5 193.55 1012.5 190.9 1010.2 190.9
M 991.45 197.15
Q 990.95 196.55 989.9 196.15 988.8 195.7 987.1 195.7 985.35 195.7 984.05 196.2 982.7 196.65 982.05 197.55 981.35 198.45 981.05 199.85
L 983.25 200.15
Q 983.6 198.75 984.4 198.15 985.15 197.6 986.75 197.6 988.45 197.6 989.35 198.4 990 198.95 990 200.35 990 200.45 990 200.95 988.7 201.4 985.9 201.7 984.55 201.9 983.9 202.05 983 202.3 982.25 202.8 981.55 203.3 981.1 204.1 980.65 204.9 980.65 205.9 980.65 207.6 981.8 208.7 983 209.75 985.2 209.75 986.55 209.75 987.75 209.3 988.9 208.85 990.15 207.8 990.25 208.75 990.6 209.45
L 993 209.45
Q 992.55 208.7 992.45 207.85 992.3 207 992.3 203.8
L 992.3 200.8
Q 992.3 199.25 992.15 198.7 991.95 197.75 991.45 197.15
M 990 202.7
L 990 203.55
Q 990 205.05 989.6 205.8 989.15 206.8 988.1 207.4 987.1 207.95 985.75 207.95 984.45 207.95 983.75 207.35 983.05 206.75 983.05 205.85 983.05 205.25 983.4 204.75 983.7 204.3 984.3 204.05 984.85 203.75 986.25 203.55 988.75 203.2 990 202.7
M 985.55 194.35
L 987.45 194.35 990.2 190.8 987.25 190.8 985.55 194.35
M 976.85 196.85
Q 975.8 195.7 973.8 195.7 971.25 195.7 969.65 198.05 969.25 196.95 968.3 196.35 967.35 195.7 965.85 195.7 964.5 195.7 963.45 196.35 962.4 196.9 961.8 197.9
L 961.8 196.05 959.75 196.05 959.75 209.45 962.05 209.45 962.05 202.5
Q 962.05 200.65 962.4 199.7 962.75 198.7 963.6 198.2 964.4 197.7 965.35 197.7 966.6 197.7 967.2 198.45 967.75 199.2 967.75 200.75
L 967.75 209.45 970 209.45 970 201.65
Q 970 199.6 970.95 198.65 971.9 197.7 973.3 197.7 974.1 197.7 974.65 198.05 975.25 198.45 975.45 199.05 975.7 199.65 975.7 201
L 975.7 209.45 977.95 209.45 977.95 200.25
Q 977.95 197.95 976.85 196.85 Z"/>
</g>
</defs>

<g transform="matrix( 1, 0, 0, 1, 1.9,-166) ">
<use xlink:href="#Layer1_0_FILL"/>
</g>

<g transform="matrix( 1, 0, 0, 1, 2.6,-166.05) ">
<use xlink:href="#Layer0_0_FILL"/>
</g>
</svg>
