
<svg xmlns="http://www.w3.org/2000/svg" version="1.1" xmlns:xlink="http://www.w3.org/1999/xlink" preserveAspectRatio="none" x="0px" y="0px" width="255px" height="57px" viewBox="0 0 255 57">
<defs>
<filter id="Filter_1" x="-20%" y="-20%" width="140%" height="140%" color-interpolation-filters="sRGB">
<feColorMatrix in="SourceGraphic" type="matrix" values="1 0 0 0 0 0 1 0 0 0 0 0 1 0 0 0 0 0 0.2 0" result="result1"/>
</filter>

<g id="sds_0_Layer0_0_FILL">
<path fill="#FFFFFF" stroke="none" d="
M 252.25 44.85
L 252.25 9.35
Q 252.25 0.1 243.05 0
L 9.35 0
Q 0 0 0 9.35
L 0 44.85
Q 0 54.2 9.35 54.2
L 243.05 54.2
Q 252.25 54.1 252.25 44.85 Z"/>
</g>

<g id="Layer0_0_MEMBER_1_FILL">
<path fill="#FFFFFF" stroke="none" d="
M 402.15 182.75
Q 402.14453125 172.5080078125 391.95 172.4
L 157.65 172.4
Q 147.9044921875 172.719921875 147.9 182.75
L 147.9 218.25
Q 147.9044921875 228.2798828125 157.65 228.6
L 391.95 228.6
Q 402.1419921875 228.4892578125 402.15 218.25
L 402.15 182.75
M 391.95 174.4
Q 400.15546875 174.491796875 400.15 182.75
L 400.15 218.25
Q 400.1580078125 226.5107421875 391.95 226.6
L 157.7 226.6
Q 149.8955078125 226.30703125 149.9 218.25
L 149.9 182.75
Q 149.8955078125 174.6798828125 157.7 174.4
L 391.95 174.4 Z"/>
</g>

<g id="Layer0_0_MEMBER_2_FILL">
<path fill="#FFFFFF" stroke="none" d="
M 970.9 344
L 952.5 344 952.5 374.85 971.6 374.85 971.6 372.25 955.3 372.25 955.3 360.2 969.95 360.2 969.95 357.6 955.3 357.6 955.3 346.6 970.9 346.6 970.9 344
M 941.75 345.1
Q 939.95 344.35 938.4 344.15 936.85 344 935.25 344
L 927.35 344 927.35 374.85 930.15 374.85 930.15 360.2 935.35 360.2 943.85 374.85 947.05 374.85 938.25 360.05
Q 939.7 359.85 941 359.4 942.3 358.95 943.45 358.05 944.55 357.15 945.25 355.7 945.95 354.2 945.95 352.1 945.95 349.3 944.75 347.55 943.5 345.85 941.75 345.1
M 930.15 357.6
L 930.15 346.6 936.1 346.6
Q 938.2 346.6 939.6 347.15 941 347.65 941.75 348.5 942.55 349.3 942.85 350.25 943.15 351.2 943.15 352.1 943.15 353 942.85 353.95 942.55 354.9 941.8 355.7 941.05 356.55 939.6 357.05 938.2 357.6 936.1 357.6
L 930.15 357.6
M 1065.6 344
L 1062.8 344 1062.8 374.85 1065.6 374.85 1065.6 344
M 1085.9 344
L 1083 344 1069.85 374.85 1072.8 374.85 1076.2 366.65 1092.15 366.65 1095.4 374.85 1098.55 374.85 1085.9 344
M 1091.15 364.05
L 1077.3 364.05 1084.3 347.15 1091.15 364.05
M 1117.25 345.1
Q 1115.45 344.35 1113.9 344.15 1112.35 344 1110.75 344
L 1102.85 344 1102.85 374.85 1105.65 374.85 1105.65 360.2 1110.85 360.2 1119.35 374.85 1122.55 374.85 1113.75 360.05
Q 1115.2 359.85 1116.5 359.4 1117.8 358.95 1118.95 358.05 1120.05 357.15 1120.75 355.7 1121.45 354.2 1121.45 352.1 1121.45 349.3 1120.25 347.55 1119 345.85 1117.25 345.1
M 1118.35 350.25
Q 1118.65 351.2 1118.65 352.1 1118.65 353 1118.35 353.95 1118.05 354.9 1117.3 355.7 1116.55 356.55 1115.1 357.05 1113.7 357.6 1111.6 357.6
L 1105.65 357.6 1105.65 346.6 1111.6 346.6
Q 1113.7 346.6 1115.1 347.15 1116.5 347.65 1117.25 348.5 1118.05 349.3 1118.35 350.25
M 992.3 344
L 988.7 344 988.7 374.85 991.5 374.85 991.5 347.85 991.55 347.85 1009.9 374.85 1013.55 374.85 1013.55 344 1010.75 344 1010.75 371 1010.65 371 992.3 344
M 980.5 344
L 977.7 344 977.7 374.85 980.5 374.85 980.5 344
M 1052.3 344.4
Q 1049.65 343.2 1046.45 343.2 1043.05 343.2 1040.15 344.4 1037.3 345.6 1035.2 347.8 1033.1 350 1032 352.95 1030.9 355.95 1030.9 359.4 1030.9 362.9 1032 365.9 1033.1 368.9 1035.2 371.05 1037.3 373.25 1040.15 374.45 1043.05 375.65 1046.45 375.65 1049.9 375.65 1052.75 374.3 1055.6 372.95 1057.65 370
L 1055.35 368.25
Q 1053.85 370.55 1051.4 371.8 1048.9 373 1046.45 373 1043.55 373 1041.2 372 1038.85 371 1037.15 369.15 1035.45 367.3 1034.6 364.8 1033.7 362.3 1033.7 359.4 1033.7 356.55 1034.6 354.05 1035.45 351.55 1037.15 349.7 1038.8 347.85 1041.15 346.85 1043.55 345.85 1046.45 345.85 1048.85 345.85 1051.05 346.9 1053.15 347.95 1054.55 350
L 1056.85 348.05
Q 1054.9 345.55 1052.3 344.4
M 1024.65 344
L 1021.85 344 1021.85 374.85 1024.65 374.85 1024.65 344 Z"/>
</g>
</defs>

<g transform="matrix( 1, 0, 0, 1, 1.4,1.4) ">
<g transform="matrix( 1, 0, 0, 1, 0,0) ">
<use filter="url(#Filter_1)" xlink:href="#sds_0_Layer0_0_FILL"/>
</g>
</g>

<g transform="matrix( 1, 0, 0, 1, -147.5,-172) ">
<use xlink:href="#Layer0_0_MEMBER_1_FILL"/>
</g>

<g transform="matrix( 1, 0, 0, 1, -897.45,-330.9) ">
<use xlink:href="#Layer0_0_MEMBER_2_FILL"/>
</g>
</svg>
