
<svg xmlns="http://www.w3.org/2000/svg" version="1.1" xmlns:xlink="http://www.w3.org/1999/xlink" preserveAspectRatio="none" x="0px" y="0px" width="517px" height="150px" viewBox="0 0 517 150">
<defs>
<linearGradient id="Gradient_1" gradientUnits="userSpaceOnUse" x1="-528.6000000000001" y1="96.69999999999999" x2="759.7" y2="418.2" spreadMethod="pad">
<stop  offset="0%" stop-color="#460113"/>

<stop  offset="59.6078431372549%" stop-color="#7E1327"/>

<stop  offset="97.25490196078431%" stop-color="#490416"/>
</linearGradient>

<radialGradient id="Gradient_2" gradientUnits="userSpaceOnUse" cx="0" cy="0" r="5.117677695986718" fx="0" fy="0" gradientTransform="matrix( -0.9183853066178317, 0.3956872863619381, 0.35660706054841335, 0.9989882723582264, 389.1,71.4) " spreadMethod="pad">
<stop  offset="0%" stop-color="#00CCFF"/>

<stop  offset="79.2156862745098%" stop-color="#0066CC"/>
</radialGradient>

<radialGradient id="Gradient_3" gradientUnits="userSpaceOnUse" cx="0" cy="0" r="7.125" fx="0" fy="0" gradientTransform="matrix( 1, 0, 0, 1, 365.8,75.4) " spreadMethod="pad">
<stop  offset="0%" stop-color="#00CCFF"/>

<stop  offset="79.2156862745098%" stop-color="#0066CC"/>
</radialGradient>

<linearGradient id="Gradient_4" gradientUnits="userSpaceOnUse" x1="73.2125" y1="145.975" x2="76.1875" y2="62.62499999999999" spreadMethod="pad">
<stop  offset="0%" stop-color="#666666"/>

<stop  offset="100%" stop-color="#FFFFFF"/>
</linearGradient>

<g id="Layer8_0_FILL">
<path fill="#6E0D21" stroke="none" d="
M 146.25 29.8
Q 146.25 11.3 132.5 6.5 127.75 4.85 121.3 4.85
L 30.25 4.85
Q 18.3 4.85 12.05 10.6 5.3 16.8 5.3 29.8
L 5.3 120.85
Q 5.3 123.8287109375 5.65 126.45 6.4708984375 132.5009765625 9.15 136.65 10.4162109375 138.5494140625 12.05 140.05 18.3 145.8 30.25 145.8
L 121.3 145.8
Q 127.75 145.8 132.5 144.15 138.9388671875 141.90234375 142.35 136.65 145.0767578125 132.491796875 145.9 126.45 146.25 123.8275390625 146.25 120.85
L 146.25 29.8 Z"/>
</g>

<g id="Layer7_0_FILL">
<path fill="url(#Gradient_1)" stroke="none" d="
M 88.55 4.85
L 56 4.85 56 145.8 88.55 145.8 88.55 4.85
M 12.05 10.6
Q 5.3 16.8 5.3 29.8
L 5.3 120.85
Q 5.3 123.8287109375 5.65 126.45 6.4708984375 132.5009765625 9.15 136.65 10.4162109375 138.5494140625 12.05 140.05
L 12.05 10.6
M 39 4.85
L 30.5 4.85 30.5 145.8 39 145.8 39 4.85
M 115.5 4.85
L 107 4.85 107 145.8 115.5 145.8 115.5 4.85
M 146.25 29.8
Q 146.25 11.3 132.5 6.5
L 132.5 144.15
Q 138.9388671875 141.90234375 142.35 136.65 145.0767578125 132.491796875 145.9 126.45 146.25 123.8275390625 146.25 120.85
L 146.25 29.8 Z"/>

<path fill="#951A2F" stroke="none" d="
M 56 4.85
L 39 4.85 39 145.8 56 145.8 56 4.85
M 30.5 4.85
L 30.25 4.85
Q 18.3 4.85 12.05 10.6
L 12.05 140.05
Q 18.3 145.8 30.25 145.8
L 30.5 145.8 30.5 4.85
M 107 4.85
L 88.55 4.85 88.55 145.8 107 145.8 107 4.85
M 121.3 4.85
L 115.5 4.85 115.5 145.8 121.3 145.8
Q 127.75 145.8 132.5 144.15
L 132.5 6.5
Q 127.75 4.85 121.3 4.85 Z"/>
</g>

<g id="Layer5_0_FILL">
<path fill="#FFFFFF" stroke="none" d="
M 515.15 34.65
Q 515.15 20.40234375 505 16.3 500.90234375 14.65 495.15 14.65
L 236.25 14.65
Q 217.15 15.1 217.15 34.65
L 217.15 50.75 173.7 76.95 217.15 76.95 217.15 117.7
Q 217.15 137.25 236.25 137.7
L 495.15 137.7
Q 500.90234375 137.7 505 136.05 515.15 131.94765625 515.15 117.7
L 515.15 34.65 Z"/>
</g>

<g id="Layer4_0_FILL">
<path fill="#000000" stroke="none" d="
M 265.7 111.3
Q 265.7 108 264 106.15 262.3 104.3 259.6 104.3 256.85 104.3 255.1 106.2 253.35 108.05 253.35 111.45 253.35 114.75 255.1 116.55 256.8 118.35 259.75 118.35 262.1 118.35 263.6 117.2 265.1 116.1 265.65 114
L 263.3 113.75
Q 262.8 115.15 261.9 115.85 261 116.5 259.75 116.5 258.1 116.5 256.95 115.3 255.85 114.15 255.7 111.9
L 265.7 111.9
Q 265.7 111.5 265.7 111.3
M 255.85 110.05
Q 255.95 108.3 257 107.25 258.1 106.2 259.65 106.2 261.4 106.2 262.45 107.5 263.15 108.35 263.3 110.05
L 255.85 110.05
M 275.1 106.75
Q 275.8 107.35 275.95 108.4
L 278.2 108.1
Q 278 106.8 277.4 106 276.85 105.25 275.65 104.8 274.45 104.3 272.85 104.3 271.8 104.3 270.9 104.6 270 104.85 269.45 105.25 268.75 105.75 268.35 106.55 267.95 107.3 267.95 108.2 267.95 109.2 268.45 110 268.9 110.8 269.9 111.25 270.85 111.75 273.35 112.35 275.2 112.85 275.7 113.15 276.35 113.6 276.35 114.35 276.35 115.2 275.6 115.85 274.85 116.5 273.25 116.5 271.7 116.5 270.85 115.75 270 115.05 269.8 113.7
L 267.55 114.05
Q 267.95 116.2 269.3 117.25 270.65 118.35 273.3 118.35 274.85 118.35 276.1 117.8 277.35 117.25 278.05 116.25 278.7 115.25 278.7 114.1 278.7 112.95 278.15 112.15 277.6 111.4 276.65 110.95 275.7 110.55 273.3 109.9 271.6 109.45 271.3 109.35 270.7 109.1 270.4 108.7 270.15 108.35 270.15 107.9 270.15 107.25 270.8 106.7 271.45 106.2 273.05 106.2 274.35 106.2 275.1 106.75
M 287.1 104.3
Q 285.35 104.3 284.05 104.8 282.7 105.25 282.05 106.15 281.35 107.05 281.05 108.45
L 283.25 108.75
Q 283.6 107.35 284.4 106.75 285.15 106.2 286.75 106.2 288.45 106.2 289.35 107 290 107.55 290 108.95 290 109.05 290 109.55 288.7 110 285.9 110.3 284.55 110.5 283.9 110.65 283 110.9 282.25 111.4 281.55 111.9 281.1 112.7 280.65 113.5 280.65 114.5 280.65 116.2 281.8 117.3 283 118.35 285.2 118.35 286.55 118.35 287.75 117.9 288.9 117.45 290.15 116.4 290.25 117.35 290.6 118.05
L 293 118.05
Q 292.55 117.3 292.45 116.45 292.3 115.6 292.3 112.4
L 292.3 109.4
Q 292.3 107.85 292.15 107.3 291.95 106.35 291.45 105.75 290.95 105.15 289.9 104.75 288.8 104.3 287.1 104.3
M 290 112.15
Q 290 113.65 289.6 114.4 289.15 115.4 288.1 116 287.1 116.55 285.75 116.55 284.45 116.55 283.75 115.95 283.05 115.35 283.05 114.45 283.05 113.85 283.4 113.35 283.7 112.9 284.3 112.65 284.85 112.35 286.25 112.15 288.75 111.8 290 111.3
L 290 112.15
M 299.05 101.75
Q 299.45 101.3 300.5 101.3 301.15 101.3 301.85 101.4
L 302.2 99.45
Q 301.05 99.2 300.05 99.2 298.55 99.2 297.75 99.75 296.9 100.3 296.6 101.2 296.35 101.85 296.35 103.2
L 296.35 104.65 294.35 104.65 294.35 106.4 296.35 106.4 296.35 118.05 298.6 118.05 298.6 106.4 301.25 106.4 301.25 104.65 298.6 104.65 298.6 103.4
Q 298.6 102.15 299.05 101.75
M 305.3 118.05
L 305.3 104.65 303 104.65 303 118.05 305.3 118.05
M 305.3 102.15
L 305.3 99.5 303 99.5 303 102.15 305.3 102.15
M 318.75 106.15
Q 316.95 104.3 314.2 104.3 311.7 104.3 310 105.8 307.9 107.6 307.9 111.35 307.9 114.75 309.65 116.55 311.4 118.35 314.2 118.35 315.95 118.35 317.45 117.55 318.95 116.7 319.7 115.25 320.5 113.75 320.5 111.15 320.5 107.95 318.75 106.15
M 317 107.5
Q 318.15 108.75 318.15 111.25 318.15 113.9 317 115.2 315.9 116.5 314.2 116.5 312.5 116.5 311.35 115.2 310.25 113.9 310.25 111.35 310.25 108.75 311.35 107.5 312.5 106.2 314.2 106.2 315.9 106.2 317 107.5
M 239.65 115
Q 240.35 116.6 241.7 117.45 243.05 118.35 244.65 118.35 247.15 118.35 248.4 116.35
L 248.4 118.05 250.55 118.05 250.55 99.5 248.25 99.5 248.25 106.15
Q 247.65 105.35 246.7 104.85 245.75 104.3 244.55 104.3 242.9 104.3 241.55 105.2 240.2 106.05 239.55 107.7 238.9 109.35 238.9 111.35 238.9 113.4 239.65 115
M 242.3 115.2
Q 241.2 113.95 241.2 111.35 241.2 108.7 242.25 107.45 243.25 106.2 244.8 106.2 246.35 106.2 247.4 107.5 248.45 108.8 248.45 111.55 248.45 114.05 247.4 115.25 246.35 116.5 244.9 116.5 243.4 116.5 242.3 115.2
M 294.85 72.55
Q 292.35 72.55 290.65 74.05 288.55 75.85 288.55 79.6 288.55 83 290.3 84.8 292.05 86.6 294.85 86.6 296.6 86.6 298.1 85.8 299.6 84.95 300.35 83.5 301.15 82 301.15 79.4 301.15 76.2 299.4 74.4 297.6 72.55 294.85 72.55
M 297.65 75.75
Q 298.8 77 298.8 79.5 298.8 82.15 297.65 83.45 296.55 84.75 294.85 84.75 293.15 84.75 292 83.45 290.9 82.15 290.9 79.6 290.9 77 292 75.75 293.15 74.45 294.85 74.45 296.55 74.45 297.65 75.75
M 312.8 73.7
Q 311.4 72.55 309.25 72.55 307.5 72.55 306.05 73.4 304.55 74.2 303.85 75.85 303.1 77.45 303.1 79.65 303.1 83 304.8 84.8 306.45 86.6 309.2 86.6 311.4 86.6 312.95 85.3 314.45 84 314.8 81.65
L 312.55 81.4
Q 312.35 83.1 311.45 83.9 310.55 84.75 309.2 84.75 307.5 84.75 306.5 83.5 305.45 82.3 305.45 79.55 305.45 76.9 306.5 75.7 307.6 74.45 309.3 74.45 310.45 74.45 311.25 75.15 312.05 75.8 312.4 77.15
L 314.6 76.8
Q 314.2 74.8 312.8 73.7
M 320.8 71.2
L 322.2 69.05 323.6 71.2 326.2 71.2 323.35 67.65 320.9 67.65 318.2 71.2 320.8 71.2
M 272 67.75
L 279.2 86.3 281.7 86.3 288.95 67.75 286.45 67.75 281.45 81.25
Q 280.9 82.75 280.45 84.25 280.05 82.85 279.5 81.25
L 274.65 67.75 272 67.75
M 310 37
Q 309.05 36.35 307.7 36.15 306.75 35.95 304.9 35.95
L 297.9 35.95 297.9 54.5 300.35 54.5 300.35 46.95 305.1 46.95
Q 309.05 46.95 310.55 45.35 312.05 43.7 312.05 41.35 312.05 39.95 311.5 38.8 310.9 37.65 310 37
M 300.35 44.8
L 300.35 38.15 305.1 38.15
Q 306.75 38.15 307.4 38.3 308.35 38.6 308.95 39.4 309.5 40.25 309.5 41.4 309.5 43 308.5 43.9 307.5 44.8 305.15 44.8
L 300.35 44.8
M 423.25 104.65
L 420.95 104.65 420.95 111.8
Q 420.95 113.55 420.6 114.45 420.2 115.35 419.3 115.9 418.4 116.4 417.4 116.4 416.4 116.4 415.7 115.9 415 115.35 414.75 114.45 414.65 113.85 414.65 112.05
L 414.65 104.65 412.35 104.65 412.35 112.95
Q 412.35 114.4 412.5 115.05 412.7 116.05 413.2 116.75 413.7 117.45 414.75 117.9 415.75 118.35 416.95 118.35 419.65 118.35 421.2 116.1
L 421.2 118.05 423.25 118.05 423.25 104.65
M 437.55 108.55
Q 437.15 106.55 435.75 105.45 434.35 104.3 432.2 104.3 430.45 104.3 429 105.15 427.5 105.95 426.8 107.6 426.05 109.2 426.05 111.4 426.05 114.75 427.75 116.55 429.4 118.35 432.15 118.35 434.35 118.35 435.9 117.05 437.4 115.75 437.75 113.4
L 435.5 113.15
Q 435.3 114.85 434.4 115.65 433.5 116.5 432.15 116.5 430.45 116.5 429.45 115.25 428.4 114.05 428.4 111.3 428.4 108.65 429.45 107.45 430.55 106.2 432.25 106.2 433.4 106.2 434.2 106.9 435 107.55 435.35 108.9
L 437.55 108.55
M 451.3 111.3
Q 451.3 108 449.6 106.15 447.9 104.3 445.2 104.3 442.45 104.3 440.7 106.2 438.95 108.05 438.95 111.45 438.95 114.75 440.7 116.55 442.4 118.35 445.35 118.35 447.7 118.35 449.2 117.2 450.7 116.1 451.25 114
L 448.9 113.75
Q 448.4 115.15 447.5 115.85 446.6 116.5 445.35 116.5 443.7 116.5 442.55 115.3 441.45 114.15 441.3 111.9
L 451.3 111.9
Q 451.3 111.5 451.3 111.3
M 448.05 107.5
Q 448.75 108.35 448.9 110.05
L 441.45 110.05
Q 441.55 108.3 442.6 107.25 443.7 106.2 445.25 106.2 447 106.2 448.05 107.5
M 458.5 104.3
Q 457.45 104.3 456.55 104.6 455.65 104.85 455.1 105.25 454.4 105.75 454 106.55 453.6 107.3 453.6 108.2 453.6 109.2 454.1 110 454.55 110.8 455.55 111.25 456.5 111.75 459 112.35 460.85 112.85 461.35 113.15 462 113.6 462 114.35 462 115.2 461.25 115.85 460.5 116.5 458.9 116.5 457.35 116.5 456.5 115.75 455.65 115.05 455.45 113.7
L 453.2 114.05
Q 453.6 116.2 454.95 117.25 456.3 118.35 458.95 118.35 460.5 118.35 461.75 117.8 463 117.25 463.7 116.25 464.35 115.25 464.35 114.1 464.35 112.95 463.8 112.15 463.25 111.4 462.3 110.95 461.35 110.55 458.95 109.9 457.25 109.45 456.95 109.35 456.35 109.1 456.05 108.7 455.8 108.35 455.8 107.9 455.8 107.25 456.45 106.7 457.1 106.2 458.7 106.2 460 106.2 460.75 106.75 461.45 107.35 461.6 108.4
L 463.85 108.1
Q 463.65 106.8 463.05 106 462.5 105.25 461.3 104.8 460.1 104.3 458.5 104.3
M 476.8 108.1
Q 476.6 106.8 476 106 475.45 105.25 474.25 104.8 473.05 104.3 471.45 104.3 470.4 104.3 469.5 104.6 468.6 104.85 468.05 105.25 467.35 105.75 466.95 106.55 466.55 107.3 466.55 108.2 466.55 109.2 467.05 110 467.5 110.8 468.5 111.25 469.45 111.75 471.95 112.35 473.8 112.85 474.3 113.15 474.95 113.6 474.95 114.35 474.95 115.2 474.2 115.85 473.45 116.5 471.85 116.5 470.3 116.5 469.45 115.75 468.6 115.05 468.4 113.7
L 466.15 114.05
Q 466.55 116.2 467.9 117.25 469.25 118.35 471.9 118.35 473.45 118.35 474.7 117.8 475.95 117.25 476.65 116.25 477.3 115.25 477.3 114.1 477.3 112.95 476.75 112.15 476.2 111.4 475.25 110.95 474.3 110.55 471.9 109.9 470.2 109.45 469.9 109.35 469.3 109.1 469 108.7 468.75 108.35 468.75 107.9 468.75 107.25 469.4 106.7 470.05 106.2 471.65 106.2 472.95 106.2 473.7 106.75 474.4 107.35 474.55 108.4
L 476.8 108.1
M 327.55 104.3
Q 326.5 104.3 325.6 104.6 324.7 104.85 324.15 105.25 323.45 105.75 323.05 106.55 322.65 107.3 322.65 108.2 322.65 109.2 323.15 110 323.6 110.8 324.6 111.25 325.55 111.75 328.05 112.35 329.9 112.85 330.4 113.15 331.05 113.6 331.05 114.35 331.05 115.2 330.3 115.85 329.55 116.5 327.95 116.5 326.4 116.5 325.55 115.75 324.7 115.05 324.5 113.7
L 322.25 114.05
Q 322.65 116.2 324 117.25 325.35 118.35 328 118.35 329.55 118.35 330.8 117.8 332.05 117.25 332.75 116.25 333.4 115.25 333.4 114.1 333.4 112.95 332.85 112.15 332.3 111.4 331.35 110.95 330.4 110.55 328 109.9 326.3 109.45 326 109.35 325.4 109.1 325.1 108.7 324.85 108.35 324.85 107.9 324.85 107.25 325.5 106.7 326.15 106.2 327.75 106.2 329.05 106.2 329.8 106.75 330.5 107.35 330.65 108.4
L 332.9 108.1
Q 332.7 106.8 332.1 106 331.55 105.25 330.35 104.8 329.15 104.3 327.55 104.3
M 344.9 111.3
Q 344.9 108.65 345.95 107.45 347.05 106.2 348.75 106.2 349.9 106.2 350.7 106.9 351.5 107.55 351.85 108.9
L 354.05 108.55
Q 353.65 106.55 352.25 105.45 350.85 104.3 348.7 104.3 346.95 104.3 345.5 105.15 344 105.95 343.3 107.6 342.55 109.2 342.55 111.4 342.55 114.75 344.25 116.55 345.9 118.35 348.65 118.35 350.85 118.35 352.4 117.05 353.9 115.75 354.25 113.4
L 352 113.15
Q 351.8 114.85 350.9 115.65 350 116.5 348.65 116.5 346.95 116.5 345.95 115.25 344.9 114.05 344.9 111.3
M 367.95 111.15
Q 367.95 107.95 366.2 106.15 364.4 104.3 361.65 104.3 359.15 104.3 357.45 105.8 355.35 107.6 355.35 111.35 355.35 114.75 357.1 116.55 358.85 118.35 361.65 118.35 363.4 118.35 364.9 117.55 366.4 116.7 367.15 115.25 367.95 113.75 367.95 111.15
M 361.65 106.2
Q 363.35 106.2 364.45 107.5 365.6 108.75 365.6 111.25 365.6 113.9 364.45 115.2 363.35 116.5 361.65 116.5 359.95 116.5 358.8 115.2 357.7 113.9 357.7 111.35 357.7 108.75 358.8 107.5 359.95 106.2 361.65 106.2
M 385.5 106.65
Q 386.1 107.05 386.3 107.65 386.55 108.25 386.55 109.6
L 386.55 118.05 388.8 118.05 388.8 108.85
Q 388.8 106.55 387.7 105.45 386.65 104.3 384.65 104.3 382.1 104.3 380.5 106.65 380.1 105.55 379.15 104.95 378.2 104.3 376.7 104.3 375.35 104.3 374.3 104.95 373.25 105.5 372.65 106.5
L 372.65 104.65 370.6 104.65 370.6 118.05 372.9 118.05 372.9 111.1
Q 372.9 109.25 373.25 108.3 373.6 107.3 374.45 106.8 375.25 106.3 376.2 106.3 377.45 106.3 378.05 107.05 378.6 107.8 378.6 109.35
L 378.6 118.05 380.85 118.05 380.85 110.25
Q 380.85 108.2 381.8 107.25 382.75 106.3 384.15 106.3 384.95 106.3 385.5 106.65
M 403.85 104.3
Q 402.8 104.3 401.9 104.6 401 104.85 400.45 105.25 399.75 105.75 399.35 106.55 398.95 107.3 398.95 108.2 398.95 109.2 399.45 110 399.9 110.8 400.9 111.25 401.85 111.75 404.35 112.35 406.2 112.85 406.7 113.15 407.35 113.6 407.35 114.35 407.35 115.2 406.6 115.85 405.85 116.5 404.25 116.5 402.7 116.5 401.85 115.75 401 115.05 400.8 113.7
L 398.55 114.05
Q 398.95 116.2 400.3 117.25 401.65 118.35 404.3 118.35 405.85 118.35 407.1 117.8 408.35 117.25 409.05 116.25 409.7 115.25 409.7 114.1 409.7 112.95 409.15 112.15 408.6 111.4 407.65 110.95 406.7 110.55 404.3 109.9 402.6 109.45 402.3 109.35 401.7 109.1 401.4 108.7 401.15 108.35 401.15 107.9 401.15 107.25 401.8 106.7 402.45 106.2 404.05 106.2 405.35 106.2 406.1 106.75 406.8 107.35 406.95 108.4
L 409.2 108.1
Q 409 106.8 408.4 106 407.85 105.25 406.65 104.8 405.45 104.3 403.85 104.3
M 374.2 73
Q 373.2 72.55 372 72.55 369.2 72.55 367.7 74.8
L 367.7 72.9 365.65 72.9 365.65 86.3 367.95 86.3 367.95 78.95
Q 367.95 76.4 369 75.45 370.05 74.55 371.5 74.55 372.4 74.55 373.1 74.95 373.75 75.35 374 76.05 374.3 76.75 374.3 78.15
L 374.3 86.3 376.55 86.3 376.55 78.05
Q 376.55 76.45 376.45 75.85 376.25 74.85 375.75 74.15 375.25 73.45 374.2 73
M 389 73.7
Q 387.6 72.55 385.45 72.55 383.7 72.55 382.25 73.4 380.75 74.2 380.05 75.85 379.3 77.45 379.3 79.65 379.3 83 381 84.8 382.65 86.6 385.4 86.6 387.6 86.6 389.15 85.3 390.65 84 391 81.65
L 388.75 81.4
Q 388.55 83.1 387.65 83.9 386.75 84.75 385.4 84.75 383.7 84.75 382.7 83.5 381.65 82.3 381.65 79.55 381.65 76.9 382.7 75.7 383.8 74.45 385.5 74.45 386.65 74.45 387.45 75.15 388.25 75.8 388.6 77.15
L 390.8 76.8
Q 390.4 74.8 389 73.7
M 395.2 67.75
L 392.9 67.75 392.9 86.3 395.2 86.3 395.2 67.75
M 326.25 85.45
Q 327.75 84.35 328.3 82.25
L 325.95 82
Q 325.45 83.4 324.55 84.1 323.65 84.75 322.4 84.75 320.75 84.75 319.6 83.55 318.5 82.4 318.35 80.15
L 328.35 80.15
Q 328.35 79.75 328.35 79.55 328.35 76.25 326.65 74.4 324.95 72.55 322.25 72.55 319.5 72.55 317.75 74.45 316 76.3 316 79.7 316 83 317.75 84.8 319.45 86.6 322.4 86.6 324.75 86.6 326.25 85.45
M 325.1 75.75
Q 325.8 76.6 325.95 78.3
L 318.5 78.3
Q 318.6 76.55 319.65 75.5 320.75 74.45 322.3 74.45 324.05 74.45 325.1 75.75
M 343.75 72.55
Q 342 72.55 340.55 73.4 339.05 74.2 338.35 75.85 337.6 77.45 337.6 79.65 337.6 83 339.3 84.8 340.95 86.6 343.7 86.6 345.9 86.6 347.45 85.3 348.95 84 349.3 81.65
L 347.05 81.4
Q 346.85 83.1 345.95 83.9 345.05 84.75 343.7 84.75 342 84.75 341 83.5 339.95 82.3 339.95 79.55 339.95 76.9 341 75.7 342.1 74.45 343.8 74.45 344.95 74.45 345.75 75.15 346.55 75.8 346.9 77.15
L 349.1 76.8
Q 348.7 74.8 347.3 73.7 345.9 72.55 343.75 72.55
M 325.65 54.5
L 328.45 54.5 320.85 35.95 318.25 35.95 311.1 54.5 313.7 54.5 315.75 48.9 323.5 48.9 325.65 54.5
M 316.45 46.9
L 318.5 41.45
Q 319.15 39.7 319.5 37.9 319.9 39.4 320.8 41.75
L 322.75 46.9 316.45 46.9
M 356.7 72.55
Q 354.2 72.55 352.5 74.05 350.4 75.85 350.4 79.6 350.4 83 352.15 84.8 353.9 86.6 356.7 86.6 358.45 86.6 359.95 85.8 361.45 84.95 362.2 83.5 363 82 363 79.4 363 76.2 361.25 74.4 359.45 72.55 356.7 72.55
M 356.7 74.45
Q 358.4 74.45 359.5 75.75 360.65 77 360.65 79.5 360.65 82.15 359.5 83.45 358.4 84.75 356.7 84.75 355 84.75 353.85 83.45 352.75 82.15 352.75 79.6 352.75 77 353.85 75.75 355 74.45 356.7 74.45
M 351.7 48.9
L 359.45 48.9 361.6 54.5 364.4 54.5 356.8 35.95 354.2 35.95 347.05 54.5 349.65 54.5 351.7 48.9
M 352.4 46.9
L 354.45 41.45
Q 355.1 39.7 355.45 37.9 355.85 39.4 356.75 41.75
L 358.7 46.9 352.4 46.9
M 342.4 36.45
Q 341.15 35.95 338.65 35.95
L 330.45 35.95 330.45 54.5 332.9 54.5 332.9 46.25 335.75 46.25
Q 336.7 46.25 337.1 46.35 337.65 46.5 338.2 46.85 338.75 47.2 339.45 48.1 340.15 49 341.25 50.65
L 343.7 54.5 346.75 54.5 343.55 49.45
Q 342.6 48 341.5 47 341 46.55 340.05 46.05 342.7 45.7 343.95 44.35 345.25 43 345.25 41 345.25 39.5 344.5 38.25 343.7 36.95 342.4 36.45
M 332.9 44.15
L 332.9 38 338.75 38
Q 340.8 38 341.75 38.85 342.7 39.7 342.7 41 342.7 41.9 342.25 42.7 341.75 43.45 340.8 43.8 339.85 44.15 338.15 44.15
L 332.9 44.15
M 386.1 43.85
L 386.1 38.15 397.05 38.15 397.05 35.95 383.65 35.95 383.65 54.5 397.5 54.5 397.5 52.3 386.1 52.3 386.1 46 396.35 46 396.35 43.85 386.1 43.85
M 390.6 34.85
L 393.35 31.3 390.4 31.3 388.7 34.85 390.6 34.85
M 373.2 35.95
L 366.25 35.95 366.25 54.5 373.3 54.5
Q 375.1 54.5 376.3 54.2 377.5 53.9 378.35 53.25 379.15 52.65 379.7 51.55 380.25 50.45 380.25 49.15 380.25 47.5 379.35 46.3 378.45 45.15 376.75 44.65 378.05 44 378.7 42.95 379.35 41.9 379.35 40.7 379.35 39.45 378.6 38.25 377.9 37.1 376.6 36.55 375.3 35.95 373.2 35.95
M 368.7 45.95
L 373 45.95
Q 374.75 45.95 375.7 46.25 376.65 46.55 377.15 47.35 377.7 48.1 377.7 49.15 377.7 50 377.35 50.7 376.95 51.35 376.4 51.7 375.85 52.05 375 52.2 374.5 52.3 373.3 52.3
L 368.7 52.3 368.7 45.95
M 368.7 43.75
L 368.7 38.15 372.4 38.15
Q 374.4 38.15 375.2 38.4 376.05 38.65 376.5 39.4 376.95 40.1 376.95 41 376.95 41.95 376.45 42.6 376 43.25 375.05 43.55 374.35 43.75 372.7 43.75
L 368.7 43.75
M 457.25 72.85
Q 456.35 73.1 455.8 73.5 455.1 74 454.7 74.8 454.3 75.55 454.3 76.45 454.3 77.45 454.8 78.25 455.25 79.05 456.25 79.5 457.2 80 459.7 80.6 461.55 81.1 462.05 81.4 462.7 81.85 462.7 82.6 462.7 83.45 461.95 84.1 461.2 84.75 459.6 84.75 458.05 84.75 457.2 84 456.35 83.3 456.15 81.95
L 453.9 82.3
Q 454.3 84.45 455.65 85.5 457 86.6 459.65 86.6 461.2 86.6 462.45 86.05 463.7 85.5 464.4 84.5 465.05 83.5 465.05 82.35 465.05 81.2 464.5 80.4 463.95 79.65 463 79.2 462.05 78.8 459.65 78.15 457.95 77.7 457.65 77.6 457.05 77.35 456.75 76.95 456.5 76.6 456.5 76.15 456.5 75.5 457.15 74.95 457.8 74.45 459.4 74.45 460.7 74.45 461.45 75 462.15 75.6 462.3 76.65
L 464.55 76.35
Q 464.35 75.05 463.75 74.25 463.2 73.5 462 73.05 460.8 72.55 459.2 72.55 458.15 72.55 457.25 72.85
M 439.6 79.6
Q 439.6 83 441.35 84.8 443.1 86.6 445.9 86.6 447.65 86.6 449.15 85.8 450.65 84.95 451.4 83.5 452.2 82 452.2 79.4 452.2 76.2 450.45 74.4 448.65 72.55 445.9 72.55 443.4 72.55 441.7 74.05 439.6 75.85 439.6 79.6
M 443.05 83.45
Q 441.95 82.15 441.95 79.6 441.95 77 443.05 75.75 444.2 74.45 445.9 74.45 447.6 74.45 448.7 75.75 449.85 77 449.85 79.5 449.85 82.15 448.7 83.45 447.6 84.75 445.9 84.75 444.2 84.75 443.05 83.45
M 415.4 72.9
L 413.1 72.9 413.1 86.3 415.4 86.3 415.4 72.9
M 413.1 67.75
L 413.1 70.4 415.4 70.4 415.4 67.75 413.1 67.75
M 409.55 72.9
L 407.25 72.9 407.25 80.05
Q 407.25 81.8 406.9 82.7 406.5 83.6 405.6 84.15 404.7 84.65 403.7 84.65 402.7 84.65 402 84.15 401.3 83.6 401.05 82.7 400.95 82.1 400.95 80.3
L 400.95 72.9 398.65 72.9 398.65 81.2
Q 398.65 82.65 398.8 83.3 399 84.3 399.5 85 400 85.7 401.05 86.15 402.05 86.6 403.25 86.6 405.95 86.6 407.5 84.35
L 407.5 86.3 409.55 86.3 409.55 72.9
M 429.7 72.9
L 427.4 72.9 427.4 80.05
Q 427.4 81.8 427.05 82.7 426.65 83.6 425.75 84.15 424.85 84.65 423.85 84.65 422.85 84.65 422.15 84.15 421.45 83.6 421.2 82.7 421.1 82.1 421.1 80.3
L 421.1 72.9 418.8 72.9 418.8 81.2
Q 418.8 82.65 418.95 83.3 419.15 84.3 419.65 85 420.15 85.7 421.2 86.15 422.2 86.6 423.4 86.6 426.1 86.6 427.65 84.35
L 427.65 86.3 429.7 86.3 429.7 72.9
M 437.2 54.5
L 439.8 54.5 439.8 51.9 437.2 51.9 437.2 54.5
M 439.9 35.95
L 437.05 35.95 437.75 49.9 439.25 49.9 439.9 35.95
M 422.55 42.25
Q 421.85 41.6 421.85 40.6 421.85 39.45 422.85 38.65 423.85 37.8 426.1 37.8 428.25 37.8 429.35 38.7 430.4 39.6 430.6 41.35
L 432.95 41.2
Q 432.9 39.55 432.05 38.25 431.2 37 429.65 36.3 428.05 35.65 426 35.65 424.1 35.65 422.6 36.3 421.05 36.9 420.25 38.15 419.45 39.35 419.45 40.75 419.45 42.05 420.15 43.05 420.75 44.1 422.1 44.8 423.1 45.35 425.7 45.95 428.25 46.55 429 46.85 430.15 47.3 430.65 47.95 431.15 48.6 431.15 49.45 431.15 50.35 430.65 51.05 430.1 51.8 429.05 52.2 427.95 52.6 426.55 52.6 424.95 52.6 423.7 52.05 422.45 51.5 421.85 50.65 421.25 49.75 421.1 48.35
L 418.75 48.55
Q 418.8 50.4 419.8 51.9 420.75 53.35 422.45 54.1 424.15 54.8 426.65 54.8 428.65 54.8 430.25 54.1 431.8 53.35 432.65 52.05 433.5 50.75 433.5 49.25 433.5 47.75 432.75 46.65 431.95 45.5 430.35 44.75 429.25 44.25 426.25 43.55 423.25 42.9 422.55 42.25
M 415.45 35.95
L 413.1 35.95 413.1 50.5 403.4 35.95 400.85 35.95 400.85 54.5 403.2 54.5 403.2 39.95 412.95 54.5 415.45 54.5 415.45 35.95
M 497.7 99.5
L 494.85 99.5 495.55 113.45 497.05 113.45 497.7 99.5
M 495 115.45
L 495 118.05 497.6 118.05 497.6 115.45 495 115.45
M 491.75 111.15
Q 491.75 107.95 490 106.15 488.2 104.3 485.45 104.3 482.95 104.3 481.25 105.8 479.15 107.6 479.15 111.35 479.15 114.75 480.9 116.55 482.65 118.35 485.45 118.35 487.2 118.35 488.7 117.55 490.2 116.7 490.95 115.25 491.75 113.75 491.75 111.15
M 488.25 107.5
Q 489.4 108.75 489.4 111.25 489.4 113.9 488.25 115.2 487.15 116.5 485.45 116.5 483.75 116.5 482.6 115.2 481.5 113.9 481.5 111.35 481.5 108.75 482.6 107.5 483.75 106.2 485.45 106.2 487.15 106.2 488.25 107.5 Z"/>
</g>

<g id="Layer2_0_FILL">
<path fill="#000000" stroke="none" d="
M 42.5 25.75
Q 46.1 18.35 43.1 18.3 42.8 18.45 39.2 19.35 37.6 19.75 37.6 20.8 37.6 21.95 39.6 24.4 41.6 26.9 42.5 25.75
M 41.4 28
Q 42.5 27.5 41.4 27.05 39.15 26.3 37.6 25.05 36 23.85 34.75 23.8 33.45 23.75 31.55 27.85 31.15 30.4 41.4 28
M 80.9 144.35
Q 80.85 144.45 80.85 144.5
L 81.95 144.5 82.5 142.6 86.1 142.6
Q 88 143.25 89.5 144.5
L 90.8 144.5
Q 90.8 144.25 90.65 144.15 89.15 142.85 87.4 142.05 86.85 141.8 86.3 141.65 86.25 141.6 86.15 141.6
L 82.2 141.6 82.1 141.6
Q 81.95 141.6 81.8 141.7 81.65 141.8 81.65 141.95
L 80.9 144.35
M 61.1 141.9
Q 61.05 141.95 61.05 142.05 61.05 142.1 61.05 142.15 61.1 142.35 61.25 142.45
L 64 144.5 65.4 144.5 65.4 144.45
Q 65.35 144.2 65.2 144.1
L 61.85 141.65
Q 61.7 141.5 61.5 141.55 61.25 141.6 61.15 141.75 61.1 141.8 61.1 141.9
M 58.75 141.6
Q 58.65 141.55 58.55 141.55 58.45 141.55 58.35 141.6 58.15 141.65 58.05 141.85
L 56.7 144.3
Q 56.65 144.4 56.65 144.5
L 57.8 144.5 58.95 142.3
Q 59 142.15 59 142.05 59 142 59 141.9 58.9 141.7 58.75 141.6
M 102.9 18.55
L 102.95 18.55
Q 104.15 15.5 102 6.85
L 94.7 6.85
Q 91.7 8.15 87.75 7.75 84 7.4 80.35 6.85
L 59.3 6.85
Q 57.9 7.5 56.55 8.35 49.15 12.95 46.7 17.4 44.3 21.85 44.1 26.95 44.1 27.15 44.25 27.3 44.25 27.35 44.35 27.4 44.25 27.5 44.15 27.65 44.05 27.7 44 27.8 43.05 29 41.6 29.55 38.45 30.9 35.4 33.6 32.3 36.3 30.8 42.9 29.3 49.45 38.75 66.15 38.75 63.95 39.9 62.2 41.5 59.9 44.3 60.1 50.65 60.75 51.8 67.9 52.15 68.55 52.55 69.35 52.9 69.35 53.55 69.35 55.25 69.35 56.15 68.85 56.9 68.45 56.9 67.85 56.9 66.65 56.05 64.1 56 64 56 63.95 55.85 63.55 55.7 63.15 54.3 59.45 53.4 55.4 52.9 53.25 52.8 51.2 52.8 51.05 52.8 50.95 52.7 49.3 52.9 47.75 53.15 45 53.35 43.3 53.4 42.7 53.45 42.3 53.65 40.35 54.1 38.9 54.5 37.35 57.55 37.2 60.55 37.05 62.95 36.35 64.15 36 65.7 35.2 67.2 34.4 68.95 33.15 71.9 31.15 78.35 29.4
L 78.4 29.4
Q 79.6 29.05 81 28.75 89.5 26.7 94.55 24.85 94.65 24.85 94.75 24.8 94.75 24.9 94.8 24.95 94.9 25.15 95.1 25.2 95.25 25.25 95.45 25.15
L 95.5 25.1
Q 96.65 24.4 98.9 23.45
L 98.95 23.45
Q 101.25 22.35 102.9 18.55 Z"/>

<path fill="#FFFFFF" stroke="none" d="
M 82.5 142.6
L 81.95 144.5 89.5 144.5
Q 88 143.25 86.1 142.6
L 82.5 142.6
M 59 142.05
Q 59 142.15 58.95 142.3
L 57.8 144.5 64 144.5 61.25 142.45
Q 61.1 142.35 61.05 142.15 61.05 142.1 61.05 142.05 61.05 141.95 61.1 141.9
L 59 141.9
Q 59 142 59 142.05
M 79.85 59.25
Q 79.15 58.6 77.95 57.1 76.6 55.6 74.15 54.9 71.8 54.1 69.3 54.55 66.75 54.95 64.9 56.2 64.45 56.6 64.1 57.05 62.05 59.5 61.05 61.65 60 63.8 62.05 63.4 64.1 62.95 66.5 62.35 68.15 62 70.35 61.45 70.4 61.4 70.5 61.4 72.7 60.8 74.4 60.55 76.7 60.1 78.6 60.05 80.5 59.9 79.85 59.25
M 97.45 51.25
Q 97.05 51.05 96.65 50.9 95.1 50.8 93.4 51.1 91.65 51.35 90.35 52.55 88.8 54.3 88.4 55.55 87.95 56.8 87.65 57.35 87.35 57.9 88.65 57.45 89.95 57 91.65 56.65 92.75 56.4 94.4 56.15 94.45 56.1 94.45 56.15 94.55 56.15 94.65 56.15
L 95.15 56.05
Q 96.3 55.9 97.25 55.7 98.9 55.45 99.7 55.3 101.1 54.9 100.35 53.7 99.45 52.4 97.45 51.25 Z"/>

<path fill="#535F81" stroke="none" d="
M 86.3 141.65
Q 86.85 141.8 87.4 142.05 89.15 142.85 90.65 144.15 90.8 144.25 90.8 144.5
L 98.55 144.5
Q 97.95 144.05 97.25 143.55 96.55 143 95.85 142.45 95.7 142.3 95.65 142.1
L 95.65 142.05
Q 95.65 141.9 95.75 141.75 95.2 141.3 94.6 140.8 92 138.65 89.35 137.6 87.659765625 136.90859375 85.95 136.65 84.30859375 136.4037109375 82.65 136.55 82.35 136.55 82.1 136.6 82.1115234375 136.6248046875 82.1 136.65 82.7900390625 138.1578125 82.2 141.6
L 86.15 141.6
Q 86.25 141.6 86.3 141.65
M 48.5 142.45
Q 47.2 143.4 45.75 144.5
L 56.65 144.5
Q 56.65 144.4 56.7 144.3
L 58.05 141.85
Q 58.15 141.65 58.35 141.6 58.45 141.55 58.55 141.55
L 58.55 137.8
Q 54.95 137.5 51.05 140.1 50.65 140.3 50.35 140.55 49.55 141.1 48.6 141.75 48.7 141.9 48.7 142.05 48.7 142.1 48.7 142.15 48.65 142.35 48.5 142.45 Z"/>

<path fill="#FCBB90" stroke="none" d="
M 97.45 29.45
Q 96.55 26.6 95.5 25.1
L 95.45 25.15
Q 95.25 25.25 95.1 25.2 94.9 25.15 94.8 24.95 94.75 24.9 94.75 24.8 94.65 24.85 94.55 24.85 89.5 26.7 81 28.75 79.6 29.05 78.4 29.4
L 78.35 29.4
Q 71.9 31.15 68.95 33.15 67.2 34.4 65.7 35.2 64.15 36 62.95 36.35 60.55 37.05 57.55 37.2 54.5 37.35 54.1 38.9 53.65 40.35 53.45 42.3 53.4 42.7 53.35 43.3 53.15 45 52.9 47.75 52.7 49.3 52.8 50.95 52.8 51.05 52.8 51.2 52.9 53.25 53.4 55.4 54.3 59.45 55.7 63.15 55.85 63.55 56 63.95 56 64 56.05 64.1 56.9 66.65 56.9 67.85 56.9 68.45 56.15 68.85 55.25 69.35 53.55 69.35 52.9 69.35 52.55 69.35 52.2 69.3 52.1 69.2 52 69.1 51.95 68.8 51.85 68.45 51.8 67.9 50.65 60.75 44.3 60.1 41.5 59.9 39.9 62.2 38.75 63.95 38.75 66.15 37.8 75.35 41.4 81.1 44.95 86.85 48.15 89.45
L 48.25 89.45
Q 48.45 90.15 48.65 90.85 54.4166015625 109.1939453125 57.1 126.45 57.134375 126.5501953125 57.15 126.65 57.15 126.75 57.2 126.85 57.9150390625 131.8099609375 58.4 136.65 58.4916015625 137.2259765625 58.55 137.8
L 58.55 141.55
Q 58.65 141.55 58.75 141.6 58.9 141.7 59 141.9
L 61.1 141.9
Q 61.1 141.8 61.15 141.75 61.25 141.6 61.5 141.55 61.7 141.5 61.85 141.65
L 65.2 144.1
Q 65.35 144.2 65.4 144.45
L 65.4 144.5 80.85 144.5
Q 80.85 144.45 80.9 144.35
L 81.65 141.95
Q 81.65 141.8 81.8 141.7 81.95 141.6 82.1 141.6
L 82.2 141.6
Q 82.7900390625 138.1578125 82.1 136.65 82.1115234375 136.6248046875 82.1 136.6 81.4 133.65 81.05 131.05 80.65 128.65 80.6 126.65 80.596484375 126.5494140625 80.6 126.45 80.5568359375 125.11328125 80.65 123.95 82.9181640625 125.446875 84.55 126.45 84.7376953125 126.5525390625 84.9 126.65 87.5 128.25 88.5 128.6 91 129.35 92 129.2 92.5 129.1 93 129.05 93.9 128.8 94.6 128.5 95.55 127.95 96.45 127.1 96.7 126.85 97 126.65 97.177734375 126.5388671875 97.35 126.45 98.0333984375 126.1388671875 98.85 126.1 100.3 125.95 102.1 124.45 103.75 123.1 103.75 120.7 103.75 120.1 103.7 119.55 103.55 117.9 102.95 116.65 102.1 114.95 101.5 113.4 100.9 111.8 100.75 109.5 100.6 107.15 101.35 100.3 102.05 93.65 104.15 87.65 104.35 87.65 104.5 87.7 104.85 86.2 105.4 84.4 105.7 83.7 106 83 109.6 74.9 107.75 70 105.8 65.1 104.7 61.8 103.6 58.5 102.75 56 101.85 53.5 102.7 50.6 103.55 47.65 102.2 43.8 101.7 42.3 100.8 40 99.6 37.05 98.25 31.9 97.9 30.75 97.55 29.75 97.5 29.6 97.45 29.45
M 96.65 50.9
Q 97.05 51.05 97.45 51.25 99.45 52.4 100.35 53.7 101.1 54.9 99.7 55.3 98.9 55.45 97.25 55.7 96.3 55.9 95.15 56.05
L 94.65 56.15
Q 94.55 56.15 94.45 56.15 94.45 56.1 94.4 56.15 92.75 56.4 91.65 56.65 89.95 57 88.65 57.45 87.35 57.9 87.65 57.35 87.95 56.8 88.4 55.55 88.8 54.3 90.35 52.55 91.65 51.35 93.4 51.1 95.1 50.8 96.65 50.9
M 97.4 92.05
Q 97 93.8 96.75 95.45 96.65 95.95 96.6 96.45 96.15 100.15 96.5 103.35 96.7 105.9 97.45 108.15 98.5 110.5 97.2 111.5 89.95 115.1 86.6 112.3 86.1 111.85 85.7 111.2 84.45 109.15 82.9 106 81.75 103.55 80.35 100.55 79.75 99.05 79.1 97.5 78.6 96.3 78.1 95.05 89.35 97.65 97.4 92.05
M 77.95 57.1
Q 79.15 58.6 79.85 59.25 80.5 59.9 78.6 60.05 76.7 60.1 74.4 60.55 72.7 60.8 70.5 61.4 70.4 61.4 70.35 61.45 68.15 62 66.5 62.35 64.1 62.95 62.05 63.4 60 63.8 61.05 61.65 62.05 59.5 64.1 57.05 64.45 56.6 64.9 56.2 66.75 54.95 69.3 54.55 71.8 54.1 74.15 54.9 76.6 55.6 77.95 57.1 Z"/>

<path fill="#333333" stroke="none" d="
M 96.75 95.45
Q 97 93.8 97.4 92.05 89.35 97.65 78.1 95.05 78.6 96.3 79.1 97.5 79.75 99.05 80.35 100.55 81.75 103.55 82.9 106 84.45 109.15 85.7 111.2 86.1 111.85 86.6 112.3 89.95 115.1 97.2 111.5 98.5 110.5 97.45 108.15 96.7 105.9 96.5 103.35 96.15 100.15 96.6 96.45 96.65 95.95 96.75 95.45 Z"/>
</g>

<g id="FL_6789_0_Layer0_0_FILL">
<path fill="#000000" stroke="none" d="
M 339.05 37.25
Q 338.75 37.4 335.2 38.3 333.6 38.7 333.6 39.75 333.6 40.9 335.6 43.35 337.55 45.8 338.45 44.65 342.05 37.3 339.05 37.25
M 333.6 44
Q 332 42.8 330.75 42.75 329.45 42.7 327.6 46.75 327.2 49.3 337.35 46.9 338.45 46.4 337.35 45.95 335.15 45.2 333.6 44
M 385.2 162.7
L 386.45 162.7 386.45 162.65
Q 386.433984375 162.4669921875 386.25 162.3 384.868359375 161.0392578125 383.1 160.25 382.5611328125 160.015625 382 159.8 381.926171875 159.7990234375 381.85 159.8
L 377.9 159.8 377.8 159.8
Q 377.6341796875 159.7998046875 377.5 159.9 377.3689453125 159.995703125 377.3 160.15
L 376.6 162.55
Q 376.6005859375 162.626171875 376.6 162.7
L 377.6 162.7 378.15 160.8 381.75 160.8
Q 383.69375 161.4689453125 385.2 162.7
M 391.4 159.95
Q 391.28984375 160.084375 391.3 160.25
L 391.3 160.3
Q 391.33125 160.5130859375 391.5 160.65 392.2 161.2 392.9 161.75 393.539453125 162.2390625 394.1 162.7
L 395.3 162.7
Q 395.310546875 162.628515625 395.3 162.55 395.2689453125 162.3373046875 395.1 162.2 394.3501953125 161.6 393.5 160.95 392.8 160.4 392.1 159.85 391.9453125 159.7236328125 391.75 159.75 391.5453125 159.7796875 391.4 159.9
L 391.4 159.95
M 344.45 160.65
Q 344.61796875 160.52734375 344.65 160.3 344.6548828125 160.2869140625 344.65 160.25 344.653515625 160.0876953125 344.55 159.95 344.427734375 159.7818359375 344.2 159.75 344.01875 159.7232421875 343.85 159.85 342.3 160.9998046875 340.55 162.3 340.3822265625 162.42265625 340.35 162.6 340.344921875 162.6630859375 340.35 162.7
L 341.7 162.7
Q 343.140625 161.621484375 344.45 160.65
M 356.9 160.25
Q 356.894921875 160.287109375 356.9 160.3 356.932421875 160.5279296875 357.1 160.65
L 359.85 162.7 361.2 162.7
Q 361.205078125 162.66328125 361.2 162.6 361.167578125 162.4220703125 361 162.3
L 357.7 159.85
Q 357.53046875 159.7232421875 357.3 159.75 357.1216796875 159.7822265625 357 159.95 356.94609375 160.021875 356.9 160.1 356.8982421875 160.172265625 356.9 160.25
M 354.8 160.45
Q 354.8556640625 160.3646484375 354.85 160.25 354.851171875 160.1759765625 354.8 160.1 354.7607421875 159.899609375 354.55 159.8 354.4888671875 159.7564453125 354.4 159.75 354.3017578125 159.7400390625 354.2 159.75 353.999609375 159.8400390625 353.9 160
L 352.6 162.45
Q 352.5443359375 162.585546875 352.55 162.7
L 353.6 162.7 354.8 160.45
M 383.45 26.8
Q 379.7119140625 26.4333984375 376.1 25.9
L 355.1 25.9
Q 353.763671875 26.5341796875 352.4 27.35 345.033203125 31.9572265625 342.65 36.4 340.2494140625 40.8052734375 340.05 45.8 340.0380859375 46.0390625 340.15 46.2 340.224609375 46.2513671875 340.25 46.25 340.1947265625 46.4173828125 340.1 46.55 340 46.6 339.95 46.7 339 47.9 337.55 48.45 334.45 49.8 331.4 52.5 328.35 55.15 326.85 61.7 325.35 68.25 334.75 84.85 334.75 82.65 335.9 80.9 337.45 78.6 340.25 78.8 346.55 79.45 347.7 86.55 348.05 87.2 348.45 88 348.8 88 349.45 88 351.15 88 352.05 87.5 352.8 87.1 352.8 86.5 352.8 85.3 351.95 82.8 351.9 82.7 351.9 82.65 351.75 82.25 351.6 81.85 350.2 78.15 349.3 74.15 348.8 72 348.7 69.95 348.7 69.8 348.7 69.7 348.6 68.1 348.8 66.55 349.05 63.8 349.25 62.1 349.3 61.5 349.35 61.1 349.55 59.2 350 57.75 350.4 56.2 353.4 56.05 356.4 55.9 358.8 55.2 360 54.85 361.5 54.05 363 53.25 364.75 52.05 367.7 50.05 374.1 48.3
L 374.15 48.3
Q 375.35 47.95 376.75 47.65 385.2 45.6 390.2 43.8 390.2849609375 43.77578125 390.35 43.75 390.383203125 43.8291015625 390.4 43.9 390.52890625 44.0765625 390.7 44.1 390.923828125 44.178125 391.1 44.05 391.125 44.0599609375 391.15 44.05 392.28515625 43.363671875 394.5 42.4
L 394.5 42.4
Q 396.868359375 41.3095703125 398.5 37.5
L 398.5 37.45
Q 399.7705078125 34.483984375 397.55 25.9
L 390.3 25.9
Q 387.3294921875 27.1833984375 383.45 26.8 Z"/>

<path fill="#FFFFFF" stroke="none" d="
M 381.75 160.8
L 378.15 160.8 377.6 162.7 385.2 162.7
Q 383.69375 161.4689453125 381.75 160.8
M 354.85 160.25
Q 354.8556640625 160.3646484375 354.8 160.45
L 353.6 162.7 359.85 162.7 357.1 160.65
Q 356.932421875 160.5279296875 356.9 160.3 356.894921875 160.287109375 356.9 160.25 356.8982421875 160.172265625 356.9 160.1
L 354.8 160.1
Q 354.851171875 160.1759765625 354.85 160.25 Z"/>

<path fill="#535F81" stroke="none" d="
M 391.3 160.25
Q 391.28984375 160.084375 391.4 159.95
L 391.4 159.9
Q 390.8443359375 159.4794921875 390.25 159 387.65 156.9 385.05 155.85 381.75 154.5 378.35 154.8 378.05 154.8 377.8 154.85 378.5 156.35 377.9 159.8
L 381.85 159.8
Q 381.926171875 159.7990234375 382 159.8 382.5611328125 160.015625 383.1 160.25 384.868359375 161.0392578125 386.25 162.3 386.433984375 162.4669921875 386.45 162.65
L 386.45 162.7 394.1 162.7
Q 393.539453125 162.2390625 392.9 161.75 392.2 161.2 391.5 160.65 391.33125 160.5130859375 391.3 160.3
L 391.3 160.25
M 354.4 159.75
L 354.4 156.05
Q 350.85 155.75 346.95 158.3 346.55 158.5 346.25 158.75 345.4337890625 159.3212890625 344.55 159.95 344.653515625 160.0876953125 344.65 160.25 344.6548828125 160.2869140625 344.65 160.3 344.61796875 160.52734375 344.45 160.65 343.140625 161.621484375 341.7 162.7
L 352.55 162.7
Q 352.5443359375 162.585546875 352.6 162.45
L 353.9 160
Q 353.999609375 159.8400390625 354.2 159.75 354.3017578125 159.7400390625 354.4 159.75 Z"/>

<path fill="#FCBB90" stroke="none" d="
M 348.95 108
L 344.6 109.4
Q 350.35 127.7 353 144.95 353 145.05 353.05 145.15 353.85 150.65 354.4 156.05
L 354.4 159.75
Q 354.4888671875 159.7564453125 354.55 159.8 354.7607421875 159.899609375 354.8 160.1
L 356.9 160.1
Q 356.94609375 160.021875 357 159.95 357.1216796875 159.7822265625 357.3 159.75 357.53046875 159.7232421875 357.7 159.85
L 361 162.3
Q 361.167578125 162.4220703125 361.2 162.6 361.205078125 162.66328125 361.2 162.7
L 376.6 162.7
Q 376.6005859375 162.626171875 376.6 162.55
L 377.3 160.15
Q 377.3689453125 159.995703125 377.5 159.9 377.6341796875 159.7998046875 377.8 159.8
L 377.9 159.8
Q 363.75 157.5 354.3 131.75
L 348.95 108
M 362.55 57.6
Q 358.75 59.35 356.1 59.3 353.35 59.25 352.7 59.6 351.95 60.05 351.25 62.3 350.8 63.7 350.8 68.4 350.8 71.2 351.5 76.95 352.05 81.2 352.6 82.4
L 351.9 82.65
Q 351.9 82.7 351.95 82.8 352.8 85.3 352.8 86.5 352.8 87.1 352.05 87.5 351.15 88 349.45 88 348.8 88 348.45 88 348.1 87.95 348 87.85 347.9 87.75 347.85 87.45 347.75 87.1 347.7 86.55 346.55 79.45 340.25 78.8 337.45 78.6 335.9 80.9 334.75 82.65 334.75 84.85 333.8 93.95 337.35 99.7 340.9 105.4 344.1 108
L 344.2 108
Q 345.75 108.6 346.7 108 347.3 107.65 347.75 106.9 348.15 106.1 348.4 104.9 348.15 106.1 347.75 106.9
L 348.95 108 349.15 107.8
Q 349.2 106.3 352.9 113.65 356.55 120.95 359.95 126.05 363.35 131.15 374.5 138.25 385.6 145.3 387.25 144.7 388.85 144.15 390.35 142.35 391.85 140.5 394.5 140.65 396.1 140.75 397.3 139.9 398.2 139.3 399.3 137.9 399.15 136.25 398.55 135 397.7 133.35 397.1 131.8 396.5 130.2 396.35 127.9 396.2 125.6 396.95 118.75 397.9 109.6 401.55 101.55 405.15 93.5 403.3 88.65 401.4 83.8 400.3 80.5 399.2 77.2 398.35 74.75 397.45 72.25 398.3 69.35 399.15 66.45 397.8 62.6 397.3 61.1 396.4 58.85 395.2 55.9 393.85 50.8 393.5 49.65 393.2 48.65 390.35 49.55 389.55 49.75 387.7 50.25 384.7 50.65 377.4 51.65 375.15 52.2 372.85 52.75 369.05 54.45 365.2 56.35 363.1 57.35 363.05 57.4 363 57.4 362.75 57.5 362.55 57.6
M 339.9 84.35
Q 339.5 84.15 339.05 84.2 339.5 84.15 339.9 84.35 343.75 85.3 344.75 88.6 345.1 89.7 345.1 91.05 343.7 91.85 343.3 93.45 342.5 96.65 345.45 97.7
L 345.75 100.9 345.45 97.7
Q 342.5 96.65 343.3 93.45 343.7 91.85 345.1 91.05 345.1 89.7 344.75 88.6 343.75 85.3 339.9 84.35
M 379.5 66.65
Q 379.45 68 380.15 71.55 380.8 75.1 381.6 77.65 382.4 80.2 385.7 84.9 388.95 89.6 390.95 90.95 392.95 92.25 393.45 92.75 393.9 93.2 394.15 94.95 394.4 96.65 392.9 99.15 391.35 101.6 385.35 101.8 391.35 101.6 392.9 99.15 394.4 96.65 394.15 94.95 393.9 93.2 393.45 92.75 392.95 92.25 390.95 90.95 388.95 89.6 385.7 84.9 382.4 80.2 381.6 77.65 380.8 75.1 380.15 71.55 379.45 68 379.5 66.65 Z"/>

<path fill="#FFCC99" stroke="none" d="
M 344.6 109.4
L 348.95 108 347.75 106.9
Q 347.3 107.65 346.7 108 345.75 108.6 344.2 108 344.4 108.7 344.6 109.4 Z"/>

<path fill="#E99C69" stroke="none" d="
M 376.4 142.25
Q 373.6 140.4 369.85 137.8 357.9 129.45 356.15 126.45 354.35 123.45 348.95 108
L 354.3 131.75
Q 363.75 157.5 377.9 159.8 378.5 156.35 377.8 154.85 377.15 151.9 376.8 149.35 376.4 146.95 376.35 144.95 376.3 143.5 376.4 142.25
M 369.85 137.8
Q 373.6 140.4 376.4 142.25 378.85 143.9 380.6 144.95 383.2 146.55 384.2 146.9 386.65 147.65 387.65 147.5 388.15 147.4 388.65 147.35 389.55 147.1 390.25 146.8 391.2 146.25 392.1 145.4 392.35 145.15 392.65 144.95 393.4 144.45 394.45 144.4 395.9 144.25 397.7 142.75 399.35 141.45 399.35 139.05 399.35 138.45 399.3 137.9 398.2 139.3 397.3 139.9 396.1 140.75 394.5 140.65 391.85 140.5 390.35 142.35 388.85 144.15 387.25 144.7 385.6 145.3 374.5 138.25 363.35 131.15 359.95 126.05 356.55 120.95 352.9 113.65 349.2 106.3 349.15 107.8
L 348.95 108
Q 354.35 123.45 356.15 126.45 357.9 129.45 369.85 137.8
M 374.15 48.3
L 374.1 48.3
Q 367.7 50.05 364.75 52.05 363 53.25 361.5 54.05 360 54.85 358.8 55.2 356.4 55.9 353.4 56.05 350.4 56.2 350 57.75 349.55 59.2 349.35 61.1 349.3 61.5 349.25 62.1 349.05 63.8 348.8 66.55 348.6 68.1 348.7 69.7 348.7 69.8 348.7 69.95 348.8 72 349.3 74.15 350.2 78.15 351.6 81.85 351.75 82.25 351.9 82.65
L 352.6 82.4
Q 352.05 81.2 351.5 76.95 350.8 71.2 350.8 68.4 350.8 63.7 351.25 62.3 351.95 60.05 352.7 59.6 353.35 59.25 356.1 59.3 358.75 59.35 362.55 57.6 362.75 57.5 363 57.4 363.05 57.4 363.1 57.35 365.2 56.35 369.05 54.45 372.85 52.75 375.15 52.2 377.4 51.65 384.7 50.65 387.7 50.25 389.55 49.75 390.35 49.55 393.2 48.65 393.15 48.5 393.1 48.35 392.182421875 45.509765625 391.15 44.05 391.125 44.0599609375 391.1 44.05 390.923828125 44.178125 390.7 44.1 390.52890625 44.0765625 390.4 43.9 390.383203125 43.8291015625 390.35 43.75 390.2849609375 43.77578125 390.2 43.8 385.2 45.6 376.75 47.65 375.35 47.95 374.15 48.3 Z"/>
</g>

<g id="FL_6789_0_Layer0_1_FILL">
<path fill="#FFFFFF" stroke="none" d="
M 392.85 129.9
Q 394.1 128.9 393.1 126.55 390.4 129.4 382.3 130.7 385.6 133.5 392.85 129.9
M 392.4 113.95
Q 392.65 112.3 393.05 110.55 385.05 116.15 373.85 113.55 374.35 114.8 374.85 116 384.9 118.3 392.4 113.95 Z"/>

<path fill="#FF0000" stroke="none" d="
M 392.15 121.8
Q 390.7 120.4 388.05 121.1 385.45 121.75 382.8 122.4 380.15 122.95 378.6 124.45 380.15 127.55 381.4 129.6 381.8 130.25 382.3 130.7 390.4 129.4 393.1 126.55 392.35 124.35 392.15 121.8 Z"/>

<path fill="#333333" stroke="none" d="
M 392.25 114.95
Q 392.3 114.45 392.4 113.95 384.9 118.3 374.85 116 375.5 117.55 376.1 119 377.45 122 378.6 124.45 380.15 122.95 382.8 122.4 385.45 121.75 388.05 121.1 390.7 120.4 392.15 121.8 391.8 118.6 392.25 114.95 Z"/>

<path fill="#000000" stroke="none" d="
M 391.8 61.85
Q 390.8 61.75 390.05 61.7 386.6 61.8 382.5 63.35 378.4 64.9 379 66.95 379.55 68.95 384.1 67.4 388.65 65.8 390.55 65.6 392.45 65.35 394.1 65.25
L 394.55 65.25
Q 394.65 65.25 394.8 65.25 394.95 65.25 395.1 65.25 395.9 65.25 396.45 65.3
L 396.5 65.3
Q 396.55 65.3 396.65 65.3 397.6 64.95 397.65 64.45 397.65 63.95 396.65 63.35 394.7 62.15 391.8 61.85
M 358.1 66.6
Q 360.2 65.4 362.75 65.05 365.25 64.65 368.55 65.55 371.85 66.4 372.55 65.35 373.25 64.25 373.4 63.75 373.75 62.2 371.4 61.35 368.2 60.2 367.15 60.25 365.95 60.25 364.5 60.25 363.6 60.25 362.15 60.55 360.75 60.8 357.5 62.7 354.2 64.6 352.9 67.05 352.55 67.65 352.5 68.15 352.3 69.45 354.1 68.6 355.9 67.75 358.1 66.6 Z"/>
</g>

<g id="FL_6789_0_Layer0_2_FILL">
<path fill="#000000" stroke="none" d="
M 365.25 111.8
Q 368.15 112.25 370.8 110.65 374.4 108.7 378.3 108.4 387.1 109.05 386.65 107.75 382.4 101.7 376.4 104.7 374.45 105.65 370.05 107.8 364.5 110.05 362.7 108.95 361.6 108.25 360.85 107.45 361.15 108.25 361.45 109 362.55 111.55 365.25 111.8
M 402 103.3
Q 398.4 102.05 396.8 101.55 391.8 99.7 389.2 106.6 388.95 108.75 392.45 106.9 395.95 105.05 399.5 106.1 403.05 107.1 405.55 106.1 408 105.1 408.4 102.2 408.1 102.6 407.75 103 406.55 104.45 402 103.3 Z"/>
</g>

<g id="FL_6789_0_Layer0_3_FILL">
<path fill="#E99C69" stroke="none" d="
M 392.2 75.55
Q 389.95 76.05 387.4 76.9 384.85 77.75 383.75 80.65 384.45 80.25 387.95 78.35 391.45 76.45 397.6 76.7 394.4 75 392.2 75.55
M 356.4 85.55
Q 354.95 86.8 356.1 86.55 356.15 86.55 356.15 86.6
L 356.7 86.7
Q 356.4 86.6 356.2 86.55 356.75 86.4 357.9 85.9 361.55 84.3 367.35 83.15 373.15 82 377.8 82.65 374.95 80.25 373.4 80.25 371.8 80.2 366 81.15 361.05 81.9 356.4 85.55 Z"/>

<path fill="#FFFFFF" stroke="none" d="
M 386.3 73.7
Q 385.85 72.5 386 71.3 384.5 73.05 384.1 74.3 383.65 75.55 383.35 76.1 383.05 76.65 384.35 76.2 385.6 75.75 387.3 75.4 386.65 74.7 386.3 73.7
M 393.1 70
Q 392.7 69.8 392.3 69.65 392.7 70.15 392.95 70.8 393.55 72.55 393 74.2 392.95 74.3 392.9 74.45 394.5 74.2 395.3 74.05 396.7 73.65 395.95 72.45 395.05 71.15 393.1 70
M 370.65 76.7
Q 370.65 78.1 370.15 79.25 372.45 78.8 374.35 78.75 376.25 78.6 375.6 77.95 374.9 77.3 373.7 75.85 372.35 74.35 369.9 73.65 370.65 75 370.65 76.7
M 360.55 76.7
Q 360.55 75.8 360.75 74.95 360.3 75.35 359.95 75.8 357.9 78.2 356.9 80.35 355.85 82.5 357.9 82.1 359.95 81.65 362.3 81.05 362.15 80.95 362 80.75 360.55 79.1 360.55 76.7 Z"/>

<path fill="url(#Gradient_2)" stroke="none" d="
M 389.05 69.85
Q 387.3 70.1 386 71.3 385.85 72.5 386.3 73.7 386.65 74.7 387.3 75.4 388.4 75.15 390.05 74.9 390.1 74.85 390.1 74.9 390.2 74.9 390.3 74.9
L 390.8 74.8
Q 391.95 74.65 392.9 74.45 392.95 74.3 393 74.2 393.55 72.55 392.95 70.8 392.7 70.15 392.3 69.65 390.75 69.55 389.05 69.85 Z"/>

<path fill="url(#Gradient_3)" stroke="none" d="
M 360.75 74.95
Q 360.55 75.8 360.55 76.7 360.55 79.1 362 80.75 362.15 80.95 362.3 81.05 363.95 80.7 366.15 80.15 366.2 80.1 366.3 80.1 368.5 79.5 370.15 79.25 370.65 78.1 370.65 76.7 370.65 75 369.9 73.65 367.6 72.85 365.1 73.3 362.55 73.7 360.75 74.95 Z"/>
</g>

<g id="FL_6789_0_Layer0_4_FILL">
<path fill="#000000" stroke="none" d="
M 389.15 72
Q 388.95 72.3 388.9 72.6 388.85 72.7 388.85 72.8 388.85 73.25 389.15 73.55 389.5 73.9 389.95 73.9 390.4 73.9 390.7 73.55 391.05 73.25 391.05 72.8 391.05 72.7 391.05 72.6 391 72.3 390.7 72 390.4 71.7 389.95 71.7 389.5 71.7 389.15 72
M 364.25 76.9
Q 364.2 77.05 364.2 77.2 364.2 77.8 364.6 78.2 365.05 78.65 365.65 78.65 366.25 78.65 366.65 78.2 367.1 77.8 367.1 77.2 367.1 77.05 367.1 76.9 367 76.5 366.65 76.15 366.25 75.75 365.65 75.75 365.05 75.75 364.6 76.15 364.3 76.5 364.25 76.9 Z"/>
</g>

<g id="FL_6789_0_Layer0_5_FILL">
<path fill="#FFFFFF" stroke="none" d="
M 389.5 72.65
Q 389.5 72.55 389.5 72.45 389.4 72.2 389.2 71.95 388.9 71.7 388.55 71.7 388.15 71.7 387.85 71.95 387.65 72.2 387.6 72.45 387.6 72.55 387.6 72.65 387.6 73.05 387.85 73.3 388.15 73.6 388.55 73.6 388.9 73.6 389.2 73.3 389.5 73.05 389.5 72.65
M 362.5 77.8
Q 362.95 78.25 363.55 78.25 364.15 78.25 364.55 77.8 365 77.4 365 76.8 365 76.65 365 76.5 364.9 76.1 364.55 75.75 364.15 75.35 363.55 75.35 362.95 75.35 362.5 75.75 362.2 76.1 362.15 76.5 362.1 76.65 362.1 76.8 362.1 77.4 362.5 77.8 Z"/>
</g>

<g id="Layer0_0_FILL">
<path fill="url(#Gradient_4)" stroke="none" d="
M 149.55 29.3
Q 149.55 1.55 121.8 1.55
L 29.75 1.55
Q 2 1.55 2 29.3
L 2 121.35
Q 2 149.1 29.75 149.1
L 121.8 149.1
Q 149.55 149.1 149.55 121.35
L 149.55 29.3
M 121.8 6.55
Q 144.55 6.55 144.55 29.3
L 144.55 121.35
Q 144.55 144.1 121.8 144.1
L 29.75 144.1
Q 7 144.1 7 121.35
L 7 29.3
Q 7 6.55 29.75 6.55
L 121.8 6.55 Z"/>
</g>

<path id="Layer5_0_1_STROKES" stroke="#666666" stroke-width="2" stroke-linejoin="round" stroke-linecap="round" fill="none" d="
M 217.15 76.95
L 173.7 76.95 217.15 50.75 217.15 34.65
Q 217.15 15.1 236.25 14.65
L 495.15 14.65
Q 500.90234375 14.65 505 16.3 515.15 20.40234375 515.15 34.65
L 515.15 117.7
Q 515.15 131.94765625 505 136.05 500.90234375 137.7 495.15 137.7
L 236.25 137.7
Q 217.15 137.25 217.15 117.7
L 217.15 76.95 Z"/>

<path id="Layer2_0_1_STROKES" stroke="#000000" stroke-width="1" stroke-linejoin="round" stroke-linecap="round" fill="none" d="
M 59 141.9
L 61.1 141.9"/>

<path id="FL_6789_0_Layer0_0_1_STROKES" stroke="#000000" stroke-width="1" stroke-linejoin="round" stroke-linecap="round" fill="none" d="
M 340.275 46.275
Q 340.1947265625 46.4173828125 340.1 46.55 340 46.6 339.95 46.7 339 47.9 337.55 48.45 334.45 49.8 331.4 52.5 328.35 55.15 326.85 61.7 325.35 68.25 334.75 84.85 334.75 82.65 335.9 80.9 337.45 78.6 340.25 78.8 346.55 79.45 347.7 86.55 348.05 87.2 348.45 88 348.8 88 349.45 88 351.15 88 352.05 87.5 352.8 87.1 352.8 86.5 352.8 85.3 351.95 82.8 351.9 82.7 351.9 82.65 351.75 82.25 351.6 81.85 350.2 78.15 349.3 74.15 348.8 72 348.7 69.95 348.7 69.8 348.7 69.7 348.6 68.1 348.8 66.55 349.05 63.8 349.25 62.1 349.3 61.5 349.35 61.1 349.55 59.2 350 57.75 350.4 56.2 353.4 56.05 356.4 55.9 358.8 55.2 360 54.85 361.5 54.05 363 53.25 364.75 52.05 367.7 50.05 374.1 48.3
L 374.15 48.3
Q 375.35 47.95 376.75 47.65 385.2 45.6 390.2 43.8 390.2849609375 43.77578125 390.375 43.75
M 391.15 44.05
Q 392.182421875 45.509765625 393.1 48.35 393.15 48.5 393.2 48.65 393.5 49.65 393.85 50.8 395.2 55.9 396.4 58.85 397.3 61.1 397.8 62.6 399.15 66.45 398.3 69.35 397.45 72.25 398.35 74.75 399.2 77.2 400.3 80.5 401.4 83.8 403.3 88.65 405.15 93.5 401.55 101.55 397.9 109.6 396.95 118.75 396.2 125.6 396.35 127.9 396.5 130.2 397.1 131.8 397.7 133.35 398.55 135 399.15 136.25 399.3 137.9 399.35 138.45 399.35 139.05 399.35 141.45 397.7 142.75 395.9 144.25 394.45 144.4 393.4 144.45 392.65 144.95 392.35 145.15 392.1 145.4 391.2 146.25 390.25 146.8 389.55 147.1 388.65 147.35 388.15 147.4 387.65 147.5 386.65 147.65 384.2 146.9 383.2 146.55 380.6 144.95 378.85 143.9 376.4 142.25 376.3 143.5 376.35 144.95 376.4 146.95 376.8 149.35 377.15 151.9 377.8 154.85 378.05 154.8 378.35 154.8 381.75 154.5 385.05 155.85 387.65 156.9 390.25 159 390.8443359375 159.4794921875 391.4 159.925
M 344.55 159.95
Q 345.4337890625 159.3212890625 346.25 158.75 346.55 158.5 346.95 158.3 350.85 155.75 354.4 156.05 353.85 150.65 353.05 145.15 353 145.05 353 144.95 350.35 127.7 344.6 109.4 344.4 108.7 344.2 108
L 344.1 108
Q 340.9 105.4 337.35 99.7 333.8 93.95 334.75 84.85
M 345.75 100.9
L 345.45 97.7
Q 342.5 96.65 343.3 93.45 343.7 91.85 345.1 91.05 345.1 89.7 344.75 88.6 343.75 85.3 339.9 84.35 339.5 84.15 339.05 84.2
M 347.7 86.55
Q 347.75 87.1 347.85 87.45 347.9 87.75 348 87.85 348.1 87.95 348.45 88
M 379.5 66.65
Q 379.45 68 380.15 71.55 380.8 75.1 381.6 77.65 382.4 80.2 385.7 84.9 388.95 89.6 390.95 90.95 392.95 92.25 393.45 92.75 393.9 93.2 394.15 94.95 394.4 96.65 392.9 99.15 391.35 101.6 385.35 101.8
M 348.95 108
Q 354.35 123.45 356.15 126.45 357.9 129.45 369.85 137.8 373.6 140.4 376.4 142.25
M 347.75 106.9
Q 347.3 107.65 346.7 108 345.75 108.6 344.2 108
M 347.75 106.9
Q 348.15 106.1 348.4 104.9
M 377.8 154.85
Q 378.5 156.35 377.9 159.8
M 354.825 160.1
L 356.925 160.1
M 354.4 156.05
L 354.4 159.75"/>

<path id="FL_6789_0_Layer0_1_1_STROKES" stroke="#000000" stroke-width="1" stroke-linejoin="round" stroke-linecap="round" fill="none" d="
M 392.4 113.95
Q 392.65 112.3 393.05 110.55 385.05 116.15 373.85 113.55 374.35 114.8 374.85 116
M 392.4 113.95
Q 392.3 114.45 392.25 114.95 391.8 118.6 392.15 121.8 392.35 124.35 393.1 126.55 394.1 128.9 392.85 129.9 385.6 133.5 382.3 130.7 381.8 130.25 381.4 129.6 380.15 127.55 378.6 124.45 377.45 122 376.1 119 375.5 117.55 374.85 116
M 393.05 110.55
Q 394.65 109.4 396.15 108
M 373.85 113.55
L 370.3 111.95"/>

<path id="FL_6789_0_Layer0_2_1_STROKES" stroke="#000000" stroke-width="1" stroke-linejoin="round" stroke-linecap="round" fill="none" d="
M 340.95 84.7
Q 335.7 90.55 341.05 98.8"/>

<path id="FL_6789_0_Layer0_3_1_STROKES" stroke="#000000" stroke-width="1" stroke-linejoin="round" stroke-linecap="round" fill="none" d="
M 360.75 74.95
Q 360.3 75.35 359.95 75.8 357.9 78.2 356.9 80.35 355.85 82.5 357.9 82.1 359.95 81.65 362.3 81.05 363.95 80.7 366.15 80.15 366.2 80.1 366.3 80.1 368.5 79.5 370.15 79.25
M 369.9 73.65
Q 367.6 72.85 365.1 73.3 362.55 73.7 360.75 74.95
M 392.3 69.65
Q 390.75 69.55 389.05 69.85 387.3 70.1 386 71.3
M 390.3 74.9
L 390.8 74.8
Q 391.95 74.65 392.9 74.45
M 392.3 69.65
Q 392.7 69.8 393.1 70 395.05 71.15 395.95 72.45 396.7 73.65 395.3 74.05 394.5 74.2 392.9 74.45
M 386 71.3
Q 384.5 73.05 384.1 74.3 383.65 75.55 383.35 76.1 383.05 76.65 384.35 76.2 385.6 75.75 387.3 75.4
L 390.1 74.9
M 369.9 73.65
Q 372.35 74.35 373.7 75.85 374.9 77.3 375.6 77.95 376.25 78.6 374.35 78.75 372.45 78.8 370.15 79.25"/>
</defs>

<g transform="matrix( 1, 0, 0, 1, 0,0) ">
<use xlink:href="#Layer8_0_FILL"/>
</g>

<g transform="matrix( 1, 0, 0, 1, 0,0) ">
<use xlink:href="#Layer7_0_FILL"/>
</g>

<g transform="matrix( 1, 0, 0, 1, 0,0) ">
<use xlink:href="#Layer5_0_FILL"/>

<use xlink:href="#Layer5_0_1_STROKES"/>
</g>

<g transform="matrix( 1, 0, 0, 1, -2.15,1.35) ">
<use xlink:href="#Layer4_0_FILL"/>
</g>

<g transform="matrix( 1, 0, 0, 1, 0,0) ">
<use xlink:href="#Layer2_0_FILL"/>

<use xlink:href="#Layer2_0_1_STROKES"/>
</g>

<g transform="matrix( 1.00616455078125, 0, 0, 1.00616455078125, -298.05,-19.2) ">
<g transform="matrix( 1, 0, 0, 1, 0,0) ">
<use xlink:href="#FL_6789_0_Layer0_0_FILL"/>

<use xlink:href="#FL_6789_0_Layer0_0_1_STROKES"/>
</g>

<g transform="matrix( 1, 0, 0, 1, 0,0) ">
<use xlink:href="#FL_6789_0_Layer0_1_FILL"/>

<use xlink:href="#FL_6789_0_Layer0_1_1_STROKES"/>
</g>

<g transform="matrix( 1, 0, 0, 1, 0,0) ">
<use xlink:href="#FL_6789_0_Layer0_2_FILL"/>

<use xlink:href="#FL_6789_0_Layer0_2_1_STROKES"/>
</g>

<g transform="matrix( 1, 0, 0, 1, 0,0) ">
<use xlink:href="#FL_6789_0_Layer0_3_FILL"/>

<use xlink:href="#FL_6789_0_Layer0_3_1_STROKES"/>
</g>

<g transform="matrix( 1, 0, 0, 1, 0,0) ">
<use xlink:href="#FL_6789_0_Layer0_4_FILL"/>
</g>

<g transform="matrix( 1, 0, 0, 1, 0,0) ">
<use xlink:href="#FL_6789_0_Layer0_5_FILL"/>
</g>
</g>

<g transform="matrix( 1, 0, 0, 1, 0,0) ">
<use xlink:href="#Layer0_0_FILL"/>
</g>
</svg>
