
<svg xmlns="http://www.w3.org/2000/svg" version="1.1" xmlns:xlink="http://www.w3.org/1999/xlink" preserveAspectRatio="none" x="0px" y="0px" width="708px" height="69px" viewBox="0 0 708 69">
<defs>
<g id="Layer1_0_FILL">
<path fill="#666666" stroke="none" d="
M 706.2 177.75
Q 706.2009765625 166.57109375 695.4 166.25
L 9.35 166.25
Q -1.501171875 166.574609375 -1.5 177.75
L -1.5 223.25
Q -1.501171875 234.425390625 9.35 234.75
L 695.4 234.75
Q 706.2009765625 234.42890625 706.2 223.25
L 706.2 177.75
M 695.35 169.25
Q 703.1990234375 169.555078125 703.2 177.75
L 703.2 223.25
Q 703.1990234375 231.47109375 695.3 231.75
L 9.4 231.75
Q 1.5009765625 231.448828125 1.5 223.25
L 1.5 177.75
Q 1.5009765625 169.551171875 9.4 169.25
L 695.35 169.25 Z"/>

<path fill="#FFFFFF" stroke="none" d="
M 703.2 177.75
Q 703.1990234375 169.555078125 695.35 169.25
L 9.4 169.25
Q 1.5009765625 169.551171875 1.5 177.75
L 1.5 223.25
Q 1.5009765625 231.448828125 9.4 231.75
L 695.3 231.75
Q 703.1990234375 231.47109375 703.2 223.25
L 703.2 177.75 Z"/>
</g>

<g id="Layer0_0_FILL">
<path fill="#000000" stroke="none" d="
M 157.4 196.25
Q 156.45 196.75 155.75 197.75
L 155.75 196.05 153.65 196.05 153.65 214.6 155.95 214.6 155.95 208.05
Q 156.5 208.8 157.4 209.25 158.3 209.75 159.45 209.75 161 209.75 162.45 208.9 163.85 208 164.6 206.35 165.3 204.7 165.3 202.65 165.3 200.7 164.65 199.1 163.95 197.5 162.65 196.6 161.35 195.7 159.6 195.7 158.3 195.7 157.4 196.25
M 155.7 202.8
Q 155.7 200.2 156.85 198.85 157.95 197.5 159.4 197.5 160.85 197.5 161.95 198.8 163 200.05 163 202.6 163 205.3 161.9 206.6 160.8 207.9 159.3 207.9 157.8 207.9 156.75 206.65 155.7 205.4 155.7 202.8
M 134.5 196.65
Q 133.8 197.15 133.4 197.95 133 198.7 133 199.6 133 200.6 133.5 201.4 133.95 202.2 134.95 202.65 135.9 203.15 138.4 203.75 140.25 204.25 140.75 204.55 141.4 205 141.4 205.75 141.4 206.6 140.65 207.25 139.9 207.9 138.3 207.9 136.75 207.9 135.9 207.15 135.05 206.45 134.85 205.1
L 132.6 205.45
Q 133 207.6 134.35 208.65 135.7 209.75 138.35 209.75 139.9 209.75 141.15 209.2 142.4 208.65 143.1 207.65 143.75 206.65 143.75 205.5 143.75 204.35 143.2 203.55 142.65 202.8 141.7 202.35 140.75 201.95 138.35 201.3 136.65 200.85 136.35 200.75 135.75 200.5 135.45 200.1 135.2 199.75 135.2 199.3 135.2 198.65 135.85 198.1 136.5 197.6 138.1 197.6 139.4 197.6 140.15 198.15 140.85 198.75 141 199.8
L 143.25 199.5
Q 143.05 198.2 142.45 197.4 141.9 196.65 140.7 196.2 139.5 195.7 137.9 195.7 136.85 195.7 135.95 196 135.05 196.25 134.5 196.65
M 124.85 195.7
Q 123.1 195.7 121.8 196.2 120.45 196.65 119.8 197.55 119.1 198.45 118.8 199.85
L 121 200.15
Q 121.35 198.75 122.15 198.15 122.9 197.6 124.5 197.6 126.2 197.6 127.1 198.4 127.75 198.95 127.75 200.35 127.75 200.45 127.75 200.95 126.45 201.4 123.65 201.7 122.3 201.9 121.65 202.05 120.75 202.3 120 202.8 119.3 203.3 118.85 204.1 118.4 204.9 118.4 205.9 118.4 207.6 119.55 208.7 120.75 209.75 122.95 209.75 124.3 209.75 125.5 209.3 126.65 208.85 127.9 207.8 128 208.75 128.35 209.45
L 130.75 209.45
Q 130.3 208.7 130.2 207.85 130.05 207 130.05 203.8
L 130.05 200.8
Q 130.05 199.25 129.9 198.7 129.7 197.75 129.2 197.15 128.7 196.55 127.65 196.15 126.55 195.7 124.85 195.7
M 127.75 202.7
L 127.75 203.55
Q 127.75 205.05 127.35 205.8 126.9 206.8 125.85 207.4 124.85 207.95 123.5 207.95 122.2 207.95 121.5 207.35 120.8 206.75 120.8 205.85 120.8 205.25 121.15 204.75 121.45 204.3 122.05 204.05 122.6 203.75 124 203.55 126.5 203.2 127.75 202.7
M 93.05 197.55
Q 91.35 195.7 88.65 195.7 85.9 195.7 84.15 197.6 82.4 199.45 82.4 202.85 82.4 206.15 84.15 207.95 85.85 209.75 88.8 209.75 91.15 209.75 92.65 208.6 94.15 207.5 94.7 205.4
L 92.35 205.15
Q 91.85 206.55 90.95 207.25 90.05 207.9 88.8 207.9 87.15 207.9 86 206.7 84.9 205.55 84.75 203.3
L 94.75 203.3
Q 94.75 202.9 94.75 202.7 94.75 199.4 93.05 197.55
M 91.5 198.9
Q 92.2 199.75 92.35 201.45
L 84.9 201.45
Q 85 199.7 86.05 198.65 87.15 197.6 88.7 197.6 90.45 197.6 91.5 198.9
M 114.85 197.3
Q 114.35 196.6 113.3 196.15 112.3 195.7 111.1 195.7 108.3 195.7 106.8 197.95
L 106.8 196.05 104.75 196.05 104.75 209.45 107.05 209.45 107.05 202.1
Q 107.05 199.55 108.1 198.6 109.15 197.7 110.6 197.7 111.5 197.7 112.2 198.1 112.85 198.5 113.1 199.2 113.4 199.9 113.4 201.3
L 113.4 209.45 115.65 209.45 115.65 201.2
Q 115.65 199.6 115.55 199 115.35 198 114.85 197.3
M 71.05 196.05
L 68.75 196.05 68.75 204.35
Q 68.75 205.8 68.9 206.45 69.1 207.45 69.6 208.15 70.1 208.85 71.15 209.3 72.15 209.75 73.35 209.75 76.05 209.75 77.6 207.5
L 77.6 209.45 79.65 209.45 79.65 196.05 77.35 196.05 77.35 203.2
Q 77.35 204.95 77 205.85 76.6 206.75 75.7 207.3 74.8 207.8 73.8 207.8 72.8 207.8 72.1 207.3 71.4 206.75 71.15 205.85 71.05 205.25 71.05 203.45
L 71.05 196.05
M 59.25 195.7
Q 57.7 195.7 56.35 196.55 55 197.4 54.3 199 53.6 200.6 53.6 202.6 53.6 205.95 55.35 207.85 57.05 209.75 59.45 209.75 60.5 209.75 61.5 209.25 62.45 208.75 62.95 208
L 62.95 214.6 65.25 214.6 65.25 196.05 63.2 196.05 63.2 197.8
Q 61.75 195.7 59.25 195.7
M 63.2 202.9
Q 63.2 205.4 62.15 206.65 61.1 207.9 59.65 207.9 58.1 207.9 57.05 206.6 55.95 205.3 55.95 202.7 55.95 200.05 57 198.8 58 197.5 59.5 197.5 61 197.5 62.1 198.85 63.2 200.2 63.2 202.9
M 50.95 196.05
L 48.65 196.05 48.65 209.45 50.95 209.45 50.95 196.05
M 48.65 190.9
L 48.65 193.55 50.95 193.55 50.95 190.9 48.65 190.9
M 45.15 190.9
L 42.85 190.9 42.85 209.45 45.15 209.45 45.15 190.9
M 26.9 196.5
Q 27.5 194.75 28.9 193.7 30.35 192.7 32.5 192.7 34.35 192.7 35.55 193.6 36.8 194.55 37.45 196.55
L 39.85 196
Q 39.1 193.45 37.2 192 35.3 190.6 32.55 190.6 30.1 190.6 28.05 191.75 26 192.85 24.9 195 23.8 197.15 23.8 200.05 23.8 202.7 24.8 205 25.75 207.35 27.65 208.55 29.5 209.75 32.5 209.75 35.4 209.75 37.4 208.2 39.4 206.6 40.15 203.55
L 37.7 202.95
Q 37.2 205.3 35.8 206.5 34.35 207.65 32.3 207.65 30.6 207.65 29.15 206.8 27.7 205.9 27 204.15 26.3 202.4 26.3 200.05 26.3 198.2 26.9 196.5
M 309.9 196.65
Q 309.2 197.15 308.8 197.95 308.4 198.7 308.4 199.6 308.4 200.6 308.9 201.4 309.35 202.2 310.35 202.65 311.3 203.15 313.8 203.75 315.65 204.25 316.15 204.55 316.8 205 316.8 205.75 316.8 206.6 316.05 207.25 315.3 207.9 313.7 207.9 312.15 207.9 311.3 207.15 310.45 206.45 310.25 205.1
L 308 205.45
Q 308.4 207.6 309.75 208.65 311.1 209.75 313.75 209.75 315.3 209.75 316.55 209.2 317.8 208.65 318.5 207.65 319.15 206.65 319.15 205.5 319.15 204.35 318.6 203.55 318.05 202.8 317.1 202.35 316.15 201.95 313.75 201.3 312.05 200.85 311.75 200.75 311.15 200.5 310.85 200.1 310.6 199.75 310.6 199.3 310.6 198.65 311.25 198.1 311.9 197.6 313.5 197.6 314.8 197.6 315.55 198.15 316.25 198.75 316.4 199.8
L 318.65 199.5
Q 318.45 198.2 317.85 197.4 317.3 196.65 316.1 196.2 314.9 195.7 313.3 195.7 312.25 195.7 311.35 196 310.45 196.25 309.9 196.65
M 292.85 195.7
Q 290.1 195.7 288.35 197.6 286.6 199.45 286.6 202.85 286.6 206.15 288.35 207.95 290.05 209.75 293 209.75 295.35 209.75 296.85 208.6 298.35 207.5 298.9 205.4
L 296.55 205.15
Q 296.05 206.55 295.15 207.25 294.25 207.9 293 207.9 291.35 207.9 290.2 206.7 289.1 205.55 288.95 203.3
L 298.95 203.3
Q 298.95 202.9 298.95 202.7 298.95 199.4 297.25 197.55 295.55 195.7 292.85 195.7
M 295.7 198.9
Q 296.4 199.75 296.55 201.45
L 289.1 201.45
Q 289.2 199.7 290.25 198.65 291.35 197.6 292.9 197.6 294.65 197.6 295.7 198.9
M 269.45 196.05
L 267.4 196.05 267.4 197.8
Q 265.95 195.7 263.45 195.7 261.9 195.7 260.55 196.55 259.2 197.4 258.5 199 257.8 200.6 257.8 202.6 257.8 205.95 259.55 207.85 261.25 209.75 263.65 209.75 264.7 209.75 265.7 209.25 266.65 208.75 267.15 208
L 267.15 214.6 269.45 214.6 269.45 196.05
M 266.3 198.85
Q 267.4 200.2 267.4 202.9 267.4 205.4 266.35 206.65 265.3 207.9 263.85 207.9 262.3 207.9 261.25 206.6 260.15 205.3 260.15 202.7 260.15 200.05 261.2 198.8 262.2 197.5 263.7 197.5 265.2 197.5 266.3 198.85
M 275.2 196.05
L 272.9 196.05 272.9 204.35
Q 272.9 205.8 273.05 206.45 273.25 207.45 273.75 208.15 274.25 208.85 275.3 209.3 276.3 209.75 277.5 209.75 280.2 209.75 281.75 207.5
L 281.75 209.45 283.8 209.45 283.8 196.05 281.5 196.05 281.5 203.2
Q 281.5 204.95 281.15 205.85 280.75 206.75 279.85 207.3 278.95 207.8 277.95 207.8 276.95 207.8 276.25 207.3 275.55 206.75 275.3 205.85 275.2 205.25 275.2 203.45
L 275.2 196.05
M 239.45 196.65
Q 238.75 197.15 238.35 197.95 237.95 198.7 237.95 199.6 237.95 200.6 238.45 201.4 238.9 202.2 239.9 202.65 240.85 203.15 243.35 203.75 245.2 204.25 245.7 204.55 246.35 205 246.35 205.75 246.35 206.6 245.6 207.25 244.85 207.9 243.25 207.9 241.7 207.9 240.85 207.15 240 206.45 239.8 205.1
L 237.55 205.45
Q 237.95 207.6 239.3 208.65 240.65 209.75 243.3 209.75 244.85 209.75 246.1 209.2 247.35 208.65 248.05 207.65 248.7 206.65 248.7 205.5 248.7 204.35 248.15 203.55 247.6 202.8 246.65 202.35 245.7 201.95 243.3 201.3 241.6 200.85 241.3 200.75 240.7 200.5 240.4 200.1 240.15 199.75 240.15 199.3 240.15 198.65 240.8 198.1 241.45 197.6 243.05 197.6 244.35 197.6 245.1 198.15 245.8 198.75 245.95 199.8
L 248.2 199.5
Q 248 198.2 247.4 197.4 246.85 196.65 245.65 196.2 244.45 195.7 242.85 195.7 241.8 195.7 240.9 196 240 196.25 239.45 196.65
M 234.1 197.15
Q 233.6 196.55 232.55 196.15 231.45 195.7 229.75 195.7 228 195.7 226.7 196.2 225.35 196.65 224.7 197.55 224 198.45 223.7 199.85
L 225.9 200.15
Q 226.25 198.75 227.05 198.15 227.8 197.6 229.4 197.6 231.1 197.6 232 198.4 232.65 198.95 232.65 200.35 232.65 200.45 232.65 200.95 231.35 201.4 228.55 201.7 227.2 201.9 226.55 202.05 225.65 202.3 224.9 202.8 224.2 203.3 223.75 204.1 223.3 204.9 223.3 205.9 223.3 207.6 224.45 208.7 225.65 209.75 227.85 209.75 229.2 209.75 230.4 209.3 231.55 208.85 232.8 207.8 232.9 208.75 233.25 209.45
L 235.65 209.45
Q 235.2 208.7 235.1 207.85 234.95 207 234.95 203.8
L 234.95 200.8
Q 234.95 199.25 234.8 198.7 234.6 197.75 234.1 197.15
M 228.9 203.55
Q 231.4 203.2 232.65 202.7
L 232.65 203.55
Q 232.65 205.05 232.25 205.8 231.8 206.8 230.75 207.4 229.75 207.95 228.4 207.95 227.1 207.95 226.4 207.35 225.7 206.75 225.7 205.85 225.7 205.25 226.05 204.75 226.35 204.3 226.95 204.05 227.5 203.75 228.9 203.55
M 213.5 196.05
L 211.15 196.05 208.15 204.2
Q 207.65 205.7 207.3 206.75 206.95 205.35 206.45 204.05
L 203.6 196.05 201.2 196.05 206.3 209.45 208.4 209.45 213.5 196.05
M 220.4 195.7
Q 219.6 195.7 218.95 196.2 218.25 196.65 217.5 198.05
L 217.5 196.05 215.45 196.05 215.45 209.45 217.7 209.45 217.7 202.4
Q 217.7 201 218.1 199.75 218.35 198.95 218.95 198.55 219.55 198.05 220.25 198.05 221.1 198.05 221.95 198.55
L 222.75 196.45
Q 221.55 195.7 220.4 195.7
M 190.8 196.2
Q 189.45 196.65 188.8 197.55 188.1 198.45 187.8 199.85
L 190 200.15
Q 190.35 198.75 191.15 198.15 191.9 197.6 193.5 197.6 195.2 197.6 196.1 198.4 196.75 198.95 196.75 200.35 196.75 200.45 196.75 200.95 195.45 201.4 192.65 201.7 191.3 201.9 190.65 202.05 189.75 202.3 189 202.8 188.3 203.3 187.85 204.1 187.4 204.9 187.4 205.9 187.4 207.6 188.55 208.7 189.75 209.75 191.95 209.75 193.3 209.75 194.5 209.3 195.65 208.85 196.9 207.8 197 208.75 197.35 209.45
L 199.75 209.45
Q 199.3 208.7 199.2 207.85 199.05 207 199.05 203.8
L 199.05 200.8
Q 199.05 199.25 198.9 198.7 198.7 197.75 198.2 197.15 197.7 196.55 196.65 196.15 195.55 195.7 193.85 195.7 192.1 195.7 190.8 196.2
M 193 203.55
Q 195.5 203.2 196.75 202.7
L 196.75 203.55
Q 196.75 205.05 196.35 205.8 195.9 206.8 194.85 207.4 193.85 207.95 192.5 207.95 191.2 207.95 190.5 207.35 189.8 206.75 189.8 205.85 189.8 205.25 190.15 204.75 190.45 204.3 191.05 204.05 191.6 203.75 193 203.55
M 184.65 190.9
L 182.35 190.9 182.35 209.45 184.65 209.45 184.65 190.9
M 170.7 196.2
Q 169.35 196.65 168.7 197.55 168 198.45 167.7 199.85
L 169.9 200.15
Q 170.25 198.75 171.05 198.15 171.8 197.6 173.4 197.6 175.1 197.6 176 198.4 176.65 198.95 176.65 200.35 176.65 200.45 176.65 200.95 175.35 201.4 172.55 201.7 171.2 201.9 170.55 202.05 169.65 202.3 168.9 202.8 168.2 203.3 167.75 204.1 167.3 204.9 167.3 205.9 167.3 207.6 168.45 208.7 169.65 209.75 171.85 209.75 173.2 209.75 174.4 209.3 175.55 208.85 176.8 207.8 176.9 208.75 177.25 209.45
L 179.65 209.45
Q 179.2 208.7 179.1 207.85 178.95 207 178.95 203.8
L 178.95 200.8
Q 178.95 199.25 178.8 198.7 178.6 197.75 178.1 197.15 177.6 196.55 176.55 196.15 175.45 195.7 173.75 195.7 172 195.7 170.7 196.2
M 176.65 202.7
L 176.65 203.55
Q 176.65 205.05 176.25 205.8 175.8 206.8 174.75 207.4 173.75 207.95 172.4 207.95 171.1 207.95 170.4 207.35 169.7 206.75 169.7 205.85 169.7 205.25 170.05 204.75 170.35 204.3 170.95 204.05 171.5 203.75 172.9 203.55 175.4 203.2 176.65 202.7
M 450.2 190.9
L 447.6 190.9 440.45 209.45 443.05 209.45 445.1 203.85 452.85 203.85 455 209.45 457.8 209.45 450.2 190.9
M 448.85 192.85
Q 449.25 194.35 450.15 196.7
L 452.1 201.85 445.8 201.85 447.85 196.4
Q 448.5 194.65 448.85 192.85
M 462.25 190.9
L 459.7 190.9 459.7 209.45 462.05 209.45 462.05 194.9 471.8 209.45 474.3 209.45 474.3 190.9 471.95 190.9 471.95 205.45 462.25 190.9
M 427.2 193.1
L 433.3 193.1 433.3 209.45 435.75 209.45 435.75 193.1 441.9 193.1 441.9 190.9 427.2 190.9 427.2 193.1
M 412 193.1
Q 411.2 194.3 411.2 195.7 411.2 197 411.9 198 412.5 199.05 413.85 199.75 414.85 200.3 417.45 200.9 420 201.5 420.75 201.8 421.9 202.25 422.4 202.9 422.9 203.55 422.9 204.4 422.9 205.3 422.4 206 421.85 206.75 420.8 207.15 419.7 207.55 418.3 207.55 416.7 207.55 415.45 207 414.2 206.45 413.6 205.6 413 204.7 412.85 203.3
L 410.5 203.5
Q 410.55 205.35 411.55 206.85 412.5 208.3 414.2 209.05 415.9 209.75 418.4 209.75 420.4 209.75 422 209.05 423.55 208.3 424.4 207 425.25 205.7 425.25 204.2 425.25 202.7 424.5 201.6 423.7 200.45 422.1 199.7 421 199.2 418 198.5 415 197.85 414.3 197.2 413.6 196.55 413.6 195.55 413.6 194.4 414.6 193.6 415.6 192.75 417.85 192.75 420 192.75 421.1 193.65 422.15 194.55 422.35 196.3
L 424.7 196.15
Q 424.65 194.5 423.8 193.2 422.95 191.95 421.4 191.25 419.8 190.6 417.75 190.6 415.85 190.6 414.35 191.25 412.8 191.85 412 193.1
M 400.95 190.9
L 394 190.9 394 209.45 401.05 209.45
Q 402.85 209.45 404.05 209.15 405.25 208.85 406.1 208.2 406.9 207.6 407.45 206.5 408 205.4 408 204.1 408 202.45 407.1 201.25 406.2 200.1 404.5 199.6 405.8 198.95 406.45 197.9 407.1 196.85 407.1 195.65 407.1 194.4 406.35 193.2 405.65 192.05 404.35 191.5 403.05 190.9 400.95 190.9
M 404.7 195.95
Q 404.7 196.9 404.2 197.55 403.75 198.2 402.8 198.5 402.1 198.7 400.45 198.7
L 396.45 198.7 396.45 193.1 400.15 193.1
Q 402.15 193.1 402.95 193.35 403.8 193.6 404.25 194.35 404.7 195.05 404.7 195.95
M 405.45 204.1
Q 405.45 204.95 405.1 205.65 404.7 206.3 404.15 206.65 403.6 207 402.75 207.15 402.25 207.25 401.05 207.25
L 396.45 207.25 396.45 200.9 400.75 200.9
Q 402.5 200.9 403.45 201.2 404.4 201.5 404.9 202.3 405.45 203.05 405.45 204.1
M 377.9 190.9
L 375.45 190.9 375.45 201.65
Q 375.45 204.55 376.15 206.3 376.85 207.95 378.5 208.85 380.15 209.75 382.75 209.75 385.45 209.75 387.1 208.75 388.75 207.7 389.4 206.05 390 204.4 390 201.65
L 390 190.9 387.55 190.9 387.55 201.6
Q 387.55 205.1 386.4 206.35 385.25 207.55 382.55 207.55 380.95 207.55 379.9 206.95 378.8 206.3 378.35 205.2 377.9 204.05 377.9 201.6
L 377.9 190.9
M 358.8 193.1
Q 358 194.3 358 195.7 358 197 358.7 198 359.3 199.05 360.65 199.75 361.65 200.3 364.25 200.9 366.8 201.5 367.55 201.8 368.7 202.25 369.2 202.9 369.7 203.55 369.7 204.4 369.7 205.3 369.2 206 368.65 206.75 367.6 207.15 366.5 207.55 365.1 207.55 363.5 207.55 362.25 207 361 206.45 360.4 205.6 359.8 204.7 359.65 203.3
L 357.3 203.5
Q 357.35 205.35 358.35 206.85 359.3 208.3 361 209.05 362.7 209.75 365.2 209.75 367.2 209.75 368.8 209.05 370.35 208.3 371.2 207 372.05 205.7 372.05 204.2 372.05 202.7 371.3 201.6 370.5 200.45 368.9 199.7 367.8 199.2 364.8 198.5 361.8 197.85 361.1 197.2 360.4 196.55 360.4 195.55 360.4 194.4 361.4 193.6 362.4 192.75 364.65 192.75 366.8 192.75 367.9 193.65 368.95 194.55 369.15 196.3
L 371.5 196.15
Q 371.45 194.5 370.6 193.2 369.75 191.95 368.2 191.25 366.6 190.6 364.55 190.6 362.65 190.6 361.15 191.25 359.6 191.85 358.8 193.1
M 341.7 195.7
Q 339.2 195.7 337.5 197.2 335.4 199 335.4 202.75 335.4 206.15 337.15 207.95 338.9 209.75 341.7 209.75 343.45 209.75 344.95 208.95 346.45 208.1 347.2 206.65 348 205.15 348 202.55 348 199.35 346.25 197.55 344.45 195.7 341.7 195.7
M 344.5 198.9
Q 345.65 200.15 345.65 202.65 345.65 205.3 344.5 206.6 343.4 207.9 341.7 207.9 340 207.9 338.85 206.6 337.75 205.3 337.75 202.75 337.75 200.15 338.85 198.9 340 197.6 341.7 197.6 343.4 197.6 344.5 198.9
M 327.55 195.7
Q 325.8 195.7 324.5 196.2 323.15 196.65 322.5 197.55 321.8 198.45 321.5 199.85
L 323.7 200.15
Q 324.05 198.75 324.85 198.15 325.6 197.6 327.2 197.6 328.9 197.6 329.8 198.4 330.45 198.95 330.45 200.35 330.45 200.45 330.45 200.95 329.15 201.4 326.35 201.7 325 201.9 324.35 202.05 323.45 202.3 322.7 202.8 322 203.3 321.55 204.1 321.1 204.9 321.1 205.9 321.1 207.6 322.25 208.7 323.45 209.75 325.65 209.75 327 209.75 328.2 209.3 329.35 208.85 330.6 207.8 330.7 208.75 331.05 209.45
L 333.45 209.45
Q 333 208.7 332.9 207.85 332.75 207 332.75 203.8
L 332.75 200.8
Q 332.75 199.25 332.6 198.7 332.4 197.75 331.9 197.15 331.4 196.55 330.35 196.15 329.25 195.7 327.55 195.7
M 330.45 202.7
L 330.45 203.55
Q 330.45 205.05 330.05 205.8 329.6 206.8 328.55 207.4 327.55 207.95 326.2 207.95 324.9 207.95 324.2 207.35 323.5 206.75 323.5 205.85 323.5 205.25 323.85 204.75 324.15 204.3 324.75 204.05 325.3 203.75 326.7 203.55 329.2 203.2 330.45 202.7
M 331.5 191.1
L 329.85 191.1
Q 329.75 191.8 329.55 192 329.35 192.2 328.95 192.2 328.5 192.2 327.75 191.85 326.4 191.15 325.6 191.15 324.5 191.15 323.75 191.95 323.05 192.75 323.05 194.05
L 324.75 194.05
Q 324.7 193.45 325 193.15 325.25 192.85 325.7 192.85 326.1 192.85 326.95 193.3 328.25 194 329 194 330.1 194 330.8 193.3 331.45 192.55 331.5 191.1
M 638.3 190.9
L 635.85 190.9 635.85 201.6
Q 635.85 205.1 634.7 206.35 633.55 207.55 630.85 207.55 629.25 207.55 628.2 206.95 627.1 206.3 626.65 205.2 626.2 204.05 626.2 201.6
L 626.2 190.9 623.75 190.9 623.75 201.65
Q 623.75 204.55 624.45 206.3 625.15 207.95 626.8 208.85 628.45 209.75 631.05 209.75 633.75 209.75 635.4 208.75 637.05 207.7 637.7 206.05 638.3 204.4 638.3 201.65
L 638.3 190.9
M 594.75 191.8
Q 592.7 190.6 590.15 190.6 586.2 190.6 583.75 193.2 581.25 195.8 581.25 200.4 581.25 202.85 582.3 205.05 583.4 207.25 585.45 208.5 587.5 209.75 590.1 209.75 592.55 209.75 594.6 208.65 596.7 207.5 597.85 205.25 598.95 203.05 598.95 200.2 598.95 197.45 597.9 195.25 596.8 193.05 594.75 191.8
M 593.45 193.65
Q 594.9 194.55 595.7 196.25 596.45 197.95 596.45 200.2 596.45 203.75 594.65 205.7 592.85 207.65 590.1 207.65 587.4 207.65 585.6 205.75 583.8 203.8 583.8 200.45 583.8 196.3 585.65 194.5 587.55 192.7 590.15 192.7 591.95 192.7 593.45 193.65
M 605.75 190.9
L 602.05 190.9 602.05 209.45 604.45 209.45 604.45 193.65 609.8 209.45 612 209.45 617.4 193.95 617.4 209.45 619.75 209.45 619.75 190.9 616.45 190.9 612 203.8
Q 611.35 205.75 611.05 206.8 610.75 205.85 610.15 204.05
L 605.75 190.9
M 566.85 191.75
Q 564.8 192.85 563.7 195 562.6 197.15 562.6 200.05 562.6 202.7 563.6 205 564.55 207.35 566.45 208.55 568.3 209.75 571.3 209.75 574.2 209.75 576.2 208.2 578.2 206.6 578.95 203.55
L 576.5 202.95
Q 576 205.3 574.6 206.5 573.15 207.65 571.1 207.65 569.4 207.65 567.95 206.8 566.5 205.9 565.8 204.15 565.1 202.4 565.1 200.05 565.1 198.2 565.7 196.5 566.3 194.75 567.7 193.7 569.15 192.7 571.3 192.7 573.15 192.7 574.35 193.6 575.6 194.55 576.25 196.55
L 578.65 196
Q 577.9 193.45 576 192 574.1 190.6 571.35 190.6 568.9 190.6 566.85 191.75
M 541.8 197.2
Q 541.1 196.55 541.1 195.55 541.1 194.4 542.1 193.6 543.1 192.75 545.35 192.75 547.5 192.75 548.6 193.65 549.65 194.55 549.85 196.3
L 552.2 196.15
Q 552.15 194.5 551.3 193.2 550.45 191.95 548.9 191.25 547.3 190.6 545.25 190.6 543.35 190.6 541.85 191.25 540.3 191.85 539.5 193.1 538.7 194.3 538.7 195.7 538.7 197 539.4 198 540 199.05 541.35 199.75 542.35 200.3 544.95 200.9 547.5 201.5 548.25 201.8 549.4 202.25 549.9 202.9 550.4 203.55 550.4 204.4 550.4 205.3 549.9 206 549.35 206.75 548.3 207.15 547.2 207.55 545.8 207.55 544.2 207.55 542.95 207 541.7 206.45 541.1 205.6 540.5 204.7 540.35 203.3
L 538 203.5
Q 538.05 205.35 539.05 206.85 540 208.3 541.7 209.05 543.4 209.75 545.9 209.75 547.9 209.75 549.5 209.05 551.05 208.3 551.9 207 552.75 205.7 552.75 204.2 552.75 202.7 552 201.6 551.2 200.45 549.6 199.7 548.5 199.2 545.5 198.5 542.5 197.85 541.8 197.2
M 531.45 191.8
Q 529.4 190.6 526.85 190.6 522.9 190.6 520.45 193.2 517.95 195.8 517.95 200.4 517.95 202.85 519 205.05 520.1 207.25 522.15 208.5 524.2 209.75 526.8 209.75 529.25 209.75 531.3 208.65 533.4 207.5 534.55 205.25 535.65 203.05 535.65 200.2 535.65 197.45 534.6 195.25 533.5 193.05 531.45 191.8
M 530.15 193.65
Q 531.6 194.55 532.4 196.25 533.15 197.95 533.15 200.2 533.15 203.75 531.35 205.7 529.55 207.65 526.8 207.65 524.1 207.65 522.3 205.75 520.5 203.8 520.5 200.45 520.5 196.3 522.35 194.5 524.25 192.7 526.85 192.7 528.65 192.7 530.15 193.65
M 502.2 190.9
L 499.55 190.9 506.75 209.45 509.25 209.45 516.5 190.9 514 190.9 509 204.4
Q 508.45 205.9 508 207.4 507.6 206 507.05 204.4
L 502.2 190.9
M 497.1 190.9
L 494.65 190.9 494.65 209.45 497.1 209.45 497.1 190.9
M 491.75 193.1
L 491.75 190.9 477.05 190.9 477.05 193.1 483.15 193.1 483.15 209.45 485.6 209.45 485.6 193.1 491.75 193.1
M 678.75 206.85
L 678.75 209.45 681.35 209.45 681.35 206.85 678.75 206.85
M 664.05 197.2
Q 663.35 196.55 663.35 195.55 663.35 194.4 664.35 193.6 665.35 192.75 667.6 192.75 669.75 192.75 670.85 193.65 671.9 194.55 672.1 196.3
L 674.45 196.15
Q 674.4 194.5 673.55 193.2 672.7 191.95 671.15 191.25 669.55 190.6 667.5 190.6 665.6 190.6 664.1 191.25 662.55 191.85 661.75 193.1 660.95 194.3 660.95 195.7 660.95 197 661.65 198 662.25 199.05 663.6 199.75 664.6 200.3 667.2 200.9 669.75 201.5 670.5 201.8 671.65 202.25 672.15 202.9 672.65 203.55 672.65 204.4 672.65 205.3 672.15 206 671.6 206.75 670.55 207.15 669.45 207.55 668.05 207.55 666.45 207.55 665.2 207 663.95 206.45 663.35 205.6 662.75 204.7 662.6 203.3
L 660.25 203.5
Q 660.3 205.35 661.3 206.85 662.25 208.3 663.95 209.05 665.65 209.75 668.15 209.75 670.15 209.75 671.75 209.05 673.3 208.3 674.15 207 675 205.7 675 204.2 675 202.7 674.25 201.6 673.45 200.45 671.85 199.7 670.75 199.2 667.75 198.5 664.75 197.85 664.05 197.2
M 656.95 190.9
L 654.6 190.9 654.6 205.45 644.9 190.9 642.35 190.9 642.35 209.45 644.7 209.45 644.7 194.9 654.45 209.45 656.95 209.45 656.95 190.9 Z"/>
</g>
</defs>

<g transform="matrix( 1, 0, 0, 1, 1.65,-166) ">
<use xlink:href="#Layer1_0_FILL"/>
</g>

<g transform="matrix( 1, 0, 0, 1, 1.45,-168.1) ">
<use xlink:href="#Layer0_0_FILL"/>
</g>
</svg>
